<?xml version="1.0" encoding="UTF-8" standalone="no"?>
<!DOCTYPE svg PUBLIC "-//W3C//DTD SVG 1.1//EN"
 "http://www.w3.org/Graphics/SVG/1.1/DTD/svg11.dtd">
<!-- Generated by graphviz version 5.0.1 (0)
 -->
<!-- Title: Tree Pages: 1 -->
<svg width="544pt" height="414pt"
 viewBox="0.00 0.00 544.00 414.00" xmlns="http://www.w3.org/2000/svg" xmlns:xlink="http://www.w3.org/1999/xlink">
<g id="graph0" class="graph" transform="scale(1 1) rotate(0) translate(4 410)">
<title>Tree</title>
<polygon fill="white" stroke="none" points="-4,4 -4,-410 540,-410 540,4 -4,4"/>
<!-- 0 -->
<g id="node1" class="node">
<title>0</title>
<polygon fill="none" stroke="black" points="201.5,-406 98.5,-406 98.5,-368 201.5,-368 201.5,-406"/>
<text text-anchor="middle" x="150" y="-390.8" font-family="Helvetica,sans-Serif" font-size="14.00">lab3 &lt;= 83.5</text>
<text text-anchor="middle" x="150" y="-375.8" font-family="Helvetica,sans-Serif" font-size="14.00">class = not A+</text>
</g>
<!-- 1 -->
<g id="node2" class="node">
<title>1</title>
<polygon fill="none" stroke="black" points="142.5,-331 39.5,-331 39.5,-295 142.5,-295 142.5,-331"/>
<text text-anchor="middle" x="91" y="-309.3" font-family="Helvetica,sans-Serif" font-size="14.00">class = not A+</text>
</g>
<!-- 0&#45;&gt;1 -->
<g id="edge1" class="edge">
<title>0&#45;&gt;1</title>
<path fill="none" stroke="black" d="M135.11,-367.83C128.04,-359.2 119.46,-348.73 111.76,-339.33"/>
<polygon fill="black" stroke="black" points="114.32,-336.93 105.27,-331.42 108.9,-341.37 114.32,-336.93"/>
<text text-anchor="middle" x="102.8" y="-352.6" font-family="Helvetica,sans-Serif" font-size="14.00">True</text>
</g>
<!-- 2 -->
<g id="node3" class="node">
<title>2</title>
<polygon fill="none" stroke="black" points="259.5,-332 160.5,-332 160.5,-294 259.5,-294 259.5,-332"/>
<text text-anchor="middle" x="210" y="-316.8" font-family="Helvetica,sans-Serif" font-size="14.00">quiz1 &lt;= 83.5</text>
<text text-anchor="middle" x="210" y="-301.8" font-family="Helvetica,sans-Serif" font-size="14.00">class = A+</text>
</g>
<!-- 0&#45;&gt;2 -->
<g id="edge2" class="edge">
<title>0&#45;&gt;2</title>
<path fill="none" stroke="black" d="M165.14,-367.83C172.12,-359.45 180.54,-349.35 188.19,-340.17"/>
<polygon fill="black" stroke="black" points="190.94,-342.34 194.66,-332.41 185.56,-337.85 190.94,-342.34"/>
<text text-anchor="middle" x="196.92" y="-353.61" font-family="Helvetica,sans-Serif" font-size="14.00">False</text>
</g>
<!-- 3 -->
<g id="node4" class="node">
<title>3</title>
<polygon fill="none" stroke="black" points="201.5,-258 98.5,-258 98.5,-220 201.5,-220 201.5,-258"/>
<text text-anchor="middle" x="150" y="-242.8" font-family="Helvetica,sans-Serif" font-size="14.00">lab2 &lt;= 88.0</text>
<text text-anchor="middle" x="150" y="-227.8" font-family="Helvetica,sans-Serif" font-size="14.00">class = not A+</text>
</g>
<!-- 2&#45;&gt;3 -->
<g id="edge3" class="edge">
<title>2&#45;&gt;3</title>
<path fill="none" stroke="black" d="M194.86,-293.83C187.88,-285.45 179.46,-275.35 171.81,-266.17"/>
<polygon fill="black" stroke="black" points="174.44,-263.85 165.34,-258.41 169.06,-268.34 174.44,-263.85"/>
</g>
<!-- 6 -->
<g id="node7" class="node">
<title>6</title>
<polygon fill="none" stroke="black" points="317,-258 225,-258 225,-220 317,-220 317,-258"/>
<text text-anchor="middle" x="271" y="-242.8" font-family="Helvetica,sans-Serif" font-size="14.00">lab4 &lt;= 83.5</text>
<text text-anchor="middle" x="271" y="-227.8" font-family="Helvetica,sans-Serif" font-size="14.00">class = A+</text>
</g>
<!-- 2&#45;&gt;6 -->
<g id="edge6" class="edge">
<title>2&#45;&gt;6</title>
<path fill="none" stroke="black" d="M225.39,-293.83C232.49,-285.45 241.05,-275.35 248.82,-266.17"/>
<polygon fill="black" stroke="black" points="251.61,-268.31 255.4,-258.41 246.27,-263.78 251.61,-268.31"/>
</g>
<!-- 4 -->
<g id="node5" class="node">
<title>4</title>
<polygon fill="none" stroke="black" points="80,-183 0,-183 0,-147 80,-147 80,-183"/>
<text text-anchor="middle" x="40" y="-161.3" font-family="Helvetica,sans-Serif" font-size="14.00">class = A+</text>
</g>
<!-- 3&#45;&gt;4 -->
<g id="edge4" class="edge">
<title>3&#45;&gt;4</title>
<path fill="none" stroke="black" d="M122.24,-219.83C107.88,-210.43 90.2,-198.86 74.91,-188.85"/>
<polygon fill="black" stroke="black" points="76.52,-185.72 66.23,-183.17 72.68,-191.58 76.52,-185.72"/>
</g>
<!-- 5 -->
<g id="node6" class="node">
<title>5</title>
<polygon fill="none" stroke="black" points="201.5,-183 98.5,-183 98.5,-147 201.5,-147 201.5,-183"/>
<text text-anchor="middle" x="150" y="-161.3" font-family="Helvetica,sans-Serif" font-size="14.00">class = not A+</text>
</g>
<!-- 3&#45;&gt;5 -->
<g id="edge5" class="edge">
<title>3&#45;&gt;5</title>
<path fill="none" stroke="black" d="M150,-219.83C150,-211.89 150,-202.41 150,-193.63"/>
<polygon fill="black" stroke="black" points="153.5,-193.42 150,-183.42 146.5,-193.42 153.5,-193.42"/>
</g>
<!-- 7 -->
<g id="node8" class="node">
<title>7</title>
<polygon fill="none" stroke="black" points="322.5,-183 219.5,-183 219.5,-147 322.5,-147 322.5,-183"/>
<text text-anchor="middle" x="271" y="-161.3" font-family="Helvetica,sans-Serif" font-size="14.00">class = not A+</text>
</g>
<!-- 6&#45;&gt;7 -->
<g id="edge7" class="edge">
<title>6&#45;&gt;7</title>
<path fill="none" stroke="black" d="M271,-219.83C271,-211.89 271,-202.41 271,-193.63"/>
<polygon fill="black" stroke="black" points="274.5,-193.42 271,-183.42 267.5,-193.42 274.5,-193.42"/>
</g>
<!-- 8 -->
<g id="node9" class="node">
<title>8</title>
<polygon fill="none" stroke="black" points="433,-184 341,-184 341,-146 433,-146 433,-184"/>
<text text-anchor="middle" x="387" y="-168.8" font-family="Helvetica,sans-Serif" font-size="14.00">lab2 &lt;= 94.5</text>
<text text-anchor="middle" x="387" y="-153.8" font-family="Helvetica,sans-Serif" font-size="14.00">class = A+</text>
</g>
<!-- 6&#45;&gt;8 -->
<g id="edge8" class="edge">
<title>6&#45;&gt;8</title>
<path fill="none" stroke="black" d="M300.27,-219.83C315.11,-210.62 333.3,-199.33 349.19,-189.47"/>
<polygon fill="black" stroke="black" points="351.09,-192.41 357.74,-184.16 347.4,-186.46 351.09,-192.41"/>
</g>
<!-- 9 -->
<g id="node10" class="node">
<title>9</title>
<polygon fill="none" stroke="black" points="373,-109 293,-109 293,-73 373,-73 373,-109"/>
<text text-anchor="middle" x="333" y="-87.3" font-family="Helvetica,sans-Serif" font-size="14.00">class = A+</text>
</g>
<!-- 8&#45;&gt;9 -->
<g id="edge9" class="edge">
<title>8&#45;&gt;9</title>
<path fill="none" stroke="black" d="M373.37,-145.83C366.96,-137.28 359.21,-126.94 352.21,-117.62"/>
<polygon fill="black" stroke="black" points="354.86,-115.32 346.06,-109.42 349.26,-119.52 354.86,-115.32"/>
</g>
<!-- 10 -->
<g id="node11" class="node">
<title>10</title>
<polygon fill="none" stroke="black" points="490.5,-110 391.5,-110 391.5,-72 490.5,-72 490.5,-110"/>
<text text-anchor="middle" x="441" y="-94.8" font-family="Helvetica,sans-Serif" font-size="14.00">quiz1 &lt;= 92.5</text>
<text text-anchor="middle" x="441" y="-79.8" font-family="Helvetica,sans-Serif" font-size="14.00">class = A+</text>
</g>
<!-- 8&#45;&gt;10 -->
<g id="edge10" class="edge">
<title>8&#45;&gt;10</title>
<path fill="none" stroke="black" d="M400.63,-145.83C406.85,-137.54 414.33,-127.56 421.16,-118.45"/>
<polygon fill="black" stroke="black" points="423.99,-120.51 427.19,-110.41 418.39,-116.31 423.99,-120.51"/>
</g>
<!-- 11 -->
<g id="node12" class="node">
<title>11</title>
<polygon fill="none" stroke="black" points="437.5,-36 334.5,-36 334.5,0 437.5,0 437.5,-36"/>
<text text-anchor="middle" x="386" y="-14.3" font-family="Helvetica,sans-Serif" font-size="14.00">class = not A+</text>
</g>
<!-- 10&#45;&gt;11 -->
<g id="edge11" class="edge">
<title>10&#45;&gt;11</title>
<path fill="none" stroke="black" d="M426.84,-71.72C420.31,-63.29 412.45,-53.15 405.38,-44.02"/>
<polygon fill="black" stroke="black" points="408.06,-41.77 399.17,-36 402.53,-46.05 408.06,-41.77"/>
</g>
<!-- 12 -->
<g id="node13" class="node">
<title>12</title>
<polygon fill="none" stroke="black" points="536,-36 456,-36 456,0 536,0 536,-36"/>
<text text-anchor="middle" x="496" y="-14.3" font-family="Helvetica,sans-Serif" font-size="14.00">class = A+</text>
</g>
<!-- 10&#45;&gt;12 -->
<g id="edge12" class="edge">
<title>10&#45;&gt;12</title>
<path fill="none" stroke="black" d="M455.16,-71.72C461.69,-63.29 469.55,-53.15 476.62,-44.02"/>
<polygon fill="black" stroke="black" points="479.47,-46.05 482.83,-36 473.94,-41.77 479.47,-46.05"/>
</g>
</g>
</svg>
