<?xml version="1.0" encoding="UTF-8" standalone="no"?>
<!DOCTYPE svg PUBLIC "-//W3C//DTD SVG 1.1//EN"
 "http://www.w3.org/Graphics/SVG/1.1/DTD/svg11.dtd">
<!-- Generated by graphviz version 5.0.1 (0)
 -->
<!-- Title: Tree Pages: 1 -->
<svg width="689pt" height="562pt"
 viewBox="0.00 0.00 689.00 562.00" xmlns="http://www.w3.org/2000/svg" xmlns:xlink="http://www.w3.org/1999/xlink">
<g id="graph0" class="graph" transform="scale(1 1) rotate(0) translate(4 558)">
<title>Tree</title>
<polygon fill="white" stroke="none" points="-4,4 -4,-558 685,-558 685,4 -4,4"/>
<!-- 0 -->
<g id="node1" class="node">
<title>0</title>
<polygon fill="none" stroke="black" points="270.5,-554 167.5,-554 167.5,-516 270.5,-516 270.5,-554"/>
<text text-anchor="middle" x="219" y="-538.8" font-family="Helvetica,sans-Serif" font-size="14.00">lab3 &lt;= 0.5</text>
<text text-anchor="middle" x="219" y="-523.8" font-family="Helvetica,sans-Serif" font-size="14.00">class = not A+</text>
</g>
<!-- 1 -->
<g id="node2" class="node">
<title>1</title>
<polygon fill="none" stroke="black" points="214.5,-480 111.5,-480 111.5,-442 214.5,-442 214.5,-480"/>
<text text-anchor="middle" x="163" y="-464.8" font-family="Helvetica,sans-Serif" font-size="14.00">quiz1 &lt;= 0.5</text>
<text text-anchor="middle" x="163" y="-449.8" font-family="Helvetica,sans-Serif" font-size="14.00">class = not A+</text>
</g>
<!-- 0&#45;&gt;1 -->
<g id="edge1" class="edge">
<title>0&#45;&gt;1</title>
<path fill="none" stroke="black" d="M204.87,-515.83C198.42,-507.54 190.66,-497.56 183.57,-488.45"/>
<polygon fill="black" stroke="black" points="186.22,-486.16 177.32,-480.41 180.7,-490.46 186.22,-486.16"/>
<text text-anchor="middle" x="174.22" y="-501.52" font-family="Helvetica,sans-Serif" font-size="14.00">True</text>
</g>
<!-- 8 -->
<g id="node9" class="node">
<title>8</title>
<polygon fill="none" stroke="black" points="317.5,-480 232.5,-480 232.5,-442 317.5,-442 317.5,-480"/>
<text text-anchor="middle" x="275" y="-464.8" font-family="Helvetica,sans-Serif" font-size="14.00">lab2 &lt;= 0.5</text>
<text text-anchor="middle" x="275" y="-449.8" font-family="Helvetica,sans-Serif" font-size="14.00">class = A+</text>
</g>
<!-- 0&#45;&gt;8 -->
<g id="edge8" class="edge">
<title>0&#45;&gt;8</title>
<path fill="none" stroke="black" d="M233.13,-515.83C239.58,-507.54 247.34,-497.56 254.43,-488.45"/>
<polygon fill="black" stroke="black" points="257.3,-490.46 260.68,-480.41 251.78,-486.16 257.3,-490.46"/>
<text text-anchor="middle" x="263.78" y="-501.52" font-family="Helvetica,sans-Serif" font-size="14.00">False</text>
</g>
<!-- 2 -->
<g id="node3" class="node">
<title>2</title>
<polygon fill="none" stroke="black" points="107.5,-405 4.5,-405 4.5,-369 107.5,-369 107.5,-405"/>
<text text-anchor="middle" x="56" y="-383.3" font-family="Helvetica,sans-Serif" font-size="14.00">class = not A+</text>
</g>
<!-- 1&#45;&gt;2 -->
<g id="edge2" class="edge">
<title>1&#45;&gt;2</title>
<path fill="none" stroke="black" d="M136,-441.83C122.03,-432.43 104.83,-420.86 89.96,-410.85"/>
<polygon fill="black" stroke="black" points="91.77,-407.85 81.52,-405.17 87.86,-413.66 91.77,-407.85"/>
</g>
<!-- 3 -->
<g id="node4" class="node">
<title>3</title>
<polygon fill="none" stroke="black" points="210.5,-406 125.5,-406 125.5,-368 210.5,-368 210.5,-406"/>
<text text-anchor="middle" x="168" y="-390.8" font-family="Helvetica,sans-Serif" font-size="14.00">lab1 &lt;= 0.5</text>
<text text-anchor="middle" x="168" y="-375.8" font-family="Helvetica,sans-Serif" font-size="14.00">class = A+</text>
</g>
<!-- 1&#45;&gt;3 -->
<g id="edge3" class="edge">
<title>1&#45;&gt;3</title>
<path fill="none" stroke="black" d="M164.26,-441.83C164.8,-434.13 165.43,-424.97 166.03,-416.42"/>
<polygon fill="black" stroke="black" points="169.52,-416.63 166.72,-406.41 162.54,-416.15 169.52,-416.63"/>
</g>
<!-- 4 -->
<g id="node5" class="node">
<title>4</title>
<polygon fill="none" stroke="black" points="80,-331 0,-331 0,-295 80,-295 80,-331"/>
<text text-anchor="middle" x="40" y="-309.3" font-family="Helvetica,sans-Serif" font-size="14.00">class = A+</text>
</g>
<!-- 3&#45;&gt;4 -->
<g id="edge4" class="edge">
<title>3&#45;&gt;4</title>
<path fill="none" stroke="black" d="M135.7,-367.83C118.67,-358.25 97.64,-346.42 79.63,-336.29"/>
<polygon fill="black" stroke="black" points="80.96,-333.02 70.53,-331.17 77.53,-339.12 80.96,-333.02"/>
</g>
<!-- 5 -->
<g id="node6" class="node">
<title>5</title>
<polygon fill="none" stroke="black" points="262,-332 98,-332 98,-294 262,-294 262,-332"/>
<text text-anchor="middle" x="180" y="-316.8" font-family="Helvetica,sans-Serif" font-size="14.00">class_attendance &lt;= 0.5</text>
<text text-anchor="middle" x="180" y="-301.8" font-family="Helvetica,sans-Serif" font-size="14.00">class = not A+</text>
</g>
<!-- 3&#45;&gt;5 -->
<g id="edge5" class="edge">
<title>3&#45;&gt;5</title>
<path fill="none" stroke="black" d="M171.03,-367.83C172.31,-360.13 173.84,-350.97 175.26,-342.42"/>
<polygon fill="black" stroke="black" points="178.74,-342.85 176.93,-332.41 171.83,-341.7 178.74,-342.85"/>
</g>
<!-- 6 -->
<g id="node7" class="node">
<title>6</title>
<polygon fill="none" stroke="black" points="150.5,-257 47.5,-257 47.5,-221 150.5,-221 150.5,-257"/>
<text text-anchor="middle" x="99" y="-235.3" font-family="Helvetica,sans-Serif" font-size="14.00">class = not A+</text>
</g>
<!-- 5&#45;&gt;6 -->
<g id="edge6" class="edge">
<title>5&#45;&gt;6</title>
<path fill="none" stroke="black" d="M159.56,-293.83C149.38,-284.78 136.93,-273.72 125.98,-263.98"/>
<polygon fill="black" stroke="black" points="128.12,-261.2 118.32,-257.17 123.47,-266.43 128.12,-261.2"/>
</g>
<!-- 7 -->
<g id="node8" class="node">
<title>7</title>
<polygon fill="none" stroke="black" points="249,-257 169,-257 169,-221 249,-221 249,-257"/>
<text text-anchor="middle" x="209" y="-235.3" font-family="Helvetica,sans-Serif" font-size="14.00">class = A+</text>
</g>
<!-- 5&#45;&gt;7 -->
<g id="edge7" class="edge">
<title>5&#45;&gt;7</title>
<path fill="none" stroke="black" d="M187.32,-293.83C190.62,-285.63 194.59,-275.78 198.22,-266.76"/>
<polygon fill="black" stroke="black" points="201.49,-268 201.98,-257.42 195,-265.39 201.49,-268"/>
</g>
<!-- 9 -->
<g id="node10" class="node">
<title>9</title>
<polygon fill="none" stroke="black" points="312,-405 232,-405 232,-369 312,-369 312,-405"/>
<text text-anchor="middle" x="272" y="-383.3" font-family="Helvetica,sans-Serif" font-size="14.00">class = A+</text>
</g>
<!-- 8&#45;&gt;9 -->
<g id="edge9" class="edge">
<title>8&#45;&gt;9</title>
<path fill="none" stroke="black" d="M274.24,-441.83C273.91,-433.89 273.52,-424.41 273.15,-415.63"/>
<polygon fill="black" stroke="black" points="276.64,-415.26 272.73,-405.42 269.65,-415.55 276.64,-415.26"/>
</g>
<!-- 10 -->
<g id="node11" class="node">
<title>10</title>
<polygon fill="none" stroke="black" points="422,-406 330,-406 330,-368 422,-368 422,-406"/>
<text text-anchor="middle" x="376" y="-390.8" font-family="Helvetica,sans-Serif" font-size="14.00">quiz1 &lt;= 0.5</text>
<text text-anchor="middle" x="376" y="-375.8" font-family="Helvetica,sans-Serif" font-size="14.00">class = A+</text>
</g>
<!-- 8&#45;&gt;10 -->
<g id="edge10" class="edge">
<title>8&#45;&gt;10</title>
<path fill="none" stroke="black" d="M300.49,-441.83C313.17,-432.79 328.66,-421.75 342.31,-412.02"/>
<polygon fill="black" stroke="black" points="344.41,-414.82 350.52,-406.16 340.35,-409.12 344.41,-414.82"/>
</g>
<!-- 11 -->
<g id="node12" class="node">
<title>11</title>
<polygon fill="none" stroke="black" points="415.5,-332 312.5,-332 312.5,-294 415.5,-294 415.5,-332"/>
<text text-anchor="middle" x="364" y="-316.8" font-family="Helvetica,sans-Serif" font-size="14.00">lab1 &lt;= 0.5</text>
<text text-anchor="middle" x="364" y="-301.8" font-family="Helvetica,sans-Serif" font-size="14.00">class = not A+</text>
</g>
<!-- 10&#45;&gt;11 -->
<g id="edge11" class="edge">
<title>10&#45;&gt;11</title>
<path fill="none" stroke="black" d="M372.97,-367.83C371.69,-360.13 370.16,-350.97 368.74,-342.42"/>
<polygon fill="black" stroke="black" points="372.17,-341.7 367.07,-332.41 365.26,-342.85 372.17,-341.7"/>
</g>
<!-- 20 -->
<g id="node21" class="node">
<title>20</title>
<polygon fill="none" stroke="black" points="514,-331 434,-331 434,-295 514,-295 514,-331"/>
<text text-anchor="middle" x="474" y="-309.3" font-family="Helvetica,sans-Serif" font-size="14.00">class = A+</text>
</g>
<!-- 10&#45;&gt;20 -->
<g id="edge20" class="edge">
<title>10&#45;&gt;20</title>
<path fill="none" stroke="black" d="M400.73,-367.83C413.41,-358.52 428.99,-347.07 442.51,-337.13"/>
<polygon fill="black" stroke="black" points="444.64,-339.91 450.63,-331.17 440.5,-334.27 444.64,-339.91"/>
</g>
<!-- 12 -->
<g id="node13" class="node">
<title>12</title>
<polygon fill="none" stroke="black" points="374,-257 294,-257 294,-221 374,-221 374,-257"/>
<text text-anchor="middle" x="334" y="-235.3" font-family="Helvetica,sans-Serif" font-size="14.00">class = A+</text>
</g>
<!-- 11&#45;&gt;12 -->
<g id="edge12" class="edge">
<title>11&#45;&gt;12</title>
<path fill="none" stroke="black" d="M356.43,-293.83C353.01,-285.63 348.91,-275.78 345.15,-266.76"/>
<polygon fill="black" stroke="black" points="348.33,-265.3 341.26,-257.42 341.87,-267.99 348.33,-265.3"/>
</g>
<!-- 13 -->
<g id="node14" class="node">
<title>13</title>
<polygon fill="none" stroke="black" points="495.5,-258 392.5,-258 392.5,-220 495.5,-220 495.5,-258"/>
<text text-anchor="middle" x="444" y="-242.8" font-family="Helvetica,sans-Serif" font-size="14.00">lab4 &lt;= 0.5</text>
<text text-anchor="middle" x="444" y="-227.8" font-family="Helvetica,sans-Serif" font-size="14.00">class = not A+</text>
</g>
<!-- 11&#45;&gt;13 -->
<g id="edge13" class="edge">
<title>11&#45;&gt;13</title>
<path fill="none" stroke="black" d="M384.19,-293.83C393.85,-285.13 405.58,-274.58 416.08,-265.13"/>
<polygon fill="black" stroke="black" points="418.73,-267.45 423.82,-258.16 414.04,-262.25 418.73,-267.45"/>
</g>
<!-- 14 -->
<g id="node15" class="node">
<title>14</title>
<polygon fill="none" stroke="black" points="419.5,-183 316.5,-183 316.5,-147 419.5,-147 419.5,-183"/>
<text text-anchor="middle" x="368" y="-161.3" font-family="Helvetica,sans-Serif" font-size="14.00">class = not A+</text>
</g>
<!-- 13&#45;&gt;14 -->
<g id="edge14" class="edge">
<title>13&#45;&gt;14</title>
<path fill="none" stroke="black" d="M424.82,-219.83C415.36,-210.87 403.82,-199.93 393.61,-190.26"/>
<polygon fill="black" stroke="black" points="395.79,-187.51 386.13,-183.17 390.98,-192.59 395.79,-187.51"/>
</g>
<!-- 15 -->
<g id="node16" class="node">
<title>15</title>
<polygon fill="none" stroke="black" points="602,-184 438,-184 438,-146 602,-146 602,-184"/>
<text text-anchor="middle" x="520" y="-168.8" font-family="Helvetica,sans-Serif" font-size="14.00">class_attendance &lt;= 0.5</text>
<text text-anchor="middle" x="520" y="-153.8" font-family="Helvetica,sans-Serif" font-size="14.00">class = not A+</text>
</g>
<!-- 13&#45;&gt;15 -->
<g id="edge15" class="edge">
<title>13&#45;&gt;15</title>
<path fill="none" stroke="black" d="M463.18,-219.83C472.36,-211.13 483.5,-200.58 493.48,-191.13"/>
<polygon fill="black" stroke="black" points="495.98,-193.58 500.83,-184.16 491.16,-188.5 495.98,-193.58"/>
</g>
<!-- 16 -->
<g id="node17" class="node">
<title>16</title>
<polygon fill="none" stroke="black" points="499.5,-109 396.5,-109 396.5,-73 499.5,-73 499.5,-109"/>
<text text-anchor="middle" x="448" y="-87.3" font-family="Helvetica,sans-Serif" font-size="14.00">class = not A+</text>
</g>
<!-- 15&#45;&gt;16 -->
<g id="edge16" class="edge">
<title>15&#45;&gt;16</title>
<path fill="none" stroke="black" d="M501.83,-145.83C493.02,-137.02 482.31,-126.31 472.76,-116.76"/>
<polygon fill="black" stroke="black" points="474.96,-114.01 465.42,-109.42 470.01,-118.96 474.96,-114.01"/>
</g>
<!-- 17 -->
<g id="node18" class="node">
<title>17</title>
<polygon fill="none" stroke="black" points="666,-110 518,-110 518,-72 666,-72 666,-110"/>
<text text-anchor="middle" x="592" y="-94.8" font-family="Helvetica,sans-Serif" font-size="14.00">ml_experience &lt;= 0.5</text>
<text text-anchor="middle" x="592" y="-79.8" font-family="Helvetica,sans-Serif" font-size="14.00">class = A+</text>
</g>
<!-- 15&#45;&gt;17 -->
<g id="edge17" class="edge">
<title>15&#45;&gt;17</title>
<path fill="none" stroke="black" d="M538.17,-145.83C546.72,-137.28 557.06,-126.94 566.38,-117.62"/>
<polygon fill="black" stroke="black" points="568.99,-119.96 573.59,-110.41 564.04,-115.01 568.99,-119.96"/>
</g>
<!-- 18 -->
<g id="node19" class="node">
<title>18</title>
<polygon fill="none" stroke="black" points="583,-36 503,-36 503,0 583,0 583,-36"/>
<text text-anchor="middle" x="543" y="-14.3" font-family="Helvetica,sans-Serif" font-size="14.00">class = A+</text>
</g>
<!-- 17&#45;&gt;18 -->
<g id="edge18" class="edge">
<title>17&#45;&gt;18</title>
<path fill="none" stroke="black" d="M579.38,-71.72C573.62,-63.37 566.71,-53.35 560.46,-44.3"/>
<polygon fill="black" stroke="black" points="563.3,-42.25 554.73,-36 557.53,-46.22 563.3,-42.25"/>
</g>
<!-- 19 -->
<g id="node20" class="node">
<title>19</title>
<polygon fill="none" stroke="black" points="681,-36 601,-36 601,0 681,0 681,-36"/>
<text text-anchor="middle" x="641" y="-14.3" font-family="Helvetica,sans-Serif" font-size="14.00">class = A+</text>
</g>
<!-- 17&#45;&gt;19 -->
<g id="edge19" class="edge">
<title>17&#45;&gt;19</title>
<path fill="none" stroke="black" d="M604.62,-71.72C610.38,-63.37 617.29,-53.35 623.54,-44.3"/>
<polygon fill="black" stroke="black" points="626.47,-46.22 629.27,-36 620.7,-42.25 626.47,-46.22"/>
</g>
</g>
</svg>
