<?xml version="1.0" encoding="UTF-8" standalone="no"?>
<!DOCTYPE svg PUBLIC "-//W3C//DTD SVG 1.1//EN"
 "http://www.w3.org/Graphics/SVG/1.1/DTD/svg11.dtd">
<!-- Generated by graphviz version 2.48.0 (0)
 -->
<!-- Title: Tree Pages: 1 -->
<svg width="521pt" height="414pt"
 viewBox="0.00 0.00 520.50 414.00" xmlns="http://www.w3.org/2000/svg" xmlns:xlink="http://www.w3.org/1999/xlink">
<g id="graph0" class="graph" transform="scale(1 1) rotate(0) translate(4 410)">
<title>Tree</title>
<polygon fill="white" stroke="transparent" points="-4,4 -4,-410 516.5,-410 516.5,4 -4,4"/>
<!-- 0 -->
<g id="node1" class="node">
<title>0</title>
<polygon fill="none" stroke="black" points="198,-406 101,-406 101,-368 198,-368 198,-406"/>
<text text-anchor="middle" x="149.5" y="-390.8" font-family="Times,serif" font-size="14.00">lab3 &lt;= 83.5</text>
<text text-anchor="middle" x="149.5" y="-375.8" font-family="Times,serif" font-size="14.00">class = not A+</text>
</g>
<!-- 1 -->
<g id="node2" class="node">
<title>1</title>
<polygon fill="none" stroke="black" points="141,-331 44,-331 44,-295 141,-295 141,-331"/>
<text text-anchor="middle" x="92.5" y="-309.3" font-family="Times,serif" font-size="14.00">class = not A+</text>
</g>
<!-- 0&#45;&gt;1 -->
<g id="edge1" class="edge">
<title>0&#45;&gt;1</title>
<path fill="none" stroke="black" d="M135.12,-367.83C128.28,-359.2 119.99,-348.73 112.55,-339.33"/>
<polygon fill="black" stroke="black" points="115.24,-337.09 106.29,-331.42 109.75,-341.43 115.24,-337.09"/>
<text text-anchor="middle" x="103.4" y="-352.55" font-family="Times,serif" font-size="14.00">True</text>
</g>
<!-- 2 -->
<g id="node3" class="node">
<title>2</title>
<polygon fill="none" stroke="black" points="254,-332 159,-332 159,-294 254,-294 254,-332"/>
<text text-anchor="middle" x="206.5" y="-316.8" font-family="Times,serif" font-size="14.00">quiz1 &lt;= 83.5</text>
<text text-anchor="middle" x="206.5" y="-301.8" font-family="Times,serif" font-size="14.00">class = A+</text>
</g>
<!-- 0&#45;&gt;2 -->
<g id="edge2" class="edge">
<title>0&#45;&gt;2</title>
<path fill="none" stroke="black" d="M163.88,-367.83C170.45,-359.54 178.35,-349.56 185.56,-340.45"/>
<polygon fill="black" stroke="black" points="188.46,-342.43 191.92,-332.41 182.97,-338.08 188.46,-342.43"/>
<text text-anchor="middle" x="194.81" y="-353.55" font-family="Times,serif" font-size="14.00">False</text>
</g>
<!-- 3 -->
<g id="node4" class="node">
<title>3</title>
<polygon fill="none" stroke="black" points="200,-258 103,-258 103,-220 200,-220 200,-258"/>
<text text-anchor="middle" x="151.5" y="-242.8" font-family="Times,serif" font-size="14.00">lab3 &lt;= 94.5</text>
<text text-anchor="middle" x="151.5" y="-227.8" font-family="Times,serif" font-size="14.00">class = not A+</text>
</g>
<!-- 2&#45;&gt;3 -->
<g id="edge3" class="edge">
<title>2&#45;&gt;3</title>
<path fill="none" stroke="black" d="M192.62,-293.83C186.29,-285.54 178.66,-275.56 171.71,-266.45"/>
<polygon fill="black" stroke="black" points="174.42,-264.24 165.57,-258.41 168.85,-268.48 174.42,-264.24"/>
</g>
<!-- 6 -->
<g id="node7" class="node">
<title>6</title>
<polygon fill="none" stroke="black" points="306.5,-258 218.5,-258 218.5,-220 306.5,-220 306.5,-258"/>
<text text-anchor="middle" x="262.5" y="-242.8" font-family="Times,serif" font-size="14.00">lab4 &lt;= 83.5</text>
<text text-anchor="middle" x="262.5" y="-227.8" font-family="Times,serif" font-size="14.00">class = A+</text>
</g>
<!-- 2&#45;&gt;6 -->
<g id="edge6" class="edge">
<title>2&#45;&gt;6</title>
<path fill="none" stroke="black" d="M220.63,-293.83C227.08,-285.54 234.84,-275.56 241.93,-266.45"/>
<polygon fill="black" stroke="black" points="244.8,-268.46 248.18,-258.41 239.28,-264.16 244.8,-268.46"/>
</g>
<!-- 4 -->
<g id="node5" class="node">
<title>4</title>
<polygon fill="none" stroke="black" points="97,-183 0,-183 0,-147 97,-147 97,-183"/>
<text text-anchor="middle" x="48.5" y="-161.3" font-family="Times,serif" font-size="14.00">class = not A+</text>
</g>
<!-- 3&#45;&gt;4 -->
<g id="edge4" class="edge">
<title>3&#45;&gt;4</title>
<path fill="none" stroke="black" d="M125.51,-219.83C112.18,-210.52 95.81,-199.07 81.59,-189.13"/>
<polygon fill="black" stroke="black" points="83.27,-186.03 73.06,-183.17 79.26,-191.77 83.27,-186.03"/>
</g>
<!-- 5 -->
<g id="node6" class="node">
<title>5</title>
<polygon fill="none" stroke="black" points="191.5,-183 115.5,-183 115.5,-147 191.5,-147 191.5,-183"/>
<text text-anchor="middle" x="153.5" y="-161.3" font-family="Times,serif" font-size="14.00">class = A+</text>
</g>
<!-- 3&#45;&gt;5 -->
<g id="edge5" class="edge">
<title>3&#45;&gt;5</title>
<path fill="none" stroke="black" d="M152,-219.83C152.23,-211.89 152.49,-202.41 152.73,-193.63"/>
<polygon fill="black" stroke="black" points="156.24,-193.51 153.02,-183.42 149.24,-193.32 156.24,-193.51"/>
</g>
<!-- 7 -->
<g id="node8" class="node">
<title>7</title>
<polygon fill="none" stroke="black" points="310,-183 213,-183 213,-147 310,-147 310,-183"/>
<text text-anchor="middle" x="261.5" y="-161.3" font-family="Times,serif" font-size="14.00">class = not A+</text>
</g>
<!-- 6&#45;&gt;7 -->
<g id="edge7" class="edge">
<title>6&#45;&gt;7</title>
<path fill="none" stroke="black" d="M262.25,-219.83C262.14,-211.89 262.01,-202.41 261.88,-193.63"/>
<polygon fill="black" stroke="black" points="265.38,-193.37 261.74,-183.42 258.38,-193.47 265.38,-193.37"/>
</g>
<!-- 8 -->
<g id="node9" class="node">
<title>8</title>
<polygon fill="none" stroke="black" points="416.5,-184 328.5,-184 328.5,-146 416.5,-146 416.5,-184"/>
<text text-anchor="middle" x="372.5" y="-168.8" font-family="Times,serif" font-size="14.00">lab2 &lt;= 94.5</text>
<text text-anchor="middle" x="372.5" y="-153.8" font-family="Times,serif" font-size="14.00">class = A+</text>
</g>
<!-- 6&#45;&gt;8 -->
<g id="edge8" class="edge">
<title>6&#45;&gt;8</title>
<path fill="none" stroke="black" d="M290.26,-219.83C304.2,-210.71 321.26,-199.54 336.22,-189.74"/>
<polygon fill="black" stroke="black" points="338.3,-192.57 344.75,-184.16 334.47,-186.71 338.3,-192.57"/>
</g>
<!-- 9 -->
<g id="node10" class="node">
<title>9</title>
<polygon fill="none" stroke="black" points="360.5,-109 284.5,-109 284.5,-73 360.5,-73 360.5,-109"/>
<text text-anchor="middle" x="322.5" y="-87.3" font-family="Times,serif" font-size="14.00">class = A+</text>
</g>
<!-- 8&#45;&gt;9 -->
<g id="edge9" class="edge">
<title>8&#45;&gt;9</title>
<path fill="none" stroke="black" d="M359.88,-145.83C354.01,-137.37 346.91,-127.15 340.49,-117.9"/>
<polygon fill="black" stroke="black" points="343.17,-115.64 334.6,-109.42 337.42,-119.63 343.17,-115.64"/>
</g>
<!-- 10 -->
<g id="node11" class="node">
<title>10</title>
<polygon fill="none" stroke="black" points="466.5,-110 378.5,-110 378.5,-72 466.5,-72 466.5,-110"/>
<text text-anchor="middle" x="422.5" y="-94.8" font-family="Times,serif" font-size="14.00">lab4 &lt;= 96.5</text>
<text text-anchor="middle" x="422.5" y="-79.8" font-family="Times,serif" font-size="14.00">class = A+</text>
</g>
<!-- 8&#45;&gt;10 -->
<g id="edge10" class="edge">
<title>8&#45;&gt;10</title>
<path fill="none" stroke="black" d="M385.12,-145.83C390.82,-137.62 397.67,-127.76 403.94,-118.73"/>
<polygon fill="black" stroke="black" points="406.88,-120.62 409.71,-110.41 401.13,-116.63 406.88,-120.62"/>
</g>
<!-- 11 -->
<g id="node12" class="node">
<title>11</title>
<polygon fill="none" stroke="black" points="418,-36 321,-36 321,0 418,0 418,-36"/>
<text text-anchor="middle" x="369.5" y="-14.3" font-family="Times,serif" font-size="14.00">class = not A+</text>
</g>
<!-- 10&#45;&gt;11 -->
<g id="edge11" class="edge">
<title>10&#45;&gt;11</title>
<path fill="none" stroke="black" d="M408.85,-71.72C402.56,-63.29 394.99,-53.15 388.18,-44.02"/>
<polygon fill="black" stroke="black" points="390.98,-41.92 382.19,-36 385.37,-46.11 390.98,-41.92"/>
</g>
<!-- 12 -->
<g id="node13" class="node">
<title>12</title>
<polygon fill="none" stroke="black" points="512.5,-36 436.5,-36 436.5,0 512.5,0 512.5,-36"/>
<text text-anchor="middle" x="474.5" y="-14.3" font-family="Times,serif" font-size="14.00">class = A+</text>
</g>
<!-- 10&#45;&gt;12 -->
<g id="edge12" class="edge">
<title>10&#45;&gt;12</title>
<path fill="none" stroke="black" d="M435.89,-71.72C442,-63.37 449.34,-53.35 455.97,-44.3"/>
<polygon fill="black" stroke="black" points="458.96,-46.14 462.05,-36 453.31,-42 458.96,-46.14"/>
</g>
</g>
</svg>
