<?xml version="1.0" encoding="UTF-8" standalone="no"?>
<!DOCTYPE svg PUBLIC "-//W3C//DTD SVG 1.1//EN"
 "http://www.w3.org/Graphics/SVG/1.1/DTD/svg11.dtd">
<!-- Generated by graphviz version 2.48.0 (0)
 -->
<!-- Title: Tree Pages: 1 -->
<svg width="513pt" height="414pt"
 viewBox="0.00 0.00 512.50 414.00" xmlns="http://www.w3.org/2000/svg" xmlns:xlink="http://www.w3.org/1999/xlink">
<g id="graph0" class="graph" transform="scale(1 1) rotate(0) translate(4 410)">
<title>Tree</title>
<polygon fill="white" stroke="transparent" points="-4,4 -4,-410 508.5,-410 508.5,4 -4,4"/>
<!-- 0 -->
<g id="node1" class="node">
<title>0</title>
<polygon fill="none" stroke="black" points="284,-406 187,-406 187,-368 284,-368 284,-406"/>
<text text-anchor="middle" x="235.5" y="-390.8" font-family="Times,serif" font-size="14.00">lab4 &lt;= 0.5</text>
<text text-anchor="middle" x="235.5" y="-375.8" font-family="Times,serif" font-size="14.00">class = not A+</text>
</g>
<!-- 1 -->
<g id="node2" class="node">
<title>1</title>
<polygon fill="none" stroke="black" points="213,-332 116,-332 116,-294 213,-294 213,-332"/>
<text text-anchor="middle" x="164.5" y="-316.8" font-family="Times,serif" font-size="14.00">lab1 &lt;= 0.5</text>
<text text-anchor="middle" x="164.5" y="-301.8" font-family="Times,serif" font-size="14.00">class = not A+</text>
</g>
<!-- 0&#45;&gt;1 -->
<g id="edge1" class="edge">
<title>0&#45;&gt;1</title>
<path fill="none" stroke="black" d="M217.58,-367.83C209.16,-359.28 198.96,-348.94 189.76,-339.62"/>
<polygon fill="black" stroke="black" points="192.17,-337.08 182.66,-332.41 187.19,-341.99 192.17,-337.08"/>
<text text-anchor="middle" x="182.48" y="-353.71" font-family="Times,serif" font-size="14.00">True</text>
</g>
<!-- 8 -->
<g id="node9" class="node">
<title>8</title>
<polygon fill="none" stroke="black" points="382,-332 231,-332 231,-294 382,-294 382,-332"/>
<text text-anchor="middle" x="306.5" y="-316.8" font-family="Times,serif" font-size="14.00">class_attendance &lt;= 0.5</text>
<text text-anchor="middle" x="306.5" y="-301.8" font-family="Times,serif" font-size="14.00">class = A+</text>
</g>
<!-- 0&#45;&gt;8 -->
<g id="edge8" class="edge">
<title>0&#45;&gt;8</title>
<path fill="none" stroke="black" d="M253.42,-367.83C261.84,-359.28 272.04,-348.94 281.24,-339.62"/>
<polygon fill="black" stroke="black" points="283.81,-341.99 288.34,-332.41 278.83,-337.08 283.81,-341.99"/>
<text text-anchor="middle" x="288.52" y="-353.71" font-family="Times,serif" font-size="14.00">False</text>
</g>
<!-- 2 -->
<g id="node3" class="node">
<title>2</title>
<polygon fill="none" stroke="black" points="109,-258 12,-258 12,-220 109,-220 109,-258"/>
<text text-anchor="middle" x="60.5" y="-242.8" font-family="Times,serif" font-size="14.00">quiz1 &lt;= 0.5</text>
<text text-anchor="middle" x="60.5" y="-227.8" font-family="Times,serif" font-size="14.00">class = not A+</text>
</g>
<!-- 1&#45;&gt;2 -->
<g id="edge2" class="edge">
<title>1&#45;&gt;2</title>
<path fill="none" stroke="black" d="M138.26,-293.83C125.2,-284.79 109.25,-273.75 95.2,-264.02"/>
<polygon fill="black" stroke="black" points="96.95,-260.98 86.74,-258.16 92.96,-266.73 96.95,-260.98"/>
</g>
<!-- 7 -->
<g id="node8" class="node">
<title>7</title>
<polygon fill="none" stroke="black" points="224,-257 127,-257 127,-221 224,-221 224,-257"/>
<text text-anchor="middle" x="175.5" y="-235.3" font-family="Times,serif" font-size="14.00">class = not A+</text>
</g>
<!-- 1&#45;&gt;7 -->
<g id="edge7" class="edge">
<title>1&#45;&gt;7</title>
<path fill="none" stroke="black" d="M167.28,-293.83C168.5,-285.81 169.97,-276.2 171.32,-267.34"/>
<polygon fill="black" stroke="black" points="174.79,-267.83 172.84,-257.42 167.87,-266.77 174.79,-267.83"/>
</g>
<!-- 3 -->
<g id="node4" class="node">
<title>3</title>
<polygon fill="none" stroke="black" points="99,-184 2,-184 2,-146 99,-146 99,-184"/>
<text text-anchor="middle" x="50.5" y="-168.8" font-family="Times,serif" font-size="14.00">lab3 &lt;= 0.5</text>
<text text-anchor="middle" x="50.5" y="-153.8" font-family="Times,serif" font-size="14.00">class = not A+</text>
</g>
<!-- 2&#45;&gt;3 -->
<g id="edge3" class="edge">
<title>2&#45;&gt;3</title>
<path fill="none" stroke="black" d="M57.98,-219.83C56.91,-212.13 55.64,-202.97 54.45,-194.42"/>
<polygon fill="black" stroke="black" points="57.9,-193.84 53.06,-184.41 50.97,-194.8 57.9,-193.84"/>
</g>
<!-- 6 -->
<g id="node7" class="node">
<title>6</title>
<polygon fill="none" stroke="black" points="193.5,-183 117.5,-183 117.5,-147 193.5,-147 193.5,-183"/>
<text text-anchor="middle" x="155.5" y="-161.3" font-family="Times,serif" font-size="14.00">class = A+</text>
</g>
<!-- 2&#45;&gt;6 -->
<g id="edge6" class="edge">
<title>2&#45;&gt;6</title>
<path fill="none" stroke="black" d="M84.47,-219.83C96.65,-210.6 111.58,-199.29 124.61,-189.41"/>
<polygon fill="black" stroke="black" points="126.99,-192 132.84,-183.17 122.76,-186.42 126.99,-192"/>
</g>
<!-- 4 -->
<g id="node5" class="node">
<title>4</title>
<polygon fill="none" stroke="black" points="97,-109 0,-109 0,-73 97,-73 97,-109"/>
<text text-anchor="middle" x="48.5" y="-87.3" font-family="Times,serif" font-size="14.00">class = not A+</text>
</g>
<!-- 3&#45;&gt;4 -->
<g id="edge4" class="edge">
<title>3&#45;&gt;4</title>
<path fill="none" stroke="black" d="M50,-145.83C49.77,-137.89 49.51,-128.41 49.27,-119.63"/>
<polygon fill="black" stroke="black" points="52.76,-119.32 48.98,-109.42 45.76,-119.51 52.76,-119.32"/>
</g>
<!-- 5 -->
<g id="node6" class="node">
<title>5</title>
<polygon fill="none" stroke="black" points="191.5,-109 115.5,-109 115.5,-73 191.5,-73 191.5,-109"/>
<text text-anchor="middle" x="153.5" y="-87.3" font-family="Times,serif" font-size="14.00">class = A+</text>
</g>
<!-- 3&#45;&gt;5 -->
<g id="edge5" class="edge">
<title>3&#45;&gt;5</title>
<path fill="none" stroke="black" d="M76.49,-145.83C89.82,-136.52 106.19,-125.07 120.41,-115.13"/>
<polygon fill="black" stroke="black" points="122.74,-117.77 128.94,-109.17 118.73,-112.03 122.74,-117.77"/>
</g>
<!-- 9 -->
<g id="node10" class="node">
<title>9</title>
<polygon fill="none" stroke="black" points="344,-257 247,-257 247,-221 344,-221 344,-257"/>
<text text-anchor="middle" x="295.5" y="-235.3" font-family="Times,serif" font-size="14.00">class = not A+</text>
</g>
<!-- 8&#45;&gt;9 -->
<g id="edge9" class="edge">
<title>8&#45;&gt;9</title>
<path fill="none" stroke="black" d="M303.72,-293.83C302.5,-285.81 301.03,-276.2 299.68,-267.34"/>
<polygon fill="black" stroke="black" points="303.13,-266.77 298.16,-257.42 296.21,-267.83 303.13,-266.77"/>
</g>
<!-- 10 -->
<g id="node11" class="node">
<title>10</title>
<polygon fill="none" stroke="black" points="443,-258 362,-258 362,-220 443,-220 443,-258"/>
<text text-anchor="middle" x="402.5" y="-242.8" font-family="Times,serif" font-size="14.00">lab2 &lt;= 0.5</text>
<text text-anchor="middle" x="402.5" y="-227.8" font-family="Times,serif" font-size="14.00">class = A+</text>
</g>
<!-- 8&#45;&gt;10 -->
<g id="edge10" class="edge">
<title>8&#45;&gt;10</title>
<path fill="none" stroke="black" d="M330.72,-293.83C342.66,-284.88 357.23,-273.96 370.11,-264.3"/>
<polygon fill="black" stroke="black" points="372.38,-266.96 378.28,-258.16 368.18,-261.36 372.38,-266.96"/>
</g>
<!-- 11 -->
<g id="node12" class="node">
<title>11</title>
<polygon fill="none" stroke="black" points="372.5,-183 296.5,-183 296.5,-147 372.5,-147 372.5,-183"/>
<text text-anchor="middle" x="334.5" y="-161.3" font-family="Times,serif" font-size="14.00">class = A+</text>
</g>
<!-- 10&#45;&gt;11 -->
<g id="edge11" class="edge">
<title>10&#45;&gt;11</title>
<path fill="none" stroke="black" d="M385.34,-219.83C377.02,-211.02 366.9,-200.31 357.89,-190.76"/>
<polygon fill="black" stroke="black" points="360.36,-188.28 350.95,-183.42 355.27,-193.09 360.36,-188.28"/>
</g>
<!-- 12 -->
<g id="node13" class="node">
<title>12</title>
<polygon fill="none" stroke="black" points="478.5,-184 390.5,-184 390.5,-146 478.5,-146 478.5,-184"/>
<text text-anchor="middle" x="434.5" y="-168.8" font-family="Times,serif" font-size="14.00">quiz1 &lt;= 0.5</text>
<text text-anchor="middle" x="434.5" y="-153.8" font-family="Times,serif" font-size="14.00">class = A+</text>
</g>
<!-- 10&#45;&gt;12 -->
<g id="edge12" class="edge">
<title>10&#45;&gt;12</title>
<path fill="none" stroke="black" d="M410.57,-219.83C414.11,-211.88 418.34,-202.37 422.25,-193.57"/>
<polygon fill="black" stroke="black" points="425.45,-194.97 426.32,-184.41 419.06,-192.13 425.45,-194.97"/>
</g>
<!-- 13 -->
<g id="node14" class="node">
<title>13</title>
<polygon fill="none" stroke="black" points="410,-110 271,-110 271,-72 410,-72 410,-110"/>
<text text-anchor="middle" x="340.5" y="-94.8" font-family="Times,serif" font-size="14.00">ml_experience &lt;= 0.5</text>
<text text-anchor="middle" x="340.5" y="-79.8" font-family="Times,serif" font-size="14.00">class = A+</text>
</g>
<!-- 12&#45;&gt;13 -->
<g id="edge13" class="edge">
<title>12&#45;&gt;13</title>
<path fill="none" stroke="black" d="M410.78,-145.83C399.09,-136.88 384.83,-125.96 372.22,-116.3"/>
<polygon fill="black" stroke="black" points="374.28,-113.47 364.21,-110.16 370.02,-119.02 374.28,-113.47"/>
</g>
<!-- 16 -->
<g id="node17" class="node">
<title>16</title>
<polygon fill="none" stroke="black" points="504.5,-109 428.5,-109 428.5,-73 504.5,-73 504.5,-109"/>
<text text-anchor="middle" x="466.5" y="-87.3" font-family="Times,serif" font-size="14.00">class = A+</text>
</g>
<!-- 12&#45;&gt;16 -->
<g id="edge16" class="edge">
<title>12&#45;&gt;16</title>
<path fill="none" stroke="black" d="M442.57,-145.83C446.22,-137.63 450.6,-127.78 454.61,-118.76"/>
<polygon fill="black" stroke="black" points="457.9,-119.98 458.76,-109.42 451.5,-117.13 457.9,-119.98"/>
</g>
<!-- 14 -->
<g id="node15" class="node">
<title>14</title>
<polygon fill="none" stroke="black" points="331.5,-36 255.5,-36 255.5,0 331.5,0 331.5,-36"/>
<text text-anchor="middle" x="293.5" y="-14.3" font-family="Times,serif" font-size="14.00">class = A+</text>
</g>
<!-- 13&#45;&gt;14 -->
<g id="edge14" class="edge">
<title>13&#45;&gt;14</title>
<path fill="none" stroke="black" d="M328.4,-71.72C322.93,-63.46 316.38,-53.56 310.43,-44.58"/>
<polygon fill="black" stroke="black" points="313.19,-42.41 304.76,-36 307.36,-46.27 313.19,-42.41"/>
</g>
<!-- 15 -->
<g id="node16" class="node">
<title>15</title>
<polygon fill="none" stroke="black" points="425.5,-36 349.5,-36 349.5,0 425.5,0 425.5,-36"/>
<text text-anchor="middle" x="387.5" y="-14.3" font-family="Times,serif" font-size="14.00">class = A+</text>
</g>
<!-- 13&#45;&gt;15 -->
<g id="edge15" class="edge">
<title>13&#45;&gt;15</title>
<path fill="none" stroke="black" d="M352.6,-71.72C358.07,-63.46 364.62,-53.56 370.57,-44.58"/>
<polygon fill="black" stroke="black" points="373.64,-46.27 376.24,-36 367.81,-42.41 373.64,-46.27"/>
</g>
</g>
</svg>
