<?xml version="1.0" encoding="UTF-8" standalone="no"?>
<!DOCTYPE svg PUBLIC "-//W3C//DTD SVG 1.1//EN"
 "http://www.w3.org/Graphics/SVG/1.1/DTD/svg11.dtd">
<!-- Generated by graphviz version 5.0.1 (0)
 -->
<!-- Title: Tree Pages: 1 -->
<svg width="702pt" height="562pt"
 viewBox="0.00 0.00 701.50 562.00" xmlns="http://www.w3.org/2000/svg" xmlns:xlink="http://www.w3.org/1999/xlink">
<g id="graph0" class="graph" transform="scale(1 1) rotate(0) translate(4 558)">
<title>Tree</title>
<polygon fill="white" stroke="none" points="-4,4 -4,-558 697.5,-558 697.5,4 -4,4"/>
<!-- 0 -->
<g id="node1" class="node">
<title>0</title>
<polygon fill="none" stroke="black" points="325,-554 222,-554 222,-516 325,-516 325,-554"/>
<text text-anchor="middle" x="273.5" y="-538.8" font-family="Helvetica,sans-Serif" font-size="14.00">lab3 &lt;= 0.5</text>
<text text-anchor="middle" x="273.5" y="-523.8" font-family="Helvetica,sans-Serif" font-size="14.00">class = not A+</text>
</g>
<!-- 1 -->
<g id="node2" class="node">
<title>1</title>
<polygon fill="none" stroke="black" points="255,-480 152,-480 152,-442 255,-442 255,-480"/>
<text text-anchor="middle" x="203.5" y="-464.8" font-family="Helvetica,sans-Serif" font-size="14.00">quiz1 &lt;= 0.5</text>
<text text-anchor="middle" x="203.5" y="-449.8" font-family="Helvetica,sans-Serif" font-size="14.00">class = not A+</text>
</g>
<!-- 0&#45;&gt;1 -->
<g id="edge1" class="edge">
<title>0&#45;&gt;1</title>
<path fill="none" stroke="black" d="M255.84,-515.83C247.53,-507.28 237.47,-496.94 228.41,-487.62"/>
<polygon fill="black" stroke="black" points="230.88,-485.14 221.4,-480.41 225.86,-490.02 230.88,-485.14"/>
<text text-anchor="middle" x="221.05" y="-501.71" font-family="Helvetica,sans-Serif" font-size="14.00">True</text>
</g>
<!-- 8 -->
<g id="node9" class="node">
<title>8</title>
<polygon fill="none" stroke="black" points="386,-480 301,-480 301,-442 386,-442 386,-480"/>
<text text-anchor="middle" x="343.5" y="-464.8" font-family="Helvetica,sans-Serif" font-size="14.00">lab2 &lt;= 0.5</text>
<text text-anchor="middle" x="343.5" y="-449.8" font-family="Helvetica,sans-Serif" font-size="14.00">class = A+</text>
</g>
<!-- 0&#45;&gt;8 -->
<g id="edge8" class="edge">
<title>0&#45;&gt;8</title>
<path fill="none" stroke="black" d="M291.16,-515.83C299.47,-507.28 309.53,-496.94 318.59,-487.62"/>
<polygon fill="black" stroke="black" points="321.14,-490.02 325.6,-480.41 316.12,-485.14 321.14,-490.02"/>
<text text-anchor="middle" x="325.95" y="-501.71" font-family="Helvetica,sans-Serif" font-size="14.00">False</text>
</g>
<!-- 2 -->
<g id="node3" class="node">
<title>2</title>
<polygon fill="none" stroke="black" points="103,-405 0,-405 0,-369 103,-369 103,-405"/>
<text text-anchor="middle" x="51.5" y="-383.3" font-family="Helvetica,sans-Serif" font-size="14.00">class = not A+</text>
</g>
<!-- 1&#45;&gt;2 -->
<g id="edge2" class="edge">
<title>1&#45;&gt;2</title>
<path fill="none" stroke="black" d="M165.14,-441.83C144.29,-431.95 118.38,-419.68 96.56,-409.35"/>
<polygon fill="black" stroke="black" points="98.03,-406.17 87.49,-405.05 95.03,-412.49 98.03,-406.17"/>
</g>
<!-- 3 -->
<g id="node4" class="node">
<title>3</title>
<polygon fill="none" stroke="black" points="285.5,-406 121.5,-406 121.5,-368 285.5,-368 285.5,-406"/>
<text text-anchor="middle" x="203.5" y="-390.8" font-family="Helvetica,sans-Serif" font-size="14.00">class_attendance &lt;= 0.5</text>
<text text-anchor="middle" x="203.5" y="-375.8" font-family="Helvetica,sans-Serif" font-size="14.00">class = A+</text>
</g>
<!-- 1&#45;&gt;3 -->
<g id="edge3" class="edge">
<title>1&#45;&gt;3</title>
<path fill="none" stroke="black" d="M203.5,-441.83C203.5,-434.13 203.5,-424.97 203.5,-416.42"/>
<polygon fill="black" stroke="black" points="207,-416.41 203.5,-406.41 200,-416.41 207,-416.41"/>
</g>
<!-- 4 -->
<g id="node5" class="node">
<title>4</title>
<polygon fill="none" stroke="black" points="206,-332 103,-332 103,-294 206,-294 206,-332"/>
<text text-anchor="middle" x="154.5" y="-316.8" font-family="Helvetica,sans-Serif" font-size="14.00">lab1 &lt;= 0.5</text>
<text text-anchor="middle" x="154.5" y="-301.8" font-family="Helvetica,sans-Serif" font-size="14.00">class = not A+</text>
</g>
<!-- 3&#45;&gt;4 -->
<g id="edge4" class="edge">
<title>3&#45;&gt;4</title>
<path fill="none" stroke="black" d="M191.14,-367.83C185.55,-359.62 178.84,-349.76 172.69,-340.73"/>
<polygon fill="black" stroke="black" points="175.55,-338.71 167.03,-332.41 169.76,-342.65 175.55,-338.71"/>
</g>
<!-- 7 -->
<g id="node8" class="node">
<title>7</title>
<polygon fill="none" stroke="black" points="304.5,-331 224.5,-331 224.5,-295 304.5,-295 304.5,-331"/>
<text text-anchor="middle" x="264.5" y="-309.3" font-family="Helvetica,sans-Serif" font-size="14.00">class = A+</text>
</g>
<!-- 3&#45;&gt;7 -->
<g id="edge7" class="edge">
<title>3&#45;&gt;7</title>
<path fill="none" stroke="black" d="M218.89,-367.83C226.21,-359.2 235.08,-348.73 243.04,-339.33"/>
<polygon fill="black" stroke="black" points="245.95,-341.31 249.74,-331.42 240.61,-336.79 245.95,-341.31"/>
</g>
<!-- 5 -->
<g id="node6" class="node">
<title>5</title>
<polygon fill="none" stroke="black" points="139.5,-257 59.5,-257 59.5,-221 139.5,-221 139.5,-257"/>
<text text-anchor="middle" x="99.5" y="-235.3" font-family="Helvetica,sans-Serif" font-size="14.00">class = A+</text>
</g>
<!-- 4&#45;&gt;5 -->
<g id="edge5" class="edge">
<title>4&#45;&gt;5</title>
<path fill="none" stroke="black" d="M140.62,-293.83C134.09,-285.28 126.19,-274.94 119.07,-265.62"/>
<polygon fill="black" stroke="black" points="121.66,-263.24 112.81,-257.42 116.09,-267.49 121.66,-263.24"/>
</g>
<!-- 6 -->
<g id="node7" class="node">
<title>6</title>
<polygon fill="none" stroke="black" points="261,-257 158,-257 158,-221 261,-221 261,-257"/>
<text text-anchor="middle" x="209.5" y="-235.3" font-family="Helvetica,sans-Serif" font-size="14.00">class = not A+</text>
</g>
<!-- 4&#45;&gt;6 -->
<g id="edge6" class="edge">
<title>4&#45;&gt;6</title>
<path fill="none" stroke="black" d="M168.38,-293.83C174.91,-285.28 182.81,-274.94 189.93,-265.62"/>
<polygon fill="black" stroke="black" points="192.91,-267.49 196.19,-257.42 187.34,-263.24 192.91,-267.49"/>
</g>
<!-- 9 -->
<g id="node10" class="node">
<title>9</title>
<polygon fill="none" stroke="black" points="383.5,-405 303.5,-405 303.5,-369 383.5,-369 383.5,-405"/>
<text text-anchor="middle" x="343.5" y="-383.3" font-family="Helvetica,sans-Serif" font-size="14.00">class = A+</text>
</g>
<!-- 8&#45;&gt;9 -->
<g id="edge9" class="edge">
<title>8&#45;&gt;9</title>
<path fill="none" stroke="black" d="M343.5,-441.83C343.5,-433.89 343.5,-424.41 343.5,-415.63"/>
<polygon fill="black" stroke="black" points="347,-415.42 343.5,-405.42 340,-415.42 347,-415.42"/>
</g>
<!-- 10 -->
<g id="node11" class="node">
<title>10</title>
<polygon fill="none" stroke="black" points="493.5,-406 401.5,-406 401.5,-368 493.5,-368 493.5,-406"/>
<text text-anchor="middle" x="447.5" y="-390.8" font-family="Helvetica,sans-Serif" font-size="14.00">quiz1 &lt;= 0.5</text>
<text text-anchor="middle" x="447.5" y="-375.8" font-family="Helvetica,sans-Serif" font-size="14.00">class = A+</text>
</g>
<!-- 8&#45;&gt;10 -->
<g id="edge10" class="edge">
<title>8&#45;&gt;10</title>
<path fill="none" stroke="black" d="M369.74,-441.83C382.8,-432.79 398.75,-421.75 412.8,-412.02"/>
<polygon fill="black" stroke="black" points="415.04,-414.73 421.26,-406.16 411.05,-408.98 415.04,-414.73"/>
</g>
<!-- 11 -->
<g id="node12" class="node">
<title>11</title>
<polygon fill="none" stroke="black" points="438,-332 335,-332 335,-294 438,-294 438,-332"/>
<text text-anchor="middle" x="386.5" y="-316.8" font-family="Helvetica,sans-Serif" font-size="14.00">lab1 &lt;= 0.5</text>
<text text-anchor="middle" x="386.5" y="-301.8" font-family="Helvetica,sans-Serif" font-size="14.00">class = not A+</text>
</g>
<!-- 10&#45;&gt;11 -->
<g id="edge11" class="edge">
<title>10&#45;&gt;11</title>
<path fill="none" stroke="black" d="M432.11,-367.83C425.01,-359.45 416.45,-349.35 408.68,-340.17"/>
<polygon fill="black" stroke="black" points="411.23,-337.78 402.1,-332.41 405.89,-342.31 411.23,-337.78"/>
</g>
<!-- 20 -->
<g id="node21" class="node">
<title>20</title>
<polygon fill="none" stroke="black" points="536.5,-331 456.5,-331 456.5,-295 536.5,-295 536.5,-331"/>
<text text-anchor="middle" x="496.5" y="-309.3" font-family="Helvetica,sans-Serif" font-size="14.00">class = A+</text>
</g>
<!-- 10&#45;&gt;20 -->
<g id="edge20" class="edge">
<title>10&#45;&gt;20</title>
<path fill="none" stroke="black" d="M459.86,-367.83C465.62,-359.37 472.58,-349.15 478.87,-339.9"/>
<polygon fill="black" stroke="black" points="481.91,-341.65 484.65,-331.42 476.13,-337.72 481.91,-341.65"/>
</g>
<!-- 12 -->
<g id="node13" class="node">
<title>12</title>
<polygon fill="none" stroke="black" points="386.5,-257 306.5,-257 306.5,-221 386.5,-221 386.5,-257"/>
<text text-anchor="middle" x="346.5" y="-235.3" font-family="Helvetica,sans-Serif" font-size="14.00">class = A+</text>
</g>
<!-- 11&#45;&gt;12 -->
<g id="edge12" class="edge">
<title>11&#45;&gt;12</title>
<path fill="none" stroke="black" d="M376.41,-293.83C371.75,-285.46 366.15,-275.36 361.05,-266.19"/>
<polygon fill="black" stroke="black" points="364.09,-264.46 356.18,-257.42 357.97,-267.86 364.09,-264.46"/>
</g>
<!-- 13 -->
<g id="node14" class="node">
<title>13</title>
<polygon fill="none" stroke="black" points="508,-258 405,-258 405,-220 508,-220 508,-258"/>
<text text-anchor="middle" x="456.5" y="-242.8" font-family="Helvetica,sans-Serif" font-size="14.00">lab4 &lt;= 0.5</text>
<text text-anchor="middle" x="456.5" y="-227.8" font-family="Helvetica,sans-Serif" font-size="14.00">class = not A+</text>
</g>
<!-- 11&#45;&gt;13 -->
<g id="edge13" class="edge">
<title>11&#45;&gt;13</title>
<path fill="none" stroke="black" d="M404.16,-293.83C412.47,-285.28 422.53,-274.94 431.59,-265.62"/>
<polygon fill="black" stroke="black" points="434.14,-268.02 438.6,-258.41 429.12,-263.14 434.14,-268.02"/>
</g>
<!-- 14 -->
<g id="node15" class="node">
<title>14</title>
<polygon fill="none" stroke="black" points="432,-183 329,-183 329,-147 432,-147 432,-183"/>
<text text-anchor="middle" x="380.5" y="-161.3" font-family="Helvetica,sans-Serif" font-size="14.00">class = not A+</text>
</g>
<!-- 13&#45;&gt;14 -->
<g id="edge14" class="edge">
<title>13&#45;&gt;14</title>
<path fill="none" stroke="black" d="M437.32,-219.83C427.86,-210.87 416.32,-199.93 406.11,-190.26"/>
<polygon fill="black" stroke="black" points="408.29,-187.51 398.63,-183.17 403.48,-192.59 408.29,-187.51"/>
</g>
<!-- 15 -->
<g id="node16" class="node">
<title>15</title>
<polygon fill="none" stroke="black" points="614.5,-184 450.5,-184 450.5,-146 614.5,-146 614.5,-184"/>
<text text-anchor="middle" x="532.5" y="-168.8" font-family="Helvetica,sans-Serif" font-size="14.00">class_attendance &lt;= 0.5</text>
<text text-anchor="middle" x="532.5" y="-153.8" font-family="Helvetica,sans-Serif" font-size="14.00">class = not A+</text>
</g>
<!-- 13&#45;&gt;15 -->
<g id="edge15" class="edge">
<title>13&#45;&gt;15</title>
<path fill="none" stroke="black" d="M475.68,-219.83C484.86,-211.13 496,-200.58 505.98,-191.13"/>
<polygon fill="black" stroke="black" points="508.48,-193.58 513.33,-184.16 503.66,-188.5 508.48,-193.58"/>
</g>
<!-- 16 -->
<g id="node17" class="node">
<title>16</title>
<polygon fill="none" stroke="black" points="512,-109 409,-109 409,-73 512,-73 512,-109"/>
<text text-anchor="middle" x="460.5" y="-87.3" font-family="Helvetica,sans-Serif" font-size="14.00">class = not A+</text>
</g>
<!-- 15&#45;&gt;16 -->
<g id="edge16" class="edge">
<title>15&#45;&gt;16</title>
<path fill="none" stroke="black" d="M514.33,-145.83C505.52,-137.02 494.81,-126.31 485.26,-116.76"/>
<polygon fill="black" stroke="black" points="487.46,-114.01 477.92,-109.42 482.51,-118.96 487.46,-114.01"/>
</g>
<!-- 17 -->
<g id="node18" class="node">
<title>17</title>
<polygon fill="none" stroke="black" points="678.5,-110 530.5,-110 530.5,-72 678.5,-72 678.5,-110"/>
<text text-anchor="middle" x="604.5" y="-94.8" font-family="Helvetica,sans-Serif" font-size="14.00">ml_experience &lt;= 0.5</text>
<text text-anchor="middle" x="604.5" y="-79.8" font-family="Helvetica,sans-Serif" font-size="14.00">class = A+</text>
</g>
<!-- 15&#45;&gt;17 -->
<g id="edge17" class="edge">
<title>15&#45;&gt;17</title>
<path fill="none" stroke="black" d="M550.67,-145.83C559.22,-137.28 569.56,-126.94 578.88,-117.62"/>
<polygon fill="black" stroke="black" points="581.49,-119.96 586.09,-110.41 576.54,-115.01 581.49,-119.96"/>
</g>
<!-- 18 -->
<g id="node19" class="node">
<title>18</title>
<polygon fill="none" stroke="black" points="595.5,-36 515.5,-36 515.5,0 595.5,0 595.5,-36"/>
<text text-anchor="middle" x="555.5" y="-14.3" font-family="Helvetica,sans-Serif" font-size="14.00">class = A+</text>
</g>
<!-- 17&#45;&gt;18 -->
<g id="edge18" class="edge">
<title>17&#45;&gt;18</title>
<path fill="none" stroke="black" d="M591.88,-71.72C586.12,-63.37 579.21,-53.35 572.96,-44.3"/>
<polygon fill="black" stroke="black" points="575.8,-42.25 567.23,-36 570.03,-46.22 575.8,-42.25"/>
</g>
<!-- 19 -->
<g id="node20" class="node">
<title>19</title>
<polygon fill="none" stroke="black" points="693.5,-36 613.5,-36 613.5,0 693.5,0 693.5,-36"/>
<text text-anchor="middle" x="653.5" y="-14.3" font-family="Helvetica,sans-Serif" font-size="14.00">class = A+</text>
</g>
<!-- 17&#45;&gt;19 -->
<g id="edge19" class="edge">
<title>17&#45;&gt;19</title>
<path fill="none" stroke="black" d="M617.12,-71.72C622.88,-63.37 629.79,-53.35 636.04,-44.3"/>
<polygon fill="black" stroke="black" points="638.97,-46.22 641.77,-36 633.2,-42.25 638.97,-46.22"/>
</g>
</g>
</svg>
