<?xml version="1.0" encoding="UTF-8" standalone="no"?>
<!DOCTYPE svg PUBLIC "-//W3C//DTD SVG 1.1//EN"
 "http://www.w3.org/Graphics/SVG/1.1/DTD/svg11.dtd">
<!-- Generated by graphviz version 2.48.0 (0)
 -->
<!-- Title: Tree Pages: 1 -->
<svg width="454pt" height="313pt"
 viewBox="0.00 0.00 454.00 313.00" xmlns="http://www.w3.org/2000/svg" xmlns:xlink="http://www.w3.org/1999/xlink">
<g id="graph0" class="graph" transform="scale(1 1) rotate(0) translate(4 309)">
<title>Tree</title>
<polygon fill="white" stroke="transparent" points="-4,4 -4,-309 450,-309 450,4 -4,4"/>
<!-- 0 -->
<g id="node1" class="node">
<title>0</title>
<polygon fill="none" stroke="black" points="219,-305 107,-305 107,-252 219,-252 219,-305"/>
<text text-anchor="middle" x="163" y="-289.8" font-family="Times,serif" font-size="14.00">lab3 &lt;= 83.5</text>
<text text-anchor="middle" x="163" y="-274.8" font-family="Times,serif" font-size="14.00">counts = [10, 11]</text>
<text text-anchor="middle" x="163" y="-259.8" font-family="Times,serif" font-size="14.00">class = not A+</text>
</g>
<!-- 1 -->
<g id="node2" class="node">
<title>1</title>
<polygon fill="none" stroke="black" points="152,-208.5 54,-208.5 54,-170.5 152,-170.5 152,-208.5"/>
<text text-anchor="middle" x="103" y="-193.3" font-family="Times,serif" font-size="14.00">counts = [0, 6]</text>
<text text-anchor="middle" x="103" y="-178.3" font-family="Times,serif" font-size="14.00">class = not A+</text>
</g>
<!-- 0&#45;&gt;1 -->
<g id="edge1" class="edge">
<title>0&#45;&gt;1</title>
<path fill="none" stroke="black" d="M145.32,-251.87C137.74,-240.87 128.89,-228.03 121.24,-216.95"/>
<polygon fill="black" stroke="black" points="123.98,-214.75 115.42,-208.51 118.21,-218.73 123.98,-214.75"/>
<text text-anchor="middle" x="110.9" y="-229.4" font-family="Times,serif" font-size="14.00">True</text>
</g>
<!-- 2 -->
<g id="node3" class="node">
<title>2</title>
<polygon fill="none" stroke="black" points="275.5,-216 170.5,-216 170.5,-163 275.5,-163 275.5,-216"/>
<text text-anchor="middle" x="223" y="-200.8" font-family="Times,serif" font-size="14.00">quiz1 &lt;= 83.5</text>
<text text-anchor="middle" x="223" y="-185.8" font-family="Times,serif" font-size="14.00">counts = [10, 5]</text>
<text text-anchor="middle" x="223" y="-170.8" font-family="Times,serif" font-size="14.00">class = A+</text>
</g>
<!-- 0&#45;&gt;2 -->
<g id="edge2" class="edge">
<title>0&#45;&gt;2</title>
<path fill="none" stroke="black" d="M180.68,-251.87C186.55,-243.36 193.17,-233.75 199.41,-224.7"/>
<polygon fill="black" stroke="black" points="202.45,-226.47 205.24,-216.25 196.68,-222.49 202.45,-226.47"/>
<text text-anchor="middle" x="209.76" y="-237.14" font-family="Times,serif" font-size="14.00">False</text>
</g>
<!-- 3 -->
<g id="node4" class="node">
<title>3</title>
<polygon fill="none" stroke="black" points="214,-127 116,-127 116,-74 214,-74 214,-127"/>
<text text-anchor="middle" x="165" y="-111.8" font-family="Times,serif" font-size="14.00">lab3 &lt;= 94.5</text>
<text text-anchor="middle" x="165" y="-96.8" font-family="Times,serif" font-size="14.00">counts = [1, 3]</text>
<text text-anchor="middle" x="165" y="-81.8" font-family="Times,serif" font-size="14.00">class = not A+</text>
</g>
<!-- 2&#45;&gt;3 -->
<g id="edge3" class="edge">
<title>2&#45;&gt;3</title>
<path fill="none" stroke="black" d="M205.91,-162.87C200.24,-154.36 193.83,-144.75 187.8,-135.7"/>
<polygon fill="black" stroke="black" points="190.63,-133.63 182.17,-127.25 184.8,-137.51 190.63,-133.63"/>
</g>
<!-- 6 -->
<g id="node7" class="node">
<title>6</title>
<polygon fill="none" stroke="black" points="330,-127 232,-127 232,-74 330,-74 330,-127"/>
<text text-anchor="middle" x="281" y="-111.8" font-family="Times,serif" font-size="14.00">lab4 &lt;= 83.5</text>
<text text-anchor="middle" x="281" y="-96.8" font-family="Times,serif" font-size="14.00">counts = [9, 2]</text>
<text text-anchor="middle" x="281" y="-81.8" font-family="Times,serif" font-size="14.00">class = A+</text>
</g>
<!-- 2&#45;&gt;6 -->
<g id="edge6" class="edge">
<title>2&#45;&gt;6</title>
<path fill="none" stroke="black" d="M240.09,-162.87C245.76,-154.36 252.17,-144.75 258.2,-135.7"/>
<polygon fill="black" stroke="black" points="261.2,-137.51 263.83,-127.25 255.37,-133.63 261.2,-137.51"/>
</g>
<!-- 4 -->
<g id="node5" class="node">
<title>4</title>
<polygon fill="none" stroke="black" points="98,-38 0,-38 0,0 98,0 98,-38"/>
<text text-anchor="middle" x="49" y="-22.8" font-family="Times,serif" font-size="14.00">counts = [0, 3]</text>
<text text-anchor="middle" x="49" y="-7.8" font-family="Times,serif" font-size="14.00">class = not A+</text>
</g>
<!-- 3&#45;&gt;4 -->
<g id="edge4" class="edge">
<title>3&#45;&gt;4</title>
<path fill="none" stroke="black" d="M127.66,-73.91C113.62,-64.29 97.72,-53.39 83.91,-43.92"/>
<polygon fill="black" stroke="black" points="85.84,-41.01 75.61,-38.24 81.88,-46.78 85.84,-41.01"/>
</g>
<!-- 5 -->
<g id="node6" class="node">
<title>5</title>
<polygon fill="none" stroke="black" points="214,-38 116,-38 116,0 214,0 214,-38"/>
<text text-anchor="middle" x="165" y="-22.8" font-family="Times,serif" font-size="14.00">counts = [1, 0]</text>
<text text-anchor="middle" x="165" y="-7.8" font-family="Times,serif" font-size="14.00">class = A+</text>
</g>
<!-- 3&#45;&gt;5 -->
<g id="edge5" class="edge">
<title>3&#45;&gt;5</title>
<path fill="none" stroke="black" d="M165,-73.91C165,-65.74 165,-56.65 165,-48.3"/>
<polygon fill="black" stroke="black" points="168.5,-48.24 165,-38.24 161.5,-48.24 168.5,-48.24"/>
</g>
<!-- 7 -->
<g id="node8" class="node">
<title>7</title>
<polygon fill="none" stroke="black" points="330,-38 232,-38 232,0 330,0 330,-38"/>
<text text-anchor="middle" x="281" y="-22.8" font-family="Times,serif" font-size="14.00">counts = [0, 1]</text>
<text text-anchor="middle" x="281" y="-7.8" font-family="Times,serif" font-size="14.00">class = not A+</text>
</g>
<!-- 6&#45;&gt;7 -->
<g id="edge7" class="edge">
<title>6&#45;&gt;7</title>
<path fill="none" stroke="black" d="M281,-73.91C281,-65.74 281,-56.65 281,-48.3"/>
<polygon fill="black" stroke="black" points="284.5,-48.24 281,-38.24 277.5,-48.24 284.5,-48.24"/>
</g>
<!-- 8 -->
<g id="node9" class="node">
<title>8</title>
<polygon fill="none" stroke="black" points="446,-38 348,-38 348,0 446,0 446,-38"/>
<text text-anchor="middle" x="397" y="-22.8" font-family="Times,serif" font-size="14.00">counts = [9, 1]</text>
<text text-anchor="middle" x="397" y="-7.8" font-family="Times,serif" font-size="14.00">class = A+</text>
</g>
<!-- 6&#45;&gt;8 -->
<g id="edge8" class="edge">
<title>6&#45;&gt;8</title>
<path fill="none" stroke="black" d="M318.34,-73.91C332.38,-64.29 348.28,-53.39 362.09,-43.92"/>
<polygon fill="black" stroke="black" points="364.12,-46.78 370.39,-38.24 360.16,-41.01 364.12,-46.78"/>
</g>
</g>
</svg>
