<?xml version="1.0" encoding="UTF-8" standalone="no"?>
<!DOCTYPE svg PUBLIC "-//W3C//DTD SVG 1.1//EN"
 "http://www.w3.org/Graphics/SVG/1.1/DTD/svg11.dtd">
<!-- Generated by graphviz version 5.0.1 (0)
 -->
<!-- Title: Tree Pages: 1 -->
<svg width="473pt" height="313pt"
 viewBox="0.00 0.00 473.00 313.00" xmlns="http://www.w3.org/2000/svg" xmlns:xlink="http://www.w3.org/1999/xlink">
<g id="graph0" class="graph" transform="scale(1 1) rotate(0) translate(4 309)">
<title>Tree</title>
<polygon fill="white" stroke="none" points="-4,4 -4,-309 469,-309 469,4 -4,4"/>
<!-- 0 -->
<g id="node1" class="node">
<title>0</title>
<polygon fill="none" stroke="black" points="227.5,-305 110.5,-305 110.5,-252 227.5,-252 227.5,-305"/>
<text text-anchor="middle" x="169" y="-289.8" font-family="Helvetica,sans-Serif" font-size="14.00">lab3 &lt;= 83.5</text>
<text text-anchor="middle" x="169" y="-274.8" font-family="Helvetica,sans-Serif" font-size="14.00">counts = [10, 11]</text>
<text text-anchor="middle" x="169" y="-259.8" font-family="Helvetica,sans-Serif" font-size="14.00">class = not A+</text>
</g>
<!-- 1 -->
<g id="node2" class="node">
<title>1</title>
<polygon fill="none" stroke="black" points="158.5,-208.5 55.5,-208.5 55.5,-170.5 158.5,-170.5 158.5,-208.5"/>
<text text-anchor="middle" x="107" y="-193.3" font-family="Helvetica,sans-Serif" font-size="14.00">counts = [0, 6]</text>
<text text-anchor="middle" x="107" y="-178.3" font-family="Helvetica,sans-Serif" font-size="14.00">class = not A+</text>
</g>
<!-- 0&#45;&gt;1 -->
<g id="edge1" class="edge">
<title>0&#45;&gt;1</title>
<path fill="none" stroke="black" d="M150.73,-251.87C142.9,-240.87 133.75,-228.03 125.85,-216.95"/>
<polygon fill="black" stroke="black" points="128.49,-214.62 119.83,-208.51 122.79,-218.68 128.49,-214.62"/>
<text text-anchor="middle" x="115.7" y="-229.46" font-family="Helvetica,sans-Serif" font-size="14.00">True</text>
</g>
<!-- 2 -->
<g id="node3" class="node">
<title>2</title>
<polygon fill="none" stroke="black" points="287,-216 177,-216 177,-163 287,-163 287,-216"/>
<text text-anchor="middle" x="232" y="-200.8" font-family="Helvetica,sans-Serif" font-size="14.00">quiz1 &lt;= 83.5</text>
<text text-anchor="middle" x="232" y="-185.8" font-family="Helvetica,sans-Serif" font-size="14.00">counts = [10, 5]</text>
<text text-anchor="middle" x="232" y="-170.8" font-family="Helvetica,sans-Serif" font-size="14.00">class = A+</text>
</g>
<!-- 0&#45;&gt;2 -->
<g id="edge2" class="edge">
<title>0&#45;&gt;2</title>
<path fill="none" stroke="black" d="M187.56,-251.87C193.79,-243.27 200.83,-233.55 207.44,-224.42"/>
<polygon fill="black" stroke="black" points="210.32,-226.4 213.35,-216.25 204.65,-222.3 210.32,-226.4"/>
<text text-anchor="middle" x="217.3" y="-237.24" font-family="Helvetica,sans-Serif" font-size="14.00">False</text>
</g>
<!-- 3 -->
<g id="node4" class="node">
<title>3</title>
<polygon fill="none" stroke="black" points="223.5,-127 120.5,-127 120.5,-74 223.5,-74 223.5,-127"/>
<text text-anchor="middle" x="172" y="-111.8" font-family="Helvetica,sans-Serif" font-size="14.00">lab2 &lt;= 88.0</text>
<text text-anchor="middle" x="172" y="-96.8" font-family="Helvetica,sans-Serif" font-size="14.00">counts = [1, 3]</text>
<text text-anchor="middle" x="172" y="-81.8" font-family="Helvetica,sans-Serif" font-size="14.00">class = not A+</text>
</g>
<!-- 2&#45;&gt;3 -->
<g id="edge3" class="edge">
<title>2&#45;&gt;3</title>
<path fill="none" stroke="black" d="M214.32,-162.87C208.45,-154.36 201.83,-144.75 195.59,-135.7"/>
<polygon fill="black" stroke="black" points="198.32,-133.49 189.76,-127.25 192.55,-137.47 198.32,-133.49"/>
</g>
<!-- 6 -->
<g id="node7" class="node">
<title>6</title>
<polygon fill="none" stroke="black" points="344,-127 242,-127 242,-74 344,-74 344,-127"/>
<text text-anchor="middle" x="293" y="-111.8" font-family="Helvetica,sans-Serif" font-size="14.00">lab4 &lt;= 83.5</text>
<text text-anchor="middle" x="293" y="-96.8" font-family="Helvetica,sans-Serif" font-size="14.00">counts = [9, 2]</text>
<text text-anchor="middle" x="293" y="-81.8" font-family="Helvetica,sans-Serif" font-size="14.00">class = A+</text>
</g>
<!-- 2&#45;&gt;6 -->
<g id="edge6" class="edge">
<title>2&#45;&gt;6</title>
<path fill="none" stroke="black" d="M249.97,-162.87C255.94,-154.36 262.68,-144.75 269.02,-135.7"/>
<polygon fill="black" stroke="black" points="272.07,-137.45 274.95,-127.25 266.34,-133.43 272.07,-137.45"/>
</g>
<!-- 4 -->
<g id="node5" class="node">
<title>4</title>
<polygon fill="none" stroke="black" points="102,-38 0,-38 0,0 102,0 102,-38"/>
<text text-anchor="middle" x="51" y="-22.8" font-family="Helvetica,sans-Serif" font-size="14.00">counts = [1, 0]</text>
<text text-anchor="middle" x="51" y="-7.8" font-family="Helvetica,sans-Serif" font-size="14.00">class = A+</text>
</g>
<!-- 3&#45;&gt;4 -->
<g id="edge4" class="edge">
<title>3&#45;&gt;4</title>
<path fill="none" stroke="black" d="M133.05,-73.91C118.4,-64.29 101.82,-53.39 87.41,-43.92"/>
<polygon fill="black" stroke="black" points="89.04,-40.8 78.76,-38.24 85.2,-46.66 89.04,-40.8"/>
</g>
<!-- 5 -->
<g id="node6" class="node">
<title>5</title>
<polygon fill="none" stroke="black" points="223.5,-38 120.5,-38 120.5,0 223.5,0 223.5,-38"/>
<text text-anchor="middle" x="172" y="-22.8" font-family="Helvetica,sans-Serif" font-size="14.00">counts = [0, 3]</text>
<text text-anchor="middle" x="172" y="-7.8" font-family="Helvetica,sans-Serif" font-size="14.00">class = not A+</text>
</g>
<!-- 3&#45;&gt;5 -->
<g id="edge5" class="edge">
<title>3&#45;&gt;5</title>
<path fill="none" stroke="black" d="M172,-73.91C172,-65.74 172,-56.65 172,-48.3"/>
<polygon fill="black" stroke="black" points="175.5,-48.24 172,-38.24 168.5,-48.24 175.5,-48.24"/>
</g>
<!-- 7 -->
<g id="node8" class="node">
<title>7</title>
<polygon fill="none" stroke="black" points="344.5,-38 241.5,-38 241.5,0 344.5,0 344.5,-38"/>
<text text-anchor="middle" x="293" y="-22.8" font-family="Helvetica,sans-Serif" font-size="14.00">counts = [0, 1]</text>
<text text-anchor="middle" x="293" y="-7.8" font-family="Helvetica,sans-Serif" font-size="14.00">class = not A+</text>
</g>
<!-- 6&#45;&gt;7 -->
<g id="edge7" class="edge">
<title>6&#45;&gt;7</title>
<path fill="none" stroke="black" d="M293,-73.91C293,-65.74 293,-56.65 293,-48.3"/>
<polygon fill="black" stroke="black" points="296.5,-48.24 293,-38.24 289.5,-48.24 296.5,-48.24"/>
</g>
<!-- 8 -->
<g id="node9" class="node">
<title>8</title>
<polygon fill="none" stroke="black" points="465,-38 363,-38 363,0 465,0 465,-38"/>
<text text-anchor="middle" x="414" y="-22.8" font-family="Helvetica,sans-Serif" font-size="14.00">counts = [9, 1]</text>
<text text-anchor="middle" x="414" y="-7.8" font-family="Helvetica,sans-Serif" font-size="14.00">class = A+</text>
</g>
<!-- 6&#45;&gt;8 -->
<g id="edge8" class="edge">
<title>6&#45;&gt;8</title>
<path fill="none" stroke="black" d="M331.95,-73.91C346.6,-64.29 363.18,-53.39 377.59,-43.92"/>
<polygon fill="black" stroke="black" points="379.8,-46.66 386.24,-38.24 375.96,-40.8 379.8,-46.66"/>
</g>
</g>
</svg>
