<?xml version="1.0" encoding="UTF-8" standalone="no"?>
<!DOCTYPE svg PUBLIC "-//W3C//DTD SVG 1.1//EN"
 "http://www.w3.org/Graphics/SVG/1.1/DTD/svg11.dtd">
<!-- Generated by graphviz version 2.48.0 (0)
 -->
<!-- Title: Tree Pages: 1 -->
<svg width="677pt" height="414pt"
 viewBox="0.00 0.00 676.50 414.00" xmlns="http://www.w3.org/2000/svg" xmlns:xlink="http://www.w3.org/1999/xlink">
<g id="graph0" class="graph" transform="scale(1 1) rotate(0) translate(4 410)">
<title>Tree</title>
<polygon fill="white" stroke="transparent" points="-4,4 -4,-410 672.5,-410 672.5,4 -4,4"/>
<!-- 0 -->
<g id="node1" class="node">
<title>0</title>
<polygon fill="none" stroke="black" points="387,-406 290,-406 290,-368 387,-368 387,-406"/>
<text text-anchor="middle" x="338.5" y="-390.8" font-family="Times,serif" font-size="14.00">lab4 &lt;= 0.5</text>
<text text-anchor="middle" x="338.5" y="-375.8" font-family="Times,serif" font-size="14.00">class = not A+</text>
</g>
<!-- 1 -->
<g id="node2" class="node">
<title>1</title>
<polygon fill="none" stroke="black" points="330,-332 179,-332 179,-294 330,-294 330,-332"/>
<text text-anchor="middle" x="254.5" y="-316.8" font-family="Times,serif" font-size="14.00">class_attendance &lt;= 0.5</text>
<text text-anchor="middle" x="254.5" y="-301.8" font-family="Times,serif" font-size="14.00">class = not A+</text>
</g>
<!-- 0&#45;&gt;1 -->
<g id="edge1" class="edge">
<title>0&#45;&gt;1</title>
<path fill="none" stroke="black" d="M317.3,-367.83C307.06,-359.05 294.6,-348.37 283.49,-338.85"/>
<polygon fill="black" stroke="black" points="285.56,-336.01 275.69,-332.16 281,-341.33 285.56,-336.01"/>
<text text-anchor="middle" x="277.61" y="-353.39" font-family="Times,serif" font-size="14.00">True</text>
</g>
<!-- 10 -->
<g id="node11" class="node">
<title>10</title>
<polygon fill="none" stroke="black" points="499,-332 348,-332 348,-294 499,-294 499,-332"/>
<text text-anchor="middle" x="423.5" y="-316.8" font-family="Times,serif" font-size="14.00">class_attendance &lt;= 0.5</text>
<text text-anchor="middle" x="423.5" y="-301.8" font-family="Times,serif" font-size="14.00">class = A+</text>
</g>
<!-- 0&#45;&gt;10 -->
<g id="edge10" class="edge">
<title>0&#45;&gt;10</title>
<path fill="none" stroke="black" d="M359.95,-367.83C370.32,-359.05 382.92,-348.37 394.16,-338.85"/>
<polygon fill="black" stroke="black" points="396.69,-341.3 402.06,-332.16 392.17,-335.96 396.69,-341.3"/>
<text text-anchor="middle" x="399.99" y="-353.38" font-family="Times,serif" font-size="14.00">False</text>
</g>
<!-- 2 -->
<g id="node3" class="node">
<title>2</title>
<polygon fill="none" stroke="black" points="202,-258 105,-258 105,-220 202,-220 202,-258"/>
<text text-anchor="middle" x="153.5" y="-242.8" font-family="Times,serif" font-size="14.00">lab3 &lt;= 0.5</text>
<text text-anchor="middle" x="153.5" y="-227.8" font-family="Times,serif" font-size="14.00">class = not A+</text>
</g>
<!-- 1&#45;&gt;2 -->
<g id="edge2" class="edge">
<title>1&#45;&gt;2</title>
<path fill="none" stroke="black" d="M229.01,-293.83C216.33,-284.79 200.84,-273.75 187.19,-264.02"/>
<polygon fill="black" stroke="black" points="189.15,-261.12 178.98,-258.16 185.09,-266.82 189.15,-261.12"/>
</g>
<!-- 9 -->
<g id="node10" class="node">
<title>9</title>
<polygon fill="none" stroke="black" points="317,-257 220,-257 220,-221 317,-221 317,-257"/>
<text text-anchor="middle" x="268.5" y="-235.3" font-family="Times,serif" font-size="14.00">class = not A+</text>
</g>
<!-- 1&#45;&gt;9 -->
<g id="edge9" class="edge">
<title>1&#45;&gt;9</title>
<path fill="none" stroke="black" d="M258.03,-293.83C259.59,-285.81 261.46,-276.2 263.18,-267.34"/>
<polygon fill="black" stroke="black" points="266.64,-267.9 265.11,-257.42 259.77,-266.57 266.64,-267.9"/>
</g>
<!-- 3 -->
<g id="node4" class="node">
<title>3</title>
<polygon fill="none" stroke="black" points="150,-184 53,-184 53,-146 150,-146 150,-184"/>
<text text-anchor="middle" x="101.5" y="-168.8" font-family="Times,serif" font-size="14.00">quiz1 &lt;= 0.5</text>
<text text-anchor="middle" x="101.5" y="-153.8" font-family="Times,serif" font-size="14.00">class = not A+</text>
</g>
<!-- 2&#45;&gt;3 -->
<g id="edge3" class="edge">
<title>2&#45;&gt;3</title>
<path fill="none" stroke="black" d="M140.38,-219.83C134.45,-211.62 127.33,-201.76 120.81,-192.73"/>
<polygon fill="black" stroke="black" points="123.49,-190.47 114.8,-184.41 117.82,-194.57 123.49,-190.47"/>
</g>
<!-- 8 -->
<g id="node9" class="node">
<title>8</title>
<polygon fill="none" stroke="black" points="244.5,-183 168.5,-183 168.5,-147 244.5,-147 244.5,-183"/>
<text text-anchor="middle" x="206.5" y="-161.3" font-family="Times,serif" font-size="14.00">class = A+</text>
</g>
<!-- 2&#45;&gt;8 -->
<g id="edge8" class="edge">
<title>2&#45;&gt;8</title>
<path fill="none" stroke="black" d="M166.87,-219.83C173.17,-211.28 180.78,-200.94 187.64,-191.62"/>
<polygon fill="black" stroke="black" points="190.57,-193.55 193.68,-183.42 184.93,-189.4 190.57,-193.55"/>
</g>
<!-- 4 -->
<g id="node5" class="node">
<title>4</title>
<polygon fill="none" stroke="black" points="97,-109 0,-109 0,-73 97,-73 97,-109"/>
<text text-anchor="middle" x="48.5" y="-87.3" font-family="Times,serif" font-size="14.00">class = not A+</text>
</g>
<!-- 3&#45;&gt;4 -->
<g id="edge4" class="edge">
<title>3&#45;&gt;4</title>
<path fill="none" stroke="black" d="M88.13,-145.83C81.83,-137.28 74.22,-126.94 67.36,-117.62"/>
<polygon fill="black" stroke="black" points="70.07,-115.4 61.32,-109.42 64.43,-119.55 70.07,-115.4"/>
</g>
<!-- 5 -->
<g id="node6" class="node">
<title>5</title>
<polygon fill="none" stroke="black" points="196,-110 115,-110 115,-72 196,-72 196,-110"/>
<text text-anchor="middle" x="155.5" y="-94.8" font-family="Times,serif" font-size="14.00">lab1 &lt;= 0.5</text>
<text text-anchor="middle" x="155.5" y="-79.8" font-family="Times,serif" font-size="14.00">class = A+</text>
</g>
<!-- 3&#45;&gt;5 -->
<g id="edge5" class="edge">
<title>3&#45;&gt;5</title>
<path fill="none" stroke="black" d="M115.13,-145.83C121.35,-137.54 128.83,-127.56 135.66,-118.45"/>
<polygon fill="black" stroke="black" points="138.49,-120.51 141.69,-110.41 132.89,-116.31 138.49,-120.51"/>
</g>
<!-- 6 -->
<g id="node7" class="node">
<title>6</title>
<polygon fill="none" stroke="black" points="140.5,-36 64.5,-36 64.5,0 140.5,0 140.5,-36"/>
<text text-anchor="middle" x="102.5" y="-14.3" font-family="Times,serif" font-size="14.00">class = A+</text>
</g>
<!-- 5&#45;&gt;6 -->
<g id="edge6" class="edge">
<title>5&#45;&gt;6</title>
<path fill="none" stroke="black" d="M141.85,-71.72C135.56,-63.29 127.99,-53.15 121.18,-44.02"/>
<polygon fill="black" stroke="black" points="123.98,-41.92 115.19,-36 118.37,-46.11 123.98,-41.92"/>
</g>
<!-- 7 -->
<g id="node8" class="node">
<title>7</title>
<polygon fill="none" stroke="black" points="256,-36 159,-36 159,0 256,0 256,-36"/>
<text text-anchor="middle" x="207.5" y="-14.3" font-family="Times,serif" font-size="14.00">class = not A+</text>
</g>
<!-- 5&#45;&gt;7 -->
<g id="edge7" class="edge">
<title>5&#45;&gt;7</title>
<path fill="none" stroke="black" d="M168.89,-71.72C175,-63.37 182.34,-53.35 188.97,-44.3"/>
<polygon fill="black" stroke="black" points="191.96,-46.14 195.05,-36 186.31,-42 191.96,-46.14"/>
</g>
<!-- 11 -->
<g id="node12" class="node">
<title>11</title>
<polygon fill="none" stroke="black" points="459,-257 362,-257 362,-221 459,-221 459,-257"/>
<text text-anchor="middle" x="410.5" y="-235.3" font-family="Times,serif" font-size="14.00">class = not A+</text>
</g>
<!-- 10&#45;&gt;11 -->
<g id="edge11" class="edge">
<title>10&#45;&gt;11</title>
<path fill="none" stroke="black" d="M420.22,-293.83C418.77,-285.81 417.04,-276.2 415.44,-267.34"/>
<polygon fill="black" stroke="black" points="418.87,-266.64 413.64,-257.42 411.98,-267.88 418.87,-266.64"/>
</g>
<!-- 12 -->
<g id="node13" class="node">
<title>12</title>
<polygon fill="none" stroke="black" points="558,-258 477,-258 477,-220 558,-220 558,-258"/>
<text text-anchor="middle" x="517.5" y="-242.8" font-family="Times,serif" font-size="14.00">lab2 &lt;= 0.5</text>
<text text-anchor="middle" x="517.5" y="-227.8" font-family="Times,serif" font-size="14.00">class = A+</text>
</g>
<!-- 10&#45;&gt;12 -->
<g id="edge12" class="edge">
<title>10&#45;&gt;12</title>
<path fill="none" stroke="black" d="M447.22,-293.83C458.91,-284.88 473.17,-273.96 485.78,-264.3"/>
<polygon fill="black" stroke="black" points="487.98,-267.02 493.79,-258.16 483.72,-261.47 487.98,-267.02"/>
</g>
<!-- 13 -->
<g id="node14" class="node">
<title>13</title>
<polygon fill="none" stroke="black" points="505.5,-183 429.5,-183 429.5,-147 505.5,-147 505.5,-183"/>
<text text-anchor="middle" x="467.5" y="-161.3" font-family="Times,serif" font-size="14.00">class = A+</text>
</g>
<!-- 12&#45;&gt;13 -->
<g id="edge13" class="edge">
<title>12&#45;&gt;13</title>
<path fill="none" stroke="black" d="M504.88,-219.83C499.01,-211.37 491.91,-201.15 485.49,-191.9"/>
<polygon fill="black" stroke="black" points="488.17,-189.64 479.6,-183.42 482.42,-193.63 488.17,-189.64"/>
</g>
<!-- 14 -->
<g id="node15" class="node">
<title>14</title>
<polygon fill="none" stroke="black" points="611.5,-184 523.5,-184 523.5,-146 611.5,-146 611.5,-184"/>
<text text-anchor="middle" x="567.5" y="-168.8" font-family="Times,serif" font-size="14.00">quiz1 &lt;= 0.5</text>
<text text-anchor="middle" x="567.5" y="-153.8" font-family="Times,serif" font-size="14.00">class = A+</text>
</g>
<!-- 12&#45;&gt;14 -->
<g id="edge14" class="edge">
<title>12&#45;&gt;14</title>
<path fill="none" stroke="black" d="M530.12,-219.83C535.82,-211.62 542.67,-201.76 548.94,-192.73"/>
<polygon fill="black" stroke="black" points="551.88,-194.62 554.71,-184.41 546.13,-190.63 551.88,-194.62"/>
</g>
<!-- 15 -->
<g id="node16" class="node">
<title>15</title>
<polygon fill="none" stroke="black" points="574,-110 435,-110 435,-72 574,-72 574,-110"/>
<text text-anchor="middle" x="504.5" y="-94.8" font-family="Times,serif" font-size="14.00">ml_experience &lt;= 0.5</text>
<text text-anchor="middle" x="504.5" y="-79.8" font-family="Times,serif" font-size="14.00">class = A+</text>
</g>
<!-- 14&#45;&gt;15 -->
<g id="edge15" class="edge">
<title>14&#45;&gt;15</title>
<path fill="none" stroke="black" d="M551.6,-145.83C544.27,-137.45 535.43,-127.35 527.4,-118.17"/>
<polygon fill="black" stroke="black" points="529.83,-115.63 520.61,-110.41 524.56,-120.24 529.83,-115.63"/>
</g>
<!-- 18 -->
<g id="node19" class="node">
<title>18</title>
<polygon fill="none" stroke="black" points="668.5,-109 592.5,-109 592.5,-73 668.5,-73 668.5,-109"/>
<text text-anchor="middle" x="630.5" y="-87.3" font-family="Times,serif" font-size="14.00">class = A+</text>
</g>
<!-- 14&#45;&gt;18 -->
<g id="edge18" class="edge">
<title>14&#45;&gt;18</title>
<path fill="none" stroke="black" d="M583.4,-145.83C591.03,-137.11 600.3,-126.52 608.58,-117.05"/>
<polygon fill="black" stroke="black" points="611.31,-119.25 615.26,-109.42 606.04,-114.64 611.31,-119.25"/>
</g>
<!-- 16 -->
<g id="node17" class="node">
<title>16</title>
<polygon fill="none" stroke="black" points="495.5,-36 419.5,-36 419.5,0 495.5,0 495.5,-36"/>
<text text-anchor="middle" x="457.5" y="-14.3" font-family="Times,serif" font-size="14.00">class = A+</text>
</g>
<!-- 15&#45;&gt;16 -->
<g id="edge16" class="edge">
<title>15&#45;&gt;16</title>
<path fill="none" stroke="black" d="M492.4,-71.72C486.93,-63.46 480.38,-53.56 474.43,-44.58"/>
<polygon fill="black" stroke="black" points="477.19,-42.41 468.76,-36 471.36,-46.27 477.19,-42.41"/>
</g>
<!-- 17 -->
<g id="node18" class="node">
<title>17</title>
<polygon fill="none" stroke="black" points="589.5,-36 513.5,-36 513.5,0 589.5,0 589.5,-36"/>
<text text-anchor="middle" x="551.5" y="-14.3" font-family="Times,serif" font-size="14.00">class = A+</text>
</g>
<!-- 15&#45;&gt;17 -->
<g id="edge17" class="edge">
<title>15&#45;&gt;17</title>
<path fill="none" stroke="black" d="M516.6,-71.72C522.07,-63.46 528.62,-53.56 534.57,-44.58"/>
<polygon fill="black" stroke="black" points="537.64,-46.27 540.24,-36 531.81,-42.41 537.64,-46.27"/>
</g>
</g>
</svg>
