<?xml version="1.0" encoding="UTF-8" standalone="no"?>
<!DOCTYPE svg PUBLIC "-//W3C//DTD SVG 1.1//EN"
 "http://www.w3.org/Graphics/SVG/1.1/DTD/svg11.dtd">
<!-- Generated by graphviz version 6.0.1 (0)
 -->
<!-- Title: Tree Pages: 1 -->
<svg width="240pt" height="135pt"
 viewBox="0.00 0.00 239.50 135.00" xmlns="http://www.w3.org/2000/svg" xmlns:xlink="http://www.w3.org/1999/xlink">
<g id="graph0" class="graph" transform="scale(1 1) rotate(0) translate(4 131)">
<title>Tree</title>
<polygon fill="white" stroke="none" points="-4,4 -4,-131 235.5,-131 235.5,4 -4,4"/>
<!-- 0 -->
<g id="node1" class="node">
<title>0</title>
<polygon fill="none" stroke="black" points="172,-127 55,-127 55,-74 172,-74 172,-127"/>
<text text-anchor="middle" x="113.5" y="-111.8" font-family="Helvetica,sans-Serif" font-size="14.00">lab3 &lt;= 83.5</text>
<text text-anchor="middle" x="113.5" y="-96.8" font-family="Helvetica,sans-Serif" font-size="14.00">counts = [10, 11]</text>
<text text-anchor="middle" x="113.5" y="-81.8" font-family="Helvetica,sans-Serif" font-size="14.00">class = not A+</text>
</g>
<!-- 1 -->
<g id="node2" class="node">
<title>1</title>
<polygon fill="none" stroke="black" points="103,-38 0,-38 0,0 103,0 103,-38"/>
<text text-anchor="middle" x="51.5" y="-22.8" font-family="Helvetica,sans-Serif" font-size="14.00">counts = [0, 6]</text>
<text text-anchor="middle" x="51.5" y="-7.8" font-family="Helvetica,sans-Serif" font-size="14.00">class = not A+</text>
</g>
<!-- 0&#45;&gt;1 -->
<g id="edge1" class="edge">
<title>0&#45;&gt;1</title>
<path fill="none" stroke="black" d="M93.54,-73.91C86.67,-65.1 78.97,-55.23 72.06,-46.36"/>
<polygon fill="black" stroke="black" points="74.63,-43.97 65.72,-38.24 69.11,-48.28 74.63,-43.97"/>
<text text-anchor="middle" x="62.66" y="-59.35" font-family="Helvetica,sans-Serif" font-size="14.00">True</text>
</g>
<!-- 2 -->
<g id="node3" class="node">
<title>2</title>
<polygon fill="none" stroke="black" points="231.5,-38 121.5,-38 121.5,0 231.5,0 231.5,-38"/>
<text text-anchor="middle" x="176.5" y="-22.8" font-family="Helvetica,sans-Serif" font-size="14.00">counts = [10, 5]</text>
<text text-anchor="middle" x="176.5" y="-7.8" font-family="Helvetica,sans-Serif" font-size="14.00">class = A+</text>
</g>
<!-- 0&#45;&gt;2 -->
<g id="edge2" class="edge">
<title>0&#45;&gt;2</title>
<path fill="none" stroke="black" d="M133.78,-73.91C140.83,-65.01 148.74,-55.03 155.83,-46.09"/>
<polygon fill="black" stroke="black" points="158.58,-48.25 162.05,-38.24 153.09,-43.9 158.58,-48.25"/>
<text text-anchor="middle" x="164.92" y="-59.37" font-family="Helvetica,sans-Serif" font-size="14.00">False</text>
</g>
</g>
</svg>
