<?xml version="1.0" encoding="UTF-8" standalone="no"?>
<!DOCTYPE svg PUBLIC "-//W3C//DTD SVG 1.1//EN"
 "http://www.w3.org/Graphics/SVG/1.1/DTD/svg11.dtd">
<!-- Generated by graphviz version 2.48.0 (0)
 -->
<!-- Title: Tree Pages: 1 -->
<svg width="653pt" height="562pt"
 viewBox="0.00 0.00 653.00 562.00" xmlns="http://www.w3.org/2000/svg" xmlns:xlink="http://www.w3.org/1999/xlink">
<g id="graph0" class="graph" transform="scale(1 1) rotate(0) translate(4 558)">
<title>Tree</title>
<polygon fill="white" stroke="transparent" points="-4,4 -4,-558 649,-558 649,4 -4,4"/>
<!-- 0 -->
<g id="node1" class="node">
<title>0</title>
<polygon fill="none" stroke="black" points="253.5,-554 156.5,-554 156.5,-516 253.5,-516 253.5,-554"/>
<text text-anchor="middle" x="205" y="-538.8" font-family="Times,serif" font-size="14.00">lab3 &lt;= 0.5</text>
<text text-anchor="middle" x="205" y="-523.8" font-family="Times,serif" font-size="14.00">class = not A+</text>
</g>
<!-- 1 -->
<g id="node2" class="node">
<title>1</title>
<polygon fill="none" stroke="black" points="200.5,-480 103.5,-480 103.5,-442 200.5,-442 200.5,-480"/>
<text text-anchor="middle" x="152" y="-464.8" font-family="Times,serif" font-size="14.00">quiz1 &lt;= 0.5</text>
<text text-anchor="middle" x="152" y="-449.8" font-family="Times,serif" font-size="14.00">class = not A+</text>
</g>
<!-- 0&#45;&gt;1 -->
<g id="edge1" class="edge">
<title>0&#45;&gt;1</title>
<path fill="none" stroke="black" d="M191.63,-515.83C185.58,-507.62 178.32,-497.76 171.68,-488.73"/>
<polygon fill="black" stroke="black" points="174.3,-486.39 165.55,-480.41 168.66,-490.54 174.3,-486.39"/>
<text text-anchor="middle" x="161.8" y="-501.43" font-family="Times,serif" font-size="14.00">True</text>
</g>
<!-- 8 -->
<g id="node9" class="node">
<title>8</title>
<polygon fill="none" stroke="black" points="299.5,-480 218.5,-480 218.5,-442 299.5,-442 299.5,-480"/>
<text text-anchor="middle" x="259" y="-464.8" font-family="Times,serif" font-size="14.00">lab2 &lt;= 0.5</text>
<text text-anchor="middle" x="259" y="-449.8" font-family="Times,serif" font-size="14.00">class = A+</text>
</g>
<!-- 0&#45;&gt;8 -->
<g id="edge8" class="edge">
<title>0&#45;&gt;8</title>
<path fill="none" stroke="black" d="M218.63,-515.83C224.85,-507.54 232.33,-497.56 239.16,-488.45"/>
<polygon fill="black" stroke="black" points="241.99,-490.51 245.19,-480.41 236.39,-486.31 241.99,-490.51"/>
<text text-anchor="middle" x="248.73" y="-501.46" font-family="Times,serif" font-size="14.00">False</text>
</g>
<!-- 2 -->
<g id="node3" class="node">
<title>2</title>
<polygon fill="none" stroke="black" points="98.5,-405 1.5,-405 1.5,-369 98.5,-369 98.5,-405"/>
<text text-anchor="middle" x="50" y="-383.3" font-family="Times,serif" font-size="14.00">class = not A+</text>
</g>
<!-- 1&#45;&gt;2 -->
<g id="edge2" class="edge">
<title>1&#45;&gt;2</title>
<path fill="none" stroke="black" d="M126.26,-441.83C113.07,-432.52 96.85,-421.07 82.77,-411.13"/>
<polygon fill="black" stroke="black" points="84.51,-408.08 74.33,-405.17 80.48,-413.8 84.51,-408.08"/>
</g>
<!-- 3 -->
<g id="node4" class="node">
<title>3</title>
<polygon fill="none" stroke="black" points="197.5,-406 116.5,-406 116.5,-368 197.5,-368 197.5,-406"/>
<text text-anchor="middle" x="157" y="-390.8" font-family="Times,serif" font-size="14.00">lab1 &lt;= 0.5</text>
<text text-anchor="middle" x="157" y="-375.8" font-family="Times,serif" font-size="14.00">class = A+</text>
</g>
<!-- 1&#45;&gt;3 -->
<g id="edge3" class="edge">
<title>1&#45;&gt;3</title>
<path fill="none" stroke="black" d="M153.26,-441.83C153.8,-434.13 154.43,-424.97 155.03,-416.42"/>
<polygon fill="black" stroke="black" points="158.52,-416.63 155.72,-406.41 151.54,-416.15 158.52,-416.63"/>
</g>
<!-- 4 -->
<g id="node5" class="node">
<title>4</title>
<polygon fill="none" stroke="black" points="76,-331 0,-331 0,-295 76,-295 76,-331"/>
<text text-anchor="middle" x="38" y="-309.3" font-family="Times,serif" font-size="14.00">class = A+</text>
</g>
<!-- 3&#45;&gt;4 -->
<g id="edge4" class="edge">
<title>3&#45;&gt;4</title>
<path fill="none" stroke="black" d="M126.97,-367.83C111.29,-358.34 91.94,-346.64 75.31,-336.57"/>
<polygon fill="black" stroke="black" points="76.75,-333.35 66.38,-331.17 73.12,-339.34 76.75,-333.35"/>
</g>
<!-- 5 -->
<g id="node6" class="node">
<title>5</title>
<polygon fill="none" stroke="black" points="245.5,-332 94.5,-332 94.5,-294 245.5,-294 245.5,-332"/>
<text text-anchor="middle" x="170" y="-316.8" font-family="Times,serif" font-size="14.00">class_attendance &lt;= 0.5</text>
<text text-anchor="middle" x="170" y="-301.8" font-family="Times,serif" font-size="14.00">class = not A+</text>
</g>
<!-- 3&#45;&gt;5 -->
<g id="edge5" class="edge">
<title>3&#45;&gt;5</title>
<path fill="none" stroke="black" d="M160.28,-367.83C161.67,-360.13 163.32,-350.97 164.87,-342.42"/>
<polygon fill="black" stroke="black" points="168.34,-342.88 166.68,-332.41 161.45,-341.63 168.34,-342.88"/>
</g>
<!-- 6 -->
<g id="node7" class="node">
<title>6</title>
<polygon fill="none" stroke="black" points="141.5,-257 44.5,-257 44.5,-221 141.5,-221 141.5,-257"/>
<text text-anchor="middle" x="93" y="-235.3" font-family="Times,serif" font-size="14.00">class = not A+</text>
</g>
<!-- 5&#45;&gt;6 -->
<g id="edge6" class="edge">
<title>5&#45;&gt;6</title>
<path fill="none" stroke="black" d="M150.57,-293.83C140.98,-284.87 129.29,-273.93 118.95,-264.26"/>
<polygon fill="black" stroke="black" points="121.06,-261.44 111.36,-257.17 116.28,-266.56 121.06,-261.44"/>
</g>
<!-- 7 -->
<g id="node8" class="node">
<title>7</title>
<polygon fill="none" stroke="black" points="236,-257 160,-257 160,-221 236,-221 236,-257"/>
<text text-anchor="middle" x="198" y="-235.3" font-family="Times,serif" font-size="14.00">class = A+</text>
</g>
<!-- 5&#45;&gt;7 -->
<g id="edge7" class="edge">
<title>5&#45;&gt;7</title>
<path fill="none" stroke="black" d="M177.07,-293.83C180.25,-285.63 184.08,-275.78 187.59,-266.76"/>
<polygon fill="black" stroke="black" points="190.86,-268.01 191.23,-257.42 184.34,-265.47 190.86,-268.01"/>
</g>
<!-- 9 -->
<g id="node10" class="node">
<title>9</title>
<polygon fill="none" stroke="black" points="295,-405 219,-405 219,-369 295,-369 295,-405"/>
<text text-anchor="middle" x="257" y="-383.3" font-family="Times,serif" font-size="14.00">class = A+</text>
</g>
<!-- 8&#45;&gt;9 -->
<g id="edge9" class="edge">
<title>8&#45;&gt;9</title>
<path fill="none" stroke="black" d="M258.5,-441.83C258.27,-433.89 258.01,-424.41 257.77,-415.63"/>
<polygon fill="black" stroke="black" points="261.26,-415.32 257.48,-405.42 254.26,-415.51 261.26,-415.32"/>
</g>
<!-- 10 -->
<g id="node11" class="node">
<title>10</title>
<polygon fill="none" stroke="black" points="401,-406 313,-406 313,-368 401,-368 401,-406"/>
<text text-anchor="middle" x="357" y="-390.8" font-family="Times,serif" font-size="14.00">quiz1 &lt;= 0.5</text>
<text text-anchor="middle" x="357" y="-375.8" font-family="Times,serif" font-size="14.00">class = A+</text>
</g>
<!-- 8&#45;&gt;10 -->
<g id="edge10" class="edge">
<title>8&#45;&gt;10</title>
<path fill="none" stroke="black" d="M283.73,-441.83C295.92,-432.88 310.78,-421.96 323.93,-412.3"/>
<polygon fill="black" stroke="black" points="326.29,-414.9 332.28,-406.16 322.15,-409.26 326.29,-414.9"/>
</g>
<!-- 11 -->
<g id="node12" class="node">
<title>11</title>
<polygon fill="none" stroke="black" points="392.5,-332 295.5,-332 295.5,-294 392.5,-294 392.5,-332"/>
<text text-anchor="middle" x="344" y="-316.8" font-family="Times,serif" font-size="14.00">lab1 &lt;= 0.5</text>
<text text-anchor="middle" x="344" y="-301.8" font-family="Times,serif" font-size="14.00">class = not A+</text>
</g>
<!-- 10&#45;&gt;11 -->
<g id="edge11" class="edge">
<title>10&#45;&gt;11</title>
<path fill="none" stroke="black" d="M353.72,-367.83C352.33,-360.13 350.68,-350.97 349.13,-342.42"/>
<polygon fill="black" stroke="black" points="352.55,-341.63 347.32,-332.41 345.66,-342.88 352.55,-341.63"/>
</g>
<!-- 20 -->
<g id="node21" class="node">
<title>20</title>
<polygon fill="none" stroke="black" points="487,-331 411,-331 411,-295 487,-295 487,-331"/>
<text text-anchor="middle" x="449" y="-309.3" font-family="Times,serif" font-size="14.00">class = A+</text>
</g>
<!-- 10&#45;&gt;20 -->
<g id="edge20" class="edge">
<title>10&#45;&gt;20</title>
<path fill="none" stroke="black" d="M380.22,-367.83C392.01,-358.6 406.47,-347.29 419.08,-337.41"/>
<polygon fill="black" stroke="black" points="421.34,-340.09 427.06,-331.17 417.03,-334.58 421.34,-340.09"/>
</g>
<!-- 12 -->
<g id="node13" class="node">
<title>12</title>
<polygon fill="none" stroke="black" points="354,-257 278,-257 278,-221 354,-221 354,-257"/>
<text text-anchor="middle" x="316" y="-235.3" font-family="Times,serif" font-size="14.00">class = A+</text>
</g>
<!-- 11&#45;&gt;12 -->
<g id="edge12" class="edge">
<title>11&#45;&gt;12</title>
<path fill="none" stroke="black" d="M336.93,-293.83C333.75,-285.63 329.92,-275.78 326.41,-266.76"/>
<polygon fill="black" stroke="black" points="329.66,-265.47 322.77,-257.42 323.14,-268.01 329.66,-265.47"/>
</g>
<!-- 13 -->
<g id="node14" class="node">
<title>13</title>
<polygon fill="none" stroke="black" points="469.5,-258 372.5,-258 372.5,-220 469.5,-220 469.5,-258"/>
<text text-anchor="middle" x="421" y="-242.8" font-family="Times,serif" font-size="14.00">lab4 &lt;= 0.5</text>
<text text-anchor="middle" x="421" y="-227.8" font-family="Times,serif" font-size="14.00">class = not A+</text>
</g>
<!-- 11&#45;&gt;13 -->
<g id="edge13" class="edge">
<title>11&#45;&gt;13</title>
<path fill="none" stroke="black" d="M363.43,-293.83C372.73,-285.13 384.02,-274.58 394.13,-265.13"/>
<polygon fill="black" stroke="black" points="396.66,-267.55 401.58,-258.16 391.88,-262.44 396.66,-267.55"/>
</g>
<!-- 14 -->
<g id="node15" class="node">
<title>14</title>
<polygon fill="none" stroke="black" points="398.5,-183 301.5,-183 301.5,-147 398.5,-147 398.5,-183"/>
<text text-anchor="middle" x="350" y="-161.3" font-family="Times,serif" font-size="14.00">class = not A+</text>
</g>
<!-- 13&#45;&gt;14 -->
<g id="edge14" class="edge">
<title>13&#45;&gt;14</title>
<path fill="none" stroke="black" d="M403.08,-219.83C394.4,-211.02 383.83,-200.31 374.42,-190.76"/>
<polygon fill="black" stroke="black" points="376.69,-188.08 367.18,-183.42 371.71,-193 376.69,-188.08"/>
</g>
<!-- 15 -->
<g id="node16" class="node">
<title>15</title>
<polygon fill="none" stroke="black" points="567.5,-184 416.5,-184 416.5,-146 567.5,-146 567.5,-184"/>
<text text-anchor="middle" x="492" y="-168.8" font-family="Times,serif" font-size="14.00">class_attendance &lt;= 0.5</text>
<text text-anchor="middle" x="492" y="-153.8" font-family="Times,serif" font-size="14.00">class = not A+</text>
</g>
<!-- 13&#45;&gt;15 -->
<g id="edge15" class="edge">
<title>13&#45;&gt;15</title>
<path fill="none" stroke="black" d="M438.92,-219.83C447.34,-211.28 457.54,-200.94 466.74,-191.62"/>
<polygon fill="black" stroke="black" points="469.31,-193.99 473.84,-184.41 464.33,-189.08 469.31,-193.99"/>
</g>
<!-- 16 -->
<g id="node17" class="node">
<title>16</title>
<polygon fill="none" stroke="black" points="472.5,-109 375.5,-109 375.5,-73 472.5,-73 472.5,-109"/>
<text text-anchor="middle" x="424" y="-87.3" font-family="Times,serif" font-size="14.00">class = not A+</text>
</g>
<!-- 15&#45;&gt;16 -->
<g id="edge16" class="edge">
<title>15&#45;&gt;16</title>
<path fill="none" stroke="black" d="M474.84,-145.83C466.52,-137.02 456.4,-126.31 447.39,-116.76"/>
<polygon fill="black" stroke="black" points="449.86,-114.28 440.45,-109.42 444.77,-119.09 449.86,-114.28"/>
</g>
<!-- 17 -->
<g id="node18" class="node">
<title>17</title>
<polygon fill="none" stroke="black" points="629.5,-110 490.5,-110 490.5,-72 629.5,-72 629.5,-110"/>
<text text-anchor="middle" x="560" y="-94.8" font-family="Times,serif" font-size="14.00">ml_experience &lt;= 0.5</text>
<text text-anchor="middle" x="560" y="-79.8" font-family="Times,serif" font-size="14.00">class = A+</text>
</g>
<!-- 15&#45;&gt;17 -->
<g id="edge17" class="edge">
<title>15&#45;&gt;17</title>
<path fill="none" stroke="black" d="M509.16,-145.83C517.15,-137.37 526.8,-127.15 535.54,-117.9"/>
<polygon fill="black" stroke="black" points="538.29,-120.09 542.61,-110.41 533.2,-115.28 538.29,-120.09"/>
</g>
<!-- 18 -->
<g id="node19" class="node">
<title>18</title>
<polygon fill="none" stroke="black" points="551,-36 475,-36 475,0 551,0 551,-36"/>
<text text-anchor="middle" x="513" y="-14.3" font-family="Times,serif" font-size="14.00">class = A+</text>
</g>
<!-- 17&#45;&gt;18 -->
<g id="edge18" class="edge">
<title>17&#45;&gt;18</title>
<path fill="none" stroke="black" d="M547.9,-71.72C542.43,-63.46 535.88,-53.56 529.93,-44.58"/>
<polygon fill="black" stroke="black" points="532.69,-42.41 524.26,-36 526.86,-46.27 532.69,-42.41"/>
</g>
<!-- 19 -->
<g id="node20" class="node">
<title>19</title>
<polygon fill="none" stroke="black" points="645,-36 569,-36 569,0 645,0 645,-36"/>
<text text-anchor="middle" x="607" y="-14.3" font-family="Times,serif" font-size="14.00">class = A+</text>
</g>
<!-- 17&#45;&gt;19 -->
<g id="edge19" class="edge">
<title>17&#45;&gt;19</title>
<path fill="none" stroke="black" d="M572.1,-71.72C577.57,-63.46 584.12,-53.56 590.07,-44.58"/>
<polygon fill="black" stroke="black" points="593.14,-46.27 595.74,-36 587.31,-42.41 593.14,-46.27"/>
</g>
</g>
</svg>
