<?xml version="1.0" encoding="UTF-8" standalone="no"?>
<!DOCTYPE svg PUBLIC "-//W3C//DTD SVG 1.1//EN"
 "http://www.w3.org/Graphics/SVG/1.1/DTD/svg11.dtd">
<!-- Generated by graphviz version 2.49.0 (0)
 -->
<!-- Title: Tree Pages: 1 -->
<svg width="665pt" height="562pt"
 viewBox="0.00 0.00 664.50 562.00" xmlns="http://www.w3.org/2000/svg" xmlns:xlink="http://www.w3.org/1999/xlink">
<g id="graph0" class="graph" transform="scale(1 1) rotate(0) translate(4 558)">
<title>Tree</title>
<polygon fill="white" stroke="transparent" points="-4,4 -4,-558 660.5,-558 660.5,4 -4,4"/>
<!-- 0 -->
<g id="node1" class="node">
<title>0</title>
<polygon fill="none" stroke="black" points="305,-554 208,-554 208,-516 305,-516 305,-554"/>
<text text-anchor="middle" x="256.5" y="-538.8" font-family="Times,serif" font-size="14.00">lab3 &lt;= 0.5</text>
<text text-anchor="middle" x="256.5" y="-523.8" font-family="Times,serif" font-size="14.00">class = not A+</text>
</g>
<!-- 1 -->
<g id="node2" class="node">
<title>1</title>
<polygon fill="none" stroke="black" points="239,-480 142,-480 142,-442 239,-442 239,-480"/>
<text text-anchor="middle" x="190.5" y="-464.8" font-family="Times,serif" font-size="14.00">quiz1 &lt;= 0.5</text>
<text text-anchor="middle" x="190.5" y="-449.8" font-family="Times,serif" font-size="14.00">class = not A+</text>
</g>
<!-- 0&#45;&gt;1 -->
<g id="edge1" class="edge">
<title>0&#45;&gt;1</title>
<path fill="none" stroke="black" d="M239.85,-515.83C232.09,-507.37 222.72,-497.15 214.24,-487.9"/>
<polygon fill="black" stroke="black" points="216.72,-485.42 207.38,-480.41 211.56,-490.15 216.72,-485.42"/>
<text text-anchor="middle" x="206.29" y="-501.69" font-family="Times,serif" font-size="14.00">True</text>
</g>
<!-- 8 -->
<g id="node9" class="node">
<title>8</title>
<polygon fill="none" stroke="black" points="363,-480 282,-480 282,-442 363,-442 363,-480"/>
<text text-anchor="middle" x="322.5" y="-464.8" font-family="Times,serif" font-size="14.00">lab2 &lt;= 0.5</text>
<text text-anchor="middle" x="322.5" y="-449.8" font-family="Times,serif" font-size="14.00">class = A+</text>
</g>
<!-- 0&#45;&gt;8 -->
<g id="edge8" class="edge">
<title>0&#45;&gt;8</title>
<path fill="none" stroke="black" d="M273.15,-515.83C280.91,-507.37 290.28,-497.15 298.76,-487.9"/>
<polygon fill="black" stroke="black" points="301.44,-490.15 305.62,-480.41 296.28,-485.42 301.44,-490.15"/>
<text text-anchor="middle" x="306.71" y="-501.69" font-family="Times,serif" font-size="14.00">False</text>
</g>
<!-- 2 -->
<g id="node3" class="node">
<title>2</title>
<polygon fill="none" stroke="black" points="97,-405 0,-405 0,-369 97,-369 97,-405"/>
<text text-anchor="middle" x="48.5" y="-383.3" font-family="Times,serif" font-size="14.00">class = not A+</text>
</g>
<!-- 1&#45;&gt;2 -->
<g id="edge2" class="edge">
<title>1&#45;&gt;2</title>
<path fill="none" stroke="black" d="M154.67,-441.83C135.43,-432.08 111.58,-419.99 91.37,-409.74"/>
<polygon fill="black" stroke="black" points="92.87,-406.57 82.37,-405.17 89.7,-412.82 92.87,-406.57"/>
</g>
<!-- 3 -->
<g id="node4" class="node">
<title>3</title>
<polygon fill="none" stroke="black" points="266,-406 115,-406 115,-368 266,-368 266,-406"/>
<text text-anchor="middle" x="190.5" y="-390.8" font-family="Times,serif" font-size="14.00">class_attendance &lt;= 0.5</text>
<text text-anchor="middle" x="190.5" y="-375.8" font-family="Times,serif" font-size="14.00">class = A+</text>
</g>
<!-- 1&#45;&gt;3 -->
<g id="edge3" class="edge">
<title>1&#45;&gt;3</title>
<path fill="none" stroke="black" d="M190.5,-441.83C190.5,-434.13 190.5,-424.97 190.5,-416.42"/>
<polygon fill="black" stroke="black" points="194,-416.41 190.5,-406.41 187,-416.41 194,-416.41"/>
</g>
<!-- 4 -->
<g id="node5" class="node">
<title>4</title>
<polygon fill="none" stroke="black" points="192,-332 95,-332 95,-294 192,-294 192,-332"/>
<text text-anchor="middle" x="143.5" y="-316.8" font-family="Times,serif" font-size="14.00">lab1 &lt;= 0.5</text>
<text text-anchor="middle" x="143.5" y="-301.8" font-family="Times,serif" font-size="14.00">class = not A+</text>
</g>
<!-- 3&#45;&gt;4 -->
<g id="edge4" class="edge">
<title>3&#45;&gt;4</title>
<path fill="none" stroke="black" d="M178.64,-367.83C173.34,-359.71 166.98,-349.96 161.13,-341.01"/>
<polygon fill="black" stroke="black" points="163.92,-338.87 155.52,-332.41 158.06,-342.7 163.92,-338.87"/>
</g>
<!-- 7 -->
<g id="node8" class="node">
<title>7</title>
<polygon fill="none" stroke="black" points="286.5,-331 210.5,-331 210.5,-295 286.5,-295 286.5,-331"/>
<text text-anchor="middle" x="248.5" y="-309.3" font-family="Times,serif" font-size="14.00">class = A+</text>
</g>
<!-- 3&#45;&gt;7 -->
<g id="edge7" class="edge">
<title>3&#45;&gt;7</title>
<path fill="none" stroke="black" d="M205.14,-367.83C212.09,-359.2 220.52,-348.73 228.09,-339.33"/>
<polygon fill="black" stroke="black" points="230.92,-341.4 234.47,-331.42 225.47,-337.01 230.92,-341.4"/>
</g>
<!-- 5 -->
<g id="node6" class="node">
<title>5</title>
<polygon fill="none" stroke="black" points="129.5,-257 53.5,-257 53.5,-221 129.5,-221 129.5,-257"/>
<text text-anchor="middle" x="91.5" y="-235.3" font-family="Times,serif" font-size="14.00">class = A+</text>
</g>
<!-- 4&#45;&gt;5 -->
<g id="edge5" class="edge">
<title>4&#45;&gt;5</title>
<path fill="none" stroke="black" d="M130.38,-293.83C124.2,-285.28 116.74,-274.94 110,-265.62"/>
<polygon fill="black" stroke="black" points="112.77,-263.48 104.08,-257.42 107.1,-267.57 112.77,-263.48"/>
</g>
<!-- 6 -->
<g id="node7" class="node">
<title>6</title>
<polygon fill="none" stroke="black" points="245,-257 148,-257 148,-221 245,-221 245,-257"/>
<text text-anchor="middle" x="196.5" y="-235.3" font-family="Times,serif" font-size="14.00">class = not A+</text>
</g>
<!-- 4&#45;&gt;6 -->
<g id="edge6" class="edge">
<title>4&#45;&gt;6</title>
<path fill="none" stroke="black" d="M156.87,-293.83C163.17,-285.28 170.78,-274.94 177.64,-265.62"/>
<polygon fill="black" stroke="black" points="180.57,-267.55 183.68,-257.42 174.93,-263.4 180.57,-267.55"/>
</g>
<!-- 9 -->
<g id="node10" class="node">
<title>9</title>
<polygon fill="none" stroke="black" points="360.5,-405 284.5,-405 284.5,-369 360.5,-369 360.5,-405"/>
<text text-anchor="middle" x="322.5" y="-383.3" font-family="Times,serif" font-size="14.00">class = A+</text>
</g>
<!-- 8&#45;&gt;9 -->
<g id="edge9" class="edge">
<title>8&#45;&gt;9</title>
<path fill="none" stroke="black" d="M322.5,-441.83C322.5,-433.89 322.5,-424.41 322.5,-415.63"/>
<polygon fill="black" stroke="black" points="326,-415.42 322.5,-405.42 319,-415.42 326,-415.42"/>
</g>
<!-- 10 -->
<g id="node11" class="node">
<title>10</title>
<polygon fill="none" stroke="black" points="466.5,-406 378.5,-406 378.5,-368 466.5,-368 466.5,-406"/>
<text text-anchor="middle" x="422.5" y="-390.8" font-family="Times,serif" font-size="14.00">quiz1 &lt;= 0.5</text>
<text text-anchor="middle" x="422.5" y="-375.8" font-family="Times,serif" font-size="14.00">class = A+</text>
</g>
<!-- 8&#45;&gt;10 -->
<g id="edge10" class="edge">
<title>8&#45;&gt;10</title>
<path fill="none" stroke="black" d="M347.73,-441.83C360.29,-432.79 375.63,-421.75 389.14,-412.02"/>
<polygon fill="black" stroke="black" points="391.2,-414.85 397.27,-406.16 387.11,-409.17 391.2,-414.85"/>
</g>
<!-- 11 -->
<g id="node12" class="node">
<title>11</title>
<polygon fill="none" stroke="black" points="413,-332 316,-332 316,-294 413,-294 413,-332"/>
<text text-anchor="middle" x="364.5" y="-316.8" font-family="Times,serif" font-size="14.00">lab1 &lt;= 0.5</text>
<text text-anchor="middle" x="364.5" y="-301.8" font-family="Times,serif" font-size="14.00">class = not A+</text>
</g>
<!-- 10&#45;&gt;11 -->
<g id="edge11" class="edge">
<title>10&#45;&gt;11</title>
<path fill="none" stroke="black" d="M407.86,-367.83C401.18,-359.54 393.14,-349.56 385.81,-340.45"/>
<polygon fill="black" stroke="black" points="388.33,-338.01 379.33,-332.41 382.88,-342.4 388.33,-338.01"/>
</g>
<!-- 20 -->
<g id="node21" class="node">
<title>20</title>
<polygon fill="none" stroke="black" points="507.5,-331 431.5,-331 431.5,-295 507.5,-295 507.5,-331"/>
<text text-anchor="middle" x="469.5" y="-309.3" font-family="Times,serif" font-size="14.00">class = A+</text>
</g>
<!-- 10&#45;&gt;20 -->
<g id="edge20" class="edge">
<title>10&#45;&gt;20</title>
<path fill="none" stroke="black" d="M434.36,-367.83C439.88,-359.37 446.55,-349.15 452.59,-339.9"/>
<polygon fill="black" stroke="black" points="455.59,-341.7 458.13,-331.42 449.73,-337.88 455.59,-341.7"/>
</g>
<!-- 12 -->
<g id="node13" class="node">
<title>12</title>
<polygon fill="none" stroke="black" points="365.5,-257 289.5,-257 289.5,-221 365.5,-221 365.5,-257"/>
<text text-anchor="middle" x="327.5" y="-235.3" font-family="Times,serif" font-size="14.00">class = A+</text>
</g>
<!-- 11&#45;&gt;12 -->
<g id="edge12" class="edge">
<title>11&#45;&gt;12</title>
<path fill="none" stroke="black" d="M355.16,-293.83C350.91,-285.55 345.78,-275.57 341.11,-266.47"/>
<polygon fill="black" stroke="black" points="344.13,-264.71 336.45,-257.42 337.91,-267.91 344.13,-264.71"/>
</g>
<!-- 13 -->
<g id="node14" class="node">
<title>13</title>
<polygon fill="none" stroke="black" points="481,-258 384,-258 384,-220 481,-220 481,-258"/>
<text text-anchor="middle" x="432.5" y="-242.8" font-family="Times,serif" font-size="14.00">lab4 &lt;= 0.5</text>
<text text-anchor="middle" x="432.5" y="-227.8" font-family="Times,serif" font-size="14.00">class = not A+</text>
</g>
<!-- 11&#45;&gt;13 -->
<g id="edge13" class="edge">
<title>11&#45;&gt;13</title>
<path fill="none" stroke="black" d="M381.66,-293.83C389.65,-285.37 399.3,-275.15 408.04,-265.9"/>
<polygon fill="black" stroke="black" points="410.79,-268.09 415.11,-258.41 405.7,-263.28 410.79,-268.09"/>
</g>
<!-- 14 -->
<g id="node15" class="node">
<title>14</title>
<polygon fill="none" stroke="black" points="410,-183 313,-183 313,-147 410,-147 410,-183"/>
<text text-anchor="middle" x="361.5" y="-161.3" font-family="Times,serif" font-size="14.00">class = not A+</text>
</g>
<!-- 13&#45;&gt;14 -->
<g id="edge14" class="edge">
<title>13&#45;&gt;14</title>
<path fill="none" stroke="black" d="M414.58,-219.83C405.9,-211.02 395.33,-200.31 385.92,-190.76"/>
<polygon fill="black" stroke="black" points="388.19,-188.08 378.68,-183.42 383.21,-193 388.19,-188.08"/>
</g>
<!-- 15 -->
<g id="node16" class="node">
<title>15</title>
<polygon fill="none" stroke="black" points="579,-184 428,-184 428,-146 579,-146 579,-184"/>
<text text-anchor="middle" x="503.5" y="-168.8" font-family="Times,serif" font-size="14.00">class_attendance &lt;= 0.5</text>
<text text-anchor="middle" x="503.5" y="-153.8" font-family="Times,serif" font-size="14.00">class = not A+</text>
</g>
<!-- 13&#45;&gt;15 -->
<g id="edge15" class="edge">
<title>13&#45;&gt;15</title>
<path fill="none" stroke="black" d="M450.42,-219.83C458.84,-211.28 469.04,-200.94 478.24,-191.62"/>
<polygon fill="black" stroke="black" points="480.81,-193.99 485.34,-184.41 475.83,-189.08 480.81,-193.99"/>
</g>
<!-- 16 -->
<g id="node17" class="node">
<title>16</title>
<polygon fill="none" stroke="black" points="484,-109 387,-109 387,-73 484,-73 484,-109"/>
<text text-anchor="middle" x="435.5" y="-87.3" font-family="Times,serif" font-size="14.00">class = not A+</text>
</g>
<!-- 15&#45;&gt;16 -->
<g id="edge16" class="edge">
<title>15&#45;&gt;16</title>
<path fill="none" stroke="black" d="M486.34,-145.83C478.02,-137.02 467.9,-126.31 458.89,-116.76"/>
<polygon fill="black" stroke="black" points="461.36,-114.28 451.95,-109.42 456.27,-119.09 461.36,-114.28"/>
</g>
<!-- 17 -->
<g id="node18" class="node">
<title>17</title>
<polygon fill="none" stroke="black" points="641,-110 502,-110 502,-72 641,-72 641,-110"/>
<text text-anchor="middle" x="571.5" y="-94.8" font-family="Times,serif" font-size="14.00">ml_experience &lt;= 0.5</text>
<text text-anchor="middle" x="571.5" y="-79.8" font-family="Times,serif" font-size="14.00">class = A+</text>
</g>
<!-- 15&#45;&gt;17 -->
<g id="edge17" class="edge">
<title>15&#45;&gt;17</title>
<path fill="none" stroke="black" d="M520.66,-145.83C528.65,-137.37 538.3,-127.15 547.04,-117.9"/>
<polygon fill="black" stroke="black" points="549.79,-120.09 554.11,-110.41 544.7,-115.28 549.79,-120.09"/>
</g>
<!-- 18 -->
<g id="node19" class="node">
<title>18</title>
<polygon fill="none" stroke="black" points="562.5,-36 486.5,-36 486.5,0 562.5,0 562.5,-36"/>
<text text-anchor="middle" x="524.5" y="-14.3" font-family="Times,serif" font-size="14.00">class = A+</text>
</g>
<!-- 17&#45;&gt;18 -->
<g id="edge18" class="edge">
<title>17&#45;&gt;18</title>
<path fill="none" stroke="black" d="M559.4,-71.72C553.93,-63.46 547.38,-53.56 541.43,-44.58"/>
<polygon fill="black" stroke="black" points="544.19,-42.41 535.76,-36 538.36,-46.27 544.19,-42.41"/>
</g>
<!-- 19 -->
<g id="node20" class="node">
<title>19</title>
<polygon fill="none" stroke="black" points="656.5,-36 580.5,-36 580.5,0 656.5,0 656.5,-36"/>
<text text-anchor="middle" x="618.5" y="-14.3" font-family="Times,serif" font-size="14.00">class = A+</text>
</g>
<!-- 17&#45;&gt;19 -->
<g id="edge19" class="edge">
<title>17&#45;&gt;19</title>
<path fill="none" stroke="black" d="M583.6,-71.72C589.07,-63.46 595.62,-53.56 601.57,-44.58"/>
<polygon fill="black" stroke="black" points="604.64,-46.27 607.24,-36 598.81,-42.41 604.64,-46.27"/>
</g>
</g>
</svg>
