<?xml version="1.0" encoding="UTF-8" standalone="no"?>
<!DOCTYPE svg PUBLIC "-//W3C//DTD SVG 1.1//EN"
 "http://www.w3.org/Graphics/SVG/1.1/DTD/svg11.dtd">
<!-- Generated by graphviz version 5.0.1 (0)
 -->
<!-- Title: Tree Pages: 1 -->
<svg width="546pt" height="414pt"
 viewBox="0.00 0.00 545.50 414.00" xmlns="http://www.w3.org/2000/svg" xmlns:xlink="http://www.w3.org/1999/xlink">
<g id="graph0" class="graph" transform="scale(1 1) rotate(0) translate(4 410)">
<title>Tree</title>
<polygon fill="white" stroke="none" points="-4,4 -4,-410 541.5,-410 541.5,4 -4,4"/>
<!-- 0 -->
<g id="node1" class="node">
<title>0</title>
<polygon fill="none" stroke="black" points="209,-406 106,-406 106,-368 209,-368 209,-406"/>
<text text-anchor="middle" x="157.5" y="-390.8" font-family="Helvetica,sans-Serif" font-size="14.00">lab3 &lt;= 83.5</text>
<text text-anchor="middle" x="157.5" y="-375.8" font-family="Helvetica,sans-Serif" font-size="14.00">class = not A+</text>
</g>
<!-- 1 -->
<g id="node2" class="node">
<title>1</title>
<polygon fill="none" stroke="black" points="150,-331 47,-331 47,-295 150,-295 150,-331"/>
<text text-anchor="middle" x="98.5" y="-309.3" font-family="Helvetica,sans-Serif" font-size="14.00">class = not A+</text>
</g>
<!-- 0&#45;&gt;1 -->
<g id="edge1" class="edge">
<title>0&#45;&gt;1</title>
<path fill="none" stroke="black" d="M142.61,-367.83C135.54,-359.2 126.96,-348.73 119.26,-339.33"/>
<polygon fill="black" stroke="black" points="121.82,-336.93 112.77,-331.42 116.4,-341.37 121.82,-336.93"/>
<text text-anchor="middle" x="110.3" y="-352.6" font-family="Helvetica,sans-Serif" font-size="14.00">True</text>
</g>
<!-- 2 -->
<g id="node3" class="node">
<title>2</title>
<polygon fill="none" stroke="black" points="267,-332 168,-332 168,-294 267,-294 267,-332"/>
<text text-anchor="middle" x="217.5" y="-316.8" font-family="Helvetica,sans-Serif" font-size="14.00">quiz1 &lt;= 83.5</text>
<text text-anchor="middle" x="217.5" y="-301.8" font-family="Helvetica,sans-Serif" font-size="14.00">class = A+</text>
</g>
<!-- 0&#45;&gt;2 -->
<g id="edge2" class="edge">
<title>0&#45;&gt;2</title>
<path fill="none" stroke="black" d="M172.64,-367.83C179.62,-359.45 188.04,-349.35 195.69,-340.17"/>
<polygon fill="black" stroke="black" points="198.44,-342.34 202.16,-332.41 193.06,-337.85 198.44,-342.34"/>
<text text-anchor="middle" x="204.42" y="-353.61" font-family="Helvetica,sans-Serif" font-size="14.00">False</text>
</g>
<!-- 3 -->
<g id="node4" class="node">
<title>3</title>
<polygon fill="none" stroke="black" points="211,-258 108,-258 108,-220 211,-220 211,-258"/>
<text text-anchor="middle" x="159.5" y="-242.8" font-family="Helvetica,sans-Serif" font-size="14.00">lab1 &lt;= 97.5</text>
<text text-anchor="middle" x="159.5" y="-227.8" font-family="Helvetica,sans-Serif" font-size="14.00">class = not A+</text>
</g>
<!-- 2&#45;&gt;3 -->
<g id="edge3" class="edge">
<title>2&#45;&gt;3</title>
<path fill="none" stroke="black" d="M202.86,-293.83C196.18,-285.54 188.14,-275.56 180.81,-266.45"/>
<polygon fill="black" stroke="black" points="183.33,-264.01 174.33,-258.41 177.88,-268.4 183.33,-264.01"/>
</g>
<!-- 6 -->
<g id="node7" class="node">
<title>6</title>
<polygon fill="none" stroke="black" points="321.5,-258 229.5,-258 229.5,-220 321.5,-220 321.5,-258"/>
<text text-anchor="middle" x="275.5" y="-242.8" font-family="Helvetica,sans-Serif" font-size="14.00">lab4 &lt;= 83.5</text>
<text text-anchor="middle" x="275.5" y="-227.8" font-family="Helvetica,sans-Serif" font-size="14.00">class = A+</text>
</g>
<!-- 2&#45;&gt;6 -->
<g id="edge6" class="edge">
<title>2&#45;&gt;6</title>
<path fill="none" stroke="black" d="M232.14,-293.83C238.82,-285.54 246.86,-275.56 254.19,-266.45"/>
<polygon fill="black" stroke="black" points="257.12,-268.4 260.67,-258.41 251.67,-264.01 257.12,-268.4"/>
</g>
<!-- 4 -->
<g id="node5" class="node">
<title>4</title>
<polygon fill="none" stroke="black" points="103,-183 0,-183 0,-147 103,-147 103,-183"/>
<text text-anchor="middle" x="51.5" y="-161.3" font-family="Helvetica,sans-Serif" font-size="14.00">class = not A+</text>
</g>
<!-- 3&#45;&gt;4 -->
<g id="edge4" class="edge">
<title>3&#45;&gt;4</title>
<path fill="none" stroke="black" d="M132.25,-219.83C118.14,-210.43 100.78,-198.86 85.78,-188.85"/>
<polygon fill="black" stroke="black" points="87.52,-185.81 77.26,-183.17 83.64,-191.63 87.52,-185.81"/>
</g>
<!-- 5 -->
<g id="node6" class="node">
<title>5</title>
<polygon fill="none" stroke="black" points="201.5,-183 121.5,-183 121.5,-147 201.5,-147 201.5,-183"/>
<text text-anchor="middle" x="161.5" y="-161.3" font-family="Helvetica,sans-Serif" font-size="14.00">class = A+</text>
</g>
<!-- 3&#45;&gt;5 -->
<g id="edge5" class="edge">
<title>3&#45;&gt;5</title>
<path fill="none" stroke="black" d="M160,-219.83C160.23,-211.89 160.49,-202.41 160.73,-193.63"/>
<polygon fill="black" stroke="black" points="164.24,-193.51 161.02,-183.42 157.24,-193.32 164.24,-193.51"/>
</g>
<!-- 7 -->
<g id="node8" class="node">
<title>7</title>
<polygon fill="none" stroke="black" points="326,-183 223,-183 223,-147 326,-147 326,-183"/>
<text text-anchor="middle" x="274.5" y="-161.3" font-family="Helvetica,sans-Serif" font-size="14.00">class = not A+</text>
</g>
<!-- 6&#45;&gt;7 -->
<g id="edge7" class="edge">
<title>6&#45;&gt;7</title>
<path fill="none" stroke="black" d="M275.25,-219.83C275.14,-211.89 275.01,-202.41 274.88,-193.63"/>
<polygon fill="black" stroke="black" points="278.38,-193.37 274.74,-183.42 271.38,-193.47 278.38,-193.37"/>
</g>
<!-- 8 -->
<g id="node9" class="node">
<title>8</title>
<polygon fill="none" stroke="black" points="436.5,-184 344.5,-184 344.5,-146 436.5,-146 436.5,-184"/>
<text text-anchor="middle" x="390.5" y="-168.8" font-family="Helvetica,sans-Serif" font-size="14.00">lab2 &lt;= 94.5</text>
<text text-anchor="middle" x="390.5" y="-153.8" font-family="Helvetica,sans-Serif" font-size="14.00">class = A+</text>
</g>
<!-- 6&#45;&gt;8 -->
<g id="edge8" class="edge">
<title>6&#45;&gt;8</title>
<path fill="none" stroke="black" d="M304.52,-219.83C319.23,-210.62 337.26,-199.33 353.01,-189.47"/>
<polygon fill="black" stroke="black" points="354.87,-192.44 361.49,-184.16 351.16,-186.5 354.87,-192.44"/>
</g>
<!-- 9 -->
<g id="node10" class="node">
<title>9</title>
<polygon fill="none" stroke="black" points="378.5,-109 298.5,-109 298.5,-73 378.5,-73 378.5,-109"/>
<text text-anchor="middle" x="338.5" y="-87.3" font-family="Helvetica,sans-Serif" font-size="14.00">class = A+</text>
</g>
<!-- 8&#45;&gt;9 -->
<g id="edge9" class="edge">
<title>8&#45;&gt;9</title>
<path fill="none" stroke="black" d="M377.38,-145.83C371.2,-137.28 363.74,-126.94 357,-117.62"/>
<polygon fill="black" stroke="black" points="359.77,-115.48 351.08,-109.42 354.1,-119.57 359.77,-115.48"/>
</g>
<!-- 10 -->
<g id="node11" class="node">
<title>10</title>
<polygon fill="none" stroke="black" points="488.5,-110 396.5,-110 396.5,-72 488.5,-72 488.5,-110"/>
<text text-anchor="middle" x="442.5" y="-94.8" font-family="Helvetica,sans-Serif" font-size="14.00">lab2 &lt;= 95.5</text>
<text text-anchor="middle" x="442.5" y="-79.8" font-family="Helvetica,sans-Serif" font-size="14.00">class = A+</text>
</g>
<!-- 8&#45;&gt;10 -->
<g id="edge10" class="edge">
<title>8&#45;&gt;10</title>
<path fill="none" stroke="black" d="M403.62,-145.83C409.55,-137.62 416.67,-127.76 423.19,-118.73"/>
<polygon fill="black" stroke="black" points="426.18,-120.57 429.2,-110.41 420.51,-116.47 426.18,-120.57"/>
</g>
<!-- 11 -->
<g id="node12" class="node">
<title>11</title>
<polygon fill="none" stroke="black" points="439,-36 336,-36 336,0 439,0 439,-36"/>
<text text-anchor="middle" x="387.5" y="-14.3" font-family="Helvetica,sans-Serif" font-size="14.00">class = not A+</text>
</g>
<!-- 10&#45;&gt;11 -->
<g id="edge11" class="edge">
<title>10&#45;&gt;11</title>
<path fill="none" stroke="black" d="M428.34,-71.72C421.81,-63.29 413.95,-53.15 406.88,-44.02"/>
<polygon fill="black" stroke="black" points="409.56,-41.77 400.67,-36 404.03,-46.05 409.56,-41.77"/>
</g>
<!-- 12 -->
<g id="node13" class="node">
<title>12</title>
<polygon fill="none" stroke="black" points="537.5,-36 457.5,-36 457.5,0 537.5,0 537.5,-36"/>
<text text-anchor="middle" x="497.5" y="-14.3" font-family="Helvetica,sans-Serif" font-size="14.00">class = A+</text>
</g>
<!-- 10&#45;&gt;12 -->
<g id="edge12" class="edge">
<title>10&#45;&gt;12</title>
<path fill="none" stroke="black" d="M456.66,-71.72C463.19,-63.29 471.05,-53.15 478.12,-44.02"/>
<polygon fill="black" stroke="black" points="480.97,-46.05 484.33,-36 475.44,-41.77 480.97,-46.05"/>
</g>
</g>
</svg>
