<?xml version="1.0" encoding="UTF-8" standalone="no"?>
<!DOCTYPE svg PUBLIC "-//W3C//DTD SVG 1.1//EN"
 "http://www.w3.org/Graphics/SVG/1.1/DTD/svg11.dtd">
<!-- Generated by graphviz version 5.0.1 (0)
 -->
<!-- Title: Tree Pages: 1 -->
<svg width="593pt" height="491pt"
 viewBox="0.00 0.00 593.00 491.00" xmlns="http://www.w3.org/2000/svg" xmlns:xlink="http://www.w3.org/1999/xlink">
<g id="graph0" class="graph" transform="scale(1 1) rotate(0) translate(4 487)">
<title>Tree</title>
<polygon fill="white" stroke="none" points="-4,4 -4,-487 589,-487 589,4 -4,4"/>
<!-- 0 -->
<g id="node1" class="node">
<title>0</title>
<polygon fill="none" stroke="black" points="227.5,-483 110.5,-483 110.5,-430 227.5,-430 227.5,-483"/>
<text text-anchor="middle" x="169" y="-467.8" font-family="Helvetica,sans-Serif" font-size="14.00">lab3 &lt;= 83.5</text>
<text text-anchor="middle" x="169" y="-452.8" font-family="Helvetica,sans-Serif" font-size="14.00">counts = [10, 11]</text>
<text text-anchor="middle" x="169" y="-437.8" font-family="Helvetica,sans-Serif" font-size="14.00">class = not A+</text>
</g>
<!-- 1 -->
<g id="node2" class="node">
<title>1</title>
<polygon fill="none" stroke="black" points="158.5,-386.5 55.5,-386.5 55.5,-348.5 158.5,-348.5 158.5,-386.5"/>
<text text-anchor="middle" x="107" y="-371.3" font-family="Helvetica,sans-Serif" font-size="14.00">counts = [0, 6]</text>
<text text-anchor="middle" x="107" y="-356.3" font-family="Helvetica,sans-Serif" font-size="14.00">class = not A+</text>
</g>
<!-- 0&#45;&gt;1 -->
<g id="edge1" class="edge">
<title>0&#45;&gt;1</title>
<path fill="none" stroke="black" d="M150.73,-429.87C142.9,-418.87 133.75,-406.03 125.85,-394.95"/>
<polygon fill="black" stroke="black" points="128.49,-392.62 119.83,-386.51 122.79,-396.68 128.49,-392.62"/>
<text text-anchor="middle" x="115.7" y="-407.46" font-family="Helvetica,sans-Serif" font-size="14.00">True</text>
</g>
<!-- 2 -->
<g id="node3" class="node">
<title>2</title>
<polygon fill="none" stroke="black" points="287,-394 177,-394 177,-341 287,-341 287,-394"/>
<text text-anchor="middle" x="232" y="-378.8" font-family="Helvetica,sans-Serif" font-size="14.00">quiz1 &lt;= 83.5</text>
<text text-anchor="middle" x="232" y="-363.8" font-family="Helvetica,sans-Serif" font-size="14.00">counts = [10, 5]</text>
<text text-anchor="middle" x="232" y="-348.8" font-family="Helvetica,sans-Serif" font-size="14.00">class = A+</text>
</g>
<!-- 0&#45;&gt;2 -->
<g id="edge2" class="edge">
<title>0&#45;&gt;2</title>
<path fill="none" stroke="black" d="M187.56,-429.87C193.79,-421.27 200.83,-411.55 207.44,-402.42"/>
<polygon fill="black" stroke="black" points="210.32,-404.4 213.35,-394.25 204.65,-400.3 210.32,-404.4"/>
<text text-anchor="middle" x="217.3" y="-415.24" font-family="Helvetica,sans-Serif" font-size="14.00">False</text>
</g>
<!-- 3 -->
<g id="node4" class="node">
<title>3</title>
<polygon fill="none" stroke="black" points="223.5,-305 120.5,-305 120.5,-252 223.5,-252 223.5,-305"/>
<text text-anchor="middle" x="172" y="-289.8" font-family="Helvetica,sans-Serif" font-size="14.00">lab2 &lt;= 88.0</text>
<text text-anchor="middle" x="172" y="-274.8" font-family="Helvetica,sans-Serif" font-size="14.00">counts = [1, 3]</text>
<text text-anchor="middle" x="172" y="-259.8" font-family="Helvetica,sans-Serif" font-size="14.00">class = not A+</text>
</g>
<!-- 2&#45;&gt;3 -->
<g id="edge3" class="edge">
<title>2&#45;&gt;3</title>
<path fill="none" stroke="black" d="M214.32,-340.87C208.45,-332.36 201.83,-322.75 195.59,-313.7"/>
<polygon fill="black" stroke="black" points="198.32,-311.49 189.76,-305.25 192.55,-315.47 198.32,-311.49"/>
</g>
<!-- 6 -->
<g id="node7" class="node">
<title>6</title>
<polygon fill="none" stroke="black" points="344,-305 242,-305 242,-252 344,-252 344,-305"/>
<text text-anchor="middle" x="293" y="-289.8" font-family="Helvetica,sans-Serif" font-size="14.00">lab4 &lt;= 83.5</text>
<text text-anchor="middle" x="293" y="-274.8" font-family="Helvetica,sans-Serif" font-size="14.00">counts = [9, 2]</text>
<text text-anchor="middle" x="293" y="-259.8" font-family="Helvetica,sans-Serif" font-size="14.00">class = A+</text>
</g>
<!-- 2&#45;&gt;6 -->
<g id="edge6" class="edge">
<title>2&#45;&gt;6</title>
<path fill="none" stroke="black" d="M249.97,-340.87C255.94,-332.36 262.68,-322.75 269.02,-313.7"/>
<polygon fill="black" stroke="black" points="272.07,-315.45 274.95,-305.25 266.34,-311.43 272.07,-315.45"/>
</g>
<!-- 4 -->
<g id="node5" class="node">
<title>4</title>
<polygon fill="none" stroke="black" points="102,-208.5 0,-208.5 0,-170.5 102,-170.5 102,-208.5"/>
<text text-anchor="middle" x="51" y="-193.3" font-family="Helvetica,sans-Serif" font-size="14.00">counts = [1, 0]</text>
<text text-anchor="middle" x="51" y="-178.3" font-family="Helvetica,sans-Serif" font-size="14.00">class = A+</text>
</g>
<!-- 3&#45;&gt;4 -->
<g id="edge4" class="edge">
<title>3&#45;&gt;4</title>
<path fill="none" stroke="black" d="M136.35,-251.87C119.85,-240 100.36,-225.99 84.17,-214.35"/>
<polygon fill="black" stroke="black" points="86.21,-211.5 76.04,-208.51 82.12,-217.19 86.21,-211.5"/>
</g>
<!-- 5 -->
<g id="node6" class="node">
<title>5</title>
<polygon fill="none" stroke="black" points="223.5,-208.5 120.5,-208.5 120.5,-170.5 223.5,-170.5 223.5,-208.5"/>
<text text-anchor="middle" x="172" y="-193.3" font-family="Helvetica,sans-Serif" font-size="14.00">counts = [0, 3]</text>
<text text-anchor="middle" x="172" y="-178.3" font-family="Helvetica,sans-Serif" font-size="14.00">class = not A+</text>
</g>
<!-- 3&#45;&gt;5 -->
<g id="edge5" class="edge">
<title>3&#45;&gt;5</title>
<path fill="none" stroke="black" d="M172,-251.87C172,-241.42 172,-229.3 172,-218.61"/>
<polygon fill="black" stroke="black" points="175.5,-218.51 172,-208.51 168.5,-218.51 175.5,-218.51"/>
</g>
<!-- 7 -->
<g id="node8" class="node">
<title>7</title>
<polygon fill="none" stroke="black" points="344.5,-208.5 241.5,-208.5 241.5,-170.5 344.5,-170.5 344.5,-208.5"/>
<text text-anchor="middle" x="293" y="-193.3" font-family="Helvetica,sans-Serif" font-size="14.00">counts = [0, 1]</text>
<text text-anchor="middle" x="293" y="-178.3" font-family="Helvetica,sans-Serif" font-size="14.00">class = not A+</text>
</g>
<!-- 6&#45;&gt;7 -->
<g id="edge7" class="edge">
<title>6&#45;&gt;7</title>
<path fill="none" stroke="black" d="M293,-251.87C293,-241.42 293,-229.3 293,-218.61"/>
<polygon fill="black" stroke="black" points="296.5,-218.51 293,-208.51 289.5,-218.51 296.5,-218.51"/>
</g>
<!-- 8 -->
<g id="node9" class="node">
<title>8</title>
<polygon fill="none" stroke="black" points="465,-216 363,-216 363,-163 465,-163 465,-216"/>
<text text-anchor="middle" x="414" y="-200.8" font-family="Helvetica,sans-Serif" font-size="14.00">lab2 &lt;= 94.5</text>
<text text-anchor="middle" x="414" y="-185.8" font-family="Helvetica,sans-Serif" font-size="14.00">counts = [9, 1]</text>
<text text-anchor="middle" x="414" y="-170.8" font-family="Helvetica,sans-Serif" font-size="14.00">class = A+</text>
</g>
<!-- 6&#45;&gt;8 -->
<g id="edge8" class="edge">
<title>6&#45;&gt;8</title>
<path fill="none" stroke="black" d="M328.65,-251.87C341.58,-242.57 356.35,-231.95 369.92,-222.2"/>
<polygon fill="black" stroke="black" points="372.11,-224.93 378.19,-216.25 368.02,-219.25 372.11,-224.93"/>
</g>
<!-- 9 -->
<g id="node10" class="node">
<title>9</title>
<polygon fill="none" stroke="black" points="405,-119.5 303,-119.5 303,-81.5 405,-81.5 405,-119.5"/>
<text text-anchor="middle" x="354" y="-104.3" font-family="Helvetica,sans-Serif" font-size="14.00">counts = [8, 0]</text>
<text text-anchor="middle" x="354" y="-89.3" font-family="Helvetica,sans-Serif" font-size="14.00">class = A+</text>
</g>
<!-- 8&#45;&gt;9 -->
<g id="edge9" class="edge">
<title>8&#45;&gt;9</title>
<path fill="none" stroke="black" d="M396.32,-162.87C388.74,-151.87 379.89,-139.03 372.24,-127.95"/>
<polygon fill="black" stroke="black" points="374.98,-125.75 366.42,-119.51 369.21,-129.73 374.98,-125.75"/>
</g>
<!-- 10 -->
<g id="node11" class="node">
<title>10</title>
<polygon fill="none" stroke="black" points="525,-127 423,-127 423,-74 525,-74 525,-127"/>
<text text-anchor="middle" x="474" y="-111.8" font-family="Helvetica,sans-Serif" font-size="14.00">lab2 &lt;= 95.5</text>
<text text-anchor="middle" x="474" y="-96.8" font-family="Helvetica,sans-Serif" font-size="14.00">counts = [1, 1]</text>
<text text-anchor="middle" x="474" y="-81.8" font-family="Helvetica,sans-Serif" font-size="14.00">class = A+</text>
</g>
<!-- 8&#45;&gt;10 -->
<g id="edge10" class="edge">
<title>8&#45;&gt;10</title>
<path fill="none" stroke="black" d="M431.68,-162.87C437.55,-154.36 444.17,-144.75 450.41,-135.7"/>
<polygon fill="black" stroke="black" points="453.45,-137.47 456.24,-127.25 447.68,-133.49 453.45,-137.47"/>
</g>
<!-- 11 -->
<g id="node12" class="node">
<title>11</title>
<polygon fill="none" stroke="black" points="464.5,-38 361.5,-38 361.5,0 464.5,0 464.5,-38"/>
<text text-anchor="middle" x="413" y="-22.8" font-family="Helvetica,sans-Serif" font-size="14.00">counts = [0, 1]</text>
<text text-anchor="middle" x="413" y="-7.8" font-family="Helvetica,sans-Serif" font-size="14.00">class = not A+</text>
</g>
<!-- 10&#45;&gt;11 -->
<g id="edge11" class="edge">
<title>10&#45;&gt;11</title>
<path fill="none" stroke="black" d="M454.36,-73.91C447.61,-65.1 440.03,-55.23 433.23,-46.36"/>
<polygon fill="black" stroke="black" points="435.86,-44.04 426.99,-38.24 430.31,-48.3 435.86,-44.04"/>
</g>
<!-- 12 -->
<g id="node13" class="node">
<title>12</title>
<polygon fill="none" stroke="black" points="585,-38 483,-38 483,0 585,0 585,-38"/>
<text text-anchor="middle" x="534" y="-22.8" font-family="Helvetica,sans-Serif" font-size="14.00">counts = [1, 0]</text>
<text text-anchor="middle" x="534" y="-7.8" font-family="Helvetica,sans-Serif" font-size="14.00">class = A+</text>
</g>
<!-- 10&#45;&gt;12 -->
<g id="edge12" class="edge">
<title>10&#45;&gt;12</title>
<path fill="none" stroke="black" d="M493.31,-73.91C499.96,-65.1 507.41,-55.23 514.1,-46.36"/>
<polygon fill="black" stroke="black" points="517,-48.33 520.23,-38.24 511.42,-44.11 517,-48.33"/>
</g>
</g>
</svg>
