<?xml version="1.0" encoding="UTF-8" standalone="no"?>
<!DOCTYPE svg PUBLIC "-//W3C//DTD SVG 1.1//EN"
 "http://www.w3.org/Graphics/SVG/1.1/DTD/svg11.dtd">
<!-- Generated by graphviz version 5.0.1 (0)
 -->
<!-- Title: Tree Pages: 1 -->
<svg width="474pt" height="313pt"
 viewBox="0.00 0.00 473.50 313.00" xmlns="http://www.w3.org/2000/svg" xmlns:xlink="http://www.w3.org/1999/xlink">
<g id="graph0" class="graph" transform="scale(1 1) rotate(0) translate(4 309)">
<title>Tree</title>
<polygon fill="white" stroke="none" points="-4,4 -4,-309 469.5,-309 469.5,4 -4,4"/>
<!-- 0 -->
<g id="node1" class="node">
<title>0</title>
<polygon fill="none" stroke="black" points="228,-305 111,-305 111,-252 228,-252 228,-305"/>
<text text-anchor="middle" x="169.5" y="-289.8" font-family="Helvetica,sans-Serif" font-size="14.00">lab3 &lt;= 83.5</text>
<text text-anchor="middle" x="169.5" y="-274.8" font-family="Helvetica,sans-Serif" font-size="14.00">counts = [10, 11]</text>
<text text-anchor="middle" x="169.5" y="-259.8" font-family="Helvetica,sans-Serif" font-size="14.00">class = not A+</text>
</g>
<!-- 1 -->
<g id="node2" class="node">
<title>1</title>
<polygon fill="none" stroke="black" points="159,-208.5 56,-208.5 56,-170.5 159,-170.5 159,-208.5"/>
<text text-anchor="middle" x="107.5" y="-193.3" font-family="Helvetica,sans-Serif" font-size="14.00">counts = [0, 6]</text>
<text text-anchor="middle" x="107.5" y="-178.3" font-family="Helvetica,sans-Serif" font-size="14.00">class = not A+</text>
</g>
<!-- 0&#45;&gt;1 -->
<g id="edge1" class="edge">
<title>0&#45;&gt;1</title>
<path fill="none" stroke="black" d="M151.23,-251.87C143.4,-240.87 134.25,-228.03 126.35,-216.95"/>
<polygon fill="black" stroke="black" points="128.99,-214.62 120.33,-208.51 123.29,-218.68 128.99,-214.62"/>
<text text-anchor="middle" x="116.2" y="-229.46" font-family="Helvetica,sans-Serif" font-size="14.00">True</text>
</g>
<!-- 2 -->
<g id="node3" class="node">
<title>2</title>
<polygon fill="none" stroke="black" points="287.5,-216 177.5,-216 177.5,-163 287.5,-163 287.5,-216"/>
<text text-anchor="middle" x="232.5" y="-200.8" font-family="Helvetica,sans-Serif" font-size="14.00">quiz1 &lt;= 83.5</text>
<text text-anchor="middle" x="232.5" y="-185.8" font-family="Helvetica,sans-Serif" font-size="14.00">counts = [10, 5]</text>
<text text-anchor="middle" x="232.5" y="-170.8" font-family="Helvetica,sans-Serif" font-size="14.00">class = A+</text>
</g>
<!-- 0&#45;&gt;2 -->
<g id="edge2" class="edge">
<title>0&#45;&gt;2</title>
<path fill="none" stroke="black" d="M188.06,-251.87C194.29,-243.27 201.33,-233.55 207.94,-224.42"/>
<polygon fill="black" stroke="black" points="210.82,-226.4 213.85,-216.25 205.15,-222.3 210.82,-226.4"/>
<text text-anchor="middle" x="217.8" y="-237.24" font-family="Helvetica,sans-Serif" font-size="14.00">False</text>
</g>
<!-- 3 -->
<g id="node4" class="node">
<title>3</title>
<polygon fill="none" stroke="black" points="224,-127 121,-127 121,-74 224,-74 224,-127"/>
<text text-anchor="middle" x="172.5" y="-111.8" font-family="Helvetica,sans-Serif" font-size="14.00">lab3 &lt;= 94.5</text>
<text text-anchor="middle" x="172.5" y="-96.8" font-family="Helvetica,sans-Serif" font-size="14.00">counts = [1, 3]</text>
<text text-anchor="middle" x="172.5" y="-81.8" font-family="Helvetica,sans-Serif" font-size="14.00">class = not A+</text>
</g>
<!-- 2&#45;&gt;3 -->
<g id="edge3" class="edge">
<title>2&#45;&gt;3</title>
<path fill="none" stroke="black" d="M214.82,-162.87C208.95,-154.36 202.33,-144.75 196.09,-135.7"/>
<polygon fill="black" stroke="black" points="198.82,-133.49 190.26,-127.25 193.05,-137.47 198.82,-133.49"/>
</g>
<!-- 6 -->
<g id="node7" class="node">
<title>6</title>
<polygon fill="none" stroke="black" points="344.5,-127 242.5,-127 242.5,-74 344.5,-74 344.5,-127"/>
<text text-anchor="middle" x="293.5" y="-111.8" font-family="Helvetica,sans-Serif" font-size="14.00">lab4 &lt;= 83.5</text>
<text text-anchor="middle" x="293.5" y="-96.8" font-family="Helvetica,sans-Serif" font-size="14.00">counts = [9, 2]</text>
<text text-anchor="middle" x="293.5" y="-81.8" font-family="Helvetica,sans-Serif" font-size="14.00">class = A+</text>
</g>
<!-- 2&#45;&gt;6 -->
<g id="edge6" class="edge">
<title>2&#45;&gt;6</title>
<path fill="none" stroke="black" d="M250.47,-162.87C256.44,-154.36 263.18,-144.75 269.52,-135.7"/>
<polygon fill="black" stroke="black" points="272.57,-137.45 275.45,-127.25 266.84,-133.43 272.57,-137.45"/>
</g>
<!-- 4 -->
<g id="node5" class="node">
<title>4</title>
<polygon fill="none" stroke="black" points="103,-38 0,-38 0,0 103,0 103,-38"/>
<text text-anchor="middle" x="51.5" y="-22.8" font-family="Helvetica,sans-Serif" font-size="14.00">counts = [0, 3]</text>
<text text-anchor="middle" x="51.5" y="-7.8" font-family="Helvetica,sans-Serif" font-size="14.00">class = not A+</text>
</g>
<!-- 3&#45;&gt;4 -->
<g id="edge4" class="edge">
<title>3&#45;&gt;4</title>
<path fill="none" stroke="black" d="M133.55,-73.91C118.9,-64.29 102.32,-53.39 87.91,-43.92"/>
<polygon fill="black" stroke="black" points="89.54,-40.8 79.26,-38.24 85.7,-46.66 89.54,-40.8"/>
</g>
<!-- 5 -->
<g id="node6" class="node">
<title>5</title>
<polygon fill="none" stroke="black" points="223.5,-38 121.5,-38 121.5,0 223.5,0 223.5,-38"/>
<text text-anchor="middle" x="172.5" y="-22.8" font-family="Helvetica,sans-Serif" font-size="14.00">counts = [1, 0]</text>
<text text-anchor="middle" x="172.5" y="-7.8" font-family="Helvetica,sans-Serif" font-size="14.00">class = A+</text>
</g>
<!-- 3&#45;&gt;5 -->
<g id="edge5" class="edge">
<title>3&#45;&gt;5</title>
<path fill="none" stroke="black" d="M172.5,-73.91C172.5,-65.74 172.5,-56.65 172.5,-48.3"/>
<polygon fill="black" stroke="black" points="176,-48.24 172.5,-38.24 169,-48.24 176,-48.24"/>
</g>
<!-- 7 -->
<g id="node8" class="node">
<title>7</title>
<polygon fill="none" stroke="black" points="345,-38 242,-38 242,0 345,0 345,-38"/>
<text text-anchor="middle" x="293.5" y="-22.8" font-family="Helvetica,sans-Serif" font-size="14.00">counts = [0, 1]</text>
<text text-anchor="middle" x="293.5" y="-7.8" font-family="Helvetica,sans-Serif" font-size="14.00">class = not A+</text>
</g>
<!-- 6&#45;&gt;7 -->
<g id="edge7" class="edge">
<title>6&#45;&gt;7</title>
<path fill="none" stroke="black" d="M293.5,-73.91C293.5,-65.74 293.5,-56.65 293.5,-48.3"/>
<polygon fill="black" stroke="black" points="297,-48.24 293.5,-38.24 290,-48.24 297,-48.24"/>
</g>
<!-- 8 -->
<g id="node9" class="node">
<title>8</title>
<polygon fill="none" stroke="black" points="465.5,-38 363.5,-38 363.5,0 465.5,0 465.5,-38"/>
<text text-anchor="middle" x="414.5" y="-22.8" font-family="Helvetica,sans-Serif" font-size="14.00">counts = [9, 1]</text>
<text text-anchor="middle" x="414.5" y="-7.8" font-family="Helvetica,sans-Serif" font-size="14.00">class = A+</text>
</g>
<!-- 6&#45;&gt;8 -->
<g id="edge8" class="edge">
<title>6&#45;&gt;8</title>
<path fill="none" stroke="black" d="M332.45,-73.91C347.1,-64.29 363.68,-53.39 378.09,-43.92"/>
<polygon fill="black" stroke="black" points="380.3,-46.66 386.74,-38.24 376.46,-40.8 380.3,-46.66"/>
</g>
</g>
</svg>
