<?xml version="1.0" encoding="UTF-8" standalone="no"?>
<!DOCTYPE svg PUBLIC "-//W3C//DTD SVG 1.1//EN"
 "http://www.w3.org/Graphics/SVG/1.1/DTD/svg11.dtd">
<!-- Generated by graphviz version 5.0.1 (0)
 -->
<!-- Title: Tree Pages: 1 -->
<svg width="564pt" height="414pt"
 viewBox="0.00 0.00 563.50 414.00" xmlns="http://www.w3.org/2000/svg" xmlns:xlink="http://www.w3.org/1999/xlink">
<g id="graph0" class="graph" transform="scale(1 1) rotate(0) translate(4 410)">
<title>Tree</title>
<polygon fill="white" stroke="none" points="-4,4 -4,-410 559.5,-410 559.5,4 -4,4"/>
<!-- 0 -->
<g id="node1" class="node">
<title>0</title>
<polygon fill="none" stroke="black" points="340,-406 237,-406 237,-368 340,-368 340,-406"/>
<text text-anchor="middle" x="288.5" y="-390.8" font-family="Helvetica,sans-Serif" font-size="14.00">lab4 &lt;= 0.5</text>
<text text-anchor="middle" x="288.5" y="-375.8" font-family="Helvetica,sans-Serif" font-size="14.00">class = not A+</text>
</g>
<!-- 1 -->
<g id="node2" class="node">
<title>1</title>
<polygon fill="none" stroke="black" points="279.5,-332 115.5,-332 115.5,-294 279.5,-294 279.5,-332"/>
<text text-anchor="middle" x="197.5" y="-316.8" font-family="Helvetica,sans-Serif" font-size="14.00">class_attendance &lt;= 0.5</text>
<text text-anchor="middle" x="197.5" y="-301.8" font-family="Helvetica,sans-Serif" font-size="14.00">class = not A+</text>
</g>
<!-- 0&#45;&gt;1 -->
<g id="edge1" class="edge">
<title>0&#45;&gt;1</title>
<path fill="none" stroke="black" d="M265.54,-367.83C254.33,-358.96 240.68,-348.16 228.56,-338.57"/>
<polygon fill="black" stroke="black" points="230.47,-335.62 220.46,-332.16 226.13,-341.11 230.47,-335.62"/>
<text text-anchor="middle" x="223.35" y="-353.29" font-family="Helvetica,sans-Serif" font-size="14.00">True</text>
</g>
<!-- 10 -->
<g id="node11" class="node">
<title>10</title>
<polygon fill="none" stroke="black" points="461.5,-332 297.5,-332 297.5,-294 461.5,-294 461.5,-332"/>
<text text-anchor="middle" x="379.5" y="-316.8" font-family="Helvetica,sans-Serif" font-size="14.00">class_attendance &lt;= 0.5</text>
<text text-anchor="middle" x="379.5" y="-301.8" font-family="Helvetica,sans-Serif" font-size="14.00">class = A+</text>
</g>
<!-- 0&#45;&gt;10 -->
<g id="edge10" class="edge">
<title>0&#45;&gt;10</title>
<path fill="none" stroke="black" d="M311.46,-367.83C322.67,-358.96 336.32,-348.16 348.44,-338.57"/>
<polygon fill="black" stroke="black" points="350.87,-341.11 356.54,-332.16 346.53,-335.62 350.87,-341.11"/>
<text text-anchor="middle" x="353.65" y="-353.29" font-family="Helvetica,sans-Serif" font-size="14.00">False</text>
</g>
<!-- 2 -->
<g id="node3" class="node">
<title>2</title>
<polygon fill="none" stroke="black" points="149,-258 46,-258 46,-220 149,-220 149,-258"/>
<text text-anchor="middle" x="97.5" y="-242.8" font-family="Helvetica,sans-Serif" font-size="14.00">lab3 &lt;= 0.5</text>
<text text-anchor="middle" x="97.5" y="-227.8" font-family="Helvetica,sans-Serif" font-size="14.00">class = not A+</text>
</g>
<!-- 1&#45;&gt;2 -->
<g id="edge2" class="edge">
<title>1&#45;&gt;2</title>
<path fill="none" stroke="black" d="M172.27,-293.83C159.71,-284.79 144.37,-273.75 130.86,-264.02"/>
<polygon fill="black" stroke="black" points="132.89,-261.17 122.73,-258.16 128.8,-266.85 132.89,-261.17"/>
</g>
<!-- 9 -->
<g id="node10" class="node">
<title>9</title>
<polygon fill="none" stroke="black" points="270,-257 167,-257 167,-221 270,-221 270,-257"/>
<text text-anchor="middle" x="218.5" y="-235.3" font-family="Helvetica,sans-Serif" font-size="14.00">class = not A+</text>
</g>
<!-- 1&#45;&gt;9 -->
<g id="edge9" class="edge">
<title>1&#45;&gt;9</title>
<path fill="none" stroke="black" d="M202.8,-293.83C205.17,-285.72 208,-275.99 210.61,-267.05"/>
<polygon fill="black" stroke="black" points="213.98,-268 213.42,-257.42 207.26,-266.04 213.98,-268"/>
</g>
<!-- 3 -->
<g id="node4" class="node">
<title>3</title>
<polygon fill="none" stroke="black" points="112,-184 9,-184 9,-146 112,-146 112,-184"/>
<text text-anchor="middle" x="60.5" y="-168.8" font-family="Helvetica,sans-Serif" font-size="14.00">quiz1 &lt;= 0.5</text>
<text text-anchor="middle" x="60.5" y="-153.8" font-family="Helvetica,sans-Serif" font-size="14.00">class = not A+</text>
</g>
<!-- 2&#45;&gt;3 -->
<g id="edge3" class="edge">
<title>2&#45;&gt;3</title>
<path fill="none" stroke="black" d="M88.16,-219.83C84.08,-211.88 79.19,-202.37 74.67,-193.57"/>
<polygon fill="black" stroke="black" points="77.65,-191.71 69.96,-184.41 71.42,-194.91 77.65,-191.71"/>
</g>
<!-- 8 -->
<g id="node9" class="node">
<title>8</title>
<polygon fill="none" stroke="black" points="210.5,-183 130.5,-183 130.5,-147 210.5,-147 210.5,-183"/>
<text text-anchor="middle" x="170.5" y="-161.3" font-family="Helvetica,sans-Serif" font-size="14.00">class = A+</text>
</g>
<!-- 2&#45;&gt;8 -->
<g id="edge8" class="edge">
<title>2&#45;&gt;8</title>
<path fill="none" stroke="black" d="M115.92,-219.83C125.01,-210.87 136.1,-199.93 145.9,-190.26"/>
<polygon fill="black" stroke="black" points="148.43,-192.69 153.09,-183.17 143.51,-187.7 148.43,-192.69"/>
</g>
<!-- 4 -->
<g id="node5" class="node">
<title>4</title>
<polygon fill="none" stroke="black" points="103,-109 0,-109 0,-73 103,-73 103,-109"/>
<text text-anchor="middle" x="51.5" y="-87.3" font-family="Helvetica,sans-Serif" font-size="14.00">class = not A+</text>
</g>
<!-- 3&#45;&gt;4 -->
<g id="edge4" class="edge">
<title>3&#45;&gt;4</title>
<path fill="none" stroke="black" d="M58.23,-145.83C57.24,-137.89 56.05,-128.41 54.95,-119.63"/>
<polygon fill="black" stroke="black" points="58.39,-118.91 53.68,-109.42 51.44,-119.77 58.39,-118.91"/>
</g>
<!-- 5 -->
<g id="node6" class="node">
<title>5</title>
<polygon fill="none" stroke="black" points="206,-110 121,-110 121,-72 206,-72 206,-110"/>
<text text-anchor="middle" x="163.5" y="-94.8" font-family="Helvetica,sans-Serif" font-size="14.00">lab2 &lt;= 0.5</text>
<text text-anchor="middle" x="163.5" y="-79.8" font-family="Helvetica,sans-Serif" font-size="14.00">class = A+</text>
</g>
<!-- 3&#45;&gt;5 -->
<g id="edge5" class="edge">
<title>3&#45;&gt;5</title>
<path fill="none" stroke="black" d="M86.49,-145.83C99.42,-136.79 115.22,-125.75 129.14,-116.02"/>
<polygon fill="black" stroke="black" points="131.33,-118.76 137.52,-110.16 127.32,-113.02 131.33,-118.76"/>
</g>
<!-- 6 -->
<g id="node7" class="node">
<title>6</title>
<polygon fill="none" stroke="black" points="174.5,-36 94.5,-36 94.5,0 174.5,0 174.5,-36"/>
<text text-anchor="middle" x="134.5" y="-14.3" font-family="Helvetica,sans-Serif" font-size="14.00">class = A+</text>
</g>
<!-- 5&#45;&gt;6 -->
<g id="edge6" class="edge">
<title>5&#45;&gt;6</title>
<path fill="none" stroke="black" d="M156.03,-71.72C152.76,-63.72 148.87,-54.18 145.29,-45.42"/>
<polygon fill="black" stroke="black" points="148.47,-43.94 141.45,-36 141.99,-46.58 148.47,-43.94"/>
</g>
<!-- 7 -->
<g id="node8" class="node">
<title>7</title>
<polygon fill="none" stroke="black" points="296,-36 193,-36 193,0 296,0 296,-36"/>
<text text-anchor="middle" x="244.5" y="-14.3" font-family="Helvetica,sans-Serif" font-size="14.00">class = not A+</text>
</g>
<!-- 5&#45;&gt;7 -->
<g id="edge7" class="edge">
<title>5&#45;&gt;7</title>
<path fill="none" stroke="black" d="M184.36,-71.72C194.47,-62.85 206.73,-52.11 217.54,-42.63"/>
<polygon fill="black" stroke="black" points="219.89,-45.23 225.1,-36 215.27,-39.96 219.89,-45.23"/>
</g>
<!-- 11 -->
<g id="node12" class="node">
<title>11</title>
<polygon fill="none" stroke="black" points="410,-257 307,-257 307,-221 410,-221 410,-257"/>
<text text-anchor="middle" x="358.5" y="-235.3" font-family="Helvetica,sans-Serif" font-size="14.00">class = not A+</text>
</g>
<!-- 10&#45;&gt;11 -->
<g id="edge11" class="edge">
<title>10&#45;&gt;11</title>
<path fill="none" stroke="black" d="M374.2,-293.83C371.83,-285.72 369,-275.99 366.39,-267.05"/>
<polygon fill="black" stroke="black" points="369.74,-266.04 363.58,-257.42 363.02,-268 369.74,-266.04"/>
</g>
<!-- 12 -->
<g id="node13" class="node">
<title>12</title>
<polygon fill="none" stroke="black" points="520.5,-258 428.5,-258 428.5,-220 520.5,-220 520.5,-258"/>
<text text-anchor="middle" x="474.5" y="-242.8" font-family="Helvetica,sans-Serif" font-size="14.00">quiz1 &lt;= 0.5</text>
<text text-anchor="middle" x="474.5" y="-227.8" font-family="Helvetica,sans-Serif" font-size="14.00">class = A+</text>
</g>
<!-- 10&#45;&gt;12 -->
<g id="edge12" class="edge">
<title>10&#45;&gt;12</title>
<path fill="none" stroke="black" d="M403.47,-293.83C415.29,-284.88 429.7,-273.96 442.44,-264.3"/>
<polygon fill="black" stroke="black" points="444.68,-266.99 450.54,-258.16 440.45,-261.41 444.68,-266.99"/>
</g>
<!-- 13 -->
<g id="node14" class="node">
<title>13</title>
<polygon fill="none" stroke="black" points="444,-184 359,-184 359,-146 444,-146 444,-184"/>
<text text-anchor="middle" x="401.5" y="-168.8" font-family="Helvetica,sans-Serif" font-size="14.00">lab2 &lt;= 0.5</text>
<text text-anchor="middle" x="401.5" y="-153.8" font-family="Helvetica,sans-Serif" font-size="14.00">class = A+</text>
</g>
<!-- 12&#45;&gt;13 -->
<g id="edge13" class="edge">
<title>12&#45;&gt;13</title>
<path fill="none" stroke="black" d="M456.08,-219.83C447.35,-211.22 436.77,-200.79 427.26,-191.4"/>
<polygon fill="black" stroke="black" points="429.49,-188.69 419.92,-184.16 424.58,-193.68 429.49,-188.69"/>
</g>
<!-- 18 -->
<g id="node19" class="node">
<title>18</title>
<polygon fill="none" stroke="black" points="542.5,-183 462.5,-183 462.5,-147 542.5,-147 542.5,-183"/>
<text text-anchor="middle" x="502.5" y="-161.3" font-family="Helvetica,sans-Serif" font-size="14.00">class = A+</text>
</g>
<!-- 12&#45;&gt;18 -->
<g id="edge18" class="edge">
<title>12&#45;&gt;18</title>
<path fill="none" stroke="black" d="M481.57,-219.83C484.75,-211.63 488.58,-201.78 492.09,-192.76"/>
<polygon fill="black" stroke="black" points="495.36,-194.01 495.73,-183.42 488.84,-191.47 495.36,-194.01"/>
</g>
<!-- 14 -->
<g id="node15" class="node">
<title>14</title>
<polygon fill="none" stroke="black" points="389.5,-109 309.5,-109 309.5,-73 389.5,-73 389.5,-109"/>
<text text-anchor="middle" x="349.5" y="-87.3" font-family="Helvetica,sans-Serif" font-size="14.00">class = A+</text>
</g>
<!-- 13&#45;&gt;14 -->
<g id="edge14" class="edge">
<title>13&#45;&gt;14</title>
<path fill="none" stroke="black" d="M388.38,-145.83C382.2,-137.28 374.74,-126.94 368,-117.62"/>
<polygon fill="black" stroke="black" points="370.77,-115.48 362.08,-109.42 365.1,-119.57 370.77,-115.48"/>
</g>
<!-- 15 -->
<g id="node16" class="node">
<title>15</title>
<polygon fill="none" stroke="black" points="555.5,-110 407.5,-110 407.5,-72 555.5,-72 555.5,-110"/>
<text text-anchor="middle" x="481.5" y="-94.8" font-family="Helvetica,sans-Serif" font-size="14.00">ml_experience &lt;= 0.5</text>
<text text-anchor="middle" x="481.5" y="-79.8" font-family="Helvetica,sans-Serif" font-size="14.00">class = A+</text>
</g>
<!-- 13&#45;&gt;15 -->
<g id="edge15" class="edge">
<title>13&#45;&gt;15</title>
<path fill="none" stroke="black" d="M421.69,-145.83C431.35,-137.13 443.08,-126.58 453.58,-117.13"/>
<polygon fill="black" stroke="black" points="456.23,-119.45 461.32,-110.16 451.54,-114.25 456.23,-119.45"/>
</g>
<!-- 16 -->
<g id="node17" class="node">
<title>16</title>
<polygon fill="none" stroke="black" points="428.5,-36 348.5,-36 348.5,0 428.5,0 428.5,-36"/>
<text text-anchor="middle" x="388.5" y="-14.3" font-family="Helvetica,sans-Serif" font-size="14.00">class = A+</text>
</g>
<!-- 15&#45;&gt;16 -->
<g id="edge16" class="edge">
<title>15&#45;&gt;16</title>
<path fill="none" stroke="black" d="M457.55,-71.72C445.72,-62.68 431.32,-51.69 418.73,-42.08"/>
<polygon fill="black" stroke="black" points="420.84,-39.29 410.77,-36 416.6,-44.85 420.84,-39.29"/>
</g>
<!-- 17 -->
<g id="node18" class="node">
<title>17</title>
<polygon fill="none" stroke="black" points="526.5,-36 446.5,-36 446.5,0 526.5,0 526.5,-36"/>
<text text-anchor="middle" x="486.5" y="-14.3" font-family="Helvetica,sans-Serif" font-size="14.00">class = A+</text>
</g>
<!-- 15&#45;&gt;17 -->
<g id="edge17" class="edge">
<title>15&#45;&gt;17</title>
<path fill="none" stroke="black" d="M482.79,-71.72C483.34,-63.89 483.99,-54.59 484.6,-45.99"/>
<polygon fill="black" stroke="black" points="488.09,-46.22 485.3,-36 481.11,-45.73 488.09,-46.22"/>
</g>
</g>
</svg>
