<?xml version="1.0" encoding="UTF-8" standalone="no"?>
<!DOCTYPE svg PUBLIC "-//W3C//DTD SVG 1.1//EN"
 "http://www.w3.org/Graphics/SVG/1.1/DTD/svg11.dtd">
<!-- Generated by graphviz version 2.48.0 (0)
 -->
<!-- Title: Tree Pages: 1 -->
<svg width="538pt" height="414pt"
 viewBox="0.00 0.00 537.50 414.00" xmlns="http://www.w3.org/2000/svg" xmlns:xlink="http://www.w3.org/1999/xlink">
<g id="graph0" class="graph" transform="scale(1 1) rotate(0) translate(4 410)">
<title>Tree</title>
<polygon fill="white" stroke="transparent" points="-4,4 -4,-410 533.5,-410 533.5,4 -4,4"/>
<!-- 0 -->
<g id="node1" class="node">
<title>0</title>
<polygon fill="none" stroke="black" points="330,-406 233,-406 233,-368 330,-368 330,-406"/>
<text text-anchor="middle" x="281.5" y="-390.8" font-family="Times,serif" font-size="14.00">lab4 &lt;= 0.5</text>
<text text-anchor="middle" x="281.5" y="-375.8" font-family="Times,serif" font-size="14.00">class = not A+</text>
</g>
<!-- 1 -->
<g id="node2" class="node">
<title>1</title>
<polygon fill="none" stroke="black" points="259,-332 162,-332 162,-294 259,-294 259,-332"/>
<text text-anchor="middle" x="210.5" y="-316.8" font-family="Times,serif" font-size="14.00">lab1 &lt;= 0.5</text>
<text text-anchor="middle" x="210.5" y="-301.8" font-family="Times,serif" font-size="14.00">class = not A+</text>
</g>
<!-- 0&#45;&gt;1 -->
<g id="edge1" class="edge">
<title>0&#45;&gt;1</title>
<path fill="none" stroke="black" d="M263.58,-367.83C255.16,-359.28 244.96,-348.94 235.76,-339.62"/>
<polygon fill="black" stroke="black" points="238.17,-337.08 228.66,-332.41 233.19,-341.99 238.17,-337.08"/>
<text text-anchor="middle" x="228.48" y="-353.71" font-family="Times,serif" font-size="14.00">True</text>
</g>
<!-- 8 -->
<g id="node9" class="node">
<title>8</title>
<polygon fill="none" stroke="black" points="428,-332 277,-332 277,-294 428,-294 428,-332"/>
<text text-anchor="middle" x="352.5" y="-316.8" font-family="Times,serif" font-size="14.00">class_attendance &lt;= 0.5</text>
<text text-anchor="middle" x="352.5" y="-301.8" font-family="Times,serif" font-size="14.00">class = A+</text>
</g>
<!-- 0&#45;&gt;8 -->
<g id="edge8" class="edge">
<title>0&#45;&gt;8</title>
<path fill="none" stroke="black" d="M299.42,-367.83C307.84,-359.28 318.04,-348.94 327.24,-339.62"/>
<polygon fill="black" stroke="black" points="329.81,-341.99 334.34,-332.41 324.83,-337.08 329.81,-341.99"/>
<text text-anchor="middle" x="334.52" y="-353.71" font-family="Times,serif" font-size="14.00">False</text>
</g>
<!-- 2 -->
<g id="node3" class="node">
<title>2</title>
<polygon fill="none" stroke="black" points="151,-258 54,-258 54,-220 151,-220 151,-258"/>
<text text-anchor="middle" x="102.5" y="-242.8" font-family="Times,serif" font-size="14.00">quiz1 &lt;= 0.5</text>
<text text-anchor="middle" x="102.5" y="-227.8" font-family="Times,serif" font-size="14.00">class = not A+</text>
</g>
<!-- 1&#45;&gt;2 -->
<g id="edge2" class="edge">
<title>1&#45;&gt;2</title>
<path fill="none" stroke="black" d="M183.25,-293.83C169.56,-284.71 152.81,-273.54 138.12,-263.74"/>
<polygon fill="black" stroke="black" points="140.01,-260.8 129.74,-258.16 136.12,-266.62 140.01,-260.8"/>
</g>
<!-- 7 -->
<g id="node8" class="node">
<title>7</title>
<polygon fill="none" stroke="black" points="266,-257 169,-257 169,-221 266,-221 266,-257"/>
<text text-anchor="middle" x="217.5" y="-235.3" font-family="Times,serif" font-size="14.00">class = not A+</text>
</g>
<!-- 1&#45;&gt;7 -->
<g id="edge7" class="edge">
<title>1&#45;&gt;7</title>
<path fill="none" stroke="black" d="M212.27,-293.83C213.04,-285.89 213.96,-276.41 214.81,-267.63"/>
<polygon fill="black" stroke="black" points="218.32,-267.71 215.81,-257.42 211.36,-267.03 218.32,-267.71"/>
</g>
<!-- 3 -->
<g id="node4" class="node">
<title>3</title>
<polygon fill="none" stroke="black" points="111,-184 14,-184 14,-146 111,-146 111,-184"/>
<text text-anchor="middle" x="62.5" y="-168.8" font-family="Times,serif" font-size="14.00">lab3 &lt;= 0.5</text>
<text text-anchor="middle" x="62.5" y="-153.8" font-family="Times,serif" font-size="14.00">class = not A+</text>
</g>
<!-- 2&#45;&gt;3 -->
<g id="edge3" class="edge">
<title>2&#45;&gt;3</title>
<path fill="none" stroke="black" d="M92.41,-219.83C87.94,-211.79 82.59,-202.17 77.66,-193.29"/>
<polygon fill="black" stroke="black" points="80.65,-191.46 72.73,-184.41 74.53,-194.85 80.65,-191.46"/>
</g>
<!-- 6 -->
<g id="node7" class="node">
<title>6</title>
<polygon fill="none" stroke="black" points="205.5,-183 129.5,-183 129.5,-147 205.5,-147 205.5,-183"/>
<text text-anchor="middle" x="167.5" y="-161.3" font-family="Times,serif" font-size="14.00">class = A+</text>
</g>
<!-- 2&#45;&gt;6 -->
<g id="edge6" class="edge">
<title>2&#45;&gt;6</title>
<path fill="none" stroke="black" d="M118.9,-219.83C126.78,-211.11 136.34,-200.52 144.89,-191.05"/>
<polygon fill="black" stroke="black" points="147.67,-193.19 151.78,-183.42 142.48,-188.5 147.67,-193.19"/>
</g>
<!-- 4 -->
<g id="node5" class="node">
<title>4</title>
<polygon fill="none" stroke="black" points="97,-109 0,-109 0,-73 97,-73 97,-109"/>
<text text-anchor="middle" x="48.5" y="-87.3" font-family="Times,serif" font-size="14.00">class = not A+</text>
</g>
<!-- 3&#45;&gt;4 -->
<g id="edge4" class="edge">
<title>3&#45;&gt;4</title>
<path fill="none" stroke="black" d="M58.97,-145.83C57.41,-137.81 55.54,-128.2 53.82,-119.34"/>
<polygon fill="black" stroke="black" points="57.23,-118.57 51.89,-109.42 50.36,-119.9 57.23,-118.57"/>
</g>
<!-- 5 -->
<g id="node6" class="node">
<title>5</title>
<polygon fill="none" stroke="black" points="191.5,-109 115.5,-109 115.5,-73 191.5,-73 191.5,-109"/>
<text text-anchor="middle" x="153.5" y="-87.3" font-family="Times,serif" font-size="14.00">class = A+</text>
</g>
<!-- 3&#45;&gt;5 -->
<g id="edge5" class="edge">
<title>3&#45;&gt;5</title>
<path fill="none" stroke="black" d="M85.46,-145.83C97.12,-136.6 111.43,-125.29 123.91,-115.41"/>
<polygon fill="black" stroke="black" points="126.13,-118.12 131.8,-109.17 121.78,-112.63 126.13,-118.12"/>
</g>
<!-- 9 -->
<g id="node10" class="node">
<title>9</title>
<polygon fill="none" stroke="black" points="394,-257 297,-257 297,-221 394,-221 394,-257"/>
<text text-anchor="middle" x="345.5" y="-235.3" font-family="Times,serif" font-size="14.00">class = not A+</text>
</g>
<!-- 8&#45;&gt;9 -->
<g id="edge9" class="edge">
<title>8&#45;&gt;9</title>
<path fill="none" stroke="black" d="M350.73,-293.83C349.96,-285.89 349.04,-276.41 348.19,-267.63"/>
<polygon fill="black" stroke="black" points="351.64,-267.03 347.19,-257.42 344.68,-267.71 351.64,-267.03"/>
</g>
<!-- 10 -->
<g id="node11" class="node">
<title>10</title>
<polygon fill="none" stroke="black" points="500.5,-258 412.5,-258 412.5,-220 500.5,-220 500.5,-258"/>
<text text-anchor="middle" x="456.5" y="-242.8" font-family="Times,serif" font-size="14.00">quiz1 &lt;= 0.5</text>
<text text-anchor="middle" x="456.5" y="-227.8" font-family="Times,serif" font-size="14.00">class = A+</text>
</g>
<!-- 8&#45;&gt;10 -->
<g id="edge10" class="edge">
<title>8&#45;&gt;10</title>
<path fill="none" stroke="black" d="M378.74,-293.83C391.8,-284.79 407.75,-273.75 421.8,-264.02"/>
<polygon fill="black" stroke="black" points="424.04,-266.73 430.26,-258.16 420.05,-260.98 424.04,-266.73"/>
</g>
<!-- 11 -->
<g id="node12" class="node">
<title>11</title>
<polygon fill="none" stroke="black" points="435,-184 354,-184 354,-146 435,-146 435,-184"/>
<text text-anchor="middle" x="394.5" y="-168.8" font-family="Times,serif" font-size="14.00">lab2 &lt;= 0.5</text>
<text text-anchor="middle" x="394.5" y="-153.8" font-family="Times,serif" font-size="14.00">class = A+</text>
</g>
<!-- 10&#45;&gt;11 -->
<g id="edge11" class="edge">
<title>10&#45;&gt;11</title>
<path fill="none" stroke="black" d="M440.85,-219.83C433.64,-211.45 424.94,-201.35 417.04,-192.17"/>
<polygon fill="black" stroke="black" points="419.53,-189.71 410.36,-184.41 414.23,-194.27 419.53,-189.71"/>
</g>
<!-- 16 -->
<g id="node17" class="node">
<title>16</title>
<polygon fill="none" stroke="black" points="529.5,-183 453.5,-183 453.5,-147 529.5,-147 529.5,-183"/>
<text text-anchor="middle" x="491.5" y="-161.3" font-family="Times,serif" font-size="14.00">class = A+</text>
</g>
<!-- 10&#45;&gt;16 -->
<g id="edge16" class="edge">
<title>10&#45;&gt;16</title>
<path fill="none" stroke="black" d="M465.33,-219.83C469.36,-211.55 474.21,-201.57 478.63,-192.47"/>
<polygon fill="black" stroke="black" points="481.81,-193.94 483.03,-183.42 475.51,-190.88 481.81,-193.94"/>
</g>
<!-- 12 -->
<g id="node13" class="node">
<title>12</title>
<polygon fill="none" stroke="black" points="341.5,-109 265.5,-109 265.5,-73 341.5,-73 341.5,-109"/>
<text text-anchor="middle" x="303.5" y="-87.3" font-family="Times,serif" font-size="14.00">class = A+</text>
</g>
<!-- 11&#45;&gt;12 -->
<g id="edge12" class="edge">
<title>11&#45;&gt;12</title>
<path fill="none" stroke="black" d="M371.54,-145.83C359.88,-136.6 345.57,-125.29 333.09,-115.41"/>
<polygon fill="black" stroke="black" points="335.22,-112.63 325.2,-109.17 330.87,-118.12 335.22,-112.63"/>
</g>
<!-- 13 -->
<g id="node14" class="node">
<title>13</title>
<polygon fill="none" stroke="black" points="499,-110 360,-110 360,-72 499,-72 499,-110"/>
<text text-anchor="middle" x="429.5" y="-94.8" font-family="Times,serif" font-size="14.00">ml_experience &lt;= 0.5</text>
<text text-anchor="middle" x="429.5" y="-79.8" font-family="Times,serif" font-size="14.00">class = A+</text>
</g>
<!-- 11&#45;&gt;13 -->
<g id="edge13" class="edge">
<title>11&#45;&gt;13</title>
<path fill="none" stroke="black" d="M403.33,-145.83C407.2,-137.88 411.82,-128.37 416.1,-119.57"/>
<polygon fill="black" stroke="black" points="419.32,-120.94 420.55,-110.41 413.03,-117.88 419.32,-120.94"/>
</g>
<!-- 14 -->
<g id="node15" class="node">
<title>14</title>
<polygon fill="none" stroke="black" points="420.5,-36 344.5,-36 344.5,0 420.5,0 420.5,-36"/>
<text text-anchor="middle" x="382.5" y="-14.3" font-family="Times,serif" font-size="14.00">class = A+</text>
</g>
<!-- 13&#45;&gt;14 -->
<g id="edge14" class="edge">
<title>13&#45;&gt;14</title>
<path fill="none" stroke="black" d="M417.4,-71.72C411.93,-63.46 405.38,-53.56 399.43,-44.58"/>
<polygon fill="black" stroke="black" points="402.19,-42.41 393.76,-36 396.36,-46.27 402.19,-42.41"/>
</g>
<!-- 15 -->
<g id="node16" class="node">
<title>15</title>
<polygon fill="none" stroke="black" points="514.5,-36 438.5,-36 438.5,0 514.5,0 514.5,-36"/>
<text text-anchor="middle" x="476.5" y="-14.3" font-family="Times,serif" font-size="14.00">class = A+</text>
</g>
<!-- 13&#45;&gt;15 -->
<g id="edge15" class="edge">
<title>13&#45;&gt;15</title>
<path fill="none" stroke="black" d="M441.6,-71.72C447.07,-63.46 453.62,-53.56 459.57,-44.58"/>
<polygon fill="black" stroke="black" points="462.64,-46.27 465.24,-36 456.81,-42.41 462.64,-46.27"/>
</g>
</g>
</svg>
