<?xml version="1.0" encoding="UTF-8" standalone="no"?>
<!DOCTYPE svg PUBLIC "-//W3C//DTD SVG 1.1//EN"
 "http://www.w3.org/Graphics/SVG/1.1/DTD/svg11.dtd">
<!-- Generated by graphviz version 5.0.1 (0)
 -->
<!-- Title: Tree Pages: 1 -->
<svg width="563pt" height="414pt"
 viewBox="0.00 0.00 562.50 414.00" xmlns="http://www.w3.org/2000/svg" xmlns:xlink="http://www.w3.org/1999/xlink">
<g id="graph0" class="graph" transform="scale(1 1) rotate(0) translate(4 410)">
<title>Tree</title>
<polygon fill="white" stroke="none" points="-4,4 -4,-410 558.5,-410 558.5,4 -4,4"/>
<!-- 0 -->
<g id="node1" class="node">
<title>0</title>
<polygon fill="none" stroke="black" points="346,-406 243,-406 243,-368 346,-368 346,-406"/>
<text text-anchor="middle" x="294.5" y="-390.8" font-family="Helvetica,sans-Serif" font-size="14.00">lab4 &lt;= 0.5</text>
<text text-anchor="middle" x="294.5" y="-375.8" font-family="Helvetica,sans-Serif" font-size="14.00">class = not A+</text>
</g>
<!-- 1 -->
<g id="node2" class="node">
<title>1</title>
<polygon fill="none" stroke="black" points="270,-332 167,-332 167,-294 270,-294 270,-332"/>
<text text-anchor="middle" x="218.5" y="-316.8" font-family="Helvetica,sans-Serif" font-size="14.00">lab1 &lt;= 0.5</text>
<text text-anchor="middle" x="218.5" y="-301.8" font-family="Helvetica,sans-Serif" font-size="14.00">class = not A+</text>
</g>
<!-- 0&#45;&gt;1 -->
<g id="edge1" class="edge">
<title>0&#45;&gt;1</title>
<path fill="none" stroke="black" d="M275.32,-367.83C266.14,-359.13 255,-348.58 245.02,-339.13"/>
<polygon fill="black" stroke="black" points="247.34,-336.5 237.67,-332.16 242.52,-341.58 247.34,-336.5"/>
<text text-anchor="middle" x="238.35" y="-353.45" font-family="Helvetica,sans-Serif" font-size="14.00">True</text>
</g>
<!-- 8 -->
<g id="node9" class="node">
<title>8</title>
<polygon fill="none" stroke="black" points="452.5,-332 288.5,-332 288.5,-294 452.5,-294 452.5,-332"/>
<text text-anchor="middle" x="370.5" y="-316.8" font-family="Helvetica,sans-Serif" font-size="14.00">class_attendance &lt;= 0.5</text>
<text text-anchor="middle" x="370.5" y="-301.8" font-family="Helvetica,sans-Serif" font-size="14.00">class = A+</text>
</g>
<!-- 0&#45;&gt;8 -->
<g id="edge8" class="edge">
<title>0&#45;&gt;8</title>
<path fill="none" stroke="black" d="M313.68,-367.83C322.86,-359.13 334,-348.58 343.98,-339.13"/>
<polygon fill="black" stroke="black" points="346.48,-341.58 351.33,-332.16 341.66,-336.5 346.48,-341.58"/>
<text text-anchor="middle" x="350.65" y="-353.45" font-family="Helvetica,sans-Serif" font-size="14.00">False</text>
</g>
<!-- 2 -->
<g id="node3" class="node">
<title>2</title>
<polygon fill="none" stroke="black" points="157,-258 54,-258 54,-220 157,-220 157,-258"/>
<text text-anchor="middle" x="105.5" y="-242.8" font-family="Helvetica,sans-Serif" font-size="14.00">lab3 &lt;= 0.5</text>
<text text-anchor="middle" x="105.5" y="-227.8" font-family="Helvetica,sans-Serif" font-size="14.00">class = not A+</text>
</g>
<!-- 1&#45;&gt;2 -->
<g id="edge2" class="edge">
<title>1&#45;&gt;2</title>
<path fill="none" stroke="black" d="M189.99,-293.83C175.67,-284.71 158.14,-273.54 142.77,-263.74"/>
<polygon fill="black" stroke="black" points="144.32,-260.58 134.01,-258.16 140.56,-266.49 144.32,-260.58"/>
</g>
<!-- 7 -->
<g id="node8" class="node">
<title>7</title>
<polygon fill="none" stroke="black" points="278,-257 175,-257 175,-221 278,-221 278,-257"/>
<text text-anchor="middle" x="226.5" y="-235.3" font-family="Helvetica,sans-Serif" font-size="14.00">class = not A+</text>
</g>
<!-- 1&#45;&gt;7 -->
<g id="edge7" class="edge">
<title>1&#45;&gt;7</title>
<path fill="none" stroke="black" d="M220.52,-293.83C221.4,-285.89 222.45,-276.41 223.43,-267.63"/>
<polygon fill="black" stroke="black" points="226.94,-267.74 224.56,-257.42 219.98,-266.97 226.94,-267.74"/>
</g>
<!-- 3 -->
<g id="node4" class="node">
<title>3</title>
<polygon fill="none" stroke="black" points="116,-184 13,-184 13,-146 116,-146 116,-184"/>
<text text-anchor="middle" x="64.5" y="-168.8" font-family="Helvetica,sans-Serif" font-size="14.00">quiz1 &lt;= 0.5</text>
<text text-anchor="middle" x="64.5" y="-153.8" font-family="Helvetica,sans-Serif" font-size="14.00">class = not A+</text>
</g>
<!-- 2&#45;&gt;3 -->
<g id="edge3" class="edge">
<title>2&#45;&gt;3</title>
<path fill="none" stroke="black" d="M95.15,-219.83C90.58,-211.79 85.09,-202.17 80.04,-193.29"/>
<polygon fill="black" stroke="black" points="82.98,-191.37 74.99,-184.41 76.89,-194.84 82.98,-191.37"/>
</g>
<!-- 6 -->
<g id="node7" class="node">
<title>6</title>
<polygon fill="none" stroke="black" points="214.5,-183 134.5,-183 134.5,-147 214.5,-147 214.5,-183"/>
<text text-anchor="middle" x="174.5" y="-161.3" font-family="Helvetica,sans-Serif" font-size="14.00">class = A+</text>
</g>
<!-- 2&#45;&gt;6 -->
<g id="edge6" class="edge">
<title>2&#45;&gt;6</title>
<path fill="none" stroke="black" d="M122.91,-219.83C131.35,-211.02 141.62,-200.31 150.77,-190.76"/>
<polygon fill="black" stroke="black" points="153.42,-193.06 157.81,-183.42 148.36,-188.22 153.42,-193.06"/>
</g>
<!-- 4 -->
<g id="node5" class="node">
<title>4</title>
<polygon fill="none" stroke="black" points="103,-109 0,-109 0,-73 103,-73 103,-109"/>
<text text-anchor="middle" x="51.5" y="-87.3" font-family="Helvetica,sans-Serif" font-size="14.00">class = not A+</text>
</g>
<!-- 3&#45;&gt;4 -->
<g id="edge4" class="edge">
<title>3&#45;&gt;4</title>
<path fill="none" stroke="black" d="M61.22,-145.83C59.77,-137.81 58.04,-128.2 56.44,-119.34"/>
<polygon fill="black" stroke="black" points="59.87,-118.64 54.64,-109.42 52.98,-119.88 59.87,-118.64"/>
</g>
<!-- 5 -->
<g id="node6" class="node">
<title>5</title>
<polygon fill="none" stroke="black" points="201.5,-109 121.5,-109 121.5,-73 201.5,-73 201.5,-109"/>
<text text-anchor="middle" x="161.5" y="-87.3" font-family="Helvetica,sans-Serif" font-size="14.00">class = A+</text>
</g>
<!-- 3&#45;&gt;5 -->
<g id="edge5" class="edge">
<title>3&#45;&gt;5</title>
<path fill="none" stroke="black" d="M88.98,-145.83C101.53,-136.52 116.95,-125.07 130.34,-115.13"/>
<polygon fill="black" stroke="black" points="132.42,-117.94 138.37,-109.17 128.25,-112.32 132.42,-117.94"/>
</g>
<!-- 9 -->
<g id="node10" class="node">
<title>9</title>
<polygon fill="none" stroke="black" points="414,-257 311,-257 311,-221 414,-221 414,-257"/>
<text text-anchor="middle" x="362.5" y="-235.3" font-family="Helvetica,sans-Serif" font-size="14.00">class = not A+</text>
</g>
<!-- 8&#45;&gt;9 -->
<g id="edge9" class="edge">
<title>8&#45;&gt;9</title>
<path fill="none" stroke="black" d="M368.48,-293.83C367.6,-285.89 366.55,-276.41 365.57,-267.63"/>
<polygon fill="black" stroke="black" points="369.02,-266.97 364.44,-257.42 362.06,-267.74 369.02,-266.97"/>
</g>
<!-- 10 -->
<g id="node11" class="node">
<title>10</title>
<polygon fill="none" stroke="black" points="524.5,-258 432.5,-258 432.5,-220 524.5,-220 524.5,-258"/>
<text text-anchor="middle" x="478.5" y="-242.8" font-family="Helvetica,sans-Serif" font-size="14.00">quiz1 &lt;= 0.5</text>
<text text-anchor="middle" x="478.5" y="-227.8" font-family="Helvetica,sans-Serif" font-size="14.00">class = A+</text>
</g>
<!-- 8&#45;&gt;10 -->
<g id="edge10" class="edge">
<title>8&#45;&gt;10</title>
<path fill="none" stroke="black" d="M397.75,-293.83C411.44,-284.71 428.19,-273.54 442.88,-263.74"/>
<polygon fill="black" stroke="black" points="444.88,-266.62 451.26,-258.16 440.99,-260.8 444.88,-266.62"/>
</g>
<!-- 11 -->
<g id="node12" class="node">
<title>11</title>
<polygon fill="none" stroke="black" points="456,-184 371,-184 371,-146 456,-146 456,-184"/>
<text text-anchor="middle" x="413.5" y="-168.8" font-family="Helvetica,sans-Serif" font-size="14.00">lab2 &lt;= 0.5</text>
<text text-anchor="middle" x="413.5" y="-153.8" font-family="Helvetica,sans-Serif" font-size="14.00">class = A+</text>
</g>
<!-- 10&#45;&gt;11 -->
<g id="edge11" class="edge">
<title>10&#45;&gt;11</title>
<path fill="none" stroke="black" d="M462.1,-219.83C454.46,-211.37 445.23,-201.15 436.88,-191.9"/>
<polygon fill="black" stroke="black" points="439.42,-189.49 430.12,-184.41 434.23,-194.18 439.42,-189.49"/>
</g>
<!-- 16 -->
<g id="node17" class="node">
<title>16</title>
<polygon fill="none" stroke="black" points="554.5,-183 474.5,-183 474.5,-147 554.5,-147 554.5,-183"/>
<text text-anchor="middle" x="514.5" y="-161.3" font-family="Helvetica,sans-Serif" font-size="14.00">class = A+</text>
</g>
<!-- 10&#45;&gt;16 -->
<g id="edge16" class="edge">
<title>10&#45;&gt;16</title>
<path fill="none" stroke="black" d="M487.58,-219.83C491.73,-211.55 496.71,-201.57 501.26,-192.47"/>
<polygon fill="black" stroke="black" points="504.45,-193.93 505.79,-183.42 498.19,-190.8 504.45,-193.93"/>
</g>
<!-- 12 -->
<g id="node13" class="node">
<title>12</title>
<polygon fill="none" stroke="black" points="358.5,-109 278.5,-109 278.5,-73 358.5,-73 358.5,-109"/>
<text text-anchor="middle" x="318.5" y="-87.3" font-family="Helvetica,sans-Serif" font-size="14.00">class = A+</text>
</g>
<!-- 11&#45;&gt;12 -->
<g id="edge12" class="edge">
<title>11&#45;&gt;12</title>
<path fill="none" stroke="black" d="M389.53,-145.83C377.35,-136.6 362.42,-125.29 349.39,-115.41"/>
<polygon fill="black" stroke="black" points="351.24,-112.42 341.16,-109.17 347.01,-118 351.24,-112.42"/>
</g>
<!-- 13 -->
<g id="node14" class="node">
<title>13</title>
<polygon fill="none" stroke="black" points="524.5,-110 376.5,-110 376.5,-72 524.5,-72 524.5,-110"/>
<text text-anchor="middle" x="450.5" y="-94.8" font-family="Helvetica,sans-Serif" font-size="14.00">ml_experience &lt;= 0.5</text>
<text text-anchor="middle" x="450.5" y="-79.8" font-family="Helvetica,sans-Serif" font-size="14.00">class = A+</text>
</g>
<!-- 11&#45;&gt;13 -->
<g id="edge13" class="edge">
<title>11&#45;&gt;13</title>
<path fill="none" stroke="black" d="M422.84,-145.83C426.92,-137.88 431.81,-128.37 436.33,-119.57"/>
<polygon fill="black" stroke="black" points="439.58,-120.91 441.04,-110.41 433.35,-117.71 439.58,-120.91"/>
</g>
<!-- 14 -->
<g id="node15" class="node">
<title>14</title>
<polygon fill="none" stroke="black" points="441.5,-36 361.5,-36 361.5,0 441.5,0 441.5,-36"/>
<text text-anchor="middle" x="401.5" y="-14.3" font-family="Helvetica,sans-Serif" font-size="14.00">class = A+</text>
</g>
<!-- 13&#45;&gt;14 -->
<g id="edge14" class="edge">
<title>13&#45;&gt;14</title>
<path fill="none" stroke="black" d="M437.88,-71.72C432.12,-63.37 425.21,-53.35 418.96,-44.3"/>
<polygon fill="black" stroke="black" points="421.8,-42.25 413.23,-36 416.03,-46.22 421.8,-42.25"/>
</g>
<!-- 15 -->
<g id="node16" class="node">
<title>15</title>
<polygon fill="none" stroke="black" points="539.5,-36 459.5,-36 459.5,0 539.5,0 539.5,-36"/>
<text text-anchor="middle" x="499.5" y="-14.3" font-family="Helvetica,sans-Serif" font-size="14.00">class = A+</text>
</g>
<!-- 13&#45;&gt;15 -->
<g id="edge15" class="edge">
<title>13&#45;&gt;15</title>
<path fill="none" stroke="black" d="M463.12,-71.72C468.88,-63.37 475.79,-53.35 482.04,-44.3"/>
<polygon fill="black" stroke="black" points="484.97,-46.22 487.77,-36 479.2,-42.25 484.97,-46.22"/>
</g>
</g>
</svg>
