<?xml version="1.0" encoding="UTF-8" standalone="no"?>
<!DOCTYPE svg PUBLIC "-//W3C//DTD SVG 1.1//EN"
 "http://www.w3.org/Graphics/SVG/1.1/DTD/svg11.dtd">
<!-- Generated by graphviz version 2.48.0 (0)
 -->
<!-- Title: Tree Pages: 1 -->
<svg width="536pt" height="414pt"
 viewBox="0.00 0.00 536.00 414.00" xmlns="http://www.w3.org/2000/svg" xmlns:xlink="http://www.w3.org/1999/xlink">
<g id="graph0" class="graph" transform="scale(1 1) rotate(0) translate(4 410)">
<title>Tree</title>
<polygon fill="white" stroke="transparent" points="-4,4 -4,-410 532,-410 532,4 -4,4"/>
<!-- 0 -->
<g id="node1" class="node">
<title>0</title>
<polygon fill="none" stroke="black" points="323,-406 226,-406 226,-368 323,-368 323,-406"/>
<text text-anchor="middle" x="274.5" y="-390.8" font-family="Times,serif" font-size="14.00">lab4 &lt;= 0.5</text>
<text text-anchor="middle" x="274.5" y="-375.8" font-family="Times,serif" font-size="14.00">class = not A+</text>
</g>
<!-- 1 -->
<g id="node2" class="node">
<title>1</title>
<polygon fill="none" stroke="black" points="266,-332 115,-332 115,-294 266,-294 266,-332"/>
<text text-anchor="middle" x="190.5" y="-316.8" font-family="Times,serif" font-size="14.00">class_attendance &lt;= 0.5</text>
<text text-anchor="middle" x="190.5" y="-301.8" font-family="Times,serif" font-size="14.00">class = not A+</text>
</g>
<!-- 0&#45;&gt;1 -->
<g id="edge1" class="edge">
<title>0&#45;&gt;1</title>
<path fill="none" stroke="black" d="M253.3,-367.83C243.06,-359.05 230.6,-348.37 219.49,-338.85"/>
<polygon fill="black" stroke="black" points="221.56,-336.01 211.69,-332.16 217,-341.33 221.56,-336.01"/>
<text text-anchor="middle" x="213.61" y="-353.39" font-family="Times,serif" font-size="14.00">True</text>
</g>
<!-- 10 -->
<g id="node11" class="node">
<title>10</title>
<polygon fill="none" stroke="black" points="435,-332 284,-332 284,-294 435,-294 435,-332"/>
<text text-anchor="middle" x="359.5" y="-316.8" font-family="Times,serif" font-size="14.00">class_attendance &lt;= 0.5</text>
<text text-anchor="middle" x="359.5" y="-301.8" font-family="Times,serif" font-size="14.00">class = A+</text>
</g>
<!-- 0&#45;&gt;10 -->
<g id="edge10" class="edge">
<title>0&#45;&gt;10</title>
<path fill="none" stroke="black" d="M295.95,-367.83C306.32,-359.05 318.92,-348.37 330.16,-338.85"/>
<polygon fill="black" stroke="black" points="332.69,-341.3 338.06,-332.16 328.17,-335.96 332.69,-341.3"/>
<text text-anchor="middle" x="335.99" y="-353.38" font-family="Times,serif" font-size="14.00">False</text>
</g>
<!-- 2 -->
<g id="node3" class="node">
<title>2</title>
<polygon fill="none" stroke="black" points="142,-258 45,-258 45,-220 142,-220 142,-258"/>
<text text-anchor="middle" x="93.5" y="-242.8" font-family="Times,serif" font-size="14.00">lab3 &lt;= 0.5</text>
<text text-anchor="middle" x="93.5" y="-227.8" font-family="Times,serif" font-size="14.00">class = not A+</text>
</g>
<!-- 1&#45;&gt;2 -->
<g id="edge2" class="edge">
<title>1&#45;&gt;2</title>
<path fill="none" stroke="black" d="M166.02,-293.83C153.96,-284.88 139.25,-273.96 126.23,-264.3"/>
<polygon fill="black" stroke="black" points="128.09,-261.31 117.97,-258.16 123.91,-266.93 128.09,-261.31"/>
</g>
<!-- 9 -->
<g id="node10" class="node">
<title>9</title>
<polygon fill="none" stroke="black" points="257,-257 160,-257 160,-221 257,-221 257,-257"/>
<text text-anchor="middle" x="208.5" y="-235.3" font-family="Times,serif" font-size="14.00">class = not A+</text>
</g>
<!-- 1&#45;&gt;9 -->
<g id="edge9" class="edge">
<title>1&#45;&gt;9</title>
<path fill="none" stroke="black" d="M195.04,-293.83C197.05,-285.81 199.45,-276.2 201.67,-267.34"/>
<polygon fill="black" stroke="black" points="205.12,-267.97 204.15,-257.42 198.32,-266.27 205.12,-267.97"/>
</g>
<!-- 3 -->
<g id="node4" class="node">
<title>3</title>
<polygon fill="none" stroke="black" points="106,-184 9,-184 9,-146 106,-146 106,-184"/>
<text text-anchor="middle" x="57.5" y="-168.8" font-family="Times,serif" font-size="14.00">quiz1 &lt;= 0.5</text>
<text text-anchor="middle" x="57.5" y="-153.8" font-family="Times,serif" font-size="14.00">class = not A+</text>
</g>
<!-- 2&#45;&gt;3 -->
<g id="edge3" class="edge">
<title>2&#45;&gt;3</title>
<path fill="none" stroke="black" d="M84.42,-219.83C80.44,-211.88 75.68,-202.37 71.29,-193.57"/>
<polygon fill="black" stroke="black" points="74.31,-191.79 66.71,-184.41 68.05,-194.92 74.31,-191.79"/>
</g>
<!-- 8 -->
<g id="node9" class="node">
<title>8</title>
<polygon fill="none" stroke="black" points="200.5,-183 124.5,-183 124.5,-147 200.5,-147 200.5,-183"/>
<text text-anchor="middle" x="162.5" y="-161.3" font-family="Times,serif" font-size="14.00">class = A+</text>
</g>
<!-- 2&#45;&gt;8 -->
<g id="edge8" class="edge">
<title>2&#45;&gt;8</title>
<path fill="none" stroke="black" d="M110.91,-219.83C119.35,-211.02 129.62,-200.31 138.77,-190.76"/>
<polygon fill="black" stroke="black" points="141.42,-193.06 145.81,-183.42 136.36,-188.22 141.42,-193.06"/>
</g>
<!-- 4 -->
<g id="node5" class="node">
<title>4</title>
<polygon fill="none" stroke="black" points="97,-109 0,-109 0,-73 97,-73 97,-109"/>
<text text-anchor="middle" x="48.5" y="-87.3" font-family="Times,serif" font-size="14.00">class = not A+</text>
</g>
<!-- 3&#45;&gt;4 -->
<g id="edge4" class="edge">
<title>3&#45;&gt;4</title>
<path fill="none" stroke="black" d="M55.23,-145.83C54.24,-137.89 53.05,-128.41 51.95,-119.63"/>
<polygon fill="black" stroke="black" points="55.39,-118.91 50.68,-109.42 48.44,-119.77 55.39,-118.91"/>
</g>
<!-- 5 -->
<g id="node6" class="node">
<title>5</title>
<polygon fill="none" stroke="black" points="196,-110 115,-110 115,-72 196,-72 196,-110"/>
<text text-anchor="middle" x="155.5" y="-94.8" font-family="Times,serif" font-size="14.00">lab2 &lt;= 0.5</text>
<text text-anchor="middle" x="155.5" y="-79.8" font-family="Times,serif" font-size="14.00">class = A+</text>
</g>
<!-- 3&#45;&gt;5 -->
<g id="edge5" class="edge">
<title>3&#45;&gt;5</title>
<path fill="none" stroke="black" d="M82.23,-145.83C94.42,-136.88 109.28,-125.96 122.43,-116.3"/>
<polygon fill="black" stroke="black" points="124.79,-118.9 130.78,-110.16 120.65,-113.26 124.79,-118.9"/>
</g>
<!-- 6 -->
<g id="node7" class="node">
<title>6</title>
<polygon fill="none" stroke="black" points="165.5,-36 89.5,-36 89.5,0 165.5,0 165.5,-36"/>
<text text-anchor="middle" x="127.5" y="-14.3" font-family="Times,serif" font-size="14.00">class = A+</text>
</g>
<!-- 5&#45;&gt;6 -->
<g id="edge6" class="edge">
<title>5&#45;&gt;6</title>
<path fill="none" stroke="black" d="M148.29,-71.72C145.13,-63.72 141.37,-54.18 137.92,-45.42"/>
<polygon fill="black" stroke="black" points="141.13,-44.02 134.21,-36 134.62,-46.59 141.13,-44.02"/>
</g>
<!-- 7 -->
<g id="node8" class="node">
<title>7</title>
<polygon fill="none" stroke="black" points="281,-36 184,-36 184,0 281,0 281,-36"/>
<text text-anchor="middle" x="232.5" y="-14.3" font-family="Times,serif" font-size="14.00">class = not A+</text>
</g>
<!-- 5&#45;&gt;7 -->
<g id="edge7" class="edge">
<title>5&#45;&gt;7</title>
<path fill="none" stroke="black" d="M175.33,-71.72C184.85,-62.94 196.37,-52.31 206.57,-42.91"/>
<polygon fill="black" stroke="black" points="209.08,-45.36 214.06,-36 204.34,-40.21 209.08,-45.36"/>
</g>
<!-- 11 -->
<g id="node12" class="node">
<title>11</title>
<polygon fill="none" stroke="black" points="390,-257 293,-257 293,-221 390,-221 390,-257"/>
<text text-anchor="middle" x="341.5" y="-235.3" font-family="Times,serif" font-size="14.00">class = not A+</text>
</g>
<!-- 10&#45;&gt;11 -->
<g id="edge11" class="edge">
<title>10&#45;&gt;11</title>
<path fill="none" stroke="black" d="M354.96,-293.83C352.95,-285.81 350.55,-276.2 348.33,-267.34"/>
<polygon fill="black" stroke="black" points="351.68,-266.27 345.85,-257.42 344.88,-267.97 351.68,-266.27"/>
</g>
<!-- 12 -->
<g id="node13" class="node">
<title>12</title>
<polygon fill="none" stroke="black" points="496.5,-258 408.5,-258 408.5,-220 496.5,-220 496.5,-258"/>
<text text-anchor="middle" x="452.5" y="-242.8" font-family="Times,serif" font-size="14.00">quiz1 &lt;= 0.5</text>
<text text-anchor="middle" x="452.5" y="-227.8" font-family="Times,serif" font-size="14.00">class = A+</text>
</g>
<!-- 10&#45;&gt;12 -->
<g id="edge12" class="edge">
<title>10&#45;&gt;12</title>
<path fill="none" stroke="black" d="M382.97,-293.83C394.53,-284.88 408.64,-273.96 421.12,-264.3"/>
<polygon fill="black" stroke="black" points="423.28,-267.05 429.04,-258.16 418.99,-261.52 423.28,-267.05"/>
</g>
<!-- 13 -->
<g id="node14" class="node">
<title>13</title>
<polygon fill="none" stroke="black" points="423,-184 342,-184 342,-146 423,-146 423,-184"/>
<text text-anchor="middle" x="382.5" y="-168.8" font-family="Times,serif" font-size="14.00">lab2 &lt;= 0.5</text>
<text text-anchor="middle" x="382.5" y="-153.8" font-family="Times,serif" font-size="14.00">class = A+</text>
</g>
<!-- 12&#45;&gt;13 -->
<g id="edge13" class="edge">
<title>12&#45;&gt;13</title>
<path fill="none" stroke="black" d="M434.84,-219.83C426.53,-211.28 416.47,-200.94 407.41,-191.62"/>
<polygon fill="black" stroke="black" points="409.88,-189.14 400.4,-184.41 404.86,-194.02 409.88,-189.14"/>
</g>
<!-- 18 -->
<g id="node19" class="node">
<title>18</title>
<polygon fill="none" stroke="black" points="517.5,-183 441.5,-183 441.5,-147 517.5,-147 517.5,-183"/>
<text text-anchor="middle" x="479.5" y="-161.3" font-family="Times,serif" font-size="14.00">class = A+</text>
</g>
<!-- 12&#45;&gt;18 -->
<g id="edge18" class="edge">
<title>12&#45;&gt;18</title>
<path fill="none" stroke="black" d="M459.31,-219.83C462.36,-211.72 466,-201.99 469.36,-193.05"/>
<polygon fill="black" stroke="black" points="472.73,-194.01 472.97,-183.42 466.18,-191.55 472.73,-194.01"/>
</g>
<!-- 14 -->
<g id="node15" class="node">
<title>14</title>
<polygon fill="none" stroke="black" points="370.5,-109 294.5,-109 294.5,-73 370.5,-73 370.5,-109"/>
<text text-anchor="middle" x="332.5" y="-87.3" font-family="Times,serif" font-size="14.00">class = A+</text>
</g>
<!-- 13&#45;&gt;14 -->
<g id="edge14" class="edge">
<title>13&#45;&gt;14</title>
<path fill="none" stroke="black" d="M369.88,-145.83C364.01,-137.37 356.91,-127.15 350.49,-117.9"/>
<polygon fill="black" stroke="black" points="353.17,-115.64 344.6,-109.42 347.42,-119.63 353.17,-115.64"/>
</g>
<!-- 15 -->
<g id="node16" class="node">
<title>15</title>
<polygon fill="none" stroke="black" points="528,-110 389,-110 389,-72 528,-72 528,-110"/>
<text text-anchor="middle" x="458.5" y="-94.8" font-family="Times,serif" font-size="14.00">ml_experience &lt;= 0.5</text>
<text text-anchor="middle" x="458.5" y="-79.8" font-family="Times,serif" font-size="14.00">class = A+</text>
</g>
<!-- 13&#45;&gt;15 -->
<g id="edge15" class="edge">
<title>13&#45;&gt;15</title>
<path fill="none" stroke="black" d="M401.68,-145.83C410.86,-137.13 422,-126.58 431.98,-117.13"/>
<polygon fill="black" stroke="black" points="434.48,-119.58 439.33,-110.16 429.66,-114.5 434.48,-119.58"/>
</g>
<!-- 16 -->
<g id="node17" class="node">
<title>16</title>
<polygon fill="none" stroke="black" points="407.5,-36 331.5,-36 331.5,0 407.5,0 407.5,-36"/>
<text text-anchor="middle" x="369.5" y="-14.3" font-family="Times,serif" font-size="14.00">class = A+</text>
</g>
<!-- 15&#45;&gt;16 -->
<g id="edge16" class="edge">
<title>15&#45;&gt;16</title>
<path fill="none" stroke="black" d="M435.58,-71.72C424.37,-62.77 410.74,-51.9 398.78,-42.36"/>
<polygon fill="black" stroke="black" points="400.81,-39.5 390.81,-36 396.45,-44.98 400.81,-39.5"/>
</g>
<!-- 17 -->
<g id="node18" class="node">
<title>17</title>
<polygon fill="none" stroke="black" points="501.5,-36 425.5,-36 425.5,0 501.5,0 501.5,-36"/>
<text text-anchor="middle" x="463.5" y="-14.3" font-family="Times,serif" font-size="14.00">class = A+</text>
</g>
<!-- 15&#45;&gt;17 -->
<g id="edge17" class="edge">
<title>15&#45;&gt;17</title>
<path fill="none" stroke="black" d="M459.79,-71.72C460.34,-63.89 460.99,-54.59 461.6,-45.99"/>
<polygon fill="black" stroke="black" points="465.09,-46.22 462.3,-36 458.11,-45.73 465.09,-46.22"/>
</g>
</g>
</svg>
