<?xml version="1.0" encoding="UTF-8" standalone="no"?>
<!DOCTYPE svg PUBLIC "-//W3C//DTD SVG 1.1//EN"
 "http://www.w3.org/Graphics/SVG/1.1/DTD/svg11.dtd">
<!-- Generated by graphviz version 2.48.0 (0)
 -->
<!-- Title: Tree Pages: 1 -->
<svg width="517pt" height="414pt"
 viewBox="0.00 0.00 517.00 414.00" xmlns="http://www.w3.org/2000/svg" xmlns:xlink="http://www.w3.org/1999/xlink">
<g id="graph0" class="graph" transform="scale(1 1) rotate(0) translate(4 410)">
<title>Tree</title>
<polygon fill="white" stroke="transparent" points="-4,4 -4,-410 513,-410 513,4 -4,4"/>
<!-- 0 -->
<g id="node1" class="node">
<title>0</title>
<polygon fill="none" stroke="black" points="191.5,-406 94.5,-406 94.5,-368 191.5,-368 191.5,-406"/>
<text text-anchor="middle" x="143" y="-390.8" font-family="Times,serif" font-size="14.00">lab3 &lt;= 83.5</text>
<text text-anchor="middle" x="143" y="-375.8" font-family="Times,serif" font-size="14.00">class = not A+</text>
</g>
<!-- 1 -->
<g id="node2" class="node">
<title>1</title>
<polygon fill="none" stroke="black" points="134.5,-331 37.5,-331 37.5,-295 134.5,-295 134.5,-331"/>
<text text-anchor="middle" x="86" y="-309.3" font-family="Times,serif" font-size="14.00">class = not A+</text>
</g>
<!-- 0&#45;&gt;1 -->
<g id="edge1" class="edge">
<title>0&#45;&gt;1</title>
<path fill="none" stroke="black" d="M128.62,-367.83C121.78,-359.2 113.49,-348.73 106.05,-339.33"/>
<polygon fill="black" stroke="black" points="108.74,-337.09 99.79,-331.42 103.25,-341.43 108.74,-337.09"/>
<text text-anchor="middle" x="96.9" y="-352.55" font-family="Times,serif" font-size="14.00">True</text>
</g>
<!-- 2 -->
<g id="node3" class="node">
<title>2</title>
<polygon fill="none" stroke="black" points="247.5,-332 152.5,-332 152.5,-294 247.5,-294 247.5,-332"/>
<text text-anchor="middle" x="200" y="-316.8" font-family="Times,serif" font-size="14.00">quiz1 &lt;= 83.5</text>
<text text-anchor="middle" x="200" y="-301.8" font-family="Times,serif" font-size="14.00">class = A+</text>
</g>
<!-- 0&#45;&gt;2 -->
<g id="edge2" class="edge">
<title>0&#45;&gt;2</title>
<path fill="none" stroke="black" d="M157.38,-367.83C163.95,-359.54 171.85,-349.56 179.06,-340.45"/>
<polygon fill="black" stroke="black" points="181.96,-342.43 185.42,-332.41 176.47,-338.08 181.96,-342.43"/>
<text text-anchor="middle" x="188.31" y="-353.55" font-family="Times,serif" font-size="14.00">False</text>
</g>
<!-- 3 -->
<g id="node4" class="node">
<title>3</title>
<polygon fill="none" stroke="black" points="191.5,-258 94.5,-258 94.5,-220 191.5,-220 191.5,-258"/>
<text text-anchor="middle" x="143" y="-242.8" font-family="Times,serif" font-size="14.00">lab2 &lt;= 88.0</text>
<text text-anchor="middle" x="143" y="-227.8" font-family="Times,serif" font-size="14.00">class = not A+</text>
</g>
<!-- 2&#45;&gt;3 -->
<g id="edge3" class="edge">
<title>2&#45;&gt;3</title>
<path fill="none" stroke="black" d="M185.62,-293.83C179.05,-285.54 171.15,-275.56 163.94,-266.45"/>
<polygon fill="black" stroke="black" points="166.53,-264.08 157.58,-258.41 161.04,-268.43 166.53,-264.08"/>
</g>
<!-- 6 -->
<g id="node7" class="node">
<title>6</title>
<polygon fill="none" stroke="black" points="302,-258 214,-258 214,-220 302,-220 302,-258"/>
<text text-anchor="middle" x="258" y="-242.8" font-family="Times,serif" font-size="14.00">lab4 &lt;= 83.5</text>
<text text-anchor="middle" x="258" y="-227.8" font-family="Times,serif" font-size="14.00">class = A+</text>
</g>
<!-- 2&#45;&gt;6 -->
<g id="edge6" class="edge">
<title>2&#45;&gt;6</title>
<path fill="none" stroke="black" d="M214.64,-293.83C221.32,-285.54 229.36,-275.56 236.69,-266.45"/>
<polygon fill="black" stroke="black" points="239.62,-268.4 243.17,-258.41 234.17,-264.01 239.62,-268.4"/>
</g>
<!-- 4 -->
<g id="node5" class="node">
<title>4</title>
<polygon fill="none" stroke="black" points="76,-183 0,-183 0,-147 76,-147 76,-183"/>
<text text-anchor="middle" x="38" y="-161.3" font-family="Times,serif" font-size="14.00">class = A+</text>
</g>
<!-- 3&#45;&gt;4 -->
<g id="edge4" class="edge">
<title>3&#45;&gt;4</title>
<path fill="none" stroke="black" d="M116.5,-219.83C102.79,-210.43 85.91,-198.86 71.33,-188.85"/>
<polygon fill="black" stroke="black" points="73.27,-185.94 63.04,-183.17 69.31,-191.71 73.27,-185.94"/>
</g>
<!-- 5 -->
<g id="node6" class="node">
<title>5</title>
<polygon fill="none" stroke="black" points="191.5,-183 94.5,-183 94.5,-147 191.5,-147 191.5,-183"/>
<text text-anchor="middle" x="143" y="-161.3" font-family="Times,serif" font-size="14.00">class = not A+</text>
</g>
<!-- 3&#45;&gt;5 -->
<g id="edge5" class="edge">
<title>3&#45;&gt;5</title>
<path fill="none" stroke="black" d="M143,-219.83C143,-211.89 143,-202.41 143,-193.63"/>
<polygon fill="black" stroke="black" points="146.5,-193.42 143,-183.42 139.5,-193.42 146.5,-193.42"/>
</g>
<!-- 7 -->
<g id="node8" class="node">
<title>7</title>
<polygon fill="none" stroke="black" points="306.5,-183 209.5,-183 209.5,-147 306.5,-147 306.5,-183"/>
<text text-anchor="middle" x="258" y="-161.3" font-family="Times,serif" font-size="14.00">class = not A+</text>
</g>
<!-- 6&#45;&gt;7 -->
<g id="edge7" class="edge">
<title>6&#45;&gt;7</title>
<path fill="none" stroke="black" d="M258,-219.83C258,-211.89 258,-202.41 258,-193.63"/>
<polygon fill="black" stroke="black" points="261.5,-193.42 258,-183.42 254.5,-193.42 261.5,-193.42"/>
</g>
<!-- 8 -->
<g id="node9" class="node">
<title>8</title>
<polygon fill="none" stroke="black" points="413,-184 325,-184 325,-146 413,-146 413,-184"/>
<text text-anchor="middle" x="369" y="-168.8" font-family="Times,serif" font-size="14.00">lab2 &lt;= 94.5</text>
<text text-anchor="middle" x="369" y="-153.8" font-family="Times,serif" font-size="14.00">class = A+</text>
</g>
<!-- 6&#45;&gt;8 -->
<g id="edge8" class="edge">
<title>6&#45;&gt;8</title>
<path fill="none" stroke="black" d="M286.01,-219.83C300.08,-210.71 317.29,-199.54 332.39,-189.74"/>
<polygon fill="black" stroke="black" points="334.51,-192.54 341,-184.16 330.7,-186.67 334.51,-192.54"/>
</g>
<!-- 9 -->
<g id="node10" class="node">
<title>9</title>
<polygon fill="none" stroke="black" points="357,-109 281,-109 281,-73 357,-73 357,-109"/>
<text text-anchor="middle" x="319" y="-87.3" font-family="Times,serif" font-size="14.00">class = A+</text>
</g>
<!-- 8&#45;&gt;9 -->
<g id="edge9" class="edge">
<title>8&#45;&gt;9</title>
<path fill="none" stroke="black" d="M356.38,-145.83C350.51,-137.37 343.41,-127.15 336.99,-117.9"/>
<polygon fill="black" stroke="black" points="339.67,-115.64 331.1,-109.42 333.92,-119.63 339.67,-115.64"/>
</g>
<!-- 10 -->
<g id="node11" class="node">
<title>10</title>
<polygon fill="none" stroke="black" points="463,-110 375,-110 375,-72 463,-72 463,-110"/>
<text text-anchor="middle" x="419" y="-94.8" font-family="Times,serif" font-size="14.00">lab1 &lt;= 96.5</text>
<text text-anchor="middle" x="419" y="-79.8" font-family="Times,serif" font-size="14.00">class = A+</text>
</g>
<!-- 8&#45;&gt;10 -->
<g id="edge10" class="edge">
<title>8&#45;&gt;10</title>
<path fill="none" stroke="black" d="M381.62,-145.83C387.32,-137.62 394.17,-127.76 400.44,-118.73"/>
<polygon fill="black" stroke="black" points="403.38,-120.62 406.21,-110.41 397.63,-116.63 403.38,-120.62"/>
</g>
<!-- 11 -->
<g id="node12" class="node">
<title>11</title>
<polygon fill="none" stroke="black" points="414.5,-36 317.5,-36 317.5,0 414.5,0 414.5,-36"/>
<text text-anchor="middle" x="366" y="-14.3" font-family="Times,serif" font-size="14.00">class = not A+</text>
</g>
<!-- 10&#45;&gt;11 -->
<g id="edge11" class="edge">
<title>10&#45;&gt;11</title>
<path fill="none" stroke="black" d="M405.35,-71.72C399.06,-63.29 391.49,-53.15 384.68,-44.02"/>
<polygon fill="black" stroke="black" points="387.48,-41.92 378.69,-36 381.87,-46.11 387.48,-41.92"/>
</g>
<!-- 12 -->
<g id="node13" class="node">
<title>12</title>
<polygon fill="none" stroke="black" points="509,-36 433,-36 433,0 509,0 509,-36"/>
<text text-anchor="middle" x="471" y="-14.3" font-family="Times,serif" font-size="14.00">class = A+</text>
</g>
<!-- 10&#45;&gt;12 -->
<g id="edge12" class="edge">
<title>10&#45;&gt;12</title>
<path fill="none" stroke="black" d="M432.39,-71.72C438.5,-63.37 445.84,-53.35 452.47,-44.3"/>
<polygon fill="black" stroke="black" points="455.46,-46.14 458.55,-36 449.81,-42 455.46,-46.14"/>
</g>
</g>
</svg>
