<?xml version="1.0" encoding="UTF-8" standalone="no"?>
<!DOCTYPE svg PUBLIC "-//W3C//DTD SVG 1.1//EN"
 "http://www.w3.org/Graphics/SVG/1.1/DTD/svg11.dtd">
<!-- Generated by graphviz version 5.0.1 (0)
 -->
<!-- Title: Tree Pages: 1 -->
<svg width="538pt" height="414pt"
 viewBox="0.00 0.00 537.50 414.00" xmlns="http://www.w3.org/2000/svg" xmlns:xlink="http://www.w3.org/1999/xlink">
<g id="graph0" class="graph" transform="scale(1 1) rotate(0) translate(4 410)">
<title>Tree</title>
<polygon fill="white" stroke="none" points="-4,4 -4,-410 533.5,-410 533.5,4 -4,4"/>
<!-- 0 -->
<g id="node1" class="node">
<title>0</title>
<polygon fill="none" stroke="black" points="299,-406 196,-406 196,-368 299,-368 299,-406"/>
<text text-anchor="middle" x="247.5" y="-390.8" font-family="Helvetica,sans-Serif" font-size="14.00">lab4 &lt;= 0.5</text>
<text text-anchor="middle" x="247.5" y="-375.8" font-family="Helvetica,sans-Serif" font-size="14.00">class = not A+</text>
</g>
<!-- 1 -->
<g id="node2" class="node">
<title>1</title>
<polygon fill="none" stroke="black" points="223,-332 120,-332 120,-294 223,-294 223,-332"/>
<text text-anchor="middle" x="171.5" y="-316.8" font-family="Helvetica,sans-Serif" font-size="14.00">lab1 &lt;= 0.5</text>
<text text-anchor="middle" x="171.5" y="-301.8" font-family="Helvetica,sans-Serif" font-size="14.00">class = not A+</text>
</g>
<!-- 0&#45;&gt;1 -->
<g id="edge1" class="edge">
<title>0&#45;&gt;1</title>
<path fill="none" stroke="black" d="M228.32,-367.83C219.14,-359.13 208,-348.58 198.02,-339.13"/>
<polygon fill="black" stroke="black" points="200.34,-336.5 190.67,-332.16 195.52,-341.58 200.34,-336.5"/>
<text text-anchor="middle" x="191.35" y="-353.45" font-family="Helvetica,sans-Serif" font-size="14.00">True</text>
</g>
<!-- 8 -->
<g id="node9" class="node">
<title>8</title>
<polygon fill="none" stroke="black" points="405.5,-332 241.5,-332 241.5,-294 405.5,-294 405.5,-332"/>
<text text-anchor="middle" x="323.5" y="-316.8" font-family="Helvetica,sans-Serif" font-size="14.00">class_attendance &lt;= 0.5</text>
<text text-anchor="middle" x="323.5" y="-301.8" font-family="Helvetica,sans-Serif" font-size="14.00">class = A+</text>
</g>
<!-- 0&#45;&gt;8 -->
<g id="edge8" class="edge">
<title>0&#45;&gt;8</title>
<path fill="none" stroke="black" d="M266.68,-367.83C275.86,-359.13 287,-348.58 296.98,-339.13"/>
<polygon fill="black" stroke="black" points="299.48,-341.58 304.33,-332.16 294.66,-336.5 299.48,-341.58"/>
<text text-anchor="middle" x="303.65" y="-353.45" font-family="Helvetica,sans-Serif" font-size="14.00">False</text>
</g>
<!-- 2 -->
<g id="node3" class="node">
<title>2</title>
<polygon fill="none" stroke="black" points="115,-258 12,-258 12,-220 115,-220 115,-258"/>
<text text-anchor="middle" x="63.5" y="-242.8" font-family="Helvetica,sans-Serif" font-size="14.00">lab3 &lt;= 0.5</text>
<text text-anchor="middle" x="63.5" y="-227.8" font-family="Helvetica,sans-Serif" font-size="14.00">class = not A+</text>
</g>
<!-- 1&#45;&gt;2 -->
<g id="edge2" class="edge">
<title>1&#45;&gt;2</title>
<path fill="none" stroke="black" d="M144.25,-293.83C130.56,-284.71 113.81,-273.54 99.12,-263.74"/>
<polygon fill="black" stroke="black" points="101.01,-260.8 90.74,-258.16 97.12,-266.62 101.01,-260.8"/>
</g>
<!-- 7 -->
<g id="node8" class="node">
<title>7</title>
<polygon fill="none" stroke="black" points="236,-257 133,-257 133,-221 236,-221 236,-257"/>
<text text-anchor="middle" x="184.5" y="-235.3" font-family="Helvetica,sans-Serif" font-size="14.00">class = not A+</text>
</g>
<!-- 1&#45;&gt;7 -->
<g id="edge7" class="edge">
<title>1&#45;&gt;7</title>
<path fill="none" stroke="black" d="M174.78,-293.83C176.23,-285.81 177.96,-276.2 179.56,-267.34"/>
<polygon fill="black" stroke="black" points="183.02,-267.88 181.36,-257.42 176.13,-266.64 183.02,-267.88"/>
</g>
<!-- 3 -->
<g id="node4" class="node">
<title>3</title>
<polygon fill="none" stroke="black" points="105,-184 2,-184 2,-146 105,-146 105,-184"/>
<text text-anchor="middle" x="53.5" y="-168.8" font-family="Helvetica,sans-Serif" font-size="14.00">quiz1 &lt;= 0.5</text>
<text text-anchor="middle" x="53.5" y="-153.8" font-family="Helvetica,sans-Serif" font-size="14.00">class = not A+</text>
</g>
<!-- 2&#45;&gt;3 -->
<g id="edge3" class="edge">
<title>2&#45;&gt;3</title>
<path fill="none" stroke="black" d="M60.98,-219.83C59.91,-212.13 58.64,-202.97 57.45,-194.42"/>
<polygon fill="black" stroke="black" points="60.9,-193.84 56.06,-184.41 53.97,-194.8 60.9,-193.84"/>
</g>
<!-- 6 -->
<g id="node7" class="node">
<title>6</title>
<polygon fill="none" stroke="black" points="203.5,-183 123.5,-183 123.5,-147 203.5,-147 203.5,-183"/>
<text text-anchor="middle" x="163.5" y="-161.3" font-family="Helvetica,sans-Serif" font-size="14.00">class = A+</text>
</g>
<!-- 2&#45;&gt;6 -->
<g id="edge6" class="edge">
<title>2&#45;&gt;6</title>
<path fill="none" stroke="black" d="M88.73,-219.83C101.67,-210.52 117.57,-199.07 131.37,-189.13"/>
<polygon fill="black" stroke="black" points="133.58,-191.85 139.65,-183.17 129.49,-186.17 133.58,-191.85"/>
</g>
<!-- 4 -->
<g id="node5" class="node">
<title>4</title>
<polygon fill="none" stroke="black" points="103,-109 0,-109 0,-73 103,-73 103,-109"/>
<text text-anchor="middle" x="51.5" y="-87.3" font-family="Helvetica,sans-Serif" font-size="14.00">class = not A+</text>
</g>
<!-- 3&#45;&gt;4 -->
<g id="edge4" class="edge">
<title>3&#45;&gt;4</title>
<path fill="none" stroke="black" d="M53,-145.83C52.77,-137.89 52.51,-128.41 52.27,-119.63"/>
<polygon fill="black" stroke="black" points="55.76,-119.32 51.98,-109.42 48.76,-119.51 55.76,-119.32"/>
</g>
<!-- 5 -->
<g id="node6" class="node">
<title>5</title>
<polygon fill="none" stroke="black" points="201.5,-109 121.5,-109 121.5,-73 201.5,-73 201.5,-109"/>
<text text-anchor="middle" x="161.5" y="-87.3" font-family="Helvetica,sans-Serif" font-size="14.00">class = A+</text>
</g>
<!-- 3&#45;&gt;5 -->
<g id="edge5" class="edge">
<title>3&#45;&gt;5</title>
<path fill="none" stroke="black" d="M80.75,-145.83C94.86,-136.43 112.22,-124.86 127.22,-114.85"/>
<polygon fill="black" stroke="black" points="129.36,-117.63 135.74,-109.17 125.48,-111.81 129.36,-117.63"/>
</g>
<!-- 9 -->
<g id="node10" class="node">
<title>9</title>
<polygon fill="none" stroke="black" points="362,-257 259,-257 259,-221 362,-221 362,-257"/>
<text text-anchor="middle" x="310.5" y="-235.3" font-family="Helvetica,sans-Serif" font-size="14.00">class = not A+</text>
</g>
<!-- 8&#45;&gt;9 -->
<g id="edge9" class="edge">
<title>8&#45;&gt;9</title>
<path fill="none" stroke="black" d="M320.22,-293.83C318.77,-285.81 317.04,-276.2 315.44,-267.34"/>
<polygon fill="black" stroke="black" points="318.87,-266.64 313.64,-257.42 311.98,-267.88 318.87,-266.64"/>
</g>
<!-- 10 -->
<g id="node11" class="node">
<title>10</title>
<polygon fill="none" stroke="black" points="465,-258 380,-258 380,-220 465,-220 465,-258"/>
<text text-anchor="middle" x="422.5" y="-242.8" font-family="Helvetica,sans-Serif" font-size="14.00">lab2 &lt;= 0.5</text>
<text text-anchor="middle" x="422.5" y="-227.8" font-family="Helvetica,sans-Serif" font-size="14.00">class = A+</text>
</g>
<!-- 8&#45;&gt;10 -->
<g id="edge10" class="edge">
<title>8&#45;&gt;10</title>
<path fill="none" stroke="black" d="M348.48,-293.83C360.79,-284.88 375.81,-273.96 389.09,-264.3"/>
<polygon fill="black" stroke="black" points="391.5,-266.88 397.53,-258.16 387.38,-261.21 391.5,-266.88"/>
</g>
<!-- 11 -->
<g id="node12" class="node">
<title>11</title>
<polygon fill="none" stroke="black" points="391.5,-183 311.5,-183 311.5,-147 391.5,-147 391.5,-183"/>
<text text-anchor="middle" x="351.5" y="-161.3" font-family="Helvetica,sans-Serif" font-size="14.00">class = A+</text>
</g>
<!-- 10&#45;&gt;11 -->
<g id="edge11" class="edge">
<title>10&#45;&gt;11</title>
<path fill="none" stroke="black" d="M404.58,-219.83C395.9,-211.02 385.33,-200.31 375.92,-190.76"/>
<polygon fill="black" stroke="black" points="378.19,-188.08 368.68,-183.42 373.21,-193 378.19,-188.08"/>
</g>
<!-- 12 -->
<g id="node13" class="node">
<title>12</title>
<polygon fill="none" stroke="black" points="501.5,-184 409.5,-184 409.5,-146 501.5,-146 501.5,-184"/>
<text text-anchor="middle" x="455.5" y="-168.8" font-family="Helvetica,sans-Serif" font-size="14.00">quiz1 &lt;= 0.5</text>
<text text-anchor="middle" x="455.5" y="-153.8" font-family="Helvetica,sans-Serif" font-size="14.00">class = A+</text>
</g>
<!-- 10&#45;&gt;12 -->
<g id="edge12" class="edge">
<title>10&#45;&gt;12</title>
<path fill="none" stroke="black" d="M430.83,-219.83C434.47,-211.88 438.83,-202.37 442.86,-193.57"/>
<polygon fill="black" stroke="black" points="446.08,-194.96 447.06,-184.41 439.71,-192.05 446.08,-194.96"/>
</g>
<!-- 13 -->
<g id="node14" class="node">
<title>13</title>
<polygon fill="none" stroke="black" points="431.5,-110 283.5,-110 283.5,-72 431.5,-72 431.5,-110"/>
<text text-anchor="middle" x="357.5" y="-94.8" font-family="Helvetica,sans-Serif" font-size="14.00">ml_experience &lt;= 0.5</text>
<text text-anchor="middle" x="357.5" y="-79.8" font-family="Helvetica,sans-Serif" font-size="14.00">class = A+</text>
</g>
<!-- 12&#45;&gt;13 -->
<g id="edge13" class="edge">
<title>12&#45;&gt;13</title>
<path fill="none" stroke="black" d="M430.77,-145.83C418.58,-136.88 403.72,-125.96 390.57,-116.3"/>
<polygon fill="black" stroke="black" points="392.35,-113.26 382.22,-110.16 388.21,-118.9 392.35,-113.26"/>
</g>
<!-- 16 -->
<g id="node17" class="node">
<title>16</title>
<polygon fill="none" stroke="black" points="529.5,-109 449.5,-109 449.5,-73 529.5,-73 529.5,-109"/>
<text text-anchor="middle" x="489.5" y="-87.3" font-family="Helvetica,sans-Serif" font-size="14.00">class = A+</text>
</g>
<!-- 12&#45;&gt;16 -->
<g id="edge16" class="edge">
<title>12&#45;&gt;16</title>
<path fill="none" stroke="black" d="M464.08,-145.83C467.99,-137.55 472.7,-127.57 477,-118.47"/>
<polygon fill="black" stroke="black" points="480.17,-119.95 481.27,-109.42 473.84,-116.97 480.17,-119.95"/>
</g>
<!-- 14 -->
<g id="node15" class="node">
<title>14</title>
<polygon fill="none" stroke="black" points="348.5,-36 268.5,-36 268.5,0 348.5,0 348.5,-36"/>
<text text-anchor="middle" x="308.5" y="-14.3" font-family="Helvetica,sans-Serif" font-size="14.00">class = A+</text>
</g>
<!-- 13&#45;&gt;14 -->
<g id="edge14" class="edge">
<title>13&#45;&gt;14</title>
<path fill="none" stroke="black" d="M344.88,-71.72C339.12,-63.37 332.21,-53.35 325.96,-44.3"/>
<polygon fill="black" stroke="black" points="328.8,-42.25 320.23,-36 323.03,-46.22 328.8,-42.25"/>
</g>
<!-- 15 -->
<g id="node16" class="node">
<title>15</title>
<polygon fill="none" stroke="black" points="446.5,-36 366.5,-36 366.5,0 446.5,0 446.5,-36"/>
<text text-anchor="middle" x="406.5" y="-14.3" font-family="Helvetica,sans-Serif" font-size="14.00">class = A+</text>
</g>
<!-- 13&#45;&gt;15 -->
<g id="edge15" class="edge">
<title>13&#45;&gt;15</title>
<path fill="none" stroke="black" d="M370.12,-71.72C375.88,-63.37 382.79,-53.35 389.04,-44.3"/>
<polygon fill="black" stroke="black" points="391.97,-46.22 394.77,-36 386.2,-42.25 391.97,-46.22"/>
</g>
</g>
</svg>
