<?xml version="1.0" encoding="UTF-8" standalone="no"?>
<!DOCTYPE svg PUBLIC "-//W3C//DTD SVG 1.1//EN"
 "http://www.w3.org/Graphics/SVG/1.1/DTD/svg11.dtd">
<!-- Generated by graphviz version 5.0.1 (0)
 -->
<!-- Title: Tree Pages: 1 -->
<svg width="594pt" height="491pt"
 viewBox="0.00 0.00 593.50 491.00" xmlns="http://www.w3.org/2000/svg" xmlns:xlink="http://www.w3.org/1999/xlink">
<g id="graph0" class="graph" transform="scale(1 1) rotate(0) translate(4 487)">
<title>Tree</title>
<polygon fill="white" stroke="none" points="-4,4 -4,-487 589.5,-487 589.5,4 -4,4"/>
<!-- 0 -->
<g id="node1" class="node">
<title>0</title>
<polygon fill="none" stroke="black" points="228,-483 111,-483 111,-430 228,-430 228,-483"/>
<text text-anchor="middle" x="169.5" y="-467.8" font-family="Helvetica,sans-Serif" font-size="14.00">lab3 &lt;= 83.5</text>
<text text-anchor="middle" x="169.5" y="-452.8" font-family="Helvetica,sans-Serif" font-size="14.00">counts = [10, 11]</text>
<text text-anchor="middle" x="169.5" y="-437.8" font-family="Helvetica,sans-Serif" font-size="14.00">class = not A+</text>
</g>
<!-- 1 -->
<g id="node2" class="node">
<title>1</title>
<polygon fill="none" stroke="black" points="159,-386.5 56,-386.5 56,-348.5 159,-348.5 159,-386.5"/>
<text text-anchor="middle" x="107.5" y="-371.3" font-family="Helvetica,sans-Serif" font-size="14.00">counts = [0, 6]</text>
<text text-anchor="middle" x="107.5" y="-356.3" font-family="Helvetica,sans-Serif" font-size="14.00">class = not A+</text>
</g>
<!-- 0&#45;&gt;1 -->
<g id="edge1" class="edge">
<title>0&#45;&gt;1</title>
<path fill="none" stroke="black" d="M151.23,-429.87C143.4,-418.87 134.25,-406.03 126.35,-394.95"/>
<polygon fill="black" stroke="black" points="128.99,-392.62 120.33,-386.51 123.29,-396.68 128.99,-392.62"/>
<text text-anchor="middle" x="116.2" y="-407.46" font-family="Helvetica,sans-Serif" font-size="14.00">True</text>
</g>
<!-- 2 -->
<g id="node3" class="node">
<title>2</title>
<polygon fill="none" stroke="black" points="287.5,-394 177.5,-394 177.5,-341 287.5,-341 287.5,-394"/>
<text text-anchor="middle" x="232.5" y="-378.8" font-family="Helvetica,sans-Serif" font-size="14.00">quiz1 &lt;= 83.5</text>
<text text-anchor="middle" x="232.5" y="-363.8" font-family="Helvetica,sans-Serif" font-size="14.00">counts = [10, 5]</text>
<text text-anchor="middle" x="232.5" y="-348.8" font-family="Helvetica,sans-Serif" font-size="14.00">class = A+</text>
</g>
<!-- 0&#45;&gt;2 -->
<g id="edge2" class="edge">
<title>0&#45;&gt;2</title>
<path fill="none" stroke="black" d="M188.06,-429.87C194.29,-421.27 201.33,-411.55 207.94,-402.42"/>
<polygon fill="black" stroke="black" points="210.82,-404.4 213.85,-394.25 205.15,-400.3 210.82,-404.4"/>
<text text-anchor="middle" x="217.8" y="-415.24" font-family="Helvetica,sans-Serif" font-size="14.00">False</text>
</g>
<!-- 3 -->
<g id="node4" class="node">
<title>3</title>
<polygon fill="none" stroke="black" points="224,-305 121,-305 121,-252 224,-252 224,-305"/>
<text text-anchor="middle" x="172.5" y="-289.8" font-family="Helvetica,sans-Serif" font-size="14.00">lab3 &lt;= 94.5</text>
<text text-anchor="middle" x="172.5" y="-274.8" font-family="Helvetica,sans-Serif" font-size="14.00">counts = [1, 3]</text>
<text text-anchor="middle" x="172.5" y="-259.8" font-family="Helvetica,sans-Serif" font-size="14.00">class = not A+</text>
</g>
<!-- 2&#45;&gt;3 -->
<g id="edge3" class="edge">
<title>2&#45;&gt;3</title>
<path fill="none" stroke="black" d="M214.82,-340.87C208.95,-332.36 202.33,-322.75 196.09,-313.7"/>
<polygon fill="black" stroke="black" points="198.82,-311.49 190.26,-305.25 193.05,-315.47 198.82,-311.49"/>
</g>
<!-- 6 -->
<g id="node7" class="node">
<title>6</title>
<polygon fill="none" stroke="black" points="344.5,-305 242.5,-305 242.5,-252 344.5,-252 344.5,-305"/>
<text text-anchor="middle" x="293.5" y="-289.8" font-family="Helvetica,sans-Serif" font-size="14.00">lab4 &lt;= 83.5</text>
<text text-anchor="middle" x="293.5" y="-274.8" font-family="Helvetica,sans-Serif" font-size="14.00">counts = [9, 2]</text>
<text text-anchor="middle" x="293.5" y="-259.8" font-family="Helvetica,sans-Serif" font-size="14.00">class = A+</text>
</g>
<!-- 2&#45;&gt;6 -->
<g id="edge6" class="edge">
<title>2&#45;&gt;6</title>
<path fill="none" stroke="black" d="M250.47,-340.87C256.44,-332.36 263.18,-322.75 269.52,-313.7"/>
<polygon fill="black" stroke="black" points="272.57,-315.45 275.45,-305.25 266.84,-311.43 272.57,-315.45"/>
</g>
<!-- 4 -->
<g id="node5" class="node">
<title>4</title>
<polygon fill="none" stroke="black" points="103,-208.5 0,-208.5 0,-170.5 103,-170.5 103,-208.5"/>
<text text-anchor="middle" x="51.5" y="-193.3" font-family="Helvetica,sans-Serif" font-size="14.00">counts = [0, 3]</text>
<text text-anchor="middle" x="51.5" y="-178.3" font-family="Helvetica,sans-Serif" font-size="14.00">class = not A+</text>
</g>
<!-- 3&#45;&gt;4 -->
<g id="edge4" class="edge">
<title>3&#45;&gt;4</title>
<path fill="none" stroke="black" d="M136.85,-251.87C120.35,-240 100.86,-225.99 84.67,-214.35"/>
<polygon fill="black" stroke="black" points="86.71,-211.5 76.54,-208.51 82.62,-217.19 86.71,-211.5"/>
</g>
<!-- 5 -->
<g id="node6" class="node">
<title>5</title>
<polygon fill="none" stroke="black" points="223.5,-208.5 121.5,-208.5 121.5,-170.5 223.5,-170.5 223.5,-208.5"/>
<text text-anchor="middle" x="172.5" y="-193.3" font-family="Helvetica,sans-Serif" font-size="14.00">counts = [1, 0]</text>
<text text-anchor="middle" x="172.5" y="-178.3" font-family="Helvetica,sans-Serif" font-size="14.00">class = A+</text>
</g>
<!-- 3&#45;&gt;5 -->
<g id="edge5" class="edge">
<title>3&#45;&gt;5</title>
<path fill="none" stroke="black" d="M172.5,-251.87C172.5,-241.42 172.5,-229.3 172.5,-218.61"/>
<polygon fill="black" stroke="black" points="176,-218.51 172.5,-208.51 169,-218.51 176,-218.51"/>
</g>
<!-- 7 -->
<g id="node8" class="node">
<title>7</title>
<polygon fill="none" stroke="black" points="345,-208.5 242,-208.5 242,-170.5 345,-170.5 345,-208.5"/>
<text text-anchor="middle" x="293.5" y="-193.3" font-family="Helvetica,sans-Serif" font-size="14.00">counts = [0, 1]</text>
<text text-anchor="middle" x="293.5" y="-178.3" font-family="Helvetica,sans-Serif" font-size="14.00">class = not A+</text>
</g>
<!-- 6&#45;&gt;7 -->
<g id="edge7" class="edge">
<title>6&#45;&gt;7</title>
<path fill="none" stroke="black" d="M293.5,-251.87C293.5,-241.42 293.5,-229.3 293.5,-218.61"/>
<polygon fill="black" stroke="black" points="297,-218.51 293.5,-208.51 290,-218.51 297,-218.51"/>
</g>
<!-- 8 -->
<g id="node9" class="node">
<title>8</title>
<polygon fill="none" stroke="black" points="465.5,-216 363.5,-216 363.5,-163 465.5,-163 465.5,-216"/>
<text text-anchor="middle" x="414.5" y="-200.8" font-family="Helvetica,sans-Serif" font-size="14.00">lab2 &lt;= 94.5</text>
<text text-anchor="middle" x="414.5" y="-185.8" font-family="Helvetica,sans-Serif" font-size="14.00">counts = [9, 1]</text>
<text text-anchor="middle" x="414.5" y="-170.8" font-family="Helvetica,sans-Serif" font-size="14.00">class = A+</text>
</g>
<!-- 6&#45;&gt;8 -->
<g id="edge8" class="edge">
<title>6&#45;&gt;8</title>
<path fill="none" stroke="black" d="M329.15,-251.87C342.08,-242.57 356.85,-231.95 370.42,-222.2"/>
<polygon fill="black" stroke="black" points="372.61,-224.93 378.69,-216.25 368.52,-219.25 372.61,-224.93"/>
</g>
<!-- 9 -->
<g id="node10" class="node">
<title>9</title>
<polygon fill="none" stroke="black" points="405.5,-119.5 303.5,-119.5 303.5,-81.5 405.5,-81.5 405.5,-119.5"/>
<text text-anchor="middle" x="354.5" y="-104.3" font-family="Helvetica,sans-Serif" font-size="14.00">counts = [8, 0]</text>
<text text-anchor="middle" x="354.5" y="-89.3" font-family="Helvetica,sans-Serif" font-size="14.00">class = A+</text>
</g>
<!-- 8&#45;&gt;9 -->
<g id="edge9" class="edge">
<title>8&#45;&gt;9</title>
<path fill="none" stroke="black" d="M396.82,-162.87C389.24,-151.87 380.39,-139.03 372.74,-127.95"/>
<polygon fill="black" stroke="black" points="375.48,-125.75 366.92,-119.51 369.71,-129.73 375.48,-125.75"/>
</g>
<!-- 10 -->
<g id="node11" class="node">
<title>10</title>
<polygon fill="none" stroke="black" points="525.5,-127 423.5,-127 423.5,-74 525.5,-74 525.5,-127"/>
<text text-anchor="middle" x="474.5" y="-111.8" font-family="Helvetica,sans-Serif" font-size="14.00">quiz1 &lt;= 92.5</text>
<text text-anchor="middle" x="474.5" y="-96.8" font-family="Helvetica,sans-Serif" font-size="14.00">counts = [1, 1]</text>
<text text-anchor="middle" x="474.5" y="-81.8" font-family="Helvetica,sans-Serif" font-size="14.00">class = A+</text>
</g>
<!-- 8&#45;&gt;10 -->
<g id="edge10" class="edge">
<title>8&#45;&gt;10</title>
<path fill="none" stroke="black" d="M432.18,-162.87C438.05,-154.36 444.67,-144.75 450.91,-135.7"/>
<polygon fill="black" stroke="black" points="453.95,-137.47 456.74,-127.25 448.18,-133.49 453.95,-137.47"/>
</g>
<!-- 11 -->
<g id="node12" class="node">
<title>11</title>
<polygon fill="none" stroke="black" points="465,-38 362,-38 362,0 465,0 465,-38"/>
<text text-anchor="middle" x="413.5" y="-22.8" font-family="Helvetica,sans-Serif" font-size="14.00">counts = [0, 1]</text>
<text text-anchor="middle" x="413.5" y="-7.8" font-family="Helvetica,sans-Serif" font-size="14.00">class = not A+</text>
</g>
<!-- 10&#45;&gt;11 -->
<g id="edge11" class="edge">
<title>10&#45;&gt;11</title>
<path fill="none" stroke="black" d="M454.86,-73.91C448.11,-65.1 440.53,-55.23 433.73,-46.36"/>
<polygon fill="black" stroke="black" points="436.36,-44.04 427.49,-38.24 430.81,-48.3 436.36,-44.04"/>
</g>
<!-- 12 -->
<g id="node13" class="node">
<title>12</title>
<polygon fill="none" stroke="black" points="585.5,-38 483.5,-38 483.5,0 585.5,0 585.5,-38"/>
<text text-anchor="middle" x="534.5" y="-22.8" font-family="Helvetica,sans-Serif" font-size="14.00">counts = [1, 0]</text>
<text text-anchor="middle" x="534.5" y="-7.8" font-family="Helvetica,sans-Serif" font-size="14.00">class = A+</text>
</g>
<!-- 10&#45;&gt;12 -->
<g id="edge12" class="edge">
<title>10&#45;&gt;12</title>
<path fill="none" stroke="black" d="M493.81,-73.91C500.46,-65.1 507.91,-55.23 514.6,-46.36"/>
<polygon fill="black" stroke="black" points="517.5,-48.33 520.73,-38.24 511.92,-44.11 517.5,-48.33"/>
</g>
</g>
</svg>
