<?xml version="1.0" encoding="UTF-8" standalone="no"?>
<!DOCTYPE svg PUBLIC "-//W3C//DTD SVG 1.1//EN"
 "http://www.w3.org/Graphics/SVG/1.1/DTD/svg11.dtd">
<!-- Generated by graphviz version 2.48.0 (0)
 -->
<!-- Title: Tree Pages: 1 -->
<svg width="570pt" height="491pt"
 viewBox="0.00 0.00 570.00 491.00" xmlns="http://www.w3.org/2000/svg" xmlns:xlink="http://www.w3.org/1999/xlink">
<g id="graph0" class="graph" transform="scale(1 1) rotate(0) translate(4 487)">
<title>Tree</title>
<polygon fill="white" stroke="transparent" points="-4,4 -4,-487 566,-487 566,4 -4,4"/>
<!-- 0 -->
<g id="node1" class="node">
<title>0</title>
<polygon fill="none" stroke="black" points="219,-483 107,-483 107,-430 219,-430 219,-483"/>
<text text-anchor="middle" x="163" y="-467.8" font-family="Times,serif" font-size="14.00">lab3 &lt;= 83.5</text>
<text text-anchor="middle" x="163" y="-452.8" font-family="Times,serif" font-size="14.00">counts = [10, 11]</text>
<text text-anchor="middle" x="163" y="-437.8" font-family="Times,serif" font-size="14.00">class = not A+</text>
</g>
<!-- 1 -->
<g id="node2" class="node">
<title>1</title>
<polygon fill="none" stroke="black" points="152,-386.5 54,-386.5 54,-348.5 152,-348.5 152,-386.5"/>
<text text-anchor="middle" x="103" y="-371.3" font-family="Times,serif" font-size="14.00">counts = [0, 6]</text>
<text text-anchor="middle" x="103" y="-356.3" font-family="Times,serif" font-size="14.00">class = not A+</text>
</g>
<!-- 0&#45;&gt;1 -->
<g id="edge1" class="edge">
<title>0&#45;&gt;1</title>
<path fill="none" stroke="black" d="M145.32,-429.87C137.74,-418.87 128.89,-406.03 121.24,-394.95"/>
<polygon fill="black" stroke="black" points="123.98,-392.75 115.42,-386.51 118.21,-396.73 123.98,-392.75"/>
<text text-anchor="middle" x="110.9" y="-407.4" font-family="Times,serif" font-size="14.00">True</text>
</g>
<!-- 2 -->
<g id="node3" class="node">
<title>2</title>
<polygon fill="none" stroke="black" points="275.5,-394 170.5,-394 170.5,-341 275.5,-341 275.5,-394"/>
<text text-anchor="middle" x="223" y="-378.8" font-family="Times,serif" font-size="14.00">quiz1 &lt;= 83.5</text>
<text text-anchor="middle" x="223" y="-363.8" font-family="Times,serif" font-size="14.00">counts = [10, 5]</text>
<text text-anchor="middle" x="223" y="-348.8" font-family="Times,serif" font-size="14.00">class = A+</text>
</g>
<!-- 0&#45;&gt;2 -->
<g id="edge2" class="edge">
<title>0&#45;&gt;2</title>
<path fill="none" stroke="black" d="M180.68,-429.87C186.55,-421.36 193.17,-411.75 199.41,-402.7"/>
<polygon fill="black" stroke="black" points="202.45,-404.47 205.24,-394.25 196.68,-400.49 202.45,-404.47"/>
<text text-anchor="middle" x="209.76" y="-415.14" font-family="Times,serif" font-size="14.00">False</text>
</g>
<!-- 3 -->
<g id="node4" class="node">
<title>3</title>
<polygon fill="none" stroke="black" points="214,-305 116,-305 116,-252 214,-252 214,-305"/>
<text text-anchor="middle" x="165" y="-289.8" font-family="Times,serif" font-size="14.00">lab2 &lt;= 88.0</text>
<text text-anchor="middle" x="165" y="-274.8" font-family="Times,serif" font-size="14.00">counts = [1, 3]</text>
<text text-anchor="middle" x="165" y="-259.8" font-family="Times,serif" font-size="14.00">class = not A+</text>
</g>
<!-- 2&#45;&gt;3 -->
<g id="edge3" class="edge">
<title>2&#45;&gt;3</title>
<path fill="none" stroke="black" d="M205.91,-340.87C200.24,-332.36 193.83,-322.75 187.8,-313.7"/>
<polygon fill="black" stroke="black" points="190.63,-311.63 182.17,-305.25 184.8,-315.51 190.63,-311.63"/>
</g>
<!-- 6 -->
<g id="node7" class="node">
<title>6</title>
<polygon fill="none" stroke="black" points="330,-305 232,-305 232,-252 330,-252 330,-305"/>
<text text-anchor="middle" x="281" y="-289.8" font-family="Times,serif" font-size="14.00">lab4 &lt;= 83.5</text>
<text text-anchor="middle" x="281" y="-274.8" font-family="Times,serif" font-size="14.00">counts = [9, 2]</text>
<text text-anchor="middle" x="281" y="-259.8" font-family="Times,serif" font-size="14.00">class = A+</text>
</g>
<!-- 2&#45;&gt;6 -->
<g id="edge6" class="edge">
<title>2&#45;&gt;6</title>
<path fill="none" stroke="black" d="M240.09,-340.87C245.76,-332.36 252.17,-322.75 258.2,-313.7"/>
<polygon fill="black" stroke="black" points="261.2,-315.51 263.83,-305.25 255.37,-311.63 261.2,-315.51"/>
</g>
<!-- 4 -->
<g id="node5" class="node">
<title>4</title>
<polygon fill="none" stroke="black" points="98,-208.5 0,-208.5 0,-170.5 98,-170.5 98,-208.5"/>
<text text-anchor="middle" x="49" y="-193.3" font-family="Times,serif" font-size="14.00">counts = [1, 0]</text>
<text text-anchor="middle" x="49" y="-178.3" font-family="Times,serif" font-size="14.00">class = A+</text>
</g>
<!-- 3&#45;&gt;4 -->
<g id="edge4" class="edge">
<title>3&#45;&gt;4</title>
<path fill="none" stroke="black" d="M130.82,-251.87C115.15,-240.11 96.66,-226.25 81.23,-214.67"/>
<polygon fill="black" stroke="black" points="83.11,-211.71 73.01,-208.51 78.91,-217.31 83.11,-211.71"/>
</g>
<!-- 5 -->
<g id="node6" class="node">
<title>5</title>
<polygon fill="none" stroke="black" points="214,-208.5 116,-208.5 116,-170.5 214,-170.5 214,-208.5"/>
<text text-anchor="middle" x="165" y="-193.3" font-family="Times,serif" font-size="14.00">counts = [0, 3]</text>
<text text-anchor="middle" x="165" y="-178.3" font-family="Times,serif" font-size="14.00">class = not A+</text>
</g>
<!-- 3&#45;&gt;5 -->
<g id="edge5" class="edge">
<title>3&#45;&gt;5</title>
<path fill="none" stroke="black" d="M165,-251.87C165,-241.42 165,-229.3 165,-218.61"/>
<polygon fill="black" stroke="black" points="168.5,-218.51 165,-208.51 161.5,-218.51 168.5,-218.51"/>
</g>
<!-- 7 -->
<g id="node8" class="node">
<title>7</title>
<polygon fill="none" stroke="black" points="330,-208.5 232,-208.5 232,-170.5 330,-170.5 330,-208.5"/>
<text text-anchor="middle" x="281" y="-193.3" font-family="Times,serif" font-size="14.00">counts = [0, 1]</text>
<text text-anchor="middle" x="281" y="-178.3" font-family="Times,serif" font-size="14.00">class = not A+</text>
</g>
<!-- 6&#45;&gt;7 -->
<g id="edge7" class="edge">
<title>6&#45;&gt;7</title>
<path fill="none" stroke="black" d="M281,-251.87C281,-241.42 281,-229.3 281,-218.61"/>
<polygon fill="black" stroke="black" points="284.5,-218.51 281,-208.51 277.5,-218.51 284.5,-218.51"/>
</g>
<!-- 8 -->
<g id="node9" class="node">
<title>8</title>
<polygon fill="none" stroke="black" points="446,-216 348,-216 348,-163 446,-163 446,-216"/>
<text text-anchor="middle" x="397" y="-200.8" font-family="Times,serif" font-size="14.00">lab2 &lt;= 94.5</text>
<text text-anchor="middle" x="397" y="-185.8" font-family="Times,serif" font-size="14.00">counts = [9, 1]</text>
<text text-anchor="middle" x="397" y="-170.8" font-family="Times,serif" font-size="14.00">class = A+</text>
</g>
<!-- 6&#45;&gt;8 -->
<g id="edge8" class="edge">
<title>6&#45;&gt;8</title>
<path fill="none" stroke="black" d="M315.18,-251.87C327.46,-242.66 341.46,-232.15 354.37,-222.47"/>
<polygon fill="black" stroke="black" points="356.77,-225.05 362.67,-216.25 352.57,-219.45 356.77,-225.05"/>
</g>
<!-- 9 -->
<g id="node10" class="node">
<title>9</title>
<polygon fill="none" stroke="black" points="388,-119.5 290,-119.5 290,-81.5 388,-81.5 388,-119.5"/>
<text text-anchor="middle" x="339" y="-104.3" font-family="Times,serif" font-size="14.00">counts = [8, 0]</text>
<text text-anchor="middle" x="339" y="-89.3" font-family="Times,serif" font-size="14.00">class = A+</text>
</g>
<!-- 8&#45;&gt;9 -->
<g id="edge9" class="edge">
<title>8&#45;&gt;9</title>
<path fill="none" stroke="black" d="M379.91,-162.87C372.58,-151.87 364.02,-139.03 356.63,-127.95"/>
<polygon fill="black" stroke="black" points="359.46,-125.89 351,-119.51 353.64,-129.77 359.46,-125.89"/>
</g>
<!-- 10 -->
<g id="node11" class="node">
<title>10</title>
<polygon fill="none" stroke="black" points="504,-127 406,-127 406,-74 504,-74 504,-127"/>
<text text-anchor="middle" x="455" y="-111.8" font-family="Times,serif" font-size="14.00">lab2 &lt;= 95.5</text>
<text text-anchor="middle" x="455" y="-96.8" font-family="Times,serif" font-size="14.00">counts = [1, 1]</text>
<text text-anchor="middle" x="455" y="-81.8" font-family="Times,serif" font-size="14.00">class = A+</text>
</g>
<!-- 8&#45;&gt;10 -->
<g id="edge10" class="edge">
<title>8&#45;&gt;10</title>
<path fill="none" stroke="black" d="M414.09,-162.87C419.76,-154.36 426.17,-144.75 432.2,-135.7"/>
<polygon fill="black" stroke="black" points="435.2,-137.51 437.83,-127.25 429.37,-133.63 435.2,-137.51"/>
</g>
<!-- 11 -->
<g id="node12" class="node">
<title>11</title>
<polygon fill="none" stroke="black" points="446,-38 348,-38 348,0 446,0 446,-38"/>
<text text-anchor="middle" x="397" y="-22.8" font-family="Times,serif" font-size="14.00">counts = [0, 1]</text>
<text text-anchor="middle" x="397" y="-7.8" font-family="Times,serif" font-size="14.00">class = not A+</text>
</g>
<!-- 10&#45;&gt;11 -->
<g id="edge11" class="edge">
<title>10&#45;&gt;11</title>
<path fill="none" stroke="black" d="M436.33,-73.91C429.9,-65.1 422.7,-55.23 416.23,-46.36"/>
<polygon fill="black" stroke="black" points="419.03,-44.25 410.31,-38.24 413.37,-48.38 419.03,-44.25"/>
</g>
<!-- 12 -->
<g id="node13" class="node">
<title>12</title>
<polygon fill="none" stroke="black" points="562,-38 464,-38 464,0 562,0 562,-38"/>
<text text-anchor="middle" x="513" y="-22.8" font-family="Times,serif" font-size="14.00">counts = [1, 0]</text>
<text text-anchor="middle" x="513" y="-7.8" font-family="Times,serif" font-size="14.00">class = A+</text>
</g>
<!-- 10&#45;&gt;12 -->
<g id="edge12" class="edge">
<title>10&#45;&gt;12</title>
<path fill="none" stroke="black" d="M473.67,-73.91C480.1,-65.1 487.3,-55.23 493.77,-46.36"/>
<polygon fill="black" stroke="black" points="496.63,-48.38 499.69,-38.24 490.97,-44.25 496.63,-48.38"/>
</g>
</g>
</svg>
