<?xml version="1.0" encoding="UTF-8" standalone="no"?>
<!DOCTYPE svg PUBLIC "-//W3C//DTD SVG 1.1//EN"
 "http://www.w3.org/Graphics/SVG/1.1/DTD/svg11.dtd">
<!-- Generated by graphviz version 5.0.1 (0)
 -->
<!-- Title: Tree Pages: 1 -->
<svg width="713pt" height="414pt"
 viewBox="0.00 0.00 712.50 414.00" xmlns="http://www.w3.org/2000/svg" xmlns:xlink="http://www.w3.org/1999/xlink">
<g id="graph0" class="graph" transform="scale(1 1) rotate(0) translate(4 410)">
<title>Tree</title>
<polygon fill="white" stroke="none" points="-4,4 -4,-410 708.5,-410 708.5,4 -4,4"/>
<!-- 0 -->
<g id="node1" class="node">
<title>0</title>
<polygon fill="none" stroke="black" points="410,-406 307,-406 307,-368 410,-368 410,-406"/>
<text text-anchor="middle" x="358.5" y="-390.8" font-family="Helvetica,sans-Serif" font-size="14.00">lab4 &lt;= 0.5</text>
<text text-anchor="middle" x="358.5" y="-375.8" font-family="Helvetica,sans-Serif" font-size="14.00">class = not A+</text>
</g>
<!-- 1 -->
<g id="node2" class="node">
<title>1</title>
<polygon fill="none" stroke="black" points="349.5,-332 185.5,-332 185.5,-294 349.5,-294 349.5,-332"/>
<text text-anchor="middle" x="267.5" y="-316.8" font-family="Helvetica,sans-Serif" font-size="14.00">class_attendance &lt;= 0.5</text>
<text text-anchor="middle" x="267.5" y="-301.8" font-family="Helvetica,sans-Serif" font-size="14.00">class = not A+</text>
</g>
<!-- 0&#45;&gt;1 -->
<g id="edge1" class="edge">
<title>0&#45;&gt;1</title>
<path fill="none" stroke="black" d="M335.54,-367.83C324.33,-358.96 310.68,-348.16 298.56,-338.57"/>
<polygon fill="black" stroke="black" points="300.47,-335.62 290.46,-332.16 296.13,-341.11 300.47,-335.62"/>
<text text-anchor="middle" x="293.35" y="-353.29" font-family="Helvetica,sans-Serif" font-size="14.00">True</text>
</g>
<!-- 10 -->
<g id="node11" class="node">
<title>10</title>
<polygon fill="none" stroke="black" points="531.5,-332 367.5,-332 367.5,-294 531.5,-294 531.5,-332"/>
<text text-anchor="middle" x="449.5" y="-316.8" font-family="Helvetica,sans-Serif" font-size="14.00">class_attendance &lt;= 0.5</text>
<text text-anchor="middle" x="449.5" y="-301.8" font-family="Helvetica,sans-Serif" font-size="14.00">class = A+</text>
</g>
<!-- 0&#45;&gt;10 -->
<g id="edge10" class="edge">
<title>0&#45;&gt;10</title>
<path fill="none" stroke="black" d="M381.46,-367.83C392.67,-358.96 406.32,-348.16 418.44,-338.57"/>
<polygon fill="black" stroke="black" points="420.87,-341.11 426.54,-332.16 416.53,-335.62 420.87,-341.11"/>
<text text-anchor="middle" x="423.65" y="-353.29" font-family="Helvetica,sans-Serif" font-size="14.00">False</text>
</g>
<!-- 2 -->
<g id="node3" class="node">
<title>2</title>
<polygon fill="none" stroke="black" points="214,-258 111,-258 111,-220 214,-220 214,-258"/>
<text text-anchor="middle" x="162.5" y="-242.8" font-family="Helvetica,sans-Serif" font-size="14.00">lab3 &lt;= 0.5</text>
<text text-anchor="middle" x="162.5" y="-227.8" font-family="Helvetica,sans-Serif" font-size="14.00">class = not A+</text>
</g>
<!-- 1&#45;&gt;2 -->
<g id="edge2" class="edge">
<title>1&#45;&gt;2</title>
<path fill="none" stroke="black" d="M241,-293.83C227.82,-284.79 211.72,-273.75 197.53,-264.02"/>
<polygon fill="black" stroke="black" points="199.21,-260.93 188.99,-258.16 195.26,-266.7 199.21,-260.93"/>
</g>
<!-- 9 -->
<g id="node10" class="node">
<title>9</title>
<polygon fill="none" stroke="black" points="335,-257 232,-257 232,-221 335,-221 335,-257"/>
<text text-anchor="middle" x="283.5" y="-235.3" font-family="Helvetica,sans-Serif" font-size="14.00">class = not A+</text>
</g>
<!-- 1&#45;&gt;9 -->
<g id="edge9" class="edge">
<title>1&#45;&gt;9</title>
<path fill="none" stroke="black" d="M271.54,-293.83C273.32,-285.81 275.46,-276.2 277.42,-267.34"/>
<polygon fill="black" stroke="black" points="280.88,-267.94 279.63,-257.42 274.04,-266.42 280.88,-267.94"/>
</g>
<!-- 3 -->
<g id="node4" class="node">
<title>3</title>
<polygon fill="none" stroke="black" points="159,-184 56,-184 56,-146 159,-146 159,-184"/>
<text text-anchor="middle" x="107.5" y="-168.8" font-family="Helvetica,sans-Serif" font-size="14.00">quiz1 &lt;= 0.5</text>
<text text-anchor="middle" x="107.5" y="-153.8" font-family="Helvetica,sans-Serif" font-size="14.00">class = not A+</text>
</g>
<!-- 2&#45;&gt;3 -->
<g id="edge3" class="edge">
<title>2&#45;&gt;3</title>
<path fill="none" stroke="black" d="M148.62,-219.83C142.29,-211.54 134.66,-201.56 127.71,-192.45"/>
<polygon fill="black" stroke="black" points="130.42,-190.24 121.57,-184.41 124.85,-194.48 130.42,-190.24"/>
</g>
<!-- 8 -->
<g id="node9" class="node">
<title>8</title>
<polygon fill="none" stroke="black" points="257.5,-183 177.5,-183 177.5,-147 257.5,-147 257.5,-183"/>
<text text-anchor="middle" x="217.5" y="-161.3" font-family="Helvetica,sans-Serif" font-size="14.00">class = A+</text>
</g>
<!-- 2&#45;&gt;8 -->
<g id="edge8" class="edge">
<title>2&#45;&gt;8</title>
<path fill="none" stroke="black" d="M176.38,-219.83C182.91,-211.28 190.81,-200.94 197.93,-191.62"/>
<polygon fill="black" stroke="black" points="200.91,-193.49 204.19,-183.42 195.34,-189.24 200.91,-193.49"/>
</g>
<!-- 4 -->
<g id="node5" class="node">
<title>4</title>
<polygon fill="none" stroke="black" points="103,-109 0,-109 0,-73 103,-73 103,-109"/>
<text text-anchor="middle" x="51.5" y="-87.3" font-family="Helvetica,sans-Serif" font-size="14.00">class = not A+</text>
</g>
<!-- 3&#45;&gt;4 -->
<g id="edge4" class="edge">
<title>3&#45;&gt;4</title>
<path fill="none" stroke="black" d="M93.37,-145.83C86.65,-137.2 78.51,-126.73 71.2,-117.33"/>
<polygon fill="black" stroke="black" points="73.95,-115.16 65.05,-109.42 68.42,-119.46 73.95,-115.16"/>
</g>
<!-- 5 -->
<g id="node6" class="node">
<title>5</title>
<polygon fill="none" stroke="black" points="206,-110 121,-110 121,-72 206,-72 206,-110"/>
<text text-anchor="middle" x="163.5" y="-94.8" font-family="Helvetica,sans-Serif" font-size="14.00">lab2 &lt;= 0.5</text>
<text text-anchor="middle" x="163.5" y="-79.8" font-family="Helvetica,sans-Serif" font-size="14.00">class = A+</text>
</g>
<!-- 3&#45;&gt;5 -->
<g id="edge5" class="edge">
<title>3&#45;&gt;5</title>
<path fill="none" stroke="black" d="M121.63,-145.83C128.08,-137.54 135.84,-127.56 142.93,-118.45"/>
<polygon fill="black" stroke="black" points="145.8,-120.46 149.18,-110.41 140.28,-116.16 145.8,-120.46"/>
</g>
<!-- 6 -->
<g id="node7" class="node">
<title>6</title>
<polygon fill="none" stroke="black" points="148.5,-36 68.5,-36 68.5,0 148.5,0 148.5,-36"/>
<text text-anchor="middle" x="108.5" y="-14.3" font-family="Helvetica,sans-Serif" font-size="14.00">class = A+</text>
</g>
<!-- 5&#45;&gt;6 -->
<g id="edge6" class="edge">
<title>5&#45;&gt;6</title>
<path fill="none" stroke="black" d="M149.34,-71.72C142.81,-63.29 134.95,-53.15 127.88,-44.02"/>
<polygon fill="black" stroke="black" points="130.56,-41.77 121.67,-36 125.03,-46.05 130.56,-41.77"/>
</g>
<!-- 7 -->
<g id="node8" class="node">
<title>7</title>
<polygon fill="none" stroke="black" points="270,-36 167,-36 167,0 270,0 270,-36"/>
<text text-anchor="middle" x="218.5" y="-14.3" font-family="Helvetica,sans-Serif" font-size="14.00">class = not A+</text>
</g>
<!-- 5&#45;&gt;7 -->
<g id="edge7" class="edge">
<title>5&#45;&gt;7</title>
<path fill="none" stroke="black" d="M177.66,-71.72C184.19,-63.29 192.05,-53.15 199.12,-44.02"/>
<polygon fill="black" stroke="black" points="201.97,-46.05 205.33,-36 196.44,-41.77 201.97,-46.05"/>
</g>
<!-- 11 -->
<g id="node12" class="node">
<title>11</title>
<polygon fill="none" stroke="black" points="486,-257 383,-257 383,-221 486,-221 486,-257"/>
<text text-anchor="middle" x="434.5" y="-235.3" font-family="Helvetica,sans-Serif" font-size="14.00">class = not A+</text>
</g>
<!-- 10&#45;&gt;11 -->
<g id="edge11" class="edge">
<title>10&#45;&gt;11</title>
<path fill="none" stroke="black" d="M445.71,-293.83C444.04,-285.81 442.04,-276.2 440.2,-267.34"/>
<polygon fill="black" stroke="black" points="443.59,-266.49 438.13,-257.42 436.74,-267.92 443.59,-266.49"/>
</g>
<!-- 12 -->
<g id="node13" class="node">
<title>12</title>
<polygon fill="none" stroke="black" points="589,-258 504,-258 504,-220 589,-220 589,-258"/>
<text text-anchor="middle" x="546.5" y="-242.8" font-family="Helvetica,sans-Serif" font-size="14.00">lab2 &lt;= 0.5</text>
<text text-anchor="middle" x="546.5" y="-227.8" font-family="Helvetica,sans-Serif" font-size="14.00">class = A+</text>
</g>
<!-- 10&#45;&gt;12 -->
<g id="edge12" class="edge">
<title>10&#45;&gt;12</title>
<path fill="none" stroke="black" d="M473.98,-293.83C486.04,-284.88 500.75,-273.96 513.77,-264.3"/>
<polygon fill="black" stroke="black" points="516.09,-266.93 522.03,-258.16 511.91,-261.31 516.09,-266.93"/>
</g>
<!-- 13 -->
<g id="node14" class="node">
<title>13</title>
<polygon fill="none" stroke="black" points="534.5,-183 454.5,-183 454.5,-147 534.5,-147 534.5,-183"/>
<text text-anchor="middle" x="494.5" y="-161.3" font-family="Helvetica,sans-Serif" font-size="14.00">class = A+</text>
</g>
<!-- 12&#45;&gt;13 -->
<g id="edge13" class="edge">
<title>12&#45;&gt;13</title>
<path fill="none" stroke="black" d="M533.38,-219.83C527.2,-211.28 519.74,-200.94 513,-191.62"/>
<polygon fill="black" stroke="black" points="515.77,-189.48 507.08,-183.42 510.1,-193.57 515.77,-189.48"/>
</g>
<!-- 14 -->
<g id="node15" class="node">
<title>14</title>
<polygon fill="none" stroke="black" points="644.5,-184 552.5,-184 552.5,-146 644.5,-146 644.5,-184"/>
<text text-anchor="middle" x="598.5" y="-168.8" font-family="Helvetica,sans-Serif" font-size="14.00">quiz1 &lt;= 0.5</text>
<text text-anchor="middle" x="598.5" y="-153.8" font-family="Helvetica,sans-Serif" font-size="14.00">class = A+</text>
</g>
<!-- 12&#45;&gt;14 -->
<g id="edge14" class="edge">
<title>12&#45;&gt;14</title>
<path fill="none" stroke="black" d="M559.62,-219.83C565.55,-211.62 572.67,-201.76 579.19,-192.73"/>
<polygon fill="black" stroke="black" points="582.18,-194.57 585.2,-184.41 576.51,-190.47 582.18,-194.57"/>
</g>
<!-- 15 -->
<g id="node16" class="node">
<title>15</title>
<polygon fill="none" stroke="black" points="606.5,-110 458.5,-110 458.5,-72 606.5,-72 606.5,-110"/>
<text text-anchor="middle" x="532.5" y="-94.8" font-family="Helvetica,sans-Serif" font-size="14.00">ml_experience &lt;= 0.5</text>
<text text-anchor="middle" x="532.5" y="-79.8" font-family="Helvetica,sans-Serif" font-size="14.00">class = A+</text>
</g>
<!-- 14&#45;&gt;15 -->
<g id="edge15" class="edge">
<title>14&#45;&gt;15</title>
<path fill="none" stroke="black" d="M581.85,-145.83C574.09,-137.37 564.72,-127.15 556.24,-117.9"/>
<polygon fill="black" stroke="black" points="558.72,-115.42 549.38,-110.41 553.56,-120.15 558.72,-115.42"/>
</g>
<!-- 18 -->
<g id="node19" class="node">
<title>18</title>
<polygon fill="none" stroke="black" points="704.5,-109 624.5,-109 624.5,-73 704.5,-73 704.5,-109"/>
<text text-anchor="middle" x="664.5" y="-87.3" font-family="Helvetica,sans-Serif" font-size="14.00">class = A+</text>
</g>
<!-- 14&#45;&gt;18 -->
<g id="edge18" class="edge">
<title>14&#45;&gt;18</title>
<path fill="none" stroke="black" d="M615.15,-145.83C623.15,-137.11 632.86,-126.52 641.54,-117.05"/>
<polygon fill="black" stroke="black" points="644.36,-119.15 648.53,-109.42 639.2,-114.42 644.36,-119.15"/>
</g>
<!-- 16 -->
<g id="node17" class="node">
<title>16</title>
<polygon fill="none" stroke="black" points="523.5,-36 443.5,-36 443.5,0 523.5,0 523.5,-36"/>
<text text-anchor="middle" x="483.5" y="-14.3" font-family="Helvetica,sans-Serif" font-size="14.00">class = A+</text>
</g>
<!-- 15&#45;&gt;16 -->
<g id="edge16" class="edge">
<title>15&#45;&gt;16</title>
<path fill="none" stroke="black" d="M519.88,-71.72C514.12,-63.37 507.21,-53.35 500.96,-44.3"/>
<polygon fill="black" stroke="black" points="503.8,-42.25 495.23,-36 498.03,-46.22 503.8,-42.25"/>
</g>
<!-- 17 -->
<g id="node18" class="node">
<title>17</title>
<polygon fill="none" stroke="black" points="621.5,-36 541.5,-36 541.5,0 621.5,0 621.5,-36"/>
<text text-anchor="middle" x="581.5" y="-14.3" font-family="Helvetica,sans-Serif" font-size="14.00">class = A+</text>
</g>
<!-- 15&#45;&gt;17 -->
<g id="edge17" class="edge">
<title>15&#45;&gt;17</title>
<path fill="none" stroke="black" d="M545.12,-71.72C550.88,-63.37 557.79,-53.35 564.04,-44.3"/>
<polygon fill="black" stroke="black" points="566.97,-46.22 569.77,-36 561.2,-42.25 566.97,-46.22"/>
</g>
</g>
</svg>
