<?xml version="1.0" encoding="UTF-8" standalone="no"?>
<!DOCTYPE svg PUBLIC "-//W3C//DTD SVG 1.1//EN"
 "http://www.w3.org/Graphics/SVG/1.1/DTD/svg11.dtd">
<!-- Generated by graphviz version 6.0.1 (0)
 -->
<!-- Title: Tree Pages: 1 -->
<svg width="394pt" height="402pt"
 viewBox="0.00 0.00 393.50 402.00" xmlns="http://www.w3.org/2000/svg" xmlns:xlink="http://www.w3.org/1999/xlink">
<g id="graph0" class="graph" transform="scale(1 1) rotate(0) translate(4 398)">
<title>Tree</title>
<polygon fill="white" stroke="none" points="-4,4 -4,-398 389.5,-398 389.5,4 -4,4"/>
<!-- 0 -->
<g id="node1" class="node">
<title>0</title>
<polygon fill="none" stroke="black" points="219.5,-394 25.5,-394 25.5,-341 219.5,-341 219.5,-394"/>
<text text-anchor="middle" x="122.5" y="-378.8" font-family="Helvetica,sans-Serif" font-size="14.00">supportive_colleagues &lt;= 0.5</text>
<text text-anchor="middle" x="122.5" y="-363.8" font-family="Helvetica,sans-Serif" font-size="14.00">counts = [6, 5]</text>
<text text-anchor="middle" x="122.5" y="-348.8" font-family="Helvetica,sans-Serif" font-size="14.00">class = happy</text>
</g>
<!-- 1 -->
<g id="node2" class="node">
<title>1</title>
<polygon fill="none" stroke="black" points="115,-297.5 0,-297.5 0,-259.5 115,-259.5 115,-297.5"/>
<text text-anchor="middle" x="57.5" y="-282.3" font-family="Helvetica,sans-Serif" font-size="14.00">counts = [0, 4]</text>
<text text-anchor="middle" x="57.5" y="-267.3" font-family="Helvetica,sans-Serif" font-size="14.00">class = unhappy</text>
</g>
<!-- 0&#45;&gt;1 -->
<g id="edge1" class="edge">
<title>0&#45;&gt;1</title>
<path fill="none" stroke="black" d="M103.35,-340.87C95.05,-329.76 85.35,-316.78 77.02,-305.62"/>
<polygon fill="black" stroke="black" points="79.74,-303.42 70.95,-297.51 74.13,-307.61 79.74,-303.42"/>
<text text-anchor="middle" x="67.37" y="-318.55" font-family="Helvetica,sans-Serif" font-size="14.00">True</text>
</g>
<!-- 2 -->
<g id="node3" class="node">
<title>2</title>
<polygon fill="none" stroke="black" points="241.5,-305 133.5,-305 133.5,-252 241.5,-252 241.5,-305"/>
<text text-anchor="middle" x="187.5" y="-289.8" font-family="Helvetica,sans-Serif" font-size="14.00">start_up &lt;= 0.5</text>
<text text-anchor="middle" x="187.5" y="-274.8" font-family="Helvetica,sans-Serif" font-size="14.00">counts = [6, 1]</text>
<text text-anchor="middle" x="187.5" y="-259.8" font-family="Helvetica,sans-Serif" font-size="14.00">class = happy</text>
</g>
<!-- 0&#45;&gt;2 -->
<g id="edge2" class="edge">
<title>0&#45;&gt;2</title>
<path fill="none" stroke="black" d="M141.65,-340.87C148.07,-332.27 155.34,-322.55 162.16,-313.42"/>
<polygon fill="black" stroke="black" points="165.08,-315.36 168.26,-305.25 159.47,-311.17 165.08,-315.36"/>
<text text-anchor="middle" x="171.84" y="-326.29" font-family="Helvetica,sans-Serif" font-size="14.00">False</text>
</g>
<!-- 3 -->
<g id="node4" class="node">
<title>3</title>
<polygon fill="none" stroke="black" points="166.5,-208.5 64.5,-208.5 64.5,-170.5 166.5,-170.5 166.5,-208.5"/>
<text text-anchor="middle" x="115.5" y="-193.3" font-family="Helvetica,sans-Serif" font-size="14.00">counts = [4, 0]</text>
<text text-anchor="middle" x="115.5" y="-178.3" font-family="Helvetica,sans-Serif" font-size="14.00">class = happy</text>
</g>
<!-- 2&#45;&gt;3 -->
<g id="edge3" class="edge">
<title>2&#45;&gt;3</title>
<path fill="none" stroke="black" d="M166.29,-251.87C157.01,-240.66 146.14,-227.53 136.85,-216.29"/>
<polygon fill="black" stroke="black" points="139.47,-213.98 130.4,-208.51 134.08,-218.44 139.47,-213.98"/>
</g>
<!-- 4 -->
<g id="node5" class="node">
<title>4</title>
<polygon fill="none" stroke="black" points="336.5,-216 184.5,-216 184.5,-163 336.5,-163 336.5,-216"/>
<text text-anchor="middle" x="260.5" y="-200.8" font-family="Helvetica,sans-Serif" font-size="14.00">hours_flexibility &lt;= 0.5</text>
<text text-anchor="middle" x="260.5" y="-185.8" font-family="Helvetica,sans-Serif" font-size="14.00">counts = [2, 1]</text>
<text text-anchor="middle" x="260.5" y="-170.8" font-family="Helvetica,sans-Serif" font-size="14.00">class = happy</text>
</g>
<!-- 2&#45;&gt;4 -->
<g id="edge4" class="edge">
<title>2&#45;&gt;4</title>
<path fill="none" stroke="black" d="M209.01,-251.87C216.29,-243.18 224.55,-233.35 232.27,-224.14"/>
<polygon fill="black" stroke="black" points="235.15,-226.16 238.89,-216.25 229.78,-221.66 235.15,-226.16"/>
</g>
<!-- 5 -->
<g id="node6" class="node">
<title>5</title>
<polygon fill="none" stroke="black" points="265,-127 110,-127 110,-74 265,-74 265,-127"/>
<text text-anchor="middle" x="187.5" y="-111.8" font-family="Helvetica,sans-Serif" font-size="14.00">coffee_machine &lt;= 0.5</text>
<text text-anchor="middle" x="187.5" y="-96.8" font-family="Helvetica,sans-Serif" font-size="14.00">counts = [1, 1]</text>
<text text-anchor="middle" x="187.5" y="-81.8" font-family="Helvetica,sans-Serif" font-size="14.00">class = happy</text>
</g>
<!-- 4&#45;&gt;5 -->
<g id="edge5" class="edge">
<title>4&#45;&gt;5</title>
<path fill="none" stroke="black" d="M238.99,-162.87C231.71,-154.18 223.45,-144.35 215.73,-135.14"/>
<polygon fill="black" stroke="black" points="218.22,-132.66 209.11,-127.25 212.85,-137.16 218.22,-132.66"/>
</g>
<!-- 8 -->
<g id="node9" class="node">
<title>8</title>
<polygon fill="none" stroke="black" points="385.5,-119.5 283.5,-119.5 283.5,-81.5 385.5,-81.5 385.5,-119.5"/>
<text text-anchor="middle" x="334.5" y="-104.3" font-family="Helvetica,sans-Serif" font-size="14.00">counts = [1, 0]</text>
<text text-anchor="middle" x="334.5" y="-89.3" font-family="Helvetica,sans-Serif" font-size="14.00">class = happy</text>
</g>
<!-- 4&#45;&gt;8 -->
<g id="edge8" class="edge">
<title>4&#45;&gt;8</title>
<path fill="none" stroke="black" d="M282.3,-162.87C291.84,-151.66 303.01,-138.53 312.56,-127.29"/>
<polygon fill="black" stroke="black" points="315.37,-129.39 319.18,-119.51 310.04,-124.86 315.37,-129.39"/>
</g>
<!-- 6 -->
<g id="node7" class="node">
<title>6</title>
<polygon fill="none" stroke="black" points="182,-38 67,-38 67,0 182,0 182,-38"/>
<text text-anchor="middle" x="124.5" y="-22.8" font-family="Helvetica,sans-Serif" font-size="14.00">counts = [0, 1]</text>
<text text-anchor="middle" x="124.5" y="-7.8" font-family="Helvetica,sans-Serif" font-size="14.00">class = unhappy</text>
</g>
<!-- 5&#45;&gt;6 -->
<g id="edge6" class="edge">
<title>5&#45;&gt;6</title>
<path fill="none" stroke="black" d="M167.22,-73.91C160.17,-65.01 152.26,-55.03 145.17,-46.09"/>
<polygon fill="black" stroke="black" points="147.91,-43.9 138.95,-38.24 142.42,-48.25 147.91,-43.9"/>
</g>
<!-- 7 -->
<g id="node8" class="node">
<title>7</title>
<polygon fill="none" stroke="black" points="302.5,-38 200.5,-38 200.5,0 302.5,0 302.5,-38"/>
<text text-anchor="middle" x="251.5" y="-22.8" font-family="Helvetica,sans-Serif" font-size="14.00">counts = [1, 0]</text>
<text text-anchor="middle" x="251.5" y="-7.8" font-family="Helvetica,sans-Serif" font-size="14.00">class = happy</text>
</g>
<!-- 5&#45;&gt;7 -->
<g id="edge7" class="edge">
<title>5&#45;&gt;7</title>
<path fill="none" stroke="black" d="M208.1,-73.91C215.26,-65.01 223.3,-55.03 230.5,-46.09"/>
<polygon fill="black" stroke="black" points="233.27,-48.22 236.82,-38.24 227.82,-43.83 233.27,-48.22"/>
</g>
</g>
</svg>
