<?xml version="1.0" encoding="UTF-8" standalone="no"?>
<!DOCTYPE svg PUBLIC "-//W3C//DTD SVG 1.1//EN"
 "http://www.w3.org/Graphics/SVG/1.1/DTD/svg11.dtd">
<!-- Generated by graphviz version 2.48.0 (0)
 -->
<!-- Title: Tree Pages: 1 -->
<svg width="230pt" height="135pt"
 viewBox="0.00 0.00 229.50 135.00" xmlns="http://www.w3.org/2000/svg" xmlns:xlink="http://www.w3.org/1999/xlink">
<g id="graph0" class="graph" transform="scale(1 1) rotate(0) translate(4 131)">
<title>Tree</title>
<polygon fill="white" stroke="transparent" points="-4,4 -4,-131 225.5,-131 225.5,4 -4,4"/>
<!-- 0 -->
<g id="node1" class="node">
<title>0</title>
<polygon fill="none" stroke="black" points="165,-127 53,-127 53,-74 165,-74 165,-127"/>
<text text-anchor="middle" x="109" y="-111.8" font-family="Times,serif" font-size="14.00">lab3 &lt;= 83.5</text>
<text text-anchor="middle" x="109" y="-96.8" font-family="Times,serif" font-size="14.00">counts = [10, 11]</text>
<text text-anchor="middle" x="109" y="-81.8" font-family="Times,serif" font-size="14.00">class = not A+</text>
</g>
<!-- 1 -->
<g id="node2" class="node">
<title>1</title>
<polygon fill="none" stroke="black" points="98,-38 0,-38 0,0 98,0 98,-38"/>
<text text-anchor="middle" x="49" y="-22.8" font-family="Times,serif" font-size="14.00">counts = [0, 6]</text>
<text text-anchor="middle" x="49" y="-7.8" font-family="Times,serif" font-size="14.00">class = not A+</text>
</g>
<!-- 0&#45;&gt;1 -->
<g id="edge1" class="edge">
<title>0&#45;&gt;1</title>
<path fill="none" stroke="black" d="M89.69,-73.91C83.04,-65.1 75.59,-55.23 68.9,-46.36"/>
<polygon fill="black" stroke="black" points="71.58,-44.11 62.77,-38.24 66,-48.33 71.58,-44.11"/>
<text text-anchor="middle" x="59.3" y="-59.3" font-family="Times,serif" font-size="14.00">True</text>
</g>
<!-- 2 -->
<g id="node3" class="node">
<title>2</title>
<polygon fill="none" stroke="black" points="221.5,-38 116.5,-38 116.5,0 221.5,0 221.5,-38"/>
<text text-anchor="middle" x="169" y="-22.8" font-family="Times,serif" font-size="14.00">counts = [10, 5]</text>
<text text-anchor="middle" x="169" y="-7.8" font-family="Times,serif" font-size="14.00">class = A+</text>
</g>
<!-- 0&#45;&gt;2 -->
<g id="edge2" class="edge">
<title>0&#45;&gt;2</title>
<path fill="none" stroke="black" d="M128.31,-73.91C134.96,-65.1 142.41,-55.23 149.1,-46.36"/>
<polygon fill="black" stroke="black" points="152,-48.33 155.23,-38.24 146.42,-44.11 152,-48.33"/>
<text text-anchor="middle" x="158.7" y="-59.3" font-family="Times,serif" font-size="14.00">False</text>
</g>
</g>
</svg>
