<?xml version="1.0" encoding="UTF-8" standalone="no"?>
<!DOCTYPE svg PUBLIC "-//W3C//DTD SVG 1.1//EN"
 "http://www.w3.org/Graphics/SVG/1.1/DTD/svg11.dtd">
<!-- Generated by graphviz version 2.48.0 (0)
 -->
<!-- Title: Tree Pages: 1 -->
<svg width="1134pt" height="932pt"
 viewBox="0.00 0.00 1134.00 932.00" xmlns="http://www.w3.org/2000/svg" xmlns:xlink="http://www.w3.org/1999/xlink">
<g id="graph0" class="graph" transform="scale(1 1) rotate(0) translate(4 928)">
<title>Tree</title>
<polygon fill="white" stroke="transparent" points="-4,4 -4,-928 1130,-928 1130,4 -4,4"/>
<!-- 0 -->
<g id="node1" class="node">
<title>0</title>
<polygon fill="none" stroke="black" points="287.5,-924 181.5,-924 181.5,-886 287.5,-886 287.5,-924"/>
<text text-anchor="middle" x="234.5" y="-908.8" font-family="Times,serif" font-size="14.00">latitude &lt;= 42.9</text>
<text text-anchor="middle" x="234.5" y="-893.8" font-family="Times,serif" font-size="14.00">class = Canada</text>
</g>
<!-- 1 -->
<g id="node2" class="node">
<title>1</title>
<polygon fill="none" stroke="black" points="220.5,-850 100.5,-850 100.5,-812 220.5,-812 220.5,-850"/>
<text text-anchor="middle" x="160.5" y="-834.8" font-family="Times,serif" font-size="14.00">latitude &lt;= 42.096</text>
<text text-anchor="middle" x="160.5" y="-819.8" font-family="Times,serif" font-size="14.00">class = USA</text>
</g>
<!-- 0&#45;&gt;1 -->
<g id="edge1" class="edge">
<title>0&#45;&gt;1</title>
<path fill="none" stroke="black" d="M215.83,-885.83C206.98,-877.22 196.25,-866.79 186.61,-857.4"/>
<polygon fill="black" stroke="black" points="188.78,-854.63 179.17,-850.16 183.89,-859.64 188.78,-854.63"/>
<text text-anchor="middle" x="179.51" y="-871.46" font-family="Times,serif" font-size="14.00">True</text>
</g>
<!-- 6 -->
<g id="node7" class="node">
<title>6</title>
<polygon fill="none" stroke="black" points="380.5,-850 238.5,-850 238.5,-812 380.5,-812 380.5,-850"/>
<text text-anchor="middle" x="309.5" y="-834.8" font-family="Times,serif" font-size="14.00">longitude &lt;= &#45;130.017</text>
<text text-anchor="middle" x="309.5" y="-819.8" font-family="Times,serif" font-size="14.00">class = Canada</text>
</g>
<!-- 0&#45;&gt;6 -->
<g id="edge6" class="edge">
<title>0&#45;&gt;6</title>
<path fill="none" stroke="black" d="M253.43,-885.83C262.49,-877.13 273.48,-866.58 283.33,-857.13"/>
<polygon fill="black" stroke="black" points="285.79,-859.61 290.58,-850.16 280.94,-854.56 285.79,-859.61"/>
<text text-anchor="middle" x="290.07" y="-871.46" font-family="Times,serif" font-size="14.00">False</text>
</g>
<!-- 2 -->
<g id="node3" class="node">
<title>2</title>
<polygon fill="none" stroke="black" points="87,-775 0,-775 0,-739 87,-739 87,-775"/>
<text text-anchor="middle" x="43.5" y="-753.3" font-family="Times,serif" font-size="14.00">class = USA</text>
</g>
<!-- 1&#45;&gt;2 -->
<g id="edge2" class="edge">
<title>1&#45;&gt;2</title>
<path fill="none" stroke="black" d="M130.98,-811.83C115.55,-802.34 96.54,-790.64 80.18,-780.57"/>
<polygon fill="black" stroke="black" points="81.75,-777.43 71.4,-775.17 78.09,-783.39 81.75,-777.43"/>
</g>
<!-- 3 -->
<g id="node4" class="node">
<title>3</title>
<polygon fill="none" stroke="black" points="225.5,-776 105.5,-776 105.5,-738 225.5,-738 225.5,-776"/>
<text text-anchor="middle" x="165.5" y="-760.8" font-family="Times,serif" font-size="14.00">latitude &lt;= 42.324</text>
<text text-anchor="middle" x="165.5" y="-745.8" font-family="Times,serif" font-size="14.00">class = USA</text>
</g>
<!-- 1&#45;&gt;3 -->
<g id="edge3" class="edge">
<title>1&#45;&gt;3</title>
<path fill="none" stroke="black" d="M161.76,-811.83C162.3,-804.13 162.93,-794.97 163.53,-786.42"/>
<polygon fill="black" stroke="black" points="167.02,-786.63 164.22,-776.41 160.04,-786.15 167.02,-786.63"/>
</g>
<!-- 4 -->
<g id="node5" class="node">
<title>4</title>
<polygon fill="none" stroke="black" points="209,-701 108,-701 108,-665 209,-665 209,-701"/>
<text text-anchor="middle" x="158.5" y="-679.3" font-family="Times,serif" font-size="14.00">class = Canada</text>
</g>
<!-- 3&#45;&gt;4 -->
<g id="edge4" class="edge">
<title>3&#45;&gt;4</title>
<path fill="none" stroke="black" d="M163.73,-737.83C162.96,-729.89 162.04,-720.41 161.19,-711.63"/>
<polygon fill="black" stroke="black" points="164.64,-711.03 160.19,-701.42 157.68,-711.71 164.64,-711.03"/>
</g>
<!-- 5 -->
<g id="node6" class="node">
<title>5</title>
<polygon fill="none" stroke="black" points="314,-701 227,-701 227,-665 314,-665 314,-701"/>
<text text-anchor="middle" x="270.5" y="-679.3" font-family="Times,serif" font-size="14.00">class = USA</text>
</g>
<!-- 3&#45;&gt;5 -->
<g id="edge5" class="edge">
<title>3&#45;&gt;5</title>
<path fill="none" stroke="black" d="M192,-737.83C205.71,-728.43 222.59,-716.86 237.17,-706.85"/>
<polygon fill="black" stroke="black" points="239.19,-709.71 245.46,-701.17 235.23,-703.94 239.19,-709.71"/>
</g>
<!-- 7 -->
<g id="node8" class="node">
<title>7</title>
<polygon fill="none" stroke="black" points="344,-775 257,-775 257,-739 344,-739 344,-775"/>
<text text-anchor="middle" x="300.5" y="-753.3" font-family="Times,serif" font-size="14.00">class = USA</text>
</g>
<!-- 6&#45;&gt;7 -->
<g id="edge7" class="edge">
<title>6&#45;&gt;7</title>
<path fill="none" stroke="black" d="M307.23,-811.83C306.24,-803.89 305.05,-794.41 303.95,-785.63"/>
<polygon fill="black" stroke="black" points="307.39,-784.91 302.68,-775.42 300.44,-785.77 307.39,-784.91"/>
</g>
<!-- 8 -->
<g id="node9" class="node">
<title>8</title>
<polygon fill="none" stroke="black" points="468.5,-776 362.5,-776 362.5,-738 468.5,-738 468.5,-776"/>
<text text-anchor="middle" x="415.5" y="-760.8" font-family="Times,serif" font-size="14.00">latitude &lt;= 49.0</text>
<text text-anchor="middle" x="415.5" y="-745.8" font-family="Times,serif" font-size="14.00">class = Canada</text>
</g>
<!-- 6&#45;&gt;8 -->
<g id="edge8" class="edge">
<title>6&#45;&gt;8</title>
<path fill="none" stroke="black" d="M336.25,-811.83C349.56,-802.79 365.82,-791.75 380.14,-782.02"/>
<polygon fill="black" stroke="black" points="382.45,-784.68 388.76,-776.16 378.52,-778.89 382.45,-784.68"/>
</g>
<!-- 9 -->
<g id="node10" class="node">
<title>9</title>
<polygon fill="none" stroke="black" points="478,-702 343,-702 343,-664 478,-664 478,-702"/>
<text text-anchor="middle" x="410.5" y="-686.8" font-family="Times,serif" font-size="14.00">longitude &lt;= &#45;94.582</text>
<text text-anchor="middle" x="410.5" y="-671.8" font-family="Times,serif" font-size="14.00">class = Canada</text>
</g>
<!-- 8&#45;&gt;9 -->
<g id="edge9" class="edge">
<title>8&#45;&gt;9</title>
<path fill="none" stroke="black" d="M414.24,-737.83C413.7,-730.13 413.07,-720.97 412.47,-712.42"/>
<polygon fill="black" stroke="black" points="415.96,-712.15 411.78,-702.41 408.98,-712.63 415.96,-712.15"/>
</g>
<!-- 56 -->
<g id="node57" class="node">
<title>56</title>
<polygon fill="none" stroke="black" points="597,-701 496,-701 496,-665 597,-665 597,-701"/>
<text text-anchor="middle" x="546.5" y="-679.3" font-family="Times,serif" font-size="14.00">class = Canada</text>
</g>
<!-- 8&#45;&gt;56 -->
<g id="edge56" class="edge">
<title>8&#45;&gt;56</title>
<path fill="none" stroke="black" d="M448.56,-737.83C466.14,-728.17 487.91,-716.2 506.45,-706.01"/>
<polygon fill="black" stroke="black" points="508.18,-709.06 515.26,-701.17 504.81,-702.92 508.18,-709.06"/>
</g>
<!-- 10 -->
<g id="node11" class="node">
<title>10</title>
<polygon fill="none" stroke="black" points="403.5,-628 261.5,-628 261.5,-590 403.5,-590 403.5,-628"/>
<text text-anchor="middle" x="332.5" y="-612.8" font-family="Times,serif" font-size="14.00">longitude &lt;= &#45;123.222</text>
<text text-anchor="middle" x="332.5" y="-597.8" font-family="Times,serif" font-size="14.00">class = USA</text>
</g>
<!-- 9&#45;&gt;10 -->
<g id="edge10" class="edge">
<title>9&#45;&gt;10</title>
<path fill="none" stroke="black" d="M390.82,-663.83C381.39,-655.13 369.96,-644.58 359.72,-635.13"/>
<polygon fill="black" stroke="black" points="361.9,-632.37 352.18,-628.16 357.15,-637.52 361.9,-632.37"/>
</g>
<!-- 13 -->
<g id="node14" class="node">
<title>13</title>
<polygon fill="none" stroke="black" points="557,-628 422,-628 422,-590 557,-590 557,-628"/>
<text text-anchor="middle" x="489.5" y="-612.8" font-family="Times,serif" font-size="14.00">longitude &lt;= &#45;69.246</text>
<text text-anchor="middle" x="489.5" y="-597.8" font-family="Times,serif" font-size="14.00">class = Canada</text>
</g>
<!-- 9&#45;&gt;13 -->
<g id="edge13" class="edge">
<title>9&#45;&gt;13</title>
<path fill="none" stroke="black" d="M430.44,-663.83C439.98,-655.13 451.56,-644.58 461.93,-635.13"/>
<polygon fill="black" stroke="black" points="464.54,-637.49 469.57,-628.16 459.82,-632.31 464.54,-637.49"/>
</g>
<!-- 11 -->
<g id="node12" class="node">
<title>11</title>
<polygon fill="none" stroke="black" points="280,-553 179,-553 179,-517 280,-517 280,-553"/>
<text text-anchor="middle" x="229.5" y="-531.3" font-family="Times,serif" font-size="14.00">class = Canada</text>
</g>
<!-- 10&#45;&gt;11 -->
<g id="edge11" class="edge">
<title>10&#45;&gt;11</title>
<path fill="none" stroke="black" d="M306.51,-589.83C293.18,-580.52 276.81,-569.07 262.59,-559.13"/>
<polygon fill="black" stroke="black" points="264.27,-556.03 254.06,-553.17 260.26,-561.77 264.27,-556.03"/>
</g>
<!-- 12 -->
<g id="node13" class="node">
<title>12</title>
<polygon fill="none" stroke="black" points="385,-553 298,-553 298,-517 385,-517 385,-553"/>
<text text-anchor="middle" x="341.5" y="-531.3" font-family="Times,serif" font-size="14.00">class = USA</text>
</g>
<!-- 10&#45;&gt;12 -->
<g id="edge12" class="edge">
<title>10&#45;&gt;12</title>
<path fill="none" stroke="black" d="M334.77,-589.83C335.76,-581.89 336.95,-572.41 338.05,-563.63"/>
<polygon fill="black" stroke="black" points="341.56,-563.77 339.32,-553.42 334.61,-562.91 341.56,-563.77"/>
</g>
<!-- 14 -->
<g id="node15" class="node">
<title>14</title>
<polygon fill="none" stroke="black" points="540.5,-554 420.5,-554 420.5,-516 540.5,-516 540.5,-554"/>
<text text-anchor="middle" x="480.5" y="-538.8" font-family="Times,serif" font-size="14.00">latitude &lt;= 43.093</text>
<text text-anchor="middle" x="480.5" y="-523.8" font-family="Times,serif" font-size="14.00">class = Canada</text>
</g>
<!-- 13&#45;&gt;14 -->
<g id="edge14" class="edge">
<title>13&#45;&gt;14</title>
<path fill="none" stroke="black" d="M487.23,-589.83C486.27,-582.13 485.12,-572.97 484.05,-564.42"/>
<polygon fill="black" stroke="black" points="487.52,-563.9 482.8,-554.41 480.57,-564.77 487.52,-563.9"/>
</g>
<!-- 37 -->
<g id="node38" class="node">
<title>37</title>
<polygon fill="none" stroke="black" points="737,-554 602,-554 602,-516 737,-516 737,-554"/>
<text text-anchor="middle" x="669.5" y="-538.8" font-family="Times,serif" font-size="14.00">longitude &lt;= &#45;66.952</text>
<text text-anchor="middle" x="669.5" y="-523.8" font-family="Times,serif" font-size="14.00">class = Canada</text>
</g>
<!-- 13&#45;&gt;37 -->
<g id="edge37" class="edge">
<title>13&#45;&gt;37</title>
<path fill="none" stroke="black" d="M534.92,-589.83C559.21,-580.12 589.29,-568.08 614.85,-557.86"/>
<polygon fill="black" stroke="black" points="616.42,-561 624.41,-554.04 613.82,-554.5 616.42,-561"/>
</g>
<!-- 15 -->
<g id="node16" class="node">
<title>15</title>
<polygon fill="none" stroke="black" points="357.5,-480 237.5,-480 237.5,-442 357.5,-442 357.5,-480"/>
<text text-anchor="middle" x="297.5" y="-464.8" font-family="Times,serif" font-size="14.00">latitude &lt;= 43.014</text>
<text text-anchor="middle" x="297.5" y="-449.8" font-family="Times,serif" font-size="14.00">class = Canada</text>
</g>
<!-- 14&#45;&gt;15 -->
<g id="edge15" class="edge">
<title>14&#45;&gt;15</title>
<path fill="none" stroke="black" d="M434.32,-515.83C409.52,-506.07 378.78,-493.98 352.72,-483.72"/>
<polygon fill="black" stroke="black" points="353.93,-480.44 343.35,-480.04 351.37,-486.96 353.93,-480.44"/>
</g>
<!-- 20 -->
<g id="node21" class="node">
<title>20</title>
<polygon fill="none" stroke="black" points="540.5,-480 420.5,-480 420.5,-442 540.5,-442 540.5,-480"/>
<text text-anchor="middle" x="480.5" y="-464.8" font-family="Times,serif" font-size="14.00">latitude &lt;= 44.992</text>
<text text-anchor="middle" x="480.5" y="-449.8" font-family="Times,serif" font-size="14.00">class = Canada</text>
</g>
<!-- 14&#45;&gt;20 -->
<g id="edge20" class="edge">
<title>14&#45;&gt;20</title>
<path fill="none" stroke="black" d="M480.5,-515.83C480.5,-508.13 480.5,-498.97 480.5,-490.42"/>
<polygon fill="black" stroke="black" points="484,-490.41 480.5,-480.41 477,-490.41 484,-490.41"/>
</g>
<!-- 16 -->
<g id="node17" class="node">
<title>16</title>
<polygon fill="none" stroke="black" points="223,-406 88,-406 88,-368 223,-368 223,-406"/>
<text text-anchor="middle" x="155.5" y="-390.8" font-family="Times,serif" font-size="14.00">longitude &lt;= &#45;81.845</text>
<text text-anchor="middle" x="155.5" y="-375.8" font-family="Times,serif" font-size="14.00">class = Canada</text>
</g>
<!-- 15&#45;&gt;16 -->
<g id="edge16" class="edge">
<title>15&#45;&gt;16</title>
<path fill="none" stroke="black" d="M261.67,-441.83C243.08,-432.41 220.2,-420.81 200.44,-410.79"/>
<polygon fill="black" stroke="black" points="201.82,-407.56 191.32,-406.16 198.66,-413.81 201.82,-407.56"/>
</g>
<!-- 19 -->
<g id="node20" class="node">
<title>19</title>
<polygon fill="none" stroke="black" points="341,-405 254,-405 254,-369 341,-369 341,-405"/>
<text text-anchor="middle" x="297.5" y="-383.3" font-family="Times,serif" font-size="14.00">class = USA</text>
</g>
<!-- 15&#45;&gt;19 -->
<g id="edge19" class="edge">
<title>15&#45;&gt;19</title>
<path fill="none" stroke="black" d="M297.5,-441.83C297.5,-433.89 297.5,-424.41 297.5,-415.63"/>
<polygon fill="black" stroke="black" points="301,-415.42 297.5,-405.42 294,-415.42 301,-415.42"/>
</g>
<!-- 17 -->
<g id="node18" class="node">
<title>17</title>
<polygon fill="none" stroke="black" points="87,-331 0,-331 0,-295 87,-295 87,-331"/>
<text text-anchor="middle" x="43.5" y="-309.3" font-family="Times,serif" font-size="14.00">class = USA</text>
</g>
<!-- 16&#45;&gt;17 -->
<g id="edge17" class="edge">
<title>16&#45;&gt;17</title>
<path fill="none" stroke="black" d="M127.24,-367.83C112.61,-358.43 94.61,-346.86 79.05,-336.85"/>
<polygon fill="black" stroke="black" points="80.52,-333.63 70.21,-331.17 76.73,-339.52 80.52,-333.63"/>
</g>
<!-- 18 -->
<g id="node19" class="node">
<title>18</title>
<polygon fill="none" stroke="black" points="206,-331 105,-331 105,-295 206,-295 206,-331"/>
<text text-anchor="middle" x="155.5" y="-309.3" font-family="Times,serif" font-size="14.00">class = Canada</text>
</g>
<!-- 16&#45;&gt;18 -->
<g id="edge18" class="edge">
<title>16&#45;&gt;18</title>
<path fill="none" stroke="black" d="M155.5,-367.83C155.5,-359.89 155.5,-350.41 155.5,-341.63"/>
<polygon fill="black" stroke="black" points="159,-341.42 155.5,-331.42 152,-341.42 159,-341.42"/>
</g>
<!-- 21 -->
<g id="node22" class="node">
<title>21</title>
<polygon fill="none" stroke="black" points="481.5,-406 361.5,-406 361.5,-368 481.5,-368 481.5,-406"/>
<text text-anchor="middle" x="421.5" y="-390.8" font-family="Times,serif" font-size="14.00">latitude &lt;= 44.542</text>
<text text-anchor="middle" x="421.5" y="-375.8" font-family="Times,serif" font-size="14.00">class = Canada</text>
</g>
<!-- 20&#45;&gt;21 -->
<g id="edge21" class="edge">
<title>20&#45;&gt;21</title>
<path fill="none" stroke="black" d="M465.61,-441.83C458.75,-433.45 450.47,-423.35 442.95,-414.17"/>
<polygon fill="black" stroke="black" points="445.63,-411.93 436.59,-406.41 440.22,-416.37 445.63,-411.93"/>
</g>
<!-- 36 -->
<g id="node37" class="node">
<title>36</title>
<polygon fill="none" stroke="black" points="601,-405 500,-405 500,-369 601,-369 601,-405"/>
<text text-anchor="middle" x="550.5" y="-383.3" font-family="Times,serif" font-size="14.00">class = Canada</text>
</g>
<!-- 20&#45;&gt;36 -->
<g id="edge36" class="edge">
<title>20&#45;&gt;36</title>
<path fill="none" stroke="black" d="M498.16,-441.83C506.73,-433.02 517.15,-422.31 526.43,-412.76"/>
<polygon fill="black" stroke="black" points="529.1,-415.03 533.57,-405.42 524.09,-410.15 529.1,-415.03"/>
</g>
<!-- 22 -->
<g id="node23" class="node">
<title>22</title>
<polygon fill="none" stroke="black" points="359,-332 224,-332 224,-294 359,-294 359,-332"/>
<text text-anchor="middle" x="291.5" y="-316.8" font-family="Times,serif" font-size="14.00">longitude &lt;= &#45;79.076</text>
<text text-anchor="middle" x="291.5" y="-301.8" font-family="Times,serif" font-size="14.00">class = Canada</text>
</g>
<!-- 21&#45;&gt;22 -->
<g id="edge22" class="edge">
<title>21&#45;&gt;22</title>
<path fill="none" stroke="black" d="M388.7,-367.83C371.91,-358.54 351.3,-347.12 333.38,-337.2"/>
<polygon fill="black" stroke="black" points="334.74,-333.95 324.29,-332.16 331.35,-340.07 334.74,-333.95"/>
</g>
<!-- 31 -->
<g id="node32" class="node">
<title>31</title>
<polygon fill="none" stroke="black" points="512,-332 377,-332 377,-294 512,-294 512,-332"/>
<text text-anchor="middle" x="444.5" y="-316.8" font-family="Times,serif" font-size="14.00">longitude &lt;= &#45;84.392</text>
<text text-anchor="middle" x="444.5" y="-301.8" font-family="Times,serif" font-size="14.00">class = USA</text>
</g>
<!-- 21&#45;&gt;31 -->
<g id="edge31" class="edge">
<title>21&#45;&gt;31</title>
<path fill="none" stroke="black" d="M427.3,-367.83C429.79,-360.05 432.75,-350.77 435.51,-342.13"/>
<polygon fill="black" stroke="black" points="438.91,-343 438.62,-332.41 432.24,-340.87 438.91,-343"/>
</g>
<!-- 23 -->
<g id="node24" class="node">
<title>23</title>
<polygon fill="none" stroke="black" points="213,-257 112,-257 112,-221 213,-221 213,-257"/>
<text text-anchor="middle" x="162.5" y="-235.3" font-family="Times,serif" font-size="14.00">class = Canada</text>
</g>
<!-- 22&#45;&gt;23 -->
<g id="edge23" class="edge">
<title>22&#45;&gt;23</title>
<path fill="none" stroke="black" d="M258.95,-293.83C241.79,-284.25 220.59,-272.42 202.44,-262.29"/>
<polygon fill="black" stroke="black" points="203.7,-258.99 193.27,-257.17 200.29,-265.1 203.7,-258.99"/>
</g>
<!-- 24 -->
<g id="node25" class="node">
<title>24</title>
<polygon fill="none" stroke="black" points="351.5,-258 231.5,-258 231.5,-220 351.5,-220 351.5,-258"/>
<text text-anchor="middle" x="291.5" y="-242.8" font-family="Times,serif" font-size="14.00">latitude &lt;= 44.168</text>
<text text-anchor="middle" x="291.5" y="-227.8" font-family="Times,serif" font-size="14.00">class = Canada</text>
</g>
<!-- 22&#45;&gt;24 -->
<g id="edge24" class="edge">
<title>22&#45;&gt;24</title>
<path fill="none" stroke="black" d="M291.5,-293.83C291.5,-286.13 291.5,-276.97 291.5,-268.42"/>
<polygon fill="black" stroke="black" points="295,-268.41 291.5,-258.41 288,-268.41 295,-268.41"/>
</g>
<!-- 25 -->
<g id="node26" class="node">
<title>25</title>
<polygon fill="none" stroke="black" points="232.5,-184 104.5,-184 104.5,-146 232.5,-146 232.5,-184"/>
<text text-anchor="middle" x="168.5" y="-168.8" font-family="Times,serif" font-size="14.00">longitude &lt;= &#45;79.03</text>
<text text-anchor="middle" x="168.5" y="-153.8" font-family="Times,serif" font-size="14.00">class = USA</text>
</g>
<!-- 24&#45;&gt;25 -->
<g id="edge25" class="edge">
<title>24&#45;&gt;25</title>
<path fill="none" stroke="black" d="M260.46,-219.83C244.73,-210.62 225.44,-199.33 208.6,-189.47"/>
<polygon fill="black" stroke="black" points="209.93,-186.19 199.53,-184.16 206.39,-192.24 209.93,-186.19"/>
</g>
<!-- 30 -->
<g id="node31" class="node">
<title>30</title>
<polygon fill="none" stroke="black" points="352,-183 251,-183 251,-147 352,-147 352,-183"/>
<text text-anchor="middle" x="301.5" y="-161.3" font-family="Times,serif" font-size="14.00">class = Canada</text>
</g>
<!-- 24&#45;&gt;30 -->
<g id="edge30" class="edge">
<title>24&#45;&gt;30</title>
<path fill="none" stroke="black" d="M294.02,-219.83C295.14,-211.81 296.47,-202.2 297.7,-193.34"/>
<polygon fill="black" stroke="black" points="301.17,-193.8 299.08,-183.42 294.24,-192.84 301.17,-193.8"/>
</g>
<!-- 26 -->
<g id="node27" class="node">
<title>26</title>
<polygon fill="none" stroke="black" points="151,-109 64,-109 64,-73 151,-73 151,-109"/>
<text text-anchor="middle" x="107.5" y="-87.3" font-family="Times,serif" font-size="14.00">class = USA</text>
</g>
<!-- 25&#45;&gt;26 -->
<g id="edge26" class="edge">
<title>25&#45;&gt;26</title>
<path fill="none" stroke="black" d="M153.11,-145.83C145.79,-137.2 136.92,-126.73 128.96,-117.33"/>
<polygon fill="black" stroke="black" points="131.39,-114.79 122.26,-109.42 126.05,-119.31 131.39,-114.79"/>
</g>
<!-- 27 -->
<g id="node28" class="node">
<title>27</title>
<polygon fill="none" stroke="black" points="289.5,-110 169.5,-110 169.5,-72 289.5,-72 289.5,-110"/>
<text text-anchor="middle" x="229.5" y="-94.8" font-family="Times,serif" font-size="14.00">latitude &lt;= 43.988</text>
<text text-anchor="middle" x="229.5" y="-79.8" font-family="Times,serif" font-size="14.00">class = Canada</text>
</g>
<!-- 25&#45;&gt;27 -->
<g id="edge27" class="edge">
<title>25&#45;&gt;27</title>
<path fill="none" stroke="black" d="M183.89,-145.83C190.99,-137.45 199.55,-127.35 207.32,-118.17"/>
<polygon fill="black" stroke="black" points="210.11,-120.31 213.9,-110.41 204.77,-115.78 210.11,-120.31"/>
</g>
<!-- 28 -->
<g id="node29" class="node">
<title>28</title>
<polygon fill="none" stroke="black" points="224,-36 123,-36 123,0 224,0 224,-36"/>
<text text-anchor="middle" x="173.5" y="-14.3" font-family="Times,serif" font-size="14.00">class = Canada</text>
</g>
<!-- 27&#45;&gt;28 -->
<g id="edge28" class="edge">
<title>27&#45;&gt;28</title>
<path fill="none" stroke="black" d="M215.08,-71.72C208.43,-63.29 200.43,-53.15 193.23,-44.02"/>
<polygon fill="black" stroke="black" points="195.85,-41.69 186.91,-36 190.36,-46.02 195.85,-41.69"/>
</g>
<!-- 29 -->
<g id="node30" class="node">
<title>29</title>
<polygon fill="none" stroke="black" points="329,-36 242,-36 242,0 329,0 329,-36"/>
<text text-anchor="middle" x="285.5" y="-14.3" font-family="Times,serif" font-size="14.00">class = USA</text>
</g>
<!-- 27&#45;&gt;29 -->
<g id="edge29" class="edge">
<title>27&#45;&gt;29</title>
<path fill="none" stroke="black" d="M243.92,-71.72C250.57,-63.29 258.57,-53.15 265.77,-44.02"/>
<polygon fill="black" stroke="black" points="268.64,-46.02 272.09,-36 263.15,-41.69 268.64,-46.02"/>
</g>
<!-- 32 -->
<g id="node33" class="node">
<title>32</title>
<polygon fill="none" stroke="black" points="457,-257 370,-257 370,-221 457,-221 457,-257"/>
<text text-anchor="middle" x="413.5" y="-235.3" font-family="Times,serif" font-size="14.00">class = USA</text>
</g>
<!-- 31&#45;&gt;32 -->
<g id="edge32" class="edge">
<title>31&#45;&gt;32</title>
<path fill="none" stroke="black" d="M436.68,-293.83C433.15,-285.63 428.91,-275.78 425.02,-266.76"/>
<polygon fill="black" stroke="black" points="428.17,-265.22 421,-257.42 421.74,-267.99 428.17,-265.22"/>
</g>
<!-- 33 -->
<g id="node34" class="node">
<title>33</title>
<polygon fill="none" stroke="black" points="610,-258 475,-258 475,-220 610,-220 610,-258"/>
<text text-anchor="middle" x="542.5" y="-242.8" font-family="Times,serif" font-size="14.00">longitude &lt;= &#45;75.503</text>
<text text-anchor="middle" x="542.5" y="-227.8" font-family="Times,serif" font-size="14.00">class = Canada</text>
</g>
<!-- 31&#45;&gt;33 -->
<g id="edge33" class="edge">
<title>31&#45;&gt;33</title>
<path fill="none" stroke="black" d="M469.23,-293.83C481.42,-284.88 496.28,-273.96 509.43,-264.3"/>
<polygon fill="black" stroke="black" points="511.79,-266.9 517.78,-258.16 507.65,-261.26 511.79,-266.9"/>
</g>
<!-- 34 -->
<g id="node35" class="node">
<title>34</title>
<polygon fill="none" stroke="black" points="485,-183 384,-183 384,-147 485,-147 485,-183"/>
<text text-anchor="middle" x="434.5" y="-161.3" font-family="Times,serif" font-size="14.00">class = Canada</text>
</g>
<!-- 33&#45;&gt;34 -->
<g id="edge34" class="edge">
<title>33&#45;&gt;34</title>
<path fill="none" stroke="black" d="M515.25,-219.83C501.14,-210.43 483.78,-198.86 468.78,-188.85"/>
<polygon fill="black" stroke="black" points="470.52,-185.81 460.26,-183.17 466.64,-191.63 470.52,-185.81"/>
</g>
<!-- 35 -->
<g id="node36" class="node">
<title>35</title>
<polygon fill="none" stroke="black" points="590,-183 503,-183 503,-147 590,-147 590,-183"/>
<text text-anchor="middle" x="546.5" y="-161.3" font-family="Times,serif" font-size="14.00">class = USA</text>
</g>
<!-- 33&#45;&gt;35 -->
<g id="edge35" class="edge">
<title>33&#45;&gt;35</title>
<path fill="none" stroke="black" d="M543.51,-219.83C543.95,-211.89 544.48,-202.41 544.97,-193.63"/>
<polygon fill="black" stroke="black" points="548.47,-193.6 545.53,-183.42 541.48,-193.21 548.47,-193.6"/>
</g>
<!-- 38 -->
<g id="node39" class="node">
<title>38</title>
<polygon fill="none" stroke="black" points="729.5,-480 609.5,-480 609.5,-442 729.5,-442 729.5,-480"/>
<text text-anchor="middle" x="669.5" y="-464.8" font-family="Times,serif" font-size="14.00">latitude &lt;= 45.195</text>
<text text-anchor="middle" x="669.5" y="-449.8" font-family="Times,serif" font-size="14.00">class = USA</text>
</g>
<!-- 37&#45;&gt;38 -->
<g id="edge38" class="edge">
<title>37&#45;&gt;38</title>
<path fill="none" stroke="black" d="M669.5,-515.83C669.5,-508.13 669.5,-498.97 669.5,-490.42"/>
<polygon fill="black" stroke="black" points="673,-490.41 669.5,-480.41 666,-490.41 673,-490.41"/>
</g>
<!-- 55 -->
<g id="node56" class="node">
<title>55</title>
<polygon fill="none" stroke="black" points="849,-479 748,-479 748,-443 849,-443 849,-479"/>
<text text-anchor="middle" x="798.5" y="-457.3" font-family="Times,serif" font-size="14.00">class = Canada</text>
</g>
<!-- 37&#45;&gt;55 -->
<g id="edge55" class="edge">
<title>37&#45;&gt;55</title>
<path fill="none" stroke="black" d="M702.05,-515.83C719.21,-506.25 740.41,-494.42 758.56,-484.29"/>
<polygon fill="black" stroke="black" points="760.71,-487.1 767.73,-479.17 757.3,-480.99 760.71,-487.1"/>
</g>
<!-- 39 -->
<g id="node40" class="node">
<title>39</title>
<polygon fill="none" stroke="black" points="713,-405 626,-405 626,-369 713,-369 713,-405"/>
<text text-anchor="middle" x="669.5" y="-383.3" font-family="Times,serif" font-size="14.00">class = USA</text>
</g>
<!-- 38&#45;&gt;39 -->
<g id="edge39" class="edge">
<title>38&#45;&gt;39</title>
<path fill="none" stroke="black" d="M669.5,-441.83C669.5,-433.89 669.5,-424.41 669.5,-415.63"/>
<polygon fill="black" stroke="black" points="673,-415.42 669.5,-405.42 666,-415.42 673,-415.42"/>
</g>
<!-- 40 -->
<g id="node41" class="node">
<title>40</title>
<polygon fill="none" stroke="black" points="862.5,-406 734.5,-406 734.5,-368 862.5,-368 862.5,-406"/>
<text text-anchor="middle" x="798.5" y="-390.8" font-family="Times,serif" font-size="14.00">longitude &lt;= &#45;67.93</text>
<text text-anchor="middle" x="798.5" y="-375.8" font-family="Times,serif" font-size="14.00">class = Canada</text>
</g>
<!-- 38&#45;&gt;40 -->
<g id="edge40" class="edge">
<title>38&#45;&gt;40</title>
<path fill="none" stroke="black" d="M702.05,-441.83C718.7,-432.54 739.16,-421.12 756.94,-411.2"/>
<polygon fill="black" stroke="black" points="758.93,-414.09 765.96,-406.16 755.52,-407.98 758.93,-414.09"/>
</g>
<!-- 41 -->
<g id="node42" class="node">
<title>41</title>
<polygon fill="none" stroke="black" points="866,-332 731,-332 731,-294 866,-294 866,-332"/>
<text text-anchor="middle" x="798.5" y="-316.8" font-family="Times,serif" font-size="14.00">longitude &lt;= &#45;68.325</text>
<text text-anchor="middle" x="798.5" y="-301.8" font-family="Times,serif" font-size="14.00">class = USA</text>
</g>
<!-- 40&#45;&gt;41 -->
<g id="edge41" class="edge">
<title>40&#45;&gt;41</title>
<path fill="none" stroke="black" d="M798.5,-367.83C798.5,-360.13 798.5,-350.97 798.5,-342.42"/>
<polygon fill="black" stroke="black" points="802,-342.41 798.5,-332.41 795,-342.41 802,-342.41"/>
</g>
<!-- 50 -->
<g id="node51" class="node">
<title>50</title>
<polygon fill="none" stroke="black" points="1006.5,-332 886.5,-332 886.5,-294 1006.5,-294 1006.5,-332"/>
<text text-anchor="middle" x="946.5" y="-316.8" font-family="Times,serif" font-size="14.00">latitude &lt;= 45.565</text>
<text text-anchor="middle" x="946.5" y="-301.8" font-family="Times,serif" font-size="14.00">class = Canada</text>
</g>
<!-- 40&#45;&gt;50 -->
<g id="edge50" class="edge">
<title>40&#45;&gt;50</title>
<path fill="none" stroke="black" d="M835.85,-367.83C855.38,-358.33 879.46,-346.61 900.17,-336.54"/>
<polygon fill="black" stroke="black" points="901.96,-339.56 909.42,-332.04 898.9,-333.27 901.96,-339.56"/>
</g>
<!-- 42 -->
<g id="node43" class="node">
<title>42</title>
<polygon fill="none" stroke="black" points="763,-258 628,-258 628,-220 763,-220 763,-258"/>
<text text-anchor="middle" x="695.5" y="-242.8" font-family="Times,serif" font-size="14.00">longitude &lt;= &#45;68.915</text>
<text text-anchor="middle" x="695.5" y="-227.8" font-family="Times,serif" font-size="14.00">class = Canada</text>
</g>
<!-- 41&#45;&gt;42 -->
<g id="edge42" class="edge">
<title>41&#45;&gt;42</title>
<path fill="none" stroke="black" d="M772.51,-293.83C759.58,-284.79 743.78,-273.75 729.86,-264.02"/>
<polygon fill="black" stroke="black" points="731.68,-261.02 721.48,-258.16 727.67,-266.76 731.68,-261.02"/>
</g>
<!-- 49 -->
<g id="node50" class="node">
<title>49</title>
<polygon fill="none" stroke="black" points="868,-257 781,-257 781,-221 868,-221 868,-257"/>
<text text-anchor="middle" x="824.5" y="-235.3" font-family="Times,serif" font-size="14.00">class = USA</text>
</g>
<!-- 41&#45;&gt;49 -->
<g id="edge49" class="edge">
<title>41&#45;&gt;49</title>
<path fill="none" stroke="black" d="M805.06,-293.83C807.99,-285.72 811.5,-275.99 814.73,-267.05"/>
<polygon fill="black" stroke="black" points="818.11,-268.01 818.21,-257.42 811.52,-265.63 818.11,-268.01"/>
</g>
<!-- 43 -->
<g id="node44" class="node">
<title>43</title>
<polygon fill="none" stroke="black" points="712,-183 625,-183 625,-147 712,-147 712,-183"/>
<text text-anchor="middle" x="668.5" y="-161.3" font-family="Times,serif" font-size="14.00">class = USA</text>
</g>
<!-- 42&#45;&gt;43 -->
<g id="edge43" class="edge">
<title>42&#45;&gt;43</title>
<path fill="none" stroke="black" d="M688.69,-219.83C685.64,-211.72 682,-201.99 678.64,-193.05"/>
<polygon fill="black" stroke="black" points="681.82,-191.55 675.03,-183.42 675.27,-194.01 681.82,-191.55"/>
</g>
<!-- 44 -->
<g id="node45" class="node">
<title>44</title>
<polygon fill="none" stroke="black" points="865,-184 730,-184 730,-146 865,-146 865,-184"/>
<text text-anchor="middle" x="797.5" y="-168.8" font-family="Times,serif" font-size="14.00">longitude &lt;= &#45;68.597</text>
<text text-anchor="middle" x="797.5" y="-153.8" font-family="Times,serif" font-size="14.00">class = Canada</text>
</g>
<!-- 42&#45;&gt;44 -->
<g id="edge44" class="edge">
<title>42&#45;&gt;44</title>
<path fill="none" stroke="black" d="M721.24,-219.83C734.04,-210.79 749.69,-199.75 763.47,-190.02"/>
<polygon fill="black" stroke="black" points="765.62,-192.79 771.77,-184.16 761.58,-187.07 765.62,-192.79"/>
</g>
<!-- 45 -->
<g id="node46" class="node">
<title>45</title>
<polygon fill="none" stroke="black" points="783,-109 682,-109 682,-73 783,-73 783,-109"/>
<text text-anchor="middle" x="732.5" y="-87.3" font-family="Times,serif" font-size="14.00">class = Canada</text>
</g>
<!-- 44&#45;&gt;45 -->
<g id="edge45" class="edge">
<title>44&#45;&gt;45</title>
<path fill="none" stroke="black" d="M781.1,-145.83C773.22,-137.11 763.66,-126.52 755.11,-117.05"/>
<polygon fill="black" stroke="black" points="757.52,-114.5 748.22,-109.42 752.33,-119.19 757.52,-114.5"/>
</g>
<!-- 46 -->
<g id="node47" class="node">
<title>46</title>
<polygon fill="none" stroke="black" points="921.5,-110 801.5,-110 801.5,-72 921.5,-72 921.5,-110"/>
<text text-anchor="middle" x="861.5" y="-94.8" font-family="Times,serif" font-size="14.00">latitude &lt;= 47.312</text>
<text text-anchor="middle" x="861.5" y="-79.8" font-family="Times,serif" font-size="14.00">class = Canada</text>
</g>
<!-- 44&#45;&gt;46 -->
<g id="edge46" class="edge">
<title>44&#45;&gt;46</title>
<path fill="none" stroke="black" d="M813.65,-145.83C821.17,-137.37 830.26,-127.15 838.48,-117.9"/>
<polygon fill="black" stroke="black" points="841.1,-120.21 845.13,-110.41 835.87,-115.56 841.1,-120.21"/>
</g>
<!-- 47 -->
<g id="node48" class="node">
<title>47</title>
<polygon fill="none" stroke="black" points="849,-36 762,-36 762,0 849,0 849,-36"/>
<text text-anchor="middle" x="805.5" y="-14.3" font-family="Times,serif" font-size="14.00">class = USA</text>
</g>
<!-- 46&#45;&gt;47 -->
<g id="edge47" class="edge">
<title>46&#45;&gt;47</title>
<path fill="none" stroke="black" d="M847.08,-71.72C840.43,-63.29 832.43,-53.15 825.23,-44.02"/>
<polygon fill="black" stroke="black" points="827.85,-41.69 818.91,-36 822.36,-46.02 827.85,-41.69"/>
</g>
<!-- 48 -->
<g id="node49" class="node">
<title>48</title>
<polygon fill="none" stroke="black" points="968,-36 867,-36 867,0 968,0 968,-36"/>
<text text-anchor="middle" x="917.5" y="-14.3" font-family="Times,serif" font-size="14.00">class = Canada</text>
</g>
<!-- 46&#45;&gt;48 -->
<g id="edge48" class="edge">
<title>46&#45;&gt;48</title>
<path fill="none" stroke="black" d="M875.92,-71.72C882.57,-63.29 890.57,-53.15 897.77,-44.02"/>
<polygon fill="black" stroke="black" points="900.64,-46.02 904.09,-36 895.15,-41.69 900.64,-46.02"/>
</g>
<!-- 51 -->
<g id="node52" class="node">
<title>51</title>
<polygon fill="none" stroke="black" points="1006.5,-258 886.5,-258 886.5,-220 1006.5,-220 1006.5,-258"/>
<text text-anchor="middle" x="946.5" y="-242.8" font-family="Times,serif" font-size="14.00">latitude &lt;= 45.382</text>
<text text-anchor="middle" x="946.5" y="-227.8" font-family="Times,serif" font-size="14.00">class = Canada</text>
</g>
<!-- 50&#45;&gt;51 -->
<g id="edge51" class="edge">
<title>50&#45;&gt;51</title>
<path fill="none" stroke="black" d="M946.5,-293.83C946.5,-286.13 946.5,-276.97 946.5,-268.42"/>
<polygon fill="black" stroke="black" points="950,-268.41 946.5,-258.41 943,-268.41 950,-268.41"/>
</g>
<!-- 54 -->
<g id="node55" class="node">
<title>54</title>
<polygon fill="none" stroke="black" points="1126,-257 1025,-257 1025,-221 1126,-221 1126,-257"/>
<text text-anchor="middle" x="1075.5" y="-235.3" font-family="Times,serif" font-size="14.00">class = Canada</text>
</g>
<!-- 50&#45;&gt;54 -->
<g id="edge54" class="edge">
<title>50&#45;&gt;54</title>
<path fill="none" stroke="black" d="M979.05,-293.83C996.21,-284.25 1017.41,-272.42 1035.56,-262.29"/>
<polygon fill="black" stroke="black" points="1037.71,-265.1 1044.73,-257.17 1034.3,-258.99 1037.71,-265.1"/>
</g>
<!-- 52 -->
<g id="node53" class="node">
<title>52</title>
<polygon fill="none" stroke="black" points="992,-183 891,-183 891,-147 992,-147 992,-183"/>
<text text-anchor="middle" x="941.5" y="-161.3" font-family="Times,serif" font-size="14.00">class = Canada</text>
</g>
<!-- 51&#45;&gt;52 -->
<g id="edge52" class="edge">
<title>51&#45;&gt;52</title>
<path fill="none" stroke="black" d="M945.24,-219.83C944.69,-211.89 944.03,-202.41 943.42,-193.63"/>
<polygon fill="black" stroke="black" points="946.89,-193.15 942.71,-183.42 939.91,-193.64 946.89,-193.15"/>
</g>
<!-- 53 -->
<g id="node54" class="node">
<title>53</title>
<polygon fill="none" stroke="black" points="1097,-183 1010,-183 1010,-147 1097,-147 1097,-183"/>
<text text-anchor="middle" x="1053.5" y="-161.3" font-family="Times,serif" font-size="14.00">class = USA</text>
</g>
<!-- 51&#45;&gt;53 -->
<g id="edge53" class="edge">
<title>51&#45;&gt;53</title>
<path fill="none" stroke="black" d="M973.5,-219.83C987.47,-210.43 1004.67,-198.86 1019.54,-188.85"/>
<polygon fill="black" stroke="black" points="1021.64,-191.66 1027.98,-183.17 1017.73,-185.85 1021.64,-191.66"/>
</g>
</g>
</svg>
