<?xml version="1.0" encoding="UTF-8" standalone="no"?>
<!DOCTYPE svg PUBLIC "-//W3C//DTD SVG 1.1//EN"
 "http://www.w3.org/Graphics/SVG/1.1/DTD/svg11.dtd">
<!-- Generated by graphviz version 2.49.0 (0)
 -->
<!-- Title: Tree Pages: 1 -->
<svg width="1134pt" height="932pt"
 viewBox="0.00 0.00 1134.00 932.00" xmlns="http://www.w3.org/2000/svg" xmlns:xlink="http://www.w3.org/1999/xlink">
<g id="graph0" class="graph" transform="scale(1 1) rotate(0) translate(4 928)">
<title>Tree</title>
<polygon fill="white" stroke="transparent" points="-4,4 -4,-928 1130,-928 1130,4 -4,4"/>
<!-- 0 -->
<g id="node1" class="node">
<title>0</title>
<polygon fill="none" stroke="black" points="303.5,-924 197.5,-924 197.5,-886 303.5,-886 303.5,-924"/>
<text text-anchor="middle" x="250.5" y="-908.8" font-family="Times,serif" font-size="14.00">latitude &lt;= 42.9</text>
<text text-anchor="middle" x="250.5" y="-893.8" font-family="Times,serif" font-size="14.00">class = Canada</text>
</g>
<!-- 1 -->
<g id="node2" class="node">
<title>1</title>
<polygon fill="none" stroke="black" points="236.5,-850 116.5,-850 116.5,-812 236.5,-812 236.5,-850"/>
<text text-anchor="middle" x="176.5" y="-834.8" font-family="Times,serif" font-size="14.00">latitude &lt;= 42.096</text>
<text text-anchor="middle" x="176.5" y="-819.8" font-family="Times,serif" font-size="14.00">class = USA</text>
</g>
<!-- 0&#45;&gt;1 -->
<g id="edge1" class="edge">
<title>0&#45;&gt;1</title>
<path fill="none" stroke="black" d="M231.83,-885.83C222.98,-877.22 212.25,-866.79 202.61,-857.4"/>
<polygon fill="black" stroke="black" points="204.78,-854.63 195.17,-850.16 199.89,-859.64 204.78,-854.63"/>
<text text-anchor="middle" x="195.51" y="-871.46" font-family="Times,serif" font-size="14.00">True</text>
</g>
<!-- 6 -->
<g id="node7" class="node">
<title>6</title>
<polygon fill="none" stroke="black" points="396.5,-850 254.5,-850 254.5,-812 396.5,-812 396.5,-850"/>
<text text-anchor="middle" x="325.5" y="-834.8" font-family="Times,serif" font-size="14.00">longitude &lt;= &#45;130.017</text>
<text text-anchor="middle" x="325.5" y="-819.8" font-family="Times,serif" font-size="14.00">class = Canada</text>
</g>
<!-- 0&#45;&gt;6 -->
<g id="edge6" class="edge">
<title>0&#45;&gt;6</title>
<path fill="none" stroke="black" d="M269.43,-885.83C278.49,-877.13 289.48,-866.58 299.33,-857.13"/>
<polygon fill="black" stroke="black" points="301.79,-859.61 306.58,-850.16 296.94,-854.56 301.79,-859.61"/>
<text text-anchor="middle" x="306.07" y="-871.46" font-family="Times,serif" font-size="14.00">False</text>
</g>
<!-- 2 -->
<g id="node3" class="node">
<title>2</title>
<polygon fill="none" stroke="black" points="103,-775 16,-775 16,-739 103,-739 103,-775"/>
<text text-anchor="middle" x="59.5" y="-753.3" font-family="Times,serif" font-size="14.00">class = USA</text>
</g>
<!-- 1&#45;&gt;2 -->
<g id="edge2" class="edge">
<title>1&#45;&gt;2</title>
<path fill="none" stroke="black" d="M146.98,-811.83C131.55,-802.34 112.54,-790.64 96.18,-780.57"/>
<polygon fill="black" stroke="black" points="97.75,-777.43 87.4,-775.17 94.09,-783.39 97.75,-777.43"/>
</g>
<!-- 3 -->
<g id="node4" class="node">
<title>3</title>
<polygon fill="none" stroke="black" points="241.5,-776 121.5,-776 121.5,-738 241.5,-738 241.5,-776"/>
<text text-anchor="middle" x="181.5" y="-760.8" font-family="Times,serif" font-size="14.00">latitude &lt;= 42.324</text>
<text text-anchor="middle" x="181.5" y="-745.8" font-family="Times,serif" font-size="14.00">class = USA</text>
</g>
<!-- 1&#45;&gt;3 -->
<g id="edge3" class="edge">
<title>1&#45;&gt;3</title>
<path fill="none" stroke="black" d="M177.76,-811.83C178.3,-804.13 178.93,-794.97 179.53,-786.42"/>
<polygon fill="black" stroke="black" points="183.02,-786.63 180.22,-776.41 176.04,-786.15 183.02,-786.63"/>
</g>
<!-- 4 -->
<g id="node5" class="node">
<title>4</title>
<polygon fill="none" stroke="black" points="225,-701 124,-701 124,-665 225,-665 225,-701"/>
<text text-anchor="middle" x="174.5" y="-679.3" font-family="Times,serif" font-size="14.00">class = Canada</text>
</g>
<!-- 3&#45;&gt;4 -->
<g id="edge4" class="edge">
<title>3&#45;&gt;4</title>
<path fill="none" stroke="black" d="M179.73,-737.83C178.96,-729.89 178.04,-720.41 177.19,-711.63"/>
<polygon fill="black" stroke="black" points="180.64,-711.03 176.19,-701.42 173.68,-711.71 180.64,-711.03"/>
</g>
<!-- 5 -->
<g id="node6" class="node">
<title>5</title>
<polygon fill="none" stroke="black" points="330,-701 243,-701 243,-665 330,-665 330,-701"/>
<text text-anchor="middle" x="286.5" y="-679.3" font-family="Times,serif" font-size="14.00">class = USA</text>
</g>
<!-- 3&#45;&gt;5 -->
<g id="edge5" class="edge">
<title>3&#45;&gt;5</title>
<path fill="none" stroke="black" d="M208,-737.83C221.71,-728.43 238.59,-716.86 253.17,-706.85"/>
<polygon fill="black" stroke="black" points="255.19,-709.71 261.46,-701.17 251.23,-703.94 255.19,-709.71"/>
</g>
<!-- 7 -->
<g id="node8" class="node">
<title>7</title>
<polygon fill="none" stroke="black" points="360,-775 273,-775 273,-739 360,-739 360,-775"/>
<text text-anchor="middle" x="316.5" y="-753.3" font-family="Times,serif" font-size="14.00">class = USA</text>
</g>
<!-- 6&#45;&gt;7 -->
<g id="edge7" class="edge">
<title>6&#45;&gt;7</title>
<path fill="none" stroke="black" d="M323.23,-811.83C322.24,-803.89 321.05,-794.41 319.95,-785.63"/>
<polygon fill="black" stroke="black" points="323.39,-784.91 318.68,-775.42 316.44,-785.77 323.39,-784.91"/>
</g>
<!-- 8 -->
<g id="node9" class="node">
<title>8</title>
<polygon fill="none" stroke="black" points="484.5,-776 378.5,-776 378.5,-738 484.5,-738 484.5,-776"/>
<text text-anchor="middle" x="431.5" y="-760.8" font-family="Times,serif" font-size="14.00">latitude &lt;= 49.0</text>
<text text-anchor="middle" x="431.5" y="-745.8" font-family="Times,serif" font-size="14.00">class = Canada</text>
</g>
<!-- 6&#45;&gt;8 -->
<g id="edge8" class="edge">
<title>6&#45;&gt;8</title>
<path fill="none" stroke="black" d="M352.25,-811.83C365.56,-802.79 381.82,-791.75 396.14,-782.02"/>
<polygon fill="black" stroke="black" points="398.45,-784.68 404.76,-776.16 394.52,-778.89 398.45,-784.68"/>
</g>
<!-- 9 -->
<g id="node10" class="node">
<title>9</title>
<polygon fill="none" stroke="black" points="494,-702 359,-702 359,-664 494,-664 494,-702"/>
<text text-anchor="middle" x="426.5" y="-686.8" font-family="Times,serif" font-size="14.00">longitude &lt;= &#45;94.582</text>
<text text-anchor="middle" x="426.5" y="-671.8" font-family="Times,serif" font-size="14.00">class = Canada</text>
</g>
<!-- 8&#45;&gt;9 -->
<g id="edge9" class="edge">
<title>8&#45;&gt;9</title>
<path fill="none" stroke="black" d="M430.24,-737.83C429.7,-730.13 429.07,-720.97 428.47,-712.42"/>
<polygon fill="black" stroke="black" points="431.96,-712.15 427.78,-702.41 424.98,-712.63 431.96,-712.15"/>
</g>
<!-- 56 -->
<g id="node57" class="node">
<title>56</title>
<polygon fill="none" stroke="black" points="613,-701 512,-701 512,-665 613,-665 613,-701"/>
<text text-anchor="middle" x="562.5" y="-679.3" font-family="Times,serif" font-size="14.00">class = Canada</text>
</g>
<!-- 8&#45;&gt;56 -->
<g id="edge56" class="edge">
<title>8&#45;&gt;56</title>
<path fill="none" stroke="black" d="M464.56,-737.83C482.14,-728.17 503.91,-716.2 522.45,-706.01"/>
<polygon fill="black" stroke="black" points="524.18,-709.06 531.26,-701.17 520.81,-702.92 524.18,-709.06"/>
</g>
<!-- 10 -->
<g id="node11" class="node">
<title>10</title>
<polygon fill="none" stroke="black" points="419.5,-628 277.5,-628 277.5,-590 419.5,-590 419.5,-628"/>
<text text-anchor="middle" x="348.5" y="-612.8" font-family="Times,serif" font-size="14.00">longitude &lt;= &#45;123.222</text>
<text text-anchor="middle" x="348.5" y="-597.8" font-family="Times,serif" font-size="14.00">class = USA</text>
</g>
<!-- 9&#45;&gt;10 -->
<g id="edge10" class="edge">
<title>9&#45;&gt;10</title>
<path fill="none" stroke="black" d="M406.82,-663.83C397.39,-655.13 385.96,-644.58 375.72,-635.13"/>
<polygon fill="black" stroke="black" points="377.9,-632.37 368.18,-628.16 373.15,-637.52 377.9,-632.37"/>
</g>
<!-- 13 -->
<g id="node14" class="node">
<title>13</title>
<polygon fill="none" stroke="black" points="573,-628 438,-628 438,-590 573,-590 573,-628"/>
<text text-anchor="middle" x="505.5" y="-612.8" font-family="Times,serif" font-size="14.00">longitude &lt;= &#45;69.246</text>
<text text-anchor="middle" x="505.5" y="-597.8" font-family="Times,serif" font-size="14.00">class = Canada</text>
</g>
<!-- 9&#45;&gt;13 -->
<g id="edge13" class="edge">
<title>9&#45;&gt;13</title>
<path fill="none" stroke="black" d="M446.44,-663.83C455.98,-655.13 467.56,-644.58 477.93,-635.13"/>
<polygon fill="black" stroke="black" points="480.54,-637.49 485.57,-628.16 475.82,-632.31 480.54,-637.49"/>
</g>
<!-- 11 -->
<g id="node12" class="node">
<title>11</title>
<polygon fill="none" stroke="black" points="296,-553 195,-553 195,-517 296,-517 296,-553"/>
<text text-anchor="middle" x="245.5" y="-531.3" font-family="Times,serif" font-size="14.00">class = Canada</text>
</g>
<!-- 10&#45;&gt;11 -->
<g id="edge11" class="edge">
<title>10&#45;&gt;11</title>
<path fill="none" stroke="black" d="M322.51,-589.83C309.18,-580.52 292.81,-569.07 278.59,-559.13"/>
<polygon fill="black" stroke="black" points="280.27,-556.03 270.06,-553.17 276.26,-561.77 280.27,-556.03"/>
</g>
<!-- 12 -->
<g id="node13" class="node">
<title>12</title>
<polygon fill="none" stroke="black" points="401,-553 314,-553 314,-517 401,-517 401,-553"/>
<text text-anchor="middle" x="357.5" y="-531.3" font-family="Times,serif" font-size="14.00">class = USA</text>
</g>
<!-- 10&#45;&gt;12 -->
<g id="edge12" class="edge">
<title>10&#45;&gt;12</title>
<path fill="none" stroke="black" d="M350.77,-589.83C351.76,-581.89 352.95,-572.41 354.05,-563.63"/>
<polygon fill="black" stroke="black" points="357.56,-563.77 355.32,-553.42 350.61,-562.91 357.56,-563.77"/>
</g>
<!-- 14 -->
<g id="node15" class="node">
<title>14</title>
<polygon fill="none" stroke="black" points="556.5,-554 436.5,-554 436.5,-516 556.5,-516 556.5,-554"/>
<text text-anchor="middle" x="496.5" y="-538.8" font-family="Times,serif" font-size="14.00">latitude &lt;= 43.093</text>
<text text-anchor="middle" x="496.5" y="-523.8" font-family="Times,serif" font-size="14.00">class = Canada</text>
</g>
<!-- 13&#45;&gt;14 -->
<g id="edge14" class="edge">
<title>13&#45;&gt;14</title>
<path fill="none" stroke="black" d="M503.23,-589.83C502.27,-582.13 501.12,-572.97 500.05,-564.42"/>
<polygon fill="black" stroke="black" points="503.52,-563.9 498.8,-554.41 496.57,-564.77 503.52,-563.9"/>
</g>
<!-- 37 -->
<g id="node38" class="node">
<title>37</title>
<polygon fill="none" stroke="black" points="763,-554 628,-554 628,-516 763,-516 763,-554"/>
<text text-anchor="middle" x="695.5" y="-538.8" font-family="Times,serif" font-size="14.00">longitude &lt;= &#45;66.952</text>
<text text-anchor="middle" x="695.5" y="-523.8" font-family="Times,serif" font-size="14.00">class = Canada</text>
</g>
<!-- 13&#45;&gt;37 -->
<g id="edge37" class="edge">
<title>13&#45;&gt;37</title>
<path fill="none" stroke="black" d="M553.45,-589.83C579.31,-580.03 611.4,-567.87 638.53,-557.59"/>
<polygon fill="black" stroke="black" points="639.79,-560.85 647.9,-554.04 637.31,-554.31 639.79,-560.85"/>
</g>
<!-- 15 -->
<g id="node16" class="node">
<title>15</title>
<polygon fill="none" stroke="black" points="350.5,-480 230.5,-480 230.5,-442 350.5,-442 350.5,-480"/>
<text text-anchor="middle" x="290.5" y="-464.8" font-family="Times,serif" font-size="14.00">latitude &lt;= 43.014</text>
<text text-anchor="middle" x="290.5" y="-449.8" font-family="Times,serif" font-size="14.00">class = Canada</text>
</g>
<!-- 14&#45;&gt;15 -->
<g id="edge15" class="edge">
<title>14&#45;&gt;15</title>
<path fill="none" stroke="black" d="M444.78,-515.92C416.62,-506.08 381.59,-493.84 352.03,-483.51"/>
<polygon fill="black" stroke="black" points="352.83,-480.08 342.24,-480.08 350.52,-486.69 352.83,-480.08"/>
</g>
<!-- 20 -->
<g id="node21" class="node">
<title>20</title>
<polygon fill="none" stroke="black" points="556.5,-480 436.5,-480 436.5,-442 556.5,-442 556.5,-480"/>
<text text-anchor="middle" x="496.5" y="-464.8" font-family="Times,serif" font-size="14.00">latitude &lt;= 44.992</text>
<text text-anchor="middle" x="496.5" y="-449.8" font-family="Times,serif" font-size="14.00">class = Canada</text>
</g>
<!-- 14&#45;&gt;20 -->
<g id="edge20" class="edge">
<title>14&#45;&gt;20</title>
<path fill="none" stroke="black" d="M496.5,-515.83C496.5,-508.13 496.5,-498.97 496.5,-490.42"/>
<polygon fill="black" stroke="black" points="500,-490.41 496.5,-480.41 493,-490.41 500,-490.41"/>
</g>
<!-- 16 -->
<g id="node17" class="node">
<title>16</title>
<polygon fill="none" stroke="black" points="223,-406 88,-406 88,-368 223,-368 223,-406"/>
<text text-anchor="middle" x="155.5" y="-390.8" font-family="Times,serif" font-size="14.00">longitude &lt;= &#45;81.845</text>
<text text-anchor="middle" x="155.5" y="-375.8" font-family="Times,serif" font-size="14.00">class = Canada</text>
</g>
<!-- 15&#45;&gt;16 -->
<g id="edge16" class="edge">
<title>15&#45;&gt;16</title>
<path fill="none" stroke="black" d="M256.43,-441.83C238.85,-432.45 217.21,-420.91 198.48,-410.92"/>
<polygon fill="black" stroke="black" points="200.03,-407.78 189.56,-406.16 196.73,-413.96 200.03,-407.78"/>
</g>
<!-- 19 -->
<g id="node20" class="node">
<title>19</title>
<polygon fill="none" stroke="black" points="334,-405 247,-405 247,-369 334,-369 334,-405"/>
<text text-anchor="middle" x="290.5" y="-383.3" font-family="Times,serif" font-size="14.00">class = USA</text>
</g>
<!-- 15&#45;&gt;19 -->
<g id="edge19" class="edge">
<title>15&#45;&gt;19</title>
<path fill="none" stroke="black" d="M290.5,-441.83C290.5,-433.89 290.5,-424.41 290.5,-415.63"/>
<polygon fill="black" stroke="black" points="294,-415.42 290.5,-405.42 287,-415.42 294,-415.42"/>
</g>
<!-- 17 -->
<g id="node18" class="node">
<title>17</title>
<polygon fill="none" stroke="black" points="87,-331 0,-331 0,-295 87,-295 87,-331"/>
<text text-anchor="middle" x="43.5" y="-309.3" font-family="Times,serif" font-size="14.00">class = USA</text>
</g>
<!-- 16&#45;&gt;17 -->
<g id="edge17" class="edge">
<title>16&#45;&gt;17</title>
<path fill="none" stroke="black" d="M127.24,-367.83C112.61,-358.43 94.61,-346.86 79.05,-336.85"/>
<polygon fill="black" stroke="black" points="80.52,-333.63 70.21,-331.17 76.73,-339.52 80.52,-333.63"/>
</g>
<!-- 18 -->
<g id="node19" class="node">
<title>18</title>
<polygon fill="none" stroke="black" points="206,-331 105,-331 105,-295 206,-295 206,-331"/>
<text text-anchor="middle" x="155.5" y="-309.3" font-family="Times,serif" font-size="14.00">class = Canada</text>
</g>
<!-- 16&#45;&gt;18 -->
<g id="edge18" class="edge">
<title>16&#45;&gt;18</title>
<path fill="none" stroke="black" d="M155.5,-367.83C155.5,-359.89 155.5,-350.41 155.5,-341.63"/>
<polygon fill="black" stroke="black" points="159,-341.42 155.5,-331.42 152,-341.42 159,-341.42"/>
</g>
<!-- 21 -->
<g id="node22" class="node">
<title>21</title>
<polygon fill="none" stroke="black" points="490.5,-406 370.5,-406 370.5,-368 490.5,-368 490.5,-406"/>
<text text-anchor="middle" x="430.5" y="-390.8" font-family="Times,serif" font-size="14.00">latitude &lt;= 44.542</text>
<text text-anchor="middle" x="430.5" y="-375.8" font-family="Times,serif" font-size="14.00">class = Canada</text>
</g>
<!-- 20&#45;&gt;21 -->
<g id="edge21" class="edge">
<title>20&#45;&gt;21</title>
<path fill="none" stroke="black" d="M479.85,-441.83C472.09,-433.37 462.72,-423.15 454.24,-413.9"/>
<polygon fill="black" stroke="black" points="456.72,-411.42 447.38,-406.41 451.56,-416.15 456.72,-411.42"/>
</g>
<!-- 36 -->
<g id="node37" class="node">
<title>36</title>
<polygon fill="none" stroke="black" points="610,-405 509,-405 509,-369 610,-369 610,-405"/>
<text text-anchor="middle" x="559.5" y="-383.3" font-family="Times,serif" font-size="14.00">class = Canada</text>
</g>
<!-- 20&#45;&gt;36 -->
<g id="edge36" class="edge">
<title>20&#45;&gt;36</title>
<path fill="none" stroke="black" d="M512.4,-441.83C520.03,-433.11 529.3,-422.52 537.58,-413.05"/>
<polygon fill="black" stroke="black" points="540.31,-415.25 544.26,-405.42 535.04,-410.64 540.31,-415.25"/>
</g>
<!-- 22 -->
<g id="node23" class="node">
<title>22</title>
<polygon fill="none" stroke="black" points="359,-332 224,-332 224,-294 359,-294 359,-332"/>
<text text-anchor="middle" x="291.5" y="-316.8" font-family="Times,serif" font-size="14.00">longitude &lt;= &#45;79.076</text>
<text text-anchor="middle" x="291.5" y="-301.8" font-family="Times,serif" font-size="14.00">class = Canada</text>
</g>
<!-- 21&#45;&gt;22 -->
<g id="edge22" class="edge">
<title>21&#45;&gt;22</title>
<path fill="none" stroke="black" d="M395.42,-367.83C377.23,-358.41 354.83,-346.81 335.49,-336.79"/>
<polygon fill="black" stroke="black" points="337.05,-333.65 326.56,-332.16 333.83,-339.87 337.05,-333.65"/>
</g>
<!-- 31 -->
<g id="node32" class="node">
<title>31</title>
<polygon fill="none" stroke="black" points="512,-332 377,-332 377,-294 512,-294 512,-332"/>
<text text-anchor="middle" x="444.5" y="-316.8" font-family="Times,serif" font-size="14.00">longitude &lt;= &#45;84.392</text>
<text text-anchor="middle" x="444.5" y="-301.8" font-family="Times,serif" font-size="14.00">class = USA</text>
</g>
<!-- 21&#45;&gt;31 -->
<g id="edge31" class="edge">
<title>21&#45;&gt;31</title>
<path fill="none" stroke="black" d="M434.03,-367.83C435.53,-360.13 437.31,-350.97 438.97,-342.42"/>
<polygon fill="black" stroke="black" points="442.45,-342.9 440.92,-332.41 435.58,-341.56 442.45,-342.9"/>
</g>
<!-- 23 -->
<g id="node24" class="node">
<title>23</title>
<polygon fill="none" stroke="black" points="213,-257 112,-257 112,-221 213,-221 213,-257"/>
<text text-anchor="middle" x="162.5" y="-235.3" font-family="Times,serif" font-size="14.00">class = Canada</text>
</g>
<!-- 22&#45;&gt;23 -->
<g id="edge23" class="edge">
<title>22&#45;&gt;23</title>
<path fill="none" stroke="black" d="M258.95,-293.83C241.79,-284.25 220.59,-272.42 202.44,-262.29"/>
<polygon fill="black" stroke="black" points="203.7,-258.99 193.27,-257.17 200.29,-265.1 203.7,-258.99"/>
</g>
<!-- 24 -->
<g id="node25" class="node">
<title>24</title>
<polygon fill="none" stroke="black" points="351.5,-258 231.5,-258 231.5,-220 351.5,-220 351.5,-258"/>
<text text-anchor="middle" x="291.5" y="-242.8" font-family="Times,serif" font-size="14.00">latitude &lt;= 44.168</text>
<text text-anchor="middle" x="291.5" y="-227.8" font-family="Times,serif" font-size="14.00">class = Canada</text>
</g>
<!-- 22&#45;&gt;24 -->
<g id="edge24" class="edge">
<title>22&#45;&gt;24</title>
<path fill="none" stroke="black" d="M291.5,-293.83C291.5,-286.13 291.5,-276.97 291.5,-268.42"/>
<polygon fill="black" stroke="black" points="295,-268.41 291.5,-258.41 288,-268.41 295,-268.41"/>
</g>
<!-- 25 -->
<g id="node26" class="node">
<title>25</title>
<polygon fill="none" stroke="black" points="232.5,-184 104.5,-184 104.5,-146 232.5,-146 232.5,-184"/>
<text text-anchor="middle" x="168.5" y="-168.8" font-family="Times,serif" font-size="14.00">longitude &lt;= &#45;79.03</text>
<text text-anchor="middle" x="168.5" y="-153.8" font-family="Times,serif" font-size="14.00">class = USA</text>
</g>
<!-- 24&#45;&gt;25 -->
<g id="edge25" class="edge">
<title>24&#45;&gt;25</title>
<path fill="none" stroke="black" d="M260.46,-219.83C244.73,-210.62 225.44,-199.33 208.6,-189.47"/>
<polygon fill="black" stroke="black" points="209.93,-186.19 199.53,-184.16 206.39,-192.24 209.93,-186.19"/>
</g>
<!-- 30 -->
<g id="node31" class="node">
<title>30</title>
<polygon fill="none" stroke="black" points="352,-183 251,-183 251,-147 352,-147 352,-183"/>
<text text-anchor="middle" x="301.5" y="-161.3" font-family="Times,serif" font-size="14.00">class = Canada</text>
</g>
<!-- 24&#45;&gt;30 -->
<g id="edge30" class="edge">
<title>24&#45;&gt;30</title>
<path fill="none" stroke="black" d="M294.02,-219.83C295.14,-211.81 296.47,-202.2 297.7,-193.34"/>
<polygon fill="black" stroke="black" points="301.17,-193.8 299.08,-183.42 294.24,-192.84 301.17,-193.8"/>
</g>
<!-- 26 -->
<g id="node27" class="node">
<title>26</title>
<polygon fill="none" stroke="black" points="151,-109 64,-109 64,-73 151,-73 151,-109"/>
<text text-anchor="middle" x="107.5" y="-87.3" font-family="Times,serif" font-size="14.00">class = USA</text>
</g>
<!-- 25&#45;&gt;26 -->
<g id="edge26" class="edge">
<title>25&#45;&gt;26</title>
<path fill="none" stroke="black" d="M153.11,-145.83C145.79,-137.2 136.92,-126.73 128.96,-117.33"/>
<polygon fill="black" stroke="black" points="131.39,-114.79 122.26,-109.42 126.05,-119.31 131.39,-114.79"/>
</g>
<!-- 27 -->
<g id="node28" class="node">
<title>27</title>
<polygon fill="none" stroke="black" points="289.5,-110 169.5,-110 169.5,-72 289.5,-72 289.5,-110"/>
<text text-anchor="middle" x="229.5" y="-94.8" font-family="Times,serif" font-size="14.00">latitude &lt;= 43.988</text>
<text text-anchor="middle" x="229.5" y="-79.8" font-family="Times,serif" font-size="14.00">class = Canada</text>
</g>
<!-- 25&#45;&gt;27 -->
<g id="edge27" class="edge">
<title>25&#45;&gt;27</title>
<path fill="none" stroke="black" d="M183.89,-145.83C190.99,-137.45 199.55,-127.35 207.32,-118.17"/>
<polygon fill="black" stroke="black" points="210.11,-120.31 213.9,-110.41 204.77,-115.78 210.11,-120.31"/>
</g>
<!-- 28 -->
<g id="node29" class="node">
<title>28</title>
<polygon fill="none" stroke="black" points="224,-36 123,-36 123,0 224,0 224,-36"/>
<text text-anchor="middle" x="173.5" y="-14.3" font-family="Times,serif" font-size="14.00">class = Canada</text>
</g>
<!-- 27&#45;&gt;28 -->
<g id="edge28" class="edge">
<title>27&#45;&gt;28</title>
<path fill="none" stroke="black" d="M215.08,-71.72C208.43,-63.29 200.43,-53.15 193.23,-44.02"/>
<polygon fill="black" stroke="black" points="195.85,-41.69 186.91,-36 190.36,-46.02 195.85,-41.69"/>
</g>
<!-- 29 -->
<g id="node30" class="node">
<title>29</title>
<polygon fill="none" stroke="black" points="329,-36 242,-36 242,0 329,0 329,-36"/>
<text text-anchor="middle" x="285.5" y="-14.3" font-family="Times,serif" font-size="14.00">class = USA</text>
</g>
<!-- 27&#45;&gt;29 -->
<g id="edge29" class="edge">
<title>27&#45;&gt;29</title>
<path fill="none" stroke="black" d="M243.92,-71.72C250.57,-63.29 258.57,-53.15 265.77,-44.02"/>
<polygon fill="black" stroke="black" points="268.64,-46.02 272.09,-36 263.15,-41.69 268.64,-46.02"/>
</g>
<!-- 32 -->
<g id="node33" class="node">
<title>32</title>
<polygon fill="none" stroke="black" points="457,-257 370,-257 370,-221 457,-221 457,-257"/>
<text text-anchor="middle" x="413.5" y="-235.3" font-family="Times,serif" font-size="14.00">class = USA</text>
</g>
<!-- 31&#45;&gt;32 -->
<g id="edge32" class="edge">
<title>31&#45;&gt;32</title>
<path fill="none" stroke="black" d="M436.68,-293.83C433.15,-285.63 428.91,-275.78 425.02,-266.76"/>
<polygon fill="black" stroke="black" points="428.17,-265.22 421,-257.42 421.74,-267.99 428.17,-265.22"/>
</g>
<!-- 33 -->
<g id="node34" class="node">
<title>33</title>
<polygon fill="none" stroke="black" points="595.5,-258 475.5,-258 475.5,-220 595.5,-220 595.5,-258"/>
<text text-anchor="middle" x="535.5" y="-242.8" font-family="Times,serif" font-size="14.00">latitude &lt;= 44.706</text>
<text text-anchor="middle" x="535.5" y="-227.8" font-family="Times,serif" font-size="14.00">class = Canada</text>
</g>
<!-- 31&#45;&gt;33 -->
<g id="edge33" class="edge">
<title>31&#45;&gt;33</title>
<path fill="none" stroke="black" d="M467.46,-293.83C478.67,-284.96 492.32,-274.16 504.44,-264.57"/>
<polygon fill="black" stroke="black" points="506.87,-267.11 512.54,-258.16 502.53,-261.62 506.87,-267.11"/>
</g>
<!-- 34 -->
<g id="node35" class="node">
<title>34</title>
<polygon fill="none" stroke="black" points="471,-183 384,-183 384,-147 471,-147 471,-183"/>
<text text-anchor="middle" x="427.5" y="-161.3" font-family="Times,serif" font-size="14.00">class = USA</text>
</g>
<!-- 33&#45;&gt;34 -->
<g id="edge34" class="edge">
<title>33&#45;&gt;34</title>
<path fill="none" stroke="black" d="M508.25,-219.83C494.14,-210.43 476.78,-198.86 461.78,-188.85"/>
<polygon fill="black" stroke="black" points="463.52,-185.81 453.26,-183.17 459.64,-191.63 463.52,-185.81"/>
</g>
<!-- 35 -->
<g id="node36" class="node">
<title>35</title>
<polygon fill="none" stroke="black" points="590,-183 489,-183 489,-147 590,-147 590,-183"/>
<text text-anchor="middle" x="539.5" y="-161.3" font-family="Times,serif" font-size="14.00">class = Canada</text>
</g>
<!-- 33&#45;&gt;35 -->
<g id="edge35" class="edge">
<title>33&#45;&gt;35</title>
<path fill="none" stroke="black" d="M536.51,-219.83C536.95,-211.89 537.48,-202.41 537.97,-193.63"/>
<polygon fill="black" stroke="black" points="541.47,-193.6 538.53,-183.42 534.48,-193.21 541.47,-193.6"/>
</g>
<!-- 38 -->
<g id="node39" class="node">
<title>38</title>
<polygon fill="none" stroke="black" points="763,-480 628,-480 628,-442 763,-442 763,-480"/>
<text text-anchor="middle" x="695.5" y="-464.8" font-family="Times,serif" font-size="14.00">longitude &lt;= &#45;67.279</text>
<text text-anchor="middle" x="695.5" y="-449.8" font-family="Times,serif" font-size="14.00">class = USA</text>
</g>
<!-- 37&#45;&gt;38 -->
<g id="edge38" class="edge">
<title>37&#45;&gt;38</title>
<path fill="none" stroke="black" d="M695.5,-515.83C695.5,-508.13 695.5,-498.97 695.5,-490.42"/>
<polygon fill="black" stroke="black" points="699,-490.41 695.5,-480.41 692,-490.41 699,-490.41"/>
</g>
<!-- 55 -->
<g id="node56" class="node">
<title>55</title>
<polygon fill="none" stroke="black" points="882,-479 781,-479 781,-443 882,-443 882,-479"/>
<text text-anchor="middle" x="831.5" y="-457.3" font-family="Times,serif" font-size="14.00">class = Canada</text>
</g>
<!-- 37&#45;&gt;55 -->
<g id="edge55" class="edge">
<title>37&#45;&gt;55</title>
<path fill="none" stroke="black" d="M729.82,-515.83C748.16,-506.12 770.87,-494.1 790.18,-483.88"/>
<polygon fill="black" stroke="black" points="791.86,-486.94 799.07,-479.17 788.59,-480.76 791.86,-486.94"/>
</g>
<!-- 39 -->
<g id="node40" class="node">
<title>39</title>
<polygon fill="none" stroke="black" points="759.5,-406 631.5,-406 631.5,-368 759.5,-368 759.5,-406"/>
<text text-anchor="middle" x="695.5" y="-390.8" font-family="Times,serif" font-size="14.00">longitude &lt;= &#45;67.93</text>
<text text-anchor="middle" x="695.5" y="-375.8" font-family="Times,serif" font-size="14.00">class = Canada</text>
</g>
<!-- 38&#45;&gt;39 -->
<g id="edge39" class="edge">
<title>38&#45;&gt;39</title>
<path fill="none" stroke="black" d="M695.5,-441.83C695.5,-434.13 695.5,-424.97 695.5,-416.42"/>
<polygon fill="black" stroke="black" points="699,-416.41 695.5,-406.41 692,-416.41 699,-416.41"/>
</g>
<!-- 54 -->
<g id="node55" class="node">
<title>54</title>
<polygon fill="none" stroke="black" points="865,-405 778,-405 778,-369 865,-369 865,-405"/>
<text text-anchor="middle" x="821.5" y="-383.3" font-family="Times,serif" font-size="14.00">class = USA</text>
</g>
<!-- 38&#45;&gt;54 -->
<g id="edge54" class="edge">
<title>38&#45;&gt;54</title>
<path fill="none" stroke="black" d="M727.3,-441.83C744.06,-432.25 764.76,-420.42 782.49,-410.29"/>
<polygon fill="black" stroke="black" points="784.5,-413.17 791.45,-405.17 781.03,-407.09 784.5,-413.17"/>
</g>
<!-- 40 -->
<g id="node41" class="node">
<title>40</title>
<polygon fill="none" stroke="black" points="763,-332 628,-332 628,-294 763,-294 763,-332"/>
<text text-anchor="middle" x="695.5" y="-316.8" font-family="Times,serif" font-size="14.00">longitude &lt;= &#45;68.325</text>
<text text-anchor="middle" x="695.5" y="-301.8" font-family="Times,serif" font-size="14.00">class = USA</text>
</g>
<!-- 39&#45;&gt;40 -->
<g id="edge40" class="edge">
<title>39&#45;&gt;40</title>
<path fill="none" stroke="black" d="M695.5,-367.83C695.5,-360.13 695.5,-350.97 695.5,-342.42"/>
<polygon fill="black" stroke="black" points="699,-342.41 695.5,-332.41 692,-342.41 699,-342.41"/>
</g>
<!-- 49 -->
<g id="node50" class="node">
<title>49</title>
<polygon fill="none" stroke="black" points="999.5,-332 879.5,-332 879.5,-294 999.5,-294 999.5,-332"/>
<text text-anchor="middle" x="939.5" y="-316.8" font-family="Times,serif" font-size="14.00">latitude &lt;= 45.565</text>
<text text-anchor="middle" x="939.5" y="-301.8" font-family="Times,serif" font-size="14.00">class = Canada</text>
</g>
<!-- 39&#45;&gt;49 -->
<g id="edge49" class="edge">
<title>39&#45;&gt;49</title>
<path fill="none" stroke="black" d="M756.76,-367.92C791.08,-357.8 834.02,-345.13 869.64,-334.61"/>
<polygon fill="black" stroke="black" points="870.88,-337.9 879.48,-331.71 868.9,-331.18 870.88,-337.9"/>
</g>
<!-- 41 -->
<g id="node42" class="node">
<title>41</title>
<polygon fill="none" stroke="black" points="749,-258 614,-258 614,-220 749,-220 749,-258"/>
<text text-anchor="middle" x="681.5" y="-242.8" font-family="Times,serif" font-size="14.00">longitude &lt;= &#45;68.915</text>
<text text-anchor="middle" x="681.5" y="-227.8" font-family="Times,serif" font-size="14.00">class = Canada</text>
</g>
<!-- 40&#45;&gt;41 -->
<g id="edge41" class="edge">
<title>40&#45;&gt;41</title>
<path fill="none" stroke="black" d="M691.97,-293.83C690.47,-286.13 688.69,-276.97 687.03,-268.42"/>
<polygon fill="black" stroke="black" points="690.42,-267.56 685.08,-258.41 683.55,-268.9 690.42,-267.56"/>
</g>
<!-- 48 -->
<g id="node49" class="node">
<title>48</title>
<polygon fill="none" stroke="black" points="854,-257 767,-257 767,-221 854,-221 854,-257"/>
<text text-anchor="middle" x="810.5" y="-235.3" font-family="Times,serif" font-size="14.00">class = USA</text>
</g>
<!-- 40&#45;&gt;48 -->
<g id="edge48" class="edge">
<title>40&#45;&gt;48</title>
<path fill="none" stroke="black" d="M724.52,-293.83C739.68,-284.34 758.37,-272.64 774.45,-262.57"/>
<polygon fill="black" stroke="black" points="776.45,-265.44 783.07,-257.17 772.74,-259.51 776.45,-265.44"/>
</g>
<!-- 42 -->
<g id="node43" class="node">
<title>42</title>
<polygon fill="none" stroke="black" points="712,-183 625,-183 625,-147 712,-147 712,-183"/>
<text text-anchor="middle" x="668.5" y="-161.3" font-family="Times,serif" font-size="14.00">class = USA</text>
</g>
<!-- 41&#45;&gt;42 -->
<g id="edge42" class="edge">
<title>41&#45;&gt;42</title>
<path fill="none" stroke="black" d="M678.22,-219.83C676.77,-211.81 675.04,-202.2 673.44,-193.34"/>
<polygon fill="black" stroke="black" points="676.87,-192.64 671.64,-183.42 669.98,-193.88 676.87,-192.64"/>
</g>
<!-- 43 -->
<g id="node44" class="node">
<title>43</title>
<polygon fill="none" stroke="black" points="865,-184 730,-184 730,-146 865,-146 865,-184"/>
<text text-anchor="middle" x="797.5" y="-168.8" font-family="Times,serif" font-size="14.00">longitude &lt;= &#45;68.597</text>
<text text-anchor="middle" x="797.5" y="-153.8" font-family="Times,serif" font-size="14.00">class = Canada</text>
</g>
<!-- 41&#45;&gt;43 -->
<g id="edge43" class="edge">
<title>41&#45;&gt;43</title>
<path fill="none" stroke="black" d="M710.77,-219.83C725.61,-210.62 743.8,-199.33 759.69,-189.47"/>
<polygon fill="black" stroke="black" points="761.59,-192.41 768.24,-184.16 757.9,-186.46 761.59,-192.41"/>
</g>
<!-- 44 -->
<g id="node45" class="node">
<title>44</title>
<polygon fill="none" stroke="black" points="783,-109 682,-109 682,-73 783,-73 783,-109"/>
<text text-anchor="middle" x="732.5" y="-87.3" font-family="Times,serif" font-size="14.00">class = Canada</text>
</g>
<!-- 43&#45;&gt;44 -->
<g id="edge44" class="edge">
<title>43&#45;&gt;44</title>
<path fill="none" stroke="black" d="M781.1,-145.83C773.22,-137.11 763.66,-126.52 755.11,-117.05"/>
<polygon fill="black" stroke="black" points="757.52,-114.5 748.22,-109.42 752.33,-119.19 757.52,-114.5"/>
</g>
<!-- 45 -->
<g id="node46" class="node">
<title>45</title>
<polygon fill="none" stroke="black" points="921.5,-110 801.5,-110 801.5,-72 921.5,-72 921.5,-110"/>
<text text-anchor="middle" x="861.5" y="-94.8" font-family="Times,serif" font-size="14.00">latitude &lt;= 47.312</text>
<text text-anchor="middle" x="861.5" y="-79.8" font-family="Times,serif" font-size="14.00">class = Canada</text>
</g>
<!-- 43&#45;&gt;45 -->
<g id="edge45" class="edge">
<title>43&#45;&gt;45</title>
<path fill="none" stroke="black" d="M813.65,-145.83C821.17,-137.37 830.26,-127.15 838.48,-117.9"/>
<polygon fill="black" stroke="black" points="841.1,-120.21 845.13,-110.41 835.87,-115.56 841.1,-120.21"/>
</g>
<!-- 46 -->
<g id="node47" class="node">
<title>46</title>
<polygon fill="none" stroke="black" points="849,-36 762,-36 762,0 849,0 849,-36"/>
<text text-anchor="middle" x="805.5" y="-14.3" font-family="Times,serif" font-size="14.00">class = USA</text>
</g>
<!-- 45&#45;&gt;46 -->
<g id="edge46" class="edge">
<title>45&#45;&gt;46</title>
<path fill="none" stroke="black" d="M847.08,-71.72C840.43,-63.29 832.43,-53.15 825.23,-44.02"/>
<polygon fill="black" stroke="black" points="827.85,-41.69 818.91,-36 822.36,-46.02 827.85,-41.69"/>
</g>
<!-- 47 -->
<g id="node48" class="node">
<title>47</title>
<polygon fill="none" stroke="black" points="968,-36 867,-36 867,0 968,0 968,-36"/>
<text text-anchor="middle" x="917.5" y="-14.3" font-family="Times,serif" font-size="14.00">class = Canada</text>
</g>
<!-- 45&#45;&gt;47 -->
<g id="edge47" class="edge">
<title>45&#45;&gt;47</title>
<path fill="none" stroke="black" d="M875.92,-71.72C882.57,-63.29 890.57,-53.15 897.77,-44.02"/>
<polygon fill="black" stroke="black" points="900.64,-46.02 904.09,-36 895.15,-41.69 900.64,-46.02"/>
</g>
<!-- 50 -->
<g id="node51" class="node">
<title>50</title>
<polygon fill="none" stroke="black" points="1007,-258 872,-258 872,-220 1007,-220 1007,-258"/>
<text text-anchor="middle" x="939.5" y="-242.8" font-family="Times,serif" font-size="14.00">longitude &lt;= &#45;67.355</text>
<text text-anchor="middle" x="939.5" y="-227.8" font-family="Times,serif" font-size="14.00">class = Canada</text>
</g>
<!-- 49&#45;&gt;50 -->
<g id="edge50" class="edge">
<title>49&#45;&gt;50</title>
<path fill="none" stroke="black" d="M939.5,-293.83C939.5,-286.13 939.5,-276.97 939.5,-268.42"/>
<polygon fill="black" stroke="black" points="943,-268.41 939.5,-258.41 936,-268.41 943,-268.41"/>
</g>
<!-- 53 -->
<g id="node54" class="node">
<title>53</title>
<polygon fill="none" stroke="black" points="1126,-257 1025,-257 1025,-221 1126,-221 1126,-257"/>
<text text-anchor="middle" x="1075.5" y="-235.3" font-family="Times,serif" font-size="14.00">class = Canada</text>
</g>
<!-- 49&#45;&gt;53 -->
<g id="edge53" class="edge">
<title>49&#45;&gt;53</title>
<path fill="none" stroke="black" d="M973.82,-293.83C992.16,-284.12 1014.87,-272.1 1034.18,-261.88"/>
<polygon fill="black" stroke="black" points="1035.86,-264.94 1043.07,-257.17 1032.59,-258.76 1035.86,-264.94"/>
</g>
<!-- 51 -->
<g id="node52" class="node">
<title>51</title>
<polygon fill="none" stroke="black" points="978,-183 891,-183 891,-147 978,-147 978,-183"/>
<text text-anchor="middle" x="934.5" y="-161.3" font-family="Times,serif" font-size="14.00">class = USA</text>
</g>
<!-- 50&#45;&gt;51 -->
<g id="edge51" class="edge">
<title>50&#45;&gt;51</title>
<path fill="none" stroke="black" d="M938.24,-219.83C937.69,-211.89 937.03,-202.41 936.42,-193.63"/>
<polygon fill="black" stroke="black" points="939.89,-193.15 935.71,-183.42 932.91,-193.64 939.89,-193.15"/>
</g>
<!-- 52 -->
<g id="node53" class="node">
<title>52</title>
<polygon fill="none" stroke="black" points="1097,-183 996,-183 996,-147 1097,-147 1097,-183"/>
<text text-anchor="middle" x="1046.5" y="-161.3" font-family="Times,serif" font-size="14.00">class = Canada</text>
</g>
<!-- 50&#45;&gt;52 -->
<g id="edge52" class="edge">
<title>50&#45;&gt;52</title>
<path fill="none" stroke="black" d="M966.5,-219.83C980.47,-210.43 997.67,-198.86 1012.54,-188.85"/>
<polygon fill="black" stroke="black" points="1014.64,-191.66 1020.98,-183.17 1010.73,-185.85 1014.64,-191.66"/>
</g>
</g>
</svg>
