<?xml version="1.0" encoding="UTF-8" standalone="no"?>
<!DOCTYPE svg PUBLIC "-//W3C//DTD SVG 1.1//EN"
 "http://www.w3.org/Graphics/SVG/1.1/DTD/svg11.dtd">
<!-- Generated by graphviz version 2.49.0 (0)
 -->
<!-- Title: Tree Pages: 1 -->
<svg width="1285pt" height="932pt"
 viewBox="0.00 0.00 1285.00 932.00" xmlns="http://www.w3.org/2000/svg" xmlns:xlink="http://www.w3.org/1999/xlink">
<g id="graph0" class="graph" transform="scale(1 1) rotate(0) translate(4 928)">
<title>Tree</title>
<polygon fill="white" stroke="transparent" points="-4,4 -4,-928 1281,-928 1281,4 -4,4"/>
<!-- 0 -->
<g id="node1" class="node">
<title>0</title>
<polygon fill="none" stroke="black" points="287.5,-924 181.5,-924 181.5,-886 287.5,-886 287.5,-924"/>
<text text-anchor="middle" x="234.5" y="-908.8" font-family="Times,serif" font-size="14.00">latitude &lt;= 42.9</text>
<text text-anchor="middle" x="234.5" y="-893.8" font-family="Times,serif" font-size="14.00">class = Canada</text>
</g>
<!-- 1 -->
<g id="node2" class="node">
<title>1</title>
<polygon fill="none" stroke="black" points="220.5,-850 100.5,-850 100.5,-812 220.5,-812 220.5,-850"/>
<text text-anchor="middle" x="160.5" y="-834.8" font-family="Times,serif" font-size="14.00">latitude &lt;= 42.096</text>
<text text-anchor="middle" x="160.5" y="-819.8" font-family="Times,serif" font-size="14.00">class = USA</text>
</g>
<!-- 0&#45;&gt;1 -->
<g id="edge1" class="edge">
<title>0&#45;&gt;1</title>
<path fill="none" stroke="black" d="M215.83,-885.83C206.98,-877.22 196.25,-866.79 186.61,-857.4"/>
<polygon fill="black" stroke="black" points="188.78,-854.63 179.17,-850.16 183.89,-859.64 188.78,-854.63"/>
<text text-anchor="middle" x="179.51" y="-871.46" font-family="Times,serif" font-size="14.00">True</text>
</g>
<!-- 6 -->
<g id="node7" class="node">
<title>6</title>
<polygon fill="none" stroke="black" points="380.5,-850 238.5,-850 238.5,-812 380.5,-812 380.5,-850"/>
<text text-anchor="middle" x="309.5" y="-834.8" font-family="Times,serif" font-size="14.00">longitude &lt;= &#45;130.017</text>
<text text-anchor="middle" x="309.5" y="-819.8" font-family="Times,serif" font-size="14.00">class = Canada</text>
</g>
<!-- 0&#45;&gt;6 -->
<g id="edge6" class="edge">
<title>0&#45;&gt;6</title>
<path fill="none" stroke="black" d="M253.43,-885.83C262.49,-877.13 273.48,-866.58 283.33,-857.13"/>
<polygon fill="black" stroke="black" points="285.79,-859.61 290.58,-850.16 280.94,-854.56 285.79,-859.61"/>
<text text-anchor="middle" x="290.07" y="-871.46" font-family="Times,serif" font-size="14.00">False</text>
</g>
<!-- 2 -->
<g id="node3" class="node">
<title>2</title>
<polygon fill="none" stroke="black" points="87,-775 0,-775 0,-739 87,-739 87,-775"/>
<text text-anchor="middle" x="43.5" y="-753.3" font-family="Times,serif" font-size="14.00">class = USA</text>
</g>
<!-- 1&#45;&gt;2 -->
<g id="edge2" class="edge">
<title>1&#45;&gt;2</title>
<path fill="none" stroke="black" d="M130.98,-811.83C115.55,-802.34 96.54,-790.64 80.18,-780.57"/>
<polygon fill="black" stroke="black" points="81.75,-777.43 71.4,-775.17 78.09,-783.39 81.75,-777.43"/>
</g>
<!-- 3 -->
<g id="node4" class="node">
<title>3</title>
<polygon fill="none" stroke="black" points="225.5,-776 105.5,-776 105.5,-738 225.5,-738 225.5,-776"/>
<text text-anchor="middle" x="165.5" y="-760.8" font-family="Times,serif" font-size="14.00">latitude &lt;= 42.324</text>
<text text-anchor="middle" x="165.5" y="-745.8" font-family="Times,serif" font-size="14.00">class = USA</text>
</g>
<!-- 1&#45;&gt;3 -->
<g id="edge3" class="edge">
<title>1&#45;&gt;3</title>
<path fill="none" stroke="black" d="M161.76,-811.83C162.3,-804.13 162.93,-794.97 163.53,-786.42"/>
<polygon fill="black" stroke="black" points="167.02,-786.63 164.22,-776.41 160.04,-786.15 167.02,-786.63"/>
</g>
<!-- 4 -->
<g id="node5" class="node">
<title>4</title>
<polygon fill="none" stroke="black" points="209,-701 108,-701 108,-665 209,-665 209,-701"/>
<text text-anchor="middle" x="158.5" y="-679.3" font-family="Times,serif" font-size="14.00">class = Canada</text>
</g>
<!-- 3&#45;&gt;4 -->
<g id="edge4" class="edge">
<title>3&#45;&gt;4</title>
<path fill="none" stroke="black" d="M163.73,-737.83C162.96,-729.89 162.04,-720.41 161.19,-711.63"/>
<polygon fill="black" stroke="black" points="164.64,-711.03 160.19,-701.42 157.68,-711.71 164.64,-711.03"/>
</g>
<!-- 5 -->
<g id="node6" class="node">
<title>5</title>
<polygon fill="none" stroke="black" points="314,-701 227,-701 227,-665 314,-665 314,-701"/>
<text text-anchor="middle" x="270.5" y="-679.3" font-family="Times,serif" font-size="14.00">class = USA</text>
</g>
<!-- 3&#45;&gt;5 -->
<g id="edge5" class="edge">
<title>3&#45;&gt;5</title>
<path fill="none" stroke="black" d="M192,-737.83C205.71,-728.43 222.59,-716.86 237.17,-706.85"/>
<polygon fill="black" stroke="black" points="239.19,-709.71 245.46,-701.17 235.23,-703.94 239.19,-709.71"/>
</g>
<!-- 7 -->
<g id="node8" class="node">
<title>7</title>
<polygon fill="none" stroke="black" points="344,-775 257,-775 257,-739 344,-739 344,-775"/>
<text text-anchor="middle" x="300.5" y="-753.3" font-family="Times,serif" font-size="14.00">class = USA</text>
</g>
<!-- 6&#45;&gt;7 -->
<g id="edge7" class="edge">
<title>6&#45;&gt;7</title>
<path fill="none" stroke="black" d="M307.23,-811.83C306.24,-803.89 305.05,-794.41 303.95,-785.63"/>
<polygon fill="black" stroke="black" points="307.39,-784.91 302.68,-775.42 300.44,-785.77 307.39,-784.91"/>
</g>
<!-- 8 -->
<g id="node9" class="node">
<title>8</title>
<polygon fill="none" stroke="black" points="468.5,-776 362.5,-776 362.5,-738 468.5,-738 468.5,-776"/>
<text text-anchor="middle" x="415.5" y="-760.8" font-family="Times,serif" font-size="14.00">latitude &lt;= 49.0</text>
<text text-anchor="middle" x="415.5" y="-745.8" font-family="Times,serif" font-size="14.00">class = Canada</text>
</g>
<!-- 6&#45;&gt;8 -->
<g id="edge8" class="edge">
<title>6&#45;&gt;8</title>
<path fill="none" stroke="black" d="M336.25,-811.83C349.56,-802.79 365.82,-791.75 380.14,-782.02"/>
<polygon fill="black" stroke="black" points="382.45,-784.68 388.76,-776.16 378.52,-778.89 382.45,-784.68"/>
</g>
<!-- 9 -->
<g id="node10" class="node">
<title>9</title>
<polygon fill="none" stroke="black" points="478,-702 343,-702 343,-664 478,-664 478,-702"/>
<text text-anchor="middle" x="410.5" y="-686.8" font-family="Times,serif" font-size="14.00">longitude &lt;= &#45;94.582</text>
<text text-anchor="middle" x="410.5" y="-671.8" font-family="Times,serif" font-size="14.00">class = Canada</text>
</g>
<!-- 8&#45;&gt;9 -->
<g id="edge9" class="edge">
<title>8&#45;&gt;9</title>
<path fill="none" stroke="black" d="M414.24,-737.83C413.7,-730.13 413.07,-720.97 412.47,-712.42"/>
<polygon fill="black" stroke="black" points="415.96,-712.15 411.78,-702.41 408.98,-712.63 415.96,-712.15"/>
</g>
<!-- 54 -->
<g id="node55" class="node">
<title>54</title>
<polygon fill="none" stroke="black" points="597,-701 496,-701 496,-665 597,-665 597,-701"/>
<text text-anchor="middle" x="546.5" y="-679.3" font-family="Times,serif" font-size="14.00">class = Canada</text>
</g>
<!-- 8&#45;&gt;54 -->
<g id="edge54" class="edge">
<title>8&#45;&gt;54</title>
<path fill="none" stroke="black" d="M448.56,-737.83C466.14,-728.17 487.91,-716.2 506.45,-706.01"/>
<polygon fill="black" stroke="black" points="508.18,-709.06 515.26,-701.17 504.81,-702.92 508.18,-709.06"/>
</g>
<!-- 10 -->
<g id="node11" class="node">
<title>10</title>
<polygon fill="none" stroke="black" points="403.5,-628 261.5,-628 261.5,-590 403.5,-590 403.5,-628"/>
<text text-anchor="middle" x="332.5" y="-612.8" font-family="Times,serif" font-size="14.00">longitude &lt;= &#45;123.222</text>
<text text-anchor="middle" x="332.5" y="-597.8" font-family="Times,serif" font-size="14.00">class = USA</text>
</g>
<!-- 9&#45;&gt;10 -->
<g id="edge10" class="edge">
<title>9&#45;&gt;10</title>
<path fill="none" stroke="black" d="M390.82,-663.83C381.39,-655.13 369.96,-644.58 359.72,-635.13"/>
<polygon fill="black" stroke="black" points="361.9,-632.37 352.18,-628.16 357.15,-637.52 361.9,-632.37"/>
</g>
<!-- 13 -->
<g id="node14" class="node">
<title>13</title>
<polygon fill="none" stroke="black" points="557,-628 422,-628 422,-590 557,-590 557,-628"/>
<text text-anchor="middle" x="489.5" y="-612.8" font-family="Times,serif" font-size="14.00">longitude &lt;= &#45;69.246</text>
<text text-anchor="middle" x="489.5" y="-597.8" font-family="Times,serif" font-size="14.00">class = Canada</text>
</g>
<!-- 9&#45;&gt;13 -->
<g id="edge13" class="edge">
<title>9&#45;&gt;13</title>
<path fill="none" stroke="black" d="M430.44,-663.83C439.98,-655.13 451.56,-644.58 461.93,-635.13"/>
<polygon fill="black" stroke="black" points="464.54,-637.49 469.57,-628.16 459.82,-632.31 464.54,-637.49"/>
</g>
<!-- 11 -->
<g id="node12" class="node">
<title>11</title>
<polygon fill="none" stroke="black" points="280,-553 179,-553 179,-517 280,-517 280,-553"/>
<text text-anchor="middle" x="229.5" y="-531.3" font-family="Times,serif" font-size="14.00">class = Canada</text>
</g>
<!-- 10&#45;&gt;11 -->
<g id="edge11" class="edge">
<title>10&#45;&gt;11</title>
<path fill="none" stroke="black" d="M306.51,-589.83C293.18,-580.52 276.81,-569.07 262.59,-559.13"/>
<polygon fill="black" stroke="black" points="264.27,-556.03 254.06,-553.17 260.26,-561.77 264.27,-556.03"/>
</g>
<!-- 12 -->
<g id="node13" class="node">
<title>12</title>
<polygon fill="none" stroke="black" points="385,-553 298,-553 298,-517 385,-517 385,-553"/>
<text text-anchor="middle" x="341.5" y="-531.3" font-family="Times,serif" font-size="14.00">class = USA</text>
</g>
<!-- 10&#45;&gt;12 -->
<g id="edge12" class="edge">
<title>10&#45;&gt;12</title>
<path fill="none" stroke="black" d="M334.77,-589.83C335.76,-581.89 336.95,-572.41 338.05,-563.63"/>
<polygon fill="black" stroke="black" points="341.56,-563.77 339.32,-553.42 334.61,-562.91 341.56,-563.77"/>
</g>
<!-- 14 -->
<g id="node15" class="node">
<title>14</title>
<polygon fill="none" stroke="black" points="540.5,-554 420.5,-554 420.5,-516 540.5,-516 540.5,-554"/>
<text text-anchor="middle" x="480.5" y="-538.8" font-family="Times,serif" font-size="14.00">latitude &lt;= 43.093</text>
<text text-anchor="middle" x="480.5" y="-523.8" font-family="Times,serif" font-size="14.00">class = Canada</text>
</g>
<!-- 13&#45;&gt;14 -->
<g id="edge14" class="edge">
<title>13&#45;&gt;14</title>
<path fill="none" stroke="black" d="M487.23,-589.83C486.27,-582.13 485.12,-572.97 484.05,-564.42"/>
<polygon fill="black" stroke="black" points="487.52,-563.9 482.8,-554.41 480.57,-564.77 487.52,-563.9"/>
</g>
<!-- 37 -->
<g id="node38" class="node">
<title>37</title>
<polygon fill="none" stroke="black" points="788,-554 653,-554 653,-516 788,-516 788,-554"/>
<text text-anchor="middle" x="720.5" y="-538.8" font-family="Times,serif" font-size="14.00">longitude &lt;= &#45;66.952</text>
<text text-anchor="middle" x="720.5" y="-523.8" font-family="Times,serif" font-size="14.00">class = Canada</text>
</g>
<!-- 13&#45;&gt;37 -->
<g id="edge37" class="edge">
<title>13&#45;&gt;37</title>
<path fill="none" stroke="black" d="M547.49,-589.92C579.48,-579.95 619.38,-567.52 652.79,-557.1"/>
<polygon fill="black" stroke="black" points="653.98,-560.4 662.48,-554.08 651.89,-553.72 653.98,-560.4"/>
</g>
<!-- 15 -->
<g id="node16" class="node">
<title>15</title>
<polygon fill="none" stroke="black" points="401,-480 266,-480 266,-442 401,-442 401,-480"/>
<text text-anchor="middle" x="333.5" y="-464.8" font-family="Times,serif" font-size="14.00">longitude &lt;= &#45;81.845</text>
<text text-anchor="middle" x="333.5" y="-449.8" font-family="Times,serif" font-size="14.00">class = Canada</text>
</g>
<!-- 14&#45;&gt;15 -->
<g id="edge15" class="edge">
<title>14&#45;&gt;15</title>
<path fill="none" stroke="black" d="M443.41,-515.83C424.01,-506.33 400.08,-494.61 379.51,-484.54"/>
<polygon fill="black" stroke="black" points="380.85,-481.29 370.33,-480.04 377.77,-487.58 380.85,-481.29"/>
</g>
<!-- 20 -->
<g id="node21" class="node">
<title>20</title>
<polygon fill="none" stroke="black" points="540.5,-480 420.5,-480 420.5,-442 540.5,-442 540.5,-480"/>
<text text-anchor="middle" x="480.5" y="-464.8" font-family="Times,serif" font-size="14.00">latitude &lt;= 44.992</text>
<text text-anchor="middle" x="480.5" y="-449.8" font-family="Times,serif" font-size="14.00">class = Canada</text>
</g>
<!-- 14&#45;&gt;20 -->
<g id="edge20" class="edge">
<title>14&#45;&gt;20</title>
<path fill="none" stroke="black" d="M480.5,-515.83C480.5,-508.13 480.5,-498.97 480.5,-490.42"/>
<polygon fill="black" stroke="black" points="484,-490.41 480.5,-480.41 477,-490.41 484,-490.41"/>
</g>
<!-- 16 -->
<g id="node17" class="node">
<title>16</title>
<polygon fill="none" stroke="black" points="255,-405 168,-405 168,-369 255,-369 255,-405"/>
<text text-anchor="middle" x="211.5" y="-383.3" font-family="Times,serif" font-size="14.00">class = USA</text>
</g>
<!-- 15&#45;&gt;16 -->
<g id="edge16" class="edge">
<title>15&#45;&gt;16</title>
<path fill="none" stroke="black" d="M302.71,-441.83C286.48,-432.25 266.44,-420.42 249.27,-410.29"/>
<polygon fill="black" stroke="black" points="250.99,-407.24 240.6,-405.17 247.43,-413.27 250.99,-407.24"/>
</g>
<!-- 17 -->
<g id="node18" class="node">
<title>17</title>
<polygon fill="none" stroke="black" points="393.5,-406 273.5,-406 273.5,-368 393.5,-368 393.5,-406"/>
<text text-anchor="middle" x="333.5" y="-390.8" font-family="Times,serif" font-size="14.00">latitude &lt;= 43.039</text>
<text text-anchor="middle" x="333.5" y="-375.8" font-family="Times,serif" font-size="14.00">class = Canada</text>
</g>
<!-- 15&#45;&gt;17 -->
<g id="edge17" class="edge">
<title>15&#45;&gt;17</title>
<path fill="none" stroke="black" d="M333.5,-441.83C333.5,-434.13 333.5,-424.97 333.5,-416.42"/>
<polygon fill="black" stroke="black" points="337,-416.41 333.5,-406.41 330,-416.41 337,-416.41"/>
</g>
<!-- 18 -->
<g id="node19" class="node">
<title>18</title>
<polygon fill="none" stroke="black" points="272,-331 171,-331 171,-295 272,-295 272,-331"/>
<text text-anchor="middle" x="221.5" y="-309.3" font-family="Times,serif" font-size="14.00">class = Canada</text>
</g>
<!-- 17&#45;&gt;18 -->
<g id="edge18" class="edge">
<title>17&#45;&gt;18</title>
<path fill="none" stroke="black" d="M305.24,-367.83C290.61,-358.43 272.61,-346.86 257.05,-336.85"/>
<polygon fill="black" stroke="black" points="258.52,-333.63 248.21,-331.17 254.73,-339.52 258.52,-333.63"/>
</g>
<!-- 19 -->
<g id="node20" class="node">
<title>19</title>
<polygon fill="none" stroke="black" points="377,-331 290,-331 290,-295 377,-295 377,-331"/>
<text text-anchor="middle" x="333.5" y="-309.3" font-family="Times,serif" font-size="14.00">class = USA</text>
</g>
<!-- 17&#45;&gt;19 -->
<g id="edge19" class="edge">
<title>17&#45;&gt;19</title>
<path fill="none" stroke="black" d="M333.5,-367.83C333.5,-359.89 333.5,-350.41 333.5,-341.63"/>
<polygon fill="black" stroke="black" points="337,-341.42 333.5,-331.42 330,-341.42 337,-341.42"/>
</g>
<!-- 21 -->
<g id="node22" class="node">
<title>21</title>
<polygon fill="none" stroke="black" points="536.5,-406 416.5,-406 416.5,-368 536.5,-368 536.5,-406"/>
<text text-anchor="middle" x="476.5" y="-390.8" font-family="Times,serif" font-size="14.00">latitude &lt;= 44.542</text>
<text text-anchor="middle" x="476.5" y="-375.8" font-family="Times,serif" font-size="14.00">class = Canada</text>
</g>
<!-- 20&#45;&gt;21 -->
<g id="edge21" class="edge">
<title>20&#45;&gt;21</title>
<path fill="none" stroke="black" d="M479.49,-441.83C479.06,-434.13 478.55,-424.97 478.08,-416.42"/>
<polygon fill="black" stroke="black" points="481.57,-416.2 477.52,-406.41 474.58,-416.59 481.57,-416.2"/>
</g>
<!-- 36 -->
<g id="node37" class="node">
<title>36</title>
<polygon fill="none" stroke="black" points="656,-405 555,-405 555,-369 656,-369 656,-405"/>
<text text-anchor="middle" x="605.5" y="-383.3" font-family="Times,serif" font-size="14.00">class = Canada</text>
</g>
<!-- 20&#45;&gt;36 -->
<g id="edge36" class="edge">
<title>20&#45;&gt;36</title>
<path fill="none" stroke="black" d="M512.04,-441.83C528.67,-432.25 549.21,-420.42 566.8,-410.29"/>
<polygon fill="black" stroke="black" points="568.77,-413.2 575.69,-405.17 565.28,-407.13 568.77,-413.2"/>
</g>
<!-- 22 -->
<g id="node23" class="node">
<title>22</title>
<polygon fill="none" stroke="black" points="530,-332 395,-332 395,-294 530,-294 530,-332"/>
<text text-anchor="middle" x="462.5" y="-316.8" font-family="Times,serif" font-size="14.00">longitude &lt;= &#45;79.076</text>
<text text-anchor="middle" x="462.5" y="-301.8" font-family="Times,serif" font-size="14.00">class = Canada</text>
</g>
<!-- 21&#45;&gt;22 -->
<g id="edge22" class="edge">
<title>21&#45;&gt;22</title>
<path fill="none" stroke="black" d="M472.97,-367.83C471.47,-360.13 469.69,-350.97 468.03,-342.42"/>
<polygon fill="black" stroke="black" points="471.42,-341.56 466.08,-332.41 464.55,-342.9 471.42,-341.56"/>
</g>
<!-- 31 -->
<g id="node32" class="node">
<title>31</title>
<polygon fill="none" stroke="black" points="683,-332 548,-332 548,-294 683,-294 683,-332"/>
<text text-anchor="middle" x="615.5" y="-316.8" font-family="Times,serif" font-size="14.00">longitude &lt;= &#45;84.392</text>
<text text-anchor="middle" x="615.5" y="-301.8" font-family="Times,serif" font-size="14.00">class = USA</text>
</g>
<!-- 21&#45;&gt;31 -->
<g id="edge31" class="edge">
<title>21&#45;&gt;31</title>
<path fill="none" stroke="black" d="M511.58,-367.83C529.77,-358.41 552.17,-346.81 571.51,-336.79"/>
<polygon fill="black" stroke="black" points="573.17,-339.87 580.44,-332.16 569.95,-333.65 573.17,-339.87"/>
</g>
<!-- 23 -->
<g id="node24" class="node">
<title>23</title>
<polygon fill="none" stroke="black" points="384,-257 283,-257 283,-221 384,-221 384,-257"/>
<text text-anchor="middle" x="333.5" y="-235.3" font-family="Times,serif" font-size="14.00">class = Canada</text>
</g>
<!-- 22&#45;&gt;23 -->
<g id="edge23" class="edge">
<title>22&#45;&gt;23</title>
<path fill="none" stroke="black" d="M429.95,-293.83C412.79,-284.25 391.59,-272.42 373.44,-262.29"/>
<polygon fill="black" stroke="black" points="374.7,-258.99 364.27,-257.17 371.29,-265.1 374.7,-258.99"/>
</g>
<!-- 24 -->
<g id="node25" class="node">
<title>24</title>
<polygon fill="none" stroke="black" points="522.5,-258 402.5,-258 402.5,-220 522.5,-220 522.5,-258"/>
<text text-anchor="middle" x="462.5" y="-242.8" font-family="Times,serif" font-size="14.00">latitude &lt;= 44.168</text>
<text text-anchor="middle" x="462.5" y="-227.8" font-family="Times,serif" font-size="14.00">class = Canada</text>
</g>
<!-- 22&#45;&gt;24 -->
<g id="edge24" class="edge">
<title>22&#45;&gt;24</title>
<path fill="none" stroke="black" d="M462.5,-293.83C462.5,-286.13 462.5,-276.97 462.5,-268.42"/>
<polygon fill="black" stroke="black" points="466,-268.41 462.5,-258.41 459,-268.41 466,-268.41"/>
</g>
<!-- 25 -->
<g id="node26" class="node">
<title>25</title>
<polygon fill="none" stroke="black" points="404,-184 285,-184 285,-146 404,-146 404,-184"/>
<text text-anchor="middle" x="344.5" y="-168.8" font-family="Times,serif" font-size="14.00">latitude &lt;= 43.511</text>
<text text-anchor="middle" x="344.5" y="-153.8" font-family="Times,serif" font-size="14.00">class = USA</text>
</g>
<!-- 24&#45;&gt;25 -->
<g id="edge25" class="edge">
<title>24&#45;&gt;25</title>
<path fill="none" stroke="black" d="M432.72,-219.83C417.63,-210.62 399.12,-199.33 382.97,-189.47"/>
<polygon fill="black" stroke="black" points="384.63,-186.38 374.27,-184.16 380.98,-192.36 384.63,-186.38"/>
</g>
<!-- 30 -->
<g id="node31" class="node">
<title>30</title>
<polygon fill="none" stroke="black" points="523,-183 422,-183 422,-147 523,-147 523,-183"/>
<text text-anchor="middle" x="472.5" y="-161.3" font-family="Times,serif" font-size="14.00">class = Canada</text>
</g>
<!-- 24&#45;&gt;30 -->
<g id="edge30" class="edge">
<title>24&#45;&gt;30</title>
<path fill="none" stroke="black" d="M465.02,-219.83C466.14,-211.81 467.47,-202.2 468.7,-193.34"/>
<polygon fill="black" stroke="black" points="472.17,-193.8 470.08,-183.42 465.24,-192.84 472.17,-193.8"/>
</g>
<!-- 26 -->
<g id="node27" class="node">
<title>26</title>
<polygon fill="none" stroke="black" points="327,-109 240,-109 240,-73 327,-73 327,-109"/>
<text text-anchor="middle" x="283.5" y="-87.3" font-family="Times,serif" font-size="14.00">class = USA</text>
</g>
<!-- 25&#45;&gt;26 -->
<g id="edge26" class="edge">
<title>25&#45;&gt;26</title>
<path fill="none" stroke="black" d="M329.11,-145.83C321.79,-137.2 312.92,-126.73 304.96,-117.33"/>
<polygon fill="black" stroke="black" points="307.39,-114.79 298.26,-109.42 302.05,-119.31 307.39,-114.79"/>
</g>
<!-- 27 -->
<g id="node28" class="node">
<title>27</title>
<polygon fill="none" stroke="black" points="465.5,-110 345.5,-110 345.5,-72 465.5,-72 465.5,-110"/>
<text text-anchor="middle" x="405.5" y="-94.8" font-family="Times,serif" font-size="14.00">latitude &lt;= 43.988</text>
<text text-anchor="middle" x="405.5" y="-79.8" font-family="Times,serif" font-size="14.00">class = Canada</text>
</g>
<!-- 25&#45;&gt;27 -->
<g id="edge27" class="edge">
<title>25&#45;&gt;27</title>
<path fill="none" stroke="black" d="M359.89,-145.83C366.99,-137.45 375.55,-127.35 383.32,-118.17"/>
<polygon fill="black" stroke="black" points="386.11,-120.31 389.9,-110.41 380.77,-115.78 386.11,-120.31"/>
</g>
<!-- 28 -->
<g id="node29" class="node">
<title>28</title>
<polygon fill="none" stroke="black" points="400,-36 299,-36 299,0 400,0 400,-36"/>
<text text-anchor="middle" x="349.5" y="-14.3" font-family="Times,serif" font-size="14.00">class = Canada</text>
</g>
<!-- 27&#45;&gt;28 -->
<g id="edge28" class="edge">
<title>27&#45;&gt;28</title>
<path fill="none" stroke="black" d="M391.08,-71.72C384.43,-63.29 376.43,-53.15 369.23,-44.02"/>
<polygon fill="black" stroke="black" points="371.85,-41.69 362.91,-36 366.36,-46.02 371.85,-41.69"/>
</g>
<!-- 29 -->
<g id="node30" class="node">
<title>29</title>
<polygon fill="none" stroke="black" points="505,-36 418,-36 418,0 505,0 505,-36"/>
<text text-anchor="middle" x="461.5" y="-14.3" font-family="Times,serif" font-size="14.00">class = USA</text>
</g>
<!-- 27&#45;&gt;29 -->
<g id="edge29" class="edge">
<title>27&#45;&gt;29</title>
<path fill="none" stroke="black" d="M419.92,-71.72C426.57,-63.29 434.57,-53.15 441.77,-44.02"/>
<polygon fill="black" stroke="black" points="444.64,-46.02 448.09,-36 439.15,-41.69 444.64,-46.02"/>
</g>
<!-- 32 -->
<g id="node33" class="node">
<title>32</title>
<polygon fill="none" stroke="black" points="628,-257 541,-257 541,-221 628,-221 628,-257"/>
<text text-anchor="middle" x="584.5" y="-235.3" font-family="Times,serif" font-size="14.00">class = USA</text>
</g>
<!-- 31&#45;&gt;32 -->
<g id="edge32" class="edge">
<title>31&#45;&gt;32</title>
<path fill="none" stroke="black" d="M607.68,-293.83C604.15,-285.63 599.91,-275.78 596.02,-266.76"/>
<polygon fill="black" stroke="black" points="599.17,-265.22 592,-257.42 592.74,-267.99 599.17,-265.22"/>
</g>
<!-- 33 -->
<g id="node34" class="node">
<title>33</title>
<polygon fill="none" stroke="black" points="766.5,-258 646.5,-258 646.5,-220 766.5,-220 766.5,-258"/>
<text text-anchor="middle" x="706.5" y="-242.8" font-family="Times,serif" font-size="14.00">latitude &lt;= 44.706</text>
<text text-anchor="middle" x="706.5" y="-227.8" font-family="Times,serif" font-size="14.00">class = Canada</text>
</g>
<!-- 31&#45;&gt;33 -->
<g id="edge33" class="edge">
<title>31&#45;&gt;33</title>
<path fill="none" stroke="black" d="M638.46,-293.83C649.67,-284.96 663.32,-274.16 675.44,-264.57"/>
<polygon fill="black" stroke="black" points="677.87,-267.11 683.54,-258.16 673.53,-261.62 677.87,-267.11"/>
</g>
<!-- 34 -->
<g id="node35" class="node">
<title>34</title>
<polygon fill="none" stroke="black" points="638,-183 551,-183 551,-147 638,-147 638,-183"/>
<text text-anchor="middle" x="594.5" y="-161.3" font-family="Times,serif" font-size="14.00">class = USA</text>
</g>
<!-- 33&#45;&gt;34 -->
<g id="edge34" class="edge">
<title>33&#45;&gt;34</title>
<path fill="none" stroke="black" d="M678.24,-219.83C663.61,-210.43 645.61,-198.86 630.05,-188.85"/>
<polygon fill="black" stroke="black" points="631.52,-185.63 621.21,-183.17 627.73,-191.52 631.52,-185.63"/>
</g>
<!-- 35 -->
<g id="node36" class="node">
<title>35</title>
<polygon fill="none" stroke="black" points="757,-183 656,-183 656,-147 757,-147 757,-183"/>
<text text-anchor="middle" x="706.5" y="-161.3" font-family="Times,serif" font-size="14.00">class = Canada</text>
</g>
<!-- 33&#45;&gt;35 -->
<g id="edge35" class="edge">
<title>33&#45;&gt;35</title>
<path fill="none" stroke="black" d="M706.5,-219.83C706.5,-211.89 706.5,-202.41 706.5,-193.63"/>
<polygon fill="black" stroke="black" points="710,-193.42 706.5,-183.42 703,-193.42 710,-193.42"/>
</g>
<!-- 38 -->
<g id="node39" class="node">
<title>38</title>
<polygon fill="none" stroke="black" points="780.5,-480 660.5,-480 660.5,-442 780.5,-442 780.5,-480"/>
<text text-anchor="middle" x="720.5" y="-464.8" font-family="Times,serif" font-size="14.00">latitude &lt;= 45.195</text>
<text text-anchor="middle" x="720.5" y="-449.8" font-family="Times,serif" font-size="14.00">class = USA</text>
</g>
<!-- 37&#45;&gt;38 -->
<g id="edge38" class="edge">
<title>37&#45;&gt;38</title>
<path fill="none" stroke="black" d="M720.5,-515.83C720.5,-508.13 720.5,-498.97 720.5,-490.42"/>
<polygon fill="black" stroke="black" points="724,-490.41 720.5,-480.41 717,-490.41 724,-490.41"/>
</g>
<!-- 53 -->
<g id="node54" class="node">
<title>53</title>
<polygon fill="none" stroke="black" points="900,-479 799,-479 799,-443 900,-443 900,-479"/>
<text text-anchor="middle" x="849.5" y="-457.3" font-family="Times,serif" font-size="14.00">class = Canada</text>
</g>
<!-- 37&#45;&gt;53 -->
<g id="edge53" class="edge">
<title>37&#45;&gt;53</title>
<path fill="none" stroke="black" d="M753.05,-515.83C770.21,-506.25 791.41,-494.42 809.56,-484.29"/>
<polygon fill="black" stroke="black" points="811.71,-487.1 818.73,-479.17 808.3,-480.99 811.71,-487.1"/>
</g>
<!-- 39 -->
<g id="node40" class="node">
<title>39</title>
<polygon fill="none" stroke="black" points="764,-405 677,-405 677,-369 764,-369 764,-405"/>
<text text-anchor="middle" x="720.5" y="-383.3" font-family="Times,serif" font-size="14.00">class = USA</text>
</g>
<!-- 38&#45;&gt;39 -->
<g id="edge39" class="edge">
<title>38&#45;&gt;39</title>
<path fill="none" stroke="black" d="M720.5,-441.83C720.5,-433.89 720.5,-424.41 720.5,-415.63"/>
<polygon fill="black" stroke="black" points="724,-415.42 720.5,-405.42 717,-415.42 724,-415.42"/>
</g>
<!-- 40 -->
<g id="node41" class="node">
<title>40</title>
<polygon fill="none" stroke="black" points="912.5,-406 784.5,-406 784.5,-368 912.5,-368 912.5,-406"/>
<text text-anchor="middle" x="848.5" y="-390.8" font-family="Times,serif" font-size="14.00">longitude &lt;= &#45;67.93</text>
<text text-anchor="middle" x="848.5" y="-375.8" font-family="Times,serif" font-size="14.00">class = Canada</text>
</g>
<!-- 38&#45;&gt;40 -->
<g id="edge40" class="edge">
<title>38&#45;&gt;40</title>
<path fill="none" stroke="black" d="M752.8,-441.83C769.32,-432.54 789.62,-421.12 807.26,-411.2"/>
<polygon fill="black" stroke="black" points="809.21,-414.12 816.21,-406.16 805.78,-408.01 809.21,-414.12"/>
</g>
<!-- 41 -->
<g id="node42" class="node">
<title>41</title>
<polygon fill="none" stroke="black" points="916,-332 781,-332 781,-294 916,-294 916,-332"/>
<text text-anchor="middle" x="848.5" y="-316.8" font-family="Times,serif" font-size="14.00">longitude &lt;= &#45;68.325</text>
<text text-anchor="middle" x="848.5" y="-301.8" font-family="Times,serif" font-size="14.00">class = USA</text>
</g>
<!-- 40&#45;&gt;41 -->
<g id="edge41" class="edge">
<title>40&#45;&gt;41</title>
<path fill="none" stroke="black" d="M848.5,-367.83C848.5,-360.13 848.5,-350.97 848.5,-342.42"/>
<polygon fill="black" stroke="black" points="852,-342.41 848.5,-332.41 845,-342.41 852,-342.41"/>
</g>
<!-- 48 -->
<g id="node49" class="node">
<title>48</title>
<polygon fill="none" stroke="black" points="1157.5,-332 1037.5,-332 1037.5,-294 1157.5,-294 1157.5,-332"/>
<text text-anchor="middle" x="1097.5" y="-316.8" font-family="Times,serif" font-size="14.00">latitude &lt;= 45.565</text>
<text text-anchor="middle" x="1097.5" y="-301.8" font-family="Times,serif" font-size="14.00">class = Canada</text>
</g>
<!-- 40&#45;&gt;48 -->
<g id="edge48" class="edge">
<title>40&#45;&gt;48</title>
<path fill="none" stroke="black" d="M911.01,-367.92C946.45,-357.68 990.89,-344.83 1027.5,-334.24"/>
<polygon fill="black" stroke="black" points="1028.48,-337.6 1037.11,-331.46 1026.53,-330.88 1028.48,-337.6"/>
</g>
<!-- 42 -->
<g id="node43" class="node">
<title>42</title>
<polygon fill="none" stroke="black" points="906.5,-258 786.5,-258 786.5,-220 906.5,-220 906.5,-258"/>
<text text-anchor="middle" x="846.5" y="-242.8" font-family="Times,serif" font-size="14.00">latitude &lt;= 47.256</text>
<text text-anchor="middle" x="846.5" y="-227.8" font-family="Times,serif" font-size="14.00">class = Canada</text>
</g>
<!-- 41&#45;&gt;42 -->
<g id="edge42" class="edge">
<title>41&#45;&gt;42</title>
<path fill="none" stroke="black" d="M848,-293.83C847.78,-286.13 847.53,-276.97 847.29,-268.42"/>
<polygon fill="black" stroke="black" points="850.79,-268.31 847.01,-258.41 843.79,-268.51 850.79,-268.31"/>
</g>
<!-- 47 -->
<g id="node48" class="node">
<title>47</title>
<polygon fill="none" stroke="black" points="1012,-257 925,-257 925,-221 1012,-221 1012,-257"/>
<text text-anchor="middle" x="968.5" y="-235.3" font-family="Times,serif" font-size="14.00">class = USA</text>
</g>
<!-- 41&#45;&gt;47 -->
<g id="edge47" class="edge">
<title>41&#45;&gt;47</title>
<path fill="none" stroke="black" d="M878.78,-293.83C894.6,-284.34 914.1,-272.64 930.88,-262.57"/>
<polygon fill="black" stroke="black" points="933.11,-265.32 939.88,-257.17 929.51,-259.32 933.11,-265.32"/>
</g>
<!-- 43 -->
<g id="node44" class="node">
<title>43</title>
<polygon fill="none" stroke="black" points="876,-183 775,-183 775,-147 876,-147 876,-183"/>
<text text-anchor="middle" x="825.5" y="-161.3" font-family="Times,serif" font-size="14.00">class = Canada</text>
</g>
<!-- 42&#45;&gt;43 -->
<g id="edge43" class="edge">
<title>42&#45;&gt;43</title>
<path fill="none" stroke="black" d="M841.2,-219.83C838.83,-211.72 836,-201.99 833.39,-193.05"/>
<polygon fill="black" stroke="black" points="836.74,-192.04 830.58,-183.42 830.02,-194 836.74,-192.04"/>
</g>
<!-- 44 -->
<g id="node45" class="node">
<title>44</title>
<polygon fill="none" stroke="black" points="1029,-184 894,-184 894,-146 1029,-146 1029,-184"/>
<text text-anchor="middle" x="961.5" y="-168.8" font-family="Times,serif" font-size="14.00">longitude &lt;= &#45;68.459</text>
<text text-anchor="middle" x="961.5" y="-153.8" font-family="Times,serif" font-size="14.00">class = USA</text>
</g>
<!-- 42&#45;&gt;44 -->
<g id="edge44" class="edge">
<title>42&#45;&gt;44</title>
<path fill="none" stroke="black" d="M875.52,-219.83C890.23,-210.62 908.26,-199.33 924.01,-189.47"/>
<polygon fill="black" stroke="black" points="925.87,-192.44 932.49,-184.16 922.16,-186.5 925.87,-192.44"/>
</g>
<!-- 45 -->
<g id="node46" class="node">
<title>45</title>
<polygon fill="none" stroke="black" points="949,-109 862,-109 862,-73 949,-73 949,-109"/>
<text text-anchor="middle" x="905.5" y="-87.3" font-family="Times,serif" font-size="14.00">class = USA</text>
</g>
<!-- 44&#45;&gt;45 -->
<g id="edge45" class="edge">
<title>44&#45;&gt;45</title>
<path fill="none" stroke="black" d="M947.37,-145.83C940.65,-137.2 932.51,-126.73 925.2,-117.33"/>
<polygon fill="black" stroke="black" points="927.95,-115.16 919.05,-109.42 922.42,-119.46 927.95,-115.16"/>
</g>
<!-- 46 -->
<g id="node47" class="node">
<title>46</title>
<polygon fill="none" stroke="black" points="1068,-109 967,-109 967,-73 1068,-73 1068,-109"/>
<text text-anchor="middle" x="1017.5" y="-87.3" font-family="Times,serif" font-size="14.00">class = Canada</text>
</g>
<!-- 44&#45;&gt;46 -->
<g id="edge46" class="edge">
<title>44&#45;&gt;46</title>
<path fill="none" stroke="black" d="M975.63,-145.83C982.35,-137.2 990.49,-126.73 997.8,-117.33"/>
<polygon fill="black" stroke="black" points="1000.58,-119.46 1003.95,-109.42 995.05,-115.16 1000.58,-119.46"/>
</g>
<!-- 49 -->
<g id="node50" class="node">
<title>49</title>
<polygon fill="none" stroke="black" points="1157.5,-258 1037.5,-258 1037.5,-220 1157.5,-220 1157.5,-258"/>
<text text-anchor="middle" x="1097.5" y="-242.8" font-family="Times,serif" font-size="14.00">latitude &lt;= 45.382</text>
<text text-anchor="middle" x="1097.5" y="-227.8" font-family="Times,serif" font-size="14.00">class = Canada</text>
</g>
<!-- 48&#45;&gt;49 -->
<g id="edge49" class="edge">
<title>48&#45;&gt;49</title>
<path fill="none" stroke="black" d="M1097.5,-293.83C1097.5,-286.13 1097.5,-276.97 1097.5,-268.42"/>
<polygon fill="black" stroke="black" points="1101,-268.41 1097.5,-258.41 1094,-268.41 1101,-268.41"/>
</g>
<!-- 52 -->
<g id="node53" class="node">
<title>52</title>
<polygon fill="none" stroke="black" points="1277,-257 1176,-257 1176,-221 1277,-221 1277,-257"/>
<text text-anchor="middle" x="1226.5" y="-235.3" font-family="Times,serif" font-size="14.00">class = Canada</text>
</g>
<!-- 48&#45;&gt;52 -->
<g id="edge52" class="edge">
<title>48&#45;&gt;52</title>
<path fill="none" stroke="black" d="M1130.05,-293.83C1147.21,-284.25 1168.41,-272.42 1186.56,-262.29"/>
<polygon fill="black" stroke="black" points="1188.71,-265.1 1195.73,-257.17 1185.3,-258.99 1188.71,-265.1"/>
</g>
<!-- 50 -->
<g id="node51" class="node">
<title>50</title>
<polygon fill="none" stroke="black" points="1148,-183 1047,-183 1047,-147 1148,-147 1148,-183"/>
<text text-anchor="middle" x="1097.5" y="-161.3" font-family="Times,serif" font-size="14.00">class = Canada</text>
</g>
<!-- 49&#45;&gt;50 -->
<g id="edge50" class="edge">
<title>49&#45;&gt;50</title>
<path fill="none" stroke="black" d="M1097.5,-219.83C1097.5,-211.89 1097.5,-202.41 1097.5,-193.63"/>
<polygon fill="black" stroke="black" points="1101,-193.42 1097.5,-183.42 1094,-193.42 1101,-193.42"/>
</g>
<!-- 51 -->
<g id="node52" class="node">
<title>51</title>
<polygon fill="none" stroke="black" points="1253,-183 1166,-183 1166,-147 1253,-147 1253,-183"/>
<text text-anchor="middle" x="1209.5" y="-161.3" font-family="Times,serif" font-size="14.00">class = USA</text>
</g>
<!-- 49&#45;&gt;51 -->
<g id="edge51" class="edge">
<title>49&#45;&gt;51</title>
<path fill="none" stroke="black" d="M1125.76,-219.83C1140.39,-210.43 1158.39,-198.86 1173.95,-188.85"/>
<polygon fill="black" stroke="black" points="1176.27,-191.52 1182.79,-183.17 1172.48,-185.63 1176.27,-191.52"/>
</g>
</g>
</svg>
