<?xml version="1.0" encoding="UTF-8" standalone="no"?>
<!DOCTYPE svg PUBLIC "-//W3C//DTD SVG 1.1//EN"
 "http://www.w3.org/Graphics/SVG/1.1/DTD/svg11.dtd">
<!-- Generated by graphviz version 2.48.0 (0)
 -->
<!-- Title: Tree Pages: 1 -->
<svg width="1121pt" height="932pt"
 viewBox="0.00 0.00 1121.00 932.00" xmlns="http://www.w3.org/2000/svg" xmlns:xlink="http://www.w3.org/1999/xlink">
<g id="graph0" class="graph" transform="scale(1 1) rotate(0) translate(4 928)">
<title>Tree</title>
<polygon fill="white" stroke="transparent" points="-4,4 -4,-928 1117,-928 1117,4 -4,4"/>
<!-- 0 -->
<g id="node1" class="node">
<title>0</title>
<polygon fill="none" stroke="black" points="387.5,-924 281.5,-924 281.5,-886 387.5,-886 387.5,-924"/>
<text text-anchor="middle" x="334.5" y="-908.8" font-family="Times,serif" font-size="14.00">latitude &lt;= 42.9</text>
<text text-anchor="middle" x="334.5" y="-893.8" font-family="Times,serif" font-size="14.00">class = Canada</text>
</g>
<!-- 1 -->
<g id="node2" class="node">
<title>1</title>
<polygon fill="none" stroke="black" points="325.5,-850 205.5,-850 205.5,-812 325.5,-812 325.5,-850"/>
<text text-anchor="middle" x="265.5" y="-834.8" font-family="Times,serif" font-size="14.00">latitude &lt;= 42.096</text>
<text text-anchor="middle" x="265.5" y="-819.8" font-family="Times,serif" font-size="14.00">class = USA</text>
</g>
<!-- 0&#45;&gt;1 -->
<g id="edge1" class="edge">
<title>0&#45;&gt;1</title>
<path fill="none" stroke="black" d="M317.09,-885.83C308.98,-877.37 299.18,-867.15 290.32,-857.9"/>
<polygon fill="black" stroke="black" points="292.59,-855.21 283.15,-850.41 287.54,-860.05 292.59,-855.21"/>
<text text-anchor="middle" x="282.61" y="-871.71" font-family="Times,serif" font-size="14.00">True</text>
</g>
<!-- 6 -->
<g id="node7" class="node">
<title>6</title>
<polygon fill="none" stroke="black" points="463.5,-850 343.5,-850 343.5,-812 463.5,-812 463.5,-850"/>
<text text-anchor="middle" x="403.5" y="-834.8" font-family="Times,serif" font-size="14.00">latitude &lt;= 55.958</text>
<text text-anchor="middle" x="403.5" y="-819.8" font-family="Times,serif" font-size="14.00">class = Canada</text>
</g>
<!-- 0&#45;&gt;6 -->
<g id="edge6" class="edge">
<title>0&#45;&gt;6</title>
<path fill="none" stroke="black" d="M351.91,-885.83C360.02,-877.37 369.82,-867.15 378.68,-857.9"/>
<polygon fill="black" stroke="black" points="381.46,-860.05 385.85,-850.41 376.41,-855.21 381.46,-860.05"/>
<text text-anchor="middle" x="386.39" y="-871.71" font-family="Times,serif" font-size="14.00">False</text>
</g>
<!-- 2 -->
<g id="node3" class="node">
<title>2</title>
<polygon fill="none" stroke="black" points="189,-775 102,-775 102,-739 189,-739 189,-775"/>
<text text-anchor="middle" x="145.5" y="-753.3" font-family="Times,serif" font-size="14.00">class = USA</text>
</g>
<!-- 1&#45;&gt;2 -->
<g id="edge2" class="edge">
<title>1&#45;&gt;2</title>
<path fill="none" stroke="black" d="M235.22,-811.83C219.4,-802.34 199.9,-790.64 183.12,-780.57"/>
<polygon fill="black" stroke="black" points="184.49,-777.32 174.12,-775.17 180.89,-783.32 184.49,-777.32"/>
</g>
<!-- 3 -->
<g id="node4" class="node">
<title>3</title>
<polygon fill="none" stroke="black" points="327.5,-776 207.5,-776 207.5,-738 327.5,-738 327.5,-776"/>
<text text-anchor="middle" x="267.5" y="-760.8" font-family="Times,serif" font-size="14.00">latitude &lt;= 42.324</text>
<text text-anchor="middle" x="267.5" y="-745.8" font-family="Times,serif" font-size="14.00">class = USA</text>
</g>
<!-- 1&#45;&gt;3 -->
<g id="edge3" class="edge">
<title>1&#45;&gt;3</title>
<path fill="none" stroke="black" d="M266,-811.83C266.22,-804.13 266.47,-794.97 266.71,-786.42"/>
<polygon fill="black" stroke="black" points="270.21,-786.51 266.99,-776.41 263.21,-786.31 270.21,-786.51"/>
</g>
<!-- 4 -->
<g id="node5" class="node">
<title>4</title>
<polygon fill="none" stroke="black" points="207,-701 106,-701 106,-665 207,-665 207,-701"/>
<text text-anchor="middle" x="156.5" y="-679.3" font-family="Times,serif" font-size="14.00">class = Canada</text>
</g>
<!-- 3&#45;&gt;4 -->
<g id="edge4" class="edge">
<title>3&#45;&gt;4</title>
<path fill="none" stroke="black" d="M239.49,-737.83C224.99,-728.43 207.15,-716.86 191.73,-706.85"/>
<polygon fill="black" stroke="black" points="193.27,-703.68 182.97,-701.17 189.46,-709.55 193.27,-703.68"/>
</g>
<!-- 5 -->
<g id="node6" class="node">
<title>5</title>
<polygon fill="none" stroke="black" points="312,-701 225,-701 225,-665 312,-665 312,-701"/>
<text text-anchor="middle" x="268.5" y="-679.3" font-family="Times,serif" font-size="14.00">class = USA</text>
</g>
<!-- 3&#45;&gt;5 -->
<g id="edge5" class="edge">
<title>3&#45;&gt;5</title>
<path fill="none" stroke="black" d="M267.75,-737.83C267.86,-729.89 267.99,-720.41 268.12,-711.63"/>
<polygon fill="black" stroke="black" points="271.62,-711.47 268.26,-701.42 264.62,-711.37 271.62,-711.47"/>
</g>
<!-- 7 -->
<g id="node8" class="node">
<title>7</title>
<polygon fill="none" stroke="black" points="455.5,-776 349.5,-776 349.5,-738 455.5,-738 455.5,-776"/>
<text text-anchor="middle" x="402.5" y="-760.8" font-family="Times,serif" font-size="14.00">latitude &lt;= 49.0</text>
<text text-anchor="middle" x="402.5" y="-745.8" font-family="Times,serif" font-size="14.00">class = Canada</text>
</g>
<!-- 6&#45;&gt;7 -->
<g id="edge7" class="edge">
<title>6&#45;&gt;7</title>
<path fill="none" stroke="black" d="M403.25,-811.83C403.14,-804.13 403.01,-794.97 402.89,-786.42"/>
<polygon fill="black" stroke="black" points="406.39,-786.36 402.76,-776.41 399.4,-786.46 406.39,-786.36"/>
</g>
<!-- 54 -->
<g id="node55" class="node">
<title>54</title>
<polygon fill="none" stroke="black" points="561,-775 474,-775 474,-739 561,-739 561,-775"/>
<text text-anchor="middle" x="517.5" y="-753.3" font-family="Times,serif" font-size="14.00">class = USA</text>
</g>
<!-- 6&#45;&gt;54 -->
<g id="edge54" class="edge">
<title>6&#45;&gt;54</title>
<path fill="none" stroke="black" d="M432.27,-811.83C447.29,-802.34 465.82,-790.64 481.76,-780.57"/>
<polygon fill="black" stroke="black" points="483.73,-783.47 490.31,-775.17 479.99,-777.55 483.73,-783.47"/>
</g>
<!-- 8 -->
<g id="node9" class="node">
<title>8</title>
<polygon fill="none" stroke="black" points="469,-702 334,-702 334,-664 469,-664 469,-702"/>
<text text-anchor="middle" x="401.5" y="-686.8" font-family="Times,serif" font-size="14.00">longitude &lt;= &#45;94.582</text>
<text text-anchor="middle" x="401.5" y="-671.8" font-family="Times,serif" font-size="14.00">class = Canada</text>
</g>
<!-- 7&#45;&gt;8 -->
<g id="edge8" class="edge">
<title>7&#45;&gt;8</title>
<path fill="none" stroke="black" d="M402.25,-737.83C402.14,-730.13 402.01,-720.97 401.89,-712.42"/>
<polygon fill="black" stroke="black" points="405.39,-712.36 401.76,-702.41 398.4,-712.46 405.39,-712.36"/>
</g>
<!-- 53 -->
<g id="node54" class="node">
<title>53</title>
<polygon fill="none" stroke="black" points="588,-701 487,-701 487,-665 588,-665 588,-701"/>
<text text-anchor="middle" x="537.5" y="-679.3" font-family="Times,serif" font-size="14.00">class = Canada</text>
</g>
<!-- 7&#45;&gt;53 -->
<g id="edge53" class="edge">
<title>7&#45;&gt;53</title>
<path fill="none" stroke="black" d="M436.57,-737.83C454.69,-728.17 477.12,-716.2 496.22,-706.01"/>
<polygon fill="black" stroke="black" points="498.13,-708.97 505.3,-701.17 494.83,-702.79 498.13,-708.97"/>
</g>
<!-- 9 -->
<g id="node10" class="node">
<title>9</title>
<polygon fill="none" stroke="black" points="394.5,-628 252.5,-628 252.5,-590 394.5,-590 394.5,-628"/>
<text text-anchor="middle" x="323.5" y="-612.8" font-family="Times,serif" font-size="14.00">longitude &lt;= &#45;123.222</text>
<text text-anchor="middle" x="323.5" y="-597.8" font-family="Times,serif" font-size="14.00">class = USA</text>
</g>
<!-- 8&#45;&gt;9 -->
<g id="edge9" class="edge">
<title>8&#45;&gt;9</title>
<path fill="none" stroke="black" d="M381.82,-663.83C372.39,-655.13 360.96,-644.58 350.72,-635.13"/>
<polygon fill="black" stroke="black" points="352.9,-632.37 343.18,-628.16 348.15,-637.52 352.9,-632.37"/>
</g>
<!-- 12 -->
<g id="node13" class="node">
<title>12</title>
<polygon fill="none" stroke="black" points="548,-628 413,-628 413,-590 548,-590 548,-628"/>
<text text-anchor="middle" x="480.5" y="-612.8" font-family="Times,serif" font-size="14.00">longitude &lt;= &#45;69.246</text>
<text text-anchor="middle" x="480.5" y="-597.8" font-family="Times,serif" font-size="14.00">class = Canada</text>
</g>
<!-- 8&#45;&gt;12 -->
<g id="edge12" class="edge">
<title>8&#45;&gt;12</title>
<path fill="none" stroke="black" d="M421.44,-663.83C430.98,-655.13 442.56,-644.58 452.93,-635.13"/>
<polygon fill="black" stroke="black" points="455.54,-637.49 460.57,-628.16 450.82,-632.31 455.54,-637.49"/>
</g>
<!-- 10 -->
<g id="node11" class="node">
<title>10</title>
<polygon fill="none" stroke="black" points="271,-553 170,-553 170,-517 271,-517 271,-553"/>
<text text-anchor="middle" x="220.5" y="-531.3" font-family="Times,serif" font-size="14.00">class = Canada</text>
</g>
<!-- 9&#45;&gt;10 -->
<g id="edge10" class="edge">
<title>9&#45;&gt;10</title>
<path fill="none" stroke="black" d="M297.51,-589.83C284.18,-580.52 267.81,-569.07 253.59,-559.13"/>
<polygon fill="black" stroke="black" points="255.27,-556.03 245.06,-553.17 251.26,-561.77 255.27,-556.03"/>
</g>
<!-- 11 -->
<g id="node12" class="node">
<title>11</title>
<polygon fill="none" stroke="black" points="376,-553 289,-553 289,-517 376,-517 376,-553"/>
<text text-anchor="middle" x="332.5" y="-531.3" font-family="Times,serif" font-size="14.00">class = USA</text>
</g>
<!-- 9&#45;&gt;11 -->
<g id="edge11" class="edge">
<title>9&#45;&gt;11</title>
<path fill="none" stroke="black" d="M325.77,-589.83C326.76,-581.89 327.95,-572.41 329.05,-563.63"/>
<polygon fill="black" stroke="black" points="332.56,-563.77 330.32,-553.42 325.61,-562.91 332.56,-563.77"/>
</g>
<!-- 13 -->
<g id="node14" class="node">
<title>13</title>
<polygon fill="none" stroke="black" points="531.5,-554 411.5,-554 411.5,-516 531.5,-516 531.5,-554"/>
<text text-anchor="middle" x="471.5" y="-538.8" font-family="Times,serif" font-size="14.00">latitude &lt;= 43.093</text>
<text text-anchor="middle" x="471.5" y="-523.8" font-family="Times,serif" font-size="14.00">class = Canada</text>
</g>
<!-- 12&#45;&gt;13 -->
<g id="edge13" class="edge">
<title>12&#45;&gt;13</title>
<path fill="none" stroke="black" d="M478.23,-589.83C477.27,-582.13 476.12,-572.97 475.05,-564.42"/>
<polygon fill="black" stroke="black" points="478.52,-563.9 473.8,-554.41 471.57,-564.77 478.52,-563.9"/>
</g>
<!-- 36 -->
<g id="node37" class="node">
<title>36</title>
<polygon fill="none" stroke="black" points="726,-554 591,-554 591,-516 726,-516 726,-554"/>
<text text-anchor="middle" x="658.5" y="-538.8" font-family="Times,serif" font-size="14.00">longitude &lt;= &#45;66.952</text>
<text text-anchor="middle" x="658.5" y="-523.8" font-family="Times,serif" font-size="14.00">class = Canada</text>
</g>
<!-- 12&#45;&gt;36 -->
<g id="edge36" class="edge">
<title>12&#45;&gt;36</title>
<path fill="none" stroke="black" d="M525.42,-589.83C549.43,-580.12 579.18,-568.08 604.46,-557.86"/>
<polygon fill="black" stroke="black" points="605.95,-561.03 613.91,-554.04 603.32,-554.54 605.95,-561.03"/>
</g>
<!-- 14 -->
<g id="node15" class="node">
<title>14</title>
<polygon fill="none" stroke="black" points="351.5,-480 231.5,-480 231.5,-442 351.5,-442 351.5,-480"/>
<text text-anchor="middle" x="291.5" y="-464.8" font-family="Times,serif" font-size="14.00">latitude &lt;= 43.014</text>
<text text-anchor="middle" x="291.5" y="-449.8" font-family="Times,serif" font-size="14.00">class = Canada</text>
</g>
<!-- 13&#45;&gt;14 -->
<g id="edge14" class="edge">
<title>13&#45;&gt;14</title>
<path fill="none" stroke="black" d="M426.08,-515.83C401.79,-506.12 371.71,-494.08 346.15,-483.86"/>
<polygon fill="black" stroke="black" points="347.18,-480.5 336.59,-480.04 344.58,-487 347.18,-480.5"/>
</g>
<!-- 19 -->
<g id="node20" class="node">
<title>19</title>
<polygon fill="none" stroke="black" points="531.5,-480 411.5,-480 411.5,-442 531.5,-442 531.5,-480"/>
<text text-anchor="middle" x="471.5" y="-464.8" font-family="Times,serif" font-size="14.00">latitude &lt;= 44.992</text>
<text text-anchor="middle" x="471.5" y="-449.8" font-family="Times,serif" font-size="14.00">class = Canada</text>
</g>
<!-- 13&#45;&gt;19 -->
<g id="edge19" class="edge">
<title>13&#45;&gt;19</title>
<path fill="none" stroke="black" d="M471.5,-515.83C471.5,-508.13 471.5,-498.97 471.5,-490.42"/>
<polygon fill="black" stroke="black" points="475,-490.41 471.5,-480.41 468,-490.41 475,-490.41"/>
</g>
<!-- 15 -->
<g id="node16" class="node">
<title>15</title>
<polygon fill="none" stroke="black" points="223,-406 88,-406 88,-368 223,-368 223,-406"/>
<text text-anchor="middle" x="155.5" y="-390.8" font-family="Times,serif" font-size="14.00">longitude &lt;= &#45;81.845</text>
<text text-anchor="middle" x="155.5" y="-375.8" font-family="Times,serif" font-size="14.00">class = Canada</text>
</g>
<!-- 14&#45;&gt;15 -->
<g id="edge15" class="edge">
<title>14&#45;&gt;15</title>
<path fill="none" stroke="black" d="M257.18,-441.83C239.46,-432.45 217.67,-420.91 198.8,-410.92"/>
<polygon fill="black" stroke="black" points="200.28,-407.75 189.81,-406.16 197.01,-413.94 200.28,-407.75"/>
</g>
<!-- 18 -->
<g id="node19" class="node">
<title>18</title>
<polygon fill="none" stroke="black" points="335,-405 248,-405 248,-369 335,-369 335,-405"/>
<text text-anchor="middle" x="291.5" y="-383.3" font-family="Times,serif" font-size="14.00">class = USA</text>
</g>
<!-- 14&#45;&gt;18 -->
<g id="edge18" class="edge">
<title>14&#45;&gt;18</title>
<path fill="none" stroke="black" d="M291.5,-441.83C291.5,-433.89 291.5,-424.41 291.5,-415.63"/>
<polygon fill="black" stroke="black" points="295,-415.42 291.5,-405.42 288,-415.42 295,-415.42"/>
</g>
<!-- 16 -->
<g id="node17" class="node">
<title>16</title>
<polygon fill="none" stroke="black" points="87,-331 0,-331 0,-295 87,-295 87,-331"/>
<text text-anchor="middle" x="43.5" y="-309.3" font-family="Times,serif" font-size="14.00">class = USA</text>
</g>
<!-- 15&#45;&gt;16 -->
<g id="edge16" class="edge">
<title>15&#45;&gt;16</title>
<path fill="none" stroke="black" d="M127.24,-367.83C112.61,-358.43 94.61,-346.86 79.05,-336.85"/>
<polygon fill="black" stroke="black" points="80.52,-333.63 70.21,-331.17 76.73,-339.52 80.52,-333.63"/>
</g>
<!-- 17 -->
<g id="node18" class="node">
<title>17</title>
<polygon fill="none" stroke="black" points="206,-331 105,-331 105,-295 206,-295 206,-331"/>
<text text-anchor="middle" x="155.5" y="-309.3" font-family="Times,serif" font-size="14.00">class = Canada</text>
</g>
<!-- 15&#45;&gt;17 -->
<g id="edge17" class="edge">
<title>15&#45;&gt;17</title>
<path fill="none" stroke="black" d="M155.5,-367.83C155.5,-359.89 155.5,-350.41 155.5,-341.63"/>
<polygon fill="black" stroke="black" points="159,-341.42 155.5,-331.42 152,-341.42 159,-341.42"/>
</g>
<!-- 20 -->
<g id="node21" class="node">
<title>20</title>
<polygon fill="none" stroke="black" points="474.5,-406 354.5,-406 354.5,-368 474.5,-368 474.5,-406"/>
<text text-anchor="middle" x="414.5" y="-390.8" font-family="Times,serif" font-size="14.00">latitude &lt;= 44.542</text>
<text text-anchor="middle" x="414.5" y="-375.8" font-family="Times,serif" font-size="14.00">class = Canada</text>
</g>
<!-- 19&#45;&gt;20 -->
<g id="edge20" class="edge">
<title>19&#45;&gt;20</title>
<path fill="none" stroke="black" d="M457.12,-441.83C450.55,-433.54 442.65,-423.56 435.44,-414.45"/>
<polygon fill="black" stroke="black" points="438.03,-412.08 429.08,-406.41 432.54,-416.43 438.03,-412.08"/>
</g>
<!-- 35 -->
<g id="node36" class="node">
<title>35</title>
<polygon fill="none" stroke="black" points="594,-405 493,-405 493,-369 594,-369 594,-405"/>
<text text-anchor="middle" x="543.5" y="-383.3" font-family="Times,serif" font-size="14.00">class = Canada</text>
</g>
<!-- 19&#45;&gt;35 -->
<g id="edge35" class="edge">
<title>19&#45;&gt;35</title>
<path fill="none" stroke="black" d="M489.67,-441.83C498.48,-433.02 509.19,-422.31 518.74,-412.76"/>
<polygon fill="black" stroke="black" points="521.49,-414.96 526.08,-405.42 516.54,-410.01 521.49,-414.96"/>
</g>
<!-- 21 -->
<g id="node22" class="node">
<title>21</title>
<polygon fill="none" stroke="black" points="359,-332 224,-332 224,-294 359,-294 359,-332"/>
<text text-anchor="middle" x="291.5" y="-316.8" font-family="Times,serif" font-size="14.00">longitude &lt;= &#45;79.076</text>
<text text-anchor="middle" x="291.5" y="-301.8" font-family="Times,serif" font-size="14.00">class = Canada</text>
</g>
<!-- 20&#45;&gt;21 -->
<g id="edge21" class="edge">
<title>20&#45;&gt;21</title>
<path fill="none" stroke="black" d="M383.46,-367.83C367.73,-358.62 348.44,-347.33 331.6,-337.47"/>
<polygon fill="black" stroke="black" points="332.93,-334.19 322.53,-332.16 329.39,-340.24 332.93,-334.19"/>
</g>
<!-- 30 -->
<g id="node31" class="node">
<title>30</title>
<polygon fill="none" stroke="black" points="497.5,-332 377.5,-332 377.5,-294 497.5,-294 497.5,-332"/>
<text text-anchor="middle" x="437.5" y="-316.8" font-family="Times,serif" font-size="14.00">latitude &lt;= 44.706</text>
<text text-anchor="middle" x="437.5" y="-301.8" font-family="Times,serif" font-size="14.00">class = USA</text>
</g>
<!-- 20&#45;&gt;30 -->
<g id="edge30" class="edge">
<title>20&#45;&gt;30</title>
<path fill="none" stroke="black" d="M420.3,-367.83C422.79,-360.05 425.75,-350.77 428.51,-342.13"/>
<polygon fill="black" stroke="black" points="431.91,-343 431.62,-332.41 425.24,-340.87 431.91,-343"/>
</g>
<!-- 22 -->
<g id="node23" class="node">
<title>22</title>
<polygon fill="none" stroke="black" points="213,-257 112,-257 112,-221 213,-221 213,-257"/>
<text text-anchor="middle" x="162.5" y="-235.3" font-family="Times,serif" font-size="14.00">class = Canada</text>
</g>
<!-- 21&#45;&gt;22 -->
<g id="edge22" class="edge">
<title>21&#45;&gt;22</title>
<path fill="none" stroke="black" d="M258.95,-293.83C241.79,-284.25 220.59,-272.42 202.44,-262.29"/>
<polygon fill="black" stroke="black" points="203.7,-258.99 193.27,-257.17 200.29,-265.1 203.7,-258.99"/>
</g>
<!-- 23 -->
<g id="node24" class="node">
<title>23</title>
<polygon fill="none" stroke="black" points="351.5,-258 231.5,-258 231.5,-220 351.5,-220 351.5,-258"/>
<text text-anchor="middle" x="291.5" y="-242.8" font-family="Times,serif" font-size="14.00">latitude &lt;= 44.168</text>
<text text-anchor="middle" x="291.5" y="-227.8" font-family="Times,serif" font-size="14.00">class = Canada</text>
</g>
<!-- 21&#45;&gt;23 -->
<g id="edge23" class="edge">
<title>21&#45;&gt;23</title>
<path fill="none" stroke="black" d="M291.5,-293.83C291.5,-286.13 291.5,-276.97 291.5,-268.42"/>
<polygon fill="black" stroke="black" points="295,-268.41 291.5,-258.41 288,-268.41 295,-268.41"/>
</g>
<!-- 24 -->
<g id="node25" class="node">
<title>24</title>
<polygon fill="none" stroke="black" points="236,-184 117,-184 117,-146 236,-146 236,-184"/>
<text text-anchor="middle" x="176.5" y="-168.8" font-family="Times,serif" font-size="14.00">latitude &lt;= 43.511</text>
<text text-anchor="middle" x="176.5" y="-153.8" font-family="Times,serif" font-size="14.00">class = USA</text>
</g>
<!-- 23&#45;&gt;24 -->
<g id="edge24" class="edge">
<title>23&#45;&gt;24</title>
<path fill="none" stroke="black" d="M262.48,-219.83C247.77,-210.62 229.74,-199.33 213.99,-189.47"/>
<polygon fill="black" stroke="black" points="215.84,-186.5 205.51,-184.16 212.13,-192.44 215.84,-186.5"/>
</g>
<!-- 29 -->
<g id="node30" class="node">
<title>29</title>
<polygon fill="none" stroke="black" points="355,-183 254,-183 254,-147 355,-147 355,-183"/>
<text text-anchor="middle" x="304.5" y="-161.3" font-family="Times,serif" font-size="14.00">class = Canada</text>
</g>
<!-- 23&#45;&gt;29 -->
<g id="edge29" class="edge">
<title>23&#45;&gt;29</title>
<path fill="none" stroke="black" d="M294.78,-219.83C296.23,-211.81 297.96,-202.2 299.56,-193.34"/>
<polygon fill="black" stroke="black" points="303.02,-193.88 301.36,-183.42 296.13,-192.64 303.02,-193.88"/>
</g>
<!-- 25 -->
<g id="node26" class="node">
<title>25</title>
<polygon fill="none" stroke="black" points="156,-109 69,-109 69,-73 156,-73 156,-109"/>
<text text-anchor="middle" x="112.5" y="-87.3" font-family="Times,serif" font-size="14.00">class = USA</text>
</g>
<!-- 24&#45;&gt;25 -->
<g id="edge25" class="edge">
<title>24&#45;&gt;25</title>
<path fill="none" stroke="black" d="M160.35,-145.83C152.6,-137.11 143.18,-126.52 134.76,-117.05"/>
<polygon fill="black" stroke="black" points="137.24,-114.57 127.98,-109.42 132.01,-119.22 137.24,-114.57"/>
</g>
<!-- 26 -->
<g id="node27" class="node">
<title>26</title>
<polygon fill="none" stroke="black" points="309,-110 174,-110 174,-72 309,-72 309,-110"/>
<text text-anchor="middle" x="241.5" y="-94.8" font-family="Times,serif" font-size="14.00">longitude &lt;= &#45;77.678</text>
<text text-anchor="middle" x="241.5" y="-79.8" font-family="Times,serif" font-size="14.00">class = Canada</text>
</g>
<!-- 24&#45;&gt;26 -->
<g id="edge26" class="edge">
<title>24&#45;&gt;26</title>
<path fill="none" stroke="black" d="M192.9,-145.83C200.54,-137.37 209.77,-127.15 218.12,-117.9"/>
<polygon fill="black" stroke="black" points="220.77,-120.18 224.88,-110.41 215.58,-115.49 220.77,-120.18"/>
</g>
<!-- 27 -->
<g id="node28" class="node">
<title>27</title>
<polygon fill="none" stroke="black" points="236,-36 135,-36 135,0 236,0 236,-36"/>
<text text-anchor="middle" x="185.5" y="-14.3" font-family="Times,serif" font-size="14.00">class = Canada</text>
</g>
<!-- 26&#45;&gt;27 -->
<g id="edge27" class="edge">
<title>26&#45;&gt;27</title>
<path fill="none" stroke="black" d="M227.08,-71.72C220.43,-63.29 212.43,-53.15 205.23,-44.02"/>
<polygon fill="black" stroke="black" points="207.85,-41.69 198.91,-36 202.36,-46.02 207.85,-41.69"/>
</g>
<!-- 28 -->
<g id="node29" class="node">
<title>28</title>
<polygon fill="none" stroke="black" points="341,-36 254,-36 254,0 341,0 341,-36"/>
<text text-anchor="middle" x="297.5" y="-14.3" font-family="Times,serif" font-size="14.00">class = USA</text>
</g>
<!-- 26&#45;&gt;28 -->
<g id="edge28" class="edge">
<title>26&#45;&gt;28</title>
<path fill="none" stroke="black" d="M255.92,-71.72C262.57,-63.29 270.57,-53.15 277.77,-44.02"/>
<polygon fill="black" stroke="black" points="280.64,-46.02 284.09,-36 275.15,-41.69 280.64,-46.02"/>
</g>
<!-- 31 -->
<g id="node32" class="node">
<title>31</title>
<polygon fill="none" stroke="black" points="457,-257 370,-257 370,-221 457,-221 457,-257"/>
<text text-anchor="middle" x="413.5" y="-235.3" font-family="Times,serif" font-size="14.00">class = USA</text>
</g>
<!-- 30&#45;&gt;31 -->
<g id="edge31" class="edge">
<title>30&#45;&gt;31</title>
<path fill="none" stroke="black" d="M431.44,-293.83C428.74,-285.72 425.5,-275.99 422.52,-267.05"/>
<polygon fill="black" stroke="black" points="425.79,-265.8 419.31,-257.42 419.15,-268.01 425.79,-265.8"/>
</g>
<!-- 32 -->
<g id="node33" class="node">
<title>32</title>
<polygon fill="none" stroke="black" points="610,-258 475,-258 475,-220 610,-220 610,-258"/>
<text text-anchor="middle" x="542.5" y="-242.8" font-family="Times,serif" font-size="14.00">longitude &lt;= &#45;84.392</text>
<text text-anchor="middle" x="542.5" y="-227.8" font-family="Times,serif" font-size="14.00">class = Canada</text>
</g>
<!-- 30&#45;&gt;32 -->
<g id="edge32" class="edge">
<title>30&#45;&gt;32</title>
<path fill="none" stroke="black" d="M464,-293.83C477.18,-284.79 493.28,-273.75 507.47,-264.02"/>
<polygon fill="black" stroke="black" points="509.74,-266.7 516.01,-258.16 505.79,-260.93 509.74,-266.7"/>
</g>
<!-- 33 -->
<g id="node34" class="node">
<title>33</title>
<polygon fill="none" stroke="black" points="474,-183 387,-183 387,-147 474,-147 474,-183"/>
<text text-anchor="middle" x="430.5" y="-161.3" font-family="Times,serif" font-size="14.00">class = USA</text>
</g>
<!-- 32&#45;&gt;33 -->
<g id="edge33" class="edge">
<title>32&#45;&gt;33</title>
<path fill="none" stroke="black" d="M514.24,-219.83C499.61,-210.43 481.61,-198.86 466.05,-188.85"/>
<polygon fill="black" stroke="black" points="467.52,-185.63 457.21,-183.17 463.73,-191.52 467.52,-185.63"/>
</g>
<!-- 34 -->
<g id="node35" class="node">
<title>34</title>
<polygon fill="none" stroke="black" points="593,-183 492,-183 492,-147 593,-147 593,-183"/>
<text text-anchor="middle" x="542.5" y="-161.3" font-family="Times,serif" font-size="14.00">class = Canada</text>
</g>
<!-- 32&#45;&gt;34 -->
<g id="edge34" class="edge">
<title>32&#45;&gt;34</title>
<path fill="none" stroke="black" d="M542.5,-219.83C542.5,-211.89 542.5,-202.41 542.5,-193.63"/>
<polygon fill="black" stroke="black" points="546,-193.42 542.5,-183.42 539,-193.42 546,-193.42"/>
</g>
<!-- 37 -->
<g id="node38" class="node">
<title>37</title>
<polygon fill="none" stroke="black" points="718.5,-480 598.5,-480 598.5,-442 718.5,-442 718.5,-480"/>
<text text-anchor="middle" x="658.5" y="-464.8" font-family="Times,serif" font-size="14.00">latitude &lt;= 45.195</text>
<text text-anchor="middle" x="658.5" y="-449.8" font-family="Times,serif" font-size="14.00">class = USA</text>
</g>
<!-- 36&#45;&gt;37 -->
<g id="edge37" class="edge">
<title>36&#45;&gt;37</title>
<path fill="none" stroke="black" d="M658.5,-515.83C658.5,-508.13 658.5,-498.97 658.5,-490.42"/>
<polygon fill="black" stroke="black" points="662,-490.41 658.5,-480.41 655,-490.41 662,-490.41"/>
</g>
<!-- 52 -->
<g id="node53" class="node">
<title>52</title>
<polygon fill="none" stroke="black" points="838,-479 737,-479 737,-443 838,-443 838,-479"/>
<text text-anchor="middle" x="787.5" y="-457.3" font-family="Times,serif" font-size="14.00">class = Canada</text>
</g>
<!-- 36&#45;&gt;52 -->
<g id="edge52" class="edge">
<title>36&#45;&gt;52</title>
<path fill="none" stroke="black" d="M691.05,-515.83C708.21,-506.25 729.41,-494.42 747.56,-484.29"/>
<polygon fill="black" stroke="black" points="749.71,-487.1 756.73,-479.17 746.3,-480.99 749.71,-487.1"/>
</g>
<!-- 38 -->
<g id="node39" class="node">
<title>38</title>
<polygon fill="none" stroke="black" points="702,-405 615,-405 615,-369 702,-369 702,-405"/>
<text text-anchor="middle" x="658.5" y="-383.3" font-family="Times,serif" font-size="14.00">class = USA</text>
</g>
<!-- 37&#45;&gt;38 -->
<g id="edge38" class="edge">
<title>37&#45;&gt;38</title>
<path fill="none" stroke="black" d="M658.5,-441.83C658.5,-433.89 658.5,-424.41 658.5,-415.63"/>
<polygon fill="black" stroke="black" points="662,-415.42 658.5,-405.42 655,-415.42 662,-415.42"/>
</g>
<!-- 39 -->
<g id="node40" class="node">
<title>39</title>
<polygon fill="none" stroke="black" points="850.5,-406 722.5,-406 722.5,-368 850.5,-368 850.5,-406"/>
<text text-anchor="middle" x="786.5" y="-390.8" font-family="Times,serif" font-size="14.00">longitude &lt;= &#45;67.93</text>
<text text-anchor="middle" x="786.5" y="-375.8" font-family="Times,serif" font-size="14.00">class = Canada</text>
</g>
<!-- 37&#45;&gt;39 -->
<g id="edge39" class="edge">
<title>37&#45;&gt;39</title>
<path fill="none" stroke="black" d="M690.8,-441.83C707.32,-432.54 727.62,-421.12 745.26,-411.2"/>
<polygon fill="black" stroke="black" points="747.21,-414.12 754.21,-406.16 743.78,-408.01 747.21,-414.12"/>
</g>
<!-- 40 -->
<g id="node41" class="node">
<title>40</title>
<polygon fill="none" stroke="black" points="854,-332 719,-332 719,-294 854,-294 854,-332"/>
<text text-anchor="middle" x="786.5" y="-316.8" font-family="Times,serif" font-size="14.00">longitude &lt;= &#45;68.325</text>
<text text-anchor="middle" x="786.5" y="-301.8" font-family="Times,serif" font-size="14.00">class = USA</text>
</g>
<!-- 39&#45;&gt;40 -->
<g id="edge40" class="edge">
<title>39&#45;&gt;40</title>
<path fill="none" stroke="black" d="M786.5,-367.83C786.5,-360.13 786.5,-350.97 786.5,-342.42"/>
<polygon fill="black" stroke="black" points="790,-342.41 786.5,-332.41 783,-342.41 790,-342.41"/>
</g>
<!-- 47 -->
<g id="node48" class="node">
<title>47</title>
<polygon fill="none" stroke="black" points="993.5,-332 873.5,-332 873.5,-294 993.5,-294 993.5,-332"/>
<text text-anchor="middle" x="933.5" y="-316.8" font-family="Times,serif" font-size="14.00">latitude &lt;= 45.565</text>
<text text-anchor="middle" x="933.5" y="-301.8" font-family="Times,serif" font-size="14.00">class = Canada</text>
</g>
<!-- 39&#45;&gt;47 -->
<g id="edge47" class="edge">
<title>39&#45;&gt;47</title>
<path fill="none" stroke="black" d="M823.59,-367.83C842.99,-358.33 866.92,-346.61 887.49,-336.54"/>
<polygon fill="black" stroke="black" points="889.23,-339.58 896.67,-332.04 886.15,-333.29 889.23,-339.58"/>
</g>
<!-- 41 -->
<g id="node42" class="node">
<title>41</title>
<polygon fill="none" stroke="black" points="749.5,-258 629.5,-258 629.5,-220 749.5,-220 749.5,-258"/>
<text text-anchor="middle" x="689.5" y="-242.8" font-family="Times,serif" font-size="14.00">latitude &lt;= 47.256</text>
<text text-anchor="middle" x="689.5" y="-227.8" font-family="Times,serif" font-size="14.00">class = Canada</text>
</g>
<!-- 40&#45;&gt;41 -->
<g id="edge41" class="edge">
<title>40&#45;&gt;41</title>
<path fill="none" stroke="black" d="M762.02,-293.83C749.96,-284.88 735.25,-273.96 722.23,-264.3"/>
<polygon fill="black" stroke="black" points="724.09,-261.31 713.97,-258.16 719.91,-266.93 724.09,-261.31"/>
</g>
<!-- 46 -->
<g id="node47" class="node">
<title>46</title>
<polygon fill="none" stroke="black" points="855,-257 768,-257 768,-221 855,-221 855,-257"/>
<text text-anchor="middle" x="811.5" y="-235.3" font-family="Times,serif" font-size="14.00">class = USA</text>
</g>
<!-- 40&#45;&gt;46 -->
<g id="edge46" class="edge">
<title>40&#45;&gt;46</title>
<path fill="none" stroke="black" d="M792.81,-293.83C795.63,-285.72 799,-275.99 802.11,-267.05"/>
<polygon fill="black" stroke="black" points="805.48,-268.01 805.45,-257.42 798.87,-265.72 805.48,-268.01"/>
</g>
<!-- 42 -->
<g id="node43" class="node">
<title>42</title>
<polygon fill="none" stroke="black" points="712,-183 611,-183 611,-147 712,-147 712,-183"/>
<text text-anchor="middle" x="661.5" y="-161.3" font-family="Times,serif" font-size="14.00">class = Canada</text>
</g>
<!-- 41&#45;&gt;42 -->
<g id="edge42" class="edge">
<title>41&#45;&gt;42</title>
<path fill="none" stroke="black" d="M682.43,-219.83C679.25,-211.63 675.42,-201.78 671.91,-192.76"/>
<polygon fill="black" stroke="black" points="675.16,-191.47 668.27,-183.42 668.64,-194.01 675.16,-191.47"/>
</g>
<!-- 43 -->
<g id="node44" class="node">
<title>43</title>
<polygon fill="none" stroke="black" points="865,-184 730,-184 730,-146 865,-146 865,-184"/>
<text text-anchor="middle" x="797.5" y="-168.8" font-family="Times,serif" font-size="14.00">longitude &lt;= &#45;68.459</text>
<text text-anchor="middle" x="797.5" y="-153.8" font-family="Times,serif" font-size="14.00">class = USA</text>
</g>
<!-- 41&#45;&gt;43 -->
<g id="edge43" class="edge">
<title>41&#45;&gt;43</title>
<path fill="none" stroke="black" d="M716.75,-219.83C730.44,-210.71 747.19,-199.54 761.88,-189.74"/>
<polygon fill="black" stroke="black" points="763.88,-192.62 770.26,-184.16 759.99,-186.8 763.88,-192.62"/>
</g>
<!-- 44 -->
<g id="node45" class="node">
<title>44</title>
<polygon fill="none" stroke="black" points="785,-109 698,-109 698,-73 785,-73 785,-109"/>
<text text-anchor="middle" x="741.5" y="-87.3" font-family="Times,serif" font-size="14.00">class = USA</text>
</g>
<!-- 43&#45;&gt;44 -->
<g id="edge44" class="edge">
<title>43&#45;&gt;44</title>
<path fill="none" stroke="black" d="M783.37,-145.83C776.65,-137.2 768.51,-126.73 761.2,-117.33"/>
<polygon fill="black" stroke="black" points="763.95,-115.16 755.05,-109.42 758.42,-119.46 763.95,-115.16"/>
</g>
<!-- 45 -->
<g id="node46" class="node">
<title>45</title>
<polygon fill="none" stroke="black" points="904,-109 803,-109 803,-73 904,-73 904,-109"/>
<text text-anchor="middle" x="853.5" y="-87.3" font-family="Times,serif" font-size="14.00">class = Canada</text>
</g>
<!-- 43&#45;&gt;45 -->
<g id="edge45" class="edge">
<title>43&#45;&gt;45</title>
<path fill="none" stroke="black" d="M811.63,-145.83C818.35,-137.2 826.49,-126.73 833.8,-117.33"/>
<polygon fill="black" stroke="black" points="836.58,-119.46 839.95,-109.42 831.05,-115.16 836.58,-119.46"/>
</g>
<!-- 48 -->
<g id="node49" class="node">
<title>48</title>
<polygon fill="none" stroke="black" points="993.5,-258 873.5,-258 873.5,-220 993.5,-220 993.5,-258"/>
<text text-anchor="middle" x="933.5" y="-242.8" font-family="Times,serif" font-size="14.00">latitude &lt;= 45.382</text>
<text text-anchor="middle" x="933.5" y="-227.8" font-family="Times,serif" font-size="14.00">class = Canada</text>
</g>
<!-- 47&#45;&gt;48 -->
<g id="edge48" class="edge">
<title>47&#45;&gt;48</title>
<path fill="none" stroke="black" d="M933.5,-293.83C933.5,-286.13 933.5,-276.97 933.5,-268.42"/>
<polygon fill="black" stroke="black" points="937,-268.41 933.5,-258.41 930,-268.41 937,-268.41"/>
</g>
<!-- 51 -->
<g id="node52" class="node">
<title>51</title>
<polygon fill="none" stroke="black" points="1113,-257 1012,-257 1012,-221 1113,-221 1113,-257"/>
<text text-anchor="middle" x="1062.5" y="-235.3" font-family="Times,serif" font-size="14.00">class = Canada</text>
</g>
<!-- 47&#45;&gt;51 -->
<g id="edge51" class="edge">
<title>47&#45;&gt;51</title>
<path fill="none" stroke="black" d="M966.05,-293.83C983.21,-284.25 1004.41,-272.42 1022.56,-262.29"/>
<polygon fill="black" stroke="black" points="1024.71,-265.1 1031.73,-257.17 1021.3,-258.99 1024.71,-265.1"/>
</g>
<!-- 49 -->
<g id="node50" class="node">
<title>49</title>
<polygon fill="none" stroke="black" points="984,-183 883,-183 883,-147 984,-147 984,-183"/>
<text text-anchor="middle" x="933.5" y="-161.3" font-family="Times,serif" font-size="14.00">class = Canada</text>
</g>
<!-- 48&#45;&gt;49 -->
<g id="edge49" class="edge">
<title>48&#45;&gt;49</title>
<path fill="none" stroke="black" d="M933.5,-219.83C933.5,-211.89 933.5,-202.41 933.5,-193.63"/>
<polygon fill="black" stroke="black" points="937,-193.42 933.5,-183.42 930,-193.42 937,-193.42"/>
</g>
<!-- 50 -->
<g id="node51" class="node">
<title>50</title>
<polygon fill="none" stroke="black" points="1089,-183 1002,-183 1002,-147 1089,-147 1089,-183"/>
<text text-anchor="middle" x="1045.5" y="-161.3" font-family="Times,serif" font-size="14.00">class = USA</text>
</g>
<!-- 48&#45;&gt;50 -->
<g id="edge50" class="edge">
<title>48&#45;&gt;50</title>
<path fill="none" stroke="black" d="M961.76,-219.83C976.39,-210.43 994.39,-198.86 1009.95,-188.85"/>
<polygon fill="black" stroke="black" points="1012.27,-191.52 1018.79,-183.17 1008.48,-185.63 1012.27,-191.52"/>
</g>
</g>
</svg>
