<?xml version="1.0" encoding="UTF-8" standalone="no"?>
<!DOCTYPE svg PUBLIC "-//W3C//DTD SVG 1.1//EN"
 "http://www.w3.org/Graphics/SVG/1.1/DTD/svg11.dtd">
<!-- Generated by graphviz version 5.0.1 (0)
 -->
<!-- Title: Tree Pages: 1 -->
<svg width="1174pt" height="932pt"
 viewBox="0.00 0.00 1174.00 932.00" xmlns="http://www.w3.org/2000/svg" xmlns:xlink="http://www.w3.org/1999/xlink">
<g id="graph0" class="graph" transform="scale(1 1) rotate(0) translate(4 928)">
<title>Tree</title>
<polygon fill="white" stroke="none" points="-4,4 -4,-928 1170,-928 1170,4 -4,4"/>
<!-- 0 -->
<g id="node1" class="node">
<title>0</title>
<polygon fill="none" stroke="black" points="365,-924 255,-924 255,-886 365,-886 365,-924"/>
<text text-anchor="middle" x="310" y="-908.8" font-family="Helvetica,sans-Serif" font-size="14.00">latitude &lt;= 42.9</text>
<text text-anchor="middle" x="310" y="-893.8" font-family="Helvetica,sans-Serif" font-size="14.00">class = Canada</text>
</g>
<!-- 1 -->
<g id="node2" class="node">
<title>1</title>
<polygon fill="none" stroke="black" points="301.5,-850 176.5,-850 176.5,-812 301.5,-812 301.5,-850"/>
<text text-anchor="middle" x="239" y="-834.8" font-family="Helvetica,sans-Serif" font-size="14.00">latitude &lt;= 42.096</text>
<text text-anchor="middle" x="239" y="-819.8" font-family="Helvetica,sans-Serif" font-size="14.00">class = USA</text>
</g>
<!-- 0&#45;&gt;1 -->
<g id="edge1" class="edge">
<title>0&#45;&gt;1</title>
<path fill="none" stroke="black" d="M292.08,-885.83C283.66,-877.28 273.46,-866.94 264.26,-857.62"/>
<polygon fill="black" stroke="black" points="266.67,-855.08 257.16,-850.41 261.69,-859.99 266.67,-855.08"/>
<text text-anchor="middle" x="256.98" y="-871.71" font-family="Helvetica,sans-Serif" font-size="14.00">True</text>
</g>
<!-- 6 -->
<g id="node7" class="node">
<title>6</title>
<polygon fill="none" stroke="black" points="444.5,-850 319.5,-850 319.5,-812 444.5,-812 444.5,-850"/>
<text text-anchor="middle" x="382" y="-834.8" font-family="Helvetica,sans-Serif" font-size="14.00">latitude &lt;= 55.958</text>
<text text-anchor="middle" x="382" y="-819.8" font-family="Helvetica,sans-Serif" font-size="14.00">class = Canada</text>
</g>
<!-- 0&#45;&gt;6 -->
<g id="edge6" class="edge">
<title>0&#45;&gt;6</title>
<path fill="none" stroke="black" d="M328.17,-885.83C336.72,-877.28 347.06,-866.94 356.38,-857.62"/>
<polygon fill="black" stroke="black" points="358.99,-859.96 363.59,-850.41 354.04,-855.01 358.99,-859.96"/>
<text text-anchor="middle" x="363.59" y="-871.71" font-family="Helvetica,sans-Serif" font-size="14.00">False</text>
</g>
<!-- 2 -->
<g id="node3" class="node">
<title>2</title>
<polygon fill="none" stroke="black" points="160.5,-775 69.5,-775 69.5,-739 160.5,-739 160.5,-775"/>
<text text-anchor="middle" x="115" y="-753.3" font-family="Helvetica,sans-Serif" font-size="14.00">class = USA</text>
</g>
<!-- 1&#45;&gt;2 -->
<g id="edge2" class="edge">
<title>1&#45;&gt;2</title>
<path fill="none" stroke="black" d="M207.71,-811.83C191.21,-802.25 170.84,-790.42 153.39,-780.29"/>
<polygon fill="black" stroke="black" points="154.98,-777.17 144.57,-775.17 151.46,-783.22 154.98,-777.17"/>
</g>
<!-- 3 -->
<g id="node4" class="node">
<title>3</title>
<polygon fill="none" stroke="black" points="303.5,-776 178.5,-776 178.5,-738 303.5,-738 303.5,-776"/>
<text text-anchor="middle" x="241" y="-760.8" font-family="Helvetica,sans-Serif" font-size="14.00">latitude &lt;= 42.324</text>
<text text-anchor="middle" x="241" y="-745.8" font-family="Helvetica,sans-Serif" font-size="14.00">class = USA</text>
</g>
<!-- 1&#45;&gt;3 -->
<g id="edge3" class="edge">
<title>1&#45;&gt;3</title>
<path fill="none" stroke="black" d="M239.5,-811.83C239.72,-804.13 239.97,-794.97 240.21,-786.42"/>
<polygon fill="black" stroke="black" points="243.71,-786.51 240.49,-776.41 236.71,-786.31 243.71,-786.51"/>
</g>
<!-- 4 -->
<g id="node5" class="node">
<title>4</title>
<polygon fill="none" stroke="black" points="178,-701 68,-701 68,-665 178,-665 178,-701"/>
<text text-anchor="middle" x="123" y="-679.3" font-family="Helvetica,sans-Serif" font-size="14.00">class = Canada</text>
</g>
<!-- 3&#45;&gt;4 -->
<g id="edge4" class="edge">
<title>3&#45;&gt;4</title>
<path fill="none" stroke="black" d="M211.22,-737.83C195.67,-728.34 176.49,-716.64 159.99,-706.57"/>
<polygon fill="black" stroke="black" points="161.5,-703.39 151.14,-701.17 157.86,-709.37 161.5,-703.39"/>
</g>
<!-- 5 -->
<g id="node6" class="node">
<title>5</title>
<polygon fill="none" stroke="black" points="287.5,-701 196.5,-701 196.5,-665 287.5,-665 287.5,-701"/>
<text text-anchor="middle" x="242" y="-679.3" font-family="Helvetica,sans-Serif" font-size="14.00">class = USA</text>
</g>
<!-- 3&#45;&gt;5 -->
<g id="edge5" class="edge">
<title>3&#45;&gt;5</title>
<path fill="none" stroke="black" d="M241.25,-737.83C241.36,-729.89 241.49,-720.41 241.62,-711.63"/>
<polygon fill="black" stroke="black" points="245.12,-711.47 241.76,-701.42 238.12,-711.37 245.12,-711.47"/>
</g>
<!-- 7 -->
<g id="node8" class="node">
<title>7</title>
<polygon fill="none" stroke="black" points="436,-776 326,-776 326,-738 436,-738 436,-776"/>
<text text-anchor="middle" x="381" y="-760.8" font-family="Helvetica,sans-Serif" font-size="14.00">latitude &lt;= 49.0</text>
<text text-anchor="middle" x="381" y="-745.8" font-family="Helvetica,sans-Serif" font-size="14.00">class = Canada</text>
</g>
<!-- 6&#45;&gt;7 -->
<g id="edge7" class="edge">
<title>6&#45;&gt;7</title>
<path fill="none" stroke="black" d="M381.75,-811.83C381.64,-804.13 381.51,-794.97 381.39,-786.42"/>
<polygon fill="black" stroke="black" points="384.89,-786.36 381.26,-776.41 377.9,-786.46 384.89,-786.36"/>
</g>
<!-- 54 -->
<g id="node55" class="node">
<title>54</title>
<polygon fill="none" stroke="black" points="545.5,-775 454.5,-775 454.5,-739 545.5,-739 545.5,-775"/>
<text text-anchor="middle" x="500" y="-753.3" font-family="Helvetica,sans-Serif" font-size="14.00">class = USA</text>
</g>
<!-- 6&#45;&gt;54 -->
<g id="edge54" class="edge">
<title>6&#45;&gt;54</title>
<path fill="none" stroke="black" d="M411.78,-811.83C427.33,-802.34 446.51,-790.64 463.01,-780.57"/>
<polygon fill="black" stroke="black" points="465.14,-783.37 471.86,-775.17 461.5,-777.39 465.14,-783.37"/>
</g>
<!-- 8 -->
<g id="node9" class="node">
<title>8</title>
<polygon fill="none" stroke="black" points="450.5,-702 309.5,-702 309.5,-664 450.5,-664 450.5,-702"/>
<text text-anchor="middle" x="380" y="-686.8" font-family="Helvetica,sans-Serif" font-size="14.00">longitude &lt;= &#45;94.582</text>
<text text-anchor="middle" x="380" y="-671.8" font-family="Helvetica,sans-Serif" font-size="14.00">class = Canada</text>
</g>
<!-- 7&#45;&gt;8 -->
<g id="edge8" class="edge">
<title>7&#45;&gt;8</title>
<path fill="none" stroke="black" d="M380.75,-737.83C380.64,-730.13 380.51,-720.97 380.39,-712.42"/>
<polygon fill="black" stroke="black" points="383.89,-712.36 380.26,-702.41 376.9,-712.46 383.89,-712.36"/>
</g>
<!-- 53 -->
<g id="node54" class="node">
<title>53</title>
<polygon fill="none" stroke="black" points="579,-701 469,-701 469,-665 579,-665 579,-701"/>
<text text-anchor="middle" x="524" y="-679.3" font-family="Helvetica,sans-Serif" font-size="14.00">class = Canada</text>
</g>
<!-- 7&#45;&gt;53 -->
<g id="edge53" class="edge">
<title>7&#45;&gt;53</title>
<path fill="none" stroke="black" d="M417.08,-737.83C436.46,-728.08 460.47,-715.99 480.83,-705.74"/>
<polygon fill="black" stroke="black" points="482.54,-708.79 489.9,-701.17 479.39,-702.54 482.54,-708.79"/>
</g>
<!-- 9 -->
<g id="node10" class="node">
<title>9</title>
<polygon fill="none" stroke="black" points="373.5,-628 224.5,-628 224.5,-590 373.5,-590 373.5,-628"/>
<text text-anchor="middle" x="299" y="-612.8" font-family="Helvetica,sans-Serif" font-size="14.00">longitude &lt;= &#45;123.222</text>
<text text-anchor="middle" x="299" y="-597.8" font-family="Helvetica,sans-Serif" font-size="14.00">class = USA</text>
</g>
<!-- 8&#45;&gt;9 -->
<g id="edge9" class="edge">
<title>8&#45;&gt;9</title>
<path fill="none" stroke="black" d="M359.56,-663.83C349.68,-655.05 337.67,-644.37 326.95,-634.85"/>
<polygon fill="black" stroke="black" points="329.23,-632.19 319.43,-628.16 324.58,-637.42 329.23,-632.19"/>
</g>
<!-- 12 -->
<g id="node13" class="node">
<title>12</title>
<polygon fill="none" stroke="black" points="532.5,-628 391.5,-628 391.5,-590 532.5,-590 532.5,-628"/>
<text text-anchor="middle" x="462" y="-612.8" font-family="Helvetica,sans-Serif" font-size="14.00">longitude &lt;= &#45;69.246</text>
<text text-anchor="middle" x="462" y="-597.8" font-family="Helvetica,sans-Serif" font-size="14.00">class = Canada</text>
</g>
<!-- 8&#45;&gt;12 -->
<g id="edge12" class="edge">
<title>8&#45;&gt;12</title>
<path fill="none" stroke="black" d="M400.69,-663.83C410.69,-655.05 422.86,-644.37 433.7,-634.85"/>
<polygon fill="black" stroke="black" points="436.11,-637.39 441.31,-628.16 431.49,-632.13 436.11,-637.39"/>
</g>
<!-- 10 -->
<g id="node11" class="node">
<title>10</title>
<polygon fill="none" stroke="black" points="245,-553 135,-553 135,-517 245,-517 245,-553"/>
<text text-anchor="middle" x="190" y="-531.3" font-family="Helvetica,sans-Serif" font-size="14.00">class = Canada</text>
</g>
<!-- 9&#45;&gt;10 -->
<g id="edge10" class="edge">
<title>9&#45;&gt;10</title>
<path fill="none" stroke="black" d="M271.49,-589.83C257.26,-580.43 239.74,-568.86 224.59,-558.85"/>
<polygon fill="black" stroke="black" points="226.27,-555.76 216,-553.17 222.41,-561.6 226.27,-555.76"/>
</g>
<!-- 11 -->
<g id="node12" class="node">
<title>11</title>
<polygon fill="none" stroke="black" points="354.5,-553 263.5,-553 263.5,-517 354.5,-517 354.5,-553"/>
<text text-anchor="middle" x="309" y="-531.3" font-family="Helvetica,sans-Serif" font-size="14.00">class = USA</text>
</g>
<!-- 9&#45;&gt;11 -->
<g id="edge11" class="edge">
<title>9&#45;&gt;11</title>
<path fill="none" stroke="black" d="M301.52,-589.83C302.64,-581.81 303.97,-572.2 305.2,-563.34"/>
<polygon fill="black" stroke="black" points="308.67,-563.8 306.58,-553.42 301.74,-562.84 308.67,-563.8"/>
</g>
<!-- 13 -->
<g id="node14" class="node">
<title>13</title>
<polygon fill="none" stroke="black" points="515.5,-554 390.5,-554 390.5,-516 515.5,-516 515.5,-554"/>
<text text-anchor="middle" x="453" y="-538.8" font-family="Helvetica,sans-Serif" font-size="14.00">latitude &lt;= 43.093</text>
<text text-anchor="middle" x="453" y="-523.8" font-family="Helvetica,sans-Serif" font-size="14.00">class = Canada</text>
</g>
<!-- 12&#45;&gt;13 -->
<g id="edge13" class="edge">
<title>12&#45;&gt;13</title>
<path fill="none" stroke="black" d="M459.73,-589.83C458.77,-582.13 457.62,-572.97 456.55,-564.42"/>
<polygon fill="black" stroke="black" points="460.02,-563.9 455.3,-554.41 453.07,-564.77 460.02,-563.9"/>
</g>
<!-- 36 -->
<g id="node37" class="node">
<title>36</title>
<polygon fill="none" stroke="black" points="842.5,-554 701.5,-554 701.5,-516 842.5,-516 842.5,-554"/>
<text text-anchor="middle" x="772" y="-538.8" font-family="Helvetica,sans-Serif" font-size="14.00">longitude &lt;= &#45;66.952</text>
<text text-anchor="middle" x="772" y="-523.8" font-family="Helvetica,sans-Serif" font-size="14.00">class = Canada</text>
</g>
<!-- 12&#45;&gt;36 -->
<g id="edge36" class="edge">
<title>12&#45;&gt;36</title>
<path fill="none" stroke="black" d="M532.73,-591.57C579.96,-580.6 642.19,-566.15 691.34,-554.73"/>
<polygon fill="black" stroke="black" points="692.36,-558.09 701.3,-552.42 690.77,-551.27 692.36,-558.09"/>
</g>
<!-- 14 -->
<g id="node15" class="node">
<title>14</title>
<polygon fill="none" stroke="black" points="244.5,-480 103.5,-480 103.5,-442 244.5,-442 244.5,-480"/>
<text text-anchor="middle" x="174" y="-464.8" font-family="Helvetica,sans-Serif" font-size="14.00">longitude &lt;= &#45;81.845</text>
<text text-anchor="middle" x="174" y="-449.8" font-family="Helvetica,sans-Serif" font-size="14.00">class = Canada</text>
</g>
<!-- 13&#45;&gt;14 -->
<g id="edge14" class="edge">
<title>13&#45;&gt;14</title>
<path fill="none" stroke="black" d="M390.39,-517.84C349.99,-507.42 297.09,-493.77 253.71,-482.57"/>
<polygon fill="black" stroke="black" points="254.31,-479.11 243.76,-480 252.56,-485.89 254.31,-479.11"/>
</g>
<!-- 19 -->
<g id="node20" class="node">
<title>19</title>
<polygon fill="none" stroke="black" points="515.5,-480 390.5,-480 390.5,-442 515.5,-442 515.5,-480"/>
<text text-anchor="middle" x="453" y="-464.8" font-family="Helvetica,sans-Serif" font-size="14.00">latitude &lt;= 44.992</text>
<text text-anchor="middle" x="453" y="-449.8" font-family="Helvetica,sans-Serif" font-size="14.00">class = Canada</text>
</g>
<!-- 13&#45;&gt;19 -->
<g id="edge19" class="edge">
<title>13&#45;&gt;19</title>
<path fill="none" stroke="black" d="M453,-515.83C453,-508.13 453,-498.97 453,-490.42"/>
<polygon fill="black" stroke="black" points="456.5,-490.41 453,-480.41 449.5,-490.41 456.5,-490.41"/>
</g>
<!-- 15 -->
<g id="node16" class="node">
<title>15</title>
<polygon fill="none" stroke="black" points="93.5,-405 2.5,-405 2.5,-369 93.5,-369 93.5,-405"/>
<text text-anchor="middle" x="48" y="-383.3" font-family="Helvetica,sans-Serif" font-size="14.00">class = USA</text>
</g>
<!-- 14&#45;&gt;15 -->
<g id="edge15" class="edge">
<title>14&#45;&gt;15</title>
<path fill="none" stroke="black" d="M142.2,-441.83C125.44,-432.25 104.74,-420.42 87.01,-410.29"/>
<polygon fill="black" stroke="black" points="88.47,-407.09 78.05,-405.17 85,-413.17 88.47,-407.09"/>
</g>
<!-- 16 -->
<g id="node17" class="node">
<title>16</title>
<polygon fill="none" stroke="black" points="236.5,-406 111.5,-406 111.5,-368 236.5,-368 236.5,-406"/>
<text text-anchor="middle" x="174" y="-390.8" font-family="Helvetica,sans-Serif" font-size="14.00">latitude &lt;= 43.039</text>
<text text-anchor="middle" x="174" y="-375.8" font-family="Helvetica,sans-Serif" font-size="14.00">class = Canada</text>
</g>
<!-- 14&#45;&gt;16 -->
<g id="edge16" class="edge">
<title>14&#45;&gt;16</title>
<path fill="none" stroke="black" d="M174,-441.83C174,-434.13 174,-424.97 174,-416.42"/>
<polygon fill="black" stroke="black" points="177.5,-416.41 174,-406.41 170.5,-416.41 177.5,-416.41"/>
</g>
<!-- 17 -->
<g id="node18" class="node">
<title>17</title>
<polygon fill="none" stroke="black" points="110,-331 0,-331 0,-295 110,-295 110,-331"/>
<text text-anchor="middle" x="55" y="-309.3" font-family="Helvetica,sans-Serif" font-size="14.00">class = Canada</text>
</g>
<!-- 16&#45;&gt;17 -->
<g id="edge17" class="edge">
<title>16&#45;&gt;17</title>
<path fill="none" stroke="black" d="M143.97,-367.83C128.29,-358.34 108.94,-346.64 92.31,-336.57"/>
<polygon fill="black" stroke="black" points="93.75,-333.35 83.38,-331.17 90.12,-339.34 93.75,-333.35"/>
</g>
<!-- 18 -->
<g id="node19" class="node">
<title>18</title>
<polygon fill="none" stroke="black" points="219.5,-331 128.5,-331 128.5,-295 219.5,-295 219.5,-331"/>
<text text-anchor="middle" x="174" y="-309.3" font-family="Helvetica,sans-Serif" font-size="14.00">class = USA</text>
</g>
<!-- 16&#45;&gt;18 -->
<g id="edge18" class="edge">
<title>16&#45;&gt;18</title>
<path fill="none" stroke="black" d="M174,-367.83C174,-359.89 174,-350.41 174,-341.63"/>
<polygon fill="black" stroke="black" points="177.5,-341.42 174,-331.42 170.5,-341.42 177.5,-341.42"/>
</g>
<!-- 20 -->
<g id="node21" class="node">
<title>20</title>
<polygon fill="none" stroke="black" points="443.5,-406 318.5,-406 318.5,-368 443.5,-368 443.5,-406"/>
<text text-anchor="middle" x="381" y="-390.8" font-family="Helvetica,sans-Serif" font-size="14.00">latitude &lt;= 44.542</text>
<text text-anchor="middle" x="381" y="-375.8" font-family="Helvetica,sans-Serif" font-size="14.00">class = Canada</text>
</g>
<!-- 19&#45;&gt;20 -->
<g id="edge20" class="edge">
<title>19&#45;&gt;20</title>
<path fill="none" stroke="black" d="M434.83,-441.83C426.28,-433.28 415.94,-422.94 406.62,-413.62"/>
<polygon fill="black" stroke="black" points="408.96,-411.01 399.41,-406.41 404.01,-415.96 408.96,-411.01"/>
</g>
<!-- 35 -->
<g id="node36" class="node">
<title>35</title>
<polygon fill="none" stroke="black" points="572,-405 462,-405 462,-369 572,-369 572,-405"/>
<text text-anchor="middle" x="517" y="-383.3" font-family="Helvetica,sans-Serif" font-size="14.00">class = Canada</text>
</g>
<!-- 19&#45;&gt;35 -->
<g id="edge35" class="edge">
<title>19&#45;&gt;35</title>
<path fill="none" stroke="black" d="M469.15,-441.83C476.9,-433.11 486.32,-422.52 494.74,-413.05"/>
<polygon fill="black" stroke="black" points="497.49,-415.22 501.52,-405.42 492.26,-410.57 497.49,-415.22"/>
</g>
<!-- 21 -->
<g id="node22" class="node">
<title>21</title>
<polygon fill="none" stroke="black" points="378.5,-332 237.5,-332 237.5,-294 378.5,-294 378.5,-332"/>
<text text-anchor="middle" x="308" y="-316.8" font-family="Helvetica,sans-Serif" font-size="14.00">longitude &lt;= &#45;79.076</text>
<text text-anchor="middle" x="308" y="-301.8" font-family="Helvetica,sans-Serif" font-size="14.00">class = Canada</text>
</g>
<!-- 20&#45;&gt;21 -->
<g id="edge21" class="edge">
<title>20&#45;&gt;21</title>
<path fill="none" stroke="black" d="M362.58,-367.83C353.85,-359.22 343.27,-348.79 333.76,-339.4"/>
<polygon fill="black" stroke="black" points="335.99,-336.69 326.42,-332.16 331.08,-341.68 335.99,-336.69"/>
</g>
<!-- 30 -->
<g id="node31" class="node">
<title>30</title>
<polygon fill="none" stroke="black" points="537.5,-332 396.5,-332 396.5,-294 537.5,-294 537.5,-332"/>
<text text-anchor="middle" x="467" y="-316.8" font-family="Helvetica,sans-Serif" font-size="14.00">longitude &lt;= &#45;84.392</text>
<text text-anchor="middle" x="467" y="-301.8" font-family="Helvetica,sans-Serif" font-size="14.00">class = USA</text>
</g>
<!-- 20&#45;&gt;30 -->
<g id="edge30" class="edge">
<title>20&#45;&gt;30</title>
<path fill="none" stroke="black" d="M402.7,-367.83C413.19,-359.05 425.95,-348.37 437.32,-338.85"/>
<polygon fill="black" stroke="black" points="439.88,-341.27 445.31,-332.16 435.39,-335.9 439.88,-341.27"/>
</g>
<!-- 22 -->
<g id="node23" class="node">
<title>22</title>
<polygon fill="none" stroke="black" points="227,-257 117,-257 117,-221 227,-221 227,-257"/>
<text text-anchor="middle" x="172" y="-235.3" font-family="Helvetica,sans-Serif" font-size="14.00">class = Canada</text>
</g>
<!-- 21&#45;&gt;22 -->
<g id="edge22" class="edge">
<title>21&#45;&gt;22</title>
<path fill="none" stroke="black" d="M273.68,-293.83C255.34,-284.12 232.63,-272.1 213.32,-261.88"/>
<polygon fill="black" stroke="black" points="214.91,-258.76 204.43,-257.17 211.64,-264.94 214.91,-258.76"/>
</g>
<!-- 23 -->
<g id="node24" class="node">
<title>23</title>
<polygon fill="none" stroke="black" points="370.5,-258 245.5,-258 245.5,-220 370.5,-220 370.5,-258"/>
<text text-anchor="middle" x="308" y="-242.8" font-family="Helvetica,sans-Serif" font-size="14.00">latitude &lt;= 44.168</text>
<text text-anchor="middle" x="308" y="-227.8" font-family="Helvetica,sans-Serif" font-size="14.00">class = Canada</text>
</g>
<!-- 21&#45;&gt;23 -->
<g id="edge23" class="edge">
<title>21&#45;&gt;23</title>
<path fill="none" stroke="black" d="M308,-293.83C308,-286.13 308,-276.97 308,-268.42"/>
<polygon fill="black" stroke="black" points="311.5,-268.41 308,-258.41 304.5,-268.41 311.5,-268.41"/>
</g>
<!-- 24 -->
<g id="node25" class="node">
<title>24</title>
<polygon fill="none" stroke="black" points="240.5,-184 115.5,-184 115.5,-146 240.5,-146 240.5,-184"/>
<text text-anchor="middle" x="178" y="-168.8" font-family="Helvetica,sans-Serif" font-size="14.00">latitude &lt;= 43.511</text>
<text text-anchor="middle" x="178" y="-153.8" font-family="Helvetica,sans-Serif" font-size="14.00">class = USA</text>
</g>
<!-- 23&#45;&gt;24 -->
<g id="edge24" class="edge">
<title>23&#45;&gt;24</title>
<path fill="none" stroke="black" d="M275.2,-219.83C258.41,-210.54 237.8,-199.12 219.88,-189.2"/>
<polygon fill="black" stroke="black" points="221.24,-185.95 210.79,-184.16 217.85,-192.07 221.24,-185.95"/>
</g>
<!-- 29 -->
<g id="node30" class="node">
<title>29</title>
<polygon fill="none" stroke="black" points="369,-183 259,-183 259,-147 369,-147 369,-183"/>
<text text-anchor="middle" x="314" y="-161.3" font-family="Helvetica,sans-Serif" font-size="14.00">class = Canada</text>
</g>
<!-- 23&#45;&gt;29 -->
<g id="edge29" class="edge">
<title>23&#45;&gt;29</title>
<path fill="none" stroke="black" d="M309.51,-219.83C310.18,-211.89 310.97,-202.41 311.7,-193.63"/>
<polygon fill="black" stroke="black" points="315.21,-193.67 312.55,-183.42 308.23,-193.09 315.21,-193.67"/>
</g>
<!-- 25 -->
<g id="node26" class="node">
<title>25</title>
<polygon fill="none" stroke="black" points="160.5,-109 69.5,-109 69.5,-73 160.5,-73 160.5,-109"/>
<text text-anchor="middle" x="115" y="-87.3" font-family="Helvetica,sans-Serif" font-size="14.00">class = USA</text>
</g>
<!-- 24&#45;&gt;25 -->
<g id="edge25" class="edge">
<title>24&#45;&gt;25</title>
<path fill="none" stroke="black" d="M162.1,-145.83C154.47,-137.11 145.2,-126.52 136.92,-117.05"/>
<polygon fill="black" stroke="black" points="139.46,-114.64 130.24,-109.42 134.19,-119.25 139.46,-114.64"/>
</g>
<!-- 26 -->
<g id="node27" class="node">
<title>26</title>
<polygon fill="none" stroke="black" points="303.5,-110 178.5,-110 178.5,-72 303.5,-72 303.5,-110"/>
<text text-anchor="middle" x="241" y="-94.8" font-family="Helvetica,sans-Serif" font-size="14.00">latitude &lt;= 43.988</text>
<text text-anchor="middle" x="241" y="-79.8" font-family="Helvetica,sans-Serif" font-size="14.00">class = Canada</text>
</g>
<!-- 24&#45;&gt;26 -->
<g id="edge26" class="edge">
<title>24&#45;&gt;26</title>
<path fill="none" stroke="black" d="M193.9,-145.83C201.23,-137.45 210.07,-127.35 218.1,-118.17"/>
<polygon fill="black" stroke="black" points="220.94,-120.24 224.89,-110.41 215.67,-115.63 220.94,-120.24"/>
</g>
<!-- 27 -->
<g id="node28" class="node">
<title>27</title>
<polygon fill="none" stroke="black" points="237,-36 127,-36 127,0 237,0 237,-36"/>
<text text-anchor="middle" x="182" y="-14.3" font-family="Helvetica,sans-Serif" font-size="14.00">class = Canada</text>
</g>
<!-- 26&#45;&gt;27 -->
<g id="edge27" class="edge">
<title>26&#45;&gt;27</title>
<path fill="none" stroke="black" d="M225.81,-71.72C218.73,-63.2 210.2,-52.94 202.56,-43.74"/>
<polygon fill="black" stroke="black" points="205.21,-41.46 196.13,-36 199.83,-45.93 205.21,-41.46"/>
</g>
<!-- 28 -->
<g id="node29" class="node">
<title>28</title>
<polygon fill="none" stroke="black" points="346.5,-36 255.5,-36 255.5,0 346.5,0 346.5,-36"/>
<text text-anchor="middle" x="301" y="-14.3" font-family="Helvetica,sans-Serif" font-size="14.00">class = USA</text>
</g>
<!-- 26&#45;&gt;28 -->
<g id="edge28" class="edge">
<title>26&#45;&gt;28</title>
<path fill="none" stroke="black" d="M256.45,-71.72C263.65,-63.2 272.32,-52.94 280.09,-43.74"/>
<polygon fill="black" stroke="black" points="282.85,-45.9 286.63,-36 277.5,-41.38 282.85,-45.9"/>
</g>
<!-- 31 -->
<g id="node32" class="node">
<title>31</title>
<polygon fill="none" stroke="black" points="479.5,-257 388.5,-257 388.5,-221 479.5,-221 479.5,-257"/>
<text text-anchor="middle" x="434" y="-235.3" font-family="Helvetica,sans-Serif" font-size="14.00">class = USA</text>
</g>
<!-- 30&#45;&gt;31 -->
<g id="edge31" class="edge">
<title>30&#45;&gt;31</title>
<path fill="none" stroke="black" d="M458.67,-293.83C454.91,-285.63 450.4,-275.78 446.27,-266.76"/>
<polygon fill="black" stroke="black" points="449.33,-265.05 441.98,-257.42 442.97,-267.97 449.33,-265.05"/>
</g>
<!-- 32 -->
<g id="node33" class="node">
<title>32</title>
<polygon fill="none" stroke="black" points="638.5,-258 497.5,-258 497.5,-220 638.5,-220 638.5,-258"/>
<text text-anchor="middle" x="568" y="-242.8" font-family="Helvetica,sans-Serif" font-size="14.00">longitude &lt;= &#45;75.503</text>
<text text-anchor="middle" x="568" y="-227.8" font-family="Helvetica,sans-Serif" font-size="14.00">class = Canada</text>
</g>
<!-- 30&#45;&gt;32 -->
<g id="edge32" class="edge">
<title>30&#45;&gt;32</title>
<path fill="none" stroke="black" d="M492.49,-293.83C505.17,-284.79 520.66,-273.75 534.31,-264.02"/>
<polygon fill="black" stroke="black" points="536.41,-266.82 542.52,-258.16 532.35,-261.12 536.41,-266.82"/>
</g>
<!-- 33 -->
<g id="node34" class="node">
<title>33</title>
<polygon fill="none" stroke="black" points="504,-183 394,-183 394,-147 504,-147 504,-183"/>
<text text-anchor="middle" x="449" y="-161.3" font-family="Helvetica,sans-Serif" font-size="14.00">class = Canada</text>
</g>
<!-- 32&#45;&gt;33 -->
<g id="edge33" class="edge">
<title>32&#45;&gt;33</title>
<path fill="none" stroke="black" d="M537.97,-219.83C522.29,-210.34 502.94,-198.64 486.31,-188.57"/>
<polygon fill="black" stroke="black" points="487.75,-185.35 477.38,-183.17 484.12,-191.34 487.75,-185.35"/>
</g>
<!-- 34 -->
<g id="node35" class="node">
<title>34</title>
<polygon fill="none" stroke="black" points="613.5,-183 522.5,-183 522.5,-147 613.5,-147 613.5,-183"/>
<text text-anchor="middle" x="568" y="-161.3" font-family="Helvetica,sans-Serif" font-size="14.00">class = USA</text>
</g>
<!-- 32&#45;&gt;34 -->
<g id="edge34" class="edge">
<title>32&#45;&gt;34</title>
<path fill="none" stroke="black" d="M568,-219.83C568,-211.89 568,-202.41 568,-193.63"/>
<polygon fill="black" stroke="black" points="571.5,-193.42 568,-183.42 564.5,-193.42 571.5,-193.42"/>
</g>
<!-- 37 -->
<g id="node38" class="node">
<title>37</title>
<polygon fill="none" stroke="black" points="842.5,-480 701.5,-480 701.5,-442 842.5,-442 842.5,-480"/>
<text text-anchor="middle" x="772" y="-464.8" font-family="Helvetica,sans-Serif" font-size="14.00">longitude &lt;= &#45;67.279</text>
<text text-anchor="middle" x="772" y="-449.8" font-family="Helvetica,sans-Serif" font-size="14.00">class = USA</text>
</g>
<!-- 36&#45;&gt;37 -->
<g id="edge37" class="edge">
<title>36&#45;&gt;37</title>
<path fill="none" stroke="black" d="M772,-515.83C772,-508.13 772,-498.97 772,-490.42"/>
<polygon fill="black" stroke="black" points="775.5,-490.41 772,-480.41 768.5,-490.41 775.5,-490.41"/>
</g>
<!-- 52 -->
<g id="node53" class="node">
<title>52</title>
<polygon fill="none" stroke="black" points="971,-479 861,-479 861,-443 971,-443 971,-479"/>
<text text-anchor="middle" x="916" y="-457.3" font-family="Helvetica,sans-Serif" font-size="14.00">class = Canada</text>
</g>
<!-- 36&#45;&gt;52 -->
<g id="edge52" class="edge">
<title>36&#45;&gt;52</title>
<path fill="none" stroke="black" d="M808.34,-515.83C827.85,-506.08 852.03,-493.99 872.53,-483.74"/>
<polygon fill="black" stroke="black" points="874.28,-486.77 881.66,-479.17 871.15,-480.51 874.28,-486.77"/>
</g>
<!-- 38 -->
<g id="node39" class="node">
<title>38</title>
<polygon fill="none" stroke="black" points="839,-406 705,-406 705,-368 839,-368 839,-406"/>
<text text-anchor="middle" x="772" y="-390.8" font-family="Helvetica,sans-Serif" font-size="14.00">longitude &lt;= &#45;67.93</text>
<text text-anchor="middle" x="772" y="-375.8" font-family="Helvetica,sans-Serif" font-size="14.00">class = Canada</text>
</g>
<!-- 37&#45;&gt;38 -->
<g id="edge38" class="edge">
<title>37&#45;&gt;38</title>
<path fill="none" stroke="black" d="M772,-441.83C772,-434.13 772,-424.97 772,-416.42"/>
<polygon fill="black" stroke="black" points="775.5,-416.41 772,-406.41 768.5,-416.41 775.5,-416.41"/>
</g>
<!-- 51 -->
<g id="node52" class="node">
<title>51</title>
<polygon fill="none" stroke="black" points="948.5,-405 857.5,-405 857.5,-369 948.5,-369 948.5,-405"/>
<text text-anchor="middle" x="903" y="-383.3" font-family="Helvetica,sans-Serif" font-size="14.00">class = USA</text>
</g>
<!-- 37&#45;&gt;51 -->
<g id="edge51" class="edge">
<title>37&#45;&gt;51</title>
<path fill="none" stroke="black" d="M805.06,-441.83C822.64,-432.17 844.41,-420.2 862.95,-410.01"/>
<polygon fill="black" stroke="black" points="864.68,-413.06 871.76,-405.17 861.31,-406.92 864.68,-413.06"/>
</g>
<!-- 39 -->
<g id="node40" class="node">
<title>39</title>
<polygon fill="none" stroke="black" points="842.5,-332 701.5,-332 701.5,-294 842.5,-294 842.5,-332"/>
<text text-anchor="middle" x="772" y="-316.8" font-family="Helvetica,sans-Serif" font-size="14.00">longitude &lt;= &#45;68.325</text>
<text text-anchor="middle" x="772" y="-301.8" font-family="Helvetica,sans-Serif" font-size="14.00">class = USA</text>
</g>
<!-- 38&#45;&gt;39 -->
<g id="edge39" class="edge">
<title>38&#45;&gt;39</title>
<path fill="none" stroke="black" d="M772,-367.83C772,-360.13 772,-350.97 772,-342.42"/>
<polygon fill="black" stroke="black" points="775.5,-342.41 772,-332.41 768.5,-342.41 775.5,-342.41"/>
</g>
<!-- 46 -->
<g id="node47" class="node">
<title>46</title>
<polygon fill="none" stroke="black" points="1037.5,-332 912.5,-332 912.5,-294 1037.5,-294 1037.5,-332"/>
<text text-anchor="middle" x="975" y="-316.8" font-family="Helvetica,sans-Serif" font-size="14.00">latitude &lt;= 45.565</text>
<text text-anchor="middle" x="975" y="-301.8" font-family="Helvetica,sans-Serif" font-size="14.00">class = Canada</text>
</g>
<!-- 38&#45;&gt;46 -->
<g id="edge46" class="edge">
<title>38&#45;&gt;46</title>
<path fill="none" stroke="black" d="M822.96,-367.92C850.71,-358.08 885.23,-345.84 914.36,-335.51"/>
<polygon fill="black" stroke="black" points="915.76,-338.72 924.02,-332.08 913.42,-332.13 915.76,-338.72"/>
</g>
<!-- 40 -->
<g id="node41" class="node">
<title>40</title>
<polygon fill="none" stroke="black" points="783.5,-258 658.5,-258 658.5,-220 783.5,-220 783.5,-258"/>
<text text-anchor="middle" x="721" y="-242.8" font-family="Helvetica,sans-Serif" font-size="14.00">latitude &lt;= 47.256</text>
<text text-anchor="middle" x="721" y="-227.8" font-family="Helvetica,sans-Serif" font-size="14.00">class = Canada</text>
</g>
<!-- 39&#45;&gt;40 -->
<g id="edge40" class="edge">
<title>39&#45;&gt;40</title>
<path fill="none" stroke="black" d="M759.13,-293.83C753.32,-285.62 746.33,-275.76 739.94,-266.73"/>
<polygon fill="black" stroke="black" points="742.68,-264.55 734.04,-258.41 736.97,-268.6 742.68,-264.55"/>
</g>
<!-- 45 -->
<g id="node46" class="node">
<title>45</title>
<polygon fill="none" stroke="black" points="892.5,-257 801.5,-257 801.5,-221 892.5,-221 892.5,-257"/>
<text text-anchor="middle" x="847" y="-235.3" font-family="Helvetica,sans-Serif" font-size="14.00">class = USA</text>
</g>
<!-- 39&#45;&gt;45 -->
<g id="edge45" class="edge">
<title>39&#45;&gt;45</title>
<path fill="none" stroke="black" d="M790.93,-293.83C800.26,-284.87 811.65,-273.93 821.73,-264.26"/>
<polygon fill="black" stroke="black" points="824.32,-266.62 829.11,-257.17 819.48,-261.57 824.32,-266.62"/>
</g>
<!-- 41 -->
<g id="node42" class="node">
<title>41</title>
<polygon fill="none" stroke="black" points="742,-183 632,-183 632,-147 742,-147 742,-183"/>
<text text-anchor="middle" x="687" y="-161.3" font-family="Helvetica,sans-Serif" font-size="14.00">class = Canada</text>
</g>
<!-- 40&#45;&gt;41 -->
<g id="edge41" class="edge">
<title>40&#45;&gt;41</title>
<path fill="none" stroke="black" d="M712.42,-219.83C708.51,-211.55 703.8,-201.57 699.5,-192.47"/>
<polygon fill="black" stroke="black" points="702.66,-190.97 695.23,-183.42 696.33,-193.95 702.66,-190.97"/>
</g>
<!-- 42 -->
<g id="node43" class="node">
<title>42</title>
<polygon fill="none" stroke="black" points="901.5,-184 760.5,-184 760.5,-146 901.5,-146 901.5,-184"/>
<text text-anchor="middle" x="831" y="-168.8" font-family="Helvetica,sans-Serif" font-size="14.00">longitude &lt;= &#45;68.459</text>
<text text-anchor="middle" x="831" y="-153.8" font-family="Helvetica,sans-Serif" font-size="14.00">class = USA</text>
</g>
<!-- 40&#45;&gt;42 -->
<g id="edge42" class="edge">
<title>40&#45;&gt;42</title>
<path fill="none" stroke="black" d="M748.76,-219.83C762.7,-210.71 779.76,-199.54 794.72,-189.74"/>
<polygon fill="black" stroke="black" points="796.8,-192.57 803.25,-184.16 792.97,-186.71 796.8,-192.57"/>
</g>
<!-- 43 -->
<g id="node44" class="node">
<title>43</title>
<polygon fill="none" stroke="black" points="816.5,-109 725.5,-109 725.5,-73 816.5,-73 816.5,-109"/>
<text text-anchor="middle" x="771" y="-87.3" font-family="Helvetica,sans-Serif" font-size="14.00">class = USA</text>
</g>
<!-- 42&#45;&gt;43 -->
<g id="edge43" class="edge">
<title>42&#45;&gt;43</title>
<path fill="none" stroke="black" d="M815.86,-145.83C808.66,-137.2 799.94,-126.73 792.11,-117.33"/>
<polygon fill="black" stroke="black" points="794.61,-114.86 785.51,-109.42 789.23,-119.34 794.61,-114.86"/>
</g>
<!-- 44 -->
<g id="node45" class="node">
<title>44</title>
<polygon fill="none" stroke="black" points="945,-109 835,-109 835,-73 945,-73 945,-109"/>
<text text-anchor="middle" x="890" y="-87.3" font-family="Helvetica,sans-Serif" font-size="14.00">class = Canada</text>
</g>
<!-- 42&#45;&gt;44 -->
<g id="edge44" class="edge">
<title>42&#45;&gt;44</title>
<path fill="none" stroke="black" d="M845.89,-145.83C852.96,-137.2 861.54,-126.73 869.24,-117.33"/>
<polygon fill="black" stroke="black" points="872.1,-119.37 875.73,-109.42 866.68,-114.93 872.1,-119.37"/>
</g>
<!-- 47 -->
<g id="node48" class="node">
<title>47</title>
<polygon fill="none" stroke="black" points="1037.5,-258 912.5,-258 912.5,-220 1037.5,-220 1037.5,-258"/>
<text text-anchor="middle" x="975" y="-242.8" font-family="Helvetica,sans-Serif" font-size="14.00">latitude &lt;= 45.382</text>
<text text-anchor="middle" x="975" y="-227.8" font-family="Helvetica,sans-Serif" font-size="14.00">class = Canada</text>
</g>
<!-- 46&#45;&gt;47 -->
<g id="edge47" class="edge">
<title>46&#45;&gt;47</title>
<path fill="none" stroke="black" d="M975,-293.83C975,-286.13 975,-276.97 975,-268.42"/>
<polygon fill="black" stroke="black" points="978.5,-268.41 975,-258.41 971.5,-268.41 978.5,-268.41"/>
</g>
<!-- 50 -->
<g id="node51" class="node">
<title>50</title>
<polygon fill="none" stroke="black" points="1166,-257 1056,-257 1056,-221 1166,-221 1166,-257"/>
<text text-anchor="middle" x="1111" y="-235.3" font-family="Helvetica,sans-Serif" font-size="14.00">class = Canada</text>
</g>
<!-- 46&#45;&gt;50 -->
<g id="edge50" class="edge">
<title>46&#45;&gt;50</title>
<path fill="none" stroke="black" d="M1009.32,-293.83C1027.66,-284.12 1050.37,-272.1 1069.68,-261.88"/>
<polygon fill="black" stroke="black" points="1071.36,-264.94 1078.57,-257.17 1068.09,-258.76 1071.36,-264.94"/>
</g>
<!-- 48 -->
<g id="node49" class="node">
<title>48</title>
<polygon fill="none" stroke="black" points="1030,-183 920,-183 920,-147 1030,-147 1030,-183"/>
<text text-anchor="middle" x="975" y="-161.3" font-family="Helvetica,sans-Serif" font-size="14.00">class = Canada</text>
</g>
<!-- 47&#45;&gt;48 -->
<g id="edge48" class="edge">
<title>47&#45;&gt;48</title>
<path fill="none" stroke="black" d="M975,-219.83C975,-211.89 975,-202.41 975,-193.63"/>
<polygon fill="black" stroke="black" points="978.5,-193.42 975,-183.42 971.5,-193.42 978.5,-193.42"/>
</g>
<!-- 49 -->
<g id="node50" class="node">
<title>49</title>
<polygon fill="none" stroke="black" points="1139.5,-183 1048.5,-183 1048.5,-147 1139.5,-147 1139.5,-183"/>
<text text-anchor="middle" x="1094" y="-161.3" font-family="Helvetica,sans-Serif" font-size="14.00">class = USA</text>
</g>
<!-- 47&#45;&gt;49 -->
<g id="edge49" class="edge">
<title>47&#45;&gt;49</title>
<path fill="none" stroke="black" d="M1005.03,-219.83C1020.71,-210.34 1040.06,-198.64 1056.69,-188.57"/>
<polygon fill="black" stroke="black" points="1058.88,-191.34 1065.62,-183.17 1055.25,-185.35 1058.88,-191.34"/>
</g>
</g>
</svg>
