<?xml version="1.0" encoding="UTF-8" standalone="no"?>
<!DOCTYPE svg PUBLIC "-//W3C//DTD SVG 1.1//EN"
 "http://www.w3.org/Graphics/SVG/1.1/DTD/svg11.dtd">
<!-- Generated by graphviz version 5.0.1 (0)
 -->
<!-- Title: Tree Pages: 1 -->
<svg width="1170pt" height="932pt"
 viewBox="0.00 0.00 1170.00 932.00" xmlns="http://www.w3.org/2000/svg" xmlns:xlink="http://www.w3.org/1999/xlink">
<g id="graph0" class="graph" transform="scale(1 1) rotate(0) translate(4 928)">
<title>Tree</title>
<polygon fill="white" stroke="none" points="-4,4 -4,-928 1166,-928 1166,4 -4,4"/>
<!-- 0 -->
<g id="node1" class="node">
<title>0</title>
<polygon fill="none" stroke="black" points="360,-924 250,-924 250,-886 360,-886 360,-924"/>
<text text-anchor="middle" x="305" y="-908.8" font-family="Helvetica,sans-Serif" font-size="14.00">latitude &lt;= 42.9</text>
<text text-anchor="middle" x="305" y="-893.8" font-family="Helvetica,sans-Serif" font-size="14.00">class = Canada</text>
</g>
<!-- 1 -->
<g id="node2" class="node">
<title>1</title>
<polygon fill="none" stroke="black" points="296.5,-850 171.5,-850 171.5,-812 296.5,-812 296.5,-850"/>
<text text-anchor="middle" x="234" y="-834.8" font-family="Helvetica,sans-Serif" font-size="14.00">latitude &lt;= 42.096</text>
<text text-anchor="middle" x="234" y="-819.8" font-family="Helvetica,sans-Serif" font-size="14.00">class = USA</text>
</g>
<!-- 0&#45;&gt;1 -->
<g id="edge1" class="edge">
<title>0&#45;&gt;1</title>
<path fill="none" stroke="black" d="M287.08,-885.83C278.66,-877.28 268.46,-866.94 259.26,-857.62"/>
<polygon fill="black" stroke="black" points="261.67,-855.08 252.16,-850.41 256.69,-859.99 261.67,-855.08"/>
<text text-anchor="middle" x="251.98" y="-871.71" font-family="Helvetica,sans-Serif" font-size="14.00">True</text>
</g>
<!-- 6 -->
<g id="node7" class="node">
<title>6</title>
<polygon fill="none" stroke="black" points="439.5,-850 314.5,-850 314.5,-812 439.5,-812 439.5,-850"/>
<text text-anchor="middle" x="377" y="-834.8" font-family="Helvetica,sans-Serif" font-size="14.00">latitude &lt;= 55.958</text>
<text text-anchor="middle" x="377" y="-819.8" font-family="Helvetica,sans-Serif" font-size="14.00">class = Canada</text>
</g>
<!-- 0&#45;&gt;6 -->
<g id="edge6" class="edge">
<title>0&#45;&gt;6</title>
<path fill="none" stroke="black" d="M323.17,-885.83C331.72,-877.28 342.06,-866.94 351.38,-857.62"/>
<polygon fill="black" stroke="black" points="353.99,-859.96 358.59,-850.41 349.04,-855.01 353.99,-859.96"/>
<text text-anchor="middle" x="358.59" y="-871.71" font-family="Helvetica,sans-Serif" font-size="14.00">False</text>
</g>
<!-- 2 -->
<g id="node3" class="node">
<title>2</title>
<polygon fill="none" stroke="black" points="155.5,-775 64.5,-775 64.5,-739 155.5,-739 155.5,-775"/>
<text text-anchor="middle" x="110" y="-753.3" font-family="Helvetica,sans-Serif" font-size="14.00">class = USA</text>
</g>
<!-- 1&#45;&gt;2 -->
<g id="edge2" class="edge">
<title>1&#45;&gt;2</title>
<path fill="none" stroke="black" d="M202.71,-811.83C186.21,-802.25 165.84,-790.42 148.39,-780.29"/>
<polygon fill="black" stroke="black" points="149.98,-777.17 139.57,-775.17 146.46,-783.22 149.98,-777.17"/>
</g>
<!-- 3 -->
<g id="node4" class="node">
<title>3</title>
<polygon fill="none" stroke="black" points="298.5,-776 173.5,-776 173.5,-738 298.5,-738 298.5,-776"/>
<text text-anchor="middle" x="236" y="-760.8" font-family="Helvetica,sans-Serif" font-size="14.00">latitude &lt;= 42.324</text>
<text text-anchor="middle" x="236" y="-745.8" font-family="Helvetica,sans-Serif" font-size="14.00">class = USA</text>
</g>
<!-- 1&#45;&gt;3 -->
<g id="edge3" class="edge">
<title>1&#45;&gt;3</title>
<path fill="none" stroke="black" d="M234.5,-811.83C234.72,-804.13 234.97,-794.97 235.21,-786.42"/>
<polygon fill="black" stroke="black" points="238.71,-786.51 235.49,-776.41 231.71,-786.31 238.71,-786.51"/>
</g>
<!-- 4 -->
<g id="node5" class="node">
<title>4</title>
<polygon fill="none" stroke="black" points="173,-701 63,-701 63,-665 173,-665 173,-701"/>
<text text-anchor="middle" x="118" y="-679.3" font-family="Helvetica,sans-Serif" font-size="14.00">class = Canada</text>
</g>
<!-- 3&#45;&gt;4 -->
<g id="edge4" class="edge">
<title>3&#45;&gt;4</title>
<path fill="none" stroke="black" d="M206.22,-737.83C190.67,-728.34 171.49,-716.64 154.99,-706.57"/>
<polygon fill="black" stroke="black" points="156.5,-703.39 146.14,-701.17 152.86,-709.37 156.5,-703.39"/>
</g>
<!-- 5 -->
<g id="node6" class="node">
<title>5</title>
<polygon fill="none" stroke="black" points="282.5,-701 191.5,-701 191.5,-665 282.5,-665 282.5,-701"/>
<text text-anchor="middle" x="237" y="-679.3" font-family="Helvetica,sans-Serif" font-size="14.00">class = USA</text>
</g>
<!-- 3&#45;&gt;5 -->
<g id="edge5" class="edge">
<title>3&#45;&gt;5</title>
<path fill="none" stroke="black" d="M236.25,-737.83C236.36,-729.89 236.49,-720.41 236.62,-711.63"/>
<polygon fill="black" stroke="black" points="240.12,-711.47 236.76,-701.42 233.12,-711.37 240.12,-711.47"/>
</g>
<!-- 7 -->
<g id="node8" class="node">
<title>7</title>
<polygon fill="none" stroke="black" points="431,-776 321,-776 321,-738 431,-738 431,-776"/>
<text text-anchor="middle" x="376" y="-760.8" font-family="Helvetica,sans-Serif" font-size="14.00">latitude &lt;= 49.0</text>
<text text-anchor="middle" x="376" y="-745.8" font-family="Helvetica,sans-Serif" font-size="14.00">class = Canada</text>
</g>
<!-- 6&#45;&gt;7 -->
<g id="edge7" class="edge">
<title>6&#45;&gt;7</title>
<path fill="none" stroke="black" d="M376.75,-811.83C376.64,-804.13 376.51,-794.97 376.39,-786.42"/>
<polygon fill="black" stroke="black" points="379.89,-786.36 376.26,-776.41 372.9,-786.46 379.89,-786.36"/>
</g>
<!-- 56 -->
<g id="node57" class="node">
<title>56</title>
<polygon fill="none" stroke="black" points="540.5,-775 449.5,-775 449.5,-739 540.5,-739 540.5,-775"/>
<text text-anchor="middle" x="495" y="-753.3" font-family="Helvetica,sans-Serif" font-size="14.00">class = USA</text>
</g>
<!-- 6&#45;&gt;56 -->
<g id="edge56" class="edge">
<title>6&#45;&gt;56</title>
<path fill="none" stroke="black" d="M406.78,-811.83C422.33,-802.34 441.51,-790.64 458.01,-780.57"/>
<polygon fill="black" stroke="black" points="460.14,-783.37 466.86,-775.17 456.5,-777.39 460.14,-783.37"/>
</g>
<!-- 8 -->
<g id="node9" class="node">
<title>8</title>
<polygon fill="none" stroke="black" points="445.5,-702 304.5,-702 304.5,-664 445.5,-664 445.5,-702"/>
<text text-anchor="middle" x="375" y="-686.8" font-family="Helvetica,sans-Serif" font-size="14.00">longitude &lt;= &#45;94.582</text>
<text text-anchor="middle" x="375" y="-671.8" font-family="Helvetica,sans-Serif" font-size="14.00">class = Canada</text>
</g>
<!-- 7&#45;&gt;8 -->
<g id="edge8" class="edge">
<title>7&#45;&gt;8</title>
<path fill="none" stroke="black" d="M375.75,-737.83C375.64,-730.13 375.51,-720.97 375.39,-712.42"/>
<polygon fill="black" stroke="black" points="378.89,-712.36 375.26,-702.41 371.9,-712.46 378.89,-712.36"/>
</g>
<!-- 55 -->
<g id="node56" class="node">
<title>55</title>
<polygon fill="none" stroke="black" points="574,-701 464,-701 464,-665 574,-665 574,-701"/>
<text text-anchor="middle" x="519" y="-679.3" font-family="Helvetica,sans-Serif" font-size="14.00">class = Canada</text>
</g>
<!-- 7&#45;&gt;55 -->
<g id="edge55" class="edge">
<title>7&#45;&gt;55</title>
<path fill="none" stroke="black" d="M412.08,-737.83C431.46,-728.08 455.47,-715.99 475.83,-705.74"/>
<polygon fill="black" stroke="black" points="477.54,-708.79 484.9,-701.17 474.39,-702.54 477.54,-708.79"/>
</g>
<!-- 9 -->
<g id="node10" class="node">
<title>9</title>
<polygon fill="none" stroke="black" points="368.5,-628 219.5,-628 219.5,-590 368.5,-590 368.5,-628"/>
<text text-anchor="middle" x="294" y="-612.8" font-family="Helvetica,sans-Serif" font-size="14.00">longitude &lt;= &#45;123.222</text>
<text text-anchor="middle" x="294" y="-597.8" font-family="Helvetica,sans-Serif" font-size="14.00">class = USA</text>
</g>
<!-- 8&#45;&gt;9 -->
<g id="edge9" class="edge">
<title>8&#45;&gt;9</title>
<path fill="none" stroke="black" d="M354.56,-663.83C344.68,-655.05 332.67,-644.37 321.95,-634.85"/>
<polygon fill="black" stroke="black" points="324.23,-632.19 314.43,-628.16 319.58,-637.42 324.23,-632.19"/>
</g>
<!-- 12 -->
<g id="node13" class="node">
<title>12</title>
<polygon fill="none" stroke="black" points="527.5,-628 386.5,-628 386.5,-590 527.5,-590 527.5,-628"/>
<text text-anchor="middle" x="457" y="-612.8" font-family="Helvetica,sans-Serif" font-size="14.00">longitude &lt;= &#45;69.246</text>
<text text-anchor="middle" x="457" y="-597.8" font-family="Helvetica,sans-Serif" font-size="14.00">class = Canada</text>
</g>
<!-- 8&#45;&gt;12 -->
<g id="edge12" class="edge">
<title>8&#45;&gt;12</title>
<path fill="none" stroke="black" d="M395.69,-663.83C405.69,-655.05 417.86,-644.37 428.7,-634.85"/>
<polygon fill="black" stroke="black" points="431.11,-637.39 436.31,-628.16 426.49,-632.13 431.11,-637.39"/>
</g>
<!-- 10 -->
<g id="node11" class="node">
<title>10</title>
<polygon fill="none" stroke="black" points="240,-553 130,-553 130,-517 240,-517 240,-553"/>
<text text-anchor="middle" x="185" y="-531.3" font-family="Helvetica,sans-Serif" font-size="14.00">class = Canada</text>
</g>
<!-- 9&#45;&gt;10 -->
<g id="edge10" class="edge">
<title>9&#45;&gt;10</title>
<path fill="none" stroke="black" d="M266.49,-589.83C252.26,-580.43 234.74,-568.86 219.59,-558.85"/>
<polygon fill="black" stroke="black" points="221.27,-555.76 211,-553.17 217.41,-561.6 221.27,-555.76"/>
</g>
<!-- 11 -->
<g id="node12" class="node">
<title>11</title>
<polygon fill="none" stroke="black" points="349.5,-553 258.5,-553 258.5,-517 349.5,-517 349.5,-553"/>
<text text-anchor="middle" x="304" y="-531.3" font-family="Helvetica,sans-Serif" font-size="14.00">class = USA</text>
</g>
<!-- 9&#45;&gt;11 -->
<g id="edge11" class="edge">
<title>9&#45;&gt;11</title>
<path fill="none" stroke="black" d="M296.52,-589.83C297.64,-581.81 298.97,-572.2 300.2,-563.34"/>
<polygon fill="black" stroke="black" points="303.67,-563.8 301.58,-553.42 296.74,-562.84 303.67,-563.8"/>
</g>
<!-- 13 -->
<g id="node14" class="node">
<title>13</title>
<polygon fill="none" stroke="black" points="510.5,-554 385.5,-554 385.5,-516 510.5,-516 510.5,-554"/>
<text text-anchor="middle" x="448" y="-538.8" font-family="Helvetica,sans-Serif" font-size="14.00">latitude &lt;= 43.093</text>
<text text-anchor="middle" x="448" y="-523.8" font-family="Helvetica,sans-Serif" font-size="14.00">class = Canada</text>
</g>
<!-- 12&#45;&gt;13 -->
<g id="edge13" class="edge">
<title>12&#45;&gt;13</title>
<path fill="none" stroke="black" d="M454.73,-589.83C453.77,-582.13 452.62,-572.97 451.55,-564.42"/>
<polygon fill="black" stroke="black" points="455.02,-563.9 450.3,-554.41 448.07,-564.77 455.02,-563.9"/>
</g>
<!-- 36 -->
<g id="node37" class="node">
<title>36</title>
<polygon fill="none" stroke="black" points="835.5,-554 694.5,-554 694.5,-516 835.5,-516 835.5,-554"/>
<text text-anchor="middle" x="765" y="-538.8" font-family="Helvetica,sans-Serif" font-size="14.00">longitude &lt;= &#45;66.952</text>
<text text-anchor="middle" x="765" y="-523.8" font-family="Helvetica,sans-Serif" font-size="14.00">class = Canada</text>
</g>
<!-- 12&#45;&gt;36 -->
<g id="edge36" class="edge">
<title>12&#45;&gt;36</title>
<path fill="none" stroke="black" d="M527.66,-591.48C574.43,-580.55 635.88,-566.18 684.54,-554.81"/>
<polygon fill="black" stroke="black" points="685.46,-558.19 694.4,-552.5 683.87,-551.37 685.46,-558.19"/>
</g>
<!-- 14 -->
<g id="node15" class="node">
<title>14</title>
<polygon fill="none" stroke="black" points="244.5,-480 103.5,-480 103.5,-442 244.5,-442 244.5,-480"/>
<text text-anchor="middle" x="174" y="-464.8" font-family="Helvetica,sans-Serif" font-size="14.00">longitude &lt;= &#45;81.845</text>
<text text-anchor="middle" x="174" y="-449.8" font-family="Helvetica,sans-Serif" font-size="14.00">class = Canada</text>
</g>
<!-- 13&#45;&gt;14 -->
<g id="edge14" class="edge">
<title>13&#45;&gt;14</title>
<path fill="none" stroke="black" d="M385.48,-517.57C346.07,-507.21 294.83,-493.75 252.66,-482.67"/>
<polygon fill="black" stroke="black" points="253.54,-479.28 242.98,-480.13 251.76,-486.05 253.54,-479.28"/>
</g>
<!-- 19 -->
<g id="node20" class="node">
<title>19</title>
<polygon fill="none" stroke="black" points="510.5,-480 385.5,-480 385.5,-442 510.5,-442 510.5,-480"/>
<text text-anchor="middle" x="448" y="-464.8" font-family="Helvetica,sans-Serif" font-size="14.00">latitude &lt;= 44.992</text>
<text text-anchor="middle" x="448" y="-449.8" font-family="Helvetica,sans-Serif" font-size="14.00">class = Canada</text>
</g>
<!-- 13&#45;&gt;19 -->
<g id="edge19" class="edge">
<title>13&#45;&gt;19</title>
<path fill="none" stroke="black" d="M448,-515.83C448,-508.13 448,-498.97 448,-490.42"/>
<polygon fill="black" stroke="black" points="451.5,-490.41 448,-480.41 444.5,-490.41 451.5,-490.41"/>
</g>
<!-- 15 -->
<g id="node16" class="node">
<title>15</title>
<polygon fill="none" stroke="black" points="93.5,-405 2.5,-405 2.5,-369 93.5,-369 93.5,-405"/>
<text text-anchor="middle" x="48" y="-383.3" font-family="Helvetica,sans-Serif" font-size="14.00">class = USA</text>
</g>
<!-- 14&#45;&gt;15 -->
<g id="edge15" class="edge">
<title>14&#45;&gt;15</title>
<path fill="none" stroke="black" d="M142.2,-441.83C125.44,-432.25 104.74,-420.42 87.01,-410.29"/>
<polygon fill="black" stroke="black" points="88.47,-407.09 78.05,-405.17 85,-413.17 88.47,-407.09"/>
</g>
<!-- 16 -->
<g id="node17" class="node">
<title>16</title>
<polygon fill="none" stroke="black" points="236.5,-406 111.5,-406 111.5,-368 236.5,-368 236.5,-406"/>
<text text-anchor="middle" x="174" y="-390.8" font-family="Helvetica,sans-Serif" font-size="14.00">latitude &lt;= 43.039</text>
<text text-anchor="middle" x="174" y="-375.8" font-family="Helvetica,sans-Serif" font-size="14.00">class = Canada</text>
</g>
<!-- 14&#45;&gt;16 -->
<g id="edge16" class="edge">
<title>14&#45;&gt;16</title>
<path fill="none" stroke="black" d="M174,-441.83C174,-434.13 174,-424.97 174,-416.42"/>
<polygon fill="black" stroke="black" points="177.5,-416.41 174,-406.41 170.5,-416.41 177.5,-416.41"/>
</g>
<!-- 17 -->
<g id="node18" class="node">
<title>17</title>
<polygon fill="none" stroke="black" points="110,-331 0,-331 0,-295 110,-295 110,-331"/>
<text text-anchor="middle" x="55" y="-309.3" font-family="Helvetica,sans-Serif" font-size="14.00">class = Canada</text>
</g>
<!-- 16&#45;&gt;17 -->
<g id="edge17" class="edge">
<title>16&#45;&gt;17</title>
<path fill="none" stroke="black" d="M143.97,-367.83C128.29,-358.34 108.94,-346.64 92.31,-336.57"/>
<polygon fill="black" stroke="black" points="93.75,-333.35 83.38,-331.17 90.12,-339.34 93.75,-333.35"/>
</g>
<!-- 18 -->
<g id="node19" class="node">
<title>18</title>
<polygon fill="none" stroke="black" points="219.5,-331 128.5,-331 128.5,-295 219.5,-295 219.5,-331"/>
<text text-anchor="middle" x="174" y="-309.3" font-family="Helvetica,sans-Serif" font-size="14.00">class = USA</text>
</g>
<!-- 16&#45;&gt;18 -->
<g id="edge18" class="edge">
<title>16&#45;&gt;18</title>
<path fill="none" stroke="black" d="M174,-367.83C174,-359.89 174,-350.41 174,-341.63"/>
<polygon fill="black" stroke="black" points="177.5,-341.42 174,-331.42 170.5,-341.42 177.5,-341.42"/>
</g>
<!-- 20 -->
<g id="node21" class="node">
<title>20</title>
<polygon fill="none" stroke="black" points="438.5,-406 313.5,-406 313.5,-368 438.5,-368 438.5,-406"/>
<text text-anchor="middle" x="376" y="-390.8" font-family="Helvetica,sans-Serif" font-size="14.00">latitude &lt;= 44.542</text>
<text text-anchor="middle" x="376" y="-375.8" font-family="Helvetica,sans-Serif" font-size="14.00">class = Canada</text>
</g>
<!-- 19&#45;&gt;20 -->
<g id="edge20" class="edge">
<title>19&#45;&gt;20</title>
<path fill="none" stroke="black" d="M429.83,-441.83C421.28,-433.28 410.94,-422.94 401.62,-413.62"/>
<polygon fill="black" stroke="black" points="403.96,-411.01 394.41,-406.41 399.01,-415.96 403.96,-411.01"/>
</g>
<!-- 35 -->
<g id="node36" class="node">
<title>35</title>
<polygon fill="none" stroke="black" points="567,-405 457,-405 457,-369 567,-369 567,-405"/>
<text text-anchor="middle" x="512" y="-383.3" font-family="Helvetica,sans-Serif" font-size="14.00">class = Canada</text>
</g>
<!-- 19&#45;&gt;35 -->
<g id="edge35" class="edge">
<title>19&#45;&gt;35</title>
<path fill="none" stroke="black" d="M464.15,-441.83C471.9,-433.11 481.32,-422.52 489.74,-413.05"/>
<polygon fill="black" stroke="black" points="492.49,-415.22 496.52,-405.42 487.26,-410.57 492.49,-415.22"/>
</g>
<!-- 21 -->
<g id="node22" class="node">
<title>21</title>
<polygon fill="none" stroke="black" points="378.5,-332 237.5,-332 237.5,-294 378.5,-294 378.5,-332"/>
<text text-anchor="middle" x="308" y="-316.8" font-family="Helvetica,sans-Serif" font-size="14.00">longitude &lt;= &#45;79.076</text>
<text text-anchor="middle" x="308" y="-301.8" font-family="Helvetica,sans-Serif" font-size="14.00">class = Canada</text>
</g>
<!-- 20&#45;&gt;21 -->
<g id="edge21" class="edge">
<title>20&#45;&gt;21</title>
<path fill="none" stroke="black" d="M358.84,-367.83C350.85,-359.37 341.2,-349.15 332.46,-339.9"/>
<polygon fill="black" stroke="black" points="334.8,-337.28 325.39,-332.41 329.71,-342.09 334.8,-337.28"/>
</g>
<!-- 30 -->
<g id="node31" class="node">
<title>30</title>
<polygon fill="none" stroke="black" points="537.5,-332 396.5,-332 396.5,-294 537.5,-294 537.5,-332"/>
<text text-anchor="middle" x="467" y="-316.8" font-family="Helvetica,sans-Serif" font-size="14.00">longitude &lt;= &#45;84.392</text>
<text text-anchor="middle" x="467" y="-301.8" font-family="Helvetica,sans-Serif" font-size="14.00">class = USA</text>
</g>
<!-- 20&#45;&gt;30 -->
<g id="edge30" class="edge">
<title>20&#45;&gt;30</title>
<path fill="none" stroke="black" d="M398.96,-367.83C410.17,-358.96 423.82,-348.16 435.94,-338.57"/>
<polygon fill="black" stroke="black" points="438.37,-341.11 444.04,-332.16 434.03,-335.62 438.37,-341.11"/>
</g>
<!-- 22 -->
<g id="node23" class="node">
<title>22</title>
<polygon fill="none" stroke="black" points="227,-257 117,-257 117,-221 227,-221 227,-257"/>
<text text-anchor="middle" x="172" y="-235.3" font-family="Helvetica,sans-Serif" font-size="14.00">class = Canada</text>
</g>
<!-- 21&#45;&gt;22 -->
<g id="edge22" class="edge">
<title>21&#45;&gt;22</title>
<path fill="none" stroke="black" d="M273.68,-293.83C255.34,-284.12 232.63,-272.1 213.32,-261.88"/>
<polygon fill="black" stroke="black" points="214.91,-258.76 204.43,-257.17 211.64,-264.94 214.91,-258.76"/>
</g>
<!-- 23 -->
<g id="node24" class="node">
<title>23</title>
<polygon fill="none" stroke="black" points="370.5,-258 245.5,-258 245.5,-220 370.5,-220 370.5,-258"/>
<text text-anchor="middle" x="308" y="-242.8" font-family="Helvetica,sans-Serif" font-size="14.00">latitude &lt;= 44.168</text>
<text text-anchor="middle" x="308" y="-227.8" font-family="Helvetica,sans-Serif" font-size="14.00">class = Canada</text>
</g>
<!-- 21&#45;&gt;23 -->
<g id="edge23" class="edge">
<title>21&#45;&gt;23</title>
<path fill="none" stroke="black" d="M308,-293.83C308,-286.13 308,-276.97 308,-268.42"/>
<polygon fill="black" stroke="black" points="311.5,-268.41 308,-258.41 304.5,-268.41 311.5,-268.41"/>
</g>
<!-- 24 -->
<g id="node25" class="node">
<title>24</title>
<polygon fill="none" stroke="black" points="242,-184 108,-184 108,-146 242,-146 242,-184"/>
<text text-anchor="middle" x="175" y="-168.8" font-family="Helvetica,sans-Serif" font-size="14.00">longitude &lt;= &#45;79.03</text>
<text text-anchor="middle" x="175" y="-153.8" font-family="Helvetica,sans-Serif" font-size="14.00">class = USA</text>
</g>
<!-- 23&#45;&gt;24 -->
<g id="edge24" class="edge">
<title>23&#45;&gt;24</title>
<path fill="none" stroke="black" d="M274.44,-219.83C257.11,-210.45 235.79,-198.91 217.35,-188.92"/>
<polygon fill="black" stroke="black" points="219.01,-185.85 208.55,-184.16 215.68,-192 219.01,-185.85"/>
</g>
<!-- 29 -->
<g id="node30" class="node">
<title>29</title>
<polygon fill="none" stroke="black" points="370,-183 260,-183 260,-147 370,-147 370,-183"/>
<text text-anchor="middle" x="315" y="-161.3" font-family="Helvetica,sans-Serif" font-size="14.00">class = Canada</text>
</g>
<!-- 23&#45;&gt;29 -->
<g id="edge29" class="edge">
<title>23&#45;&gt;29</title>
<path fill="none" stroke="black" d="M309.77,-219.83C310.54,-211.89 311.46,-202.41 312.31,-193.63"/>
<polygon fill="black" stroke="black" points="315.82,-193.71 313.31,-183.42 308.86,-193.03 315.82,-193.71"/>
</g>
<!-- 25 -->
<g id="node26" class="node">
<title>25</title>
<polygon fill="none" stroke="black" points="153.5,-109 62.5,-109 62.5,-73 153.5,-73 153.5,-109"/>
<text text-anchor="middle" x="108" y="-87.3" font-family="Helvetica,sans-Serif" font-size="14.00">class = USA</text>
</g>
<!-- 24&#45;&gt;25 -->
<g id="edge25" class="edge">
<title>24&#45;&gt;25</title>
<path fill="none" stroke="black" d="M158.09,-145.83C149.9,-137.02 139.92,-126.31 131.04,-116.76"/>
<polygon fill="black" stroke="black" points="133.58,-114.35 124.21,-109.42 128.46,-119.12 133.58,-114.35"/>
</g>
<!-- 26 -->
<g id="node27" class="node">
<title>26</title>
<polygon fill="none" stroke="black" points="312.5,-110 171.5,-110 171.5,-72 312.5,-72 312.5,-110"/>
<text text-anchor="middle" x="242" y="-94.8" font-family="Helvetica,sans-Serif" font-size="14.00">longitude &lt;= &#45;77.678</text>
<text text-anchor="middle" x="242" y="-79.8" font-family="Helvetica,sans-Serif" font-size="14.00">class = Canada</text>
</g>
<!-- 24&#45;&gt;26 -->
<g id="edge26" class="edge">
<title>24&#45;&gt;26</title>
<path fill="none" stroke="black" d="M191.91,-145.83C199.78,-137.37 209.29,-127.15 217.9,-117.9"/>
<polygon fill="black" stroke="black" points="220.62,-120.12 224.87,-110.41 215.49,-115.35 220.62,-120.12"/>
</g>
<!-- 27 -->
<g id="node28" class="node">
<title>27</title>
<polygon fill="none" stroke="black" points="237,-36 127,-36 127,0 237,0 237,-36"/>
<text text-anchor="middle" x="182" y="-14.3" font-family="Helvetica,sans-Serif" font-size="14.00">class = Canada</text>
</g>
<!-- 26&#45;&gt;27 -->
<g id="edge27" class="edge">
<title>26&#45;&gt;27</title>
<path fill="none" stroke="black" d="M226.55,-71.72C219.35,-63.2 210.68,-52.94 202.91,-43.74"/>
<polygon fill="black" stroke="black" points="205.5,-41.38 196.37,-36 200.15,-45.9 205.5,-41.38"/>
</g>
<!-- 28 -->
<g id="node29" class="node">
<title>28</title>
<polygon fill="none" stroke="black" points="346.5,-36 255.5,-36 255.5,0 346.5,0 346.5,-36"/>
<text text-anchor="middle" x="301" y="-14.3" font-family="Helvetica,sans-Serif" font-size="14.00">class = USA</text>
</g>
<!-- 26&#45;&gt;28 -->
<g id="edge28" class="edge">
<title>26&#45;&gt;28</title>
<path fill="none" stroke="black" d="M257.19,-71.72C264.27,-63.2 272.8,-52.94 280.44,-43.74"/>
<polygon fill="black" stroke="black" points="283.17,-45.93 286.87,-36 277.79,-41.46 283.17,-45.93"/>
</g>
<!-- 31 -->
<g id="node32" class="node">
<title>31</title>
<polygon fill="none" stroke="black" points="479.5,-257 388.5,-257 388.5,-221 479.5,-221 479.5,-257"/>
<text text-anchor="middle" x="434" y="-235.3" font-family="Helvetica,sans-Serif" font-size="14.00">class = USA</text>
</g>
<!-- 30&#45;&gt;31 -->
<g id="edge31" class="edge">
<title>30&#45;&gt;31</title>
<path fill="none" stroke="black" d="M458.67,-293.83C454.91,-285.63 450.4,-275.78 446.27,-266.76"/>
<polygon fill="black" stroke="black" points="449.33,-265.05 441.98,-257.42 442.97,-267.97 449.33,-265.05"/>
</g>
<!-- 32 -->
<g id="node33" class="node">
<title>32</title>
<polygon fill="none" stroke="black" points="622.5,-258 497.5,-258 497.5,-220 622.5,-220 622.5,-258"/>
<text text-anchor="middle" x="560" y="-242.8" font-family="Helvetica,sans-Serif" font-size="14.00">latitude &lt;= 44.706</text>
<text text-anchor="middle" x="560" y="-227.8" font-family="Helvetica,sans-Serif" font-size="14.00">class = Canada</text>
</g>
<!-- 30&#45;&gt;32 -->
<g id="edge32" class="edge">
<title>30&#45;&gt;32</title>
<path fill="none" stroke="black" d="M490.47,-293.83C502.03,-284.88 516.14,-273.96 528.62,-264.3"/>
<polygon fill="black" stroke="black" points="530.78,-267.05 536.54,-258.16 526.49,-261.52 530.78,-267.05"/>
</g>
<!-- 33 -->
<g id="node34" class="node">
<title>33</title>
<polygon fill="none" stroke="black" points="490.5,-183 399.5,-183 399.5,-147 490.5,-147 490.5,-183"/>
<text text-anchor="middle" x="445" y="-161.3" font-family="Helvetica,sans-Serif" font-size="14.00">class = USA</text>
</g>
<!-- 32&#45;&gt;33 -->
<g id="edge33" class="edge">
<title>32&#45;&gt;33</title>
<path fill="none" stroke="black" d="M530.98,-219.83C515.82,-210.34 497.13,-198.64 481.05,-188.57"/>
<polygon fill="black" stroke="black" points="482.76,-185.51 472.43,-183.17 479.05,-191.44 482.76,-185.51"/>
</g>
<!-- 34 -->
<g id="node35" class="node">
<title>34</title>
<polygon fill="none" stroke="black" points="619,-183 509,-183 509,-147 619,-147 619,-183"/>
<text text-anchor="middle" x="564" y="-161.3" font-family="Helvetica,sans-Serif" font-size="14.00">class = Canada</text>
</g>
<!-- 32&#45;&gt;34 -->
<g id="edge34" class="edge">
<title>32&#45;&gt;34</title>
<path fill="none" stroke="black" d="M561.01,-219.83C561.45,-211.89 561.98,-202.41 562.47,-193.63"/>
<polygon fill="black" stroke="black" points="565.97,-193.6 563.03,-183.42 558.98,-193.21 565.97,-193.6"/>
</g>
<!-- 37 -->
<g id="node38" class="node">
<title>37</title>
<polygon fill="none" stroke="black" points="835.5,-480 694.5,-480 694.5,-442 835.5,-442 835.5,-480"/>
<text text-anchor="middle" x="765" y="-464.8" font-family="Helvetica,sans-Serif" font-size="14.00">longitude &lt;= &#45;67.279</text>
<text text-anchor="middle" x="765" y="-449.8" font-family="Helvetica,sans-Serif" font-size="14.00">class = USA</text>
</g>
<!-- 36&#45;&gt;37 -->
<g id="edge37" class="edge">
<title>36&#45;&gt;37</title>
<path fill="none" stroke="black" d="M765,-515.83C765,-508.13 765,-498.97 765,-490.42"/>
<polygon fill="black" stroke="black" points="768.5,-490.41 765,-480.41 761.5,-490.41 768.5,-490.41"/>
</g>
<!-- 54 -->
<g id="node55" class="node">
<title>54</title>
<polygon fill="none" stroke="black" points="964,-479 854,-479 854,-443 964,-443 964,-479"/>
<text text-anchor="middle" x="909" y="-457.3" font-family="Helvetica,sans-Serif" font-size="14.00">class = Canada</text>
</g>
<!-- 36&#45;&gt;54 -->
<g id="edge54" class="edge">
<title>36&#45;&gt;54</title>
<path fill="none" stroke="black" d="M801.34,-515.83C820.85,-506.08 845.03,-493.99 865.53,-483.74"/>
<polygon fill="black" stroke="black" points="867.28,-486.77 874.66,-479.17 864.15,-480.51 867.28,-486.77"/>
</g>
<!-- 38 -->
<g id="node39" class="node">
<title>38</title>
<polygon fill="none" stroke="black" points="832,-406 698,-406 698,-368 832,-368 832,-406"/>
<text text-anchor="middle" x="765" y="-390.8" font-family="Helvetica,sans-Serif" font-size="14.00">longitude &lt;= &#45;67.93</text>
<text text-anchor="middle" x="765" y="-375.8" font-family="Helvetica,sans-Serif" font-size="14.00">class = Canada</text>
</g>
<!-- 37&#45;&gt;38 -->
<g id="edge38" class="edge">
<title>37&#45;&gt;38</title>
<path fill="none" stroke="black" d="M765,-441.83C765,-434.13 765,-424.97 765,-416.42"/>
<polygon fill="black" stroke="black" points="768.5,-416.41 765,-406.41 761.5,-416.41 768.5,-416.41"/>
</g>
<!-- 53 -->
<g id="node54" class="node">
<title>53</title>
<polygon fill="none" stroke="black" points="941.5,-405 850.5,-405 850.5,-369 941.5,-369 941.5,-405"/>
<text text-anchor="middle" x="896" y="-383.3" font-family="Helvetica,sans-Serif" font-size="14.00">class = USA</text>
</g>
<!-- 37&#45;&gt;53 -->
<g id="edge53" class="edge">
<title>37&#45;&gt;53</title>
<path fill="none" stroke="black" d="M798.06,-441.83C815.64,-432.17 837.41,-420.2 855.95,-410.01"/>
<polygon fill="black" stroke="black" points="857.68,-413.06 864.76,-405.17 854.31,-406.92 857.68,-413.06"/>
</g>
<!-- 39 -->
<g id="node40" class="node">
<title>39</title>
<polygon fill="none" stroke="black" points="835.5,-332 694.5,-332 694.5,-294 835.5,-294 835.5,-332"/>
<text text-anchor="middle" x="765" y="-316.8" font-family="Helvetica,sans-Serif" font-size="14.00">longitude &lt;= &#45;68.325</text>
<text text-anchor="middle" x="765" y="-301.8" font-family="Helvetica,sans-Serif" font-size="14.00">class = USA</text>
</g>
<!-- 38&#45;&gt;39 -->
<g id="edge39" class="edge">
<title>38&#45;&gt;39</title>
<path fill="none" stroke="black" d="M765,-367.83C765,-360.13 765,-350.97 765,-342.42"/>
<polygon fill="black" stroke="black" points="768.5,-342.41 765,-332.41 761.5,-342.41 768.5,-342.41"/>
</g>
<!-- 48 -->
<g id="node49" class="node">
<title>48</title>
<polygon fill="none" stroke="black" points="1033.5,-332 908.5,-332 908.5,-294 1033.5,-294 1033.5,-332"/>
<text text-anchor="middle" x="971" y="-316.8" font-family="Helvetica,sans-Serif" font-size="14.00">latitude &lt;= 45.565</text>
<text text-anchor="middle" x="971" y="-301.8" font-family="Helvetica,sans-Serif" font-size="14.00">class = Canada</text>
</g>
<!-- 38&#45;&gt;48 -->
<g id="edge48" class="edge">
<title>38&#45;&gt;48</title>
<path fill="none" stroke="black" d="M816.72,-367.92C844.88,-358.08 879.91,-345.84 909.47,-335.51"/>
<polygon fill="black" stroke="black" points="910.98,-338.69 919.26,-332.08 908.67,-332.08 910.98,-338.69"/>
</g>
<!-- 40 -->
<g id="node41" class="node">
<title>40</title>
<polygon fill="none" stroke="black" points="781.5,-258 640.5,-258 640.5,-220 781.5,-220 781.5,-258"/>
<text text-anchor="middle" x="711" y="-242.8" font-family="Helvetica,sans-Serif" font-size="14.00">longitude &lt;= &#45;68.915</text>
<text text-anchor="middle" x="711" y="-227.8" font-family="Helvetica,sans-Serif" font-size="14.00">class = Canada</text>
</g>
<!-- 39&#45;&gt;40 -->
<g id="edge40" class="edge">
<title>39&#45;&gt;40</title>
<path fill="none" stroke="black" d="M751.37,-293.83C745.15,-285.54 737.67,-275.56 730.84,-266.45"/>
<polygon fill="black" stroke="black" points="733.61,-264.31 724.81,-258.41 728.01,-268.51 733.61,-264.31"/>
</g>
<!-- 47 -->
<g id="node48" class="node">
<title>47</title>
<polygon fill="none" stroke="black" points="890.5,-257 799.5,-257 799.5,-221 890.5,-221 890.5,-257"/>
<text text-anchor="middle" x="845" y="-235.3" font-family="Helvetica,sans-Serif" font-size="14.00">class = USA</text>
</g>
<!-- 39&#45;&gt;47 -->
<g id="edge47" class="edge">
<title>39&#45;&gt;47</title>
<path fill="none" stroke="black" d="M785.19,-293.83C795.24,-284.78 807.54,-273.72 818.36,-263.98"/>
<polygon fill="black" stroke="black" points="820.83,-266.46 825.92,-257.17 816.15,-261.26 820.83,-266.46"/>
</g>
<!-- 41 -->
<g id="node42" class="node">
<title>41</title>
<polygon fill="none" stroke="black" points="743.5,-183 652.5,-183 652.5,-147 743.5,-147 743.5,-183"/>
<text text-anchor="middle" x="698" y="-161.3" font-family="Helvetica,sans-Serif" font-size="14.00">class = USA</text>
</g>
<!-- 40&#45;&gt;41 -->
<g id="edge41" class="edge">
<title>40&#45;&gt;41</title>
<path fill="none" stroke="black" d="M707.72,-219.83C706.27,-211.81 704.54,-202.2 702.94,-193.34"/>
<polygon fill="black" stroke="black" points="706.37,-192.64 701.14,-183.42 699.48,-193.88 706.37,-192.64"/>
</g>
<!-- 42 -->
<g id="node43" class="node">
<title>42</title>
<polygon fill="none" stroke="black" points="886.5,-184 761.5,-184 761.5,-146 886.5,-146 886.5,-184"/>
<text text-anchor="middle" x="824" y="-168.8" font-family="Helvetica,sans-Serif" font-size="14.00">latitude &lt;= 47.256</text>
<text text-anchor="middle" x="824" y="-153.8" font-family="Helvetica,sans-Serif" font-size="14.00">class = Canada</text>
</g>
<!-- 40&#45;&gt;42 -->
<g id="edge42" class="edge">
<title>40&#45;&gt;42</title>
<path fill="none" stroke="black" d="M739.51,-219.83C753.83,-210.71 771.36,-199.54 786.73,-189.74"/>
<polygon fill="black" stroke="black" points="788.94,-192.49 795.49,-184.16 785.18,-186.58 788.94,-192.49"/>
</g>
<!-- 43 -->
<g id="node44" class="node">
<title>43</title>
<polygon fill="none" stroke="black" points="811,-109 701,-109 701,-73 811,-73 811,-109"/>
<text text-anchor="middle" x="756" y="-87.3" font-family="Helvetica,sans-Serif" font-size="14.00">class = Canada</text>
</g>
<!-- 42&#45;&gt;43 -->
<g id="edge43" class="edge">
<title>42&#45;&gt;43</title>
<path fill="none" stroke="black" d="M806.84,-145.83C798.52,-137.02 788.4,-126.31 779.39,-116.76"/>
<polygon fill="black" stroke="black" points="781.86,-114.28 772.45,-109.42 776.77,-119.09 781.86,-114.28"/>
</g>
<!-- 44 -->
<g id="node45" class="node">
<title>44</title>
<polygon fill="none" stroke="black" points="954.5,-110 829.5,-110 829.5,-72 954.5,-72 954.5,-110"/>
<text text-anchor="middle" x="892" y="-94.8" font-family="Helvetica,sans-Serif" font-size="14.00">latitude &lt;= 47.312</text>
<text text-anchor="middle" x="892" y="-79.8" font-family="Helvetica,sans-Serif" font-size="14.00">class = Canada</text>
</g>
<!-- 42&#45;&gt;44 -->
<g id="edge44" class="edge">
<title>42&#45;&gt;44</title>
<path fill="none" stroke="black" d="M841.16,-145.83C849.15,-137.37 858.8,-127.15 867.54,-117.9"/>
<polygon fill="black" stroke="black" points="870.29,-120.09 874.61,-110.41 865.2,-115.28 870.29,-120.09"/>
</g>
<!-- 45 -->
<g id="node46" class="node">
<title>45</title>
<polygon fill="none" stroke="black" points="877.5,-36 786.5,-36 786.5,0 877.5,0 877.5,-36"/>
<text text-anchor="middle" x="832" y="-14.3" font-family="Helvetica,sans-Serif" font-size="14.00">class = USA</text>
</g>
<!-- 44&#45;&gt;45 -->
<g id="edge45" class="edge">
<title>44&#45;&gt;45</title>
<path fill="none" stroke="black" d="M876.55,-71.72C869.35,-63.2 860.68,-52.94 852.91,-43.74"/>
<polygon fill="black" stroke="black" points="855.5,-41.38 846.37,-36 850.15,-45.9 855.5,-41.38"/>
</g>
<!-- 46 -->
<g id="node47" class="node">
<title>46</title>
<polygon fill="none" stroke="black" points="1006,-36 896,-36 896,0 1006,0 1006,-36"/>
<text text-anchor="middle" x="951" y="-14.3" font-family="Helvetica,sans-Serif" font-size="14.00">class = Canada</text>
</g>
<!-- 44&#45;&gt;46 -->
<g id="edge46" class="edge">
<title>44&#45;&gt;46</title>
<path fill="none" stroke="black" d="M907.19,-71.72C914.27,-63.2 922.8,-52.94 930.44,-43.74"/>
<polygon fill="black" stroke="black" points="933.17,-45.93 936.87,-36 927.79,-41.46 933.17,-45.93"/>
</g>
<!-- 49 -->
<g id="node50" class="node">
<title>49</title>
<polygon fill="none" stroke="black" points="1033.5,-258 908.5,-258 908.5,-220 1033.5,-220 1033.5,-258"/>
<text text-anchor="middle" x="971" y="-242.8" font-family="Helvetica,sans-Serif" font-size="14.00">latitude &lt;= 45.382</text>
<text text-anchor="middle" x="971" y="-227.8" font-family="Helvetica,sans-Serif" font-size="14.00">class = Canada</text>
</g>
<!-- 48&#45;&gt;49 -->
<g id="edge49" class="edge">
<title>48&#45;&gt;49</title>
<path fill="none" stroke="black" d="M971,-293.83C971,-286.13 971,-276.97 971,-268.42"/>
<polygon fill="black" stroke="black" points="974.5,-268.41 971,-258.41 967.5,-268.41 974.5,-268.41"/>
</g>
<!-- 52 -->
<g id="node53" class="node">
<title>52</title>
<polygon fill="none" stroke="black" points="1162,-257 1052,-257 1052,-221 1162,-221 1162,-257"/>
<text text-anchor="middle" x="1107" y="-235.3" font-family="Helvetica,sans-Serif" font-size="14.00">class = Canada</text>
</g>
<!-- 48&#45;&gt;52 -->
<g id="edge52" class="edge">
<title>48&#45;&gt;52</title>
<path fill="none" stroke="black" d="M1005.32,-293.83C1023.66,-284.12 1046.37,-272.1 1065.68,-261.88"/>
<polygon fill="black" stroke="black" points="1067.36,-264.94 1074.57,-257.17 1064.09,-258.76 1067.36,-264.94"/>
</g>
<!-- 50 -->
<g id="node51" class="node">
<title>50</title>
<polygon fill="none" stroke="black" points="1022,-183 912,-183 912,-147 1022,-147 1022,-183"/>
<text text-anchor="middle" x="967" y="-161.3" font-family="Helvetica,sans-Serif" font-size="14.00">class = Canada</text>
</g>
<!-- 49&#45;&gt;50 -->
<g id="edge50" class="edge">
<title>49&#45;&gt;50</title>
<path fill="none" stroke="black" d="M969.99,-219.83C969.55,-211.89 969.02,-202.41 968.53,-193.63"/>
<polygon fill="black" stroke="black" points="972.02,-193.21 967.97,-183.42 965.03,-193.6 972.02,-193.21"/>
</g>
<!-- 51 -->
<g id="node52" class="node">
<title>51</title>
<polygon fill="none" stroke="black" points="1131.5,-183 1040.5,-183 1040.5,-147 1131.5,-147 1131.5,-183"/>
<text text-anchor="middle" x="1086" y="-161.3" font-family="Helvetica,sans-Serif" font-size="14.00">class = USA</text>
</g>
<!-- 49&#45;&gt;51 -->
<g id="edge51" class="edge">
<title>49&#45;&gt;51</title>
<path fill="none" stroke="black" d="M1000.02,-219.83C1015.18,-210.34 1033.87,-198.64 1049.95,-188.57"/>
<polygon fill="black" stroke="black" points="1051.95,-191.44 1058.57,-183.17 1048.24,-185.51 1051.95,-191.44"/>
</g>
</g>
</svg>
