<?xml version="1.0" encoding="UTF-8" standalone="no"?>
<!DOCTYPE svg PUBLIC "-//W3C//DTD SVG 1.1//EN"
 "http://www.w3.org/Graphics/SVG/1.1/DTD/svg11.dtd">
<!-- Generated by graphviz version 2.48.0 (0)
 -->
<!-- Title: Tree Pages: 1 -->
<svg width="1107pt" height="932pt"
 viewBox="0.00 0.00 1107.00 932.00" xmlns="http://www.w3.org/2000/svg" xmlns:xlink="http://www.w3.org/1999/xlink">
<g id="graph0" class="graph" transform="scale(1 1) rotate(0) translate(4 928)">
<title>Tree</title>
<polygon fill="white" stroke="transparent" points="-4,4 -4,-928 1103,-928 1103,4 -4,4"/>
<!-- 0 -->
<g id="node1" class="node">
<title>0</title>
<polygon fill="none" stroke="black" points="406.5,-924 300.5,-924 300.5,-886 406.5,-886 406.5,-924"/>
<text text-anchor="middle" x="353.5" y="-908.8" font-family="Times,serif" font-size="14.00">latitude &lt;= 42.9</text>
<text text-anchor="middle" x="353.5" y="-893.8" font-family="Times,serif" font-size="14.00">class = Canada</text>
</g>
<!-- 1 -->
<g id="node2" class="node">
<title>1</title>
<polygon fill="none" stroke="black" points="344.5,-850 224.5,-850 224.5,-812 344.5,-812 344.5,-850"/>
<text text-anchor="middle" x="284.5" y="-834.8" font-family="Times,serif" font-size="14.00">latitude &lt;= 42.096</text>
<text text-anchor="middle" x="284.5" y="-819.8" font-family="Times,serif" font-size="14.00">class = USA</text>
</g>
<!-- 0&#45;&gt;1 -->
<g id="edge1" class="edge">
<title>0&#45;&gt;1</title>
<path fill="none" stroke="black" d="M336.09,-885.83C327.98,-877.37 318.18,-867.15 309.32,-857.9"/>
<polygon fill="black" stroke="black" points="311.59,-855.21 302.15,-850.41 306.54,-860.05 311.59,-855.21"/>
<text text-anchor="middle" x="301.61" y="-871.71" font-family="Times,serif" font-size="14.00">True</text>
</g>
<!-- 6 -->
<g id="node7" class="node">
<title>6</title>
<polygon fill="none" stroke="black" points="482.5,-850 362.5,-850 362.5,-812 482.5,-812 482.5,-850"/>
<text text-anchor="middle" x="422.5" y="-834.8" font-family="Times,serif" font-size="14.00">latitude &lt;= 55.958</text>
<text text-anchor="middle" x="422.5" y="-819.8" font-family="Times,serif" font-size="14.00">class = Canada</text>
</g>
<!-- 0&#45;&gt;6 -->
<g id="edge6" class="edge">
<title>0&#45;&gt;6</title>
<path fill="none" stroke="black" d="M370.91,-885.83C379.02,-877.37 388.82,-867.15 397.68,-857.9"/>
<polygon fill="black" stroke="black" points="400.46,-860.05 404.85,-850.41 395.41,-855.21 400.46,-860.05"/>
<text text-anchor="middle" x="405.39" y="-871.71" font-family="Times,serif" font-size="14.00">False</text>
</g>
<!-- 2 -->
<g id="node3" class="node">
<title>2</title>
<polygon fill="none" stroke="black" points="208,-775 121,-775 121,-739 208,-739 208,-775"/>
<text text-anchor="middle" x="164.5" y="-753.3" font-family="Times,serif" font-size="14.00">class = USA</text>
</g>
<!-- 1&#45;&gt;2 -->
<g id="edge2" class="edge">
<title>1&#45;&gt;2</title>
<path fill="none" stroke="black" d="M254.22,-811.83C238.4,-802.34 218.9,-790.64 202.12,-780.57"/>
<polygon fill="black" stroke="black" points="203.49,-777.32 193.12,-775.17 199.89,-783.32 203.49,-777.32"/>
</g>
<!-- 3 -->
<g id="node4" class="node">
<title>3</title>
<polygon fill="none" stroke="black" points="346.5,-776 226.5,-776 226.5,-738 346.5,-738 346.5,-776"/>
<text text-anchor="middle" x="286.5" y="-760.8" font-family="Times,serif" font-size="14.00">latitude &lt;= 42.324</text>
<text text-anchor="middle" x="286.5" y="-745.8" font-family="Times,serif" font-size="14.00">class = USA</text>
</g>
<!-- 1&#45;&gt;3 -->
<g id="edge3" class="edge">
<title>1&#45;&gt;3</title>
<path fill="none" stroke="black" d="M285,-811.83C285.22,-804.13 285.47,-794.97 285.71,-786.42"/>
<polygon fill="black" stroke="black" points="289.21,-786.51 285.99,-776.41 282.21,-786.31 289.21,-786.51"/>
</g>
<!-- 4 -->
<g id="node5" class="node">
<title>4</title>
<polygon fill="none" stroke="black" points="226,-701 125,-701 125,-665 226,-665 226,-701"/>
<text text-anchor="middle" x="175.5" y="-679.3" font-family="Times,serif" font-size="14.00">class = Canada</text>
</g>
<!-- 3&#45;&gt;4 -->
<g id="edge4" class="edge">
<title>3&#45;&gt;4</title>
<path fill="none" stroke="black" d="M258.49,-737.83C243.99,-728.43 226.15,-716.86 210.73,-706.85"/>
<polygon fill="black" stroke="black" points="212.27,-703.68 201.97,-701.17 208.46,-709.55 212.27,-703.68"/>
</g>
<!-- 5 -->
<g id="node6" class="node">
<title>5</title>
<polygon fill="none" stroke="black" points="331,-701 244,-701 244,-665 331,-665 331,-701"/>
<text text-anchor="middle" x="287.5" y="-679.3" font-family="Times,serif" font-size="14.00">class = USA</text>
</g>
<!-- 3&#45;&gt;5 -->
<g id="edge5" class="edge">
<title>3&#45;&gt;5</title>
<path fill="none" stroke="black" d="M286.75,-737.83C286.86,-729.89 286.99,-720.41 287.12,-711.63"/>
<polygon fill="black" stroke="black" points="290.62,-711.47 287.26,-701.42 283.62,-711.37 290.62,-711.47"/>
</g>
<!-- 7 -->
<g id="node8" class="node">
<title>7</title>
<polygon fill="none" stroke="black" points="474.5,-776 368.5,-776 368.5,-738 474.5,-738 474.5,-776"/>
<text text-anchor="middle" x="421.5" y="-760.8" font-family="Times,serif" font-size="14.00">latitude &lt;= 49.0</text>
<text text-anchor="middle" x="421.5" y="-745.8" font-family="Times,serif" font-size="14.00">class = Canada</text>
</g>
<!-- 6&#45;&gt;7 -->
<g id="edge7" class="edge">
<title>6&#45;&gt;7</title>
<path fill="none" stroke="black" d="M422.25,-811.83C422.14,-804.13 422.01,-794.97 421.89,-786.42"/>
<polygon fill="black" stroke="black" points="425.39,-786.36 421.76,-776.41 418.4,-786.46 425.39,-786.36"/>
</g>
<!-- 54 -->
<g id="node55" class="node">
<title>54</title>
<polygon fill="none" stroke="black" points="580,-775 493,-775 493,-739 580,-739 580,-775"/>
<text text-anchor="middle" x="536.5" y="-753.3" font-family="Times,serif" font-size="14.00">class = USA</text>
</g>
<!-- 6&#45;&gt;54 -->
<g id="edge54" class="edge">
<title>6&#45;&gt;54</title>
<path fill="none" stroke="black" d="M451.27,-811.83C466.29,-802.34 484.82,-790.64 500.76,-780.57"/>
<polygon fill="black" stroke="black" points="502.73,-783.47 509.31,-775.17 498.99,-777.55 502.73,-783.47"/>
</g>
<!-- 8 -->
<g id="node9" class="node">
<title>8</title>
<polygon fill="none" stroke="black" points="488,-702 353,-702 353,-664 488,-664 488,-702"/>
<text text-anchor="middle" x="420.5" y="-686.8" font-family="Times,serif" font-size="14.00">longitude &lt;= &#45;94.582</text>
<text text-anchor="middle" x="420.5" y="-671.8" font-family="Times,serif" font-size="14.00">class = Canada</text>
</g>
<!-- 7&#45;&gt;8 -->
<g id="edge8" class="edge">
<title>7&#45;&gt;8</title>
<path fill="none" stroke="black" d="M421.25,-737.83C421.14,-730.13 421.01,-720.97 420.89,-712.42"/>
<polygon fill="black" stroke="black" points="424.39,-712.36 420.76,-702.41 417.4,-712.46 424.39,-712.36"/>
</g>
<!-- 53 -->
<g id="node54" class="node">
<title>53</title>
<polygon fill="none" stroke="black" points="607,-701 506,-701 506,-665 607,-665 607,-701"/>
<text text-anchor="middle" x="556.5" y="-679.3" font-family="Times,serif" font-size="14.00">class = Canada</text>
</g>
<!-- 7&#45;&gt;53 -->
<g id="edge53" class="edge">
<title>7&#45;&gt;53</title>
<path fill="none" stroke="black" d="M455.57,-737.83C473.69,-728.17 496.12,-716.2 515.22,-706.01"/>
<polygon fill="black" stroke="black" points="517.13,-708.97 524.3,-701.17 513.83,-702.79 517.13,-708.97"/>
</g>
<!-- 9 -->
<g id="node10" class="node">
<title>9</title>
<polygon fill="none" stroke="black" points="413.5,-628 271.5,-628 271.5,-590 413.5,-590 413.5,-628"/>
<text text-anchor="middle" x="342.5" y="-612.8" font-family="Times,serif" font-size="14.00">longitude &lt;= &#45;123.222</text>
<text text-anchor="middle" x="342.5" y="-597.8" font-family="Times,serif" font-size="14.00">class = USA</text>
</g>
<!-- 8&#45;&gt;9 -->
<g id="edge9" class="edge">
<title>8&#45;&gt;9</title>
<path fill="none" stroke="black" d="M400.82,-663.83C391.39,-655.13 379.96,-644.58 369.72,-635.13"/>
<polygon fill="black" stroke="black" points="371.9,-632.37 362.18,-628.16 367.15,-637.52 371.9,-632.37"/>
</g>
<!-- 12 -->
<g id="node13" class="node">
<title>12</title>
<polygon fill="none" stroke="black" points="567,-628 432,-628 432,-590 567,-590 567,-628"/>
<text text-anchor="middle" x="499.5" y="-612.8" font-family="Times,serif" font-size="14.00">longitude &lt;= &#45;69.246</text>
<text text-anchor="middle" x="499.5" y="-597.8" font-family="Times,serif" font-size="14.00">class = Canada</text>
</g>
<!-- 8&#45;&gt;12 -->
<g id="edge12" class="edge">
<title>8&#45;&gt;12</title>
<path fill="none" stroke="black" d="M440.44,-663.83C449.98,-655.13 461.56,-644.58 471.93,-635.13"/>
<polygon fill="black" stroke="black" points="474.54,-637.49 479.57,-628.16 469.82,-632.31 474.54,-637.49"/>
</g>
<!-- 10 -->
<g id="node11" class="node">
<title>10</title>
<polygon fill="none" stroke="black" points="290,-553 189,-553 189,-517 290,-517 290,-553"/>
<text text-anchor="middle" x="239.5" y="-531.3" font-family="Times,serif" font-size="14.00">class = Canada</text>
</g>
<!-- 9&#45;&gt;10 -->
<g id="edge10" class="edge">
<title>9&#45;&gt;10</title>
<path fill="none" stroke="black" d="M316.51,-589.83C303.18,-580.52 286.81,-569.07 272.59,-559.13"/>
<polygon fill="black" stroke="black" points="274.27,-556.03 264.06,-553.17 270.26,-561.77 274.27,-556.03"/>
</g>
<!-- 11 -->
<g id="node12" class="node">
<title>11</title>
<polygon fill="none" stroke="black" points="395,-553 308,-553 308,-517 395,-517 395,-553"/>
<text text-anchor="middle" x="351.5" y="-531.3" font-family="Times,serif" font-size="14.00">class = USA</text>
</g>
<!-- 9&#45;&gt;11 -->
<g id="edge11" class="edge">
<title>9&#45;&gt;11</title>
<path fill="none" stroke="black" d="M344.77,-589.83C345.76,-581.89 346.95,-572.41 348.05,-563.63"/>
<polygon fill="black" stroke="black" points="351.56,-563.77 349.32,-553.42 344.61,-562.91 351.56,-563.77"/>
</g>
<!-- 13 -->
<g id="node14" class="node">
<title>13</title>
<polygon fill="none" stroke="black" points="550.5,-554 430.5,-554 430.5,-516 550.5,-516 550.5,-554"/>
<text text-anchor="middle" x="490.5" y="-538.8" font-family="Times,serif" font-size="14.00">latitude &lt;= 43.093</text>
<text text-anchor="middle" x="490.5" y="-523.8" font-family="Times,serif" font-size="14.00">class = Canada</text>
</g>
<!-- 12&#45;&gt;13 -->
<g id="edge13" class="edge">
<title>12&#45;&gt;13</title>
<path fill="none" stroke="black" d="M497.23,-589.83C496.27,-582.13 495.12,-572.97 494.05,-564.42"/>
<polygon fill="black" stroke="black" points="497.52,-563.9 492.8,-554.41 490.57,-564.77 497.52,-563.9"/>
</g>
<!-- 36 -->
<g id="node37" class="node">
<title>36</title>
<polygon fill="none" stroke="black" points="755,-554 620,-554 620,-516 755,-516 755,-554"/>
<text text-anchor="middle" x="687.5" y="-538.8" font-family="Times,serif" font-size="14.00">longitude &lt;= &#45;66.952</text>
<text text-anchor="middle" x="687.5" y="-523.8" font-family="Times,serif" font-size="14.00">class = Canada</text>
</g>
<!-- 12&#45;&gt;36 -->
<g id="edge36" class="edge">
<title>12&#45;&gt;36</title>
<path fill="none" stroke="black" d="M546.94,-589.83C572.42,-580.07 604,-567.98 630.78,-557.72"/>
<polygon fill="black" stroke="black" points="632.31,-560.88 640.4,-554.04 629.81,-554.35 632.31,-560.88"/>
</g>
<!-- 14 -->
<g id="node15" class="node">
<title>14</title>
<polygon fill="none" stroke="black" points="347.5,-480 227.5,-480 227.5,-442 347.5,-442 347.5,-480"/>
<text text-anchor="middle" x="287.5" y="-464.8" font-family="Times,serif" font-size="14.00">latitude &lt;= 43.014</text>
<text text-anchor="middle" x="287.5" y="-449.8" font-family="Times,serif" font-size="14.00">class = Canada</text>
</g>
<!-- 13&#45;&gt;14 -->
<g id="edge14" class="edge">
<title>13&#45;&gt;14</title>
<path fill="none" stroke="black" d="M439.54,-515.92C411.79,-506.08 377.27,-493.84 348.14,-483.51"/>
<polygon fill="black" stroke="black" points="349.08,-480.13 338.48,-480.08 346.74,-486.72 349.08,-480.13"/>
</g>
<!-- 19 -->
<g id="node20" class="node">
<title>19</title>
<polygon fill="none" stroke="black" points="550.5,-480 430.5,-480 430.5,-442 550.5,-442 550.5,-480"/>
<text text-anchor="middle" x="490.5" y="-464.8" font-family="Times,serif" font-size="14.00">latitude &lt;= 44.992</text>
<text text-anchor="middle" x="490.5" y="-449.8" font-family="Times,serif" font-size="14.00">class = Canada</text>
</g>
<!-- 13&#45;&gt;19 -->
<g id="edge19" class="edge">
<title>13&#45;&gt;19</title>
<path fill="none" stroke="black" d="M490.5,-515.83C490.5,-508.13 490.5,-498.97 490.5,-490.42"/>
<polygon fill="black" stroke="black" points="494,-490.41 490.5,-480.41 487,-490.41 494,-490.41"/>
</g>
<!-- 15 -->
<g id="node16" class="node">
<title>15</title>
<polygon fill="none" stroke="black" points="223,-406 88,-406 88,-368 223,-368 223,-406"/>
<text text-anchor="middle" x="155.5" y="-390.8" font-family="Times,serif" font-size="14.00">longitude &lt;= &#45;81.845</text>
<text text-anchor="middle" x="155.5" y="-375.8" font-family="Times,serif" font-size="14.00">class = Canada</text>
</g>
<!-- 14&#45;&gt;15 -->
<g id="edge15" class="edge">
<title>14&#45;&gt;15</title>
<path fill="none" stroke="black" d="M254.19,-441.83C237.07,-432.49 216.03,-421.02 197.78,-411.06"/>
<polygon fill="black" stroke="black" points="199.25,-407.88 188.8,-406.16 195.9,-414.02 199.25,-407.88"/>
</g>
<!-- 18 -->
<g id="node19" class="node">
<title>18</title>
<polygon fill="none" stroke="black" points="331,-405 244,-405 244,-369 331,-369 331,-405"/>
<text text-anchor="middle" x="287.5" y="-383.3" font-family="Times,serif" font-size="14.00">class = USA</text>
</g>
<!-- 14&#45;&gt;18 -->
<g id="edge18" class="edge">
<title>14&#45;&gt;18</title>
<path fill="none" stroke="black" d="M287.5,-441.83C287.5,-433.89 287.5,-424.41 287.5,-415.63"/>
<polygon fill="black" stroke="black" points="291,-415.42 287.5,-405.42 284,-415.42 291,-415.42"/>
</g>
<!-- 16 -->
<g id="node17" class="node">
<title>16</title>
<polygon fill="none" stroke="black" points="87,-331 0,-331 0,-295 87,-295 87,-331"/>
<text text-anchor="middle" x="43.5" y="-309.3" font-family="Times,serif" font-size="14.00">class = USA</text>
</g>
<!-- 15&#45;&gt;16 -->
<g id="edge16" class="edge">
<title>15&#45;&gt;16</title>
<path fill="none" stroke="black" d="M127.24,-367.83C112.61,-358.43 94.61,-346.86 79.05,-336.85"/>
<polygon fill="black" stroke="black" points="80.52,-333.63 70.21,-331.17 76.73,-339.52 80.52,-333.63"/>
</g>
<!-- 17 -->
<g id="node18" class="node">
<title>17</title>
<polygon fill="none" stroke="black" points="206,-331 105,-331 105,-295 206,-295 206,-331"/>
<text text-anchor="middle" x="155.5" y="-309.3" font-family="Times,serif" font-size="14.00">class = Canada</text>
</g>
<!-- 15&#45;&gt;17 -->
<g id="edge17" class="edge">
<title>15&#45;&gt;17</title>
<path fill="none" stroke="black" d="M155.5,-367.83C155.5,-359.89 155.5,-350.41 155.5,-341.63"/>
<polygon fill="black" stroke="black" points="159,-341.42 155.5,-331.42 152,-341.42 159,-341.42"/>
</g>
<!-- 20 -->
<g id="node21" class="node">
<title>20</title>
<polygon fill="none" stroke="black" points="484.5,-406 364.5,-406 364.5,-368 484.5,-368 484.5,-406"/>
<text text-anchor="middle" x="424.5" y="-390.8" font-family="Times,serif" font-size="14.00">latitude &lt;= 44.542</text>
<text text-anchor="middle" x="424.5" y="-375.8" font-family="Times,serif" font-size="14.00">class = Canada</text>
</g>
<!-- 19&#45;&gt;20 -->
<g id="edge20" class="edge">
<title>19&#45;&gt;20</title>
<path fill="none" stroke="black" d="M473.85,-441.83C466.09,-433.37 456.72,-423.15 448.24,-413.9"/>
<polygon fill="black" stroke="black" points="450.72,-411.42 441.38,-406.41 445.56,-416.15 450.72,-411.42"/>
</g>
<!-- 35 -->
<g id="node36" class="node">
<title>35</title>
<polygon fill="none" stroke="black" points="604,-405 503,-405 503,-369 604,-369 604,-405"/>
<text text-anchor="middle" x="553.5" y="-383.3" font-family="Times,serif" font-size="14.00">class = Canada</text>
</g>
<!-- 19&#45;&gt;35 -->
<g id="edge35" class="edge">
<title>19&#45;&gt;35</title>
<path fill="none" stroke="black" d="M506.4,-441.83C514.03,-433.11 523.3,-422.52 531.58,-413.05"/>
<polygon fill="black" stroke="black" points="534.31,-415.25 538.26,-405.42 529.04,-410.64 534.31,-415.25"/>
</g>
<!-- 21 -->
<g id="node22" class="node">
<title>21</title>
<polygon fill="none" stroke="black" points="359,-332 224,-332 224,-294 359,-294 359,-332"/>
<text text-anchor="middle" x="291.5" y="-316.8" font-family="Times,serif" font-size="14.00">longitude &lt;= &#45;79.076</text>
<text text-anchor="middle" x="291.5" y="-301.8" font-family="Times,serif" font-size="14.00">class = Canada</text>
</g>
<!-- 20&#45;&gt;21 -->
<g id="edge21" class="edge">
<title>20&#45;&gt;21</title>
<path fill="none" stroke="black" d="M390.94,-367.83C373.61,-358.45 352.29,-346.91 333.85,-336.92"/>
<polygon fill="black" stroke="black" points="335.51,-333.85 325.05,-332.16 332.18,-340 335.51,-333.85"/>
</g>
<!-- 30 -->
<g id="node31" class="node">
<title>30</title>
<polygon fill="none" stroke="black" points="497.5,-332 377.5,-332 377.5,-294 497.5,-294 497.5,-332"/>
<text text-anchor="middle" x="437.5" y="-316.8" font-family="Times,serif" font-size="14.00">latitude &lt;= 44.706</text>
<text text-anchor="middle" x="437.5" y="-301.8" font-family="Times,serif" font-size="14.00">class = USA</text>
</g>
<!-- 20&#45;&gt;30 -->
<g id="edge30" class="edge">
<title>20&#45;&gt;30</title>
<path fill="none" stroke="black" d="M427.78,-367.83C429.17,-360.13 430.82,-350.97 432.37,-342.42"/>
<polygon fill="black" stroke="black" points="435.84,-342.88 434.18,-332.41 428.95,-341.63 435.84,-342.88"/>
</g>
<!-- 22 -->
<g id="node23" class="node">
<title>22</title>
<polygon fill="none" stroke="black" points="213,-257 112,-257 112,-221 213,-221 213,-257"/>
<text text-anchor="middle" x="162.5" y="-235.3" font-family="Times,serif" font-size="14.00">class = Canada</text>
</g>
<!-- 21&#45;&gt;22 -->
<g id="edge22" class="edge">
<title>21&#45;&gt;22</title>
<path fill="none" stroke="black" d="M258.95,-293.83C241.79,-284.25 220.59,-272.42 202.44,-262.29"/>
<polygon fill="black" stroke="black" points="203.7,-258.99 193.27,-257.17 200.29,-265.1 203.7,-258.99"/>
</g>
<!-- 23 -->
<g id="node24" class="node">
<title>23</title>
<polygon fill="none" stroke="black" points="351.5,-258 231.5,-258 231.5,-220 351.5,-220 351.5,-258"/>
<text text-anchor="middle" x="291.5" y="-242.8" font-family="Times,serif" font-size="14.00">latitude &lt;= 44.168</text>
<text text-anchor="middle" x="291.5" y="-227.8" font-family="Times,serif" font-size="14.00">class = Canada</text>
</g>
<!-- 21&#45;&gt;23 -->
<g id="edge23" class="edge">
<title>21&#45;&gt;23</title>
<path fill="none" stroke="black" d="M291.5,-293.83C291.5,-286.13 291.5,-276.97 291.5,-268.42"/>
<polygon fill="black" stroke="black" points="295,-268.41 291.5,-258.41 288,-268.41 295,-268.41"/>
</g>
<!-- 24 -->
<g id="node25" class="node">
<title>24</title>
<polygon fill="none" stroke="black" points="229,-184 110,-184 110,-146 229,-146 229,-184"/>
<text text-anchor="middle" x="169.5" y="-168.8" font-family="Times,serif" font-size="14.00">latitude &lt;= 43.511</text>
<text text-anchor="middle" x="169.5" y="-153.8" font-family="Times,serif" font-size="14.00">class = USA</text>
</g>
<!-- 23&#45;&gt;24 -->
<g id="edge24" class="edge">
<title>23&#45;&gt;24</title>
<path fill="none" stroke="black" d="M260.71,-219.83C245.11,-210.62 225.98,-199.33 209.27,-189.47"/>
<polygon fill="black" stroke="black" points="210.67,-186.23 200.28,-184.16 207.11,-192.26 210.67,-186.23"/>
</g>
<!-- 29 -->
<g id="node30" class="node">
<title>29</title>
<polygon fill="none" stroke="black" points="348,-183 247,-183 247,-147 348,-147 348,-183"/>
<text text-anchor="middle" x="297.5" y="-161.3" font-family="Times,serif" font-size="14.00">class = Canada</text>
</g>
<!-- 23&#45;&gt;29 -->
<g id="edge29" class="edge">
<title>23&#45;&gt;29</title>
<path fill="none" stroke="black" d="M293.01,-219.83C293.68,-211.89 294.47,-202.41 295.2,-193.63"/>
<polygon fill="black" stroke="black" points="298.71,-193.67 296.05,-183.42 291.73,-193.09 298.71,-193.67"/>
</g>
<!-- 25 -->
<g id="node26" class="node">
<title>25</title>
<polygon fill="none" stroke="black" points="149,-109 62,-109 62,-73 149,-73 149,-109"/>
<text text-anchor="middle" x="105.5" y="-87.3" font-family="Times,serif" font-size="14.00">class = USA</text>
</g>
<!-- 24&#45;&gt;25 -->
<g id="edge25" class="edge">
<title>24&#45;&gt;25</title>
<path fill="none" stroke="black" d="M153.35,-145.83C145.6,-137.11 136.18,-126.52 127.76,-117.05"/>
<polygon fill="black" stroke="black" points="130.24,-114.57 120.98,-109.42 125.01,-119.22 130.24,-114.57"/>
</g>
<!-- 26 -->
<g id="node27" class="node">
<title>26</title>
<polygon fill="none" stroke="black" points="302,-110 167,-110 167,-72 302,-72 302,-110"/>
<text text-anchor="middle" x="234.5" y="-94.8" font-family="Times,serif" font-size="14.00">longitude &lt;= &#45;77.678</text>
<text text-anchor="middle" x="234.5" y="-79.8" font-family="Times,serif" font-size="14.00">class = Canada</text>
</g>
<!-- 24&#45;&gt;26 -->
<g id="edge26" class="edge">
<title>24&#45;&gt;26</title>
<path fill="none" stroke="black" d="M185.9,-145.83C193.54,-137.37 202.77,-127.15 211.12,-117.9"/>
<polygon fill="black" stroke="black" points="213.77,-120.18 217.88,-110.41 208.58,-115.49 213.77,-120.18"/>
</g>
<!-- 27 -->
<g id="node28" class="node">
<title>27</title>
<polygon fill="none" stroke="black" points="229,-36 128,-36 128,0 229,0 229,-36"/>
<text text-anchor="middle" x="178.5" y="-14.3" font-family="Times,serif" font-size="14.00">class = Canada</text>
</g>
<!-- 26&#45;&gt;27 -->
<g id="edge27" class="edge">
<title>26&#45;&gt;27</title>
<path fill="none" stroke="black" d="M220.08,-71.72C213.43,-63.29 205.43,-53.15 198.23,-44.02"/>
<polygon fill="black" stroke="black" points="200.85,-41.69 191.91,-36 195.36,-46.02 200.85,-41.69"/>
</g>
<!-- 28 -->
<g id="node29" class="node">
<title>28</title>
<polygon fill="none" stroke="black" points="334,-36 247,-36 247,0 334,0 334,-36"/>
<text text-anchor="middle" x="290.5" y="-14.3" font-family="Times,serif" font-size="14.00">class = USA</text>
</g>
<!-- 26&#45;&gt;28 -->
<g id="edge28" class="edge">
<title>26&#45;&gt;28</title>
<path fill="none" stroke="black" d="M248.92,-71.72C255.57,-63.29 263.57,-53.15 270.77,-44.02"/>
<polygon fill="black" stroke="black" points="273.64,-46.02 277.09,-36 268.15,-41.69 273.64,-46.02"/>
</g>
<!-- 31 -->
<g id="node32" class="node">
<title>31</title>
<polygon fill="none" stroke="black" points="457,-257 370,-257 370,-221 457,-221 457,-257"/>
<text text-anchor="middle" x="413.5" y="-235.3" font-family="Times,serif" font-size="14.00">class = USA</text>
</g>
<!-- 30&#45;&gt;31 -->
<g id="edge31" class="edge">
<title>30&#45;&gt;31</title>
<path fill="none" stroke="black" d="M431.44,-293.83C428.74,-285.72 425.5,-275.99 422.52,-267.05"/>
<polygon fill="black" stroke="black" points="425.79,-265.8 419.31,-257.42 419.15,-268.01 425.79,-265.8"/>
</g>
<!-- 32 -->
<g id="node33" class="node">
<title>32</title>
<polygon fill="none" stroke="black" points="595.5,-258 475.5,-258 475.5,-220 595.5,-220 595.5,-258"/>
<text text-anchor="middle" x="535.5" y="-242.8" font-family="Times,serif" font-size="14.00">latitude &lt;= 44.848</text>
<text text-anchor="middle" x="535.5" y="-227.8" font-family="Times,serif" font-size="14.00">class = Canada</text>
</g>
<!-- 30&#45;&gt;32 -->
<g id="edge32" class="edge">
<title>30&#45;&gt;32</title>
<path fill="none" stroke="black" d="M462.23,-293.83C474.42,-284.88 489.28,-273.96 502.43,-264.3"/>
<polygon fill="black" stroke="black" points="504.79,-266.9 510.78,-258.16 500.65,-261.26 504.79,-266.9"/>
</g>
<!-- 33 -->
<g id="node34" class="node">
<title>33</title>
<polygon fill="none" stroke="black" points="474,-183 373,-183 373,-147 474,-147 474,-183"/>
<text text-anchor="middle" x="423.5" y="-161.3" font-family="Times,serif" font-size="14.00">class = Canada</text>
</g>
<!-- 32&#45;&gt;33 -->
<g id="edge33" class="edge">
<title>32&#45;&gt;33</title>
<path fill="none" stroke="black" d="M507.24,-219.83C492.61,-210.43 474.61,-198.86 459.05,-188.85"/>
<polygon fill="black" stroke="black" points="460.52,-185.63 450.21,-183.17 456.73,-191.52 460.52,-185.63"/>
</g>
<!-- 34 -->
<g id="node35" class="node">
<title>34</title>
<polygon fill="none" stroke="black" points="579,-183 492,-183 492,-147 579,-147 579,-183"/>
<text text-anchor="middle" x="535.5" y="-161.3" font-family="Times,serif" font-size="14.00">class = USA</text>
</g>
<!-- 32&#45;&gt;34 -->
<g id="edge34" class="edge">
<title>32&#45;&gt;34</title>
<path fill="none" stroke="black" d="M535.5,-219.83C535.5,-211.89 535.5,-202.41 535.5,-193.63"/>
<polygon fill="black" stroke="black" points="539,-193.42 535.5,-183.42 532,-193.42 539,-193.42"/>
</g>
<!-- 37 -->
<g id="node38" class="node">
<title>37</title>
<polygon fill="none" stroke="black" points="755,-480 620,-480 620,-442 755,-442 755,-480"/>
<text text-anchor="middle" x="687.5" y="-464.8" font-family="Times,serif" font-size="14.00">longitude &lt;= &#45;67.279</text>
<text text-anchor="middle" x="687.5" y="-449.8" font-family="Times,serif" font-size="14.00">class = USA</text>
</g>
<!-- 36&#45;&gt;37 -->
<g id="edge37" class="edge">
<title>36&#45;&gt;37</title>
<path fill="none" stroke="black" d="M687.5,-515.83C687.5,-508.13 687.5,-498.97 687.5,-490.42"/>
<polygon fill="black" stroke="black" points="691,-490.41 687.5,-480.41 684,-490.41 691,-490.41"/>
</g>
<!-- 52 -->
<g id="node53" class="node">
<title>52</title>
<polygon fill="none" stroke="black" points="874,-479 773,-479 773,-443 874,-443 874,-479"/>
<text text-anchor="middle" x="823.5" y="-457.3" font-family="Times,serif" font-size="14.00">class = Canada</text>
</g>
<!-- 36&#45;&gt;52 -->
<g id="edge52" class="edge">
<title>36&#45;&gt;52</title>
<path fill="none" stroke="black" d="M721.82,-515.83C740.16,-506.12 762.87,-494.1 782.18,-483.88"/>
<polygon fill="black" stroke="black" points="783.86,-486.94 791.07,-479.17 780.59,-480.76 783.86,-486.94"/>
</g>
<!-- 38 -->
<g id="node39" class="node">
<title>38</title>
<polygon fill="none" stroke="black" points="751.5,-406 623.5,-406 623.5,-368 751.5,-368 751.5,-406"/>
<text text-anchor="middle" x="687.5" y="-390.8" font-family="Times,serif" font-size="14.00">longitude &lt;= &#45;67.93</text>
<text text-anchor="middle" x="687.5" y="-375.8" font-family="Times,serif" font-size="14.00">class = Canada</text>
</g>
<!-- 37&#45;&gt;38 -->
<g id="edge38" class="edge">
<title>37&#45;&gt;38</title>
<path fill="none" stroke="black" d="M687.5,-441.83C687.5,-434.13 687.5,-424.97 687.5,-416.42"/>
<polygon fill="black" stroke="black" points="691,-416.41 687.5,-406.41 684,-416.41 691,-416.41"/>
</g>
<!-- 51 -->
<g id="node52" class="node">
<title>51</title>
<polygon fill="none" stroke="black" points="857,-405 770,-405 770,-369 857,-369 857,-405"/>
<text text-anchor="middle" x="813.5" y="-383.3" font-family="Times,serif" font-size="14.00">class = USA</text>
</g>
<!-- 37&#45;&gt;51 -->
<g id="edge51" class="edge">
<title>37&#45;&gt;51</title>
<path fill="none" stroke="black" d="M719.3,-441.83C736.06,-432.25 756.76,-420.42 774.49,-410.29"/>
<polygon fill="black" stroke="black" points="776.5,-413.17 783.45,-405.17 773.03,-407.09 776.5,-413.17"/>
</g>
<!-- 39 -->
<g id="node40" class="node">
<title>39</title>
<polygon fill="none" stroke="black" points="755,-332 620,-332 620,-294 755,-294 755,-332"/>
<text text-anchor="middle" x="687.5" y="-316.8" font-family="Times,serif" font-size="14.00">longitude &lt;= &#45;68.325</text>
<text text-anchor="middle" x="687.5" y="-301.8" font-family="Times,serif" font-size="14.00">class = USA</text>
</g>
<!-- 38&#45;&gt;39 -->
<g id="edge39" class="edge">
<title>38&#45;&gt;39</title>
<path fill="none" stroke="black" d="M687.5,-367.83C687.5,-360.13 687.5,-350.97 687.5,-342.42"/>
<polygon fill="black" stroke="black" points="691,-342.41 687.5,-332.41 684,-342.41 691,-342.41"/>
</g>
<!-- 46 -->
<g id="node47" class="node">
<title>46</title>
<polygon fill="none" stroke="black" points="979.5,-332 859.5,-332 859.5,-294 979.5,-294 979.5,-332"/>
<text text-anchor="middle" x="919.5" y="-316.8" font-family="Times,serif" font-size="14.00">latitude &lt;= 45.565</text>
<text text-anchor="middle" x="919.5" y="-301.8" font-family="Times,serif" font-size="14.00">class = Canada</text>
</g>
<!-- 38&#45;&gt;46 -->
<g id="edge46" class="edge">
<title>38&#45;&gt;46</title>
<path fill="none" stroke="black" d="M745.74,-367.92C777.87,-357.95 817.94,-345.52 851.5,-335.1"/>
<polygon fill="black" stroke="black" points="852.72,-338.39 861.23,-332.08 850.64,-331.7 852.72,-338.39"/>
</g>
<!-- 40 -->
<g id="node41" class="node">
<title>40</title>
<polygon fill="none" stroke="black" points="734.5,-258 614.5,-258 614.5,-220 734.5,-220 734.5,-258"/>
<text text-anchor="middle" x="674.5" y="-242.8" font-family="Times,serif" font-size="14.00">latitude &lt;= 47.256</text>
<text text-anchor="middle" x="674.5" y="-227.8" font-family="Times,serif" font-size="14.00">class = Canada</text>
</g>
<!-- 39&#45;&gt;40 -->
<g id="edge40" class="edge">
<title>39&#45;&gt;40</title>
<path fill="none" stroke="black" d="M684.22,-293.83C682.83,-286.13 681.18,-276.97 679.63,-268.42"/>
<polygon fill="black" stroke="black" points="683.05,-267.63 677.82,-258.41 676.16,-268.88 683.05,-267.63"/>
</g>
<!-- 45 -->
<g id="node46" class="node">
<title>45</title>
<polygon fill="none" stroke="black" points="840,-257 753,-257 753,-221 840,-221 840,-257"/>
<text text-anchor="middle" x="796.5" y="-235.3" font-family="Times,serif" font-size="14.00">class = USA</text>
</g>
<!-- 39&#45;&gt;45 -->
<g id="edge45" class="edge">
<title>39&#45;&gt;45</title>
<path fill="none" stroke="black" d="M715.01,-293.83C729.24,-284.43 746.76,-272.86 761.91,-262.85"/>
<polygon fill="black" stroke="black" points="764.09,-265.6 770.5,-257.17 760.23,-259.76 764.09,-265.6"/>
</g>
<!-- 41 -->
<g id="node42" class="node">
<title>41</title>
<polygon fill="none" stroke="black" points="698,-183 597,-183 597,-147 698,-147 698,-183"/>
<text text-anchor="middle" x="647.5" y="-161.3" font-family="Times,serif" font-size="14.00">class = Canada</text>
</g>
<!-- 40&#45;&gt;41 -->
<g id="edge41" class="edge">
<title>40&#45;&gt;41</title>
<path fill="none" stroke="black" d="M667.69,-219.83C664.64,-211.72 661,-201.99 657.64,-193.05"/>
<polygon fill="black" stroke="black" points="660.82,-191.55 654.03,-183.42 654.27,-194.01 660.82,-191.55"/>
</g>
<!-- 42 -->
<g id="node43" class="node">
<title>42</title>
<polygon fill="none" stroke="black" points="851,-184 716,-184 716,-146 851,-146 851,-184"/>
<text text-anchor="middle" x="783.5" y="-168.8" font-family="Times,serif" font-size="14.00">longitude &lt;= &#45;68.459</text>
<text text-anchor="middle" x="783.5" y="-153.8" font-family="Times,serif" font-size="14.00">class = USA</text>
</g>
<!-- 40&#45;&gt;42 -->
<g id="edge42" class="edge">
<title>40&#45;&gt;42</title>
<path fill="none" stroke="black" d="M702.01,-219.83C715.82,-210.71 732.73,-199.54 747.55,-189.74"/>
<polygon fill="black" stroke="black" points="749.59,-192.59 756,-184.16 745.73,-186.75 749.59,-192.59"/>
</g>
<!-- 43 -->
<g id="node44" class="node">
<title>43</title>
<polygon fill="none" stroke="black" points="771,-109 684,-109 684,-73 771,-73 771,-109"/>
<text text-anchor="middle" x="727.5" y="-87.3" font-family="Times,serif" font-size="14.00">class = USA</text>
</g>
<!-- 42&#45;&gt;43 -->
<g id="edge43" class="edge">
<title>42&#45;&gt;43</title>
<path fill="none" stroke="black" d="M769.37,-145.83C762.65,-137.2 754.51,-126.73 747.2,-117.33"/>
<polygon fill="black" stroke="black" points="749.95,-115.16 741.05,-109.42 744.42,-119.46 749.95,-115.16"/>
</g>
<!-- 44 -->
<g id="node45" class="node">
<title>44</title>
<polygon fill="none" stroke="black" points="890,-109 789,-109 789,-73 890,-73 890,-109"/>
<text text-anchor="middle" x="839.5" y="-87.3" font-family="Times,serif" font-size="14.00">class = Canada</text>
</g>
<!-- 42&#45;&gt;44 -->
<g id="edge44" class="edge">
<title>42&#45;&gt;44</title>
<path fill="none" stroke="black" d="M797.63,-145.83C804.35,-137.2 812.49,-126.73 819.8,-117.33"/>
<polygon fill="black" stroke="black" points="822.58,-119.46 825.95,-109.42 817.05,-115.16 822.58,-119.46"/>
</g>
<!-- 47 -->
<g id="node48" class="node">
<title>47</title>
<polygon fill="none" stroke="black" points="979.5,-258 859.5,-258 859.5,-220 979.5,-220 979.5,-258"/>
<text text-anchor="middle" x="919.5" y="-242.8" font-family="Times,serif" font-size="14.00">latitude &lt;= 45.382</text>
<text text-anchor="middle" x="919.5" y="-227.8" font-family="Times,serif" font-size="14.00">class = Canada</text>
</g>
<!-- 46&#45;&gt;47 -->
<g id="edge47" class="edge">
<title>46&#45;&gt;47</title>
<path fill="none" stroke="black" d="M919.5,-293.83C919.5,-286.13 919.5,-276.97 919.5,-268.42"/>
<polygon fill="black" stroke="black" points="923,-268.41 919.5,-258.41 916,-268.41 923,-268.41"/>
</g>
<!-- 50 -->
<g id="node51" class="node">
<title>50</title>
<polygon fill="none" stroke="black" points="1099,-257 998,-257 998,-221 1099,-221 1099,-257"/>
<text text-anchor="middle" x="1048.5" y="-235.3" font-family="Times,serif" font-size="14.00">class = Canada</text>
</g>
<!-- 46&#45;&gt;50 -->
<g id="edge50" class="edge">
<title>46&#45;&gt;50</title>
<path fill="none" stroke="black" d="M952.05,-293.83C969.21,-284.25 990.41,-272.42 1008.56,-262.29"/>
<polygon fill="black" stroke="black" points="1010.71,-265.1 1017.73,-257.17 1007.3,-258.99 1010.71,-265.1"/>
</g>
<!-- 48 -->
<g id="node49" class="node">
<title>48</title>
<polygon fill="none" stroke="black" points="970,-183 869,-183 869,-147 970,-147 970,-183"/>
<text text-anchor="middle" x="919.5" y="-161.3" font-family="Times,serif" font-size="14.00">class = Canada</text>
</g>
<!-- 47&#45;&gt;48 -->
<g id="edge48" class="edge">
<title>47&#45;&gt;48</title>
<path fill="none" stroke="black" d="M919.5,-219.83C919.5,-211.89 919.5,-202.41 919.5,-193.63"/>
<polygon fill="black" stroke="black" points="923,-193.42 919.5,-183.42 916,-193.42 923,-193.42"/>
</g>
<!-- 49 -->
<g id="node50" class="node">
<title>49</title>
<polygon fill="none" stroke="black" points="1075,-183 988,-183 988,-147 1075,-147 1075,-183"/>
<text text-anchor="middle" x="1031.5" y="-161.3" font-family="Times,serif" font-size="14.00">class = USA</text>
</g>
<!-- 47&#45;&gt;49 -->
<g id="edge49" class="edge">
<title>47&#45;&gt;49</title>
<path fill="none" stroke="black" d="M947.76,-219.83C962.39,-210.43 980.39,-198.86 995.95,-188.85"/>
<polygon fill="black" stroke="black" points="998.27,-191.52 1004.79,-183.17 994.48,-185.63 998.27,-191.52"/>
</g>
</g>
</svg>
