<?xml version="1.0" encoding="UTF-8" standalone="no"?>
<!DOCTYPE svg PUBLIC "-//W3C//DTD SVG 1.1//EN"
 "http://www.w3.org/Graphics/SVG/1.1/DTD/svg11.dtd">
<!-- Generated by graphviz version 2.48.0 (0)
 -->
<!-- Title: Tree Pages: 1 -->
<svg width="1168pt" height="932pt"
 viewBox="0.00 0.00 1168.00 932.00" xmlns="http://www.w3.org/2000/svg" xmlns:xlink="http://www.w3.org/1999/xlink">
<g id="graph0" class="graph" transform="scale(1 1) rotate(0) translate(4 928)">
<title>Tree</title>
<polygon fill="white" stroke="transparent" points="-4,4 -4,-928 1164,-928 1164,4 -4,4"/>
<!-- 0 -->
<g id="node1" class="node">
<title>0</title>
<polygon fill="none" stroke="black" points="285.5,-924 179.5,-924 179.5,-886 285.5,-886 285.5,-924"/>
<text text-anchor="middle" x="232.5" y="-908.8" font-family="Times,serif" font-size="14.00">latitude &lt;= 42.9</text>
<text text-anchor="middle" x="232.5" y="-893.8" font-family="Times,serif" font-size="14.00">class = Canada</text>
</g>
<!-- 1 -->
<g id="node2" class="node">
<title>1</title>
<polygon fill="none" stroke="black" points="223.5,-850 103.5,-850 103.5,-812 223.5,-812 223.5,-850"/>
<text text-anchor="middle" x="163.5" y="-834.8" font-family="Times,serif" font-size="14.00">latitude &lt;= 42.096</text>
<text text-anchor="middle" x="163.5" y="-819.8" font-family="Times,serif" font-size="14.00">class = USA</text>
</g>
<!-- 0&#45;&gt;1 -->
<g id="edge1" class="edge">
<title>0&#45;&gt;1</title>
<path fill="none" stroke="black" d="M215.09,-885.83C206.98,-877.37 197.18,-867.15 188.32,-857.9"/>
<polygon fill="black" stroke="black" points="190.59,-855.21 181.15,-850.41 185.54,-860.05 190.59,-855.21"/>
<text text-anchor="middle" x="180.61" y="-871.71" font-family="Times,serif" font-size="14.00">True</text>
</g>
<!-- 6 -->
<g id="node7" class="node">
<title>6</title>
<polygon fill="none" stroke="black" points="361.5,-850 241.5,-850 241.5,-812 361.5,-812 361.5,-850"/>
<text text-anchor="middle" x="301.5" y="-834.8" font-family="Times,serif" font-size="14.00">latitude &lt;= 55.958</text>
<text text-anchor="middle" x="301.5" y="-819.8" font-family="Times,serif" font-size="14.00">class = Canada</text>
</g>
<!-- 0&#45;&gt;6 -->
<g id="edge6" class="edge">
<title>0&#45;&gt;6</title>
<path fill="none" stroke="black" d="M249.91,-885.83C258.02,-877.37 267.82,-867.15 276.68,-857.9"/>
<polygon fill="black" stroke="black" points="279.46,-860.05 283.85,-850.41 274.41,-855.21 279.46,-860.05"/>
<text text-anchor="middle" x="284.39" y="-871.71" font-family="Times,serif" font-size="14.00">False</text>
</g>
<!-- 2 -->
<g id="node3" class="node">
<title>2</title>
<polygon fill="none" stroke="black" points="87,-775 0,-775 0,-739 87,-739 87,-775"/>
<text text-anchor="middle" x="43.5" y="-753.3" font-family="Times,serif" font-size="14.00">class = USA</text>
</g>
<!-- 1&#45;&gt;2 -->
<g id="edge2" class="edge">
<title>1&#45;&gt;2</title>
<path fill="none" stroke="black" d="M133.22,-811.83C117.4,-802.34 97.9,-790.64 81.12,-780.57"/>
<polygon fill="black" stroke="black" points="82.49,-777.32 72.12,-775.17 78.89,-783.32 82.49,-777.32"/>
</g>
<!-- 3 -->
<g id="node4" class="node">
<title>3</title>
<polygon fill="none" stroke="black" points="225.5,-776 105.5,-776 105.5,-738 225.5,-738 225.5,-776"/>
<text text-anchor="middle" x="165.5" y="-760.8" font-family="Times,serif" font-size="14.00">latitude &lt;= 42.324</text>
<text text-anchor="middle" x="165.5" y="-745.8" font-family="Times,serif" font-size="14.00">class = USA</text>
</g>
<!-- 1&#45;&gt;3 -->
<g id="edge3" class="edge">
<title>1&#45;&gt;3</title>
<path fill="none" stroke="black" d="M164,-811.83C164.22,-804.13 164.47,-794.97 164.71,-786.42"/>
<polygon fill="black" stroke="black" points="168.21,-786.51 164.99,-776.41 161.21,-786.31 168.21,-786.51"/>
</g>
<!-- 4 -->
<g id="node5" class="node">
<title>4</title>
<polygon fill="none" stroke="black" points="105,-701 4,-701 4,-665 105,-665 105,-701"/>
<text text-anchor="middle" x="54.5" y="-679.3" font-family="Times,serif" font-size="14.00">class = Canada</text>
</g>
<!-- 3&#45;&gt;4 -->
<g id="edge4" class="edge">
<title>3&#45;&gt;4</title>
<path fill="none" stroke="black" d="M137.49,-737.83C122.99,-728.43 105.15,-716.86 89.73,-706.85"/>
<polygon fill="black" stroke="black" points="91.27,-703.68 80.97,-701.17 87.46,-709.55 91.27,-703.68"/>
</g>
<!-- 5 -->
<g id="node6" class="node">
<title>5</title>
<polygon fill="none" stroke="black" points="210,-701 123,-701 123,-665 210,-665 210,-701"/>
<text text-anchor="middle" x="166.5" y="-679.3" font-family="Times,serif" font-size="14.00">class = USA</text>
</g>
<!-- 3&#45;&gt;5 -->
<g id="edge5" class="edge">
<title>3&#45;&gt;5</title>
<path fill="none" stroke="black" d="M165.75,-737.83C165.86,-729.89 165.99,-720.41 166.12,-711.63"/>
<polygon fill="black" stroke="black" points="169.62,-711.47 166.26,-701.42 162.62,-711.37 169.62,-711.47"/>
</g>
<!-- 7 -->
<g id="node8" class="node">
<title>7</title>
<polygon fill="none" stroke="black" points="353.5,-776 247.5,-776 247.5,-738 353.5,-738 353.5,-776"/>
<text text-anchor="middle" x="300.5" y="-760.8" font-family="Times,serif" font-size="14.00">latitude &lt;= 49.0</text>
<text text-anchor="middle" x="300.5" y="-745.8" font-family="Times,serif" font-size="14.00">class = Canada</text>
</g>
<!-- 6&#45;&gt;7 -->
<g id="edge7" class="edge">
<title>6&#45;&gt;7</title>
<path fill="none" stroke="black" d="M301.25,-811.83C301.14,-804.13 301.01,-794.97 300.89,-786.42"/>
<polygon fill="black" stroke="black" points="304.39,-786.36 300.76,-776.41 297.4,-786.46 304.39,-786.36"/>
</g>
<!-- 54 -->
<g id="node55" class="node">
<title>54</title>
<polygon fill="none" stroke="black" points="459,-775 372,-775 372,-739 459,-739 459,-775"/>
<text text-anchor="middle" x="415.5" y="-753.3" font-family="Times,serif" font-size="14.00">class = USA</text>
</g>
<!-- 6&#45;&gt;54 -->
<g id="edge54" class="edge">
<title>6&#45;&gt;54</title>
<path fill="none" stroke="black" d="M330.27,-811.83C345.29,-802.34 363.82,-790.64 379.76,-780.57"/>
<polygon fill="black" stroke="black" points="381.73,-783.47 388.31,-775.17 377.99,-777.55 381.73,-783.47"/>
</g>
<!-- 8 -->
<g id="node9" class="node">
<title>8</title>
<polygon fill="none" stroke="black" points="367,-702 232,-702 232,-664 367,-664 367,-702"/>
<text text-anchor="middle" x="299.5" y="-686.8" font-family="Times,serif" font-size="14.00">longitude &lt;= &#45;94.582</text>
<text text-anchor="middle" x="299.5" y="-671.8" font-family="Times,serif" font-size="14.00">class = Canada</text>
</g>
<!-- 7&#45;&gt;8 -->
<g id="edge8" class="edge">
<title>7&#45;&gt;8</title>
<path fill="none" stroke="black" d="M300.25,-737.83C300.14,-730.13 300.01,-720.97 299.89,-712.42"/>
<polygon fill="black" stroke="black" points="303.39,-712.36 299.76,-702.41 296.4,-712.46 303.39,-712.36"/>
</g>
<!-- 53 -->
<g id="node54" class="node">
<title>53</title>
<polygon fill="none" stroke="black" points="486,-701 385,-701 385,-665 486,-665 486,-701"/>
<text text-anchor="middle" x="435.5" y="-679.3" font-family="Times,serif" font-size="14.00">class = Canada</text>
</g>
<!-- 7&#45;&gt;53 -->
<g id="edge53" class="edge">
<title>7&#45;&gt;53</title>
<path fill="none" stroke="black" d="M334.57,-737.83C352.69,-728.17 375.12,-716.2 394.22,-706.01"/>
<polygon fill="black" stroke="black" points="396.13,-708.97 403.3,-701.17 392.83,-702.79 396.13,-708.97"/>
</g>
<!-- 9 -->
<g id="node10" class="node">
<title>9</title>
<polygon fill="none" stroke="black" points="292.5,-628 150.5,-628 150.5,-590 292.5,-590 292.5,-628"/>
<text text-anchor="middle" x="221.5" y="-612.8" font-family="Times,serif" font-size="14.00">longitude &lt;= &#45;123.222</text>
<text text-anchor="middle" x="221.5" y="-597.8" font-family="Times,serif" font-size="14.00">class = USA</text>
</g>
<!-- 8&#45;&gt;9 -->
<g id="edge9" class="edge">
<title>8&#45;&gt;9</title>
<path fill="none" stroke="black" d="M279.82,-663.83C270.39,-655.13 258.96,-644.58 248.72,-635.13"/>
<polygon fill="black" stroke="black" points="250.9,-632.37 241.18,-628.16 246.15,-637.52 250.9,-632.37"/>
</g>
<!-- 12 -->
<g id="node13" class="node">
<title>12</title>
<polygon fill="none" stroke="black" points="446,-628 311,-628 311,-590 446,-590 446,-628"/>
<text text-anchor="middle" x="378.5" y="-612.8" font-family="Times,serif" font-size="14.00">longitude &lt;= &#45;69.246</text>
<text text-anchor="middle" x="378.5" y="-597.8" font-family="Times,serif" font-size="14.00">class = Canada</text>
</g>
<!-- 8&#45;&gt;12 -->
<g id="edge12" class="edge">
<title>8&#45;&gt;12</title>
<path fill="none" stroke="black" d="M319.44,-663.83C328.98,-655.13 340.56,-644.58 350.93,-635.13"/>
<polygon fill="black" stroke="black" points="353.54,-637.49 358.57,-628.16 348.82,-632.31 353.54,-637.49"/>
</g>
<!-- 10 -->
<g id="node11" class="node">
<title>10</title>
<polygon fill="none" stroke="black" points="169,-553 68,-553 68,-517 169,-517 169,-553"/>
<text text-anchor="middle" x="118.5" y="-531.3" font-family="Times,serif" font-size="14.00">class = Canada</text>
</g>
<!-- 9&#45;&gt;10 -->
<g id="edge10" class="edge">
<title>9&#45;&gt;10</title>
<path fill="none" stroke="black" d="M195.51,-589.83C182.18,-580.52 165.81,-569.07 151.59,-559.13"/>
<polygon fill="black" stroke="black" points="153.27,-556.03 143.06,-553.17 149.26,-561.77 153.27,-556.03"/>
</g>
<!-- 11 -->
<g id="node12" class="node">
<title>11</title>
<polygon fill="none" stroke="black" points="274,-553 187,-553 187,-517 274,-517 274,-553"/>
<text text-anchor="middle" x="230.5" y="-531.3" font-family="Times,serif" font-size="14.00">class = USA</text>
</g>
<!-- 9&#45;&gt;11 -->
<g id="edge11" class="edge">
<title>9&#45;&gt;11</title>
<path fill="none" stroke="black" d="M223.77,-589.83C224.76,-581.89 225.95,-572.41 227.05,-563.63"/>
<polygon fill="black" stroke="black" points="230.56,-563.77 228.32,-553.42 223.61,-562.91 230.56,-563.77"/>
</g>
<!-- 13 -->
<g id="node14" class="node">
<title>13</title>
<polygon fill="none" stroke="black" points="429.5,-554 309.5,-554 309.5,-516 429.5,-516 429.5,-554"/>
<text text-anchor="middle" x="369.5" y="-538.8" font-family="Times,serif" font-size="14.00">latitude &lt;= 43.093</text>
<text text-anchor="middle" x="369.5" y="-523.8" font-family="Times,serif" font-size="14.00">class = Canada</text>
</g>
<!-- 12&#45;&gt;13 -->
<g id="edge13" class="edge">
<title>12&#45;&gt;13</title>
<path fill="none" stroke="black" d="M376.23,-589.83C375.27,-582.13 374.12,-572.97 373.05,-564.42"/>
<polygon fill="black" stroke="black" points="376.52,-563.9 371.8,-554.41 369.57,-564.77 376.52,-563.9"/>
</g>
<!-- 36 -->
<g id="node37" class="node">
<title>36</title>
<polygon fill="none" stroke="black" points="677,-554 542,-554 542,-516 677,-516 677,-554"/>
<text text-anchor="middle" x="609.5" y="-538.8" font-family="Times,serif" font-size="14.00">longitude &lt;= &#45;66.952</text>
<text text-anchor="middle" x="609.5" y="-523.8" font-family="Times,serif" font-size="14.00">class = Canada</text>
</g>
<!-- 12&#45;&gt;36 -->
<g id="edge36" class="edge">
<title>12&#45;&gt;36</title>
<path fill="none" stroke="black" d="M436.49,-589.92C468.48,-579.95 508.38,-567.52 541.79,-557.1"/>
<polygon fill="black" stroke="black" points="542.98,-560.4 551.48,-554.08 540.89,-553.72 542.98,-560.4"/>
</g>
<!-- 14 -->
<g id="node15" class="node">
<title>14</title>
<polygon fill="none" stroke="black" points="291,-480 156,-480 156,-442 291,-442 291,-480"/>
<text text-anchor="middle" x="223.5" y="-464.8" font-family="Times,serif" font-size="14.00">longitude &lt;= &#45;81.845</text>
<text text-anchor="middle" x="223.5" y="-449.8" font-family="Times,serif" font-size="14.00">class = Canada</text>
</g>
<!-- 13&#45;&gt;14 -->
<g id="edge14" class="edge">
<title>13&#45;&gt;14</title>
<path fill="none" stroke="black" d="M332.66,-515.83C313.39,-506.33 289.63,-494.61 269.2,-484.54"/>
<polygon fill="black" stroke="black" points="270.59,-481.32 260.08,-480.04 267.5,-487.6 270.59,-481.32"/>
</g>
<!-- 19 -->
<g id="node20" class="node">
<title>19</title>
<polygon fill="none" stroke="black" points="429.5,-480 309.5,-480 309.5,-442 429.5,-442 429.5,-480"/>
<text text-anchor="middle" x="369.5" y="-464.8" font-family="Times,serif" font-size="14.00">latitude &lt;= 44.992</text>
<text text-anchor="middle" x="369.5" y="-449.8" font-family="Times,serif" font-size="14.00">class = Canada</text>
</g>
<!-- 13&#45;&gt;19 -->
<g id="edge19" class="edge">
<title>13&#45;&gt;19</title>
<path fill="none" stroke="black" d="M369.5,-515.83C369.5,-508.13 369.5,-498.97 369.5,-490.42"/>
<polygon fill="black" stroke="black" points="373,-490.41 369.5,-480.41 366,-490.41 373,-490.41"/>
</g>
<!-- 15 -->
<g id="node16" class="node">
<title>15</title>
<polygon fill="none" stroke="black" points="145,-405 58,-405 58,-369 145,-369 145,-405"/>
<text text-anchor="middle" x="101.5" y="-383.3" font-family="Times,serif" font-size="14.00">class = USA</text>
</g>
<!-- 14&#45;&gt;15 -->
<g id="edge15" class="edge">
<title>14&#45;&gt;15</title>
<path fill="none" stroke="black" d="M192.71,-441.83C176.48,-432.25 156.44,-420.42 139.27,-410.29"/>
<polygon fill="black" stroke="black" points="140.99,-407.24 130.6,-405.17 137.43,-413.27 140.99,-407.24"/>
</g>
<!-- 16 -->
<g id="node17" class="node">
<title>16</title>
<polygon fill="none" stroke="black" points="283.5,-406 163.5,-406 163.5,-368 283.5,-368 283.5,-406"/>
<text text-anchor="middle" x="223.5" y="-390.8" font-family="Times,serif" font-size="14.00">latitude &lt;= 43.039</text>
<text text-anchor="middle" x="223.5" y="-375.8" font-family="Times,serif" font-size="14.00">class = Canada</text>
</g>
<!-- 14&#45;&gt;16 -->
<g id="edge16" class="edge">
<title>14&#45;&gt;16</title>
<path fill="none" stroke="black" d="M223.5,-441.83C223.5,-434.13 223.5,-424.97 223.5,-416.42"/>
<polygon fill="black" stroke="black" points="227,-416.41 223.5,-406.41 220,-416.41 227,-416.41"/>
</g>
<!-- 17 -->
<g id="node18" class="node">
<title>17</title>
<polygon fill="none" stroke="black" points="162,-331 61,-331 61,-295 162,-295 162,-331"/>
<text text-anchor="middle" x="111.5" y="-309.3" font-family="Times,serif" font-size="14.00">class = Canada</text>
</g>
<!-- 16&#45;&gt;17 -->
<g id="edge17" class="edge">
<title>16&#45;&gt;17</title>
<path fill="none" stroke="black" d="M195.24,-367.83C180.61,-358.43 162.61,-346.86 147.05,-336.85"/>
<polygon fill="black" stroke="black" points="148.52,-333.63 138.21,-331.17 144.73,-339.52 148.52,-333.63"/>
</g>
<!-- 18 -->
<g id="node19" class="node">
<title>18</title>
<polygon fill="none" stroke="black" points="267,-331 180,-331 180,-295 267,-295 267,-331"/>
<text text-anchor="middle" x="223.5" y="-309.3" font-family="Times,serif" font-size="14.00">class = USA</text>
</g>
<!-- 16&#45;&gt;18 -->
<g id="edge18" class="edge">
<title>16&#45;&gt;18</title>
<path fill="none" stroke="black" d="M223.5,-367.83C223.5,-359.89 223.5,-350.41 223.5,-341.63"/>
<polygon fill="black" stroke="black" points="227,-341.42 223.5,-331.42 220,-341.42 227,-341.42"/>
</g>
<!-- 20 -->
<g id="node21" class="node">
<title>20</title>
<polygon fill="none" stroke="black" points="428.5,-406 308.5,-406 308.5,-368 428.5,-368 428.5,-406"/>
<text text-anchor="middle" x="368.5" y="-390.8" font-family="Times,serif" font-size="14.00">latitude &lt;= 44.542</text>
<text text-anchor="middle" x="368.5" y="-375.8" font-family="Times,serif" font-size="14.00">class = Canada</text>
</g>
<!-- 19&#45;&gt;20 -->
<g id="edge20" class="edge">
<title>19&#45;&gt;20</title>
<path fill="none" stroke="black" d="M369.25,-441.83C369.14,-434.13 369.01,-424.97 368.89,-416.42"/>
<polygon fill="black" stroke="black" points="372.39,-416.36 368.76,-406.41 365.4,-416.46 372.39,-416.36"/>
</g>
<!-- 35 -->
<g id="node36" class="node">
<title>35</title>
<polygon fill="none" stroke="black" points="548,-405 447,-405 447,-369 548,-369 548,-405"/>
<text text-anchor="middle" x="497.5" y="-383.3" font-family="Times,serif" font-size="14.00">class = Canada</text>
</g>
<!-- 19&#45;&gt;35 -->
<g id="edge35" class="edge">
<title>19&#45;&gt;35</title>
<path fill="none" stroke="black" d="M401.8,-441.83C418.83,-432.25 439.86,-420.42 457.87,-410.29"/>
<polygon fill="black" stroke="black" points="459.97,-413.12 466.97,-405.17 456.54,-407.02 459.97,-413.12"/>
</g>
<!-- 21 -->
<g id="node22" class="node">
<title>21</title>
<polygon fill="none" stroke="black" points="420,-332 285,-332 285,-294 420,-294 420,-332"/>
<text text-anchor="middle" x="352.5" y="-316.8" font-family="Times,serif" font-size="14.00">longitude &lt;= &#45;79.076</text>
<text text-anchor="middle" x="352.5" y="-301.8" font-family="Times,serif" font-size="14.00">class = Canada</text>
</g>
<!-- 20&#45;&gt;21 -->
<g id="edge21" class="edge">
<title>20&#45;&gt;21</title>
<path fill="none" stroke="black" d="M364.46,-367.83C362.75,-360.13 360.72,-350.97 358.81,-342.42"/>
<polygon fill="black" stroke="black" points="362.18,-341.42 356.59,-332.41 355.34,-342.93 362.18,-341.42"/>
</g>
<!-- 30 -->
<g id="node31" class="node">
<title>30</title>
<polygon fill="none" stroke="black" points="558.5,-332 438.5,-332 438.5,-294 558.5,-294 558.5,-332"/>
<text text-anchor="middle" x="498.5" y="-316.8" font-family="Times,serif" font-size="14.00">latitude &lt;= 44.706</text>
<text text-anchor="middle" x="498.5" y="-301.8" font-family="Times,serif" font-size="14.00">class = USA</text>
</g>
<!-- 20&#45;&gt;30 -->
<g id="edge30" class="edge">
<title>20&#45;&gt;30</title>
<path fill="none" stroke="black" d="M401.3,-367.83C418.09,-358.54 438.7,-347.12 456.62,-337.2"/>
<polygon fill="black" stroke="black" points="458.65,-340.07 465.71,-332.16 455.26,-333.95 458.65,-340.07"/>
</g>
<!-- 22 -->
<g id="node23" class="node">
<title>22</title>
<polygon fill="none" stroke="black" points="274,-257 173,-257 173,-221 274,-221 274,-257"/>
<text text-anchor="middle" x="223.5" y="-235.3" font-family="Times,serif" font-size="14.00">class = Canada</text>
</g>
<!-- 21&#45;&gt;22 -->
<g id="edge22" class="edge">
<title>21&#45;&gt;22</title>
<path fill="none" stroke="black" d="M319.95,-293.83C302.79,-284.25 281.59,-272.42 263.44,-262.29"/>
<polygon fill="black" stroke="black" points="264.7,-258.99 254.27,-257.17 261.29,-265.1 264.7,-258.99"/>
</g>
<!-- 23 -->
<g id="node24" class="node">
<title>23</title>
<polygon fill="none" stroke="black" points="412.5,-258 292.5,-258 292.5,-220 412.5,-220 412.5,-258"/>
<text text-anchor="middle" x="352.5" y="-242.8" font-family="Times,serif" font-size="14.00">latitude &lt;= 44.168</text>
<text text-anchor="middle" x="352.5" y="-227.8" font-family="Times,serif" font-size="14.00">class = Canada</text>
</g>
<!-- 21&#45;&gt;23 -->
<g id="edge23" class="edge">
<title>21&#45;&gt;23</title>
<path fill="none" stroke="black" d="M352.5,-293.83C352.5,-286.13 352.5,-276.97 352.5,-268.42"/>
<polygon fill="black" stroke="black" points="356,-268.41 352.5,-258.41 349,-268.41 356,-268.41"/>
</g>
<!-- 24 -->
<g id="node25" class="node">
<title>24</title>
<polygon fill="none" stroke="black" points="290,-184 171,-184 171,-146 290,-146 290,-184"/>
<text text-anchor="middle" x="230.5" y="-168.8" font-family="Times,serif" font-size="14.00">latitude &lt;= 43.511</text>
<text text-anchor="middle" x="230.5" y="-153.8" font-family="Times,serif" font-size="14.00">class = USA</text>
</g>
<!-- 23&#45;&gt;24 -->
<g id="edge24" class="edge">
<title>23&#45;&gt;24</title>
<path fill="none" stroke="black" d="M321.71,-219.83C306.11,-210.62 286.98,-199.33 270.27,-189.47"/>
<polygon fill="black" stroke="black" points="271.67,-186.23 261.28,-184.16 268.11,-192.26 271.67,-186.23"/>
</g>
<!-- 29 -->
<g id="node30" class="node">
<title>29</title>
<polygon fill="none" stroke="black" points="409,-183 308,-183 308,-147 409,-147 409,-183"/>
<text text-anchor="middle" x="358.5" y="-161.3" font-family="Times,serif" font-size="14.00">class = Canada</text>
</g>
<!-- 23&#45;&gt;29 -->
<g id="edge29" class="edge">
<title>23&#45;&gt;29</title>
<path fill="none" stroke="black" d="M354.01,-219.83C354.68,-211.89 355.47,-202.41 356.2,-193.63"/>
<polygon fill="black" stroke="black" points="359.71,-193.67 357.05,-183.42 352.73,-193.09 359.71,-193.67"/>
</g>
<!-- 25 -->
<g id="node26" class="node">
<title>25</title>
<polygon fill="none" stroke="black" points="213,-109 126,-109 126,-73 213,-73 213,-109"/>
<text text-anchor="middle" x="169.5" y="-87.3" font-family="Times,serif" font-size="14.00">class = USA</text>
</g>
<!-- 24&#45;&gt;25 -->
<g id="edge25" class="edge">
<title>24&#45;&gt;25</title>
<path fill="none" stroke="black" d="M215.11,-145.83C207.79,-137.2 198.92,-126.73 190.96,-117.33"/>
<polygon fill="black" stroke="black" points="193.39,-114.79 184.26,-109.42 188.05,-119.31 193.39,-114.79"/>
</g>
<!-- 26 -->
<g id="node27" class="node">
<title>26</title>
<polygon fill="none" stroke="black" points="351.5,-110 231.5,-110 231.5,-72 351.5,-72 351.5,-110"/>
<text text-anchor="middle" x="291.5" y="-94.8" font-family="Times,serif" font-size="14.00">latitude &lt;= 43.988</text>
<text text-anchor="middle" x="291.5" y="-79.8" font-family="Times,serif" font-size="14.00">class = Canada</text>
</g>
<!-- 24&#45;&gt;26 -->
<g id="edge26" class="edge">
<title>24&#45;&gt;26</title>
<path fill="none" stroke="black" d="M245.89,-145.83C252.99,-137.45 261.55,-127.35 269.32,-118.17"/>
<polygon fill="black" stroke="black" points="272.11,-120.31 275.9,-110.41 266.77,-115.78 272.11,-120.31"/>
</g>
<!-- 27 -->
<g id="node28" class="node">
<title>27</title>
<polygon fill="none" stroke="black" points="286,-36 185,-36 185,0 286,0 286,-36"/>
<text text-anchor="middle" x="235.5" y="-14.3" font-family="Times,serif" font-size="14.00">class = Canada</text>
</g>
<!-- 26&#45;&gt;27 -->
<g id="edge27" class="edge">
<title>26&#45;&gt;27</title>
<path fill="none" stroke="black" d="M277.08,-71.72C270.43,-63.29 262.43,-53.15 255.23,-44.02"/>
<polygon fill="black" stroke="black" points="257.85,-41.69 248.91,-36 252.36,-46.02 257.85,-41.69"/>
</g>
<!-- 28 -->
<g id="node29" class="node">
<title>28</title>
<polygon fill="none" stroke="black" points="391,-36 304,-36 304,0 391,0 391,-36"/>
<text text-anchor="middle" x="347.5" y="-14.3" font-family="Times,serif" font-size="14.00">class = USA</text>
</g>
<!-- 26&#45;&gt;28 -->
<g id="edge28" class="edge">
<title>26&#45;&gt;28</title>
<path fill="none" stroke="black" d="M305.92,-71.72C312.57,-63.29 320.57,-53.15 327.77,-44.02"/>
<polygon fill="black" stroke="black" points="330.64,-46.02 334.09,-36 325.15,-41.69 330.64,-46.02"/>
</g>
<!-- 31 -->
<g id="node32" class="node">
<title>31</title>
<polygon fill="none" stroke="black" points="518,-257 431,-257 431,-221 518,-221 518,-257"/>
<text text-anchor="middle" x="474.5" y="-235.3" font-family="Times,serif" font-size="14.00">class = USA</text>
</g>
<!-- 30&#45;&gt;31 -->
<g id="edge31" class="edge">
<title>30&#45;&gt;31</title>
<path fill="none" stroke="black" d="M492.44,-293.83C489.74,-285.72 486.5,-275.99 483.52,-267.05"/>
<polygon fill="black" stroke="black" points="486.79,-265.8 480.31,-257.42 480.15,-268.01 486.79,-265.8"/>
</g>
<!-- 32 -->
<g id="node33" class="node">
<title>32</title>
<polygon fill="none" stroke="black" points="656.5,-258 536.5,-258 536.5,-220 656.5,-220 656.5,-258"/>
<text text-anchor="middle" x="596.5" y="-242.8" font-family="Times,serif" font-size="14.00">latitude &lt;= 44.848</text>
<text text-anchor="middle" x="596.5" y="-227.8" font-family="Times,serif" font-size="14.00">class = Canada</text>
</g>
<!-- 30&#45;&gt;32 -->
<g id="edge32" class="edge">
<title>30&#45;&gt;32</title>
<path fill="none" stroke="black" d="M523.23,-293.83C535.42,-284.88 550.28,-273.96 563.43,-264.3"/>
<polygon fill="black" stroke="black" points="565.79,-266.9 571.78,-258.16 561.65,-261.26 565.79,-266.9"/>
</g>
<!-- 33 -->
<g id="node34" class="node">
<title>33</title>
<polygon fill="none" stroke="black" points="535,-183 434,-183 434,-147 535,-147 535,-183"/>
<text text-anchor="middle" x="484.5" y="-161.3" font-family="Times,serif" font-size="14.00">class = Canada</text>
</g>
<!-- 32&#45;&gt;33 -->
<g id="edge33" class="edge">
<title>32&#45;&gt;33</title>
<path fill="none" stroke="black" d="M568.24,-219.83C553.61,-210.43 535.61,-198.86 520.05,-188.85"/>
<polygon fill="black" stroke="black" points="521.52,-185.63 511.21,-183.17 517.73,-191.52 521.52,-185.63"/>
</g>
<!-- 34 -->
<g id="node35" class="node">
<title>34</title>
<polygon fill="none" stroke="black" points="640,-183 553,-183 553,-147 640,-147 640,-183"/>
<text text-anchor="middle" x="596.5" y="-161.3" font-family="Times,serif" font-size="14.00">class = USA</text>
</g>
<!-- 32&#45;&gt;34 -->
<g id="edge34" class="edge">
<title>32&#45;&gt;34</title>
<path fill="none" stroke="black" d="M596.5,-219.83C596.5,-211.89 596.5,-202.41 596.5,-193.63"/>
<polygon fill="black" stroke="black" points="600,-193.42 596.5,-183.42 593,-193.42 600,-193.42"/>
</g>
<!-- 37 -->
<g id="node38" class="node">
<title>37</title>
<polygon fill="none" stroke="black" points="669.5,-480 549.5,-480 549.5,-442 669.5,-442 669.5,-480"/>
<text text-anchor="middle" x="609.5" y="-464.8" font-family="Times,serif" font-size="14.00">latitude &lt;= 45.195</text>
<text text-anchor="middle" x="609.5" y="-449.8" font-family="Times,serif" font-size="14.00">class = USA</text>
</g>
<!-- 36&#45;&gt;37 -->
<g id="edge37" class="edge">
<title>36&#45;&gt;37</title>
<path fill="none" stroke="black" d="M609.5,-515.83C609.5,-508.13 609.5,-498.97 609.5,-490.42"/>
<polygon fill="black" stroke="black" points="613,-490.41 609.5,-480.41 606,-490.41 613,-490.41"/>
</g>
<!-- 52 -->
<g id="node53" class="node">
<title>52</title>
<polygon fill="none" stroke="black" points="789,-479 688,-479 688,-443 789,-443 789,-479"/>
<text text-anchor="middle" x="738.5" y="-457.3" font-family="Times,serif" font-size="14.00">class = Canada</text>
</g>
<!-- 36&#45;&gt;52 -->
<g id="edge52" class="edge">
<title>36&#45;&gt;52</title>
<path fill="none" stroke="black" d="M642.05,-515.83C659.21,-506.25 680.41,-494.42 698.56,-484.29"/>
<polygon fill="black" stroke="black" points="700.71,-487.1 707.73,-479.17 697.3,-480.99 700.71,-487.1"/>
</g>
<!-- 38 -->
<g id="node39" class="node">
<title>38</title>
<polygon fill="none" stroke="black" points="653,-405 566,-405 566,-369 653,-369 653,-405"/>
<text text-anchor="middle" x="609.5" y="-383.3" font-family="Times,serif" font-size="14.00">class = USA</text>
</g>
<!-- 37&#45;&gt;38 -->
<g id="edge38" class="edge">
<title>37&#45;&gt;38</title>
<path fill="none" stroke="black" d="M609.5,-441.83C609.5,-433.89 609.5,-424.41 609.5,-415.63"/>
<polygon fill="black" stroke="black" points="613,-415.42 609.5,-405.42 606,-415.42 613,-415.42"/>
</g>
<!-- 39 -->
<g id="node40" class="node">
<title>39</title>
<polygon fill="none" stroke="black" points="799.5,-406 671.5,-406 671.5,-368 799.5,-368 799.5,-406"/>
<text text-anchor="middle" x="735.5" y="-390.8" font-family="Times,serif" font-size="14.00">longitude &lt;= &#45;67.93</text>
<text text-anchor="middle" x="735.5" y="-375.8" font-family="Times,serif" font-size="14.00">class = Canada</text>
</g>
<!-- 37&#45;&gt;39 -->
<g id="edge39" class="edge">
<title>37&#45;&gt;39</title>
<path fill="none" stroke="black" d="M641.3,-441.83C657.56,-432.54 677.54,-421.12 694.91,-411.2"/>
<polygon fill="black" stroke="black" points="696.77,-414.16 703.72,-406.16 693.3,-408.09 696.77,-414.16"/>
</g>
<!-- 40 -->
<g id="node41" class="node">
<title>40</title>
<polygon fill="none" stroke="black" points="803,-332 668,-332 668,-294 803,-294 803,-332"/>
<text text-anchor="middle" x="735.5" y="-316.8" font-family="Times,serif" font-size="14.00">longitude &lt;= &#45;68.325</text>
<text text-anchor="middle" x="735.5" y="-301.8" font-family="Times,serif" font-size="14.00">class = USA</text>
</g>
<!-- 39&#45;&gt;40 -->
<g id="edge40" class="edge">
<title>39&#45;&gt;40</title>
<path fill="none" stroke="black" d="M735.5,-367.83C735.5,-360.13 735.5,-350.97 735.5,-342.42"/>
<polygon fill="black" stroke="black" points="739,-342.41 735.5,-332.41 732,-342.41 739,-342.41"/>
</g>
<!-- 47 -->
<g id="node48" class="node">
<title>47</title>
<polygon fill="none" stroke="black" points="1040.5,-332 920.5,-332 920.5,-294 1040.5,-294 1040.5,-332"/>
<text text-anchor="middle" x="980.5" y="-316.8" font-family="Times,serif" font-size="14.00">latitude &lt;= 45.565</text>
<text text-anchor="middle" x="980.5" y="-301.8" font-family="Times,serif" font-size="14.00">class = Canada</text>
</g>
<!-- 39&#45;&gt;47 -->
<g id="edge47" class="edge">
<title>39&#45;&gt;47</title>
<path fill="none" stroke="black" d="M797.01,-367.92C831.47,-357.8 874.58,-345.13 910.36,-334.61"/>
<polygon fill="black" stroke="black" points="911.63,-337.89 920.24,-331.71 909.66,-331.17 911.63,-337.89"/>
</g>
<!-- 41 -->
<g id="node42" class="node">
<title>41</title>
<polygon fill="none" stroke="black" points="795.5,-258 675.5,-258 675.5,-220 795.5,-220 795.5,-258"/>
<text text-anchor="middle" x="735.5" y="-242.8" font-family="Times,serif" font-size="14.00">latitude &lt;= 47.256</text>
<text text-anchor="middle" x="735.5" y="-227.8" font-family="Times,serif" font-size="14.00">class = Canada</text>
</g>
<!-- 40&#45;&gt;41 -->
<g id="edge41" class="edge">
<title>40&#45;&gt;41</title>
<path fill="none" stroke="black" d="M735.5,-293.83C735.5,-286.13 735.5,-276.97 735.5,-268.42"/>
<polygon fill="black" stroke="black" points="739,-268.41 735.5,-258.41 732,-268.41 739,-268.41"/>
</g>
<!-- 46 -->
<g id="node47" class="node">
<title>46</title>
<polygon fill="none" stroke="black" points="901,-257 814,-257 814,-221 901,-221 901,-257"/>
<text text-anchor="middle" x="857.5" y="-235.3" font-family="Times,serif" font-size="14.00">class = USA</text>
</g>
<!-- 40&#45;&gt;46 -->
<g id="edge46" class="edge">
<title>40&#45;&gt;46</title>
<path fill="none" stroke="black" d="M766.29,-293.83C782.52,-284.25 802.56,-272.42 819.73,-262.29"/>
<polygon fill="black" stroke="black" points="821.57,-265.27 828.4,-257.17 818.01,-259.24 821.57,-265.27"/>
</g>
<!-- 42 -->
<g id="node43" class="node">
<title>42</title>
<polygon fill="none" stroke="black" points="759,-183 658,-183 658,-147 759,-147 759,-183"/>
<text text-anchor="middle" x="708.5" y="-161.3" font-family="Times,serif" font-size="14.00">class = Canada</text>
</g>
<!-- 41&#45;&gt;42 -->
<g id="edge42" class="edge">
<title>41&#45;&gt;42</title>
<path fill="none" stroke="black" d="M728.69,-219.83C725.64,-211.72 722,-201.99 718.64,-193.05"/>
<polygon fill="black" stroke="black" points="721.82,-191.55 715.03,-183.42 715.27,-194.01 721.82,-191.55"/>
</g>
<!-- 43 -->
<g id="node44" class="node">
<title>43</title>
<polygon fill="none" stroke="black" points="912,-184 777,-184 777,-146 912,-146 912,-184"/>
<text text-anchor="middle" x="844.5" y="-168.8" font-family="Times,serif" font-size="14.00">longitude &lt;= &#45;68.459</text>
<text text-anchor="middle" x="844.5" y="-153.8" font-family="Times,serif" font-size="14.00">class = USA</text>
</g>
<!-- 41&#45;&gt;43 -->
<g id="edge43" class="edge">
<title>41&#45;&gt;43</title>
<path fill="none" stroke="black" d="M763.01,-219.83C776.82,-210.71 793.73,-199.54 808.55,-189.74"/>
<polygon fill="black" stroke="black" points="810.59,-192.59 817,-184.16 806.73,-186.75 810.59,-192.59"/>
</g>
<!-- 44 -->
<g id="node45" class="node">
<title>44</title>
<polygon fill="none" stroke="black" points="832,-109 745,-109 745,-73 832,-73 832,-109"/>
<text text-anchor="middle" x="788.5" y="-87.3" font-family="Times,serif" font-size="14.00">class = USA</text>
</g>
<!-- 43&#45;&gt;44 -->
<g id="edge44" class="edge">
<title>43&#45;&gt;44</title>
<path fill="none" stroke="black" d="M830.37,-145.83C823.65,-137.2 815.51,-126.73 808.2,-117.33"/>
<polygon fill="black" stroke="black" points="810.95,-115.16 802.05,-109.42 805.42,-119.46 810.95,-115.16"/>
</g>
<!-- 45 -->
<g id="node46" class="node">
<title>45</title>
<polygon fill="none" stroke="black" points="951,-109 850,-109 850,-73 951,-73 951,-109"/>
<text text-anchor="middle" x="900.5" y="-87.3" font-family="Times,serif" font-size="14.00">class = Canada</text>
</g>
<!-- 43&#45;&gt;45 -->
<g id="edge45" class="edge">
<title>43&#45;&gt;45</title>
<path fill="none" stroke="black" d="M858.63,-145.83C865.35,-137.2 873.49,-126.73 880.8,-117.33"/>
<polygon fill="black" stroke="black" points="883.58,-119.46 886.95,-109.42 878.05,-115.16 883.58,-119.46"/>
</g>
<!-- 48 -->
<g id="node49" class="node">
<title>48</title>
<polygon fill="none" stroke="black" points="1040.5,-258 920.5,-258 920.5,-220 1040.5,-220 1040.5,-258"/>
<text text-anchor="middle" x="980.5" y="-242.8" font-family="Times,serif" font-size="14.00">latitude &lt;= 45.382</text>
<text text-anchor="middle" x="980.5" y="-227.8" font-family="Times,serif" font-size="14.00">class = Canada</text>
</g>
<!-- 47&#45;&gt;48 -->
<g id="edge48" class="edge">
<title>47&#45;&gt;48</title>
<path fill="none" stroke="black" d="M980.5,-293.83C980.5,-286.13 980.5,-276.97 980.5,-268.42"/>
<polygon fill="black" stroke="black" points="984,-268.41 980.5,-258.41 977,-268.41 984,-268.41"/>
</g>
<!-- 51 -->
<g id="node52" class="node">
<title>51</title>
<polygon fill="none" stroke="black" points="1160,-257 1059,-257 1059,-221 1160,-221 1160,-257"/>
<text text-anchor="middle" x="1109.5" y="-235.3" font-family="Times,serif" font-size="14.00">class = Canada</text>
</g>
<!-- 47&#45;&gt;51 -->
<g id="edge51" class="edge">
<title>47&#45;&gt;51</title>
<path fill="none" stroke="black" d="M1013.05,-293.83C1030.21,-284.25 1051.41,-272.42 1069.56,-262.29"/>
<polygon fill="black" stroke="black" points="1071.71,-265.1 1078.73,-257.17 1068.3,-258.99 1071.71,-265.1"/>
</g>
<!-- 49 -->
<g id="node50" class="node">
<title>49</title>
<polygon fill="none" stroke="black" points="1031,-183 930,-183 930,-147 1031,-147 1031,-183"/>
<text text-anchor="middle" x="980.5" y="-161.3" font-family="Times,serif" font-size="14.00">class = Canada</text>
</g>
<!-- 48&#45;&gt;49 -->
<g id="edge49" class="edge">
<title>48&#45;&gt;49</title>
<path fill="none" stroke="black" d="M980.5,-219.83C980.5,-211.89 980.5,-202.41 980.5,-193.63"/>
<polygon fill="black" stroke="black" points="984,-193.42 980.5,-183.42 977,-193.42 984,-193.42"/>
</g>
<!-- 50 -->
<g id="node51" class="node">
<title>50</title>
<polygon fill="none" stroke="black" points="1136,-183 1049,-183 1049,-147 1136,-147 1136,-183"/>
<text text-anchor="middle" x="1092.5" y="-161.3" font-family="Times,serif" font-size="14.00">class = USA</text>
</g>
<!-- 48&#45;&gt;50 -->
<g id="edge50" class="edge">
<title>48&#45;&gt;50</title>
<path fill="none" stroke="black" d="M1008.76,-219.83C1023.39,-210.43 1041.39,-198.86 1056.95,-188.85"/>
<polygon fill="black" stroke="black" points="1059.27,-191.52 1065.79,-183.17 1055.48,-185.63 1059.27,-191.52"/>
</g>
</g>
</svg>
