<?xml version="1.0" encoding="UTF-8" standalone="no"?>
<!DOCTYPE svg PUBLIC "-//W3C//DTD SVG 1.1//EN"
 "http://www.w3.org/Graphics/SVG/1.1/DTD/svg11.dtd">
<!-- Generated by graphviz version 2.48.0 (0)
 -->
<!-- Title: Tree Pages: 1 -->
<svg width="1120pt" height="932pt"
 viewBox="0.00 0.00 1120.00 932.00" xmlns="http://www.w3.org/2000/svg" xmlns:xlink="http://www.w3.org/1999/xlink">
<g id="graph0" class="graph" transform="scale(1 1) rotate(0) translate(4 928)">
<title>Tree</title>
<polygon fill="white" stroke="transparent" points="-4,4 -4,-928 1116,-928 1116,4 -4,4"/>
<!-- 0 -->
<g id="node1" class="node">
<title>0</title>
<polygon fill="none" stroke="black" points="299.5,-924 193.5,-924 193.5,-886 299.5,-886 299.5,-924"/>
<text text-anchor="middle" x="246.5" y="-908.8" font-family="Times,serif" font-size="14.00">latitude &lt;= 42.9</text>
<text text-anchor="middle" x="246.5" y="-893.8" font-family="Times,serif" font-size="14.00">class = Canada</text>
</g>
<!-- 1 -->
<g id="node2" class="node">
<title>1</title>
<polygon fill="none" stroke="black" points="232.5,-850 112.5,-850 112.5,-812 232.5,-812 232.5,-850"/>
<text text-anchor="middle" x="172.5" y="-834.8" font-family="Times,serif" font-size="14.00">latitude &lt;= 42.096</text>
<text text-anchor="middle" x="172.5" y="-819.8" font-family="Times,serif" font-size="14.00">class = USA</text>
</g>
<!-- 0&#45;&gt;1 -->
<g id="edge1" class="edge">
<title>0&#45;&gt;1</title>
<path fill="none" stroke="black" d="M227.83,-885.83C218.98,-877.22 208.25,-866.79 198.61,-857.4"/>
<polygon fill="black" stroke="black" points="200.78,-854.63 191.17,-850.16 195.89,-859.64 200.78,-854.63"/>
<text text-anchor="middle" x="191.51" y="-871.46" font-family="Times,serif" font-size="14.00">True</text>
</g>
<!-- 6 -->
<g id="node7" class="node">
<title>6</title>
<polygon fill="none" stroke="black" points="392.5,-850 250.5,-850 250.5,-812 392.5,-812 392.5,-850"/>
<text text-anchor="middle" x="321.5" y="-834.8" font-family="Times,serif" font-size="14.00">longitude &lt;= &#45;130.017</text>
<text text-anchor="middle" x="321.5" y="-819.8" font-family="Times,serif" font-size="14.00">class = Canada</text>
</g>
<!-- 0&#45;&gt;6 -->
<g id="edge6" class="edge">
<title>0&#45;&gt;6</title>
<path fill="none" stroke="black" d="M265.43,-885.83C274.49,-877.13 285.48,-866.58 295.33,-857.13"/>
<polygon fill="black" stroke="black" points="297.79,-859.61 302.58,-850.16 292.94,-854.56 297.79,-859.61"/>
<text text-anchor="middle" x="302.07" y="-871.46" font-family="Times,serif" font-size="14.00">False</text>
</g>
<!-- 2 -->
<g id="node3" class="node">
<title>2</title>
<polygon fill="none" stroke="black" points="99,-775 12,-775 12,-739 99,-739 99,-775"/>
<text text-anchor="middle" x="55.5" y="-753.3" font-family="Times,serif" font-size="14.00">class = USA</text>
</g>
<!-- 1&#45;&gt;2 -->
<g id="edge2" class="edge">
<title>1&#45;&gt;2</title>
<path fill="none" stroke="black" d="M142.98,-811.83C127.55,-802.34 108.54,-790.64 92.18,-780.57"/>
<polygon fill="black" stroke="black" points="93.75,-777.43 83.4,-775.17 90.09,-783.39 93.75,-777.43"/>
</g>
<!-- 3 -->
<g id="node4" class="node">
<title>3</title>
<polygon fill="none" stroke="black" points="237.5,-776 117.5,-776 117.5,-738 237.5,-738 237.5,-776"/>
<text text-anchor="middle" x="177.5" y="-760.8" font-family="Times,serif" font-size="14.00">latitude &lt;= 42.324</text>
<text text-anchor="middle" x="177.5" y="-745.8" font-family="Times,serif" font-size="14.00">class = USA</text>
</g>
<!-- 1&#45;&gt;3 -->
<g id="edge3" class="edge">
<title>1&#45;&gt;3</title>
<path fill="none" stroke="black" d="M173.76,-811.83C174.3,-804.13 174.93,-794.97 175.53,-786.42"/>
<polygon fill="black" stroke="black" points="179.02,-786.63 176.22,-776.41 172.04,-786.15 179.02,-786.63"/>
</g>
<!-- 4 -->
<g id="node5" class="node">
<title>4</title>
<polygon fill="none" stroke="black" points="221,-701 120,-701 120,-665 221,-665 221,-701"/>
<text text-anchor="middle" x="170.5" y="-679.3" font-family="Times,serif" font-size="14.00">class = Canada</text>
</g>
<!-- 3&#45;&gt;4 -->
<g id="edge4" class="edge">
<title>3&#45;&gt;4</title>
<path fill="none" stroke="black" d="M175.73,-737.83C174.96,-729.89 174.04,-720.41 173.19,-711.63"/>
<polygon fill="black" stroke="black" points="176.64,-711.03 172.19,-701.42 169.68,-711.71 176.64,-711.03"/>
</g>
<!-- 5 -->
<g id="node6" class="node">
<title>5</title>
<polygon fill="none" stroke="black" points="326,-701 239,-701 239,-665 326,-665 326,-701"/>
<text text-anchor="middle" x="282.5" y="-679.3" font-family="Times,serif" font-size="14.00">class = USA</text>
</g>
<!-- 3&#45;&gt;5 -->
<g id="edge5" class="edge">
<title>3&#45;&gt;5</title>
<path fill="none" stroke="black" d="M204,-737.83C217.71,-728.43 234.59,-716.86 249.17,-706.85"/>
<polygon fill="black" stroke="black" points="251.19,-709.71 257.46,-701.17 247.23,-703.94 251.19,-709.71"/>
</g>
<!-- 7 -->
<g id="node8" class="node">
<title>7</title>
<polygon fill="none" stroke="black" points="356,-775 269,-775 269,-739 356,-739 356,-775"/>
<text text-anchor="middle" x="312.5" y="-753.3" font-family="Times,serif" font-size="14.00">class = USA</text>
</g>
<!-- 6&#45;&gt;7 -->
<g id="edge7" class="edge">
<title>6&#45;&gt;7</title>
<path fill="none" stroke="black" d="M319.23,-811.83C318.24,-803.89 317.05,-794.41 315.95,-785.63"/>
<polygon fill="black" stroke="black" points="319.39,-784.91 314.68,-775.42 312.44,-785.77 319.39,-784.91"/>
</g>
<!-- 8 -->
<g id="node9" class="node">
<title>8</title>
<polygon fill="none" stroke="black" points="480.5,-776 374.5,-776 374.5,-738 480.5,-738 480.5,-776"/>
<text text-anchor="middle" x="427.5" y="-760.8" font-family="Times,serif" font-size="14.00">latitude &lt;= 49.0</text>
<text text-anchor="middle" x="427.5" y="-745.8" font-family="Times,serif" font-size="14.00">class = Canada</text>
</g>
<!-- 6&#45;&gt;8 -->
<g id="edge8" class="edge">
<title>6&#45;&gt;8</title>
<path fill="none" stroke="black" d="M348.25,-811.83C361.56,-802.79 377.82,-791.75 392.14,-782.02"/>
<polygon fill="black" stroke="black" points="394.45,-784.68 400.76,-776.16 390.52,-778.89 394.45,-784.68"/>
</g>
<!-- 9 -->
<g id="node10" class="node">
<title>9</title>
<polygon fill="none" stroke="black" points="490,-702 355,-702 355,-664 490,-664 490,-702"/>
<text text-anchor="middle" x="422.5" y="-686.8" font-family="Times,serif" font-size="14.00">longitude &lt;= &#45;94.582</text>
<text text-anchor="middle" x="422.5" y="-671.8" font-family="Times,serif" font-size="14.00">class = Canada</text>
</g>
<!-- 8&#45;&gt;9 -->
<g id="edge9" class="edge">
<title>8&#45;&gt;9</title>
<path fill="none" stroke="black" d="M426.24,-737.83C425.7,-730.13 425.07,-720.97 424.47,-712.42"/>
<polygon fill="black" stroke="black" points="427.96,-712.15 423.78,-702.41 420.98,-712.63 427.96,-712.15"/>
</g>
<!-- 56 -->
<g id="node57" class="node">
<title>56</title>
<polygon fill="none" stroke="black" points="609,-701 508,-701 508,-665 609,-665 609,-701"/>
<text text-anchor="middle" x="558.5" y="-679.3" font-family="Times,serif" font-size="14.00">class = Canada</text>
</g>
<!-- 8&#45;&gt;56 -->
<g id="edge56" class="edge">
<title>8&#45;&gt;56</title>
<path fill="none" stroke="black" d="M460.56,-737.83C478.14,-728.17 499.91,-716.2 518.45,-706.01"/>
<polygon fill="black" stroke="black" points="520.18,-709.06 527.26,-701.17 516.81,-702.92 520.18,-709.06"/>
</g>
<!-- 10 -->
<g id="node11" class="node">
<title>10</title>
<polygon fill="none" stroke="black" points="415.5,-628 273.5,-628 273.5,-590 415.5,-590 415.5,-628"/>
<text text-anchor="middle" x="344.5" y="-612.8" font-family="Times,serif" font-size="14.00">longitude &lt;= &#45;123.222</text>
<text text-anchor="middle" x="344.5" y="-597.8" font-family="Times,serif" font-size="14.00">class = USA</text>
</g>
<!-- 9&#45;&gt;10 -->
<g id="edge10" class="edge">
<title>9&#45;&gt;10</title>
<path fill="none" stroke="black" d="M402.82,-663.83C393.39,-655.13 381.96,-644.58 371.72,-635.13"/>
<polygon fill="black" stroke="black" points="373.9,-632.37 364.18,-628.16 369.15,-637.52 373.9,-632.37"/>
</g>
<!-- 13 -->
<g id="node14" class="node">
<title>13</title>
<polygon fill="none" stroke="black" points="569,-628 434,-628 434,-590 569,-590 569,-628"/>
<text text-anchor="middle" x="501.5" y="-612.8" font-family="Times,serif" font-size="14.00">longitude &lt;= &#45;69.246</text>
<text text-anchor="middle" x="501.5" y="-597.8" font-family="Times,serif" font-size="14.00">class = Canada</text>
</g>
<!-- 9&#45;&gt;13 -->
<g id="edge13" class="edge">
<title>9&#45;&gt;13</title>
<path fill="none" stroke="black" d="M442.44,-663.83C451.98,-655.13 463.56,-644.58 473.93,-635.13"/>
<polygon fill="black" stroke="black" points="476.54,-637.49 481.57,-628.16 471.82,-632.31 476.54,-637.49"/>
</g>
<!-- 11 -->
<g id="node12" class="node">
<title>11</title>
<polygon fill="none" stroke="black" points="292,-553 191,-553 191,-517 292,-517 292,-553"/>
<text text-anchor="middle" x="241.5" y="-531.3" font-family="Times,serif" font-size="14.00">class = Canada</text>
</g>
<!-- 10&#45;&gt;11 -->
<g id="edge11" class="edge">
<title>10&#45;&gt;11</title>
<path fill="none" stroke="black" d="M318.51,-589.83C305.18,-580.52 288.81,-569.07 274.59,-559.13"/>
<polygon fill="black" stroke="black" points="276.27,-556.03 266.06,-553.17 272.26,-561.77 276.27,-556.03"/>
</g>
<!-- 12 -->
<g id="node13" class="node">
<title>12</title>
<polygon fill="none" stroke="black" points="397,-553 310,-553 310,-517 397,-517 397,-553"/>
<text text-anchor="middle" x="353.5" y="-531.3" font-family="Times,serif" font-size="14.00">class = USA</text>
</g>
<!-- 10&#45;&gt;12 -->
<g id="edge12" class="edge">
<title>10&#45;&gt;12</title>
<path fill="none" stroke="black" d="M346.77,-589.83C347.76,-581.89 348.95,-572.41 350.05,-563.63"/>
<polygon fill="black" stroke="black" points="353.56,-563.77 351.32,-553.42 346.61,-562.91 353.56,-563.77"/>
</g>
<!-- 14 -->
<g id="node15" class="node">
<title>14</title>
<polygon fill="none" stroke="black" points="552.5,-554 432.5,-554 432.5,-516 552.5,-516 552.5,-554"/>
<text text-anchor="middle" x="492.5" y="-538.8" font-family="Times,serif" font-size="14.00">latitude &lt;= 43.093</text>
<text text-anchor="middle" x="492.5" y="-523.8" font-family="Times,serif" font-size="14.00">class = Canada</text>
</g>
<!-- 13&#45;&gt;14 -->
<g id="edge14" class="edge">
<title>13&#45;&gt;14</title>
<path fill="none" stroke="black" d="M499.23,-589.83C498.27,-582.13 497.12,-572.97 496.05,-564.42"/>
<polygon fill="black" stroke="black" points="499.52,-563.9 494.8,-554.41 492.57,-564.77 499.52,-563.9"/>
</g>
<!-- 37 -->
<g id="node38" class="node">
<title>37</title>
<polygon fill="none" stroke="black" points="759,-554 624,-554 624,-516 759,-516 759,-554"/>
<text text-anchor="middle" x="691.5" y="-538.8" font-family="Times,serif" font-size="14.00">longitude &lt;= &#45;66.952</text>
<text text-anchor="middle" x="691.5" y="-523.8" font-family="Times,serif" font-size="14.00">class = Canada</text>
</g>
<!-- 13&#45;&gt;37 -->
<g id="edge37" class="edge">
<title>13&#45;&gt;37</title>
<path fill="none" stroke="black" d="M549.45,-589.83C575.31,-580.03 607.4,-567.87 634.53,-557.59"/>
<polygon fill="black" stroke="black" points="635.79,-560.85 643.9,-554.04 633.31,-554.31 635.79,-560.85"/>
</g>
<!-- 15 -->
<g id="node16" class="node">
<title>15</title>
<polygon fill="none" stroke="black" points="350.5,-480 230.5,-480 230.5,-442 350.5,-442 350.5,-480"/>
<text text-anchor="middle" x="290.5" y="-464.8" font-family="Times,serif" font-size="14.00">latitude &lt;= 43.014</text>
<text text-anchor="middle" x="290.5" y="-449.8" font-family="Times,serif" font-size="14.00">class = Canada</text>
</g>
<!-- 14&#45;&gt;15 -->
<g id="edge15" class="edge">
<title>14&#45;&gt;15</title>
<path fill="none" stroke="black" d="M441.79,-515.92C414.17,-506.08 379.82,-493.84 350.84,-483.51"/>
<polygon fill="black" stroke="black" points="351.83,-480.14 341.23,-480.08 349.48,-486.74 351.83,-480.14"/>
</g>
<!-- 20 -->
<g id="node21" class="node">
<title>20</title>
<polygon fill="none" stroke="black" points="552.5,-480 432.5,-480 432.5,-442 552.5,-442 552.5,-480"/>
<text text-anchor="middle" x="492.5" y="-464.8" font-family="Times,serif" font-size="14.00">latitude &lt;= 44.992</text>
<text text-anchor="middle" x="492.5" y="-449.8" font-family="Times,serif" font-size="14.00">class = Canada</text>
</g>
<!-- 14&#45;&gt;20 -->
<g id="edge20" class="edge">
<title>14&#45;&gt;20</title>
<path fill="none" stroke="black" d="M492.5,-515.83C492.5,-508.13 492.5,-498.97 492.5,-490.42"/>
<polygon fill="black" stroke="black" points="496,-490.41 492.5,-480.41 489,-490.41 496,-490.41"/>
</g>
<!-- 16 -->
<g id="node17" class="node">
<title>16</title>
<polygon fill="none" stroke="black" points="223,-406 88,-406 88,-368 223,-368 223,-406"/>
<text text-anchor="middle" x="155.5" y="-390.8" font-family="Times,serif" font-size="14.00">longitude &lt;= &#45;81.845</text>
<text text-anchor="middle" x="155.5" y="-375.8" font-family="Times,serif" font-size="14.00">class = Canada</text>
</g>
<!-- 15&#45;&gt;16 -->
<g id="edge16" class="edge">
<title>15&#45;&gt;16</title>
<path fill="none" stroke="black" d="M256.43,-441.83C238.85,-432.45 217.21,-420.91 198.48,-410.92"/>
<polygon fill="black" stroke="black" points="200.03,-407.78 189.56,-406.16 196.73,-413.96 200.03,-407.78"/>
</g>
<!-- 19 -->
<g id="node20" class="node">
<title>19</title>
<polygon fill="none" stroke="black" points="334,-405 247,-405 247,-369 334,-369 334,-405"/>
<text text-anchor="middle" x="290.5" y="-383.3" font-family="Times,serif" font-size="14.00">class = USA</text>
</g>
<!-- 15&#45;&gt;19 -->
<g id="edge19" class="edge">
<title>15&#45;&gt;19</title>
<path fill="none" stroke="black" d="M290.5,-441.83C290.5,-433.89 290.5,-424.41 290.5,-415.63"/>
<polygon fill="black" stroke="black" points="294,-415.42 290.5,-405.42 287,-415.42 294,-415.42"/>
</g>
<!-- 17 -->
<g id="node18" class="node">
<title>17</title>
<polygon fill="none" stroke="black" points="87,-331 0,-331 0,-295 87,-295 87,-331"/>
<text text-anchor="middle" x="43.5" y="-309.3" font-family="Times,serif" font-size="14.00">class = USA</text>
</g>
<!-- 16&#45;&gt;17 -->
<g id="edge17" class="edge">
<title>16&#45;&gt;17</title>
<path fill="none" stroke="black" d="M127.24,-367.83C112.61,-358.43 94.61,-346.86 79.05,-336.85"/>
<polygon fill="black" stroke="black" points="80.52,-333.63 70.21,-331.17 76.73,-339.52 80.52,-333.63"/>
</g>
<!-- 18 -->
<g id="node19" class="node">
<title>18</title>
<polygon fill="none" stroke="black" points="206,-331 105,-331 105,-295 206,-295 206,-331"/>
<text text-anchor="middle" x="155.5" y="-309.3" font-family="Times,serif" font-size="14.00">class = Canada</text>
</g>
<!-- 16&#45;&gt;18 -->
<g id="edge18" class="edge">
<title>16&#45;&gt;18</title>
<path fill="none" stroke="black" d="M155.5,-367.83C155.5,-359.89 155.5,-350.41 155.5,-341.63"/>
<polygon fill="black" stroke="black" points="159,-341.42 155.5,-331.42 152,-341.42 159,-341.42"/>
</g>
<!-- 21 -->
<g id="node22" class="node">
<title>21</title>
<polygon fill="none" stroke="black" points="486.5,-406 366.5,-406 366.5,-368 486.5,-368 486.5,-406"/>
<text text-anchor="middle" x="426.5" y="-390.8" font-family="Times,serif" font-size="14.00">latitude &lt;= 44.542</text>
<text text-anchor="middle" x="426.5" y="-375.8" font-family="Times,serif" font-size="14.00">class = Canada</text>
</g>
<!-- 20&#45;&gt;21 -->
<g id="edge21" class="edge">
<title>20&#45;&gt;21</title>
<path fill="none" stroke="black" d="M475.85,-441.83C468.09,-433.37 458.72,-423.15 450.24,-413.9"/>
<polygon fill="black" stroke="black" points="452.72,-411.42 443.38,-406.41 447.56,-416.15 452.72,-411.42"/>
</g>
<!-- 36 -->
<g id="node37" class="node">
<title>36</title>
<polygon fill="none" stroke="black" points="606,-405 505,-405 505,-369 606,-369 606,-405"/>
<text text-anchor="middle" x="555.5" y="-383.3" font-family="Times,serif" font-size="14.00">class = Canada</text>
</g>
<!-- 20&#45;&gt;36 -->
<g id="edge36" class="edge">
<title>20&#45;&gt;36</title>
<path fill="none" stroke="black" d="M508.4,-441.83C516.03,-433.11 525.3,-422.52 533.58,-413.05"/>
<polygon fill="black" stroke="black" points="536.31,-415.25 540.26,-405.42 531.04,-410.64 536.31,-415.25"/>
</g>
<!-- 22 -->
<g id="node23" class="node">
<title>22</title>
<polygon fill="none" stroke="black" points="359,-332 224,-332 224,-294 359,-294 359,-332"/>
<text text-anchor="middle" x="291.5" y="-316.8" font-family="Times,serif" font-size="14.00">longitude &lt;= &#45;79.076</text>
<text text-anchor="middle" x="291.5" y="-301.8" font-family="Times,serif" font-size="14.00">class = Canada</text>
</g>
<!-- 21&#45;&gt;22 -->
<g id="edge22" class="edge">
<title>21&#45;&gt;22</title>
<path fill="none" stroke="black" d="M392.43,-367.83C374.85,-358.45 353.21,-346.91 334.48,-336.92"/>
<polygon fill="black" stroke="black" points="336.03,-333.78 325.56,-332.16 332.73,-339.96 336.03,-333.78"/>
</g>
<!-- 31 -->
<g id="node32" class="node">
<title>31</title>
<polygon fill="none" stroke="black" points="497.5,-332 377.5,-332 377.5,-294 497.5,-294 497.5,-332"/>
<text text-anchor="middle" x="437.5" y="-316.8" font-family="Times,serif" font-size="14.00">latitude &lt;= 44.706</text>
<text text-anchor="middle" x="437.5" y="-301.8" font-family="Times,serif" font-size="14.00">class = USA</text>
</g>
<!-- 21&#45;&gt;31 -->
<g id="edge31" class="edge">
<title>21&#45;&gt;31</title>
<path fill="none" stroke="black" d="M429.28,-367.83C430.45,-360.13 431.85,-350.97 433.16,-342.42"/>
<polygon fill="black" stroke="black" points="436.64,-342.83 434.69,-332.41 429.72,-341.77 436.64,-342.83"/>
</g>
<!-- 23 -->
<g id="node24" class="node">
<title>23</title>
<polygon fill="none" stroke="black" points="213,-257 112,-257 112,-221 213,-221 213,-257"/>
<text text-anchor="middle" x="162.5" y="-235.3" font-family="Times,serif" font-size="14.00">class = Canada</text>
</g>
<!-- 22&#45;&gt;23 -->
<g id="edge23" class="edge">
<title>22&#45;&gt;23</title>
<path fill="none" stroke="black" d="M258.95,-293.83C241.79,-284.25 220.59,-272.42 202.44,-262.29"/>
<polygon fill="black" stroke="black" points="203.7,-258.99 193.27,-257.17 200.29,-265.1 203.7,-258.99"/>
</g>
<!-- 24 -->
<g id="node25" class="node">
<title>24</title>
<polygon fill="none" stroke="black" points="351.5,-258 231.5,-258 231.5,-220 351.5,-220 351.5,-258"/>
<text text-anchor="middle" x="291.5" y="-242.8" font-family="Times,serif" font-size="14.00">latitude &lt;= 44.168</text>
<text text-anchor="middle" x="291.5" y="-227.8" font-family="Times,serif" font-size="14.00">class = Canada</text>
</g>
<!-- 22&#45;&gt;24 -->
<g id="edge24" class="edge">
<title>22&#45;&gt;24</title>
<path fill="none" stroke="black" d="M291.5,-293.83C291.5,-286.13 291.5,-276.97 291.5,-268.42"/>
<polygon fill="black" stroke="black" points="295,-268.41 291.5,-258.41 288,-268.41 295,-268.41"/>
</g>
<!-- 25 -->
<g id="node26" class="node">
<title>25</title>
<polygon fill="none" stroke="black" points="228.5,-184 100.5,-184 100.5,-146 228.5,-146 228.5,-184"/>
<text text-anchor="middle" x="164.5" y="-168.8" font-family="Times,serif" font-size="14.00">longitude &lt;= &#45;79.03</text>
<text text-anchor="middle" x="164.5" y="-153.8" font-family="Times,serif" font-size="14.00">class = USA</text>
</g>
<!-- 24&#45;&gt;25 -->
<g id="edge25" class="edge">
<title>24&#45;&gt;25</title>
<path fill="none" stroke="black" d="M259.45,-219.83C243.06,-210.54 222.92,-199.12 205.42,-189.2"/>
<polygon fill="black" stroke="black" points="206.96,-186.05 196.54,-184.16 203.51,-192.14 206.96,-186.05"/>
</g>
<!-- 30 -->
<g id="node31" class="node">
<title>30</title>
<polygon fill="none" stroke="black" points="348,-183 247,-183 247,-147 348,-147 348,-183"/>
<text text-anchor="middle" x="297.5" y="-161.3" font-family="Times,serif" font-size="14.00">class = Canada</text>
</g>
<!-- 24&#45;&gt;30 -->
<g id="edge30" class="edge">
<title>24&#45;&gt;30</title>
<path fill="none" stroke="black" d="M293.01,-219.83C293.68,-211.89 294.47,-202.41 295.2,-193.63"/>
<polygon fill="black" stroke="black" points="298.71,-193.67 296.05,-183.42 291.73,-193.09 298.71,-193.67"/>
</g>
<!-- 26 -->
<g id="node27" class="node">
<title>26</title>
<polygon fill="none" stroke="black" points="144,-109 57,-109 57,-73 144,-73 144,-109"/>
<text text-anchor="middle" x="100.5" y="-87.3" font-family="Times,serif" font-size="14.00">class = USA</text>
</g>
<!-- 25&#45;&gt;26 -->
<g id="edge26" class="edge">
<title>25&#45;&gt;26</title>
<path fill="none" stroke="black" d="M148.35,-145.83C140.6,-137.11 131.18,-126.52 122.76,-117.05"/>
<polygon fill="black" stroke="black" points="125.24,-114.57 115.98,-109.42 120.01,-119.22 125.24,-114.57"/>
</g>
<!-- 27 -->
<g id="node28" class="node">
<title>27</title>
<polygon fill="none" stroke="black" points="297,-110 162,-110 162,-72 297,-72 297,-110"/>
<text text-anchor="middle" x="229.5" y="-94.8" font-family="Times,serif" font-size="14.00">longitude &lt;= &#45;77.678</text>
<text text-anchor="middle" x="229.5" y="-79.8" font-family="Times,serif" font-size="14.00">class = Canada</text>
</g>
<!-- 25&#45;&gt;27 -->
<g id="edge27" class="edge">
<title>25&#45;&gt;27</title>
<path fill="none" stroke="black" d="M180.9,-145.83C188.54,-137.37 197.77,-127.15 206.12,-117.9"/>
<polygon fill="black" stroke="black" points="208.77,-120.18 212.88,-110.41 203.58,-115.49 208.77,-120.18"/>
</g>
<!-- 28 -->
<g id="node29" class="node">
<title>28</title>
<polygon fill="none" stroke="black" points="224,-36 123,-36 123,0 224,0 224,-36"/>
<text text-anchor="middle" x="173.5" y="-14.3" font-family="Times,serif" font-size="14.00">class = Canada</text>
</g>
<!-- 27&#45;&gt;28 -->
<g id="edge28" class="edge">
<title>27&#45;&gt;28</title>
<path fill="none" stroke="black" d="M215.08,-71.72C208.43,-63.29 200.43,-53.15 193.23,-44.02"/>
<polygon fill="black" stroke="black" points="195.85,-41.69 186.91,-36 190.36,-46.02 195.85,-41.69"/>
</g>
<!-- 29 -->
<g id="node30" class="node">
<title>29</title>
<polygon fill="none" stroke="black" points="329,-36 242,-36 242,0 329,0 329,-36"/>
<text text-anchor="middle" x="285.5" y="-14.3" font-family="Times,serif" font-size="14.00">class = USA</text>
</g>
<!-- 27&#45;&gt;29 -->
<g id="edge29" class="edge">
<title>27&#45;&gt;29</title>
<path fill="none" stroke="black" d="M243.92,-71.72C250.57,-63.29 258.57,-53.15 265.77,-44.02"/>
<polygon fill="black" stroke="black" points="268.64,-46.02 272.09,-36 263.15,-41.69 268.64,-46.02"/>
</g>
<!-- 32 -->
<g id="node33" class="node">
<title>32</title>
<polygon fill="none" stroke="black" points="457,-257 370,-257 370,-221 457,-221 457,-257"/>
<text text-anchor="middle" x="413.5" y="-235.3" font-family="Times,serif" font-size="14.00">class = USA</text>
</g>
<!-- 31&#45;&gt;32 -->
<g id="edge32" class="edge">
<title>31&#45;&gt;32</title>
<path fill="none" stroke="black" d="M431.44,-293.83C428.74,-285.72 425.5,-275.99 422.52,-267.05"/>
<polygon fill="black" stroke="black" points="425.79,-265.8 419.31,-257.42 419.15,-268.01 425.79,-265.8"/>
</g>
<!-- 33 -->
<g id="node34" class="node">
<title>33</title>
<polygon fill="none" stroke="black" points="595.5,-258 475.5,-258 475.5,-220 595.5,-220 595.5,-258"/>
<text text-anchor="middle" x="535.5" y="-242.8" font-family="Times,serif" font-size="14.00">latitude &lt;= 44.848</text>
<text text-anchor="middle" x="535.5" y="-227.8" font-family="Times,serif" font-size="14.00">class = Canada</text>
</g>
<!-- 31&#45;&gt;33 -->
<g id="edge33" class="edge">
<title>31&#45;&gt;33</title>
<path fill="none" stroke="black" d="M462.23,-293.83C474.42,-284.88 489.28,-273.96 502.43,-264.3"/>
<polygon fill="black" stroke="black" points="504.79,-266.9 510.78,-258.16 500.65,-261.26 504.79,-266.9"/>
</g>
<!-- 34 -->
<g id="node35" class="node">
<title>34</title>
<polygon fill="none" stroke="black" points="477,-183 376,-183 376,-147 477,-147 477,-183"/>
<text text-anchor="middle" x="426.5" y="-161.3" font-family="Times,serif" font-size="14.00">class = Canada</text>
</g>
<!-- 33&#45;&gt;34 -->
<g id="edge34" class="edge">
<title>33&#45;&gt;34</title>
<path fill="none" stroke="black" d="M507.99,-219.83C493.76,-210.43 476.24,-198.86 461.09,-188.85"/>
<polygon fill="black" stroke="black" points="462.77,-185.76 452.5,-183.17 458.91,-191.6 462.77,-185.76"/>
</g>
<!-- 35 -->
<g id="node36" class="node">
<title>35</title>
<polygon fill="none" stroke="black" points="582,-183 495,-183 495,-147 582,-147 582,-183"/>
<text text-anchor="middle" x="538.5" y="-161.3" font-family="Times,serif" font-size="14.00">class = USA</text>
</g>
<!-- 33&#45;&gt;35 -->
<g id="edge35" class="edge">
<title>33&#45;&gt;35</title>
<path fill="none" stroke="black" d="M536.26,-219.83C536.59,-211.89 536.98,-202.41 537.35,-193.63"/>
<polygon fill="black" stroke="black" points="540.85,-193.55 537.77,-183.42 533.86,-193.26 540.85,-193.55"/>
</g>
<!-- 38 -->
<g id="node39" class="node">
<title>38</title>
<polygon fill="none" stroke="black" points="759,-480 624,-480 624,-442 759,-442 759,-480"/>
<text text-anchor="middle" x="691.5" y="-464.8" font-family="Times,serif" font-size="14.00">longitude &lt;= &#45;67.279</text>
<text text-anchor="middle" x="691.5" y="-449.8" font-family="Times,serif" font-size="14.00">class = USA</text>
</g>
<!-- 37&#45;&gt;38 -->
<g id="edge38" class="edge">
<title>37&#45;&gt;38</title>
<path fill="none" stroke="black" d="M691.5,-515.83C691.5,-508.13 691.5,-498.97 691.5,-490.42"/>
<polygon fill="black" stroke="black" points="695,-490.41 691.5,-480.41 688,-490.41 695,-490.41"/>
</g>
<!-- 55 -->
<g id="node56" class="node">
<title>55</title>
<polygon fill="none" stroke="black" points="878,-479 777,-479 777,-443 878,-443 878,-479"/>
<text text-anchor="middle" x="827.5" y="-457.3" font-family="Times,serif" font-size="14.00">class = Canada</text>
</g>
<!-- 37&#45;&gt;55 -->
<g id="edge55" class="edge">
<title>37&#45;&gt;55</title>
<path fill="none" stroke="black" d="M725.82,-515.83C744.16,-506.12 766.87,-494.1 786.18,-483.88"/>
<polygon fill="black" stroke="black" points="787.86,-486.94 795.07,-479.17 784.59,-480.76 787.86,-486.94"/>
</g>
<!-- 39 -->
<g id="node40" class="node">
<title>39</title>
<polygon fill="none" stroke="black" points="755.5,-406 627.5,-406 627.5,-368 755.5,-368 755.5,-406"/>
<text text-anchor="middle" x="691.5" y="-390.8" font-family="Times,serif" font-size="14.00">longitude &lt;= &#45;67.93</text>
<text text-anchor="middle" x="691.5" y="-375.8" font-family="Times,serif" font-size="14.00">class = Canada</text>
</g>
<!-- 38&#45;&gt;39 -->
<g id="edge39" class="edge">
<title>38&#45;&gt;39</title>
<path fill="none" stroke="black" d="M691.5,-441.83C691.5,-434.13 691.5,-424.97 691.5,-416.42"/>
<polygon fill="black" stroke="black" points="695,-416.41 691.5,-406.41 688,-416.41 695,-416.41"/>
</g>
<!-- 54 -->
<g id="node55" class="node">
<title>54</title>
<polygon fill="none" stroke="black" points="861,-405 774,-405 774,-369 861,-369 861,-405"/>
<text text-anchor="middle" x="817.5" y="-383.3" font-family="Times,serif" font-size="14.00">class = USA</text>
</g>
<!-- 38&#45;&gt;54 -->
<g id="edge54" class="edge">
<title>38&#45;&gt;54</title>
<path fill="none" stroke="black" d="M723.3,-441.83C740.06,-432.25 760.76,-420.42 778.49,-410.29"/>
<polygon fill="black" stroke="black" points="780.5,-413.17 787.45,-405.17 777.03,-407.09 780.5,-413.17"/>
</g>
<!-- 40 -->
<g id="node41" class="node">
<title>40</title>
<polygon fill="none" stroke="black" points="759,-332 624,-332 624,-294 759,-294 759,-332"/>
<text text-anchor="middle" x="691.5" y="-316.8" font-family="Times,serif" font-size="14.00">longitude &lt;= &#45;68.325</text>
<text text-anchor="middle" x="691.5" y="-301.8" font-family="Times,serif" font-size="14.00">class = USA</text>
</g>
<!-- 39&#45;&gt;40 -->
<g id="edge40" class="edge">
<title>39&#45;&gt;40</title>
<path fill="none" stroke="black" d="M691.5,-367.83C691.5,-360.13 691.5,-350.97 691.5,-342.42"/>
<polygon fill="black" stroke="black" points="695,-342.41 691.5,-332.41 688,-342.41 695,-342.41"/>
</g>
<!-- 49 -->
<g id="node50" class="node">
<title>49</title>
<polygon fill="none" stroke="black" points="992.5,-332 872.5,-332 872.5,-294 992.5,-294 992.5,-332"/>
<text text-anchor="middle" x="932.5" y="-316.8" font-family="Times,serif" font-size="14.00">latitude &lt;= 45.565</text>
<text text-anchor="middle" x="932.5" y="-301.8" font-family="Times,serif" font-size="14.00">class = Canada</text>
</g>
<!-- 39&#45;&gt;49 -->
<g id="edge49" class="edge">
<title>39&#45;&gt;49</title>
<path fill="none" stroke="black" d="M752,-367.92C785.65,-357.87 827.68,-345.32 862.71,-334.85"/>
<polygon fill="black" stroke="black" points="863.81,-338.17 872.39,-331.96 861.81,-331.47 863.81,-338.17"/>
</g>
<!-- 41 -->
<g id="node42" class="node">
<title>41</title>
<polygon fill="none" stroke="black" points="749,-258 614,-258 614,-220 749,-220 749,-258"/>
<text text-anchor="middle" x="681.5" y="-242.8" font-family="Times,serif" font-size="14.00">longitude &lt;= &#45;68.915</text>
<text text-anchor="middle" x="681.5" y="-227.8" font-family="Times,serif" font-size="14.00">class = Canada</text>
</g>
<!-- 40&#45;&gt;41 -->
<g id="edge41" class="edge">
<title>40&#45;&gt;41</title>
<path fill="none" stroke="black" d="M688.98,-293.83C687.91,-286.13 686.64,-276.97 685.45,-268.42"/>
<polygon fill="black" stroke="black" points="688.9,-267.84 684.06,-258.41 681.97,-268.8 688.9,-267.84"/>
</g>
<!-- 48 -->
<g id="node49" class="node">
<title>48</title>
<polygon fill="none" stroke="black" points="854,-257 767,-257 767,-221 854,-221 854,-257"/>
<text text-anchor="middle" x="810.5" y="-235.3" font-family="Times,serif" font-size="14.00">class = USA</text>
</g>
<!-- 40&#45;&gt;48 -->
<g id="edge48" class="edge">
<title>40&#45;&gt;48</title>
<path fill="none" stroke="black" d="M721.53,-293.83C737.21,-284.34 756.56,-272.64 773.19,-262.57"/>
<polygon fill="black" stroke="black" points="775.38,-265.34 782.12,-257.17 771.75,-259.35 775.38,-265.34"/>
</g>
<!-- 42 -->
<g id="node43" class="node">
<title>42</title>
<polygon fill="none" stroke="black" points="700,-183 613,-183 613,-147 700,-147 700,-183"/>
<text text-anchor="middle" x="656.5" y="-161.3" font-family="Times,serif" font-size="14.00">class = USA</text>
</g>
<!-- 41&#45;&gt;42 -->
<g id="edge42" class="edge">
<title>41&#45;&gt;42</title>
<path fill="none" stroke="black" d="M675.19,-219.83C672.37,-211.72 669,-201.99 665.89,-193.05"/>
<polygon fill="black" stroke="black" points="669.13,-191.72 662.55,-183.42 662.52,-194.01 669.13,-191.72"/>
</g>
<!-- 43 -->
<g id="node44" class="node">
<title>43</title>
<polygon fill="none" stroke="black" points="853,-184 718,-184 718,-146 853,-146 853,-184"/>
<text text-anchor="middle" x="785.5" y="-168.8" font-family="Times,serif" font-size="14.00">longitude &lt;= &#45;68.597</text>
<text text-anchor="middle" x="785.5" y="-153.8" font-family="Times,serif" font-size="14.00">class = Canada</text>
</g>
<!-- 41&#45;&gt;43 -->
<g id="edge43" class="edge">
<title>41&#45;&gt;43</title>
<path fill="none" stroke="black" d="M707.74,-219.83C720.8,-210.79 736.75,-199.75 750.8,-190.02"/>
<polygon fill="black" stroke="black" points="753.04,-192.73 759.26,-184.16 749.05,-186.98 753.04,-192.73"/>
</g>
<!-- 44 -->
<g id="node45" class="node">
<title>44</title>
<polygon fill="none" stroke="black" points="771,-109 670,-109 670,-73 771,-73 771,-109"/>
<text text-anchor="middle" x="720.5" y="-87.3" font-family="Times,serif" font-size="14.00">class = Canada</text>
</g>
<!-- 43&#45;&gt;44 -->
<g id="edge44" class="edge">
<title>43&#45;&gt;44</title>
<path fill="none" stroke="black" d="M769.1,-145.83C761.22,-137.11 751.66,-126.52 743.11,-117.05"/>
<polygon fill="black" stroke="black" points="745.52,-114.5 736.22,-109.42 740.33,-119.19 745.52,-114.5"/>
</g>
<!-- 45 -->
<g id="node46" class="node">
<title>45</title>
<polygon fill="none" stroke="black" points="909.5,-110 789.5,-110 789.5,-72 909.5,-72 909.5,-110"/>
<text text-anchor="middle" x="849.5" y="-94.8" font-family="Times,serif" font-size="14.00">latitude &lt;= 47.312</text>
<text text-anchor="middle" x="849.5" y="-79.8" font-family="Times,serif" font-size="14.00">class = Canada</text>
</g>
<!-- 43&#45;&gt;45 -->
<g id="edge45" class="edge">
<title>43&#45;&gt;45</title>
<path fill="none" stroke="black" d="M801.65,-145.83C809.17,-137.37 818.26,-127.15 826.48,-117.9"/>
<polygon fill="black" stroke="black" points="829.1,-120.21 833.13,-110.41 823.87,-115.56 829.1,-120.21"/>
</g>
<!-- 46 -->
<g id="node47" class="node">
<title>46</title>
<polygon fill="none" stroke="black" points="837,-36 750,-36 750,0 837,0 837,-36"/>
<text text-anchor="middle" x="793.5" y="-14.3" font-family="Times,serif" font-size="14.00">class = USA</text>
</g>
<!-- 45&#45;&gt;46 -->
<g id="edge46" class="edge">
<title>45&#45;&gt;46</title>
<path fill="none" stroke="black" d="M835.08,-71.72C828.43,-63.29 820.43,-53.15 813.23,-44.02"/>
<polygon fill="black" stroke="black" points="815.85,-41.69 806.91,-36 810.36,-46.02 815.85,-41.69"/>
</g>
<!-- 47 -->
<g id="node48" class="node">
<title>47</title>
<polygon fill="none" stroke="black" points="956,-36 855,-36 855,0 956,0 956,-36"/>
<text text-anchor="middle" x="905.5" y="-14.3" font-family="Times,serif" font-size="14.00">class = Canada</text>
</g>
<!-- 45&#45;&gt;47 -->
<g id="edge47" class="edge">
<title>45&#45;&gt;47</title>
<path fill="none" stroke="black" d="M863.92,-71.72C870.57,-63.29 878.57,-53.15 885.77,-44.02"/>
<polygon fill="black" stroke="black" points="888.64,-46.02 892.09,-36 883.15,-41.69 888.64,-46.02"/>
</g>
<!-- 50 -->
<g id="node51" class="node">
<title>50</title>
<polygon fill="none" stroke="black" points="992.5,-258 872.5,-258 872.5,-220 992.5,-220 992.5,-258"/>
<text text-anchor="middle" x="932.5" y="-242.8" font-family="Times,serif" font-size="14.00">latitude &lt;= 45.382</text>
<text text-anchor="middle" x="932.5" y="-227.8" font-family="Times,serif" font-size="14.00">class = Canada</text>
</g>
<!-- 49&#45;&gt;50 -->
<g id="edge50" class="edge">
<title>49&#45;&gt;50</title>
<path fill="none" stroke="black" d="M932.5,-293.83C932.5,-286.13 932.5,-276.97 932.5,-268.42"/>
<polygon fill="black" stroke="black" points="936,-268.41 932.5,-258.41 929,-268.41 936,-268.41"/>
</g>
<!-- 53 -->
<g id="node54" class="node">
<title>53</title>
<polygon fill="none" stroke="black" points="1112,-257 1011,-257 1011,-221 1112,-221 1112,-257"/>
<text text-anchor="middle" x="1061.5" y="-235.3" font-family="Times,serif" font-size="14.00">class = Canada</text>
</g>
<!-- 49&#45;&gt;53 -->
<g id="edge53" class="edge">
<title>49&#45;&gt;53</title>
<path fill="none" stroke="black" d="M965.05,-293.83C982.21,-284.25 1003.41,-272.42 1021.56,-262.29"/>
<polygon fill="black" stroke="black" points="1023.71,-265.1 1030.73,-257.17 1020.3,-258.99 1023.71,-265.1"/>
</g>
<!-- 51 -->
<g id="node52" class="node">
<title>51</title>
<polygon fill="none" stroke="black" points="979,-183 878,-183 878,-147 979,-147 979,-183"/>
<text text-anchor="middle" x="928.5" y="-161.3" font-family="Times,serif" font-size="14.00">class = Canada</text>
</g>
<!-- 50&#45;&gt;51 -->
<g id="edge51" class="edge">
<title>50&#45;&gt;51</title>
<path fill="none" stroke="black" d="M931.49,-219.83C931.05,-211.89 930.52,-202.41 930.03,-193.63"/>
<polygon fill="black" stroke="black" points="933.52,-193.21 929.47,-183.42 926.53,-193.6 933.52,-193.21"/>
</g>
<!-- 52 -->
<g id="node53" class="node">
<title>52</title>
<polygon fill="none" stroke="black" points="1084,-183 997,-183 997,-147 1084,-147 1084,-183"/>
<text text-anchor="middle" x="1040.5" y="-161.3" font-family="Times,serif" font-size="14.00">class = USA</text>
</g>
<!-- 50&#45;&gt;52 -->
<g id="edge52" class="edge">
<title>50&#45;&gt;52</title>
<path fill="none" stroke="black" d="M959.75,-219.83C973.86,-210.43 991.22,-198.86 1006.22,-188.85"/>
<polygon fill="black" stroke="black" points="1008.36,-191.63 1014.74,-183.17 1004.48,-185.81 1008.36,-191.63"/>
</g>
</g>
</svg>
