<?xml version="1.0" encoding="UTF-8" standalone="no"?>
<!DOCTYPE svg PUBLIC "-//W3C//DTD SVG 1.1//EN"
 "http://www.w3.org/Graphics/SVG/1.1/DTD/svg11.dtd">
<!-- Generated by graphviz version 2.48.0 (0)
 -->
<!-- Title: Tree Pages: 1 -->
<svg width="1120pt" height="932pt"
 viewBox="0.00 0.00 1120.00 932.00" xmlns="http://www.w3.org/2000/svg" xmlns:xlink="http://www.w3.org/1999/xlink">
<g id="graph0" class="graph" transform="scale(1 1) rotate(0) translate(4 928)">
<title>Tree</title>
<polygon fill="white" stroke="transparent" points="-4,4 -4,-928 1116,-928 1116,4 -4,4"/>
<!-- 0 -->
<g id="node1" class="node">
<title>0</title>
<polygon fill="none" stroke="black" points="386.5,-924 280.5,-924 280.5,-886 386.5,-886 386.5,-924"/>
<text text-anchor="middle" x="333.5" y="-908.8" font-family="Times,serif" font-size="14.00">latitude &lt;= 42.9</text>
<text text-anchor="middle" x="333.5" y="-893.8" font-family="Times,serif" font-size="14.00">class = Canada</text>
</g>
<!-- 1 -->
<g id="node2" class="node">
<title>1</title>
<polygon fill="none" stroke="black" points="324.5,-850 204.5,-850 204.5,-812 324.5,-812 324.5,-850"/>
<text text-anchor="middle" x="264.5" y="-834.8" font-family="Times,serif" font-size="14.00">latitude &lt;= 42.096</text>
<text text-anchor="middle" x="264.5" y="-819.8" font-family="Times,serif" font-size="14.00">class = USA</text>
</g>
<!-- 0&#45;&gt;1 -->
<g id="edge1" class="edge">
<title>0&#45;&gt;1</title>
<path fill="none" stroke="black" d="M316.09,-885.83C307.98,-877.37 298.18,-867.15 289.32,-857.9"/>
<polygon fill="black" stroke="black" points="291.59,-855.21 282.15,-850.41 286.54,-860.05 291.59,-855.21"/>
<text text-anchor="middle" x="281.61" y="-871.71" font-family="Times,serif" font-size="14.00">True</text>
</g>
<!-- 6 -->
<g id="node7" class="node">
<title>6</title>
<polygon fill="none" stroke="black" points="462.5,-850 342.5,-850 342.5,-812 462.5,-812 462.5,-850"/>
<text text-anchor="middle" x="402.5" y="-834.8" font-family="Times,serif" font-size="14.00">latitude &lt;= 55.958</text>
<text text-anchor="middle" x="402.5" y="-819.8" font-family="Times,serif" font-size="14.00">class = Canada</text>
</g>
<!-- 0&#45;&gt;6 -->
<g id="edge6" class="edge">
<title>0&#45;&gt;6</title>
<path fill="none" stroke="black" d="M350.91,-885.83C359.02,-877.37 368.82,-867.15 377.68,-857.9"/>
<polygon fill="black" stroke="black" points="380.46,-860.05 384.85,-850.41 375.41,-855.21 380.46,-860.05"/>
<text text-anchor="middle" x="385.39" y="-871.71" font-family="Times,serif" font-size="14.00">False</text>
</g>
<!-- 2 -->
<g id="node3" class="node">
<title>2</title>
<polygon fill="none" stroke="black" points="188,-775 101,-775 101,-739 188,-739 188,-775"/>
<text text-anchor="middle" x="144.5" y="-753.3" font-family="Times,serif" font-size="14.00">class = USA</text>
</g>
<!-- 1&#45;&gt;2 -->
<g id="edge2" class="edge">
<title>1&#45;&gt;2</title>
<path fill="none" stroke="black" d="M234.22,-811.83C218.4,-802.34 198.9,-790.64 182.12,-780.57"/>
<polygon fill="black" stroke="black" points="183.49,-777.32 173.12,-775.17 179.89,-783.32 183.49,-777.32"/>
</g>
<!-- 3 -->
<g id="node4" class="node">
<title>3</title>
<polygon fill="none" stroke="black" points="326.5,-776 206.5,-776 206.5,-738 326.5,-738 326.5,-776"/>
<text text-anchor="middle" x="266.5" y="-760.8" font-family="Times,serif" font-size="14.00">latitude &lt;= 42.324</text>
<text text-anchor="middle" x="266.5" y="-745.8" font-family="Times,serif" font-size="14.00">class = USA</text>
</g>
<!-- 1&#45;&gt;3 -->
<g id="edge3" class="edge">
<title>1&#45;&gt;3</title>
<path fill="none" stroke="black" d="M265,-811.83C265.22,-804.13 265.47,-794.97 265.71,-786.42"/>
<polygon fill="black" stroke="black" points="269.21,-786.51 265.99,-776.41 262.21,-786.31 269.21,-786.51"/>
</g>
<!-- 4 -->
<g id="node5" class="node">
<title>4</title>
<polygon fill="none" stroke="black" points="206,-701 105,-701 105,-665 206,-665 206,-701"/>
<text text-anchor="middle" x="155.5" y="-679.3" font-family="Times,serif" font-size="14.00">class = Canada</text>
</g>
<!-- 3&#45;&gt;4 -->
<g id="edge4" class="edge">
<title>3&#45;&gt;4</title>
<path fill="none" stroke="black" d="M238.49,-737.83C223.99,-728.43 206.15,-716.86 190.73,-706.85"/>
<polygon fill="black" stroke="black" points="192.27,-703.68 181.97,-701.17 188.46,-709.55 192.27,-703.68"/>
</g>
<!-- 5 -->
<g id="node6" class="node">
<title>5</title>
<polygon fill="none" stroke="black" points="311,-701 224,-701 224,-665 311,-665 311,-701"/>
<text text-anchor="middle" x="267.5" y="-679.3" font-family="Times,serif" font-size="14.00">class = USA</text>
</g>
<!-- 3&#45;&gt;5 -->
<g id="edge5" class="edge">
<title>3&#45;&gt;5</title>
<path fill="none" stroke="black" d="M266.75,-737.83C266.86,-729.89 266.99,-720.41 267.12,-711.63"/>
<polygon fill="black" stroke="black" points="270.62,-711.47 267.26,-701.42 263.62,-711.37 270.62,-711.47"/>
</g>
<!-- 7 -->
<g id="node8" class="node">
<title>7</title>
<polygon fill="none" stroke="black" points="454.5,-776 348.5,-776 348.5,-738 454.5,-738 454.5,-776"/>
<text text-anchor="middle" x="401.5" y="-760.8" font-family="Times,serif" font-size="14.00">latitude &lt;= 49.0</text>
<text text-anchor="middle" x="401.5" y="-745.8" font-family="Times,serif" font-size="14.00">class = Canada</text>
</g>
<!-- 6&#45;&gt;7 -->
<g id="edge7" class="edge">
<title>6&#45;&gt;7</title>
<path fill="none" stroke="black" d="M402.25,-811.83C402.14,-804.13 402.01,-794.97 401.89,-786.42"/>
<polygon fill="black" stroke="black" points="405.39,-786.36 401.76,-776.41 398.4,-786.46 405.39,-786.36"/>
</g>
<!-- 54 -->
<g id="node55" class="node">
<title>54</title>
<polygon fill="none" stroke="black" points="560,-775 473,-775 473,-739 560,-739 560,-775"/>
<text text-anchor="middle" x="516.5" y="-753.3" font-family="Times,serif" font-size="14.00">class = USA</text>
</g>
<!-- 6&#45;&gt;54 -->
<g id="edge54" class="edge">
<title>6&#45;&gt;54</title>
<path fill="none" stroke="black" d="M431.27,-811.83C446.29,-802.34 464.82,-790.64 480.76,-780.57"/>
<polygon fill="black" stroke="black" points="482.73,-783.47 489.31,-775.17 478.99,-777.55 482.73,-783.47"/>
</g>
<!-- 8 -->
<g id="node9" class="node">
<title>8</title>
<polygon fill="none" stroke="black" points="468,-702 333,-702 333,-664 468,-664 468,-702"/>
<text text-anchor="middle" x="400.5" y="-686.8" font-family="Times,serif" font-size="14.00">longitude &lt;= &#45;94.582</text>
<text text-anchor="middle" x="400.5" y="-671.8" font-family="Times,serif" font-size="14.00">class = Canada</text>
</g>
<!-- 7&#45;&gt;8 -->
<g id="edge8" class="edge">
<title>7&#45;&gt;8</title>
<path fill="none" stroke="black" d="M401.25,-737.83C401.14,-730.13 401.01,-720.97 400.89,-712.42"/>
<polygon fill="black" stroke="black" points="404.39,-712.36 400.76,-702.41 397.4,-712.46 404.39,-712.36"/>
</g>
<!-- 53 -->
<g id="node54" class="node">
<title>53</title>
<polygon fill="none" stroke="black" points="587,-701 486,-701 486,-665 587,-665 587,-701"/>
<text text-anchor="middle" x="536.5" y="-679.3" font-family="Times,serif" font-size="14.00">class = Canada</text>
</g>
<!-- 7&#45;&gt;53 -->
<g id="edge53" class="edge">
<title>7&#45;&gt;53</title>
<path fill="none" stroke="black" d="M435.57,-737.83C453.69,-728.17 476.12,-716.2 495.22,-706.01"/>
<polygon fill="black" stroke="black" points="497.13,-708.97 504.3,-701.17 493.83,-702.79 497.13,-708.97"/>
</g>
<!-- 9 -->
<g id="node10" class="node">
<title>9</title>
<polygon fill="none" stroke="black" points="393.5,-628 251.5,-628 251.5,-590 393.5,-590 393.5,-628"/>
<text text-anchor="middle" x="322.5" y="-612.8" font-family="Times,serif" font-size="14.00">longitude &lt;= &#45;123.222</text>
<text text-anchor="middle" x="322.5" y="-597.8" font-family="Times,serif" font-size="14.00">class = USA</text>
</g>
<!-- 8&#45;&gt;9 -->
<g id="edge9" class="edge">
<title>8&#45;&gt;9</title>
<path fill="none" stroke="black" d="M380.82,-663.83C371.39,-655.13 359.96,-644.58 349.72,-635.13"/>
<polygon fill="black" stroke="black" points="351.9,-632.37 342.18,-628.16 347.15,-637.52 351.9,-632.37"/>
</g>
<!-- 12 -->
<g id="node13" class="node">
<title>12</title>
<polygon fill="none" stroke="black" points="547,-628 412,-628 412,-590 547,-590 547,-628"/>
<text text-anchor="middle" x="479.5" y="-612.8" font-family="Times,serif" font-size="14.00">longitude &lt;= &#45;69.246</text>
<text text-anchor="middle" x="479.5" y="-597.8" font-family="Times,serif" font-size="14.00">class = Canada</text>
</g>
<!-- 8&#45;&gt;12 -->
<g id="edge12" class="edge">
<title>8&#45;&gt;12</title>
<path fill="none" stroke="black" d="M420.44,-663.83C429.98,-655.13 441.56,-644.58 451.93,-635.13"/>
<polygon fill="black" stroke="black" points="454.54,-637.49 459.57,-628.16 449.82,-632.31 454.54,-637.49"/>
</g>
<!-- 10 -->
<g id="node11" class="node">
<title>10</title>
<polygon fill="none" stroke="black" points="270,-553 169,-553 169,-517 270,-517 270,-553"/>
<text text-anchor="middle" x="219.5" y="-531.3" font-family="Times,serif" font-size="14.00">class = Canada</text>
</g>
<!-- 9&#45;&gt;10 -->
<g id="edge10" class="edge">
<title>9&#45;&gt;10</title>
<path fill="none" stroke="black" d="M296.51,-589.83C283.18,-580.52 266.81,-569.07 252.59,-559.13"/>
<polygon fill="black" stroke="black" points="254.27,-556.03 244.06,-553.17 250.26,-561.77 254.27,-556.03"/>
</g>
<!-- 11 -->
<g id="node12" class="node">
<title>11</title>
<polygon fill="none" stroke="black" points="375,-553 288,-553 288,-517 375,-517 375,-553"/>
<text text-anchor="middle" x="331.5" y="-531.3" font-family="Times,serif" font-size="14.00">class = USA</text>
</g>
<!-- 9&#45;&gt;11 -->
<g id="edge11" class="edge">
<title>9&#45;&gt;11</title>
<path fill="none" stroke="black" d="M324.77,-589.83C325.76,-581.89 326.95,-572.41 328.05,-563.63"/>
<polygon fill="black" stroke="black" points="331.56,-563.77 329.32,-553.42 324.61,-562.91 331.56,-563.77"/>
</g>
<!-- 13 -->
<g id="node14" class="node">
<title>13</title>
<polygon fill="none" stroke="black" points="530.5,-554 410.5,-554 410.5,-516 530.5,-516 530.5,-554"/>
<text text-anchor="middle" x="470.5" y="-538.8" font-family="Times,serif" font-size="14.00">latitude &lt;= 43.093</text>
<text text-anchor="middle" x="470.5" y="-523.8" font-family="Times,serif" font-size="14.00">class = Canada</text>
</g>
<!-- 12&#45;&gt;13 -->
<g id="edge13" class="edge">
<title>12&#45;&gt;13</title>
<path fill="none" stroke="black" d="M477.23,-589.83C476.27,-582.13 475.12,-572.97 474.05,-564.42"/>
<polygon fill="black" stroke="black" points="477.52,-563.9 472.8,-554.41 470.57,-564.77 477.52,-563.9"/>
</g>
<!-- 36 -->
<g id="node37" class="node">
<title>36</title>
<polygon fill="none" stroke="black" points="725,-554 590,-554 590,-516 725,-516 725,-554"/>
<text text-anchor="middle" x="657.5" y="-538.8" font-family="Times,serif" font-size="14.00">longitude &lt;= &#45;66.952</text>
<text text-anchor="middle" x="657.5" y="-523.8" font-family="Times,serif" font-size="14.00">class = Canada</text>
</g>
<!-- 12&#45;&gt;36 -->
<g id="edge36" class="edge">
<title>12&#45;&gt;36</title>
<path fill="none" stroke="black" d="M524.42,-589.83C548.43,-580.12 578.18,-568.08 603.46,-557.86"/>
<polygon fill="black" stroke="black" points="604.95,-561.03 612.91,-554.04 602.32,-554.54 604.95,-561.03"/>
</g>
<!-- 14 -->
<g id="node15" class="node">
<title>14</title>
<polygon fill="none" stroke="black" points="350.5,-480 230.5,-480 230.5,-442 350.5,-442 350.5,-480"/>
<text text-anchor="middle" x="290.5" y="-464.8" font-family="Times,serif" font-size="14.00">latitude &lt;= 43.014</text>
<text text-anchor="middle" x="290.5" y="-449.8" font-family="Times,serif" font-size="14.00">class = Canada</text>
</g>
<!-- 13&#45;&gt;14 -->
<g id="edge14" class="edge">
<title>13&#45;&gt;14</title>
<path fill="none" stroke="black" d="M425.08,-515.83C400.79,-506.12 370.71,-494.08 345.15,-483.86"/>
<polygon fill="black" stroke="black" points="346.18,-480.5 335.59,-480.04 343.58,-487 346.18,-480.5"/>
</g>
<!-- 19 -->
<g id="node20" class="node">
<title>19</title>
<polygon fill="none" stroke="black" points="530.5,-480 410.5,-480 410.5,-442 530.5,-442 530.5,-480"/>
<text text-anchor="middle" x="470.5" y="-464.8" font-family="Times,serif" font-size="14.00">latitude &lt;= 44.992</text>
<text text-anchor="middle" x="470.5" y="-449.8" font-family="Times,serif" font-size="14.00">class = Canada</text>
</g>
<!-- 13&#45;&gt;19 -->
<g id="edge19" class="edge">
<title>13&#45;&gt;19</title>
<path fill="none" stroke="black" d="M470.5,-515.83C470.5,-508.13 470.5,-498.97 470.5,-490.42"/>
<polygon fill="black" stroke="black" points="474,-490.41 470.5,-480.41 467,-490.41 474,-490.41"/>
</g>
<!-- 15 -->
<g id="node16" class="node">
<title>15</title>
<polygon fill="none" stroke="black" points="223,-406 88,-406 88,-368 223,-368 223,-406"/>
<text text-anchor="middle" x="155.5" y="-390.8" font-family="Times,serif" font-size="14.00">longitude &lt;= &#45;81.845</text>
<text text-anchor="middle" x="155.5" y="-375.8" font-family="Times,serif" font-size="14.00">class = Canada</text>
</g>
<!-- 14&#45;&gt;15 -->
<g id="edge15" class="edge">
<title>14&#45;&gt;15</title>
<path fill="none" stroke="black" d="M256.43,-441.83C238.85,-432.45 217.21,-420.91 198.48,-410.92"/>
<polygon fill="black" stroke="black" points="200.03,-407.78 189.56,-406.16 196.73,-413.96 200.03,-407.78"/>
</g>
<!-- 18 -->
<g id="node19" class="node">
<title>18</title>
<polygon fill="none" stroke="black" points="334,-405 247,-405 247,-369 334,-369 334,-405"/>
<text text-anchor="middle" x="290.5" y="-383.3" font-family="Times,serif" font-size="14.00">class = USA</text>
</g>
<!-- 14&#45;&gt;18 -->
<g id="edge18" class="edge">
<title>14&#45;&gt;18</title>
<path fill="none" stroke="black" d="M290.5,-441.83C290.5,-433.89 290.5,-424.41 290.5,-415.63"/>
<polygon fill="black" stroke="black" points="294,-415.42 290.5,-405.42 287,-415.42 294,-415.42"/>
</g>
<!-- 16 -->
<g id="node17" class="node">
<title>16</title>
<polygon fill="none" stroke="black" points="87,-331 0,-331 0,-295 87,-295 87,-331"/>
<text text-anchor="middle" x="43.5" y="-309.3" font-family="Times,serif" font-size="14.00">class = USA</text>
</g>
<!-- 15&#45;&gt;16 -->
<g id="edge16" class="edge">
<title>15&#45;&gt;16</title>
<path fill="none" stroke="black" d="M127.24,-367.83C112.61,-358.43 94.61,-346.86 79.05,-336.85"/>
<polygon fill="black" stroke="black" points="80.52,-333.63 70.21,-331.17 76.73,-339.52 80.52,-333.63"/>
</g>
<!-- 17 -->
<g id="node18" class="node">
<title>17</title>
<polygon fill="none" stroke="black" points="206,-331 105,-331 105,-295 206,-295 206,-331"/>
<text text-anchor="middle" x="155.5" y="-309.3" font-family="Times,serif" font-size="14.00">class = Canada</text>
</g>
<!-- 15&#45;&gt;17 -->
<g id="edge17" class="edge">
<title>15&#45;&gt;17</title>
<path fill="none" stroke="black" d="M155.5,-367.83C155.5,-359.89 155.5,-350.41 155.5,-341.63"/>
<polygon fill="black" stroke="black" points="159,-341.42 155.5,-331.42 152,-341.42 159,-341.42"/>
</g>
<!-- 20 -->
<g id="node21" class="node">
<title>20</title>
<polygon fill="none" stroke="black" points="473.5,-406 353.5,-406 353.5,-368 473.5,-368 473.5,-406"/>
<text text-anchor="middle" x="413.5" y="-390.8" font-family="Times,serif" font-size="14.00">latitude &lt;= 44.542</text>
<text text-anchor="middle" x="413.5" y="-375.8" font-family="Times,serif" font-size="14.00">class = Canada</text>
</g>
<!-- 19&#45;&gt;20 -->
<g id="edge20" class="edge">
<title>19&#45;&gt;20</title>
<path fill="none" stroke="black" d="M456.12,-441.83C449.55,-433.54 441.65,-423.56 434.44,-414.45"/>
<polygon fill="black" stroke="black" points="437.03,-412.08 428.08,-406.41 431.54,-416.43 437.03,-412.08"/>
</g>
<!-- 35 -->
<g id="node36" class="node">
<title>35</title>
<polygon fill="none" stroke="black" points="593,-405 492,-405 492,-369 593,-369 593,-405"/>
<text text-anchor="middle" x="542.5" y="-383.3" font-family="Times,serif" font-size="14.00">class = Canada</text>
</g>
<!-- 19&#45;&gt;35 -->
<g id="edge35" class="edge">
<title>19&#45;&gt;35</title>
<path fill="none" stroke="black" d="M488.67,-441.83C497.48,-433.02 508.19,-422.31 517.74,-412.76"/>
<polygon fill="black" stroke="black" points="520.49,-414.96 525.08,-405.42 515.54,-410.01 520.49,-414.96"/>
</g>
<!-- 21 -->
<g id="node22" class="node">
<title>21</title>
<polygon fill="none" stroke="black" points="359,-332 224,-332 224,-294 359,-294 359,-332"/>
<text text-anchor="middle" x="291.5" y="-316.8" font-family="Times,serif" font-size="14.00">longitude &lt;= &#45;79.076</text>
<text text-anchor="middle" x="291.5" y="-301.8" font-family="Times,serif" font-size="14.00">class = Canada</text>
</g>
<!-- 20&#45;&gt;21 -->
<g id="edge21" class="edge">
<title>20&#45;&gt;21</title>
<path fill="none" stroke="black" d="M382.71,-367.83C367.11,-358.62 347.98,-347.33 331.27,-337.47"/>
<polygon fill="black" stroke="black" points="332.67,-334.23 322.28,-332.16 329.11,-340.26 332.67,-334.23"/>
</g>
<!-- 30 -->
<g id="node31" class="node">
<title>30</title>
<polygon fill="none" stroke="black" points="512,-332 377,-332 377,-294 512,-294 512,-332"/>
<text text-anchor="middle" x="444.5" y="-316.8" font-family="Times,serif" font-size="14.00">longitude &lt;= &#45;84.392</text>
<text text-anchor="middle" x="444.5" y="-301.8" font-family="Times,serif" font-size="14.00">class = USA</text>
</g>
<!-- 20&#45;&gt;30 -->
<g id="edge30" class="edge">
<title>20&#45;&gt;30</title>
<path fill="none" stroke="black" d="M421.32,-367.83C424.71,-359.96 428.75,-350.57 432.51,-341.85"/>
<polygon fill="black" stroke="black" points="435.83,-342.98 436.57,-332.41 429.4,-340.21 435.83,-342.98"/>
</g>
<!-- 22 -->
<g id="node23" class="node">
<title>22</title>
<polygon fill="none" stroke="black" points="213,-257 112,-257 112,-221 213,-221 213,-257"/>
<text text-anchor="middle" x="162.5" y="-235.3" font-family="Times,serif" font-size="14.00">class = Canada</text>
</g>
<!-- 21&#45;&gt;22 -->
<g id="edge22" class="edge">
<title>21&#45;&gt;22</title>
<path fill="none" stroke="black" d="M258.95,-293.83C241.79,-284.25 220.59,-272.42 202.44,-262.29"/>
<polygon fill="black" stroke="black" points="203.7,-258.99 193.27,-257.17 200.29,-265.1 203.7,-258.99"/>
</g>
<!-- 23 -->
<g id="node24" class="node">
<title>23</title>
<polygon fill="none" stroke="black" points="351.5,-258 231.5,-258 231.5,-220 351.5,-220 351.5,-258"/>
<text text-anchor="middle" x="291.5" y="-242.8" font-family="Times,serif" font-size="14.00">latitude &lt;= 44.168</text>
<text text-anchor="middle" x="291.5" y="-227.8" font-family="Times,serif" font-size="14.00">class = Canada</text>
</g>
<!-- 21&#45;&gt;23 -->
<g id="edge23" class="edge">
<title>21&#45;&gt;23</title>
<path fill="none" stroke="black" d="M291.5,-293.83C291.5,-286.13 291.5,-276.97 291.5,-268.42"/>
<polygon fill="black" stroke="black" points="295,-268.41 291.5,-258.41 288,-268.41 295,-268.41"/>
</g>
<!-- 24 -->
<g id="node25" class="node">
<title>24</title>
<polygon fill="none" stroke="black" points="233,-184 114,-184 114,-146 233,-146 233,-184"/>
<text text-anchor="middle" x="173.5" y="-168.8" font-family="Times,serif" font-size="14.00">latitude &lt;= 43.511</text>
<text text-anchor="middle" x="173.5" y="-153.8" font-family="Times,serif" font-size="14.00">class = USA</text>
</g>
<!-- 23&#45;&gt;24 -->
<g id="edge24" class="edge">
<title>23&#45;&gt;24</title>
<path fill="none" stroke="black" d="M261.72,-219.83C246.63,-210.62 228.12,-199.33 211.97,-189.47"/>
<polygon fill="black" stroke="black" points="213.63,-186.38 203.27,-184.16 209.98,-192.36 213.63,-186.38"/>
</g>
<!-- 29 -->
<g id="node30" class="node">
<title>29</title>
<polygon fill="none" stroke="black" points="352,-183 251,-183 251,-147 352,-147 352,-183"/>
<text text-anchor="middle" x="301.5" y="-161.3" font-family="Times,serif" font-size="14.00">class = Canada</text>
</g>
<!-- 23&#45;&gt;29 -->
<g id="edge29" class="edge">
<title>23&#45;&gt;29</title>
<path fill="none" stroke="black" d="M294.02,-219.83C295.14,-211.81 296.47,-202.2 297.7,-193.34"/>
<polygon fill="black" stroke="black" points="301.17,-193.8 299.08,-183.42 294.24,-192.84 301.17,-193.8"/>
</g>
<!-- 25 -->
<g id="node26" class="node">
<title>25</title>
<polygon fill="none" stroke="black" points="156,-109 69,-109 69,-73 156,-73 156,-109"/>
<text text-anchor="middle" x="112.5" y="-87.3" font-family="Times,serif" font-size="14.00">class = USA</text>
</g>
<!-- 24&#45;&gt;25 -->
<g id="edge25" class="edge">
<title>24&#45;&gt;25</title>
<path fill="none" stroke="black" d="M158.11,-145.83C150.79,-137.2 141.92,-126.73 133.96,-117.33"/>
<polygon fill="black" stroke="black" points="136.39,-114.79 127.26,-109.42 131.05,-119.31 136.39,-114.79"/>
</g>
<!-- 26 -->
<g id="node27" class="node">
<title>26</title>
<polygon fill="none" stroke="black" points="294.5,-110 174.5,-110 174.5,-72 294.5,-72 294.5,-110"/>
<text text-anchor="middle" x="234.5" y="-94.8" font-family="Times,serif" font-size="14.00">latitude &lt;= 43.988</text>
<text text-anchor="middle" x="234.5" y="-79.8" font-family="Times,serif" font-size="14.00">class = Canada</text>
</g>
<!-- 24&#45;&gt;26 -->
<g id="edge26" class="edge">
<title>24&#45;&gt;26</title>
<path fill="none" stroke="black" d="M188.89,-145.83C195.99,-137.45 204.55,-127.35 212.32,-118.17"/>
<polygon fill="black" stroke="black" points="215.11,-120.31 218.9,-110.41 209.77,-115.78 215.11,-120.31"/>
</g>
<!-- 27 -->
<g id="node28" class="node">
<title>27</title>
<polygon fill="none" stroke="black" points="229,-36 128,-36 128,0 229,0 229,-36"/>
<text text-anchor="middle" x="178.5" y="-14.3" font-family="Times,serif" font-size="14.00">class = Canada</text>
</g>
<!-- 26&#45;&gt;27 -->
<g id="edge27" class="edge">
<title>26&#45;&gt;27</title>
<path fill="none" stroke="black" d="M220.08,-71.72C213.43,-63.29 205.43,-53.15 198.23,-44.02"/>
<polygon fill="black" stroke="black" points="200.85,-41.69 191.91,-36 195.36,-46.02 200.85,-41.69"/>
</g>
<!-- 28 -->
<g id="node29" class="node">
<title>28</title>
<polygon fill="none" stroke="black" points="334,-36 247,-36 247,0 334,0 334,-36"/>
<text text-anchor="middle" x="290.5" y="-14.3" font-family="Times,serif" font-size="14.00">class = USA</text>
</g>
<!-- 26&#45;&gt;28 -->
<g id="edge28" class="edge">
<title>26&#45;&gt;28</title>
<path fill="none" stroke="black" d="M248.92,-71.72C255.57,-63.29 263.57,-53.15 270.77,-44.02"/>
<polygon fill="black" stroke="black" points="273.64,-46.02 277.09,-36 268.15,-41.69 273.64,-46.02"/>
</g>
<!-- 31 -->
<g id="node32" class="node">
<title>31</title>
<polygon fill="none" stroke="black" points="457,-257 370,-257 370,-221 457,-221 457,-257"/>
<text text-anchor="middle" x="413.5" y="-235.3" font-family="Times,serif" font-size="14.00">class = USA</text>
</g>
<!-- 30&#45;&gt;31 -->
<g id="edge31" class="edge">
<title>30&#45;&gt;31</title>
<path fill="none" stroke="black" d="M436.68,-293.83C433.15,-285.63 428.91,-275.78 425.02,-266.76"/>
<polygon fill="black" stroke="black" points="428.17,-265.22 421,-257.42 421.74,-267.99 428.17,-265.22"/>
</g>
<!-- 32 -->
<g id="node33" class="node">
<title>32</title>
<polygon fill="none" stroke="black" points="610,-258 475,-258 475,-220 610,-220 610,-258"/>
<text text-anchor="middle" x="542.5" y="-242.8" font-family="Times,serif" font-size="14.00">longitude &lt;= &#45;75.503</text>
<text text-anchor="middle" x="542.5" y="-227.8" font-family="Times,serif" font-size="14.00">class = Canada</text>
</g>
<!-- 30&#45;&gt;32 -->
<g id="edge32" class="edge">
<title>30&#45;&gt;32</title>
<path fill="none" stroke="black" d="M469.23,-293.83C481.42,-284.88 496.28,-273.96 509.43,-264.3"/>
<polygon fill="black" stroke="black" points="511.79,-266.9 517.78,-258.16 507.65,-261.26 511.79,-266.9"/>
</g>
<!-- 33 -->
<g id="node34" class="node">
<title>33</title>
<polygon fill="none" stroke="black" points="482,-183 381,-183 381,-147 482,-147 482,-183"/>
<text text-anchor="middle" x="431.5" y="-161.3" font-family="Times,serif" font-size="14.00">class = Canada</text>
</g>
<!-- 32&#45;&gt;33 -->
<g id="edge33" class="edge">
<title>32&#45;&gt;33</title>
<path fill="none" stroke="black" d="M514.49,-219.83C499.99,-210.43 482.15,-198.86 466.73,-188.85"/>
<polygon fill="black" stroke="black" points="468.27,-185.68 457.97,-183.17 464.46,-191.55 468.27,-185.68"/>
</g>
<!-- 34 -->
<g id="node35" class="node">
<title>34</title>
<polygon fill="none" stroke="black" points="587,-183 500,-183 500,-147 587,-147 587,-183"/>
<text text-anchor="middle" x="543.5" y="-161.3" font-family="Times,serif" font-size="14.00">class = USA</text>
</g>
<!-- 32&#45;&gt;34 -->
<g id="edge34" class="edge">
<title>32&#45;&gt;34</title>
<path fill="none" stroke="black" d="M542.75,-219.83C542.86,-211.89 542.99,-202.41 543.12,-193.63"/>
<polygon fill="black" stroke="black" points="546.62,-193.47 543.26,-183.42 539.62,-193.37 546.62,-193.47"/>
</g>
<!-- 37 -->
<g id="node38" class="node">
<title>37</title>
<polygon fill="none" stroke="black" points="717.5,-480 597.5,-480 597.5,-442 717.5,-442 717.5,-480"/>
<text text-anchor="middle" x="657.5" y="-464.8" font-family="Times,serif" font-size="14.00">latitude &lt;= 45.195</text>
<text text-anchor="middle" x="657.5" y="-449.8" font-family="Times,serif" font-size="14.00">class = USA</text>
</g>
<!-- 36&#45;&gt;37 -->
<g id="edge37" class="edge">
<title>36&#45;&gt;37</title>
<path fill="none" stroke="black" d="M657.5,-515.83C657.5,-508.13 657.5,-498.97 657.5,-490.42"/>
<polygon fill="black" stroke="black" points="661,-490.41 657.5,-480.41 654,-490.41 661,-490.41"/>
</g>
<!-- 52 -->
<g id="node53" class="node">
<title>52</title>
<polygon fill="none" stroke="black" points="837,-479 736,-479 736,-443 837,-443 837,-479"/>
<text text-anchor="middle" x="786.5" y="-457.3" font-family="Times,serif" font-size="14.00">class = Canada</text>
</g>
<!-- 36&#45;&gt;52 -->
<g id="edge52" class="edge">
<title>36&#45;&gt;52</title>
<path fill="none" stroke="black" d="M690.05,-515.83C707.21,-506.25 728.41,-494.42 746.56,-484.29"/>
<polygon fill="black" stroke="black" points="748.71,-487.1 755.73,-479.17 745.3,-480.99 748.71,-487.1"/>
</g>
<!-- 38 -->
<g id="node39" class="node">
<title>38</title>
<polygon fill="none" stroke="black" points="701,-405 614,-405 614,-369 701,-369 701,-405"/>
<text text-anchor="middle" x="657.5" y="-383.3" font-family="Times,serif" font-size="14.00">class = USA</text>
</g>
<!-- 37&#45;&gt;38 -->
<g id="edge38" class="edge">
<title>37&#45;&gt;38</title>
<path fill="none" stroke="black" d="M657.5,-441.83C657.5,-433.89 657.5,-424.41 657.5,-415.63"/>
<polygon fill="black" stroke="black" points="661,-415.42 657.5,-405.42 654,-415.42 661,-415.42"/>
</g>
<!-- 39 -->
<g id="node40" class="node">
<title>39</title>
<polygon fill="none" stroke="black" points="849.5,-406 721.5,-406 721.5,-368 849.5,-368 849.5,-406"/>
<text text-anchor="middle" x="785.5" y="-390.8" font-family="Times,serif" font-size="14.00">longitude &lt;= &#45;67.93</text>
<text text-anchor="middle" x="785.5" y="-375.8" font-family="Times,serif" font-size="14.00">class = Canada</text>
</g>
<!-- 37&#45;&gt;39 -->
<g id="edge39" class="edge">
<title>37&#45;&gt;39</title>
<path fill="none" stroke="black" d="M689.8,-441.83C706.32,-432.54 726.62,-421.12 744.26,-411.2"/>
<polygon fill="black" stroke="black" points="746.21,-414.12 753.21,-406.16 742.78,-408.01 746.21,-414.12"/>
</g>
<!-- 40 -->
<g id="node41" class="node">
<title>40</title>
<polygon fill="none" stroke="black" points="853,-332 718,-332 718,-294 853,-294 853,-332"/>
<text text-anchor="middle" x="785.5" y="-316.8" font-family="Times,serif" font-size="14.00">longitude &lt;= &#45;68.325</text>
<text text-anchor="middle" x="785.5" y="-301.8" font-family="Times,serif" font-size="14.00">class = USA</text>
</g>
<!-- 39&#45;&gt;40 -->
<g id="edge40" class="edge">
<title>39&#45;&gt;40</title>
<path fill="none" stroke="black" d="M785.5,-367.83C785.5,-360.13 785.5,-350.97 785.5,-342.42"/>
<polygon fill="black" stroke="black" points="789,-342.41 785.5,-332.41 782,-342.41 789,-342.41"/>
</g>
<!-- 47 -->
<g id="node48" class="node">
<title>47</title>
<polygon fill="none" stroke="black" points="992.5,-332 872.5,-332 872.5,-294 992.5,-294 992.5,-332"/>
<text text-anchor="middle" x="932.5" y="-316.8" font-family="Times,serif" font-size="14.00">latitude &lt;= 45.565</text>
<text text-anchor="middle" x="932.5" y="-301.8" font-family="Times,serif" font-size="14.00">class = Canada</text>
</g>
<!-- 39&#45;&gt;47 -->
<g id="edge47" class="edge">
<title>39&#45;&gt;47</title>
<path fill="none" stroke="black" d="M822.59,-367.83C841.99,-358.33 865.92,-346.61 886.49,-336.54"/>
<polygon fill="black" stroke="black" points="888.23,-339.58 895.67,-332.04 885.15,-333.29 888.23,-339.58"/>
</g>
<!-- 41 -->
<g id="node42" class="node">
<title>41</title>
<polygon fill="none" stroke="black" points="748.5,-258 628.5,-258 628.5,-220 748.5,-220 748.5,-258"/>
<text text-anchor="middle" x="688.5" y="-242.8" font-family="Times,serif" font-size="14.00">latitude &lt;= 47.256</text>
<text text-anchor="middle" x="688.5" y="-227.8" font-family="Times,serif" font-size="14.00">class = Canada</text>
</g>
<!-- 40&#45;&gt;41 -->
<g id="edge41" class="edge">
<title>40&#45;&gt;41</title>
<path fill="none" stroke="black" d="M761.02,-293.83C748.96,-284.88 734.25,-273.96 721.23,-264.3"/>
<polygon fill="black" stroke="black" points="723.09,-261.31 712.97,-258.16 718.91,-266.93 723.09,-261.31"/>
</g>
<!-- 46 -->
<g id="node47" class="node">
<title>46</title>
<polygon fill="none" stroke="black" points="854,-257 767,-257 767,-221 854,-221 854,-257"/>
<text text-anchor="middle" x="810.5" y="-235.3" font-family="Times,serif" font-size="14.00">class = USA</text>
</g>
<!-- 40&#45;&gt;46 -->
<g id="edge46" class="edge">
<title>40&#45;&gt;46</title>
<path fill="none" stroke="black" d="M791.81,-293.83C794.63,-285.72 798,-275.99 801.11,-267.05"/>
<polygon fill="black" stroke="black" points="804.48,-268.01 804.45,-257.42 797.87,-265.72 804.48,-268.01"/>
</g>
<!-- 42 -->
<g id="node43" class="node">
<title>42</title>
<polygon fill="none" stroke="black" points="709,-183 608,-183 608,-147 709,-147 709,-183"/>
<text text-anchor="middle" x="658.5" y="-161.3" font-family="Times,serif" font-size="14.00">class = Canada</text>
</g>
<!-- 41&#45;&gt;42 -->
<g id="edge42" class="edge">
<title>41&#45;&gt;42</title>
<path fill="none" stroke="black" d="M680.93,-219.83C677.51,-211.63 673.41,-201.78 669.65,-192.76"/>
<polygon fill="black" stroke="black" points="672.83,-191.3 665.76,-183.42 666.37,-193.99 672.83,-191.3"/>
</g>
<!-- 43 -->
<g id="node44" class="node">
<title>43</title>
<polygon fill="none" stroke="black" points="862,-184 727,-184 727,-146 862,-146 862,-184"/>
<text text-anchor="middle" x="794.5" y="-168.8" font-family="Times,serif" font-size="14.00">longitude &lt;= &#45;68.459</text>
<text text-anchor="middle" x="794.5" y="-153.8" font-family="Times,serif" font-size="14.00">class = USA</text>
</g>
<!-- 41&#45;&gt;43 -->
<g id="edge43" class="edge">
<title>41&#45;&gt;43</title>
<path fill="none" stroke="black" d="M715.25,-219.83C728.56,-210.79 744.82,-199.75 759.14,-190.02"/>
<polygon fill="black" stroke="black" points="761.45,-192.68 767.76,-184.16 757.52,-186.89 761.45,-192.68"/>
</g>
<!-- 44 -->
<g id="node45" class="node">
<title>44</title>
<polygon fill="none" stroke="black" points="782,-109 695,-109 695,-73 782,-73 782,-109"/>
<text text-anchor="middle" x="738.5" y="-87.3" font-family="Times,serif" font-size="14.00">class = USA</text>
</g>
<!-- 43&#45;&gt;44 -->
<g id="edge44" class="edge">
<title>43&#45;&gt;44</title>
<path fill="none" stroke="black" d="M780.37,-145.83C773.65,-137.2 765.51,-126.73 758.2,-117.33"/>
<polygon fill="black" stroke="black" points="760.95,-115.16 752.05,-109.42 755.42,-119.46 760.95,-115.16"/>
</g>
<!-- 45 -->
<g id="node46" class="node">
<title>45</title>
<polygon fill="none" stroke="black" points="901,-109 800,-109 800,-73 901,-73 901,-109"/>
<text text-anchor="middle" x="850.5" y="-87.3" font-family="Times,serif" font-size="14.00">class = Canada</text>
</g>
<!-- 43&#45;&gt;45 -->
<g id="edge45" class="edge">
<title>43&#45;&gt;45</title>
<path fill="none" stroke="black" d="M808.63,-145.83C815.35,-137.2 823.49,-126.73 830.8,-117.33"/>
<polygon fill="black" stroke="black" points="833.58,-119.46 836.95,-109.42 828.05,-115.16 833.58,-119.46"/>
</g>
<!-- 48 -->
<g id="node49" class="node">
<title>48</title>
<polygon fill="none" stroke="black" points="992.5,-258 872.5,-258 872.5,-220 992.5,-220 992.5,-258"/>
<text text-anchor="middle" x="932.5" y="-242.8" font-family="Times,serif" font-size="14.00">latitude &lt;= 45.382</text>
<text text-anchor="middle" x="932.5" y="-227.8" font-family="Times,serif" font-size="14.00">class = Canada</text>
</g>
<!-- 47&#45;&gt;48 -->
<g id="edge48" class="edge">
<title>47&#45;&gt;48</title>
<path fill="none" stroke="black" d="M932.5,-293.83C932.5,-286.13 932.5,-276.97 932.5,-268.42"/>
<polygon fill="black" stroke="black" points="936,-268.41 932.5,-258.41 929,-268.41 936,-268.41"/>
</g>
<!-- 51 -->
<g id="node52" class="node">
<title>51</title>
<polygon fill="none" stroke="black" points="1112,-257 1011,-257 1011,-221 1112,-221 1112,-257"/>
<text text-anchor="middle" x="1061.5" y="-235.3" font-family="Times,serif" font-size="14.00">class = Canada</text>
</g>
<!-- 47&#45;&gt;51 -->
<g id="edge51" class="edge">
<title>47&#45;&gt;51</title>
<path fill="none" stroke="black" d="M965.05,-293.83C982.21,-284.25 1003.41,-272.42 1021.56,-262.29"/>
<polygon fill="black" stroke="black" points="1023.71,-265.1 1030.73,-257.17 1020.3,-258.99 1023.71,-265.1"/>
</g>
<!-- 49 -->
<g id="node50" class="node">
<title>49</title>
<polygon fill="none" stroke="black" points="982,-183 881,-183 881,-147 982,-147 982,-183"/>
<text text-anchor="middle" x="931.5" y="-161.3" font-family="Times,serif" font-size="14.00">class = Canada</text>
</g>
<!-- 48&#45;&gt;49 -->
<g id="edge49" class="edge">
<title>48&#45;&gt;49</title>
<path fill="none" stroke="black" d="M932.25,-219.83C932.14,-211.89 932.01,-202.41 931.88,-193.63"/>
<polygon fill="black" stroke="black" points="935.38,-193.37 931.74,-183.42 928.38,-193.47 935.38,-193.37"/>
</g>
<!-- 50 -->
<g id="node51" class="node">
<title>50</title>
<polygon fill="none" stroke="black" points="1087,-183 1000,-183 1000,-147 1087,-147 1087,-183"/>
<text text-anchor="middle" x="1043.5" y="-161.3" font-family="Times,serif" font-size="14.00">class = USA</text>
</g>
<!-- 48&#45;&gt;50 -->
<g id="edge50" class="edge">
<title>48&#45;&gt;50</title>
<path fill="none" stroke="black" d="M960.51,-219.83C975.01,-210.43 992.85,-198.86 1008.27,-188.85"/>
<polygon fill="black" stroke="black" points="1010.54,-191.55 1017.03,-183.17 1006.73,-185.68 1010.54,-191.55"/>
</g>
</g>
</svg>
