<?xml version="1.0" encoding="UTF-8" standalone="no"?>
<!DOCTYPE svg PUBLIC "-//W3C//DTD SVG 1.1//EN"
 "http://www.w3.org/Graphics/SVG/1.1/DTD/svg11.dtd">
<!-- Generated by graphviz version 2.48.0 (0)
 -->
<!-- Title: Tree Pages: 1 -->
<svg width="1107pt" height="932pt"
 viewBox="0.00 0.00 1107.00 932.00" xmlns="http://www.w3.org/2000/svg" xmlns:xlink="http://www.w3.org/1999/xlink">
<g id="graph0" class="graph" transform="scale(1 1) rotate(0) translate(4 928)">
<title>Tree</title>
<polygon fill="white" stroke="transparent" points="-4,4 -4,-928 1103,-928 1103,4 -4,4"/>
<!-- 0 -->
<g id="node1" class="node">
<title>0</title>
<polygon fill="none" stroke="black" points="378.5,-924 272.5,-924 272.5,-886 378.5,-886 378.5,-924"/>
<text text-anchor="middle" x="325.5" y="-908.8" font-family="Times,serif" font-size="14.00">latitude &lt;= 42.9</text>
<text text-anchor="middle" x="325.5" y="-893.8" font-family="Times,serif" font-size="14.00">class = Canada</text>
</g>
<!-- 1 -->
<g id="node2" class="node">
<title>1</title>
<polygon fill="none" stroke="black" points="316.5,-850 196.5,-850 196.5,-812 316.5,-812 316.5,-850"/>
<text text-anchor="middle" x="256.5" y="-834.8" font-family="Times,serif" font-size="14.00">latitude &lt;= 42.096</text>
<text text-anchor="middle" x="256.5" y="-819.8" font-family="Times,serif" font-size="14.00">class = USA</text>
</g>
<!-- 0&#45;&gt;1 -->
<g id="edge1" class="edge">
<title>0&#45;&gt;1</title>
<path fill="none" stroke="black" d="M308.09,-885.83C299.98,-877.37 290.18,-867.15 281.32,-857.9"/>
<polygon fill="black" stroke="black" points="283.59,-855.21 274.15,-850.41 278.54,-860.05 283.59,-855.21"/>
<text text-anchor="middle" x="273.61" y="-871.71" font-family="Times,serif" font-size="14.00">True</text>
</g>
<!-- 6 -->
<g id="node7" class="node">
<title>6</title>
<polygon fill="none" stroke="black" points="454.5,-850 334.5,-850 334.5,-812 454.5,-812 454.5,-850"/>
<text text-anchor="middle" x="394.5" y="-834.8" font-family="Times,serif" font-size="14.00">latitude &lt;= 55.958</text>
<text text-anchor="middle" x="394.5" y="-819.8" font-family="Times,serif" font-size="14.00">class = Canada</text>
</g>
<!-- 0&#45;&gt;6 -->
<g id="edge6" class="edge">
<title>0&#45;&gt;6</title>
<path fill="none" stroke="black" d="M342.91,-885.83C351.02,-877.37 360.82,-867.15 369.68,-857.9"/>
<polygon fill="black" stroke="black" points="372.46,-860.05 376.85,-850.41 367.41,-855.21 372.46,-860.05"/>
<text text-anchor="middle" x="377.39" y="-871.71" font-family="Times,serif" font-size="14.00">False</text>
</g>
<!-- 2 -->
<g id="node3" class="node">
<title>2</title>
<polygon fill="none" stroke="black" points="180,-775 93,-775 93,-739 180,-739 180,-775"/>
<text text-anchor="middle" x="136.5" y="-753.3" font-family="Times,serif" font-size="14.00">class = USA</text>
</g>
<!-- 1&#45;&gt;2 -->
<g id="edge2" class="edge">
<title>1&#45;&gt;2</title>
<path fill="none" stroke="black" d="M226.22,-811.83C210.4,-802.34 190.9,-790.64 174.12,-780.57"/>
<polygon fill="black" stroke="black" points="175.49,-777.32 165.12,-775.17 171.89,-783.32 175.49,-777.32"/>
</g>
<!-- 3 -->
<g id="node4" class="node">
<title>3</title>
<polygon fill="none" stroke="black" points="318.5,-776 198.5,-776 198.5,-738 318.5,-738 318.5,-776"/>
<text text-anchor="middle" x="258.5" y="-760.8" font-family="Times,serif" font-size="14.00">latitude &lt;= 42.324</text>
<text text-anchor="middle" x="258.5" y="-745.8" font-family="Times,serif" font-size="14.00">class = USA</text>
</g>
<!-- 1&#45;&gt;3 -->
<g id="edge3" class="edge">
<title>1&#45;&gt;3</title>
<path fill="none" stroke="black" d="M257,-811.83C257.22,-804.13 257.47,-794.97 257.71,-786.42"/>
<polygon fill="black" stroke="black" points="261.21,-786.51 257.99,-776.41 254.21,-786.31 261.21,-786.51"/>
</g>
<!-- 4 -->
<g id="node5" class="node">
<title>4</title>
<polygon fill="none" stroke="black" points="198,-701 97,-701 97,-665 198,-665 198,-701"/>
<text text-anchor="middle" x="147.5" y="-679.3" font-family="Times,serif" font-size="14.00">class = Canada</text>
</g>
<!-- 3&#45;&gt;4 -->
<g id="edge4" class="edge">
<title>3&#45;&gt;4</title>
<path fill="none" stroke="black" d="M230.49,-737.83C215.99,-728.43 198.15,-716.86 182.73,-706.85"/>
<polygon fill="black" stroke="black" points="184.27,-703.68 173.97,-701.17 180.46,-709.55 184.27,-703.68"/>
</g>
<!-- 5 -->
<g id="node6" class="node">
<title>5</title>
<polygon fill="none" stroke="black" points="303,-701 216,-701 216,-665 303,-665 303,-701"/>
<text text-anchor="middle" x="259.5" y="-679.3" font-family="Times,serif" font-size="14.00">class = USA</text>
</g>
<!-- 3&#45;&gt;5 -->
<g id="edge5" class="edge">
<title>3&#45;&gt;5</title>
<path fill="none" stroke="black" d="M258.75,-737.83C258.86,-729.89 258.99,-720.41 259.12,-711.63"/>
<polygon fill="black" stroke="black" points="262.62,-711.47 259.26,-701.42 255.62,-711.37 262.62,-711.47"/>
</g>
<!-- 7 -->
<g id="node8" class="node">
<title>7</title>
<polygon fill="none" stroke="black" points="446.5,-776 340.5,-776 340.5,-738 446.5,-738 446.5,-776"/>
<text text-anchor="middle" x="393.5" y="-760.8" font-family="Times,serif" font-size="14.00">latitude &lt;= 49.0</text>
<text text-anchor="middle" x="393.5" y="-745.8" font-family="Times,serif" font-size="14.00">class = Canada</text>
</g>
<!-- 6&#45;&gt;7 -->
<g id="edge7" class="edge">
<title>6&#45;&gt;7</title>
<path fill="none" stroke="black" d="M394.25,-811.83C394.14,-804.13 394.01,-794.97 393.89,-786.42"/>
<polygon fill="black" stroke="black" points="397.39,-786.36 393.76,-776.41 390.4,-786.46 397.39,-786.36"/>
</g>
<!-- 54 -->
<g id="node55" class="node">
<title>54</title>
<polygon fill="none" stroke="black" points="552,-775 465,-775 465,-739 552,-739 552,-775"/>
<text text-anchor="middle" x="508.5" y="-753.3" font-family="Times,serif" font-size="14.00">class = USA</text>
</g>
<!-- 6&#45;&gt;54 -->
<g id="edge54" class="edge">
<title>6&#45;&gt;54</title>
<path fill="none" stroke="black" d="M423.27,-811.83C438.29,-802.34 456.82,-790.64 472.76,-780.57"/>
<polygon fill="black" stroke="black" points="474.73,-783.47 481.31,-775.17 470.99,-777.55 474.73,-783.47"/>
</g>
<!-- 8 -->
<g id="node9" class="node">
<title>8</title>
<polygon fill="none" stroke="black" points="460,-702 325,-702 325,-664 460,-664 460,-702"/>
<text text-anchor="middle" x="392.5" y="-686.8" font-family="Times,serif" font-size="14.00">longitude &lt;= &#45;94.582</text>
<text text-anchor="middle" x="392.5" y="-671.8" font-family="Times,serif" font-size="14.00">class = Canada</text>
</g>
<!-- 7&#45;&gt;8 -->
<g id="edge8" class="edge">
<title>7&#45;&gt;8</title>
<path fill="none" stroke="black" d="M393.25,-737.83C393.14,-730.13 393.01,-720.97 392.89,-712.42"/>
<polygon fill="black" stroke="black" points="396.39,-712.36 392.76,-702.41 389.4,-712.46 396.39,-712.36"/>
</g>
<!-- 53 -->
<g id="node54" class="node">
<title>53</title>
<polygon fill="none" stroke="black" points="579,-701 478,-701 478,-665 579,-665 579,-701"/>
<text text-anchor="middle" x="528.5" y="-679.3" font-family="Times,serif" font-size="14.00">class = Canada</text>
</g>
<!-- 7&#45;&gt;53 -->
<g id="edge53" class="edge">
<title>7&#45;&gt;53</title>
<path fill="none" stroke="black" d="M427.57,-737.83C445.69,-728.17 468.12,-716.2 487.22,-706.01"/>
<polygon fill="black" stroke="black" points="489.13,-708.97 496.3,-701.17 485.83,-702.79 489.13,-708.97"/>
</g>
<!-- 9 -->
<g id="node10" class="node">
<title>9</title>
<polygon fill="none" stroke="black" points="385.5,-628 243.5,-628 243.5,-590 385.5,-590 385.5,-628"/>
<text text-anchor="middle" x="314.5" y="-612.8" font-family="Times,serif" font-size="14.00">longitude &lt;= &#45;123.222</text>
<text text-anchor="middle" x="314.5" y="-597.8" font-family="Times,serif" font-size="14.00">class = USA</text>
</g>
<!-- 8&#45;&gt;9 -->
<g id="edge9" class="edge">
<title>8&#45;&gt;9</title>
<path fill="none" stroke="black" d="M372.82,-663.83C363.39,-655.13 351.96,-644.58 341.72,-635.13"/>
<polygon fill="black" stroke="black" points="343.9,-632.37 334.18,-628.16 339.15,-637.52 343.9,-632.37"/>
</g>
<!-- 12 -->
<g id="node13" class="node">
<title>12</title>
<polygon fill="none" stroke="black" points="539,-628 404,-628 404,-590 539,-590 539,-628"/>
<text text-anchor="middle" x="471.5" y="-612.8" font-family="Times,serif" font-size="14.00">longitude &lt;= &#45;69.246</text>
<text text-anchor="middle" x="471.5" y="-597.8" font-family="Times,serif" font-size="14.00">class = Canada</text>
</g>
<!-- 8&#45;&gt;12 -->
<g id="edge12" class="edge">
<title>8&#45;&gt;12</title>
<path fill="none" stroke="black" d="M412.44,-663.83C421.98,-655.13 433.56,-644.58 443.93,-635.13"/>
<polygon fill="black" stroke="black" points="446.54,-637.49 451.57,-628.16 441.82,-632.31 446.54,-637.49"/>
</g>
<!-- 10 -->
<g id="node11" class="node">
<title>10</title>
<polygon fill="none" stroke="black" points="262,-553 161,-553 161,-517 262,-517 262,-553"/>
<text text-anchor="middle" x="211.5" y="-531.3" font-family="Times,serif" font-size="14.00">class = Canada</text>
</g>
<!-- 9&#45;&gt;10 -->
<g id="edge10" class="edge">
<title>9&#45;&gt;10</title>
<path fill="none" stroke="black" d="M288.51,-589.83C275.18,-580.52 258.81,-569.07 244.59,-559.13"/>
<polygon fill="black" stroke="black" points="246.27,-556.03 236.06,-553.17 242.26,-561.77 246.27,-556.03"/>
</g>
<!-- 11 -->
<g id="node12" class="node">
<title>11</title>
<polygon fill="none" stroke="black" points="367,-553 280,-553 280,-517 367,-517 367,-553"/>
<text text-anchor="middle" x="323.5" y="-531.3" font-family="Times,serif" font-size="14.00">class = USA</text>
</g>
<!-- 9&#45;&gt;11 -->
<g id="edge11" class="edge">
<title>9&#45;&gt;11</title>
<path fill="none" stroke="black" d="M316.77,-589.83C317.76,-581.89 318.95,-572.41 320.05,-563.63"/>
<polygon fill="black" stroke="black" points="323.56,-563.77 321.32,-553.42 316.61,-562.91 323.56,-563.77"/>
</g>
<!-- 13 -->
<g id="node14" class="node">
<title>13</title>
<polygon fill="none" stroke="black" points="522.5,-554 402.5,-554 402.5,-516 522.5,-516 522.5,-554"/>
<text text-anchor="middle" x="462.5" y="-538.8" font-family="Times,serif" font-size="14.00">latitude &lt;= 43.093</text>
<text text-anchor="middle" x="462.5" y="-523.8" font-family="Times,serif" font-size="14.00">class = Canada</text>
</g>
<!-- 12&#45;&gt;13 -->
<g id="edge13" class="edge">
<title>12&#45;&gt;13</title>
<path fill="none" stroke="black" d="M469.23,-589.83C468.27,-582.13 467.12,-572.97 466.05,-564.42"/>
<polygon fill="black" stroke="black" points="469.52,-563.9 464.8,-554.41 462.57,-564.77 469.52,-563.9"/>
</g>
<!-- 36 -->
<g id="node37" class="node">
<title>36</title>
<polygon fill="none" stroke="black" points="715,-554 580,-554 580,-516 715,-516 715,-554"/>
<text text-anchor="middle" x="647.5" y="-538.8" font-family="Times,serif" font-size="14.00">longitude &lt;= &#45;66.952</text>
<text text-anchor="middle" x="647.5" y="-523.8" font-family="Times,serif" font-size="14.00">class = Canada</text>
</g>
<!-- 12&#45;&gt;36 -->
<g id="edge36" class="edge">
<title>12&#45;&gt;36</title>
<path fill="none" stroke="black" d="M515.91,-589.83C539.66,-580.12 569.07,-568.08 594.07,-557.86"/>
<polygon fill="black" stroke="black" points="595.48,-561.06 603.41,-554.04 592.83,-554.58 595.48,-561.06"/>
</g>
<!-- 14 -->
<g id="node15" class="node">
<title>14</title>
<polygon fill="none" stroke="black" points="344.5,-480 224.5,-480 224.5,-442 344.5,-442 344.5,-480"/>
<text text-anchor="middle" x="284.5" y="-464.8" font-family="Times,serif" font-size="14.00">latitude &lt;= 43.014</text>
<text text-anchor="middle" x="284.5" y="-449.8" font-family="Times,serif" font-size="14.00">class = Canada</text>
</g>
<!-- 13&#45;&gt;14 -->
<g id="edge14" class="edge">
<title>13&#45;&gt;14</title>
<path fill="none" stroke="black" d="M417.58,-515.83C393.57,-506.12 363.82,-494.08 338.54,-483.86"/>
<polygon fill="black" stroke="black" points="339.68,-480.54 329.09,-480.04 337.05,-487.03 339.68,-480.54"/>
</g>
<!-- 19 -->
<g id="node20" class="node">
<title>19</title>
<polygon fill="none" stroke="black" points="522.5,-480 402.5,-480 402.5,-442 522.5,-442 522.5,-480"/>
<text text-anchor="middle" x="462.5" y="-464.8" font-family="Times,serif" font-size="14.00">latitude &lt;= 44.992</text>
<text text-anchor="middle" x="462.5" y="-449.8" font-family="Times,serif" font-size="14.00">class = Canada</text>
</g>
<!-- 13&#45;&gt;19 -->
<g id="edge19" class="edge">
<title>13&#45;&gt;19</title>
<path fill="none" stroke="black" d="M462.5,-515.83C462.5,-508.13 462.5,-498.97 462.5,-490.42"/>
<polygon fill="black" stroke="black" points="466,-490.41 462.5,-480.41 459,-490.41 466,-490.41"/>
</g>
<!-- 15 -->
<g id="node16" class="node">
<title>15</title>
<polygon fill="none" stroke="black" points="223,-406 88,-406 88,-368 223,-368 223,-406"/>
<text text-anchor="middle" x="155.5" y="-390.8" font-family="Times,serif" font-size="14.00">longitude &lt;= &#45;81.845</text>
<text text-anchor="middle" x="155.5" y="-375.8" font-family="Times,serif" font-size="14.00">class = Canada</text>
</g>
<!-- 14&#45;&gt;15 -->
<g id="edge15" class="edge">
<title>14&#45;&gt;15</title>
<path fill="none" stroke="black" d="M251.95,-441.83C235.3,-432.54 214.84,-421.12 197.06,-411.2"/>
<polygon fill="black" stroke="black" points="198.48,-407.98 188.04,-406.16 195.07,-414.09 198.48,-407.98"/>
</g>
<!-- 18 -->
<g id="node19" class="node">
<title>18</title>
<polygon fill="none" stroke="black" points="328,-405 241,-405 241,-369 328,-369 328,-405"/>
<text text-anchor="middle" x="284.5" y="-383.3" font-family="Times,serif" font-size="14.00">class = USA</text>
</g>
<!-- 14&#45;&gt;18 -->
<g id="edge18" class="edge">
<title>14&#45;&gt;18</title>
<path fill="none" stroke="black" d="M284.5,-441.83C284.5,-433.89 284.5,-424.41 284.5,-415.63"/>
<polygon fill="black" stroke="black" points="288,-415.42 284.5,-405.42 281,-415.42 288,-415.42"/>
</g>
<!-- 16 -->
<g id="node17" class="node">
<title>16</title>
<polygon fill="none" stroke="black" points="87,-331 0,-331 0,-295 87,-295 87,-331"/>
<text text-anchor="middle" x="43.5" y="-309.3" font-family="Times,serif" font-size="14.00">class = USA</text>
</g>
<!-- 15&#45;&gt;16 -->
<g id="edge16" class="edge">
<title>15&#45;&gt;16</title>
<path fill="none" stroke="black" d="M127.24,-367.83C112.61,-358.43 94.61,-346.86 79.05,-336.85"/>
<polygon fill="black" stroke="black" points="80.52,-333.63 70.21,-331.17 76.73,-339.52 80.52,-333.63"/>
</g>
<!-- 17 -->
<g id="node18" class="node">
<title>17</title>
<polygon fill="none" stroke="black" points="206,-331 105,-331 105,-295 206,-295 206,-331"/>
<text text-anchor="middle" x="155.5" y="-309.3" font-family="Times,serif" font-size="14.00">class = Canada</text>
</g>
<!-- 15&#45;&gt;17 -->
<g id="edge17" class="edge">
<title>15&#45;&gt;17</title>
<path fill="none" stroke="black" d="M155.5,-367.83C155.5,-359.89 155.5,-350.41 155.5,-341.63"/>
<polygon fill="black" stroke="black" points="159,-341.42 155.5,-331.42 152,-341.42 159,-341.42"/>
</g>
<!-- 20 -->
<g id="node21" class="node">
<title>20</title>
<polygon fill="none" stroke="black" points="466.5,-406 346.5,-406 346.5,-368 466.5,-368 466.5,-406"/>
<text text-anchor="middle" x="406.5" y="-390.8" font-family="Times,serif" font-size="14.00">latitude &lt;= 44.542</text>
<text text-anchor="middle" x="406.5" y="-375.8" font-family="Times,serif" font-size="14.00">class = Canada</text>
</g>
<!-- 19&#45;&gt;20 -->
<g id="edge20" class="edge">
<title>19&#45;&gt;20</title>
<path fill="none" stroke="black" d="M448.37,-441.83C441.92,-433.54 434.16,-423.56 427.07,-414.45"/>
<polygon fill="black" stroke="black" points="429.72,-412.16 420.82,-406.41 424.2,-416.46 429.72,-412.16"/>
</g>
<!-- 35 -->
<g id="node36" class="node">
<title>35</title>
<polygon fill="none" stroke="black" points="586,-405 485,-405 485,-369 586,-369 586,-405"/>
<text text-anchor="middle" x="535.5" y="-383.3" font-family="Times,serif" font-size="14.00">class = Canada</text>
</g>
<!-- 19&#45;&gt;35 -->
<g id="edge35" class="edge">
<title>19&#45;&gt;35</title>
<path fill="none" stroke="black" d="M480.92,-441.83C490.01,-432.87 501.1,-421.93 510.9,-412.26"/>
<polygon fill="black" stroke="black" points="513.43,-414.69 518.09,-405.17 508.51,-409.7 513.43,-414.69"/>
</g>
<!-- 21 -->
<g id="node22" class="node">
<title>21</title>
<polygon fill="none" stroke="black" points="359,-332 224,-332 224,-294 359,-294 359,-332"/>
<text text-anchor="middle" x="291.5" y="-316.8" font-family="Times,serif" font-size="14.00">longitude &lt;= &#45;79.076</text>
<text text-anchor="middle" x="291.5" y="-301.8" font-family="Times,serif" font-size="14.00">class = Canada</text>
</g>
<!-- 20&#45;&gt;21 -->
<g id="edge21" class="edge">
<title>20&#45;&gt;21</title>
<path fill="none" stroke="black" d="M377.48,-367.83C362.77,-358.62 344.74,-347.33 328.99,-337.47"/>
<polygon fill="black" stroke="black" points="330.84,-334.5 320.51,-332.16 327.13,-340.44 330.84,-334.5"/>
</g>
<!-- 30 -->
<g id="node31" class="node">
<title>30</title>
<polygon fill="none" stroke="black" points="497.5,-332 377.5,-332 377.5,-294 497.5,-294 497.5,-332"/>
<text text-anchor="middle" x="437.5" y="-316.8" font-family="Times,serif" font-size="14.00">latitude &lt;= 44.706</text>
<text text-anchor="middle" x="437.5" y="-301.8" font-family="Times,serif" font-size="14.00">class = USA</text>
</g>
<!-- 20&#45;&gt;30 -->
<g id="edge30" class="edge">
<title>20&#45;&gt;30</title>
<path fill="none" stroke="black" d="M414.32,-367.83C417.71,-359.96 421.75,-350.57 425.51,-341.85"/>
<polygon fill="black" stroke="black" points="428.83,-342.98 429.57,-332.41 422.4,-340.21 428.83,-342.98"/>
</g>
<!-- 22 -->
<g id="node23" class="node">
<title>22</title>
<polygon fill="none" stroke="black" points="213,-257 112,-257 112,-221 213,-221 213,-257"/>
<text text-anchor="middle" x="162.5" y="-235.3" font-family="Times,serif" font-size="14.00">class = Canada</text>
</g>
<!-- 21&#45;&gt;22 -->
<g id="edge22" class="edge">
<title>21&#45;&gt;22</title>
<path fill="none" stroke="black" d="M258.95,-293.83C241.79,-284.25 220.59,-272.42 202.44,-262.29"/>
<polygon fill="black" stroke="black" points="203.7,-258.99 193.27,-257.17 200.29,-265.1 203.7,-258.99"/>
</g>
<!-- 23 -->
<g id="node24" class="node">
<title>23</title>
<polygon fill="none" stroke="black" points="351.5,-258 231.5,-258 231.5,-220 351.5,-220 351.5,-258"/>
<text text-anchor="middle" x="291.5" y="-242.8" font-family="Times,serif" font-size="14.00">latitude &lt;= 44.168</text>
<text text-anchor="middle" x="291.5" y="-227.8" font-family="Times,serif" font-size="14.00">class = Canada</text>
</g>
<!-- 21&#45;&gt;23 -->
<g id="edge23" class="edge">
<title>21&#45;&gt;23</title>
<path fill="none" stroke="black" d="M291.5,-293.83C291.5,-286.13 291.5,-276.97 291.5,-268.42"/>
<polygon fill="black" stroke="black" points="295,-268.41 291.5,-258.41 288,-268.41 295,-268.41"/>
</g>
<!-- 24 -->
<g id="node25" class="node">
<title>24</title>
<polygon fill="none" stroke="black" points="228.5,-184 100.5,-184 100.5,-146 228.5,-146 228.5,-184"/>
<text text-anchor="middle" x="164.5" y="-168.8" font-family="Times,serif" font-size="14.00">longitude &lt;= &#45;79.03</text>
<text text-anchor="middle" x="164.5" y="-153.8" font-family="Times,serif" font-size="14.00">class = USA</text>
</g>
<!-- 23&#45;&gt;24 -->
<g id="edge24" class="edge">
<title>23&#45;&gt;24</title>
<path fill="none" stroke="black" d="M259.45,-219.83C243.06,-210.54 222.92,-199.12 205.42,-189.2"/>
<polygon fill="black" stroke="black" points="206.96,-186.05 196.54,-184.16 203.51,-192.14 206.96,-186.05"/>
</g>
<!-- 29 -->
<g id="node30" class="node">
<title>29</title>
<polygon fill="none" stroke="black" points="348,-183 247,-183 247,-147 348,-147 348,-183"/>
<text text-anchor="middle" x="297.5" y="-161.3" font-family="Times,serif" font-size="14.00">class = Canada</text>
</g>
<!-- 23&#45;&gt;29 -->
<g id="edge29" class="edge">
<title>23&#45;&gt;29</title>
<path fill="none" stroke="black" d="M293.01,-219.83C293.68,-211.89 294.47,-202.41 295.2,-193.63"/>
<polygon fill="black" stroke="black" points="298.71,-193.67 296.05,-183.42 291.73,-193.09 298.71,-193.67"/>
</g>
<!-- 25 -->
<g id="node26" class="node">
<title>25</title>
<polygon fill="none" stroke="black" points="144,-109 57,-109 57,-73 144,-73 144,-109"/>
<text text-anchor="middle" x="100.5" y="-87.3" font-family="Times,serif" font-size="14.00">class = USA</text>
</g>
<!-- 24&#45;&gt;25 -->
<g id="edge25" class="edge">
<title>24&#45;&gt;25</title>
<path fill="none" stroke="black" d="M148.35,-145.83C140.6,-137.11 131.18,-126.52 122.76,-117.05"/>
<polygon fill="black" stroke="black" points="125.24,-114.57 115.98,-109.42 120.01,-119.22 125.24,-114.57"/>
</g>
<!-- 26 -->
<g id="node27" class="node">
<title>26</title>
<polygon fill="none" stroke="black" points="297,-110 162,-110 162,-72 297,-72 297,-110"/>
<text text-anchor="middle" x="229.5" y="-94.8" font-family="Times,serif" font-size="14.00">longitude &lt;= &#45;77.678</text>
<text text-anchor="middle" x="229.5" y="-79.8" font-family="Times,serif" font-size="14.00">class = Canada</text>
</g>
<!-- 24&#45;&gt;26 -->
<g id="edge26" class="edge">
<title>24&#45;&gt;26</title>
<path fill="none" stroke="black" d="M180.9,-145.83C188.54,-137.37 197.77,-127.15 206.12,-117.9"/>
<polygon fill="black" stroke="black" points="208.77,-120.18 212.88,-110.41 203.58,-115.49 208.77,-120.18"/>
</g>
<!-- 27 -->
<g id="node28" class="node">
<title>27</title>
<polygon fill="none" stroke="black" points="224,-36 123,-36 123,0 224,0 224,-36"/>
<text text-anchor="middle" x="173.5" y="-14.3" font-family="Times,serif" font-size="14.00">class = Canada</text>
</g>
<!-- 26&#45;&gt;27 -->
<g id="edge27" class="edge">
<title>26&#45;&gt;27</title>
<path fill="none" stroke="black" d="M215.08,-71.72C208.43,-63.29 200.43,-53.15 193.23,-44.02"/>
<polygon fill="black" stroke="black" points="195.85,-41.69 186.91,-36 190.36,-46.02 195.85,-41.69"/>
</g>
<!-- 28 -->
<g id="node29" class="node">
<title>28</title>
<polygon fill="none" stroke="black" points="329,-36 242,-36 242,0 329,0 329,-36"/>
<text text-anchor="middle" x="285.5" y="-14.3" font-family="Times,serif" font-size="14.00">class = USA</text>
</g>
<!-- 26&#45;&gt;28 -->
<g id="edge28" class="edge">
<title>26&#45;&gt;28</title>
<path fill="none" stroke="black" d="M243.92,-71.72C250.57,-63.29 258.57,-53.15 265.77,-44.02"/>
<polygon fill="black" stroke="black" points="268.64,-46.02 272.09,-36 263.15,-41.69 268.64,-46.02"/>
</g>
<!-- 31 -->
<g id="node32" class="node">
<title>31</title>
<polygon fill="none" stroke="black" points="457,-257 370,-257 370,-221 457,-221 457,-257"/>
<text text-anchor="middle" x="413.5" y="-235.3" font-family="Times,serif" font-size="14.00">class = USA</text>
</g>
<!-- 30&#45;&gt;31 -->
<g id="edge31" class="edge">
<title>30&#45;&gt;31</title>
<path fill="none" stroke="black" d="M431.44,-293.83C428.74,-285.72 425.5,-275.99 422.52,-267.05"/>
<polygon fill="black" stroke="black" points="425.79,-265.8 419.31,-257.42 419.15,-268.01 425.79,-265.8"/>
</g>
<!-- 32 -->
<g id="node33" class="node">
<title>32</title>
<polygon fill="none" stroke="black" points="595.5,-258 475.5,-258 475.5,-220 595.5,-220 595.5,-258"/>
<text text-anchor="middle" x="535.5" y="-242.8" font-family="Times,serif" font-size="14.00">latitude &lt;= 44.848</text>
<text text-anchor="middle" x="535.5" y="-227.8" font-family="Times,serif" font-size="14.00">class = Canada</text>
</g>
<!-- 30&#45;&gt;32 -->
<g id="edge32" class="edge">
<title>30&#45;&gt;32</title>
<path fill="none" stroke="black" d="M462.23,-293.83C474.42,-284.88 489.28,-273.96 502.43,-264.3"/>
<polygon fill="black" stroke="black" points="504.79,-266.9 510.78,-258.16 500.65,-261.26 504.79,-266.9"/>
</g>
<!-- 33 -->
<g id="node34" class="node">
<title>33</title>
<polygon fill="none" stroke="black" points="474,-183 373,-183 373,-147 474,-147 474,-183"/>
<text text-anchor="middle" x="423.5" y="-161.3" font-family="Times,serif" font-size="14.00">class = Canada</text>
</g>
<!-- 32&#45;&gt;33 -->
<g id="edge33" class="edge">
<title>32&#45;&gt;33</title>
<path fill="none" stroke="black" d="M507.24,-219.83C492.61,-210.43 474.61,-198.86 459.05,-188.85"/>
<polygon fill="black" stroke="black" points="460.52,-185.63 450.21,-183.17 456.73,-191.52 460.52,-185.63"/>
</g>
<!-- 34 -->
<g id="node35" class="node">
<title>34</title>
<polygon fill="none" stroke="black" points="579,-183 492,-183 492,-147 579,-147 579,-183"/>
<text text-anchor="middle" x="535.5" y="-161.3" font-family="Times,serif" font-size="14.00">class = USA</text>
</g>
<!-- 32&#45;&gt;34 -->
<g id="edge34" class="edge">
<title>32&#45;&gt;34</title>
<path fill="none" stroke="black" d="M535.5,-219.83C535.5,-211.89 535.5,-202.41 535.5,-193.63"/>
<polygon fill="black" stroke="black" points="539,-193.42 535.5,-183.42 532,-193.42 539,-193.42"/>
</g>
<!-- 37 -->
<g id="node38" class="node">
<title>37</title>
<polygon fill="none" stroke="black" points="707.5,-480 587.5,-480 587.5,-442 707.5,-442 707.5,-480"/>
<text text-anchor="middle" x="647.5" y="-464.8" font-family="Times,serif" font-size="14.00">latitude &lt;= 45.195</text>
<text text-anchor="middle" x="647.5" y="-449.8" font-family="Times,serif" font-size="14.00">class = USA</text>
</g>
<!-- 36&#45;&gt;37 -->
<g id="edge37" class="edge">
<title>36&#45;&gt;37</title>
<path fill="none" stroke="black" d="M647.5,-515.83C647.5,-508.13 647.5,-498.97 647.5,-490.42"/>
<polygon fill="black" stroke="black" points="651,-490.41 647.5,-480.41 644,-490.41 651,-490.41"/>
</g>
<!-- 52 -->
<g id="node53" class="node">
<title>52</title>
<polygon fill="none" stroke="black" points="827,-479 726,-479 726,-443 827,-443 827,-479"/>
<text text-anchor="middle" x="776.5" y="-457.3" font-family="Times,serif" font-size="14.00">class = Canada</text>
</g>
<!-- 36&#45;&gt;52 -->
<g id="edge52" class="edge">
<title>36&#45;&gt;52</title>
<path fill="none" stroke="black" d="M680.05,-515.83C697.21,-506.25 718.41,-494.42 736.56,-484.29"/>
<polygon fill="black" stroke="black" points="738.71,-487.1 745.73,-479.17 735.3,-480.99 738.71,-487.1"/>
</g>
<!-- 38 -->
<g id="node39" class="node">
<title>38</title>
<polygon fill="none" stroke="black" points="691,-405 604,-405 604,-369 691,-369 691,-405"/>
<text text-anchor="middle" x="647.5" y="-383.3" font-family="Times,serif" font-size="14.00">class = USA</text>
</g>
<!-- 37&#45;&gt;38 -->
<g id="edge38" class="edge">
<title>37&#45;&gt;38</title>
<path fill="none" stroke="black" d="M647.5,-441.83C647.5,-433.89 647.5,-424.41 647.5,-415.63"/>
<polygon fill="black" stroke="black" points="651,-415.42 647.5,-405.42 644,-415.42 651,-415.42"/>
</g>
<!-- 39 -->
<g id="node40" class="node">
<title>39</title>
<polygon fill="none" stroke="black" points="837.5,-406 709.5,-406 709.5,-368 837.5,-368 837.5,-406"/>
<text text-anchor="middle" x="773.5" y="-390.8" font-family="Times,serif" font-size="14.00">longitude &lt;= &#45;67.93</text>
<text text-anchor="middle" x="773.5" y="-375.8" font-family="Times,serif" font-size="14.00">class = Canada</text>
</g>
<!-- 37&#45;&gt;39 -->
<g id="edge39" class="edge">
<title>37&#45;&gt;39</title>
<path fill="none" stroke="black" d="M679.3,-441.83C695.56,-432.54 715.54,-421.12 732.91,-411.2"/>
<polygon fill="black" stroke="black" points="734.77,-414.16 741.72,-406.16 731.3,-408.09 734.77,-414.16"/>
</g>
<!-- 40 -->
<g id="node41" class="node">
<title>40</title>
<polygon fill="none" stroke="black" points="841,-332 706,-332 706,-294 841,-294 841,-332"/>
<text text-anchor="middle" x="773.5" y="-316.8" font-family="Times,serif" font-size="14.00">longitude &lt;= &#45;68.325</text>
<text text-anchor="middle" x="773.5" y="-301.8" font-family="Times,serif" font-size="14.00">class = USA</text>
</g>
<!-- 39&#45;&gt;40 -->
<g id="edge40" class="edge">
<title>39&#45;&gt;40</title>
<path fill="none" stroke="black" d="M773.5,-367.83C773.5,-360.13 773.5,-350.97 773.5,-342.42"/>
<polygon fill="black" stroke="black" points="777,-342.41 773.5,-332.41 770,-342.41 777,-342.41"/>
</g>
<!-- 47 -->
<g id="node48" class="node">
<title>47</title>
<polygon fill="none" stroke="black" points="979.5,-332 859.5,-332 859.5,-294 979.5,-294 979.5,-332"/>
<text text-anchor="middle" x="919.5" y="-316.8" font-family="Times,serif" font-size="14.00">latitude &lt;= 45.565</text>
<text text-anchor="middle" x="919.5" y="-301.8" font-family="Times,serif" font-size="14.00">class = Canada</text>
</g>
<!-- 39&#45;&gt;47 -->
<g id="edge47" class="edge">
<title>39&#45;&gt;47</title>
<path fill="none" stroke="black" d="M810.34,-367.83C829.61,-358.33 853.37,-346.61 873.8,-336.54"/>
<polygon fill="black" stroke="black" points="875.5,-339.6 882.92,-332.04 872.41,-333.32 875.5,-339.6"/>
</g>
<!-- 41 -->
<g id="node42" class="node">
<title>41</title>
<polygon fill="none" stroke="black" points="734.5,-258 614.5,-258 614.5,-220 734.5,-220 734.5,-258"/>
<text text-anchor="middle" x="674.5" y="-242.8" font-family="Times,serif" font-size="14.00">latitude &lt;= 47.256</text>
<text text-anchor="middle" x="674.5" y="-227.8" font-family="Times,serif" font-size="14.00">class = Canada</text>
</g>
<!-- 40&#45;&gt;41 -->
<g id="edge41" class="edge">
<title>40&#45;&gt;41</title>
<path fill="none" stroke="black" d="M748.52,-293.83C736.21,-284.88 721.19,-273.96 707.91,-264.3"/>
<polygon fill="black" stroke="black" points="709.62,-261.21 699.47,-258.16 705.5,-266.88 709.62,-261.21"/>
</g>
<!-- 46 -->
<g id="node47" class="node">
<title>46</title>
<polygon fill="none" stroke="black" points="840,-257 753,-257 753,-221 840,-221 840,-257"/>
<text text-anchor="middle" x="796.5" y="-235.3" font-family="Times,serif" font-size="14.00">class = USA</text>
</g>
<!-- 40&#45;&gt;46 -->
<g id="edge46" class="edge">
<title>40&#45;&gt;46</title>
<path fill="none" stroke="black" d="M779.3,-293.83C781.9,-285.72 785,-275.99 787.86,-267.05"/>
<polygon fill="black" stroke="black" points="791.23,-268.01 790.94,-257.42 784.56,-265.88 791.23,-268.01"/>
</g>
<!-- 42 -->
<g id="node43" class="node">
<title>42</title>
<polygon fill="none" stroke="black" points="698,-183 597,-183 597,-147 698,-147 698,-183"/>
<text text-anchor="middle" x="647.5" y="-161.3" font-family="Times,serif" font-size="14.00">class = Canada</text>
</g>
<!-- 41&#45;&gt;42 -->
<g id="edge42" class="edge">
<title>41&#45;&gt;42</title>
<path fill="none" stroke="black" d="M667.69,-219.83C664.64,-211.72 661,-201.99 657.64,-193.05"/>
<polygon fill="black" stroke="black" points="660.82,-191.55 654.03,-183.42 654.27,-194.01 660.82,-191.55"/>
</g>
<!-- 43 -->
<g id="node44" class="node">
<title>43</title>
<polygon fill="none" stroke="black" points="851,-184 716,-184 716,-146 851,-146 851,-184"/>
<text text-anchor="middle" x="783.5" y="-168.8" font-family="Times,serif" font-size="14.00">longitude &lt;= &#45;68.459</text>
<text text-anchor="middle" x="783.5" y="-153.8" font-family="Times,serif" font-size="14.00">class = USA</text>
</g>
<!-- 41&#45;&gt;43 -->
<g id="edge43" class="edge">
<title>41&#45;&gt;43</title>
<path fill="none" stroke="black" d="M702.01,-219.83C715.82,-210.71 732.73,-199.54 747.55,-189.74"/>
<polygon fill="black" stroke="black" points="749.59,-192.59 756,-184.16 745.73,-186.75 749.59,-192.59"/>
</g>
<!-- 44 -->
<g id="node45" class="node">
<title>44</title>
<polygon fill="none" stroke="black" points="771,-109 684,-109 684,-73 771,-73 771,-109"/>
<text text-anchor="middle" x="727.5" y="-87.3" font-family="Times,serif" font-size="14.00">class = USA</text>
</g>
<!-- 43&#45;&gt;44 -->
<g id="edge44" class="edge">
<title>43&#45;&gt;44</title>
<path fill="none" stroke="black" d="M769.37,-145.83C762.65,-137.2 754.51,-126.73 747.2,-117.33"/>
<polygon fill="black" stroke="black" points="749.95,-115.16 741.05,-109.42 744.42,-119.46 749.95,-115.16"/>
</g>
<!-- 45 -->
<g id="node46" class="node">
<title>45</title>
<polygon fill="none" stroke="black" points="890,-109 789,-109 789,-73 890,-73 890,-109"/>
<text text-anchor="middle" x="839.5" y="-87.3" font-family="Times,serif" font-size="14.00">class = Canada</text>
</g>
<!-- 43&#45;&gt;45 -->
<g id="edge45" class="edge">
<title>43&#45;&gt;45</title>
<path fill="none" stroke="black" d="M797.63,-145.83C804.35,-137.2 812.49,-126.73 819.8,-117.33"/>
<polygon fill="black" stroke="black" points="822.58,-119.46 825.95,-109.42 817.05,-115.16 822.58,-119.46"/>
</g>
<!-- 48 -->
<g id="node49" class="node">
<title>48</title>
<polygon fill="none" stroke="black" points="979.5,-258 859.5,-258 859.5,-220 979.5,-220 979.5,-258"/>
<text text-anchor="middle" x="919.5" y="-242.8" font-family="Times,serif" font-size="14.00">latitude &lt;= 45.382</text>
<text text-anchor="middle" x="919.5" y="-227.8" font-family="Times,serif" font-size="14.00">class = Canada</text>
</g>
<!-- 47&#45;&gt;48 -->
<g id="edge48" class="edge">
<title>47&#45;&gt;48</title>
<path fill="none" stroke="black" d="M919.5,-293.83C919.5,-286.13 919.5,-276.97 919.5,-268.42"/>
<polygon fill="black" stroke="black" points="923,-268.41 919.5,-258.41 916,-268.41 923,-268.41"/>
</g>
<!-- 51 -->
<g id="node52" class="node">
<title>51</title>
<polygon fill="none" stroke="black" points="1099,-257 998,-257 998,-221 1099,-221 1099,-257"/>
<text text-anchor="middle" x="1048.5" y="-235.3" font-family="Times,serif" font-size="14.00">class = Canada</text>
</g>
<!-- 47&#45;&gt;51 -->
<g id="edge51" class="edge">
<title>47&#45;&gt;51</title>
<path fill="none" stroke="black" d="M952.05,-293.83C969.21,-284.25 990.41,-272.42 1008.56,-262.29"/>
<polygon fill="black" stroke="black" points="1010.71,-265.1 1017.73,-257.17 1007.3,-258.99 1010.71,-265.1"/>
</g>
<!-- 49 -->
<g id="node50" class="node">
<title>49</title>
<polygon fill="none" stroke="black" points="970,-183 869,-183 869,-147 970,-147 970,-183"/>
<text text-anchor="middle" x="919.5" y="-161.3" font-family="Times,serif" font-size="14.00">class = Canada</text>
</g>
<!-- 48&#45;&gt;49 -->
<g id="edge49" class="edge">
<title>48&#45;&gt;49</title>
<path fill="none" stroke="black" d="M919.5,-219.83C919.5,-211.89 919.5,-202.41 919.5,-193.63"/>
<polygon fill="black" stroke="black" points="923,-193.42 919.5,-183.42 916,-193.42 923,-193.42"/>
</g>
<!-- 50 -->
<g id="node51" class="node">
<title>50</title>
<polygon fill="none" stroke="black" points="1075,-183 988,-183 988,-147 1075,-147 1075,-183"/>
<text text-anchor="middle" x="1031.5" y="-161.3" font-family="Times,serif" font-size="14.00">class = USA</text>
</g>
<!-- 48&#45;&gt;50 -->
<g id="edge50" class="edge">
<title>48&#45;&gt;50</title>
<path fill="none" stroke="black" d="M947.76,-219.83C962.39,-210.43 980.39,-198.86 995.95,-188.85"/>
<polygon fill="black" stroke="black" points="998.27,-191.52 1004.79,-183.17 994.48,-185.63 998.27,-191.52"/>
</g>
</g>
</svg>
