<?xml version="1.0" encoding="UTF-8" standalone="no"?>
<!DOCTYPE svg PUBLIC "-//W3C//DTD SVG 1.1//EN"
 "http://www.w3.org/Graphics/SVG/1.1/DTD/svg11.dtd">
<!-- Generated by graphviz version 2.48.0 (0)
 -->
<!-- Title: Tree Pages: 1 -->
<svg width="1204pt" height="932pt"
 viewBox="0.00 0.00 1204.00 932.00" xmlns="http://www.w3.org/2000/svg" xmlns:xlink="http://www.w3.org/1999/xlink">
<g id="graph0" class="graph" transform="scale(1 1) rotate(0) translate(4 928)">
<title>Tree</title>
<polygon fill="white" stroke="transparent" points="-4,4 -4,-928 1200,-928 1200,4 -4,4"/>
<!-- 0 -->
<g id="node1" class="node">
<title>0</title>
<polygon fill="none" stroke="black" points="285.5,-924 179.5,-924 179.5,-886 285.5,-886 285.5,-924"/>
<text text-anchor="middle" x="232.5" y="-908.8" font-family="Times,serif" font-size="14.00">latitude &lt;= 42.9</text>
<text text-anchor="middle" x="232.5" y="-893.8" font-family="Times,serif" font-size="14.00">class = Canada</text>
</g>
<!-- 1 -->
<g id="node2" class="node">
<title>1</title>
<polygon fill="none" stroke="black" points="223.5,-850 103.5,-850 103.5,-812 223.5,-812 223.5,-850"/>
<text text-anchor="middle" x="163.5" y="-834.8" font-family="Times,serif" font-size="14.00">latitude &lt;= 42.096</text>
<text text-anchor="middle" x="163.5" y="-819.8" font-family="Times,serif" font-size="14.00">class = USA</text>
</g>
<!-- 0&#45;&gt;1 -->
<g id="edge1" class="edge">
<title>0&#45;&gt;1</title>
<path fill="none" stroke="black" d="M215.09,-885.83C206.98,-877.37 197.18,-867.15 188.32,-857.9"/>
<polygon fill="black" stroke="black" points="190.59,-855.21 181.15,-850.41 185.54,-860.05 190.59,-855.21"/>
<text text-anchor="middle" x="180.61" y="-871.71" font-family="Times,serif" font-size="14.00">True</text>
</g>
<!-- 6 -->
<g id="node7" class="node">
<title>6</title>
<polygon fill="none" stroke="black" points="361.5,-850 241.5,-850 241.5,-812 361.5,-812 361.5,-850"/>
<text text-anchor="middle" x="301.5" y="-834.8" font-family="Times,serif" font-size="14.00">latitude &lt;= 55.958</text>
<text text-anchor="middle" x="301.5" y="-819.8" font-family="Times,serif" font-size="14.00">class = Canada</text>
</g>
<!-- 0&#45;&gt;6 -->
<g id="edge6" class="edge">
<title>0&#45;&gt;6</title>
<path fill="none" stroke="black" d="M249.91,-885.83C258.02,-877.37 267.82,-867.15 276.68,-857.9"/>
<polygon fill="black" stroke="black" points="279.46,-860.05 283.85,-850.41 274.41,-855.21 279.46,-860.05"/>
<text text-anchor="middle" x="284.39" y="-871.71" font-family="Times,serif" font-size="14.00">False</text>
</g>
<!-- 2 -->
<g id="node3" class="node">
<title>2</title>
<polygon fill="none" stroke="black" points="87,-775 0,-775 0,-739 87,-739 87,-775"/>
<text text-anchor="middle" x="43.5" y="-753.3" font-family="Times,serif" font-size="14.00">class = USA</text>
</g>
<!-- 1&#45;&gt;2 -->
<g id="edge2" class="edge">
<title>1&#45;&gt;2</title>
<path fill="none" stroke="black" d="M133.22,-811.83C117.4,-802.34 97.9,-790.64 81.12,-780.57"/>
<polygon fill="black" stroke="black" points="82.49,-777.32 72.12,-775.17 78.89,-783.32 82.49,-777.32"/>
</g>
<!-- 3 -->
<g id="node4" class="node">
<title>3</title>
<polygon fill="none" stroke="black" points="225.5,-776 105.5,-776 105.5,-738 225.5,-738 225.5,-776"/>
<text text-anchor="middle" x="165.5" y="-760.8" font-family="Times,serif" font-size="14.00">latitude &lt;= 42.324</text>
<text text-anchor="middle" x="165.5" y="-745.8" font-family="Times,serif" font-size="14.00">class = USA</text>
</g>
<!-- 1&#45;&gt;3 -->
<g id="edge3" class="edge">
<title>1&#45;&gt;3</title>
<path fill="none" stroke="black" d="M164,-811.83C164.22,-804.13 164.47,-794.97 164.71,-786.42"/>
<polygon fill="black" stroke="black" points="168.21,-786.51 164.99,-776.41 161.21,-786.31 168.21,-786.51"/>
</g>
<!-- 4 -->
<g id="node5" class="node">
<title>4</title>
<polygon fill="none" stroke="black" points="105,-701 4,-701 4,-665 105,-665 105,-701"/>
<text text-anchor="middle" x="54.5" y="-679.3" font-family="Times,serif" font-size="14.00">class = Canada</text>
</g>
<!-- 3&#45;&gt;4 -->
<g id="edge4" class="edge">
<title>3&#45;&gt;4</title>
<path fill="none" stroke="black" d="M137.49,-737.83C122.99,-728.43 105.15,-716.86 89.73,-706.85"/>
<polygon fill="black" stroke="black" points="91.27,-703.68 80.97,-701.17 87.46,-709.55 91.27,-703.68"/>
</g>
<!-- 5 -->
<g id="node6" class="node">
<title>5</title>
<polygon fill="none" stroke="black" points="210,-701 123,-701 123,-665 210,-665 210,-701"/>
<text text-anchor="middle" x="166.5" y="-679.3" font-family="Times,serif" font-size="14.00">class = USA</text>
</g>
<!-- 3&#45;&gt;5 -->
<g id="edge5" class="edge">
<title>3&#45;&gt;5</title>
<path fill="none" stroke="black" d="M165.75,-737.83C165.86,-729.89 165.99,-720.41 166.12,-711.63"/>
<polygon fill="black" stroke="black" points="169.62,-711.47 166.26,-701.42 162.62,-711.37 169.62,-711.47"/>
</g>
<!-- 7 -->
<g id="node8" class="node">
<title>7</title>
<polygon fill="none" stroke="black" points="353.5,-776 247.5,-776 247.5,-738 353.5,-738 353.5,-776"/>
<text text-anchor="middle" x="300.5" y="-760.8" font-family="Times,serif" font-size="14.00">latitude &lt;= 49.0</text>
<text text-anchor="middle" x="300.5" y="-745.8" font-family="Times,serif" font-size="14.00">class = Canada</text>
</g>
<!-- 6&#45;&gt;7 -->
<g id="edge7" class="edge">
<title>6&#45;&gt;7</title>
<path fill="none" stroke="black" d="M301.25,-811.83C301.14,-804.13 301.01,-794.97 300.89,-786.42"/>
<polygon fill="black" stroke="black" points="304.39,-786.36 300.76,-776.41 297.4,-786.46 304.39,-786.36"/>
</g>
<!-- 56 -->
<g id="node57" class="node">
<title>56</title>
<polygon fill="none" stroke="black" points="459,-775 372,-775 372,-739 459,-739 459,-775"/>
<text text-anchor="middle" x="415.5" y="-753.3" font-family="Times,serif" font-size="14.00">class = USA</text>
</g>
<!-- 6&#45;&gt;56 -->
<g id="edge56" class="edge">
<title>6&#45;&gt;56</title>
<path fill="none" stroke="black" d="M330.27,-811.83C345.29,-802.34 363.82,-790.64 379.76,-780.57"/>
<polygon fill="black" stroke="black" points="381.73,-783.47 388.31,-775.17 377.99,-777.55 381.73,-783.47"/>
</g>
<!-- 8 -->
<g id="node9" class="node">
<title>8</title>
<polygon fill="none" stroke="black" points="367,-702 232,-702 232,-664 367,-664 367,-702"/>
<text text-anchor="middle" x="299.5" y="-686.8" font-family="Times,serif" font-size="14.00">longitude &lt;= &#45;94.582</text>
<text text-anchor="middle" x="299.5" y="-671.8" font-family="Times,serif" font-size="14.00">class = Canada</text>
</g>
<!-- 7&#45;&gt;8 -->
<g id="edge8" class="edge">
<title>7&#45;&gt;8</title>
<path fill="none" stroke="black" d="M300.25,-737.83C300.14,-730.13 300.01,-720.97 299.89,-712.42"/>
<polygon fill="black" stroke="black" points="303.39,-712.36 299.76,-702.41 296.4,-712.46 303.39,-712.36"/>
</g>
<!-- 55 -->
<g id="node56" class="node">
<title>55</title>
<polygon fill="none" stroke="black" points="486,-701 385,-701 385,-665 486,-665 486,-701"/>
<text text-anchor="middle" x="435.5" y="-679.3" font-family="Times,serif" font-size="14.00">class = Canada</text>
</g>
<!-- 7&#45;&gt;55 -->
<g id="edge55" class="edge">
<title>7&#45;&gt;55</title>
<path fill="none" stroke="black" d="M334.57,-737.83C352.69,-728.17 375.12,-716.2 394.22,-706.01"/>
<polygon fill="black" stroke="black" points="396.13,-708.97 403.3,-701.17 392.83,-702.79 396.13,-708.97"/>
</g>
<!-- 9 -->
<g id="node10" class="node">
<title>9</title>
<polygon fill="none" stroke="black" points="292.5,-628 150.5,-628 150.5,-590 292.5,-590 292.5,-628"/>
<text text-anchor="middle" x="221.5" y="-612.8" font-family="Times,serif" font-size="14.00">longitude &lt;= &#45;123.222</text>
<text text-anchor="middle" x="221.5" y="-597.8" font-family="Times,serif" font-size="14.00">class = USA</text>
</g>
<!-- 8&#45;&gt;9 -->
<g id="edge9" class="edge">
<title>8&#45;&gt;9</title>
<path fill="none" stroke="black" d="M279.82,-663.83C270.39,-655.13 258.96,-644.58 248.72,-635.13"/>
<polygon fill="black" stroke="black" points="250.9,-632.37 241.18,-628.16 246.15,-637.52 250.9,-632.37"/>
</g>
<!-- 12 -->
<g id="node13" class="node">
<title>12</title>
<polygon fill="none" stroke="black" points="446,-628 311,-628 311,-590 446,-590 446,-628"/>
<text text-anchor="middle" x="378.5" y="-612.8" font-family="Times,serif" font-size="14.00">longitude &lt;= &#45;69.246</text>
<text text-anchor="middle" x="378.5" y="-597.8" font-family="Times,serif" font-size="14.00">class = Canada</text>
</g>
<!-- 8&#45;&gt;12 -->
<g id="edge12" class="edge">
<title>8&#45;&gt;12</title>
<path fill="none" stroke="black" d="M319.44,-663.83C328.98,-655.13 340.56,-644.58 350.93,-635.13"/>
<polygon fill="black" stroke="black" points="353.54,-637.49 358.57,-628.16 348.82,-632.31 353.54,-637.49"/>
</g>
<!-- 10 -->
<g id="node11" class="node">
<title>10</title>
<polygon fill="none" stroke="black" points="169,-553 68,-553 68,-517 169,-517 169,-553"/>
<text text-anchor="middle" x="118.5" y="-531.3" font-family="Times,serif" font-size="14.00">class = Canada</text>
</g>
<!-- 9&#45;&gt;10 -->
<g id="edge10" class="edge">
<title>9&#45;&gt;10</title>
<path fill="none" stroke="black" d="M195.51,-589.83C182.18,-580.52 165.81,-569.07 151.59,-559.13"/>
<polygon fill="black" stroke="black" points="153.27,-556.03 143.06,-553.17 149.26,-561.77 153.27,-556.03"/>
</g>
<!-- 11 -->
<g id="node12" class="node">
<title>11</title>
<polygon fill="none" stroke="black" points="274,-553 187,-553 187,-517 274,-517 274,-553"/>
<text text-anchor="middle" x="230.5" y="-531.3" font-family="Times,serif" font-size="14.00">class = USA</text>
</g>
<!-- 9&#45;&gt;11 -->
<g id="edge11" class="edge">
<title>9&#45;&gt;11</title>
<path fill="none" stroke="black" d="M223.77,-589.83C224.76,-581.89 225.95,-572.41 227.05,-563.63"/>
<polygon fill="black" stroke="black" points="230.56,-563.77 228.32,-553.42 223.61,-562.91 230.56,-563.77"/>
</g>
<!-- 13 -->
<g id="node14" class="node">
<title>13</title>
<polygon fill="none" stroke="black" points="429.5,-554 309.5,-554 309.5,-516 429.5,-516 429.5,-554"/>
<text text-anchor="middle" x="369.5" y="-538.8" font-family="Times,serif" font-size="14.00">latitude &lt;= 43.093</text>
<text text-anchor="middle" x="369.5" y="-523.8" font-family="Times,serif" font-size="14.00">class = Canada</text>
</g>
<!-- 12&#45;&gt;13 -->
<g id="edge13" class="edge">
<title>12&#45;&gt;13</title>
<path fill="none" stroke="black" d="M376.23,-589.83C375.27,-582.13 374.12,-572.97 373.05,-564.42"/>
<polygon fill="black" stroke="black" points="376.52,-563.9 371.8,-554.41 369.57,-564.77 376.52,-563.9"/>
</g>
<!-- 36 -->
<g id="node37" class="node">
<title>36</title>
<polygon fill="none" stroke="black" points="682,-554 547,-554 547,-516 682,-516 682,-554"/>
<text text-anchor="middle" x="614.5" y="-538.8" font-family="Times,serif" font-size="14.00">longitude &lt;= &#45;66.952</text>
<text text-anchor="middle" x="614.5" y="-523.8" font-family="Times,serif" font-size="14.00">class = Canada</text>
</g>
<!-- 12&#45;&gt;36 -->
<g id="edge36" class="edge">
<title>12&#45;&gt;36</title>
<path fill="none" stroke="black" d="M437.75,-589.92C470.43,-579.95 511.19,-567.52 545.33,-557.1"/>
<polygon fill="black" stroke="black" points="546.68,-560.35 555.23,-554.08 544.64,-553.65 546.68,-560.35"/>
</g>
<!-- 14 -->
<g id="node15" class="node">
<title>14</title>
<polygon fill="none" stroke="black" points="286,-480 151,-480 151,-442 286,-442 286,-480"/>
<text text-anchor="middle" x="218.5" y="-464.8" font-family="Times,serif" font-size="14.00">longitude &lt;= &#45;81.845</text>
<text text-anchor="middle" x="218.5" y="-449.8" font-family="Times,serif" font-size="14.00">class = Canada</text>
</g>
<!-- 13&#45;&gt;14 -->
<g id="edge14" class="edge">
<title>13&#45;&gt;14</title>
<path fill="none" stroke="black" d="M331.4,-515.83C311.38,-506.29 286.67,-494.51 265.48,-484.4"/>
<polygon fill="black" stroke="black" points="266.86,-481.18 256.33,-480.04 263.85,-487.5 266.86,-481.18"/>
</g>
<!-- 19 -->
<g id="node20" class="node">
<title>19</title>
<polygon fill="none" stroke="black" points="429.5,-480 309.5,-480 309.5,-442 429.5,-442 429.5,-480"/>
<text text-anchor="middle" x="369.5" y="-464.8" font-family="Times,serif" font-size="14.00">latitude &lt;= 44.992</text>
<text text-anchor="middle" x="369.5" y="-449.8" font-family="Times,serif" font-size="14.00">class = Canada</text>
</g>
<!-- 13&#45;&gt;19 -->
<g id="edge19" class="edge">
<title>13&#45;&gt;19</title>
<path fill="none" stroke="black" d="M369.5,-515.83C369.5,-508.13 369.5,-498.97 369.5,-490.42"/>
<polygon fill="black" stroke="black" points="373,-490.41 369.5,-480.41 366,-490.41 373,-490.41"/>
</g>
<!-- 15 -->
<g id="node16" class="node">
<title>15</title>
<polygon fill="none" stroke="black" points="140,-405 53,-405 53,-369 140,-369 140,-405"/>
<text text-anchor="middle" x="96.5" y="-383.3" font-family="Times,serif" font-size="14.00">class = USA</text>
</g>
<!-- 14&#45;&gt;15 -->
<g id="edge15" class="edge">
<title>14&#45;&gt;15</title>
<path fill="none" stroke="black" d="M187.71,-441.83C171.48,-432.25 151.44,-420.42 134.27,-410.29"/>
<polygon fill="black" stroke="black" points="135.99,-407.24 125.6,-405.17 132.43,-413.27 135.99,-407.24"/>
</g>
<!-- 16 -->
<g id="node17" class="node">
<title>16</title>
<polygon fill="none" stroke="black" points="278.5,-406 158.5,-406 158.5,-368 278.5,-368 278.5,-406"/>
<text text-anchor="middle" x="218.5" y="-390.8" font-family="Times,serif" font-size="14.00">latitude &lt;= 43.039</text>
<text text-anchor="middle" x="218.5" y="-375.8" font-family="Times,serif" font-size="14.00">class = Canada</text>
</g>
<!-- 14&#45;&gt;16 -->
<g id="edge16" class="edge">
<title>14&#45;&gt;16</title>
<path fill="none" stroke="black" d="M218.5,-441.83C218.5,-434.13 218.5,-424.97 218.5,-416.42"/>
<polygon fill="black" stroke="black" points="222,-416.41 218.5,-406.41 215,-416.41 222,-416.41"/>
</g>
<!-- 17 -->
<g id="node18" class="node">
<title>17</title>
<polygon fill="none" stroke="black" points="157,-331 56,-331 56,-295 157,-295 157,-331"/>
<text text-anchor="middle" x="106.5" y="-309.3" font-family="Times,serif" font-size="14.00">class = Canada</text>
</g>
<!-- 16&#45;&gt;17 -->
<g id="edge17" class="edge">
<title>16&#45;&gt;17</title>
<path fill="none" stroke="black" d="M190.24,-367.83C175.61,-358.43 157.61,-346.86 142.05,-336.85"/>
<polygon fill="black" stroke="black" points="143.52,-333.63 133.21,-331.17 139.73,-339.52 143.52,-333.63"/>
</g>
<!-- 18 -->
<g id="node19" class="node">
<title>18</title>
<polygon fill="none" stroke="black" points="262,-331 175,-331 175,-295 262,-295 262,-331"/>
<text text-anchor="middle" x="218.5" y="-309.3" font-family="Times,serif" font-size="14.00">class = USA</text>
</g>
<!-- 16&#45;&gt;18 -->
<g id="edge18" class="edge">
<title>16&#45;&gt;18</title>
<path fill="none" stroke="black" d="M218.5,-367.83C218.5,-359.89 218.5,-350.41 218.5,-341.63"/>
<polygon fill="black" stroke="black" points="222,-341.42 218.5,-331.42 215,-341.42 222,-341.42"/>
</g>
<!-- 20 -->
<g id="node21" class="node">
<title>20</title>
<polygon fill="none" stroke="black" points="423.5,-406 303.5,-406 303.5,-368 423.5,-368 423.5,-406"/>
<text text-anchor="middle" x="363.5" y="-390.8" font-family="Times,serif" font-size="14.00">latitude &lt;= 44.542</text>
<text text-anchor="middle" x="363.5" y="-375.8" font-family="Times,serif" font-size="14.00">class = Canada</text>
</g>
<!-- 19&#45;&gt;20 -->
<g id="edge20" class="edge">
<title>19&#45;&gt;20</title>
<path fill="none" stroke="black" d="M367.99,-441.83C367.34,-434.13 366.58,-424.97 365.87,-416.42"/>
<polygon fill="black" stroke="black" points="369.35,-416.09 365.03,-406.41 362.38,-416.67 369.35,-416.09"/>
</g>
<!-- 35 -->
<g id="node36" class="node">
<title>35</title>
<polygon fill="none" stroke="black" points="543,-405 442,-405 442,-369 543,-369 543,-405"/>
<text text-anchor="middle" x="492.5" y="-383.3" font-family="Times,serif" font-size="14.00">class = Canada</text>
</g>
<!-- 19&#45;&gt;35 -->
<g id="edge35" class="edge">
<title>19&#45;&gt;35</title>
<path fill="none" stroke="black" d="M400.54,-441.83C416.9,-432.25 437.11,-420.42 454.42,-410.29"/>
<polygon fill="black" stroke="black" points="456.3,-413.24 463.17,-405.17 452.77,-407.2 456.3,-413.24"/>
</g>
<!-- 21 -->
<g id="node22" class="node">
<title>21</title>
<polygon fill="none" stroke="black" points="415,-332 280,-332 280,-294 415,-294 415,-332"/>
<text text-anchor="middle" x="347.5" y="-316.8" font-family="Times,serif" font-size="14.00">longitude &lt;= &#45;79.076</text>
<text text-anchor="middle" x="347.5" y="-301.8" font-family="Times,serif" font-size="14.00">class = Canada</text>
</g>
<!-- 20&#45;&gt;21 -->
<g id="edge21" class="edge">
<title>20&#45;&gt;21</title>
<path fill="none" stroke="black" d="M359.46,-367.83C357.75,-360.13 355.72,-350.97 353.81,-342.42"/>
<polygon fill="black" stroke="black" points="357.18,-341.42 351.59,-332.41 350.34,-342.93 357.18,-341.42"/>
</g>
<!-- 30 -->
<g id="node31" class="node">
<title>30</title>
<polygon fill="none" stroke="black" points="568,-332 433,-332 433,-294 568,-294 568,-332"/>
<text text-anchor="middle" x="500.5" y="-316.8" font-family="Times,serif" font-size="14.00">longitude &lt;= &#45;84.392</text>
<text text-anchor="middle" x="500.5" y="-301.8" font-family="Times,serif" font-size="14.00">class = USA</text>
</g>
<!-- 20&#45;&gt;30 -->
<g id="edge30" class="edge">
<title>20&#45;&gt;30</title>
<path fill="none" stroke="black" d="M398.07,-367.83C415.92,-358.45 437.88,-346.91 456.88,-336.92"/>
<polygon fill="black" stroke="black" points="458.72,-339.91 465.94,-332.16 455.46,-333.72 458.72,-339.91"/>
</g>
<!-- 22 -->
<g id="node23" class="node">
<title>22</title>
<polygon fill="none" stroke="black" points="269,-257 168,-257 168,-221 269,-221 269,-257"/>
<text text-anchor="middle" x="218.5" y="-235.3" font-family="Times,serif" font-size="14.00">class = Canada</text>
</g>
<!-- 21&#45;&gt;22 -->
<g id="edge22" class="edge">
<title>21&#45;&gt;22</title>
<path fill="none" stroke="black" d="M314.95,-293.83C297.79,-284.25 276.59,-272.42 258.44,-262.29"/>
<polygon fill="black" stroke="black" points="259.7,-258.99 249.27,-257.17 256.29,-265.1 259.7,-258.99"/>
</g>
<!-- 23 -->
<g id="node24" class="node">
<title>23</title>
<polygon fill="none" stroke="black" points="407.5,-258 287.5,-258 287.5,-220 407.5,-220 407.5,-258"/>
<text text-anchor="middle" x="347.5" y="-242.8" font-family="Times,serif" font-size="14.00">latitude &lt;= 44.168</text>
<text text-anchor="middle" x="347.5" y="-227.8" font-family="Times,serif" font-size="14.00">class = Canada</text>
</g>
<!-- 21&#45;&gt;23 -->
<g id="edge23" class="edge">
<title>21&#45;&gt;23</title>
<path fill="none" stroke="black" d="M347.5,-293.83C347.5,-286.13 347.5,-276.97 347.5,-268.42"/>
<polygon fill="black" stroke="black" points="351,-268.41 347.5,-258.41 344,-268.41 351,-268.41"/>
</g>
<!-- 24 -->
<g id="node25" class="node">
<title>24</title>
<polygon fill="none" stroke="black" points="288.5,-184 160.5,-184 160.5,-146 288.5,-146 288.5,-184"/>
<text text-anchor="middle" x="224.5" y="-168.8" font-family="Times,serif" font-size="14.00">longitude &lt;= &#45;79.03</text>
<text text-anchor="middle" x="224.5" y="-153.8" font-family="Times,serif" font-size="14.00">class = USA</text>
</g>
<!-- 23&#45;&gt;24 -->
<g id="edge24" class="edge">
<title>23&#45;&gt;24</title>
<path fill="none" stroke="black" d="M316.46,-219.83C300.73,-210.62 281.44,-199.33 264.6,-189.47"/>
<polygon fill="black" stroke="black" points="265.93,-186.19 255.53,-184.16 262.39,-192.24 265.93,-186.19"/>
</g>
<!-- 29 -->
<g id="node30" class="node">
<title>29</title>
<polygon fill="none" stroke="black" points="408,-183 307,-183 307,-147 408,-147 408,-183"/>
<text text-anchor="middle" x="357.5" y="-161.3" font-family="Times,serif" font-size="14.00">class = Canada</text>
</g>
<!-- 23&#45;&gt;29 -->
<g id="edge29" class="edge">
<title>23&#45;&gt;29</title>
<path fill="none" stroke="black" d="M350.02,-219.83C351.14,-211.81 352.47,-202.2 353.7,-193.34"/>
<polygon fill="black" stroke="black" points="357.17,-193.8 355.08,-183.42 350.24,-192.84 357.17,-193.8"/>
</g>
<!-- 25 -->
<g id="node26" class="node">
<title>25</title>
<polygon fill="none" stroke="black" points="207,-109 120,-109 120,-73 207,-73 207,-109"/>
<text text-anchor="middle" x="163.5" y="-87.3" font-family="Times,serif" font-size="14.00">class = USA</text>
</g>
<!-- 24&#45;&gt;25 -->
<g id="edge25" class="edge">
<title>24&#45;&gt;25</title>
<path fill="none" stroke="black" d="M209.11,-145.83C201.79,-137.2 192.92,-126.73 184.96,-117.33"/>
<polygon fill="black" stroke="black" points="187.39,-114.79 178.26,-109.42 182.05,-119.31 187.39,-114.79"/>
</g>
<!-- 26 -->
<g id="node27" class="node">
<title>26</title>
<polygon fill="none" stroke="black" points="345.5,-110 225.5,-110 225.5,-72 345.5,-72 345.5,-110"/>
<text text-anchor="middle" x="285.5" y="-94.8" font-family="Times,serif" font-size="14.00">latitude &lt;= 43.988</text>
<text text-anchor="middle" x="285.5" y="-79.8" font-family="Times,serif" font-size="14.00">class = Canada</text>
</g>
<!-- 24&#45;&gt;26 -->
<g id="edge26" class="edge">
<title>24&#45;&gt;26</title>
<path fill="none" stroke="black" d="M239.89,-145.83C246.99,-137.45 255.55,-127.35 263.32,-118.17"/>
<polygon fill="black" stroke="black" points="266.11,-120.31 269.9,-110.41 260.77,-115.78 266.11,-120.31"/>
</g>
<!-- 27 -->
<g id="node28" class="node">
<title>27</title>
<polygon fill="none" stroke="black" points="280,-36 179,-36 179,0 280,0 280,-36"/>
<text text-anchor="middle" x="229.5" y="-14.3" font-family="Times,serif" font-size="14.00">class = Canada</text>
</g>
<!-- 26&#45;&gt;27 -->
<g id="edge27" class="edge">
<title>26&#45;&gt;27</title>
<path fill="none" stroke="black" d="M271.08,-71.72C264.43,-63.29 256.43,-53.15 249.23,-44.02"/>
<polygon fill="black" stroke="black" points="251.85,-41.69 242.91,-36 246.36,-46.02 251.85,-41.69"/>
</g>
<!-- 28 -->
<g id="node29" class="node">
<title>28</title>
<polygon fill="none" stroke="black" points="385,-36 298,-36 298,0 385,0 385,-36"/>
<text text-anchor="middle" x="341.5" y="-14.3" font-family="Times,serif" font-size="14.00">class = USA</text>
</g>
<!-- 26&#45;&gt;28 -->
<g id="edge28" class="edge">
<title>26&#45;&gt;28</title>
<path fill="none" stroke="black" d="M299.92,-71.72C306.57,-63.29 314.57,-53.15 321.77,-44.02"/>
<polygon fill="black" stroke="black" points="324.64,-46.02 328.09,-36 319.15,-41.69 324.64,-46.02"/>
</g>
<!-- 31 -->
<g id="node32" class="node">
<title>31</title>
<polygon fill="none" stroke="black" points="513,-257 426,-257 426,-221 513,-221 513,-257"/>
<text text-anchor="middle" x="469.5" y="-235.3" font-family="Times,serif" font-size="14.00">class = USA</text>
</g>
<!-- 30&#45;&gt;31 -->
<g id="edge31" class="edge">
<title>30&#45;&gt;31</title>
<path fill="none" stroke="black" d="M492.68,-293.83C489.15,-285.63 484.91,-275.78 481.02,-266.76"/>
<polygon fill="black" stroke="black" points="484.17,-265.22 477,-257.42 477.74,-267.99 484.17,-265.22"/>
</g>
<!-- 32 -->
<g id="node33" class="node">
<title>32</title>
<polygon fill="none" stroke="black" points="666,-258 531,-258 531,-220 666,-220 666,-258"/>
<text text-anchor="middle" x="598.5" y="-242.8" font-family="Times,serif" font-size="14.00">longitude &lt;= &#45;75.503</text>
<text text-anchor="middle" x="598.5" y="-227.8" font-family="Times,serif" font-size="14.00">class = Canada</text>
</g>
<!-- 30&#45;&gt;32 -->
<g id="edge32" class="edge">
<title>30&#45;&gt;32</title>
<path fill="none" stroke="black" d="M525.23,-293.83C537.42,-284.88 552.28,-273.96 565.43,-264.3"/>
<polygon fill="black" stroke="black" points="567.79,-266.9 573.78,-258.16 563.65,-261.26 567.79,-266.9"/>
</g>
<!-- 33 -->
<g id="node34" class="node">
<title>33</title>
<polygon fill="none" stroke="black" points="543,-183 442,-183 442,-147 543,-147 543,-183"/>
<text text-anchor="middle" x="492.5" y="-161.3" font-family="Times,serif" font-size="14.00">class = Canada</text>
</g>
<!-- 32&#45;&gt;33 -->
<g id="edge33" class="edge">
<title>32&#45;&gt;33</title>
<path fill="none" stroke="black" d="M571.75,-219.83C557.91,-210.43 540.87,-198.86 526.14,-188.85"/>
<polygon fill="black" stroke="black" points="528.02,-185.9 517.78,-183.17 524.09,-191.69 528.02,-185.9"/>
</g>
<!-- 34 -->
<g id="node35" class="node">
<title>34</title>
<polygon fill="none" stroke="black" points="648,-183 561,-183 561,-147 648,-147 648,-183"/>
<text text-anchor="middle" x="604.5" y="-161.3" font-family="Times,serif" font-size="14.00">class = USA</text>
</g>
<!-- 32&#45;&gt;34 -->
<g id="edge34" class="edge">
<title>32&#45;&gt;34</title>
<path fill="none" stroke="black" d="M600.01,-219.83C600.68,-211.89 601.47,-202.41 602.2,-193.63"/>
<polygon fill="black" stroke="black" points="605.71,-193.67 603.05,-183.42 598.73,-193.09 605.71,-193.67"/>
</g>
<!-- 37 -->
<g id="node38" class="node">
<title>37</title>
<polygon fill="none" stroke="black" points="674.5,-480 554.5,-480 554.5,-442 674.5,-442 674.5,-480"/>
<text text-anchor="middle" x="614.5" y="-464.8" font-family="Times,serif" font-size="14.00">latitude &lt;= 45.195</text>
<text text-anchor="middle" x="614.5" y="-449.8" font-family="Times,serif" font-size="14.00">class = USA</text>
</g>
<!-- 36&#45;&gt;37 -->
<g id="edge37" class="edge">
<title>36&#45;&gt;37</title>
<path fill="none" stroke="black" d="M614.5,-515.83C614.5,-508.13 614.5,-498.97 614.5,-490.42"/>
<polygon fill="black" stroke="black" points="618,-490.41 614.5,-480.41 611,-490.41 618,-490.41"/>
</g>
<!-- 54 -->
<g id="node55" class="node">
<title>54</title>
<polygon fill="none" stroke="black" points="794,-479 693,-479 693,-443 794,-443 794,-479"/>
<text text-anchor="middle" x="743.5" y="-457.3" font-family="Times,serif" font-size="14.00">class = Canada</text>
</g>
<!-- 36&#45;&gt;54 -->
<g id="edge54" class="edge">
<title>36&#45;&gt;54</title>
<path fill="none" stroke="black" d="M647.05,-515.83C664.21,-506.25 685.41,-494.42 703.56,-484.29"/>
<polygon fill="black" stroke="black" points="705.71,-487.1 712.73,-479.17 702.3,-480.99 705.71,-487.1"/>
</g>
<!-- 38 -->
<g id="node39" class="node">
<title>38</title>
<polygon fill="none" stroke="black" points="658,-405 571,-405 571,-369 658,-369 658,-405"/>
<text text-anchor="middle" x="614.5" y="-383.3" font-family="Times,serif" font-size="14.00">class = USA</text>
</g>
<!-- 37&#45;&gt;38 -->
<g id="edge38" class="edge">
<title>37&#45;&gt;38</title>
<path fill="none" stroke="black" d="M614.5,-441.83C614.5,-433.89 614.5,-424.41 614.5,-415.63"/>
<polygon fill="black" stroke="black" points="618,-415.42 614.5,-405.42 611,-415.42 618,-415.42"/>
</g>
<!-- 39 -->
<g id="node40" class="node">
<title>39</title>
<polygon fill="none" stroke="black" points="871.5,-406 743.5,-406 743.5,-368 871.5,-368 871.5,-406"/>
<text text-anchor="middle" x="807.5" y="-390.8" font-family="Times,serif" font-size="14.00">longitude &lt;= &#45;67.93</text>
<text text-anchor="middle" x="807.5" y="-375.8" font-family="Times,serif" font-size="14.00">class = Canada</text>
</g>
<!-- 37&#45;&gt;39 -->
<g id="edge39" class="edge">
<title>37&#45;&gt;39</title>
<path fill="none" stroke="black" d="M663.2,-441.83C689.47,-432.03 722.07,-419.87 749.63,-409.59"/>
<polygon fill="black" stroke="black" points="751,-412.81 759.15,-406.04 748.56,-406.25 751,-412.81"/>
</g>
<!-- 40 -->
<g id="node41" class="node">
<title>40</title>
<polygon fill="none" stroke="black" points="875,-332 740,-332 740,-294 875,-294 875,-332"/>
<text text-anchor="middle" x="807.5" y="-316.8" font-family="Times,serif" font-size="14.00">longitude &lt;= &#45;68.325</text>
<text text-anchor="middle" x="807.5" y="-301.8" font-family="Times,serif" font-size="14.00">class = USA</text>
</g>
<!-- 39&#45;&gt;40 -->
<g id="edge40" class="edge">
<title>39&#45;&gt;40</title>
<path fill="none" stroke="black" d="M807.5,-367.83C807.5,-360.13 807.5,-350.97 807.5,-342.42"/>
<polygon fill="black" stroke="black" points="811,-342.41 807.5,-332.41 804,-342.41 811,-342.41"/>
</g>
<!-- 49 -->
<g id="node50" class="node">
<title>49</title>
<polygon fill="none" stroke="black" points="1069.5,-332 949.5,-332 949.5,-294 1069.5,-294 1069.5,-332"/>
<text text-anchor="middle" x="1009.5" y="-316.8" font-family="Times,serif" font-size="14.00">latitude &lt;= 45.565</text>
<text text-anchor="middle" x="1009.5" y="-301.8" font-family="Times,serif" font-size="14.00">class = Canada</text>
</g>
<!-- 39&#45;&gt;49 -->
<g id="edge49" class="edge">
<title>39&#45;&gt;49</title>
<path fill="none" stroke="black" d="M858.21,-367.92C885.83,-358.08 920.18,-345.84 949.16,-335.51"/>
<polygon fill="black" stroke="black" points="950.52,-338.74 958.77,-332.08 948.17,-332.14 950.52,-338.74"/>
</g>
<!-- 41 -->
<g id="node42" class="node">
<title>41</title>
<polygon fill="none" stroke="black" points="819,-258 684,-258 684,-220 819,-220 819,-258"/>
<text text-anchor="middle" x="751.5" y="-242.8" font-family="Times,serif" font-size="14.00">longitude &lt;= &#45;68.915</text>
<text text-anchor="middle" x="751.5" y="-227.8" font-family="Times,serif" font-size="14.00">class = Canada</text>
</g>
<!-- 40&#45;&gt;41 -->
<g id="edge41" class="edge">
<title>40&#45;&gt;41</title>
<path fill="none" stroke="black" d="M793.37,-293.83C786.92,-285.54 779.16,-275.56 772.07,-266.45"/>
<polygon fill="black" stroke="black" points="774.72,-264.16 765.82,-258.41 769.2,-268.46 774.72,-264.16"/>
</g>
<!-- 48 -->
<g id="node49" class="node">
<title>48</title>
<polygon fill="none" stroke="black" points="924,-257 837,-257 837,-221 924,-221 924,-257"/>
<text text-anchor="middle" x="880.5" y="-235.3" font-family="Times,serif" font-size="14.00">class = USA</text>
</g>
<!-- 40&#45;&gt;48 -->
<g id="edge48" class="edge">
<title>40&#45;&gt;48</title>
<path fill="none" stroke="black" d="M825.92,-293.83C835.01,-284.87 846.1,-273.93 855.9,-264.26"/>
<polygon fill="black" stroke="black" points="858.43,-266.69 863.09,-257.17 853.51,-261.7 858.43,-266.69"/>
</g>
<!-- 42 -->
<g id="node43" class="node">
<title>42</title>
<polygon fill="none" stroke="black" points="777,-183 690,-183 690,-147 777,-147 777,-183"/>
<text text-anchor="middle" x="733.5" y="-161.3" font-family="Times,serif" font-size="14.00">class = USA</text>
</g>
<!-- 41&#45;&gt;42 -->
<g id="edge42" class="edge">
<title>41&#45;&gt;42</title>
<path fill="none" stroke="black" d="M746.96,-219.83C744.95,-211.81 742.55,-202.2 740.33,-193.34"/>
<polygon fill="black" stroke="black" points="743.68,-192.27 737.85,-183.42 736.88,-193.97 743.68,-192.27"/>
</g>
<!-- 43 -->
<g id="node44" class="node">
<title>43</title>
<polygon fill="none" stroke="black" points="930,-184 795,-184 795,-146 930,-146 930,-184"/>
<text text-anchor="middle" x="862.5" y="-168.8" font-family="Times,serif" font-size="14.00">longitude &lt;= &#45;68.597</text>
<text text-anchor="middle" x="862.5" y="-153.8" font-family="Times,serif" font-size="14.00">class = Canada</text>
</g>
<!-- 41&#45;&gt;43 -->
<g id="edge43" class="edge">
<title>41&#45;&gt;43</title>
<path fill="none" stroke="black" d="M779.51,-219.83C793.58,-210.71 810.79,-199.54 825.89,-189.74"/>
<polygon fill="black" stroke="black" points="828.01,-192.54 834.5,-184.16 824.2,-186.67 828.01,-192.54"/>
</g>
<!-- 44 -->
<g id="node45" class="node">
<title>44</title>
<polygon fill="none" stroke="black" points="845,-109 744,-109 744,-73 845,-73 845,-109"/>
<text text-anchor="middle" x="794.5" y="-87.3" font-family="Times,serif" font-size="14.00">class = Canada</text>
</g>
<!-- 43&#45;&gt;44 -->
<g id="edge44" class="edge">
<title>43&#45;&gt;44</title>
<path fill="none" stroke="black" d="M845.34,-145.83C837.02,-137.02 826.9,-126.31 817.89,-116.76"/>
<polygon fill="black" stroke="black" points="820.36,-114.28 810.95,-109.42 815.27,-119.09 820.36,-114.28"/>
</g>
<!-- 45 -->
<g id="node46" class="node">
<title>45</title>
<polygon fill="none" stroke="black" points="998,-110 863,-110 863,-72 998,-72 998,-110"/>
<text text-anchor="middle" x="930.5" y="-94.8" font-family="Times,serif" font-size="14.00">longitude &lt;= &#45;68.459</text>
<text text-anchor="middle" x="930.5" y="-79.8" font-family="Times,serif" font-size="14.00">class = Canada</text>
</g>
<!-- 43&#45;&gt;45 -->
<g id="edge45" class="edge">
<title>43&#45;&gt;45</title>
<path fill="none" stroke="black" d="M879.66,-145.83C887.65,-137.37 897.3,-127.15 906.04,-117.9"/>
<polygon fill="black" stroke="black" points="908.79,-120.09 913.11,-110.41 903.7,-115.28 908.79,-120.09"/>
</g>
<!-- 46 -->
<g id="node47" class="node">
<title>46</title>
<polygon fill="none" stroke="black" points="918,-36 831,-36 831,0 918,0 918,-36"/>
<text text-anchor="middle" x="874.5" y="-14.3" font-family="Times,serif" font-size="14.00">class = USA</text>
</g>
<!-- 45&#45;&gt;46 -->
<g id="edge46" class="edge">
<title>45&#45;&gt;46</title>
<path fill="none" stroke="black" d="M916.08,-71.72C909.43,-63.29 901.43,-53.15 894.23,-44.02"/>
<polygon fill="black" stroke="black" points="896.85,-41.69 887.91,-36 891.36,-46.02 896.85,-41.69"/>
</g>
<!-- 47 -->
<g id="node48" class="node">
<title>47</title>
<polygon fill="none" stroke="black" points="1037,-36 936,-36 936,0 1037,0 1037,-36"/>
<text text-anchor="middle" x="986.5" y="-14.3" font-family="Times,serif" font-size="14.00">class = Canada</text>
</g>
<!-- 45&#45;&gt;47 -->
<g id="edge47" class="edge">
<title>45&#45;&gt;47</title>
<path fill="none" stroke="black" d="M944.92,-71.72C951.57,-63.29 959.57,-53.15 966.77,-44.02"/>
<polygon fill="black" stroke="black" points="969.64,-46.02 973.09,-36 964.15,-41.69 969.64,-46.02"/>
</g>
<!-- 50 -->
<g id="node51" class="node">
<title>50</title>
<polygon fill="none" stroke="black" points="1077,-258 942,-258 942,-220 1077,-220 1077,-258"/>
<text text-anchor="middle" x="1009.5" y="-242.8" font-family="Times,serif" font-size="14.00">longitude &lt;= &#45;67.355</text>
<text text-anchor="middle" x="1009.5" y="-227.8" font-family="Times,serif" font-size="14.00">class = Canada</text>
</g>
<!-- 49&#45;&gt;50 -->
<g id="edge50" class="edge">
<title>49&#45;&gt;50</title>
<path fill="none" stroke="black" d="M1009.5,-293.83C1009.5,-286.13 1009.5,-276.97 1009.5,-268.42"/>
<polygon fill="black" stroke="black" points="1013,-268.41 1009.5,-258.41 1006,-268.41 1013,-268.41"/>
</g>
<!-- 53 -->
<g id="node54" class="node">
<title>53</title>
<polygon fill="none" stroke="black" points="1196,-257 1095,-257 1095,-221 1196,-221 1196,-257"/>
<text text-anchor="middle" x="1145.5" y="-235.3" font-family="Times,serif" font-size="14.00">class = Canada</text>
</g>
<!-- 49&#45;&gt;53 -->
<g id="edge53" class="edge">
<title>49&#45;&gt;53</title>
<path fill="none" stroke="black" d="M1043.82,-293.83C1062.16,-284.12 1084.87,-272.1 1104.18,-261.88"/>
<polygon fill="black" stroke="black" points="1105.86,-264.94 1113.07,-257.17 1102.59,-258.76 1105.86,-264.94"/>
</g>
<!-- 51 -->
<g id="node52" class="node">
<title>51</title>
<polygon fill="none" stroke="black" points="1047,-183 960,-183 960,-147 1047,-147 1047,-183"/>
<text text-anchor="middle" x="1003.5" y="-161.3" font-family="Times,serif" font-size="14.00">class = USA</text>
</g>
<!-- 50&#45;&gt;51 -->
<g id="edge51" class="edge">
<title>50&#45;&gt;51</title>
<path fill="none" stroke="black" d="M1007.99,-219.83C1007.32,-211.89 1006.53,-202.41 1005.8,-193.63"/>
<polygon fill="black" stroke="black" points="1009.27,-193.09 1004.95,-183.42 1002.29,-193.67 1009.27,-193.09"/>
</g>
<!-- 52 -->
<g id="node53" class="node">
<title>52</title>
<polygon fill="none" stroke="black" points="1166,-183 1065,-183 1065,-147 1166,-147 1166,-183"/>
<text text-anchor="middle" x="1115.5" y="-161.3" font-family="Times,serif" font-size="14.00">class = Canada</text>
</g>
<!-- 50&#45;&gt;52 -->
<g id="edge52" class="edge">
<title>50&#45;&gt;52</title>
<path fill="none" stroke="black" d="M1036.25,-219.83C1050.09,-210.43 1067.13,-198.86 1081.86,-188.85"/>
<polygon fill="black" stroke="black" points="1083.91,-191.69 1090.22,-183.17 1079.98,-185.9 1083.91,-191.69"/>
</g>
</g>
</svg>
