<?xml version="1.0" encoding="UTF-8" standalone="no"?>
<!DOCTYPE svg PUBLIC "-//W3C//DTD SVG 1.1//EN"
 "http://www.w3.org/Graphics/SVG/1.1/DTD/svg11.dtd">
<!-- Generated by graphviz version 5.0.1 (0)
 -->
<!-- Title: Tree Pages: 1 -->
<svg width="1187pt" height="932pt"
 viewBox="0.00 0.00 1186.50 932.00" xmlns="http://www.w3.org/2000/svg" xmlns:xlink="http://www.w3.org/1999/xlink">
<g id="graph0" class="graph" transform="scale(1 1) rotate(0) translate(4 928)">
<title>Tree</title>
<polygon fill="white" stroke="none" points="-4,4 -4,-928 1182.5,-928 1182.5,4 -4,4"/>
<!-- 0 -->
<g id="node1" class="node">
<title>0</title>
<polygon fill="none" stroke="black" points="303.5,-924 193.5,-924 193.5,-886 303.5,-886 303.5,-924"/>
<text text-anchor="middle" x="248.5" y="-908.8" font-family="Helvetica,sans-Serif" font-size="14.00">latitude &lt;= 42.9</text>
<text text-anchor="middle" x="248.5" y="-893.8" font-family="Helvetica,sans-Serif" font-size="14.00">class = Canada</text>
</g>
<!-- 1 -->
<g id="node2" class="node">
<title>1</title>
<polygon fill="none" stroke="black" points="234,-850 109,-850 109,-812 234,-812 234,-850"/>
<text text-anchor="middle" x="171.5" y="-834.8" font-family="Helvetica,sans-Serif" font-size="14.00">latitude &lt;= 42.096</text>
<text text-anchor="middle" x="171.5" y="-819.8" font-family="Helvetica,sans-Serif" font-size="14.00">class = USA</text>
</g>
<!-- 0&#45;&gt;1 -->
<g id="edge1" class="edge">
<title>0&#45;&gt;1</title>
<path fill="none" stroke="black" d="M229.07,-885.83C219.77,-877.13 208.48,-866.58 198.37,-857.13"/>
<polygon fill="black" stroke="black" points="200.62,-854.44 190.92,-850.16 195.84,-859.55 200.62,-854.44"/>
<text text-anchor="middle" x="191.76" y="-871.45" font-family="Helvetica,sans-Serif" font-size="14.00">True</text>
</g>
<!-- 6 -->
<g id="node7" class="node">
<title>6</title>
<polygon fill="none" stroke="black" points="401,-850 252,-850 252,-812 401,-812 401,-850"/>
<text text-anchor="middle" x="326.5" y="-834.8" font-family="Helvetica,sans-Serif" font-size="14.00">longitude &lt;= &#45;130.017</text>
<text text-anchor="middle" x="326.5" y="-819.8" font-family="Helvetica,sans-Serif" font-size="14.00">class = Canada</text>
</g>
<!-- 0&#45;&gt;6 -->
<g id="edge6" class="edge">
<title>0&#45;&gt;6</title>
<path fill="none" stroke="black" d="M268.18,-885.83C277.61,-877.13 289.04,-866.58 299.28,-857.13"/>
<polygon fill="black" stroke="black" points="301.85,-859.52 306.82,-850.16 297.1,-854.37 301.85,-859.52"/>
<text text-anchor="middle" x="305.82" y="-871.44" font-family="Helvetica,sans-Serif" font-size="14.00">False</text>
</g>
<!-- 2 -->
<g id="node3" class="node">
<title>2</title>
<polygon fill="none" stroke="black" points="96,-775 5,-775 5,-739 96,-739 96,-775"/>
<text text-anchor="middle" x="50.5" y="-753.3" font-family="Helvetica,sans-Serif" font-size="14.00">class = USA</text>
</g>
<!-- 1&#45;&gt;2 -->
<g id="edge2" class="edge">
<title>1&#45;&gt;2</title>
<path fill="none" stroke="black" d="M140.97,-811.83C124.87,-802.25 104.99,-790.42 87.96,-780.29"/>
<polygon fill="black" stroke="black" points="89.74,-777.28 79.36,-775.17 86.16,-783.29 89.74,-777.28"/>
</g>
<!-- 3 -->
<g id="node4" class="node">
<title>3</title>
<polygon fill="none" stroke="black" points="239,-776 114,-776 114,-738 239,-738 239,-776"/>
<text text-anchor="middle" x="176.5" y="-760.8" font-family="Helvetica,sans-Serif" font-size="14.00">latitude &lt;= 42.324</text>
<text text-anchor="middle" x="176.5" y="-745.8" font-family="Helvetica,sans-Serif" font-size="14.00">class = USA</text>
</g>
<!-- 1&#45;&gt;3 -->
<g id="edge3" class="edge">
<title>1&#45;&gt;3</title>
<path fill="none" stroke="black" d="M172.76,-811.83C173.3,-804.13 173.93,-794.97 174.53,-786.42"/>
<polygon fill="black" stroke="black" points="178.02,-786.63 175.22,-776.41 171.04,-786.15 178.02,-786.63"/>
</g>
<!-- 4 -->
<g id="node5" class="node">
<title>4</title>
<polygon fill="none" stroke="black" points="222.5,-701 112.5,-701 112.5,-665 222.5,-665 222.5,-701"/>
<text text-anchor="middle" x="167.5" y="-679.3" font-family="Helvetica,sans-Serif" font-size="14.00">class = Canada</text>
</g>
<!-- 3&#45;&gt;4 -->
<g id="edge4" class="edge">
<title>3&#45;&gt;4</title>
<path fill="none" stroke="black" d="M174.23,-737.83C173.24,-729.89 172.05,-720.41 170.95,-711.63"/>
<polygon fill="black" stroke="black" points="174.39,-710.91 169.68,-701.42 167.44,-711.77 174.39,-710.91"/>
</g>
<!-- 5 -->
<g id="node6" class="node">
<title>5</title>
<polygon fill="none" stroke="black" points="332,-701 241,-701 241,-665 332,-665 332,-701"/>
<text text-anchor="middle" x="286.5" y="-679.3" font-family="Helvetica,sans-Serif" font-size="14.00">class = USA</text>
</g>
<!-- 3&#45;&gt;5 -->
<g id="edge5" class="edge">
<title>3&#45;&gt;5</title>
<path fill="none" stroke="black" d="M204.26,-737.83C218.62,-728.43 236.3,-716.86 251.59,-706.85"/>
<polygon fill="black" stroke="black" points="253.82,-709.58 260.27,-701.17 249.98,-703.72 253.82,-709.58"/>
</g>
<!-- 7 -->
<g id="node8" class="node">
<title>7</title>
<polygon fill="none" stroke="black" points="362,-775 271,-775 271,-739 362,-739 362,-775"/>
<text text-anchor="middle" x="316.5" y="-753.3" font-family="Helvetica,sans-Serif" font-size="14.00">class = USA</text>
</g>
<!-- 6&#45;&gt;7 -->
<g id="edge7" class="edge">
<title>6&#45;&gt;7</title>
<path fill="none" stroke="black" d="M323.98,-811.83C322.86,-803.81 321.53,-794.2 320.3,-785.34"/>
<polygon fill="black" stroke="black" points="323.76,-784.84 318.92,-775.42 316.83,-785.8 323.76,-784.84"/>
</g>
<!-- 8 -->
<g id="node9" class="node">
<title>8</title>
<polygon fill="none" stroke="black" points="490.5,-776 380.5,-776 380.5,-738 490.5,-738 490.5,-776"/>
<text text-anchor="middle" x="435.5" y="-760.8" font-family="Helvetica,sans-Serif" font-size="14.00">latitude &lt;= 49.0</text>
<text text-anchor="middle" x="435.5" y="-745.8" font-family="Helvetica,sans-Serif" font-size="14.00">class = Canada</text>
</g>
<!-- 6&#45;&gt;8 -->
<g id="edge8" class="edge">
<title>6&#45;&gt;8</title>
<path fill="none" stroke="black" d="M354.01,-811.83C367.82,-802.71 384.73,-791.54 399.55,-781.74"/>
<polygon fill="black" stroke="black" points="401.59,-784.59 408,-776.16 397.73,-778.75 401.59,-784.59"/>
</g>
<!-- 9 -->
<g id="node10" class="node">
<title>9</title>
<polygon fill="none" stroke="black" points="501,-702 360,-702 360,-664 501,-664 501,-702"/>
<text text-anchor="middle" x="430.5" y="-686.8" font-family="Helvetica,sans-Serif" font-size="14.00">longitude &lt;= &#45;94.582</text>
<text text-anchor="middle" x="430.5" y="-671.8" font-family="Helvetica,sans-Serif" font-size="14.00">class = Canada</text>
</g>
<!-- 8&#45;&gt;9 -->
<g id="edge9" class="edge">
<title>8&#45;&gt;9</title>
<path fill="none" stroke="black" d="M434.24,-737.83C433.7,-730.13 433.07,-720.97 432.47,-712.42"/>
<polygon fill="black" stroke="black" points="435.96,-712.15 431.78,-702.41 428.98,-712.63 435.96,-712.15"/>
</g>
<!-- 56 -->
<g id="node57" class="node">
<title>56</title>
<polygon fill="none" stroke="black" points="629.5,-701 519.5,-701 519.5,-665 629.5,-665 629.5,-701"/>
<text text-anchor="middle" x="574.5" y="-679.3" font-family="Helvetica,sans-Serif" font-size="14.00">class = Canada</text>
</g>
<!-- 8&#45;&gt;56 -->
<g id="edge56" class="edge">
<title>8&#45;&gt;56</title>
<path fill="none" stroke="black" d="M470.58,-737.83C489.32,-728.12 512.54,-716.1 532.27,-705.88"/>
<polygon fill="black" stroke="black" points="534.08,-708.88 541.35,-701.17 530.86,-702.66 534.08,-708.88"/>
</g>
<!-- 10 -->
<g id="node11" class="node">
<title>10</title>
<polygon fill="none" stroke="black" points="424,-628 275,-628 275,-590 424,-590 424,-628"/>
<text text-anchor="middle" x="349.5" y="-612.8" font-family="Helvetica,sans-Serif" font-size="14.00">longitude &lt;= &#45;123.222</text>
<text text-anchor="middle" x="349.5" y="-597.8" font-family="Helvetica,sans-Serif" font-size="14.00">class = USA</text>
</g>
<!-- 9&#45;&gt;10 -->
<g id="edge10" class="edge">
<title>9&#45;&gt;10</title>
<path fill="none" stroke="black" d="M410.06,-663.83C400.18,-655.05 388.17,-644.37 377.45,-634.85"/>
<polygon fill="black" stroke="black" points="379.73,-632.19 369.93,-628.16 375.08,-637.42 379.73,-632.19"/>
</g>
<!-- 13 -->
<g id="node14" class="node">
<title>13</title>
<polygon fill="none" stroke="black" points="583,-628 442,-628 442,-590 583,-590 583,-628"/>
<text text-anchor="middle" x="512.5" y="-612.8" font-family="Helvetica,sans-Serif" font-size="14.00">longitude &lt;= &#45;69.246</text>
<text text-anchor="middle" x="512.5" y="-597.8" font-family="Helvetica,sans-Serif" font-size="14.00">class = Canada</text>
</g>
<!-- 9&#45;&gt;13 -->
<g id="edge13" class="edge">
<title>9&#45;&gt;13</title>
<path fill="none" stroke="black" d="M451.19,-663.83C461.19,-655.05 473.36,-644.37 484.2,-634.85"/>
<polygon fill="black" stroke="black" points="486.61,-637.39 491.81,-628.16 481.99,-632.13 486.61,-637.39"/>
</g>
<!-- 11 -->
<g id="node12" class="node">
<title>11</title>
<polygon fill="none" stroke="black" points="295.5,-553 185.5,-553 185.5,-517 295.5,-517 295.5,-553"/>
<text text-anchor="middle" x="240.5" y="-531.3" font-family="Helvetica,sans-Serif" font-size="14.00">class = Canada</text>
</g>
<!-- 10&#45;&gt;11 -->
<g id="edge11" class="edge">
<title>10&#45;&gt;11</title>
<path fill="none" stroke="black" d="M321.99,-589.83C307.76,-580.43 290.24,-568.86 275.09,-558.85"/>
<polygon fill="black" stroke="black" points="276.77,-555.76 266.5,-553.17 272.91,-561.6 276.77,-555.76"/>
</g>
<!-- 12 -->
<g id="node13" class="node">
<title>12</title>
<polygon fill="none" stroke="black" points="405,-553 314,-553 314,-517 405,-517 405,-553"/>
<text text-anchor="middle" x="359.5" y="-531.3" font-family="Helvetica,sans-Serif" font-size="14.00">class = USA</text>
</g>
<!-- 10&#45;&gt;12 -->
<g id="edge12" class="edge">
<title>10&#45;&gt;12</title>
<path fill="none" stroke="black" d="M352.02,-589.83C353.14,-581.81 354.47,-572.2 355.7,-563.34"/>
<polygon fill="black" stroke="black" points="359.17,-563.8 357.08,-553.42 352.24,-562.84 359.17,-563.8"/>
</g>
<!-- 14 -->
<g id="node15" class="node">
<title>14</title>
<polygon fill="none" stroke="black" points="566,-554 441,-554 441,-516 566,-516 566,-554"/>
<text text-anchor="middle" x="503.5" y="-538.8" font-family="Helvetica,sans-Serif" font-size="14.00">latitude &lt;= 43.093</text>
<text text-anchor="middle" x="503.5" y="-523.8" font-family="Helvetica,sans-Serif" font-size="14.00">class = Canada</text>
</g>
<!-- 13&#45;&gt;14 -->
<g id="edge14" class="edge">
<title>13&#45;&gt;14</title>
<path fill="none" stroke="black" d="M510.23,-589.83C509.27,-582.13 508.12,-572.97 507.05,-564.42"/>
<polygon fill="black" stroke="black" points="510.52,-563.9 505.8,-554.41 503.57,-564.77 510.52,-563.9"/>
</g>
<!-- 37 -->
<g id="node38" class="node">
<title>37</title>
<polygon fill="none" stroke="black" points="771,-554 630,-554 630,-516 771,-516 771,-554"/>
<text text-anchor="middle" x="700.5" y="-538.8" font-family="Helvetica,sans-Serif" font-size="14.00">longitude &lt;= &#45;66.952</text>
<text text-anchor="middle" x="700.5" y="-523.8" font-family="Helvetica,sans-Serif" font-size="14.00">class = Canada</text>
</g>
<!-- 13&#45;&gt;37 -->
<g id="edge37" class="edge">
<title>13&#45;&gt;37</title>
<path fill="none" stroke="black" d="M559.94,-589.83C585.42,-580.07 617,-567.98 643.78,-557.72"/>
<polygon fill="black" stroke="black" points="645.31,-560.88 653.4,-554.04 642.81,-554.35 645.31,-560.88"/>
</g>
<!-- 15 -->
<g id="node16" class="node">
<title>15</title>
<polygon fill="none" stroke="black" points="374,-480 249,-480 249,-442 374,-442 374,-480"/>
<text text-anchor="middle" x="311.5" y="-464.8" font-family="Helvetica,sans-Serif" font-size="14.00">latitude &lt;= 43.014</text>
<text text-anchor="middle" x="311.5" y="-449.8" font-family="Helvetica,sans-Serif" font-size="14.00">class = Canada</text>
</g>
<!-- 14&#45;&gt;15 -->
<g id="edge15" class="edge">
<title>14&#45;&gt;15</title>
<path fill="none" stroke="black" d="M455.05,-515.83C428.91,-506.03 396.49,-493.87 369.07,-483.59"/>
<polygon fill="black" stroke="black" points="370.19,-480.27 359.6,-480.04 367.74,-486.83 370.19,-480.27"/>
</g>
<!-- 20 -->
<g id="node21" class="node">
<title>20</title>
<polygon fill="none" stroke="black" points="566,-480 441,-480 441,-442 566,-442 566,-480"/>
<text text-anchor="middle" x="503.5" y="-464.8" font-family="Helvetica,sans-Serif" font-size="14.00">latitude &lt;= 44.992</text>
<text text-anchor="middle" x="503.5" y="-449.8" font-family="Helvetica,sans-Serif" font-size="14.00">class = Canada</text>
</g>
<!-- 14&#45;&gt;20 -->
<g id="edge20" class="edge">
<title>14&#45;&gt;20</title>
<path fill="none" stroke="black" d="M503.5,-515.83C503.5,-508.13 503.5,-498.97 503.5,-490.42"/>
<polygon fill="black" stroke="black" points="507,-490.41 503.5,-480.41 500,-490.41 507,-490.41"/>
</g>
<!-- 16 -->
<g id="node17" class="node">
<title>16</title>
<polygon fill="none" stroke="black" points="235,-406 94,-406 94,-368 235,-368 235,-406"/>
<text text-anchor="middle" x="164.5" y="-390.8" font-family="Helvetica,sans-Serif" font-size="14.00">longitude &lt;= &#45;81.845</text>
<text text-anchor="middle" x="164.5" y="-375.8" font-family="Helvetica,sans-Serif" font-size="14.00">class = Canada</text>
</g>
<!-- 15&#45;&gt;16 -->
<g id="edge16" class="edge">
<title>15&#45;&gt;16</title>
<path fill="none" stroke="black" d="M274.41,-441.83C255.01,-432.33 231.08,-420.61 210.51,-410.54"/>
<polygon fill="black" stroke="black" points="211.85,-407.29 201.33,-406.04 208.77,-413.58 211.85,-407.29"/>
</g>
<!-- 19 -->
<g id="node20" class="node">
<title>19</title>
<polygon fill="none" stroke="black" points="357,-405 266,-405 266,-369 357,-369 357,-405"/>
<text text-anchor="middle" x="311.5" y="-383.3" font-family="Helvetica,sans-Serif" font-size="14.00">class = USA</text>
</g>
<!-- 15&#45;&gt;19 -->
<g id="edge19" class="edge">
<title>15&#45;&gt;19</title>
<path fill="none" stroke="black" d="M311.5,-441.83C311.5,-433.89 311.5,-424.41 311.5,-415.63"/>
<polygon fill="black" stroke="black" points="315,-415.42 311.5,-405.42 308,-415.42 315,-415.42"/>
</g>
<!-- 17 -->
<g id="node18" class="node">
<title>17</title>
<polygon fill="none" stroke="black" points="91,-331 0,-331 0,-295 91,-295 91,-331"/>
<text text-anchor="middle" x="45.5" y="-309.3" font-family="Helvetica,sans-Serif" font-size="14.00">class = USA</text>
</g>
<!-- 16&#45;&gt;17 -->
<g id="edge17" class="edge">
<title>16&#45;&gt;17</title>
<path fill="none" stroke="black" d="M134.47,-367.83C118.79,-358.34 99.44,-346.64 82.81,-336.57"/>
<polygon fill="black" stroke="black" points="84.25,-333.35 73.88,-331.17 80.62,-339.34 84.25,-333.35"/>
</g>
<!-- 18 -->
<g id="node19" class="node">
<title>18</title>
<polygon fill="none" stroke="black" points="219.5,-331 109.5,-331 109.5,-295 219.5,-295 219.5,-331"/>
<text text-anchor="middle" x="164.5" y="-309.3" font-family="Helvetica,sans-Serif" font-size="14.00">class = Canada</text>
</g>
<!-- 16&#45;&gt;18 -->
<g id="edge18" class="edge">
<title>16&#45;&gt;18</title>
<path fill="none" stroke="black" d="M164.5,-367.83C164.5,-359.89 164.5,-350.41 164.5,-341.63"/>
<polygon fill="black" stroke="black" points="168,-341.42 164.5,-331.42 161,-341.42 168,-341.42"/>
</g>
<!-- 21 -->
<g id="node22" class="node">
<title>21</title>
<polygon fill="none" stroke="black" points="502,-406 377,-406 377,-368 502,-368 502,-406"/>
<text text-anchor="middle" x="439.5" y="-390.8" font-family="Helvetica,sans-Serif" font-size="14.00">latitude &lt;= 44.542</text>
<text text-anchor="middle" x="439.5" y="-375.8" font-family="Helvetica,sans-Serif" font-size="14.00">class = Canada</text>
</g>
<!-- 20&#45;&gt;21 -->
<g id="edge21" class="edge">
<title>20&#45;&gt;21</title>
<path fill="none" stroke="black" d="M487.35,-441.83C479.83,-433.37 470.74,-423.15 462.52,-413.9"/>
<polygon fill="black" stroke="black" points="465.13,-411.56 455.87,-406.41 459.9,-416.21 465.13,-411.56"/>
</g>
<!-- 36 -->
<g id="node37" class="node">
<title>36</title>
<polygon fill="none" stroke="black" points="630.5,-405 520.5,-405 520.5,-369 630.5,-369 630.5,-405"/>
<text text-anchor="middle" x="575.5" y="-383.3" font-family="Helvetica,sans-Serif" font-size="14.00">class = Canada</text>
</g>
<!-- 20&#45;&gt;36 -->
<g id="edge36" class="edge">
<title>20&#45;&gt;36</title>
<path fill="none" stroke="black" d="M521.67,-441.83C530.48,-433.02 541.19,-422.31 550.74,-412.76"/>
<polygon fill="black" stroke="black" points="553.49,-414.96 558.08,-405.42 548.54,-410.01 553.49,-414.96"/>
</g>
<!-- 22 -->
<g id="node23" class="node">
<title>22</title>
<polygon fill="none" stroke="black" points="379,-332 238,-332 238,-294 379,-294 379,-332"/>
<text text-anchor="middle" x="308.5" y="-316.8" font-family="Helvetica,sans-Serif" font-size="14.00">longitude &lt;= &#45;79.076</text>
<text text-anchor="middle" x="308.5" y="-301.8" font-family="Helvetica,sans-Serif" font-size="14.00">class = Canada</text>
</g>
<!-- 21&#45;&gt;22 -->
<g id="edge22" class="edge">
<title>21&#45;&gt;22</title>
<path fill="none" stroke="black" d="M406.44,-367.83C389.53,-358.54 368.76,-347.12 350.71,-337.2"/>
<polygon fill="black" stroke="black" points="352,-333.91 341.55,-332.16 348.62,-340.05 352,-333.91"/>
</g>
<!-- 31 -->
<g id="node32" class="node">
<title>31</title>
<polygon fill="none" stroke="black" points="538,-332 397,-332 397,-294 538,-294 538,-332"/>
<text text-anchor="middle" x="467.5" y="-316.8" font-family="Helvetica,sans-Serif" font-size="14.00">longitude &lt;= &#45;84.392</text>
<text text-anchor="middle" x="467.5" y="-301.8" font-family="Helvetica,sans-Serif" font-size="14.00">class = USA</text>
</g>
<!-- 21&#45;&gt;31 -->
<g id="edge31" class="edge">
<title>21&#45;&gt;31</title>
<path fill="none" stroke="black" d="M446.57,-367.83C449.63,-359.96 453.28,-350.57 456.67,-341.85"/>
<polygon fill="black" stroke="black" points="459.98,-343 460.34,-332.41 453.45,-340.46 459.98,-343"/>
</g>
<!-- 23 -->
<g id="node24" class="node">
<title>23</title>
<polygon fill="none" stroke="black" points="227.5,-257 117.5,-257 117.5,-221 227.5,-221 227.5,-257"/>
<text text-anchor="middle" x="172.5" y="-235.3" font-family="Helvetica,sans-Serif" font-size="14.00">class = Canada</text>
</g>
<!-- 22&#45;&gt;23 -->
<g id="edge23" class="edge">
<title>22&#45;&gt;23</title>
<path fill="none" stroke="black" d="M274.18,-293.83C255.84,-284.12 233.13,-272.1 213.82,-261.88"/>
<polygon fill="black" stroke="black" points="215.41,-258.76 204.93,-257.17 212.14,-264.94 215.41,-258.76"/>
</g>
<!-- 24 -->
<g id="node25" class="node">
<title>24</title>
<polygon fill="none" stroke="black" points="371,-258 246,-258 246,-220 371,-220 371,-258"/>
<text text-anchor="middle" x="308.5" y="-242.8" font-family="Helvetica,sans-Serif" font-size="14.00">latitude &lt;= 44.168</text>
<text text-anchor="middle" x="308.5" y="-227.8" font-family="Helvetica,sans-Serif" font-size="14.00">class = Canada</text>
</g>
<!-- 22&#45;&gt;24 -->
<g id="edge24" class="edge">
<title>22&#45;&gt;24</title>
<path fill="none" stroke="black" d="M308.5,-293.83C308.5,-286.13 308.5,-276.97 308.5,-268.42"/>
<polygon fill="black" stroke="black" points="312,-268.41 308.5,-258.41 305,-268.41 312,-268.41"/>
</g>
<!-- 25 -->
<g id="node26" class="node">
<title>25</title>
<polygon fill="none" stroke="black" points="241,-184 116,-184 116,-146 241,-146 241,-184"/>
<text text-anchor="middle" x="178.5" y="-168.8" font-family="Helvetica,sans-Serif" font-size="14.00">latitude &lt;= 43.511</text>
<text text-anchor="middle" x="178.5" y="-153.8" font-family="Helvetica,sans-Serif" font-size="14.00">class = USA</text>
</g>
<!-- 24&#45;&gt;25 -->
<g id="edge25" class="edge">
<title>24&#45;&gt;25</title>
<path fill="none" stroke="black" d="M275.7,-219.83C258.91,-210.54 238.3,-199.12 220.38,-189.2"/>
<polygon fill="black" stroke="black" points="221.74,-185.95 211.29,-184.16 218.35,-192.07 221.74,-185.95"/>
</g>
<!-- 30 -->
<g id="node31" class="node">
<title>30</title>
<polygon fill="none" stroke="black" points="369.5,-183 259.5,-183 259.5,-147 369.5,-147 369.5,-183"/>
<text text-anchor="middle" x="314.5" y="-161.3" font-family="Helvetica,sans-Serif" font-size="14.00">class = Canada</text>
</g>
<!-- 24&#45;&gt;30 -->
<g id="edge30" class="edge">
<title>24&#45;&gt;30</title>
<path fill="none" stroke="black" d="M310.01,-219.83C310.68,-211.89 311.47,-202.41 312.2,-193.63"/>
<polygon fill="black" stroke="black" points="315.71,-193.67 313.05,-183.42 308.73,-193.09 315.71,-193.67"/>
</g>
<!-- 26 -->
<g id="node27" class="node">
<title>26</title>
<polygon fill="none" stroke="black" points="161,-109 70,-109 70,-73 161,-73 161,-109"/>
<text text-anchor="middle" x="115.5" y="-87.3" font-family="Helvetica,sans-Serif" font-size="14.00">class = USA</text>
</g>
<!-- 25&#45;&gt;26 -->
<g id="edge26" class="edge">
<title>25&#45;&gt;26</title>
<path fill="none" stroke="black" d="M162.6,-145.83C154.97,-137.11 145.7,-126.52 137.42,-117.05"/>
<polygon fill="black" stroke="black" points="139.96,-114.64 130.74,-109.42 134.69,-119.25 139.96,-114.64"/>
</g>
<!-- 27 -->
<g id="node28" class="node">
<title>27</title>
<polygon fill="none" stroke="black" points="304,-110 179,-110 179,-72 304,-72 304,-110"/>
<text text-anchor="middle" x="241.5" y="-94.8" font-family="Helvetica,sans-Serif" font-size="14.00">latitude &lt;= 43.988</text>
<text text-anchor="middle" x="241.5" y="-79.8" font-family="Helvetica,sans-Serif" font-size="14.00">class = Canada</text>
</g>
<!-- 25&#45;&gt;27 -->
<g id="edge27" class="edge">
<title>25&#45;&gt;27</title>
<path fill="none" stroke="black" d="M194.4,-145.83C201.73,-137.45 210.57,-127.35 218.6,-118.17"/>
<polygon fill="black" stroke="black" points="221.44,-120.24 225.39,-110.41 216.17,-115.63 221.44,-120.24"/>
</g>
<!-- 28 -->
<g id="node29" class="node">
<title>28</title>
<polygon fill="none" stroke="black" points="236.5,-36 126.5,-36 126.5,0 236.5,0 236.5,-36"/>
<text text-anchor="middle" x="181.5" y="-14.3" font-family="Helvetica,sans-Serif" font-size="14.00">class = Canada</text>
</g>
<!-- 27&#45;&gt;28 -->
<g id="edge28" class="edge">
<title>27&#45;&gt;28</title>
<path fill="none" stroke="black" d="M226.05,-71.72C218.85,-63.2 210.18,-52.94 202.41,-43.74"/>
<polygon fill="black" stroke="black" points="205,-41.38 195.87,-36 199.65,-45.9 205,-41.38"/>
</g>
<!-- 29 -->
<g id="node30" class="node">
<title>29</title>
<polygon fill="none" stroke="black" points="346,-36 255,-36 255,0 346,0 346,-36"/>
<text text-anchor="middle" x="300.5" y="-14.3" font-family="Helvetica,sans-Serif" font-size="14.00">class = USA</text>
</g>
<!-- 27&#45;&gt;29 -->
<g id="edge29" class="edge">
<title>27&#45;&gt;29</title>
<path fill="none" stroke="black" d="M256.69,-71.72C263.77,-63.2 272.3,-52.94 279.94,-43.74"/>
<polygon fill="black" stroke="black" points="282.67,-45.93 286.37,-36 277.29,-41.46 282.67,-45.93"/>
</g>
<!-- 32 -->
<g id="node33" class="node">
<title>32</title>
<polygon fill="none" stroke="black" points="480,-257 389,-257 389,-221 480,-221 480,-257"/>
<text text-anchor="middle" x="434.5" y="-235.3" font-family="Helvetica,sans-Serif" font-size="14.00">class = USA</text>
</g>
<!-- 31&#45;&gt;32 -->
<g id="edge32" class="edge">
<title>31&#45;&gt;32</title>
<path fill="none" stroke="black" d="M459.17,-293.83C455.41,-285.63 450.9,-275.78 446.77,-266.76"/>
<polygon fill="black" stroke="black" points="449.83,-265.05 442.48,-257.42 443.47,-267.97 449.83,-265.05"/>
</g>
<!-- 33 -->
<g id="node34" class="node">
<title>33</title>
<polygon fill="none" stroke="black" points="639,-258 498,-258 498,-220 639,-220 639,-258"/>
<text text-anchor="middle" x="568.5" y="-242.8" font-family="Helvetica,sans-Serif" font-size="14.00">longitude &lt;= &#45;75.503</text>
<text text-anchor="middle" x="568.5" y="-227.8" font-family="Helvetica,sans-Serif" font-size="14.00">class = Canada</text>
</g>
<!-- 31&#45;&gt;33 -->
<g id="edge33" class="edge">
<title>31&#45;&gt;33</title>
<path fill="none" stroke="black" d="M492.99,-293.83C505.67,-284.79 521.16,-273.75 534.81,-264.02"/>
<polygon fill="black" stroke="black" points="536.91,-266.82 543.02,-258.16 532.85,-261.12 536.91,-266.82"/>
</g>
<!-- 34 -->
<g id="node35" class="node">
<title>34</title>
<polygon fill="none" stroke="black" points="510.5,-183 400.5,-183 400.5,-147 510.5,-147 510.5,-183"/>
<text text-anchor="middle" x="455.5" y="-161.3" font-family="Helvetica,sans-Serif" font-size="14.00">class = Canada</text>
</g>
<!-- 33&#45;&gt;34 -->
<g id="edge34" class="edge">
<title>33&#45;&gt;34</title>
<path fill="none" stroke="black" d="M539.99,-219.83C525.09,-210.34 506.72,-198.64 490.92,-188.57"/>
<polygon fill="black" stroke="black" points="492.76,-185.59 482.45,-183.17 489,-191.5 492.76,-185.59"/>
</g>
<!-- 35 -->
<g id="node36" class="node">
<title>35</title>
<polygon fill="none" stroke="black" points="620,-183 529,-183 529,-147 620,-147 620,-183"/>
<text text-anchor="middle" x="574.5" y="-161.3" font-family="Helvetica,sans-Serif" font-size="14.00">class = USA</text>
</g>
<!-- 33&#45;&gt;35 -->
<g id="edge35" class="edge">
<title>33&#45;&gt;35</title>
<path fill="none" stroke="black" d="M570.01,-219.83C570.68,-211.89 571.47,-202.41 572.2,-193.63"/>
<polygon fill="black" stroke="black" points="575.71,-193.67 573.05,-183.42 568.73,-193.09 575.71,-193.67"/>
</g>
<!-- 38 -->
<g id="node39" class="node">
<title>38</title>
<polygon fill="none" stroke="black" points="763,-480 638,-480 638,-442 763,-442 763,-480"/>
<text text-anchor="middle" x="700.5" y="-464.8" font-family="Helvetica,sans-Serif" font-size="14.00">latitude &lt;= 45.195</text>
<text text-anchor="middle" x="700.5" y="-449.8" font-family="Helvetica,sans-Serif" font-size="14.00">class = USA</text>
</g>
<!-- 37&#45;&gt;38 -->
<g id="edge38" class="edge">
<title>37&#45;&gt;38</title>
<path fill="none" stroke="black" d="M700.5,-515.83C700.5,-508.13 700.5,-498.97 700.5,-490.42"/>
<polygon fill="black" stroke="black" points="704,-490.41 700.5,-480.41 697,-490.41 704,-490.41"/>
</g>
<!-- 55 -->
<g id="node56" class="node">
<title>55</title>
<polygon fill="none" stroke="black" points="891.5,-479 781.5,-479 781.5,-443 891.5,-443 891.5,-479"/>
<text text-anchor="middle" x="836.5" y="-457.3" font-family="Helvetica,sans-Serif" font-size="14.00">class = Canada</text>
</g>
<!-- 37&#45;&gt;55 -->
<g id="edge55" class="edge">
<title>37&#45;&gt;55</title>
<path fill="none" stroke="black" d="M734.82,-515.83C753.16,-506.12 775.87,-494.1 795.18,-483.88"/>
<polygon fill="black" stroke="black" points="796.86,-486.94 804.07,-479.17 793.59,-480.76 796.86,-486.94"/>
</g>
<!-- 39 -->
<g id="node40" class="node">
<title>39</title>
<polygon fill="none" stroke="black" points="746,-405 655,-405 655,-369 746,-369 746,-405"/>
<text text-anchor="middle" x="700.5" y="-383.3" font-family="Helvetica,sans-Serif" font-size="14.00">class = USA</text>
</g>
<!-- 38&#45;&gt;39 -->
<g id="edge39" class="edge">
<title>38&#45;&gt;39</title>
<path fill="none" stroke="black" d="M700.5,-441.83C700.5,-433.89 700.5,-424.41 700.5,-415.63"/>
<polygon fill="black" stroke="black" points="704,-415.42 700.5,-405.42 697,-415.42 704,-415.42"/>
</g>
<!-- 40 -->
<g id="node41" class="node">
<title>40</title>
<polygon fill="none" stroke="black" points="901.5,-406 767.5,-406 767.5,-368 901.5,-368 901.5,-406"/>
<text text-anchor="middle" x="834.5" y="-390.8" font-family="Helvetica,sans-Serif" font-size="14.00">longitude &lt;= &#45;67.93</text>
<text text-anchor="middle" x="834.5" y="-375.8" font-family="Helvetica,sans-Serif" font-size="14.00">class = Canada</text>
</g>
<!-- 38&#45;&gt;40 -->
<g id="edge40" class="edge">
<title>38&#45;&gt;40</title>
<path fill="none" stroke="black" d="M734.31,-441.83C751.77,-432.45 773.25,-420.91 791.84,-410.92"/>
<polygon fill="black" stroke="black" points="793.54,-413.98 800.7,-406.16 790.23,-407.81 793.54,-413.98"/>
</g>
<!-- 41 -->
<g id="node42" class="node">
<title>41</title>
<polygon fill="none" stroke="black" points="905,-332 764,-332 764,-294 905,-294 905,-332"/>
<text text-anchor="middle" x="834.5" y="-316.8" font-family="Helvetica,sans-Serif" font-size="14.00">longitude &lt;= &#45;68.325</text>
<text text-anchor="middle" x="834.5" y="-301.8" font-family="Helvetica,sans-Serif" font-size="14.00">class = USA</text>
</g>
<!-- 40&#45;&gt;41 -->
<g id="edge41" class="edge">
<title>40&#45;&gt;41</title>
<path fill="none" stroke="black" d="M834.5,-367.83C834.5,-360.13 834.5,-350.97 834.5,-342.42"/>
<polygon fill="black" stroke="black" points="838,-342.41 834.5,-332.41 831,-342.41 838,-342.41"/>
</g>
<!-- 50 -->
<g id="node51" class="node">
<title>50</title>
<polygon fill="none" stroke="black" points="1050,-332 925,-332 925,-294 1050,-294 1050,-332"/>
<text text-anchor="middle" x="987.5" y="-316.8" font-family="Helvetica,sans-Serif" font-size="14.00">latitude &lt;= 45.565</text>
<text text-anchor="middle" x="987.5" y="-301.8" font-family="Helvetica,sans-Serif" font-size="14.00">class = Canada</text>
</g>
<!-- 40&#45;&gt;50 -->
<g id="edge50" class="edge">
<title>40&#45;&gt;50</title>
<path fill="none" stroke="black" d="M873.11,-367.83C893.39,-358.29 918.42,-346.51 939.9,-336.4"/>
<polygon fill="black" stroke="black" points="941.61,-339.46 949.17,-332.04 938.63,-333.13 941.61,-339.46"/>
</g>
<!-- 42 -->
<g id="node43" class="node">
<title>42</title>
<polygon fill="none" stroke="black" points="798,-258 657,-258 657,-220 798,-220 798,-258"/>
<text text-anchor="middle" x="727.5" y="-242.8" font-family="Helvetica,sans-Serif" font-size="14.00">longitude &lt;= &#45;68.915</text>
<text text-anchor="middle" x="727.5" y="-227.8" font-family="Helvetica,sans-Serif" font-size="14.00">class = Canada</text>
</g>
<!-- 41&#45;&gt;42 -->
<g id="edge42" class="edge">
<title>41&#45;&gt;42</title>
<path fill="none" stroke="black" d="M807.5,-293.83C794.07,-284.79 777.65,-273.75 763.2,-264.02"/>
<polygon fill="black" stroke="black" points="764.74,-260.84 754.49,-258.16 760.83,-266.65 764.74,-260.84"/>
</g>
<!-- 49 -->
<g id="node50" class="node">
<title>49</title>
<polygon fill="none" stroke="black" points="907,-257 816,-257 816,-221 907,-221 907,-257"/>
<text text-anchor="middle" x="861.5" y="-235.3" font-family="Helvetica,sans-Serif" font-size="14.00">class = USA</text>
</g>
<!-- 41&#45;&gt;49 -->
<g id="edge49" class="edge">
<title>41&#45;&gt;49</title>
<path fill="none" stroke="black" d="M841.31,-293.83C844.36,-285.72 848,-275.99 851.36,-267.05"/>
<polygon fill="black" stroke="black" points="854.73,-268.01 854.97,-257.42 848.18,-265.55 854.73,-268.01"/>
</g>
<!-- 43 -->
<g id="node44" class="node">
<title>43</title>
<polygon fill="none" stroke="black" points="753,-183 662,-183 662,-147 753,-147 753,-183"/>
<text text-anchor="middle" x="707.5" y="-161.3" font-family="Helvetica,sans-Serif" font-size="14.00">class = USA</text>
</g>
<!-- 42&#45;&gt;43 -->
<g id="edge43" class="edge">
<title>42&#45;&gt;43</title>
<path fill="none" stroke="black" d="M722.45,-219.83C720.22,-211.81 717.56,-202.2 715.09,-193.34"/>
<polygon fill="black" stroke="black" points="718.39,-192.12 712.34,-183.42 711.64,-193.99 718.39,-192.12"/>
</g>
<!-- 44 -->
<g id="node45" class="node">
<title>44</title>
<polygon fill="none" stroke="black" points="896,-184 771,-184 771,-146 896,-146 896,-184"/>
<text text-anchor="middle" x="833.5" y="-168.8" font-family="Helvetica,sans-Serif" font-size="14.00">latitude &lt;= 47.256</text>
<text text-anchor="middle" x="833.5" y="-153.8" font-family="Helvetica,sans-Serif" font-size="14.00">class = Canada</text>
</g>
<!-- 42&#45;&gt;44 -->
<g id="edge44" class="edge">
<title>42&#45;&gt;44</title>
<path fill="none" stroke="black" d="M754.25,-219.83C767.56,-210.79 783.82,-199.75 798.14,-190.02"/>
<polygon fill="black" stroke="black" points="800.45,-192.68 806.76,-184.16 796.52,-186.89 800.45,-192.68"/>
</g>
<!-- 45 -->
<g id="node46" class="node">
<title>45</title>
<polygon fill="none" stroke="black" points="816.5,-109 706.5,-109 706.5,-73 816.5,-73 816.5,-109"/>
<text text-anchor="middle" x="761.5" y="-87.3" font-family="Helvetica,sans-Serif" font-size="14.00">class = Canada</text>
</g>
<!-- 44&#45;&gt;45 -->
<g id="edge45" class="edge">
<title>44&#45;&gt;45</title>
<path fill="none" stroke="black" d="M815.33,-145.83C806.52,-137.02 795.81,-126.31 786.26,-116.76"/>
<polygon fill="black" stroke="black" points="788.46,-114.01 778.92,-109.42 783.51,-118.96 788.46,-114.01"/>
</g>
<!-- 46 -->
<g id="node47" class="node">
<title>46</title>
<polygon fill="none" stroke="black" points="976,-110 835,-110 835,-72 976,-72 976,-110"/>
<text text-anchor="middle" x="905.5" y="-94.8" font-family="Helvetica,sans-Serif" font-size="14.00">longitude &lt;= &#45;68.459</text>
<text text-anchor="middle" x="905.5" y="-79.8" font-family="Helvetica,sans-Serif" font-size="14.00">class = Canada</text>
</g>
<!-- 44&#45;&gt;46 -->
<g id="edge46" class="edge">
<title>44&#45;&gt;46</title>
<path fill="none" stroke="black" d="M851.67,-145.83C860.22,-137.28 870.56,-126.94 879.88,-117.62"/>
<polygon fill="black" stroke="black" points="882.49,-119.96 887.09,-110.41 877.54,-115.01 882.49,-119.96"/>
</g>
<!-- 47 -->
<g id="node48" class="node">
<title>47</title>
<polygon fill="none" stroke="black" points="891,-36 800,-36 800,0 891,0 891,-36"/>
<text text-anchor="middle" x="845.5" y="-14.3" font-family="Helvetica,sans-Serif" font-size="14.00">class = USA</text>
</g>
<!-- 46&#45;&gt;47 -->
<g id="edge47" class="edge">
<title>46&#45;&gt;47</title>
<path fill="none" stroke="black" d="M890.05,-71.72C882.85,-63.2 874.18,-52.94 866.41,-43.74"/>
<polygon fill="black" stroke="black" points="869,-41.38 859.87,-36 863.65,-45.9 869,-41.38"/>
</g>
<!-- 48 -->
<g id="node49" class="node">
<title>48</title>
<polygon fill="none" stroke="black" points="1019.5,-36 909.5,-36 909.5,0 1019.5,0 1019.5,-36"/>
<text text-anchor="middle" x="964.5" y="-14.3" font-family="Helvetica,sans-Serif" font-size="14.00">class = Canada</text>
</g>
<!-- 46&#45;&gt;48 -->
<g id="edge48" class="edge">
<title>46&#45;&gt;48</title>
<path fill="none" stroke="black" d="M920.69,-71.72C927.77,-63.2 936.3,-52.94 943.94,-43.74"/>
<polygon fill="black" stroke="black" points="946.67,-45.93 950.37,-36 941.29,-41.46 946.67,-45.93"/>
</g>
<!-- 51 -->
<g id="node52" class="node">
<title>51</title>
<polygon fill="none" stroke="black" points="1050,-258 925,-258 925,-220 1050,-220 1050,-258"/>
<text text-anchor="middle" x="987.5" y="-242.8" font-family="Helvetica,sans-Serif" font-size="14.00">latitude &lt;= 45.382</text>
<text text-anchor="middle" x="987.5" y="-227.8" font-family="Helvetica,sans-Serif" font-size="14.00">class = Canada</text>
</g>
<!-- 50&#45;&gt;51 -->
<g id="edge51" class="edge">
<title>50&#45;&gt;51</title>
<path fill="none" stroke="black" d="M987.5,-293.83C987.5,-286.13 987.5,-276.97 987.5,-268.42"/>
<polygon fill="black" stroke="black" points="991,-268.41 987.5,-258.41 984,-268.41 991,-268.41"/>
</g>
<!-- 54 -->
<g id="node55" class="node">
<title>54</title>
<polygon fill="none" stroke="black" points="1178.5,-257 1068.5,-257 1068.5,-221 1178.5,-221 1178.5,-257"/>
<text text-anchor="middle" x="1123.5" y="-235.3" font-family="Helvetica,sans-Serif" font-size="14.00">class = Canada</text>
</g>
<!-- 50&#45;&gt;54 -->
<g id="edge54" class="edge">
<title>50&#45;&gt;54</title>
<path fill="none" stroke="black" d="M1021.82,-293.83C1040.16,-284.12 1062.87,-272.1 1082.18,-261.88"/>
<polygon fill="black" stroke="black" points="1083.86,-264.94 1091.07,-257.17 1080.59,-258.76 1083.86,-264.94"/>
</g>
<!-- 52 -->
<g id="node53" class="node">
<title>52</title>
<polygon fill="none" stroke="black" points="1036.5,-183 926.5,-183 926.5,-147 1036.5,-147 1036.5,-183"/>
<text text-anchor="middle" x="981.5" y="-161.3" font-family="Helvetica,sans-Serif" font-size="14.00">class = Canada</text>
</g>
<!-- 51&#45;&gt;52 -->
<g id="edge52" class="edge">
<title>51&#45;&gt;52</title>
<path fill="none" stroke="black" d="M985.99,-219.83C985.32,-211.89 984.53,-202.41 983.8,-193.63"/>
<polygon fill="black" stroke="black" points="987.27,-193.09 982.95,-183.42 980.29,-193.67 987.27,-193.09"/>
</g>
<!-- 53 -->
<g id="node54" class="node">
<title>53</title>
<polygon fill="none" stroke="black" points="1146,-183 1055,-183 1055,-147 1146,-147 1146,-183"/>
<text text-anchor="middle" x="1100.5" y="-161.3" font-family="Helvetica,sans-Serif" font-size="14.00">class = USA</text>
</g>
<!-- 51&#45;&gt;53 -->
<g id="edge53" class="edge">
<title>51&#45;&gt;53</title>
<path fill="none" stroke="black" d="M1016.01,-219.83C1030.91,-210.34 1049.28,-198.64 1065.08,-188.57"/>
<polygon fill="black" stroke="black" points="1067,-191.5 1073.55,-183.17 1063.24,-185.59 1067,-191.5"/>
</g>
</g>
</svg>
