<?xml version="1.0" encoding="UTF-8" standalone="no"?>
<!DOCTYPE svg PUBLIC "-//W3C//DTD SVG 1.1//EN"
 "http://www.w3.org/Graphics/SVG/1.1/DTD/svg11.dtd">
<!-- Generated by graphviz version 2.48.0 (0)
 -->
<!-- Title: Tree Pages: 1 -->
<svg width="1148pt" height="932pt"
 viewBox="0.00 0.00 1148.00 932.00" xmlns="http://www.w3.org/2000/svg" xmlns:xlink="http://www.w3.org/1999/xlink">
<g id="graph0" class="graph" transform="scale(1 1) rotate(0) translate(4 928)">
<title>Tree</title>
<polygon fill="white" stroke="transparent" points="-4,4 -4,-928 1144,-928 1144,4 -4,4"/>
<!-- 0 -->
<g id="node1" class="node">
<title>0</title>
<polygon fill="none" stroke="black" points="401.5,-924 295.5,-924 295.5,-886 401.5,-886 401.5,-924"/>
<text text-anchor="middle" x="348.5" y="-908.8" font-family="Times,serif" font-size="14.00">latitude &lt;= 42.9</text>
<text text-anchor="middle" x="348.5" y="-893.8" font-family="Times,serif" font-size="14.00">class = Canada</text>
</g>
<!-- 1 -->
<g id="node2" class="node">
<title>1</title>
<polygon fill="none" stroke="black" points="339.5,-850 219.5,-850 219.5,-812 339.5,-812 339.5,-850"/>
<text text-anchor="middle" x="279.5" y="-834.8" font-family="Times,serif" font-size="14.00">latitude &lt;= 42.096</text>
<text text-anchor="middle" x="279.5" y="-819.8" font-family="Times,serif" font-size="14.00">class = USA</text>
</g>
<!-- 0&#45;&gt;1 -->
<g id="edge1" class="edge">
<title>0&#45;&gt;1</title>
<path fill="none" stroke="black" d="M331.09,-885.83C322.98,-877.37 313.18,-867.15 304.32,-857.9"/>
<polygon fill="black" stroke="black" points="306.59,-855.21 297.15,-850.41 301.54,-860.05 306.59,-855.21"/>
<text text-anchor="middle" x="296.61" y="-871.71" font-family="Times,serif" font-size="14.00">True</text>
</g>
<!-- 6 -->
<g id="node7" class="node">
<title>6</title>
<polygon fill="none" stroke="black" points="477.5,-850 357.5,-850 357.5,-812 477.5,-812 477.5,-850"/>
<text text-anchor="middle" x="417.5" y="-834.8" font-family="Times,serif" font-size="14.00">latitude &lt;= 55.958</text>
<text text-anchor="middle" x="417.5" y="-819.8" font-family="Times,serif" font-size="14.00">class = Canada</text>
</g>
<!-- 0&#45;&gt;6 -->
<g id="edge6" class="edge">
<title>0&#45;&gt;6</title>
<path fill="none" stroke="black" d="M365.91,-885.83C374.02,-877.37 383.82,-867.15 392.68,-857.9"/>
<polygon fill="black" stroke="black" points="395.46,-860.05 399.85,-850.41 390.41,-855.21 395.46,-860.05"/>
<text text-anchor="middle" x="400.39" y="-871.71" font-family="Times,serif" font-size="14.00">False</text>
</g>
<!-- 2 -->
<g id="node3" class="node">
<title>2</title>
<polygon fill="none" stroke="black" points="203,-775 116,-775 116,-739 203,-739 203,-775"/>
<text text-anchor="middle" x="159.5" y="-753.3" font-family="Times,serif" font-size="14.00">class = USA</text>
</g>
<!-- 1&#45;&gt;2 -->
<g id="edge2" class="edge">
<title>1&#45;&gt;2</title>
<path fill="none" stroke="black" d="M249.22,-811.83C233.4,-802.34 213.9,-790.64 197.12,-780.57"/>
<polygon fill="black" stroke="black" points="198.49,-777.32 188.12,-775.17 194.89,-783.32 198.49,-777.32"/>
</g>
<!-- 3 -->
<g id="node4" class="node">
<title>3</title>
<polygon fill="none" stroke="black" points="341.5,-776 221.5,-776 221.5,-738 341.5,-738 341.5,-776"/>
<text text-anchor="middle" x="281.5" y="-760.8" font-family="Times,serif" font-size="14.00">latitude &lt;= 42.324</text>
<text text-anchor="middle" x="281.5" y="-745.8" font-family="Times,serif" font-size="14.00">class = USA</text>
</g>
<!-- 1&#45;&gt;3 -->
<g id="edge3" class="edge">
<title>1&#45;&gt;3</title>
<path fill="none" stroke="black" d="M280,-811.83C280.22,-804.13 280.47,-794.97 280.71,-786.42"/>
<polygon fill="black" stroke="black" points="284.21,-786.51 280.99,-776.41 277.21,-786.31 284.21,-786.51"/>
</g>
<!-- 4 -->
<g id="node5" class="node">
<title>4</title>
<polygon fill="none" stroke="black" points="221,-701 120,-701 120,-665 221,-665 221,-701"/>
<text text-anchor="middle" x="170.5" y="-679.3" font-family="Times,serif" font-size="14.00">class = Canada</text>
</g>
<!-- 3&#45;&gt;4 -->
<g id="edge4" class="edge">
<title>3&#45;&gt;4</title>
<path fill="none" stroke="black" d="M253.49,-737.83C238.99,-728.43 221.15,-716.86 205.73,-706.85"/>
<polygon fill="black" stroke="black" points="207.27,-703.68 196.97,-701.17 203.46,-709.55 207.27,-703.68"/>
</g>
<!-- 5 -->
<g id="node6" class="node">
<title>5</title>
<polygon fill="none" stroke="black" points="326,-701 239,-701 239,-665 326,-665 326,-701"/>
<text text-anchor="middle" x="282.5" y="-679.3" font-family="Times,serif" font-size="14.00">class = USA</text>
</g>
<!-- 3&#45;&gt;5 -->
<g id="edge5" class="edge">
<title>3&#45;&gt;5</title>
<path fill="none" stroke="black" d="M281.75,-737.83C281.86,-729.89 281.99,-720.41 282.12,-711.63"/>
<polygon fill="black" stroke="black" points="285.62,-711.47 282.26,-701.42 278.62,-711.37 285.62,-711.47"/>
</g>
<!-- 7 -->
<g id="node8" class="node">
<title>7</title>
<polygon fill="none" stroke="black" points="469.5,-776 363.5,-776 363.5,-738 469.5,-738 469.5,-776"/>
<text text-anchor="middle" x="416.5" y="-760.8" font-family="Times,serif" font-size="14.00">latitude &lt;= 49.0</text>
<text text-anchor="middle" x="416.5" y="-745.8" font-family="Times,serif" font-size="14.00">class = Canada</text>
</g>
<!-- 6&#45;&gt;7 -->
<g id="edge7" class="edge">
<title>6&#45;&gt;7</title>
<path fill="none" stroke="black" d="M417.25,-811.83C417.14,-804.13 417.01,-794.97 416.89,-786.42"/>
<polygon fill="black" stroke="black" points="420.39,-786.36 416.76,-776.41 413.4,-786.46 420.39,-786.36"/>
</g>
<!-- 56 -->
<g id="node57" class="node">
<title>56</title>
<polygon fill="none" stroke="black" points="575,-775 488,-775 488,-739 575,-739 575,-775"/>
<text text-anchor="middle" x="531.5" y="-753.3" font-family="Times,serif" font-size="14.00">class = USA</text>
</g>
<!-- 6&#45;&gt;56 -->
<g id="edge56" class="edge">
<title>6&#45;&gt;56</title>
<path fill="none" stroke="black" d="M446.27,-811.83C461.29,-802.34 479.82,-790.64 495.76,-780.57"/>
<polygon fill="black" stroke="black" points="497.73,-783.47 504.31,-775.17 493.99,-777.55 497.73,-783.47"/>
</g>
<!-- 8 -->
<g id="node9" class="node">
<title>8</title>
<polygon fill="none" stroke="black" points="483,-702 348,-702 348,-664 483,-664 483,-702"/>
<text text-anchor="middle" x="415.5" y="-686.8" font-family="Times,serif" font-size="14.00">longitude &lt;= &#45;94.582</text>
<text text-anchor="middle" x="415.5" y="-671.8" font-family="Times,serif" font-size="14.00">class = Canada</text>
</g>
<!-- 7&#45;&gt;8 -->
<g id="edge8" class="edge">
<title>7&#45;&gt;8</title>
<path fill="none" stroke="black" d="M416.25,-737.83C416.14,-730.13 416.01,-720.97 415.89,-712.42"/>
<polygon fill="black" stroke="black" points="419.39,-712.36 415.76,-702.41 412.4,-712.46 419.39,-712.36"/>
</g>
<!-- 55 -->
<g id="node56" class="node">
<title>55</title>
<polygon fill="none" stroke="black" points="602,-701 501,-701 501,-665 602,-665 602,-701"/>
<text text-anchor="middle" x="551.5" y="-679.3" font-family="Times,serif" font-size="14.00">class = Canada</text>
</g>
<!-- 7&#45;&gt;55 -->
<g id="edge55" class="edge">
<title>7&#45;&gt;55</title>
<path fill="none" stroke="black" d="M450.57,-737.83C468.69,-728.17 491.12,-716.2 510.22,-706.01"/>
<polygon fill="black" stroke="black" points="512.13,-708.97 519.3,-701.17 508.83,-702.79 512.13,-708.97"/>
</g>
<!-- 9 -->
<g id="node10" class="node">
<title>9</title>
<polygon fill="none" stroke="black" points="408.5,-628 266.5,-628 266.5,-590 408.5,-590 408.5,-628"/>
<text text-anchor="middle" x="337.5" y="-612.8" font-family="Times,serif" font-size="14.00">longitude &lt;= &#45;123.222</text>
<text text-anchor="middle" x="337.5" y="-597.8" font-family="Times,serif" font-size="14.00">class = USA</text>
</g>
<!-- 8&#45;&gt;9 -->
<g id="edge9" class="edge">
<title>8&#45;&gt;9</title>
<path fill="none" stroke="black" d="M395.82,-663.83C386.39,-655.13 374.96,-644.58 364.72,-635.13"/>
<polygon fill="black" stroke="black" points="366.9,-632.37 357.18,-628.16 362.15,-637.52 366.9,-632.37"/>
</g>
<!-- 12 -->
<g id="node13" class="node">
<title>12</title>
<polygon fill="none" stroke="black" points="562,-628 427,-628 427,-590 562,-590 562,-628"/>
<text text-anchor="middle" x="494.5" y="-612.8" font-family="Times,serif" font-size="14.00">longitude &lt;= &#45;69.246</text>
<text text-anchor="middle" x="494.5" y="-597.8" font-family="Times,serif" font-size="14.00">class = Canada</text>
</g>
<!-- 8&#45;&gt;12 -->
<g id="edge12" class="edge">
<title>8&#45;&gt;12</title>
<path fill="none" stroke="black" d="M435.44,-663.83C444.98,-655.13 456.56,-644.58 466.93,-635.13"/>
<polygon fill="black" stroke="black" points="469.54,-637.49 474.57,-628.16 464.82,-632.31 469.54,-637.49"/>
</g>
<!-- 10 -->
<g id="node11" class="node">
<title>10</title>
<polygon fill="none" stroke="black" points="285,-553 184,-553 184,-517 285,-517 285,-553"/>
<text text-anchor="middle" x="234.5" y="-531.3" font-family="Times,serif" font-size="14.00">class = Canada</text>
</g>
<!-- 9&#45;&gt;10 -->
<g id="edge10" class="edge">
<title>9&#45;&gt;10</title>
<path fill="none" stroke="black" d="M311.51,-589.83C298.18,-580.52 281.81,-569.07 267.59,-559.13"/>
<polygon fill="black" stroke="black" points="269.27,-556.03 259.06,-553.17 265.26,-561.77 269.27,-556.03"/>
</g>
<!-- 11 -->
<g id="node12" class="node">
<title>11</title>
<polygon fill="none" stroke="black" points="390,-553 303,-553 303,-517 390,-517 390,-553"/>
<text text-anchor="middle" x="346.5" y="-531.3" font-family="Times,serif" font-size="14.00">class = USA</text>
</g>
<!-- 9&#45;&gt;11 -->
<g id="edge11" class="edge">
<title>9&#45;&gt;11</title>
<path fill="none" stroke="black" d="M339.77,-589.83C340.76,-581.89 341.95,-572.41 343.05,-563.63"/>
<polygon fill="black" stroke="black" points="346.56,-563.77 344.32,-553.42 339.61,-562.91 346.56,-563.77"/>
</g>
<!-- 13 -->
<g id="node14" class="node">
<title>13</title>
<polygon fill="none" stroke="black" points="545.5,-554 425.5,-554 425.5,-516 545.5,-516 545.5,-554"/>
<text text-anchor="middle" x="485.5" y="-538.8" font-family="Times,serif" font-size="14.00">latitude &lt;= 43.093</text>
<text text-anchor="middle" x="485.5" y="-523.8" font-family="Times,serif" font-size="14.00">class = Canada</text>
</g>
<!-- 12&#45;&gt;13 -->
<g id="edge13" class="edge">
<title>12&#45;&gt;13</title>
<path fill="none" stroke="black" d="M492.23,-589.83C491.27,-582.13 490.12,-572.97 489.05,-564.42"/>
<polygon fill="black" stroke="black" points="492.52,-563.9 487.8,-554.41 485.57,-564.77 492.52,-563.9"/>
</g>
<!-- 36 -->
<g id="node37" class="node">
<title>36</title>
<polygon fill="none" stroke="black" points="744,-554 609,-554 609,-516 744,-516 744,-554"/>
<text text-anchor="middle" x="676.5" y="-538.8" font-family="Times,serif" font-size="14.00">longitude &lt;= &#45;66.952</text>
<text text-anchor="middle" x="676.5" y="-523.8" font-family="Times,serif" font-size="14.00">class = Canada</text>
</g>
<!-- 12&#45;&gt;36 -->
<g id="edge36" class="edge">
<title>12&#45;&gt;36</title>
<path fill="none" stroke="black" d="M540.43,-589.83C565.09,-580.07 595.67,-567.98 621.59,-557.72"/>
<polygon fill="black" stroke="black" points="622.89,-560.97 630.9,-554.04 620.32,-554.46 622.89,-560.97"/>
</g>
<!-- 14 -->
<g id="node15" class="node">
<title>14</title>
<polygon fill="none" stroke="black" points="361.5,-480 241.5,-480 241.5,-442 361.5,-442 361.5,-480"/>
<text text-anchor="middle" x="301.5" y="-464.8" font-family="Times,serif" font-size="14.00">latitude &lt;= 43.014</text>
<text text-anchor="middle" x="301.5" y="-449.8" font-family="Times,serif" font-size="14.00">class = Canada</text>
</g>
<!-- 13&#45;&gt;14 -->
<g id="edge14" class="edge">
<title>13&#45;&gt;14</title>
<path fill="none" stroke="black" d="M439.07,-515.83C414.13,-506.07 383.22,-493.98 357.02,-483.72"/>
<polygon fill="black" stroke="black" points="358.18,-480.42 347.6,-480.04 355.63,-486.94 358.18,-480.42"/>
</g>
<!-- 19 -->
<g id="node20" class="node">
<title>19</title>
<polygon fill="none" stroke="black" points="545.5,-480 425.5,-480 425.5,-442 545.5,-442 545.5,-480"/>
<text text-anchor="middle" x="485.5" y="-464.8" font-family="Times,serif" font-size="14.00">latitude &lt;= 44.992</text>
<text text-anchor="middle" x="485.5" y="-449.8" font-family="Times,serif" font-size="14.00">class = Canada</text>
</g>
<!-- 13&#45;&gt;19 -->
<g id="edge19" class="edge">
<title>13&#45;&gt;19</title>
<path fill="none" stroke="black" d="M485.5,-515.83C485.5,-508.13 485.5,-498.97 485.5,-490.42"/>
<polygon fill="black" stroke="black" points="489,-490.41 485.5,-480.41 482,-490.41 489,-490.41"/>
</g>
<!-- 15 -->
<g id="node16" class="node">
<title>15</title>
<polygon fill="none" stroke="black" points="223,-406 88,-406 88,-368 223,-368 223,-406"/>
<text text-anchor="middle" x="155.5" y="-390.8" font-family="Times,serif" font-size="14.00">longitude &lt;= &#45;81.845</text>
<text text-anchor="middle" x="155.5" y="-375.8" font-family="Times,serif" font-size="14.00">class = Canada</text>
</g>
<!-- 14&#45;&gt;15 -->
<g id="edge15" class="edge">
<title>14&#45;&gt;15</title>
<path fill="none" stroke="black" d="M264.66,-441.83C245.39,-432.33 221.63,-420.61 201.2,-410.54"/>
<polygon fill="black" stroke="black" points="202.59,-407.32 192.08,-406.04 199.5,-413.6 202.59,-407.32"/>
</g>
<!-- 18 -->
<g id="node19" class="node">
<title>18</title>
<polygon fill="none" stroke="black" points="345,-405 258,-405 258,-369 345,-369 345,-405"/>
<text text-anchor="middle" x="301.5" y="-383.3" font-family="Times,serif" font-size="14.00">class = USA</text>
</g>
<!-- 14&#45;&gt;18 -->
<g id="edge18" class="edge">
<title>14&#45;&gt;18</title>
<path fill="none" stroke="black" d="M301.5,-441.83C301.5,-433.89 301.5,-424.41 301.5,-415.63"/>
<polygon fill="black" stroke="black" points="305,-415.42 301.5,-405.42 298,-415.42 305,-415.42"/>
</g>
<!-- 16 -->
<g id="node17" class="node">
<title>16</title>
<polygon fill="none" stroke="black" points="87,-331 0,-331 0,-295 87,-295 87,-331"/>
<text text-anchor="middle" x="43.5" y="-309.3" font-family="Times,serif" font-size="14.00">class = USA</text>
</g>
<!-- 15&#45;&gt;16 -->
<g id="edge16" class="edge">
<title>15&#45;&gt;16</title>
<path fill="none" stroke="black" d="M127.24,-367.83C112.61,-358.43 94.61,-346.86 79.05,-336.85"/>
<polygon fill="black" stroke="black" points="80.52,-333.63 70.21,-331.17 76.73,-339.52 80.52,-333.63"/>
</g>
<!-- 17 -->
<g id="node18" class="node">
<title>17</title>
<polygon fill="none" stroke="black" points="206,-331 105,-331 105,-295 206,-295 206,-331"/>
<text text-anchor="middle" x="155.5" y="-309.3" font-family="Times,serif" font-size="14.00">class = Canada</text>
</g>
<!-- 15&#45;&gt;17 -->
<g id="edge17" class="edge">
<title>15&#45;&gt;17</title>
<path fill="none" stroke="black" d="M155.5,-367.83C155.5,-359.89 155.5,-350.41 155.5,-341.63"/>
<polygon fill="black" stroke="black" points="159,-341.42 155.5,-331.42 152,-341.42 159,-341.42"/>
</g>
<!-- 20 -->
<g id="node21" class="node">
<title>20</title>
<polygon fill="none" stroke="black" points="491.5,-406 371.5,-406 371.5,-368 491.5,-368 491.5,-406"/>
<text text-anchor="middle" x="431.5" y="-390.8" font-family="Times,serif" font-size="14.00">latitude &lt;= 44.542</text>
<text text-anchor="middle" x="431.5" y="-375.8" font-family="Times,serif" font-size="14.00">class = Canada</text>
</g>
<!-- 19&#45;&gt;20 -->
<g id="edge20" class="edge">
<title>19&#45;&gt;20</title>
<path fill="none" stroke="black" d="M471.87,-441.83C465.65,-433.54 458.17,-423.56 451.34,-414.45"/>
<polygon fill="black" stroke="black" points="454.11,-412.31 445.31,-406.41 448.51,-416.51 454.11,-412.31"/>
</g>
<!-- 35 -->
<g id="node36" class="node">
<title>35</title>
<polygon fill="none" stroke="black" points="611,-405 510,-405 510,-369 611,-369 611,-405"/>
<text text-anchor="middle" x="560.5" y="-383.3" font-family="Times,serif" font-size="14.00">class = Canada</text>
</g>
<!-- 19&#45;&gt;35 -->
<g id="edge35" class="edge">
<title>19&#45;&gt;35</title>
<path fill="none" stroke="black" d="M504.43,-441.83C513.76,-432.87 525.15,-421.93 535.23,-412.26"/>
<polygon fill="black" stroke="black" points="537.82,-414.62 542.61,-405.17 532.98,-409.57 537.82,-414.62"/>
</g>
<!-- 21 -->
<g id="node22" class="node">
<title>21</title>
<polygon fill="none" stroke="black" points="359,-332 224,-332 224,-294 359,-294 359,-332"/>
<text text-anchor="middle" x="291.5" y="-316.8" font-family="Times,serif" font-size="14.00">longitude &lt;= &#45;79.076</text>
<text text-anchor="middle" x="291.5" y="-301.8" font-family="Times,serif" font-size="14.00">class = Canada</text>
</g>
<!-- 20&#45;&gt;21 -->
<g id="edge21" class="edge">
<title>20&#45;&gt;21</title>
<path fill="none" stroke="black" d="M396.17,-367.83C377.85,-358.41 355.29,-346.81 335.81,-336.79"/>
<polygon fill="black" stroke="black" points="337.31,-333.62 326.82,-332.16 334.11,-339.85 337.31,-333.62"/>
</g>
<!-- 30 -->
<g id="node31" class="node">
<title>30</title>
<polygon fill="none" stroke="black" points="512,-332 377,-332 377,-294 512,-294 512,-332"/>
<text text-anchor="middle" x="444.5" y="-316.8" font-family="Times,serif" font-size="14.00">longitude &lt;= &#45;84.392</text>
<text text-anchor="middle" x="444.5" y="-301.8" font-family="Times,serif" font-size="14.00">class = USA</text>
</g>
<!-- 20&#45;&gt;30 -->
<g id="edge30" class="edge">
<title>20&#45;&gt;30</title>
<path fill="none" stroke="black" d="M434.78,-367.83C436.17,-360.13 437.82,-350.97 439.37,-342.42"/>
<polygon fill="black" stroke="black" points="442.84,-342.88 441.18,-332.41 435.95,-341.63 442.84,-342.88"/>
</g>
<!-- 22 -->
<g id="node23" class="node">
<title>22</title>
<polygon fill="none" stroke="black" points="213,-257 112,-257 112,-221 213,-221 213,-257"/>
<text text-anchor="middle" x="162.5" y="-235.3" font-family="Times,serif" font-size="14.00">class = Canada</text>
</g>
<!-- 21&#45;&gt;22 -->
<g id="edge22" class="edge">
<title>21&#45;&gt;22</title>
<path fill="none" stroke="black" d="M258.95,-293.83C241.79,-284.25 220.59,-272.42 202.44,-262.29"/>
<polygon fill="black" stroke="black" points="203.7,-258.99 193.27,-257.17 200.29,-265.1 203.7,-258.99"/>
</g>
<!-- 23 -->
<g id="node24" class="node">
<title>23</title>
<polygon fill="none" stroke="black" points="351.5,-258 231.5,-258 231.5,-220 351.5,-220 351.5,-258"/>
<text text-anchor="middle" x="291.5" y="-242.8" font-family="Times,serif" font-size="14.00">latitude &lt;= 44.168</text>
<text text-anchor="middle" x="291.5" y="-227.8" font-family="Times,serif" font-size="14.00">class = Canada</text>
</g>
<!-- 21&#45;&gt;23 -->
<g id="edge23" class="edge">
<title>21&#45;&gt;23</title>
<path fill="none" stroke="black" d="M291.5,-293.83C291.5,-286.13 291.5,-276.97 291.5,-268.42"/>
<polygon fill="black" stroke="black" points="295,-268.41 291.5,-258.41 288,-268.41 295,-268.41"/>
</g>
<!-- 24 -->
<g id="node25" class="node">
<title>24</title>
<polygon fill="none" stroke="black" points="233,-184 114,-184 114,-146 233,-146 233,-184"/>
<text text-anchor="middle" x="173.5" y="-168.8" font-family="Times,serif" font-size="14.00">latitude &lt;= 43.511</text>
<text text-anchor="middle" x="173.5" y="-153.8" font-family="Times,serif" font-size="14.00">class = USA</text>
</g>
<!-- 23&#45;&gt;24 -->
<g id="edge24" class="edge">
<title>23&#45;&gt;24</title>
<path fill="none" stroke="black" d="M261.72,-219.83C246.63,-210.62 228.12,-199.33 211.97,-189.47"/>
<polygon fill="black" stroke="black" points="213.63,-186.38 203.27,-184.16 209.98,-192.36 213.63,-186.38"/>
</g>
<!-- 29 -->
<g id="node30" class="node">
<title>29</title>
<polygon fill="none" stroke="black" points="352,-183 251,-183 251,-147 352,-147 352,-183"/>
<text text-anchor="middle" x="301.5" y="-161.3" font-family="Times,serif" font-size="14.00">class = Canada</text>
</g>
<!-- 23&#45;&gt;29 -->
<g id="edge29" class="edge">
<title>23&#45;&gt;29</title>
<path fill="none" stroke="black" d="M294.02,-219.83C295.14,-211.81 296.47,-202.2 297.7,-193.34"/>
<polygon fill="black" stroke="black" points="301.17,-193.8 299.08,-183.42 294.24,-192.84 301.17,-193.8"/>
</g>
<!-- 25 -->
<g id="node26" class="node">
<title>25</title>
<polygon fill="none" stroke="black" points="153,-109 66,-109 66,-73 153,-73 153,-109"/>
<text text-anchor="middle" x="109.5" y="-87.3" font-family="Times,serif" font-size="14.00">class = USA</text>
</g>
<!-- 24&#45;&gt;25 -->
<g id="edge25" class="edge">
<title>24&#45;&gt;25</title>
<path fill="none" stroke="black" d="M157.35,-145.83C149.6,-137.11 140.18,-126.52 131.76,-117.05"/>
<polygon fill="black" stroke="black" points="134.24,-114.57 124.98,-109.42 129.01,-119.22 134.24,-114.57"/>
</g>
<!-- 26 -->
<g id="node27" class="node">
<title>26</title>
<polygon fill="none" stroke="black" points="306,-110 171,-110 171,-72 306,-72 306,-110"/>
<text text-anchor="middle" x="238.5" y="-94.8" font-family="Times,serif" font-size="14.00">longitude &lt;= &#45;77.678</text>
<text text-anchor="middle" x="238.5" y="-79.8" font-family="Times,serif" font-size="14.00">class = Canada</text>
</g>
<!-- 24&#45;&gt;26 -->
<g id="edge26" class="edge">
<title>24&#45;&gt;26</title>
<path fill="none" stroke="black" d="M189.9,-145.83C197.54,-137.37 206.77,-127.15 215.12,-117.9"/>
<polygon fill="black" stroke="black" points="217.77,-120.18 221.88,-110.41 212.58,-115.49 217.77,-120.18"/>
</g>
<!-- 27 -->
<g id="node28" class="node">
<title>27</title>
<polygon fill="none" stroke="black" points="233,-36 132,-36 132,0 233,0 233,-36"/>
<text text-anchor="middle" x="182.5" y="-14.3" font-family="Times,serif" font-size="14.00">class = Canada</text>
</g>
<!-- 26&#45;&gt;27 -->
<g id="edge27" class="edge">
<title>26&#45;&gt;27</title>
<path fill="none" stroke="black" d="M224.08,-71.72C217.43,-63.29 209.43,-53.15 202.23,-44.02"/>
<polygon fill="black" stroke="black" points="204.85,-41.69 195.91,-36 199.36,-46.02 204.85,-41.69"/>
</g>
<!-- 28 -->
<g id="node29" class="node">
<title>28</title>
<polygon fill="none" stroke="black" points="338,-36 251,-36 251,0 338,0 338,-36"/>
<text text-anchor="middle" x="294.5" y="-14.3" font-family="Times,serif" font-size="14.00">class = USA</text>
</g>
<!-- 26&#45;&gt;28 -->
<g id="edge28" class="edge">
<title>26&#45;&gt;28</title>
<path fill="none" stroke="black" d="M252.92,-71.72C259.57,-63.29 267.57,-53.15 274.77,-44.02"/>
<polygon fill="black" stroke="black" points="277.64,-46.02 281.09,-36 272.15,-41.69 277.64,-46.02"/>
</g>
<!-- 31 -->
<g id="node32" class="node">
<title>31</title>
<polygon fill="none" stroke="black" points="457,-257 370,-257 370,-221 457,-221 457,-257"/>
<text text-anchor="middle" x="413.5" y="-235.3" font-family="Times,serif" font-size="14.00">class = USA</text>
</g>
<!-- 30&#45;&gt;31 -->
<g id="edge31" class="edge">
<title>30&#45;&gt;31</title>
<path fill="none" stroke="black" d="M436.68,-293.83C433.15,-285.63 428.91,-275.78 425.02,-266.76"/>
<polygon fill="black" stroke="black" points="428.17,-265.22 421,-257.42 421.74,-267.99 428.17,-265.22"/>
</g>
<!-- 32 -->
<g id="node33" class="node">
<title>32</title>
<polygon fill="none" stroke="black" points="610,-258 475,-258 475,-220 610,-220 610,-258"/>
<text text-anchor="middle" x="542.5" y="-242.8" font-family="Times,serif" font-size="14.00">longitude &lt;= &#45;75.503</text>
<text text-anchor="middle" x="542.5" y="-227.8" font-family="Times,serif" font-size="14.00">class = Canada</text>
</g>
<!-- 30&#45;&gt;32 -->
<g id="edge32" class="edge">
<title>30&#45;&gt;32</title>
<path fill="none" stroke="black" d="M469.23,-293.83C481.42,-284.88 496.28,-273.96 509.43,-264.3"/>
<polygon fill="black" stroke="black" points="511.79,-266.9 517.78,-258.16 507.65,-261.26 511.79,-266.9"/>
</g>
<!-- 33 -->
<g id="node34" class="node">
<title>33</title>
<polygon fill="none" stroke="black" points="490,-183 389,-183 389,-147 490,-147 490,-183"/>
<text text-anchor="middle" x="439.5" y="-161.3" font-family="Times,serif" font-size="14.00">class = Canada</text>
</g>
<!-- 32&#45;&gt;33 -->
<g id="edge33" class="edge">
<title>32&#45;&gt;33</title>
<path fill="none" stroke="black" d="M516.51,-219.83C503.18,-210.52 486.81,-199.07 472.59,-189.13"/>
<polygon fill="black" stroke="black" points="474.27,-186.03 464.06,-183.17 470.26,-191.77 474.27,-186.03"/>
</g>
<!-- 34 -->
<g id="node35" class="node">
<title>34</title>
<polygon fill="none" stroke="black" points="595,-183 508,-183 508,-147 595,-147 595,-183"/>
<text text-anchor="middle" x="551.5" y="-161.3" font-family="Times,serif" font-size="14.00">class = USA</text>
</g>
<!-- 32&#45;&gt;34 -->
<g id="edge34" class="edge">
<title>32&#45;&gt;34</title>
<path fill="none" stroke="black" d="M544.77,-219.83C545.76,-211.89 546.95,-202.41 548.05,-193.63"/>
<polygon fill="black" stroke="black" points="551.56,-193.77 549.32,-183.42 544.61,-192.91 551.56,-193.77"/>
</g>
<!-- 37 -->
<g id="node38" class="node">
<title>37</title>
<polygon fill="none" stroke="black" points="736.5,-480 616.5,-480 616.5,-442 736.5,-442 736.5,-480"/>
<text text-anchor="middle" x="676.5" y="-464.8" font-family="Times,serif" font-size="14.00">latitude &lt;= 45.195</text>
<text text-anchor="middle" x="676.5" y="-449.8" font-family="Times,serif" font-size="14.00">class = USA</text>
</g>
<!-- 36&#45;&gt;37 -->
<g id="edge37" class="edge">
<title>36&#45;&gt;37</title>
<path fill="none" stroke="black" d="M676.5,-515.83C676.5,-508.13 676.5,-498.97 676.5,-490.42"/>
<polygon fill="black" stroke="black" points="680,-490.41 676.5,-480.41 673,-490.41 680,-490.41"/>
</g>
<!-- 54 -->
<g id="node55" class="node">
<title>54</title>
<polygon fill="none" stroke="black" points="856,-479 755,-479 755,-443 856,-443 856,-479"/>
<text text-anchor="middle" x="805.5" y="-457.3" font-family="Times,serif" font-size="14.00">class = Canada</text>
</g>
<!-- 36&#45;&gt;54 -->
<g id="edge54" class="edge">
<title>36&#45;&gt;54</title>
<path fill="none" stroke="black" d="M709.05,-515.83C726.21,-506.25 747.41,-494.42 765.56,-484.29"/>
<polygon fill="black" stroke="black" points="767.71,-487.1 774.73,-479.17 764.3,-480.99 767.71,-487.1"/>
</g>
<!-- 38 -->
<g id="node39" class="node">
<title>38</title>
<polygon fill="none" stroke="black" points="720,-405 633,-405 633,-369 720,-369 720,-405"/>
<text text-anchor="middle" x="676.5" y="-383.3" font-family="Times,serif" font-size="14.00">class = USA</text>
</g>
<!-- 37&#45;&gt;38 -->
<g id="edge38" class="edge">
<title>37&#45;&gt;38</title>
<path fill="none" stroke="black" d="M676.5,-441.83C676.5,-433.89 676.5,-424.41 676.5,-415.63"/>
<polygon fill="black" stroke="black" points="680,-415.42 676.5,-405.42 673,-415.42 680,-415.42"/>
</g>
<!-- 39 -->
<g id="node40" class="node">
<title>39</title>
<polygon fill="none" stroke="black" points="868.5,-406 740.5,-406 740.5,-368 868.5,-368 868.5,-406"/>
<text text-anchor="middle" x="804.5" y="-390.8" font-family="Times,serif" font-size="14.00">longitude &lt;= &#45;67.93</text>
<text text-anchor="middle" x="804.5" y="-375.8" font-family="Times,serif" font-size="14.00">class = Canada</text>
</g>
<!-- 37&#45;&gt;39 -->
<g id="edge39" class="edge">
<title>37&#45;&gt;39</title>
<path fill="none" stroke="black" d="M708.8,-441.83C725.32,-432.54 745.62,-421.12 763.26,-411.2"/>
<polygon fill="black" stroke="black" points="765.21,-414.12 772.21,-406.16 761.78,-408.01 765.21,-414.12"/>
</g>
<!-- 40 -->
<g id="node41" class="node">
<title>40</title>
<polygon fill="none" stroke="black" points="872,-332 737,-332 737,-294 872,-294 872,-332"/>
<text text-anchor="middle" x="804.5" y="-316.8" font-family="Times,serif" font-size="14.00">longitude &lt;= &#45;68.325</text>
<text text-anchor="middle" x="804.5" y="-301.8" font-family="Times,serif" font-size="14.00">class = USA</text>
</g>
<!-- 39&#45;&gt;40 -->
<g id="edge40" class="edge">
<title>39&#45;&gt;40</title>
<path fill="none" stroke="black" d="M804.5,-367.83C804.5,-360.13 804.5,-350.97 804.5,-342.42"/>
<polygon fill="black" stroke="black" points="808,-342.41 804.5,-332.41 801,-342.41 808,-342.41"/>
</g>
<!-- 49 -->
<g id="node50" class="node">
<title>49</title>
<polygon fill="none" stroke="black" points="1013.5,-332 893.5,-332 893.5,-294 1013.5,-294 1013.5,-332"/>
<text text-anchor="middle" x="953.5" y="-316.8" font-family="Times,serif" font-size="14.00">latitude &lt;= 45.565</text>
<text text-anchor="middle" x="953.5" y="-301.8" font-family="Times,serif" font-size="14.00">class = Canada</text>
</g>
<!-- 39&#45;&gt;49 -->
<g id="edge49" class="edge">
<title>39&#45;&gt;49</title>
<path fill="none" stroke="black" d="M842.1,-367.83C861.85,-358.29 886.23,-346.51 907.14,-336.4"/>
<polygon fill="black" stroke="black" points="908.69,-339.54 916.17,-332.04 905.64,-333.24 908.69,-339.54"/>
</g>
<!-- 41 -->
<g id="node42" class="node">
<title>41</title>
<polygon fill="none" stroke="black" points="763,-258 628,-258 628,-220 763,-220 763,-258"/>
<text text-anchor="middle" x="695.5" y="-242.8" font-family="Times,serif" font-size="14.00">longitude &lt;= &#45;68.915</text>
<text text-anchor="middle" x="695.5" y="-227.8" font-family="Times,serif" font-size="14.00">class = Canada</text>
</g>
<!-- 40&#45;&gt;41 -->
<g id="edge41" class="edge">
<title>40&#45;&gt;41</title>
<path fill="none" stroke="black" d="M776.99,-293.83C763.18,-284.71 746.27,-273.54 731.45,-263.74"/>
<polygon fill="black" stroke="black" points="733.27,-260.75 723,-258.16 729.41,-266.59 733.27,-260.75"/>
</g>
<!-- 48 -->
<g id="node49" class="node">
<title>48</title>
<polygon fill="none" stroke="black" points="868,-257 781,-257 781,-221 868,-221 868,-257"/>
<text text-anchor="middle" x="824.5" y="-235.3" font-family="Times,serif" font-size="14.00">class = USA</text>
</g>
<!-- 40&#45;&gt;48 -->
<g id="edge48" class="edge">
<title>40&#45;&gt;48</title>
<path fill="none" stroke="black" d="M809.55,-293.83C811.78,-285.81 814.44,-276.2 816.91,-267.34"/>
<polygon fill="black" stroke="black" points="820.36,-267.99 819.66,-257.42 813.61,-266.12 820.36,-267.99"/>
</g>
<!-- 42 -->
<g id="node43" class="node">
<title>42</title>
<polygon fill="none" stroke="black" points="724,-183 637,-183 637,-147 724,-147 724,-183"/>
<text text-anchor="middle" x="680.5" y="-161.3" font-family="Times,serif" font-size="14.00">class = USA</text>
</g>
<!-- 41&#45;&gt;42 -->
<g id="edge42" class="edge">
<title>41&#45;&gt;42</title>
<path fill="none" stroke="black" d="M691.71,-219.83C690.04,-211.81 688.04,-202.2 686.2,-193.34"/>
<polygon fill="black" stroke="black" points="689.59,-192.49 684.13,-183.42 682.74,-193.92 689.59,-192.49"/>
</g>
<!-- 43 -->
<g id="node44" class="node">
<title>43</title>
<polygon fill="none" stroke="black" points="862.5,-184 742.5,-184 742.5,-146 862.5,-146 862.5,-184"/>
<text text-anchor="middle" x="802.5" y="-168.8" font-family="Times,serif" font-size="14.00">latitude &lt;= 47.256</text>
<text text-anchor="middle" x="802.5" y="-153.8" font-family="Times,serif" font-size="14.00">class = Canada</text>
</g>
<!-- 41&#45;&gt;43 -->
<g id="edge43" class="edge">
<title>41&#45;&gt;43</title>
<path fill="none" stroke="black" d="M722.5,-219.83C735.93,-210.79 752.35,-199.75 766.8,-190.02"/>
<polygon fill="black" stroke="black" points="769.17,-192.65 775.51,-184.16 765.26,-186.84 769.17,-192.65"/>
</g>
<!-- 44 -->
<g id="node45" class="node">
<title>44</title>
<polygon fill="none" stroke="black" points="785,-109 684,-109 684,-73 785,-73 785,-109"/>
<text text-anchor="middle" x="734.5" y="-87.3" font-family="Times,serif" font-size="14.00">class = Canada</text>
</g>
<!-- 43&#45;&gt;44 -->
<g id="edge44" class="edge">
<title>43&#45;&gt;44</title>
<path fill="none" stroke="black" d="M785.34,-145.83C777.02,-137.02 766.9,-126.31 757.89,-116.76"/>
<polygon fill="black" stroke="black" points="760.36,-114.28 750.95,-109.42 755.27,-119.09 760.36,-114.28"/>
</g>
<!-- 45 -->
<g id="node46" class="node">
<title>45</title>
<polygon fill="none" stroke="black" points="938,-110 803,-110 803,-72 938,-72 938,-110"/>
<text text-anchor="middle" x="870.5" y="-94.8" font-family="Times,serif" font-size="14.00">longitude &lt;= &#45;68.459</text>
<text text-anchor="middle" x="870.5" y="-79.8" font-family="Times,serif" font-size="14.00">class = Canada</text>
</g>
<!-- 43&#45;&gt;45 -->
<g id="edge45" class="edge">
<title>43&#45;&gt;45</title>
<path fill="none" stroke="black" d="M819.66,-145.83C827.65,-137.37 837.3,-127.15 846.04,-117.9"/>
<polygon fill="black" stroke="black" points="848.79,-120.09 853.11,-110.41 843.7,-115.28 848.79,-120.09"/>
</g>
<!-- 46 -->
<g id="node47" class="node">
<title>46</title>
<polygon fill="none" stroke="black" points="858,-36 771,-36 771,0 858,0 858,-36"/>
<text text-anchor="middle" x="814.5" y="-14.3" font-family="Times,serif" font-size="14.00">class = USA</text>
</g>
<!-- 45&#45;&gt;46 -->
<g id="edge46" class="edge">
<title>45&#45;&gt;46</title>
<path fill="none" stroke="black" d="M856.08,-71.72C849.43,-63.29 841.43,-53.15 834.23,-44.02"/>
<polygon fill="black" stroke="black" points="836.85,-41.69 827.91,-36 831.36,-46.02 836.85,-41.69"/>
</g>
<!-- 47 -->
<g id="node48" class="node">
<title>47</title>
<polygon fill="none" stroke="black" points="977,-36 876,-36 876,0 977,0 977,-36"/>
<text text-anchor="middle" x="926.5" y="-14.3" font-family="Times,serif" font-size="14.00">class = Canada</text>
</g>
<!-- 45&#45;&gt;47 -->
<g id="edge47" class="edge">
<title>45&#45;&gt;47</title>
<path fill="none" stroke="black" d="M884.92,-71.72C891.57,-63.29 899.57,-53.15 906.77,-44.02"/>
<polygon fill="black" stroke="black" points="909.64,-46.02 913.09,-36 904.15,-41.69 909.64,-46.02"/>
</g>
<!-- 50 -->
<g id="node51" class="node">
<title>50</title>
<polygon fill="none" stroke="black" points="1021,-258 886,-258 886,-220 1021,-220 1021,-258"/>
<text text-anchor="middle" x="953.5" y="-242.8" font-family="Times,serif" font-size="14.00">longitude &lt;= &#45;67.355</text>
<text text-anchor="middle" x="953.5" y="-227.8" font-family="Times,serif" font-size="14.00">class = Canada</text>
</g>
<!-- 49&#45;&gt;50 -->
<g id="edge50" class="edge">
<title>49&#45;&gt;50</title>
<path fill="none" stroke="black" d="M953.5,-293.83C953.5,-286.13 953.5,-276.97 953.5,-268.42"/>
<polygon fill="black" stroke="black" points="957,-268.41 953.5,-258.41 950,-268.41 957,-268.41"/>
</g>
<!-- 53 -->
<g id="node54" class="node">
<title>53</title>
<polygon fill="none" stroke="black" points="1140,-257 1039,-257 1039,-221 1140,-221 1140,-257"/>
<text text-anchor="middle" x="1089.5" y="-235.3" font-family="Times,serif" font-size="14.00">class = Canada</text>
</g>
<!-- 49&#45;&gt;53 -->
<g id="edge53" class="edge">
<title>49&#45;&gt;53</title>
<path fill="none" stroke="black" d="M987.82,-293.83C1006.16,-284.12 1028.87,-272.1 1048.18,-261.88"/>
<polygon fill="black" stroke="black" points="1049.86,-264.94 1057.07,-257.17 1046.59,-258.76 1049.86,-264.94"/>
</g>
<!-- 51 -->
<g id="node52" class="node">
<title>51</title>
<polygon fill="none" stroke="black" points="987,-183 900,-183 900,-147 987,-147 987,-183"/>
<text text-anchor="middle" x="943.5" y="-161.3" font-family="Times,serif" font-size="14.00">class = USA</text>
</g>
<!-- 50&#45;&gt;51 -->
<g id="edge51" class="edge">
<title>50&#45;&gt;51</title>
<path fill="none" stroke="black" d="M950.98,-219.83C949.86,-211.81 948.53,-202.2 947.3,-193.34"/>
<polygon fill="black" stroke="black" points="950.76,-192.84 945.92,-183.42 943.83,-193.8 950.76,-192.84"/>
</g>
<!-- 52 -->
<g id="node53" class="node">
<title>52</title>
<polygon fill="none" stroke="black" points="1106,-183 1005,-183 1005,-147 1106,-147 1106,-183"/>
<text text-anchor="middle" x="1055.5" y="-161.3" font-family="Times,serif" font-size="14.00">class = Canada</text>
</g>
<!-- 50&#45;&gt;52 -->
<g id="edge52" class="edge">
<title>50&#45;&gt;52</title>
<path fill="none" stroke="black" d="M979.24,-219.83C992.43,-210.52 1008.65,-199.07 1022.73,-189.13"/>
<polygon fill="black" stroke="black" points="1025.02,-191.8 1031.17,-183.17 1020.99,-186.08 1025.02,-191.8"/>
</g>
</g>
</svg>
