<?xml version="1.0" encoding="UTF-8" standalone="no"?>
<!DOCTYPE svg PUBLIC "-//W3C//DTD SVG 1.1//EN"
 "http://www.w3.org/Graphics/SVG/1.1/DTD/svg11.dtd">
<!-- Generated by graphviz version 2.48.0 (0)
 -->
<!-- Title: Tree Pages: 1 -->
<svg width="1139pt" height="932pt"
 viewBox="0.00 0.00 1139.00 932.00" xmlns="http://www.w3.org/2000/svg" xmlns:xlink="http://www.w3.org/1999/xlink">
<g id="graph0" class="graph" transform="scale(1 1) rotate(0) translate(4 928)">
<title>Tree</title>
<polygon fill="white" stroke="transparent" points="-4,4 -4,-928 1135,-928 1135,4 -4,4"/>
<!-- 0 -->
<g id="node1" class="node">
<title>0</title>
<polygon fill="none" stroke="black" points="287.5,-924 181.5,-924 181.5,-886 287.5,-886 287.5,-924"/>
<text text-anchor="middle" x="234.5" y="-908.8" font-family="Times,serif" font-size="14.00">latitude &lt;= 42.9</text>
<text text-anchor="middle" x="234.5" y="-893.8" font-family="Times,serif" font-size="14.00">class = Canada</text>
</g>
<!-- 1 -->
<g id="node2" class="node">
<title>1</title>
<polygon fill="none" stroke="black" points="220.5,-850 100.5,-850 100.5,-812 220.5,-812 220.5,-850"/>
<text text-anchor="middle" x="160.5" y="-834.8" font-family="Times,serif" font-size="14.00">latitude &lt;= 42.096</text>
<text text-anchor="middle" x="160.5" y="-819.8" font-family="Times,serif" font-size="14.00">class = USA</text>
</g>
<!-- 0&#45;&gt;1 -->
<g id="edge1" class="edge">
<title>0&#45;&gt;1</title>
<path fill="none" stroke="black" d="M215.83,-885.83C206.98,-877.22 196.25,-866.79 186.61,-857.4"/>
<polygon fill="black" stroke="black" points="188.78,-854.63 179.17,-850.16 183.89,-859.64 188.78,-854.63"/>
<text text-anchor="middle" x="179.51" y="-871.46" font-family="Times,serif" font-size="14.00">True</text>
</g>
<!-- 6 -->
<g id="node7" class="node">
<title>6</title>
<polygon fill="none" stroke="black" points="380.5,-850 238.5,-850 238.5,-812 380.5,-812 380.5,-850"/>
<text text-anchor="middle" x="309.5" y="-834.8" font-family="Times,serif" font-size="14.00">longitude &lt;= &#45;130.017</text>
<text text-anchor="middle" x="309.5" y="-819.8" font-family="Times,serif" font-size="14.00">class = Canada</text>
</g>
<!-- 0&#45;&gt;6 -->
<g id="edge6" class="edge">
<title>0&#45;&gt;6</title>
<path fill="none" stroke="black" d="M253.43,-885.83C262.49,-877.13 273.48,-866.58 283.33,-857.13"/>
<polygon fill="black" stroke="black" points="285.79,-859.61 290.58,-850.16 280.94,-854.56 285.79,-859.61"/>
<text text-anchor="middle" x="290.07" y="-871.46" font-family="Times,serif" font-size="14.00">False</text>
</g>
<!-- 2 -->
<g id="node3" class="node">
<title>2</title>
<polygon fill="none" stroke="black" points="87,-775 0,-775 0,-739 87,-739 87,-775"/>
<text text-anchor="middle" x="43.5" y="-753.3" font-family="Times,serif" font-size="14.00">class = USA</text>
</g>
<!-- 1&#45;&gt;2 -->
<g id="edge2" class="edge">
<title>1&#45;&gt;2</title>
<path fill="none" stroke="black" d="M130.98,-811.83C115.55,-802.34 96.54,-790.64 80.18,-780.57"/>
<polygon fill="black" stroke="black" points="81.75,-777.43 71.4,-775.17 78.09,-783.39 81.75,-777.43"/>
</g>
<!-- 3 -->
<g id="node4" class="node">
<title>3</title>
<polygon fill="none" stroke="black" points="225.5,-776 105.5,-776 105.5,-738 225.5,-738 225.5,-776"/>
<text text-anchor="middle" x="165.5" y="-760.8" font-family="Times,serif" font-size="14.00">latitude &lt;= 42.324</text>
<text text-anchor="middle" x="165.5" y="-745.8" font-family="Times,serif" font-size="14.00">class = USA</text>
</g>
<!-- 1&#45;&gt;3 -->
<g id="edge3" class="edge">
<title>1&#45;&gt;3</title>
<path fill="none" stroke="black" d="M161.76,-811.83C162.3,-804.13 162.93,-794.97 163.53,-786.42"/>
<polygon fill="black" stroke="black" points="167.02,-786.63 164.22,-776.41 160.04,-786.15 167.02,-786.63"/>
</g>
<!-- 4 -->
<g id="node5" class="node">
<title>4</title>
<polygon fill="none" stroke="black" points="209,-701 108,-701 108,-665 209,-665 209,-701"/>
<text text-anchor="middle" x="158.5" y="-679.3" font-family="Times,serif" font-size="14.00">class = Canada</text>
</g>
<!-- 3&#45;&gt;4 -->
<g id="edge4" class="edge">
<title>3&#45;&gt;4</title>
<path fill="none" stroke="black" d="M163.73,-737.83C162.96,-729.89 162.04,-720.41 161.19,-711.63"/>
<polygon fill="black" stroke="black" points="164.64,-711.03 160.19,-701.42 157.68,-711.71 164.64,-711.03"/>
</g>
<!-- 5 -->
<g id="node6" class="node">
<title>5</title>
<polygon fill="none" stroke="black" points="314,-701 227,-701 227,-665 314,-665 314,-701"/>
<text text-anchor="middle" x="270.5" y="-679.3" font-family="Times,serif" font-size="14.00">class = USA</text>
</g>
<!-- 3&#45;&gt;5 -->
<g id="edge5" class="edge">
<title>3&#45;&gt;5</title>
<path fill="none" stroke="black" d="M192,-737.83C205.71,-728.43 222.59,-716.86 237.17,-706.85"/>
<polygon fill="black" stroke="black" points="239.19,-709.71 245.46,-701.17 235.23,-703.94 239.19,-709.71"/>
</g>
<!-- 7 -->
<g id="node8" class="node">
<title>7</title>
<polygon fill="none" stroke="black" points="344,-775 257,-775 257,-739 344,-739 344,-775"/>
<text text-anchor="middle" x="300.5" y="-753.3" font-family="Times,serif" font-size="14.00">class = USA</text>
</g>
<!-- 6&#45;&gt;7 -->
<g id="edge7" class="edge">
<title>6&#45;&gt;7</title>
<path fill="none" stroke="black" d="M307.23,-811.83C306.24,-803.89 305.05,-794.41 303.95,-785.63"/>
<polygon fill="black" stroke="black" points="307.39,-784.91 302.68,-775.42 300.44,-785.77 307.39,-784.91"/>
</g>
<!-- 8 -->
<g id="node9" class="node">
<title>8</title>
<polygon fill="none" stroke="black" points="468.5,-776 362.5,-776 362.5,-738 468.5,-738 468.5,-776"/>
<text text-anchor="middle" x="415.5" y="-760.8" font-family="Times,serif" font-size="14.00">latitude &lt;= 49.0</text>
<text text-anchor="middle" x="415.5" y="-745.8" font-family="Times,serif" font-size="14.00">class = Canada</text>
</g>
<!-- 6&#45;&gt;8 -->
<g id="edge8" class="edge">
<title>6&#45;&gt;8</title>
<path fill="none" stroke="black" d="M336.25,-811.83C349.56,-802.79 365.82,-791.75 380.14,-782.02"/>
<polygon fill="black" stroke="black" points="382.45,-784.68 388.76,-776.16 378.52,-778.89 382.45,-784.68"/>
</g>
<!-- 9 -->
<g id="node10" class="node">
<title>9</title>
<polygon fill="none" stroke="black" points="478,-702 343,-702 343,-664 478,-664 478,-702"/>
<text text-anchor="middle" x="410.5" y="-686.8" font-family="Times,serif" font-size="14.00">longitude &lt;= &#45;94.582</text>
<text text-anchor="middle" x="410.5" y="-671.8" font-family="Times,serif" font-size="14.00">class = Canada</text>
</g>
<!-- 8&#45;&gt;9 -->
<g id="edge9" class="edge">
<title>8&#45;&gt;9</title>
<path fill="none" stroke="black" d="M414.24,-737.83C413.7,-730.13 413.07,-720.97 412.47,-712.42"/>
<polygon fill="black" stroke="black" points="415.96,-712.15 411.78,-702.41 408.98,-712.63 415.96,-712.15"/>
</g>
<!-- 56 -->
<g id="node57" class="node">
<title>56</title>
<polygon fill="none" stroke="black" points="597,-701 496,-701 496,-665 597,-665 597,-701"/>
<text text-anchor="middle" x="546.5" y="-679.3" font-family="Times,serif" font-size="14.00">class = Canada</text>
</g>
<!-- 8&#45;&gt;56 -->
<g id="edge56" class="edge">
<title>8&#45;&gt;56</title>
<path fill="none" stroke="black" d="M448.56,-737.83C466.14,-728.17 487.91,-716.2 506.45,-706.01"/>
<polygon fill="black" stroke="black" points="508.18,-709.06 515.26,-701.17 504.81,-702.92 508.18,-709.06"/>
</g>
<!-- 10 -->
<g id="node11" class="node">
<title>10</title>
<polygon fill="none" stroke="black" points="403.5,-628 261.5,-628 261.5,-590 403.5,-590 403.5,-628"/>
<text text-anchor="middle" x="332.5" y="-612.8" font-family="Times,serif" font-size="14.00">longitude &lt;= &#45;123.222</text>
<text text-anchor="middle" x="332.5" y="-597.8" font-family="Times,serif" font-size="14.00">class = USA</text>
</g>
<!-- 9&#45;&gt;10 -->
<g id="edge10" class="edge">
<title>9&#45;&gt;10</title>
<path fill="none" stroke="black" d="M390.82,-663.83C381.39,-655.13 369.96,-644.58 359.72,-635.13"/>
<polygon fill="black" stroke="black" points="361.9,-632.37 352.18,-628.16 357.15,-637.52 361.9,-632.37"/>
</g>
<!-- 13 -->
<g id="node14" class="node">
<title>13</title>
<polygon fill="none" stroke="black" points="557,-628 422,-628 422,-590 557,-590 557,-628"/>
<text text-anchor="middle" x="489.5" y="-612.8" font-family="Times,serif" font-size="14.00">longitude &lt;= &#45;69.246</text>
<text text-anchor="middle" x="489.5" y="-597.8" font-family="Times,serif" font-size="14.00">class = Canada</text>
</g>
<!-- 9&#45;&gt;13 -->
<g id="edge13" class="edge">
<title>9&#45;&gt;13</title>
<path fill="none" stroke="black" d="M430.44,-663.83C439.98,-655.13 451.56,-644.58 461.93,-635.13"/>
<polygon fill="black" stroke="black" points="464.54,-637.49 469.57,-628.16 459.82,-632.31 464.54,-637.49"/>
</g>
<!-- 11 -->
<g id="node12" class="node">
<title>11</title>
<polygon fill="none" stroke="black" points="280,-553 179,-553 179,-517 280,-517 280,-553"/>
<text text-anchor="middle" x="229.5" y="-531.3" font-family="Times,serif" font-size="14.00">class = Canada</text>
</g>
<!-- 10&#45;&gt;11 -->
<g id="edge11" class="edge">
<title>10&#45;&gt;11</title>
<path fill="none" stroke="black" d="M306.51,-589.83C293.18,-580.52 276.81,-569.07 262.59,-559.13"/>
<polygon fill="black" stroke="black" points="264.27,-556.03 254.06,-553.17 260.26,-561.77 264.27,-556.03"/>
</g>
<!-- 12 -->
<g id="node13" class="node">
<title>12</title>
<polygon fill="none" stroke="black" points="385,-553 298,-553 298,-517 385,-517 385,-553"/>
<text text-anchor="middle" x="341.5" y="-531.3" font-family="Times,serif" font-size="14.00">class = USA</text>
</g>
<!-- 10&#45;&gt;12 -->
<g id="edge12" class="edge">
<title>10&#45;&gt;12</title>
<path fill="none" stroke="black" d="M334.77,-589.83C335.76,-581.89 336.95,-572.41 338.05,-563.63"/>
<polygon fill="black" stroke="black" points="341.56,-563.77 339.32,-553.42 334.61,-562.91 341.56,-563.77"/>
</g>
<!-- 14 -->
<g id="node15" class="node">
<title>14</title>
<polygon fill="none" stroke="black" points="540.5,-554 420.5,-554 420.5,-516 540.5,-516 540.5,-554"/>
<text text-anchor="middle" x="480.5" y="-538.8" font-family="Times,serif" font-size="14.00">latitude &lt;= 43.093</text>
<text text-anchor="middle" x="480.5" y="-523.8" font-family="Times,serif" font-size="14.00">class = Canada</text>
</g>
<!-- 13&#45;&gt;14 -->
<g id="edge14" class="edge">
<title>13&#45;&gt;14</title>
<path fill="none" stroke="black" d="M487.23,-589.83C486.27,-582.13 485.12,-572.97 484.05,-564.42"/>
<polygon fill="black" stroke="black" points="487.52,-563.9 482.8,-554.41 480.57,-564.77 487.52,-563.9"/>
</g>
<!-- 37 -->
<g id="node38" class="node">
<title>37</title>
<polygon fill="none" stroke="black" points="737,-554 602,-554 602,-516 737,-516 737,-554"/>
<text text-anchor="middle" x="669.5" y="-538.8" font-family="Times,serif" font-size="14.00">longitude &lt;= &#45;66.952</text>
<text text-anchor="middle" x="669.5" y="-523.8" font-family="Times,serif" font-size="14.00">class = Canada</text>
</g>
<!-- 13&#45;&gt;37 -->
<g id="edge37" class="edge">
<title>13&#45;&gt;37</title>
<path fill="none" stroke="black" d="M534.92,-589.83C559.21,-580.12 589.29,-568.08 614.85,-557.86"/>
<polygon fill="black" stroke="black" points="616.42,-561 624.41,-554.04 613.82,-554.5 616.42,-561"/>
</g>
<!-- 15 -->
<g id="node16" class="node">
<title>15</title>
<polygon fill="none" stroke="black" points="359.5,-480 239.5,-480 239.5,-442 359.5,-442 359.5,-480"/>
<text text-anchor="middle" x="299.5" y="-464.8" font-family="Times,serif" font-size="14.00">latitude &lt;= 43.014</text>
<text text-anchor="middle" x="299.5" y="-449.8" font-family="Times,serif" font-size="14.00">class = Canada</text>
</g>
<!-- 14&#45;&gt;15 -->
<g id="edge15" class="edge">
<title>14&#45;&gt;15</title>
<path fill="none" stroke="black" d="M434.83,-515.83C410.4,-506.12 380.15,-494.08 354.45,-483.86"/>
<polygon fill="black" stroke="black" points="355.43,-480.48 344.85,-480.04 352.84,-486.99 355.43,-480.48"/>
</g>
<!-- 20 -->
<g id="node21" class="node">
<title>20</title>
<polygon fill="none" stroke="black" points="540.5,-480 420.5,-480 420.5,-442 540.5,-442 540.5,-480"/>
<text text-anchor="middle" x="480.5" y="-464.8" font-family="Times,serif" font-size="14.00">latitude &lt;= 44.992</text>
<text text-anchor="middle" x="480.5" y="-449.8" font-family="Times,serif" font-size="14.00">class = Canada</text>
</g>
<!-- 14&#45;&gt;20 -->
<g id="edge20" class="edge">
<title>14&#45;&gt;20</title>
<path fill="none" stroke="black" d="M480.5,-515.83C480.5,-508.13 480.5,-498.97 480.5,-490.42"/>
<polygon fill="black" stroke="black" points="484,-490.41 480.5,-480.41 477,-490.41 484,-490.41"/>
</g>
<!-- 16 -->
<g id="node17" class="node">
<title>16</title>
<polygon fill="none" stroke="black" points="228,-406 93,-406 93,-368 228,-368 228,-406"/>
<text text-anchor="middle" x="160.5" y="-390.8" font-family="Times,serif" font-size="14.00">longitude &lt;= &#45;81.845</text>
<text text-anchor="middle" x="160.5" y="-375.8" font-family="Times,serif" font-size="14.00">class = Canada</text>
</g>
<!-- 15&#45;&gt;16 -->
<g id="edge16" class="edge">
<title>15&#45;&gt;16</title>
<path fill="none" stroke="black" d="M264.42,-441.83C246.23,-432.41 223.83,-420.81 204.49,-410.79"/>
<polygon fill="black" stroke="black" points="206.05,-407.65 195.56,-406.16 202.83,-413.87 206.05,-407.65"/>
</g>
<!-- 19 -->
<g id="node20" class="node">
<title>19</title>
<polygon fill="none" stroke="black" points="343,-405 256,-405 256,-369 343,-369 343,-405"/>
<text text-anchor="middle" x="299.5" y="-383.3" font-family="Times,serif" font-size="14.00">class = USA</text>
</g>
<!-- 15&#45;&gt;19 -->
<g id="edge19" class="edge">
<title>15&#45;&gt;19</title>
<path fill="none" stroke="black" d="M299.5,-441.83C299.5,-433.89 299.5,-424.41 299.5,-415.63"/>
<polygon fill="black" stroke="black" points="303,-415.42 299.5,-405.42 296,-415.42 303,-415.42"/>
</g>
<!-- 17 -->
<g id="node18" class="node">
<title>17</title>
<polygon fill="none" stroke="black" points="92,-331 5,-331 5,-295 92,-295 92,-331"/>
<text text-anchor="middle" x="48.5" y="-309.3" font-family="Times,serif" font-size="14.00">class = USA</text>
</g>
<!-- 16&#45;&gt;17 -->
<g id="edge17" class="edge">
<title>16&#45;&gt;17</title>
<path fill="none" stroke="black" d="M132.24,-367.83C117.61,-358.43 99.61,-346.86 84.05,-336.85"/>
<polygon fill="black" stroke="black" points="85.52,-333.63 75.21,-331.17 81.73,-339.52 85.52,-333.63"/>
</g>
<!-- 18 -->
<g id="node19" class="node">
<title>18</title>
<polygon fill="none" stroke="black" points="211,-331 110,-331 110,-295 211,-295 211,-331"/>
<text text-anchor="middle" x="160.5" y="-309.3" font-family="Times,serif" font-size="14.00">class = Canada</text>
</g>
<!-- 16&#45;&gt;18 -->
<g id="edge18" class="edge">
<title>16&#45;&gt;18</title>
<path fill="none" stroke="black" d="M160.5,-367.83C160.5,-359.89 160.5,-350.41 160.5,-341.63"/>
<polygon fill="black" stroke="black" points="164,-341.42 160.5,-331.42 157,-341.42 164,-341.42"/>
</g>
<!-- 21 -->
<g id="node22" class="node">
<title>21</title>
<polygon fill="none" stroke="black" points="486.5,-406 366.5,-406 366.5,-368 486.5,-368 486.5,-406"/>
<text text-anchor="middle" x="426.5" y="-390.8" font-family="Times,serif" font-size="14.00">latitude &lt;= 44.542</text>
<text text-anchor="middle" x="426.5" y="-375.8" font-family="Times,serif" font-size="14.00">class = Canada</text>
</g>
<!-- 20&#45;&gt;21 -->
<g id="edge21" class="edge">
<title>20&#45;&gt;21</title>
<path fill="none" stroke="black" d="M466.87,-441.83C460.65,-433.54 453.17,-423.56 446.34,-414.45"/>
<polygon fill="black" stroke="black" points="449.11,-412.31 440.31,-406.41 443.51,-416.51 449.11,-412.31"/>
</g>
<!-- 36 -->
<g id="node37" class="node">
<title>36</title>
<polygon fill="none" stroke="black" points="606,-405 505,-405 505,-369 606,-369 606,-405"/>
<text text-anchor="middle" x="555.5" y="-383.3" font-family="Times,serif" font-size="14.00">class = Canada</text>
</g>
<!-- 20&#45;&gt;36 -->
<g id="edge36" class="edge">
<title>20&#45;&gt;36</title>
<path fill="none" stroke="black" d="M499.43,-441.83C508.76,-432.87 520.15,-421.93 530.23,-412.26"/>
<polygon fill="black" stroke="black" points="532.82,-414.62 537.61,-405.17 527.98,-409.57 532.82,-414.62"/>
</g>
<!-- 22 -->
<g id="node23" class="node">
<title>22</title>
<polygon fill="none" stroke="black" points="364,-332 229,-332 229,-294 364,-294 364,-332"/>
<text text-anchor="middle" x="296.5" y="-316.8" font-family="Times,serif" font-size="14.00">longitude &lt;= &#45;79.076</text>
<text text-anchor="middle" x="296.5" y="-301.8" font-family="Times,serif" font-size="14.00">class = Canada</text>
</g>
<!-- 21&#45;&gt;22 -->
<g id="edge22" class="edge">
<title>21&#45;&gt;22</title>
<path fill="none" stroke="black" d="M393.7,-367.83C376.91,-358.54 356.3,-347.12 338.38,-337.2"/>
<polygon fill="black" stroke="black" points="339.74,-333.95 329.29,-332.16 336.35,-340.07 339.74,-333.95"/>
</g>
<!-- 31 -->
<g id="node32" class="node">
<title>31</title>
<polygon fill="none" stroke="black" points="502.5,-332 382.5,-332 382.5,-294 502.5,-294 502.5,-332"/>
<text text-anchor="middle" x="442.5" y="-316.8" font-family="Times,serif" font-size="14.00">latitude &lt;= 44.706</text>
<text text-anchor="middle" x="442.5" y="-301.8" font-family="Times,serif" font-size="14.00">class = USA</text>
</g>
<!-- 21&#45;&gt;31 -->
<g id="edge31" class="edge">
<title>21&#45;&gt;31</title>
<path fill="none" stroke="black" d="M430.54,-367.83C432.25,-360.13 434.28,-350.97 436.19,-342.42"/>
<polygon fill="black" stroke="black" points="439.66,-342.93 438.41,-332.41 432.82,-341.42 439.66,-342.93"/>
</g>
<!-- 23 -->
<g id="node24" class="node">
<title>23</title>
<polygon fill="none" stroke="black" points="218,-257 117,-257 117,-221 218,-221 218,-257"/>
<text text-anchor="middle" x="167.5" y="-235.3" font-family="Times,serif" font-size="14.00">class = Canada</text>
</g>
<!-- 22&#45;&gt;23 -->
<g id="edge23" class="edge">
<title>22&#45;&gt;23</title>
<path fill="none" stroke="black" d="M263.95,-293.83C246.79,-284.25 225.59,-272.42 207.44,-262.29"/>
<polygon fill="black" stroke="black" points="208.7,-258.99 198.27,-257.17 205.29,-265.1 208.7,-258.99"/>
</g>
<!-- 24 -->
<g id="node25" class="node">
<title>24</title>
<polygon fill="none" stroke="black" points="356.5,-258 236.5,-258 236.5,-220 356.5,-220 356.5,-258"/>
<text text-anchor="middle" x="296.5" y="-242.8" font-family="Times,serif" font-size="14.00">latitude &lt;= 44.168</text>
<text text-anchor="middle" x="296.5" y="-227.8" font-family="Times,serif" font-size="14.00">class = Canada</text>
</g>
<!-- 22&#45;&gt;24 -->
<g id="edge24" class="edge">
<title>22&#45;&gt;24</title>
<path fill="none" stroke="black" d="M296.5,-293.83C296.5,-286.13 296.5,-276.97 296.5,-268.42"/>
<polygon fill="black" stroke="black" points="300,-268.41 296.5,-258.41 293,-268.41 300,-268.41"/>
</g>
<!-- 25 -->
<g id="node26" class="node">
<title>25</title>
<polygon fill="none" stroke="black" points="233.5,-184 105.5,-184 105.5,-146 233.5,-146 233.5,-184"/>
<text text-anchor="middle" x="169.5" y="-168.8" font-family="Times,serif" font-size="14.00">longitude &lt;= &#45;79.03</text>
<text text-anchor="middle" x="169.5" y="-153.8" font-family="Times,serif" font-size="14.00">class = USA</text>
</g>
<!-- 24&#45;&gt;25 -->
<g id="edge25" class="edge">
<title>24&#45;&gt;25</title>
<path fill="none" stroke="black" d="M264.45,-219.83C248.06,-210.54 227.92,-199.12 210.42,-189.2"/>
<polygon fill="black" stroke="black" points="211.96,-186.05 201.54,-184.16 208.51,-192.14 211.96,-186.05"/>
</g>
<!-- 30 -->
<g id="node31" class="node">
<title>30</title>
<polygon fill="none" stroke="black" points="353,-183 252,-183 252,-147 353,-147 353,-183"/>
<text text-anchor="middle" x="302.5" y="-161.3" font-family="Times,serif" font-size="14.00">class = Canada</text>
</g>
<!-- 24&#45;&gt;30 -->
<g id="edge30" class="edge">
<title>24&#45;&gt;30</title>
<path fill="none" stroke="black" d="M298.01,-219.83C298.68,-211.89 299.47,-202.41 300.2,-193.63"/>
<polygon fill="black" stroke="black" points="303.71,-193.67 301.05,-183.42 296.73,-193.09 303.71,-193.67"/>
</g>
<!-- 26 -->
<g id="node27" class="node">
<title>26</title>
<polygon fill="none" stroke="black" points="149,-109 62,-109 62,-73 149,-73 149,-109"/>
<text text-anchor="middle" x="105.5" y="-87.3" font-family="Times,serif" font-size="14.00">class = USA</text>
</g>
<!-- 25&#45;&gt;26 -->
<g id="edge26" class="edge">
<title>25&#45;&gt;26</title>
<path fill="none" stroke="black" d="M153.35,-145.83C145.6,-137.11 136.18,-126.52 127.76,-117.05"/>
<polygon fill="black" stroke="black" points="130.24,-114.57 120.98,-109.42 125.01,-119.22 130.24,-114.57"/>
</g>
<!-- 27 -->
<g id="node28" class="node">
<title>27</title>
<polygon fill="none" stroke="black" points="302,-110 167,-110 167,-72 302,-72 302,-110"/>
<text text-anchor="middle" x="234.5" y="-94.8" font-family="Times,serif" font-size="14.00">longitude &lt;= &#45;77.678</text>
<text text-anchor="middle" x="234.5" y="-79.8" font-family="Times,serif" font-size="14.00">class = Canada</text>
</g>
<!-- 25&#45;&gt;27 -->
<g id="edge27" class="edge">
<title>25&#45;&gt;27</title>
<path fill="none" stroke="black" d="M185.9,-145.83C193.54,-137.37 202.77,-127.15 211.12,-117.9"/>
<polygon fill="black" stroke="black" points="213.77,-120.18 217.88,-110.41 208.58,-115.49 213.77,-120.18"/>
</g>
<!-- 28 -->
<g id="node29" class="node">
<title>28</title>
<polygon fill="none" stroke="black" points="229,-36 128,-36 128,0 229,0 229,-36"/>
<text text-anchor="middle" x="178.5" y="-14.3" font-family="Times,serif" font-size="14.00">class = Canada</text>
</g>
<!-- 27&#45;&gt;28 -->
<g id="edge28" class="edge">
<title>27&#45;&gt;28</title>
<path fill="none" stroke="black" d="M220.08,-71.72C213.43,-63.29 205.43,-53.15 198.23,-44.02"/>
<polygon fill="black" stroke="black" points="200.85,-41.69 191.91,-36 195.36,-46.02 200.85,-41.69"/>
</g>
<!-- 29 -->
<g id="node30" class="node">
<title>29</title>
<polygon fill="none" stroke="black" points="334,-36 247,-36 247,0 334,0 334,-36"/>
<text text-anchor="middle" x="290.5" y="-14.3" font-family="Times,serif" font-size="14.00">class = USA</text>
</g>
<!-- 27&#45;&gt;29 -->
<g id="edge29" class="edge">
<title>27&#45;&gt;29</title>
<path fill="none" stroke="black" d="M248.92,-71.72C255.57,-63.29 263.57,-53.15 270.77,-44.02"/>
<polygon fill="black" stroke="black" points="273.64,-46.02 277.09,-36 268.15,-41.69 273.64,-46.02"/>
</g>
<!-- 32 -->
<g id="node33" class="node">
<title>32</title>
<polygon fill="none" stroke="black" points="462,-257 375,-257 375,-221 462,-221 462,-257"/>
<text text-anchor="middle" x="418.5" y="-235.3" font-family="Times,serif" font-size="14.00">class = USA</text>
</g>
<!-- 31&#45;&gt;32 -->
<g id="edge32" class="edge">
<title>31&#45;&gt;32</title>
<path fill="none" stroke="black" d="M436.44,-293.83C433.74,-285.72 430.5,-275.99 427.52,-267.05"/>
<polygon fill="black" stroke="black" points="430.79,-265.8 424.31,-257.42 424.15,-268.01 430.79,-265.8"/>
</g>
<!-- 33 -->
<g id="node34" class="node">
<title>33</title>
<polygon fill="none" stroke="black" points="600.5,-258 480.5,-258 480.5,-220 600.5,-220 600.5,-258"/>
<text text-anchor="middle" x="540.5" y="-242.8" font-family="Times,serif" font-size="14.00">latitude &lt;= 44.848</text>
<text text-anchor="middle" x="540.5" y="-227.8" font-family="Times,serif" font-size="14.00">class = Canada</text>
</g>
<!-- 31&#45;&gt;33 -->
<g id="edge33" class="edge">
<title>31&#45;&gt;33</title>
<path fill="none" stroke="black" d="M467.23,-293.83C479.42,-284.88 494.28,-273.96 507.43,-264.3"/>
<polygon fill="black" stroke="black" points="509.79,-266.9 515.78,-258.16 505.65,-261.26 509.79,-266.9"/>
</g>
<!-- 34 -->
<g id="node35" class="node">
<title>34</title>
<polygon fill="none" stroke="black" points="488,-183 387,-183 387,-147 488,-147 488,-183"/>
<text text-anchor="middle" x="437.5" y="-161.3" font-family="Times,serif" font-size="14.00">class = Canada</text>
</g>
<!-- 33&#45;&gt;34 -->
<g id="edge34" class="edge">
<title>33&#45;&gt;34</title>
<path fill="none" stroke="black" d="M514.51,-219.83C501.18,-210.52 484.81,-199.07 470.59,-189.13"/>
<polygon fill="black" stroke="black" points="472.27,-186.03 462.06,-183.17 468.26,-191.77 472.27,-186.03"/>
</g>
<!-- 35 -->
<g id="node36" class="node">
<title>35</title>
<polygon fill="none" stroke="black" points="593,-183 506,-183 506,-147 593,-147 593,-183"/>
<text text-anchor="middle" x="549.5" y="-161.3" font-family="Times,serif" font-size="14.00">class = USA</text>
</g>
<!-- 33&#45;&gt;35 -->
<g id="edge35" class="edge">
<title>33&#45;&gt;35</title>
<path fill="none" stroke="black" d="M542.77,-219.83C543.76,-211.89 544.95,-202.41 546.05,-193.63"/>
<polygon fill="black" stroke="black" points="549.56,-193.77 547.32,-183.42 542.61,-192.91 549.56,-193.77"/>
</g>
<!-- 38 -->
<g id="node39" class="node">
<title>38</title>
<polygon fill="none" stroke="black" points="729.5,-480 609.5,-480 609.5,-442 729.5,-442 729.5,-480"/>
<text text-anchor="middle" x="669.5" y="-464.8" font-family="Times,serif" font-size="14.00">latitude &lt;= 45.195</text>
<text text-anchor="middle" x="669.5" y="-449.8" font-family="Times,serif" font-size="14.00">class = USA</text>
</g>
<!-- 37&#45;&gt;38 -->
<g id="edge38" class="edge">
<title>37&#45;&gt;38</title>
<path fill="none" stroke="black" d="M669.5,-515.83C669.5,-508.13 669.5,-498.97 669.5,-490.42"/>
<polygon fill="black" stroke="black" points="673,-490.41 669.5,-480.41 666,-490.41 673,-490.41"/>
</g>
<!-- 55 -->
<g id="node56" class="node">
<title>55</title>
<polygon fill="none" stroke="black" points="849,-479 748,-479 748,-443 849,-443 849,-479"/>
<text text-anchor="middle" x="798.5" y="-457.3" font-family="Times,serif" font-size="14.00">class = Canada</text>
</g>
<!-- 37&#45;&gt;55 -->
<g id="edge55" class="edge">
<title>37&#45;&gt;55</title>
<path fill="none" stroke="black" d="M702.05,-515.83C719.21,-506.25 740.41,-494.42 758.56,-484.29"/>
<polygon fill="black" stroke="black" points="760.71,-487.1 767.73,-479.17 757.3,-480.99 760.71,-487.1"/>
</g>
<!-- 39 -->
<g id="node40" class="node">
<title>39</title>
<polygon fill="none" stroke="black" points="713,-405 626,-405 626,-369 713,-369 713,-405"/>
<text text-anchor="middle" x="669.5" y="-383.3" font-family="Times,serif" font-size="14.00">class = USA</text>
</g>
<!-- 38&#45;&gt;39 -->
<g id="edge39" class="edge">
<title>38&#45;&gt;39</title>
<path fill="none" stroke="black" d="M669.5,-441.83C669.5,-433.89 669.5,-424.41 669.5,-415.63"/>
<polygon fill="black" stroke="black" points="673,-415.42 669.5,-405.42 666,-415.42 673,-415.42"/>
</g>
<!-- 40 -->
<g id="node41" class="node">
<title>40</title>
<polygon fill="none" stroke="black" points="860.5,-406 732.5,-406 732.5,-368 860.5,-368 860.5,-406"/>
<text text-anchor="middle" x="796.5" y="-390.8" font-family="Times,serif" font-size="14.00">longitude &lt;= &#45;67.93</text>
<text text-anchor="middle" x="796.5" y="-375.8" font-family="Times,serif" font-size="14.00">class = Canada</text>
</g>
<!-- 38&#45;&gt;40 -->
<g id="edge40" class="edge">
<title>38&#45;&gt;40</title>
<path fill="none" stroke="black" d="M701.55,-441.83C717.94,-432.54 738.08,-421.12 755.58,-411.2"/>
<polygon fill="black" stroke="black" points="757.49,-414.14 764.46,-406.16 754.04,-408.05 757.49,-414.14"/>
</g>
<!-- 41 -->
<g id="node42" class="node">
<title>41</title>
<polygon fill="none" stroke="black" points="864,-332 729,-332 729,-294 864,-294 864,-332"/>
<text text-anchor="middle" x="796.5" y="-316.8" font-family="Times,serif" font-size="14.00">longitude &lt;= &#45;68.325</text>
<text text-anchor="middle" x="796.5" y="-301.8" font-family="Times,serif" font-size="14.00">class = USA</text>
</g>
<!-- 40&#45;&gt;41 -->
<g id="edge41" class="edge">
<title>40&#45;&gt;41</title>
<path fill="none" stroke="black" d="M796.5,-367.83C796.5,-360.13 796.5,-350.97 796.5,-342.42"/>
<polygon fill="black" stroke="black" points="800,-342.41 796.5,-332.41 793,-342.41 800,-342.41"/>
</g>
<!-- 50 -->
<g id="node51" class="node">
<title>50</title>
<polygon fill="none" stroke="black" points="1004.5,-332 884.5,-332 884.5,-294 1004.5,-294 1004.5,-332"/>
<text text-anchor="middle" x="944.5" y="-316.8" font-family="Times,serif" font-size="14.00">latitude &lt;= 45.565</text>
<text text-anchor="middle" x="944.5" y="-301.8" font-family="Times,serif" font-size="14.00">class = Canada</text>
</g>
<!-- 40&#45;&gt;50 -->
<g id="edge50" class="edge">
<title>40&#45;&gt;50</title>
<path fill="none" stroke="black" d="M833.85,-367.83C853.38,-358.33 877.46,-346.61 898.17,-336.54"/>
<polygon fill="black" stroke="black" points="899.96,-339.56 907.42,-332.04 896.9,-333.27 899.96,-339.56"/>
</g>
<!-- 42 -->
<g id="node43" class="node">
<title>42</title>
<polygon fill="none" stroke="black" points="754,-258 619,-258 619,-220 754,-220 754,-258"/>
<text text-anchor="middle" x="686.5" y="-242.8" font-family="Times,serif" font-size="14.00">longitude &lt;= &#45;68.915</text>
<text text-anchor="middle" x="686.5" y="-227.8" font-family="Times,serif" font-size="14.00">class = Canada</text>
</g>
<!-- 41&#45;&gt;42 -->
<g id="edge42" class="edge">
<title>41&#45;&gt;42</title>
<path fill="none" stroke="black" d="M768.74,-293.83C754.8,-284.71 737.74,-273.54 722.78,-263.74"/>
<polygon fill="black" stroke="black" points="724.53,-260.71 714.25,-258.16 720.7,-266.57 724.53,-260.71"/>
</g>
<!-- 49 -->
<g id="node50" class="node">
<title>49</title>
<polygon fill="none" stroke="black" points="859,-257 772,-257 772,-221 859,-221 859,-257"/>
<text text-anchor="middle" x="815.5" y="-235.3" font-family="Times,serif" font-size="14.00">class = USA</text>
</g>
<!-- 41&#45;&gt;49 -->
<g id="edge49" class="edge">
<title>41&#45;&gt;49</title>
<path fill="none" stroke="black" d="M801.29,-293.83C803.41,-285.81 805.95,-276.2 808.29,-267.34"/>
<polygon fill="black" stroke="black" points="811.74,-267.98 810.9,-257.42 804.97,-266.19 811.74,-267.98"/>
</g>
<!-- 43 -->
<g id="node44" class="node">
<title>43</title>
<polygon fill="none" stroke="black" points="718,-183 631,-183 631,-147 718,-147 718,-183"/>
<text text-anchor="middle" x="674.5" y="-161.3" font-family="Times,serif" font-size="14.00">class = USA</text>
</g>
<!-- 42&#45;&gt;43 -->
<g id="edge43" class="edge">
<title>42&#45;&gt;43</title>
<path fill="none" stroke="black" d="M683.47,-219.83C682.13,-211.81 680.53,-202.2 679.06,-193.34"/>
<polygon fill="black" stroke="black" points="682.5,-192.71 677.4,-183.42 675.59,-193.86 682.5,-192.71"/>
</g>
<!-- 44 -->
<g id="node45" class="node">
<title>44</title>
<polygon fill="none" stroke="black" points="856.5,-184 736.5,-184 736.5,-146 856.5,-146 856.5,-184"/>
<text text-anchor="middle" x="796.5" y="-168.8" font-family="Times,serif" font-size="14.00">latitude &lt;= 47.256</text>
<text text-anchor="middle" x="796.5" y="-153.8" font-family="Times,serif" font-size="14.00">class = Canada</text>
</g>
<!-- 42&#45;&gt;44 -->
<g id="edge44" class="edge">
<title>42&#45;&gt;44</title>
<path fill="none" stroke="black" d="M714.26,-219.83C728.2,-210.71 745.26,-199.54 760.22,-189.74"/>
<polygon fill="black" stroke="black" points="762.3,-192.57 768.75,-184.16 758.47,-186.71 762.3,-192.57"/>
</g>
<!-- 45 -->
<g id="node46" class="node">
<title>45</title>
<polygon fill="none" stroke="black" points="779,-109 678,-109 678,-73 779,-73 779,-109"/>
<text text-anchor="middle" x="728.5" y="-87.3" font-family="Times,serif" font-size="14.00">class = Canada</text>
</g>
<!-- 44&#45;&gt;45 -->
<g id="edge45" class="edge">
<title>44&#45;&gt;45</title>
<path fill="none" stroke="black" d="M779.34,-145.83C771.02,-137.02 760.9,-126.31 751.89,-116.76"/>
<polygon fill="black" stroke="black" points="754.36,-114.28 744.95,-109.42 749.27,-119.09 754.36,-114.28"/>
</g>
<!-- 46 -->
<g id="node47" class="node">
<title>46</title>
<polygon fill="none" stroke="black" points="932,-110 797,-110 797,-72 932,-72 932,-110"/>
<text text-anchor="middle" x="864.5" y="-94.8" font-family="Times,serif" font-size="14.00">longitude &lt;= &#45;68.459</text>
<text text-anchor="middle" x="864.5" y="-79.8" font-family="Times,serif" font-size="14.00">class = Canada</text>
</g>
<!-- 44&#45;&gt;46 -->
<g id="edge46" class="edge">
<title>44&#45;&gt;46</title>
<path fill="none" stroke="black" d="M813.66,-145.83C821.65,-137.37 831.3,-127.15 840.04,-117.9"/>
<polygon fill="black" stroke="black" points="842.79,-120.09 847.11,-110.41 837.7,-115.28 842.79,-120.09"/>
</g>
<!-- 47 -->
<g id="node48" class="node">
<title>47</title>
<polygon fill="none" stroke="black" points="852,-36 765,-36 765,0 852,0 852,-36"/>
<text text-anchor="middle" x="808.5" y="-14.3" font-family="Times,serif" font-size="14.00">class = USA</text>
</g>
<!-- 46&#45;&gt;47 -->
<g id="edge47" class="edge">
<title>46&#45;&gt;47</title>
<path fill="none" stroke="black" d="M850.08,-71.72C843.43,-63.29 835.43,-53.15 828.23,-44.02"/>
<polygon fill="black" stroke="black" points="830.85,-41.69 821.91,-36 825.36,-46.02 830.85,-41.69"/>
</g>
<!-- 48 -->
<g id="node49" class="node">
<title>48</title>
<polygon fill="none" stroke="black" points="971,-36 870,-36 870,0 971,0 971,-36"/>
<text text-anchor="middle" x="920.5" y="-14.3" font-family="Times,serif" font-size="14.00">class = Canada</text>
</g>
<!-- 46&#45;&gt;48 -->
<g id="edge48" class="edge">
<title>46&#45;&gt;48</title>
<path fill="none" stroke="black" d="M878.92,-71.72C885.57,-63.29 893.57,-53.15 900.77,-44.02"/>
<polygon fill="black" stroke="black" points="903.64,-46.02 907.09,-36 898.15,-41.69 903.64,-46.02"/>
</g>
<!-- 51 -->
<g id="node52" class="node">
<title>51</title>
<polygon fill="none" stroke="black" points="1012,-258 877,-258 877,-220 1012,-220 1012,-258"/>
<text text-anchor="middle" x="944.5" y="-242.8" font-family="Times,serif" font-size="14.00">longitude &lt;= &#45;67.355</text>
<text text-anchor="middle" x="944.5" y="-227.8" font-family="Times,serif" font-size="14.00">class = Canada</text>
</g>
<!-- 50&#45;&gt;51 -->
<g id="edge51" class="edge">
<title>50&#45;&gt;51</title>
<path fill="none" stroke="black" d="M944.5,-293.83C944.5,-286.13 944.5,-276.97 944.5,-268.42"/>
<polygon fill="black" stroke="black" points="948,-268.41 944.5,-258.41 941,-268.41 948,-268.41"/>
</g>
<!-- 54 -->
<g id="node55" class="node">
<title>54</title>
<polygon fill="none" stroke="black" points="1131,-257 1030,-257 1030,-221 1131,-221 1131,-257"/>
<text text-anchor="middle" x="1080.5" y="-235.3" font-family="Times,serif" font-size="14.00">class = Canada</text>
</g>
<!-- 50&#45;&gt;54 -->
<g id="edge54" class="edge">
<title>50&#45;&gt;54</title>
<path fill="none" stroke="black" d="M978.82,-293.83C997.16,-284.12 1019.87,-272.1 1039.18,-261.88"/>
<polygon fill="black" stroke="black" points="1040.86,-264.94 1048.07,-257.17 1037.59,-258.76 1040.86,-264.94"/>
</g>
<!-- 52 -->
<g id="node53" class="node">
<title>52</title>
<polygon fill="none" stroke="black" points="979,-183 892,-183 892,-147 979,-147 979,-183"/>
<text text-anchor="middle" x="935.5" y="-161.3" font-family="Times,serif" font-size="14.00">class = USA</text>
</g>
<!-- 51&#45;&gt;52 -->
<g id="edge52" class="edge">
<title>51&#45;&gt;52</title>
<path fill="none" stroke="black" d="M942.23,-219.83C941.24,-211.89 940.05,-202.41 938.95,-193.63"/>
<polygon fill="black" stroke="black" points="942.39,-192.91 937.68,-183.42 935.44,-193.77 942.39,-192.91"/>
</g>
<!-- 53 -->
<g id="node54" class="node">
<title>53</title>
<polygon fill="none" stroke="black" points="1098,-183 997,-183 997,-147 1098,-147 1098,-183"/>
<text text-anchor="middle" x="1047.5" y="-161.3" font-family="Times,serif" font-size="14.00">class = Canada</text>
</g>
<!-- 51&#45;&gt;53 -->
<g id="edge53" class="edge">
<title>51&#45;&gt;53</title>
<path fill="none" stroke="black" d="M970.49,-219.83C983.82,-210.52 1000.19,-199.07 1014.41,-189.13"/>
<polygon fill="black" stroke="black" points="1016.74,-191.77 1022.94,-183.17 1012.73,-186.03 1016.74,-191.77"/>
</g>
</g>
</svg>
