<?xml version="1.0" encoding="UTF-8" standalone="no"?>
<!DOCTYPE svg PUBLIC "-//W3C//DTD SVG 1.1//EN"
 "http://www.w3.org/Graphics/SVG/1.1/DTD/svg11.dtd">
<!-- Generated by graphviz version 2.49.0 (0)
 -->
<!-- Title: Tree Pages: 1 -->
<svg width="1182pt" height="932pt"
 viewBox="0.00 0.00 1182.00 932.00" xmlns="http://www.w3.org/2000/svg" xmlns:xlink="http://www.w3.org/1999/xlink">
<g id="graph0" class="graph" transform="scale(1 1) rotate(0) translate(4 928)">
<title>Tree</title>
<polygon fill="white" stroke="transparent" points="-4,4 -4,-928 1178,-928 1178,4 -4,4"/>
<!-- 0 -->
<g id="node1" class="node">
<title>0</title>
<polygon fill="none" stroke="black" points="287.5,-924 181.5,-924 181.5,-886 287.5,-886 287.5,-924"/>
<text text-anchor="middle" x="234.5" y="-908.8" font-family="Times,serif" font-size="14.00">latitude &lt;= 42.9</text>
<text text-anchor="middle" x="234.5" y="-893.8" font-family="Times,serif" font-size="14.00">class = Canada</text>
</g>
<!-- 1 -->
<g id="node2" class="node">
<title>1</title>
<polygon fill="none" stroke="black" points="220.5,-850 100.5,-850 100.5,-812 220.5,-812 220.5,-850"/>
<text text-anchor="middle" x="160.5" y="-834.8" font-family="Times,serif" font-size="14.00">latitude &lt;= 42.096</text>
<text text-anchor="middle" x="160.5" y="-819.8" font-family="Times,serif" font-size="14.00">class = USA</text>
</g>
<!-- 0&#45;&gt;1 -->
<g id="edge1" class="edge">
<title>0&#45;&gt;1</title>
<path fill="none" stroke="black" d="M215.83,-885.83C206.98,-877.22 196.25,-866.79 186.61,-857.4"/>
<polygon fill="black" stroke="black" points="188.78,-854.63 179.17,-850.16 183.89,-859.64 188.78,-854.63"/>
<text text-anchor="middle" x="179.51" y="-871.46" font-family="Times,serif" font-size="14.00">True</text>
</g>
<!-- 6 -->
<g id="node7" class="node">
<title>6</title>
<polygon fill="none" stroke="black" points="380.5,-850 238.5,-850 238.5,-812 380.5,-812 380.5,-850"/>
<text text-anchor="middle" x="309.5" y="-834.8" font-family="Times,serif" font-size="14.00">longitude &lt;= &#45;130.017</text>
<text text-anchor="middle" x="309.5" y="-819.8" font-family="Times,serif" font-size="14.00">class = Canada</text>
</g>
<!-- 0&#45;&gt;6 -->
<g id="edge6" class="edge">
<title>0&#45;&gt;6</title>
<path fill="none" stroke="black" d="M253.43,-885.83C262.49,-877.13 273.48,-866.58 283.33,-857.13"/>
<polygon fill="black" stroke="black" points="285.79,-859.61 290.58,-850.16 280.94,-854.56 285.79,-859.61"/>
<text text-anchor="middle" x="290.07" y="-871.46" font-family="Times,serif" font-size="14.00">False</text>
</g>
<!-- 2 -->
<g id="node3" class="node">
<title>2</title>
<polygon fill="none" stroke="black" points="87,-775 0,-775 0,-739 87,-739 87,-775"/>
<text text-anchor="middle" x="43.5" y="-753.3" font-family="Times,serif" font-size="14.00">class = USA</text>
</g>
<!-- 1&#45;&gt;2 -->
<g id="edge2" class="edge">
<title>1&#45;&gt;2</title>
<path fill="none" stroke="black" d="M130.98,-811.83C115.55,-802.34 96.54,-790.64 80.18,-780.57"/>
<polygon fill="black" stroke="black" points="81.75,-777.43 71.4,-775.17 78.09,-783.39 81.75,-777.43"/>
</g>
<!-- 3 -->
<g id="node4" class="node">
<title>3</title>
<polygon fill="none" stroke="black" points="225.5,-776 105.5,-776 105.5,-738 225.5,-738 225.5,-776"/>
<text text-anchor="middle" x="165.5" y="-760.8" font-family="Times,serif" font-size="14.00">latitude &lt;= 42.324</text>
<text text-anchor="middle" x="165.5" y="-745.8" font-family="Times,serif" font-size="14.00">class = USA</text>
</g>
<!-- 1&#45;&gt;3 -->
<g id="edge3" class="edge">
<title>1&#45;&gt;3</title>
<path fill="none" stroke="black" d="M161.76,-811.83C162.3,-804.13 162.93,-794.97 163.53,-786.42"/>
<polygon fill="black" stroke="black" points="167.02,-786.63 164.22,-776.41 160.04,-786.15 167.02,-786.63"/>
</g>
<!-- 4 -->
<g id="node5" class="node">
<title>4</title>
<polygon fill="none" stroke="black" points="209,-701 108,-701 108,-665 209,-665 209,-701"/>
<text text-anchor="middle" x="158.5" y="-679.3" font-family="Times,serif" font-size="14.00">class = Canada</text>
</g>
<!-- 3&#45;&gt;4 -->
<g id="edge4" class="edge">
<title>3&#45;&gt;4</title>
<path fill="none" stroke="black" d="M163.73,-737.83C162.96,-729.89 162.04,-720.41 161.19,-711.63"/>
<polygon fill="black" stroke="black" points="164.64,-711.03 160.19,-701.42 157.68,-711.71 164.64,-711.03"/>
</g>
<!-- 5 -->
<g id="node6" class="node">
<title>5</title>
<polygon fill="none" stroke="black" points="314,-701 227,-701 227,-665 314,-665 314,-701"/>
<text text-anchor="middle" x="270.5" y="-679.3" font-family="Times,serif" font-size="14.00">class = USA</text>
</g>
<!-- 3&#45;&gt;5 -->
<g id="edge5" class="edge">
<title>3&#45;&gt;5</title>
<path fill="none" stroke="black" d="M192,-737.83C205.71,-728.43 222.59,-716.86 237.17,-706.85"/>
<polygon fill="black" stroke="black" points="239.19,-709.71 245.46,-701.17 235.23,-703.94 239.19,-709.71"/>
</g>
<!-- 7 -->
<g id="node8" class="node">
<title>7</title>
<polygon fill="none" stroke="black" points="344,-775 257,-775 257,-739 344,-739 344,-775"/>
<text text-anchor="middle" x="300.5" y="-753.3" font-family="Times,serif" font-size="14.00">class = USA</text>
</g>
<!-- 6&#45;&gt;7 -->
<g id="edge7" class="edge">
<title>6&#45;&gt;7</title>
<path fill="none" stroke="black" d="M307.23,-811.83C306.24,-803.89 305.05,-794.41 303.95,-785.63"/>
<polygon fill="black" stroke="black" points="307.39,-784.91 302.68,-775.42 300.44,-785.77 307.39,-784.91"/>
</g>
<!-- 8 -->
<g id="node9" class="node">
<title>8</title>
<polygon fill="none" stroke="black" points="468.5,-776 362.5,-776 362.5,-738 468.5,-738 468.5,-776"/>
<text text-anchor="middle" x="415.5" y="-760.8" font-family="Times,serif" font-size="14.00">latitude &lt;= 49.0</text>
<text text-anchor="middle" x="415.5" y="-745.8" font-family="Times,serif" font-size="14.00">class = Canada</text>
</g>
<!-- 6&#45;&gt;8 -->
<g id="edge8" class="edge">
<title>6&#45;&gt;8</title>
<path fill="none" stroke="black" d="M336.25,-811.83C349.56,-802.79 365.82,-791.75 380.14,-782.02"/>
<polygon fill="black" stroke="black" points="382.45,-784.68 388.76,-776.16 378.52,-778.89 382.45,-784.68"/>
</g>
<!-- 9 -->
<g id="node10" class="node">
<title>9</title>
<polygon fill="none" stroke="black" points="478,-702 343,-702 343,-664 478,-664 478,-702"/>
<text text-anchor="middle" x="410.5" y="-686.8" font-family="Times,serif" font-size="14.00">longitude &lt;= &#45;94.582</text>
<text text-anchor="middle" x="410.5" y="-671.8" font-family="Times,serif" font-size="14.00">class = Canada</text>
</g>
<!-- 8&#45;&gt;9 -->
<g id="edge9" class="edge">
<title>8&#45;&gt;9</title>
<path fill="none" stroke="black" d="M414.24,-737.83C413.7,-730.13 413.07,-720.97 412.47,-712.42"/>
<polygon fill="black" stroke="black" points="415.96,-712.15 411.78,-702.41 408.98,-712.63 415.96,-712.15"/>
</g>
<!-- 54 -->
<g id="node55" class="node">
<title>54</title>
<polygon fill="none" stroke="black" points="597,-701 496,-701 496,-665 597,-665 597,-701"/>
<text text-anchor="middle" x="546.5" y="-679.3" font-family="Times,serif" font-size="14.00">class = Canada</text>
</g>
<!-- 8&#45;&gt;54 -->
<g id="edge54" class="edge">
<title>8&#45;&gt;54</title>
<path fill="none" stroke="black" d="M448.56,-737.83C466.14,-728.17 487.91,-716.2 506.45,-706.01"/>
<polygon fill="black" stroke="black" points="508.18,-709.06 515.26,-701.17 504.81,-702.92 508.18,-709.06"/>
</g>
<!-- 10 -->
<g id="node11" class="node">
<title>10</title>
<polygon fill="none" stroke="black" points="403.5,-628 261.5,-628 261.5,-590 403.5,-590 403.5,-628"/>
<text text-anchor="middle" x="332.5" y="-612.8" font-family="Times,serif" font-size="14.00">longitude &lt;= &#45;123.222</text>
<text text-anchor="middle" x="332.5" y="-597.8" font-family="Times,serif" font-size="14.00">class = USA</text>
</g>
<!-- 9&#45;&gt;10 -->
<g id="edge10" class="edge">
<title>9&#45;&gt;10</title>
<path fill="none" stroke="black" d="M390.82,-663.83C381.39,-655.13 369.96,-644.58 359.72,-635.13"/>
<polygon fill="black" stroke="black" points="361.9,-632.37 352.18,-628.16 357.15,-637.52 361.9,-632.37"/>
</g>
<!-- 13 -->
<g id="node14" class="node">
<title>13</title>
<polygon fill="none" stroke="black" points="557,-628 422,-628 422,-590 557,-590 557,-628"/>
<text text-anchor="middle" x="489.5" y="-612.8" font-family="Times,serif" font-size="14.00">longitude &lt;= &#45;69.246</text>
<text text-anchor="middle" x="489.5" y="-597.8" font-family="Times,serif" font-size="14.00">class = Canada</text>
</g>
<!-- 9&#45;&gt;13 -->
<g id="edge13" class="edge">
<title>9&#45;&gt;13</title>
<path fill="none" stroke="black" d="M430.44,-663.83C439.98,-655.13 451.56,-644.58 461.93,-635.13"/>
<polygon fill="black" stroke="black" points="464.54,-637.49 469.57,-628.16 459.82,-632.31 464.54,-637.49"/>
</g>
<!-- 11 -->
<g id="node12" class="node">
<title>11</title>
<polygon fill="none" stroke="black" points="280,-553 179,-553 179,-517 280,-517 280,-553"/>
<text text-anchor="middle" x="229.5" y="-531.3" font-family="Times,serif" font-size="14.00">class = Canada</text>
</g>
<!-- 10&#45;&gt;11 -->
<g id="edge11" class="edge">
<title>10&#45;&gt;11</title>
<path fill="none" stroke="black" d="M306.51,-589.83C293.18,-580.52 276.81,-569.07 262.59,-559.13"/>
<polygon fill="black" stroke="black" points="264.27,-556.03 254.06,-553.17 260.26,-561.77 264.27,-556.03"/>
</g>
<!-- 12 -->
<g id="node13" class="node">
<title>12</title>
<polygon fill="none" stroke="black" points="385,-553 298,-553 298,-517 385,-517 385,-553"/>
<text text-anchor="middle" x="341.5" y="-531.3" font-family="Times,serif" font-size="14.00">class = USA</text>
</g>
<!-- 10&#45;&gt;12 -->
<g id="edge12" class="edge">
<title>10&#45;&gt;12</title>
<path fill="none" stroke="black" d="M334.77,-589.83C335.76,-581.89 336.95,-572.41 338.05,-563.63"/>
<polygon fill="black" stroke="black" points="341.56,-563.77 339.32,-553.42 334.61,-562.91 341.56,-563.77"/>
</g>
<!-- 14 -->
<g id="node15" class="node">
<title>14</title>
<polygon fill="none" stroke="black" points="540.5,-554 420.5,-554 420.5,-516 540.5,-516 540.5,-554"/>
<text text-anchor="middle" x="480.5" y="-538.8" font-family="Times,serif" font-size="14.00">latitude &lt;= 43.093</text>
<text text-anchor="middle" x="480.5" y="-523.8" font-family="Times,serif" font-size="14.00">class = Canada</text>
</g>
<!-- 13&#45;&gt;14 -->
<g id="edge14" class="edge">
<title>13&#45;&gt;14</title>
<path fill="none" stroke="black" d="M487.23,-589.83C486.27,-582.13 485.12,-572.97 484.05,-564.42"/>
<polygon fill="black" stroke="black" points="487.52,-563.9 482.8,-554.41 480.57,-564.77 487.52,-563.9"/>
</g>
<!-- 37 -->
<g id="node38" class="node">
<title>37</title>
<polygon fill="none" stroke="black" points="856,-554 721,-554 721,-516 856,-516 856,-554"/>
<text text-anchor="middle" x="788.5" y="-538.8" font-family="Times,serif" font-size="14.00">longitude &lt;= &#45;66.952</text>
<text text-anchor="middle" x="788.5" y="-523.8" font-family="Times,serif" font-size="14.00">class = Canada</text>
</g>
<!-- 13&#45;&gt;37 -->
<g id="edge37" class="edge">
<title>13&#45;&gt;37</title>
<path fill="none" stroke="black" d="M557.35,-591.66C603.03,-580.66 663.39,-566.13 710.97,-554.67"/>
<polygon fill="black" stroke="black" points="712.02,-558.02 720.92,-552.27 710.38,-551.21 712.02,-558.02"/>
</g>
<!-- 15 -->
<g id="node16" class="node">
<title>15</title>
<polygon fill="none" stroke="black" points="278,-480 143,-480 143,-442 278,-442 278,-480"/>
<text text-anchor="middle" x="210.5" y="-464.8" font-family="Times,serif" font-size="14.00">longitude &lt;= &#45;81.845</text>
<text text-anchor="middle" x="210.5" y="-449.8" font-family="Times,serif" font-size="14.00">class = Canada</text>
</g>
<!-- 14&#45;&gt;15 -->
<g id="edge15" class="edge">
<title>14&#45;&gt;15</title>
<path fill="none" stroke="black" d="M420.24,-517.93C381.25,-507.53 330.11,-493.9 288.09,-482.69"/>
<polygon fill="black" stroke="black" points="288.73,-479.24 278.17,-480.05 286.93,-486 288.73,-479.24"/>
</g>
<!-- 20 -->
<g id="node21" class="node">
<title>20</title>
<polygon fill="none" stroke="black" points="540.5,-480 420.5,-480 420.5,-442 540.5,-442 540.5,-480"/>
<text text-anchor="middle" x="480.5" y="-464.8" font-family="Times,serif" font-size="14.00">latitude &lt;= 44.992</text>
<text text-anchor="middle" x="480.5" y="-449.8" font-family="Times,serif" font-size="14.00">class = Canada</text>
</g>
<!-- 14&#45;&gt;20 -->
<g id="edge20" class="edge">
<title>14&#45;&gt;20</title>
<path fill="none" stroke="black" d="M480.5,-515.83C480.5,-508.13 480.5,-498.97 480.5,-490.42"/>
<polygon fill="black" stroke="black" points="484,-490.41 480.5,-480.41 477,-490.41 484,-490.41"/>
</g>
<!-- 16 -->
<g id="node17" class="node">
<title>16</title>
<polygon fill="none" stroke="black" points="132,-405 45,-405 45,-369 132,-369 132,-405"/>
<text text-anchor="middle" x="88.5" y="-383.3" font-family="Times,serif" font-size="14.00">class = USA</text>
</g>
<!-- 15&#45;&gt;16 -->
<g id="edge16" class="edge">
<title>15&#45;&gt;16</title>
<path fill="none" stroke="black" d="M179.71,-441.83C163.48,-432.25 143.44,-420.42 126.27,-410.29"/>
<polygon fill="black" stroke="black" points="127.99,-407.24 117.6,-405.17 124.43,-413.27 127.99,-407.24"/>
</g>
<!-- 17 -->
<g id="node18" class="node">
<title>17</title>
<polygon fill="none" stroke="black" points="270.5,-406 150.5,-406 150.5,-368 270.5,-368 270.5,-406"/>
<text text-anchor="middle" x="210.5" y="-390.8" font-family="Times,serif" font-size="14.00">latitude &lt;= 43.039</text>
<text text-anchor="middle" x="210.5" y="-375.8" font-family="Times,serif" font-size="14.00">class = Canada</text>
</g>
<!-- 15&#45;&gt;17 -->
<g id="edge17" class="edge">
<title>15&#45;&gt;17</title>
<path fill="none" stroke="black" d="M210.5,-441.83C210.5,-434.13 210.5,-424.97 210.5,-416.42"/>
<polygon fill="black" stroke="black" points="214,-416.41 210.5,-406.41 207,-416.41 214,-416.41"/>
</g>
<!-- 18 -->
<g id="node19" class="node">
<title>18</title>
<polygon fill="none" stroke="black" points="149,-331 48,-331 48,-295 149,-295 149,-331"/>
<text text-anchor="middle" x="98.5" y="-309.3" font-family="Times,serif" font-size="14.00">class = Canada</text>
</g>
<!-- 17&#45;&gt;18 -->
<g id="edge18" class="edge">
<title>17&#45;&gt;18</title>
<path fill="none" stroke="black" d="M182.24,-367.83C167.61,-358.43 149.61,-346.86 134.05,-336.85"/>
<polygon fill="black" stroke="black" points="135.52,-333.63 125.21,-331.17 131.73,-339.52 135.52,-333.63"/>
</g>
<!-- 19 -->
<g id="node20" class="node">
<title>19</title>
<polygon fill="none" stroke="black" points="254,-331 167,-331 167,-295 254,-295 254,-331"/>
<text text-anchor="middle" x="210.5" y="-309.3" font-family="Times,serif" font-size="14.00">class = USA</text>
</g>
<!-- 17&#45;&gt;19 -->
<g id="edge19" class="edge">
<title>17&#45;&gt;19</title>
<path fill="none" stroke="black" d="M210.5,-367.83C210.5,-359.89 210.5,-350.41 210.5,-341.63"/>
<polygon fill="black" stroke="black" points="214,-341.42 210.5,-331.42 207,-341.42 214,-341.42"/>
</g>
<!-- 21 -->
<g id="node22" class="node">
<title>21</title>
<polygon fill="none" stroke="black" points="471.5,-406 351.5,-406 351.5,-368 471.5,-368 471.5,-406"/>
<text text-anchor="middle" x="411.5" y="-390.8" font-family="Times,serif" font-size="14.00">latitude &lt;= 44.542</text>
<text text-anchor="middle" x="411.5" y="-375.8" font-family="Times,serif" font-size="14.00">class = Canada</text>
</g>
<!-- 20&#45;&gt;21 -->
<g id="edge21" class="edge">
<title>20&#45;&gt;21</title>
<path fill="none" stroke="black" d="M463.09,-441.83C454.98,-433.37 445.18,-423.15 436.32,-413.9"/>
<polygon fill="black" stroke="black" points="438.59,-411.21 429.15,-406.41 433.54,-416.05 438.59,-411.21"/>
</g>
<!-- 36 -->
<g id="node37" class="node">
<title>36</title>
<polygon fill="none" stroke="black" points="591,-405 490,-405 490,-369 591,-369 591,-405"/>
<text text-anchor="middle" x="540.5" y="-383.3" font-family="Times,serif" font-size="14.00">class = Canada</text>
</g>
<!-- 20&#45;&gt;36 -->
<g id="edge36" class="edge">
<title>20&#45;&gt;36</title>
<path fill="none" stroke="black" d="M495.64,-441.83C502.84,-433.2 511.56,-422.73 519.39,-413.33"/>
<polygon fill="black" stroke="black" points="522.27,-415.34 525.99,-405.42 516.89,-410.86 522.27,-415.34"/>
</g>
<!-- 22 -->
<g id="node23" class="node">
<title>22</title>
<polygon fill="none" stroke="black" points="407,-332 272,-332 272,-294 407,-294 407,-332"/>
<text text-anchor="middle" x="339.5" y="-316.8" font-family="Times,serif" font-size="14.00">longitude &lt;= &#45;79.076</text>
<text text-anchor="middle" x="339.5" y="-301.8" font-family="Times,serif" font-size="14.00">class = Canada</text>
</g>
<!-- 21&#45;&gt;22 -->
<g id="edge22" class="edge">
<title>21&#45;&gt;22</title>
<path fill="none" stroke="black" d="M393.33,-367.83C384.78,-359.28 374.44,-348.94 365.12,-339.62"/>
<polygon fill="black" stroke="black" points="367.46,-337.01 357.91,-332.41 362.51,-341.96 367.46,-337.01"/>
</g>
<!-- 31 -->
<g id="node32" class="node">
<title>31</title>
<polygon fill="none" stroke="black" points="560,-332 425,-332 425,-294 560,-294 560,-332"/>
<text text-anchor="middle" x="492.5" y="-316.8" font-family="Times,serif" font-size="14.00">longitude &lt;= &#45;84.392</text>
<text text-anchor="middle" x="492.5" y="-301.8" font-family="Times,serif" font-size="14.00">class = USA</text>
</g>
<!-- 21&#45;&gt;31 -->
<g id="edge31" class="edge">
<title>21&#45;&gt;31</title>
<path fill="none" stroke="black" d="M431.94,-367.83C441.82,-359.05 453.83,-348.37 464.55,-338.85"/>
<polygon fill="black" stroke="black" points="466.92,-341.42 472.07,-332.16 462.27,-336.19 466.92,-341.42"/>
</g>
<!-- 23 -->
<g id="node24" class="node">
<title>23</title>
<polygon fill="none" stroke="black" points="261,-257 160,-257 160,-221 261,-221 261,-257"/>
<text text-anchor="middle" x="210.5" y="-235.3" font-family="Times,serif" font-size="14.00">class = Canada</text>
</g>
<!-- 22&#45;&gt;23 -->
<g id="edge23" class="edge">
<title>22&#45;&gt;23</title>
<path fill="none" stroke="black" d="M306.95,-293.83C289.79,-284.25 268.59,-272.42 250.44,-262.29"/>
<polygon fill="black" stroke="black" points="251.7,-258.99 241.27,-257.17 248.29,-265.1 251.7,-258.99"/>
</g>
<!-- 24 -->
<g id="node25" class="node">
<title>24</title>
<polygon fill="none" stroke="black" points="399.5,-258 279.5,-258 279.5,-220 399.5,-220 399.5,-258"/>
<text text-anchor="middle" x="339.5" y="-242.8" font-family="Times,serif" font-size="14.00">latitude &lt;= 44.168</text>
<text text-anchor="middle" x="339.5" y="-227.8" font-family="Times,serif" font-size="14.00">class = Canada</text>
</g>
<!-- 22&#45;&gt;24 -->
<g id="edge24" class="edge">
<title>22&#45;&gt;24</title>
<path fill="none" stroke="black" d="M339.5,-293.83C339.5,-286.13 339.5,-276.97 339.5,-268.42"/>
<polygon fill="black" stroke="black" points="343,-268.41 339.5,-258.41 336,-268.41 343,-268.41"/>
</g>
<!-- 25 -->
<g id="node26" class="node">
<title>25</title>
<polygon fill="none" stroke="black" points="280.5,-184 152.5,-184 152.5,-146 280.5,-146 280.5,-184"/>
<text text-anchor="middle" x="216.5" y="-168.8" font-family="Times,serif" font-size="14.00">longitude &lt;= &#45;79.03</text>
<text text-anchor="middle" x="216.5" y="-153.8" font-family="Times,serif" font-size="14.00">class = USA</text>
</g>
<!-- 24&#45;&gt;25 -->
<g id="edge25" class="edge">
<title>24&#45;&gt;25</title>
<path fill="none" stroke="black" d="M308.46,-219.83C292.73,-210.62 273.44,-199.33 256.6,-189.47"/>
<polygon fill="black" stroke="black" points="257.93,-186.19 247.53,-184.16 254.39,-192.24 257.93,-186.19"/>
</g>
<!-- 30 -->
<g id="node31" class="node">
<title>30</title>
<polygon fill="none" stroke="black" points="400,-183 299,-183 299,-147 400,-147 400,-183"/>
<text text-anchor="middle" x="349.5" y="-161.3" font-family="Times,serif" font-size="14.00">class = Canada</text>
</g>
<!-- 24&#45;&gt;30 -->
<g id="edge30" class="edge">
<title>24&#45;&gt;30</title>
<path fill="none" stroke="black" d="M342.02,-219.83C343.14,-211.81 344.47,-202.2 345.7,-193.34"/>
<polygon fill="black" stroke="black" points="349.17,-193.8 347.08,-183.42 342.24,-192.84 349.17,-193.8"/>
</g>
<!-- 26 -->
<g id="node27" class="node">
<title>26</title>
<polygon fill="none" stroke="black" points="196,-109 109,-109 109,-73 196,-73 196,-109"/>
<text text-anchor="middle" x="152.5" y="-87.3" font-family="Times,serif" font-size="14.00">class = USA</text>
</g>
<!-- 25&#45;&gt;26 -->
<g id="edge26" class="edge">
<title>25&#45;&gt;26</title>
<path fill="none" stroke="black" d="M200.35,-145.83C192.6,-137.11 183.18,-126.52 174.76,-117.05"/>
<polygon fill="black" stroke="black" points="177.24,-114.57 167.98,-109.42 172.01,-119.22 177.24,-114.57"/>
</g>
<!-- 27 -->
<g id="node28" class="node">
<title>27</title>
<polygon fill="none" stroke="black" points="349,-110 214,-110 214,-72 349,-72 349,-110"/>
<text text-anchor="middle" x="281.5" y="-94.8" font-family="Times,serif" font-size="14.00">longitude &lt;= &#45;77.678</text>
<text text-anchor="middle" x="281.5" y="-79.8" font-family="Times,serif" font-size="14.00">class = Canada</text>
</g>
<!-- 25&#45;&gt;27 -->
<g id="edge27" class="edge">
<title>25&#45;&gt;27</title>
<path fill="none" stroke="black" d="M232.9,-145.83C240.54,-137.37 249.77,-127.15 258.12,-117.9"/>
<polygon fill="black" stroke="black" points="260.77,-120.18 264.88,-110.41 255.58,-115.49 260.77,-120.18"/>
</g>
<!-- 28 -->
<g id="node29" class="node">
<title>28</title>
<polygon fill="none" stroke="black" points="276,-36 175,-36 175,0 276,0 276,-36"/>
<text text-anchor="middle" x="225.5" y="-14.3" font-family="Times,serif" font-size="14.00">class = Canada</text>
</g>
<!-- 27&#45;&gt;28 -->
<g id="edge28" class="edge">
<title>27&#45;&gt;28</title>
<path fill="none" stroke="black" d="M267.08,-71.72C260.43,-63.29 252.43,-53.15 245.23,-44.02"/>
<polygon fill="black" stroke="black" points="247.85,-41.69 238.91,-36 242.36,-46.02 247.85,-41.69"/>
</g>
<!-- 29 -->
<g id="node30" class="node">
<title>29</title>
<polygon fill="none" stroke="black" points="381,-36 294,-36 294,0 381,0 381,-36"/>
<text text-anchor="middle" x="337.5" y="-14.3" font-family="Times,serif" font-size="14.00">class = USA</text>
</g>
<!-- 27&#45;&gt;29 -->
<g id="edge29" class="edge">
<title>27&#45;&gt;29</title>
<path fill="none" stroke="black" d="M295.92,-71.72C302.57,-63.29 310.57,-53.15 317.77,-44.02"/>
<polygon fill="black" stroke="black" points="320.64,-46.02 324.09,-36 315.15,-41.69 320.64,-46.02"/>
</g>
<!-- 32 -->
<g id="node33" class="node">
<title>32</title>
<polygon fill="none" stroke="black" points="505,-257 418,-257 418,-221 505,-221 505,-257"/>
<text text-anchor="middle" x="461.5" y="-235.3" font-family="Times,serif" font-size="14.00">class = USA</text>
</g>
<!-- 31&#45;&gt;32 -->
<g id="edge32" class="edge">
<title>31&#45;&gt;32</title>
<path fill="none" stroke="black" d="M484.68,-293.83C481.15,-285.63 476.91,-275.78 473.02,-266.76"/>
<polygon fill="black" stroke="black" points="476.17,-265.22 469,-257.42 469.74,-267.99 476.17,-265.22"/>
</g>
<!-- 33 -->
<g id="node34" class="node">
<title>33</title>
<polygon fill="none" stroke="black" points="658,-258 523,-258 523,-220 658,-220 658,-258"/>
<text text-anchor="middle" x="590.5" y="-242.8" font-family="Times,serif" font-size="14.00">longitude &lt;= &#45;75.503</text>
<text text-anchor="middle" x="590.5" y="-227.8" font-family="Times,serif" font-size="14.00">class = Canada</text>
</g>
<!-- 31&#45;&gt;33 -->
<g id="edge33" class="edge">
<title>31&#45;&gt;33</title>
<path fill="none" stroke="black" d="M517.23,-293.83C529.42,-284.88 544.28,-273.96 557.43,-264.3"/>
<polygon fill="black" stroke="black" points="559.79,-266.9 565.78,-258.16 555.65,-261.26 559.79,-266.9"/>
</g>
<!-- 34 -->
<g id="node35" class="node">
<title>34</title>
<polygon fill="none" stroke="black" points="531,-183 430,-183 430,-147 531,-147 531,-183"/>
<text text-anchor="middle" x="480.5" y="-161.3" font-family="Times,serif" font-size="14.00">class = Canada</text>
</g>
<!-- 33&#45;&gt;34 -->
<g id="edge34" class="edge">
<title>33&#45;&gt;34</title>
<path fill="none" stroke="black" d="M562.74,-219.83C548.38,-210.43 530.7,-198.86 515.41,-188.85"/>
<polygon fill="black" stroke="black" points="517.02,-185.72 506.73,-183.17 513.18,-191.58 517.02,-185.72"/>
</g>
<!-- 35 -->
<g id="node36" class="node">
<title>35</title>
<polygon fill="none" stroke="black" points="636,-183 549,-183 549,-147 636,-147 636,-183"/>
<text text-anchor="middle" x="592.5" y="-161.3" font-family="Times,serif" font-size="14.00">class = USA</text>
</g>
<!-- 33&#45;&gt;35 -->
<g id="edge35" class="edge">
<title>33&#45;&gt;35</title>
<path fill="none" stroke="black" d="M591,-219.83C591.23,-211.89 591.49,-202.41 591.73,-193.63"/>
<polygon fill="black" stroke="black" points="595.24,-193.51 592.02,-183.42 588.24,-193.32 595.24,-193.51"/>
</g>
<!-- 38 -->
<g id="node39" class="node">
<title>38</title>
<polygon fill="none" stroke="black" points="856,-480 721,-480 721,-442 856,-442 856,-480"/>
<text text-anchor="middle" x="788.5" y="-464.8" font-family="Times,serif" font-size="14.00">longitude &lt;= &#45;67.279</text>
<text text-anchor="middle" x="788.5" y="-449.8" font-family="Times,serif" font-size="14.00">class = USA</text>
</g>
<!-- 37&#45;&gt;38 -->
<g id="edge38" class="edge">
<title>37&#45;&gt;38</title>
<path fill="none" stroke="black" d="M788.5,-515.83C788.5,-508.13 788.5,-498.97 788.5,-490.42"/>
<polygon fill="black" stroke="black" points="792,-490.41 788.5,-480.41 785,-490.41 792,-490.41"/>
</g>
<!-- 53 -->
<g id="node54" class="node">
<title>53</title>
<polygon fill="none" stroke="black" points="975,-479 874,-479 874,-443 975,-443 975,-479"/>
<text text-anchor="middle" x="924.5" y="-457.3" font-family="Times,serif" font-size="14.00">class = Canada</text>
</g>
<!-- 37&#45;&gt;53 -->
<g id="edge53" class="edge">
<title>37&#45;&gt;53</title>
<path fill="none" stroke="black" d="M822.82,-515.83C841.16,-506.12 863.87,-494.1 883.18,-483.88"/>
<polygon fill="black" stroke="black" points="884.86,-486.94 892.07,-479.17 881.59,-480.76 884.86,-486.94"/>
</g>
<!-- 39 -->
<g id="node40" class="node">
<title>39</title>
<polygon fill="none" stroke="black" points="852.5,-406 724.5,-406 724.5,-368 852.5,-368 852.5,-406"/>
<text text-anchor="middle" x="788.5" y="-390.8" font-family="Times,serif" font-size="14.00">longitude &lt;= &#45;67.93</text>
<text text-anchor="middle" x="788.5" y="-375.8" font-family="Times,serif" font-size="14.00">class = Canada</text>
</g>
<!-- 38&#45;&gt;39 -->
<g id="edge39" class="edge">
<title>38&#45;&gt;39</title>
<path fill="none" stroke="black" d="M788.5,-441.83C788.5,-434.13 788.5,-424.97 788.5,-416.42"/>
<polygon fill="black" stroke="black" points="792,-416.41 788.5,-406.41 785,-416.41 792,-416.41"/>
</g>
<!-- 52 -->
<g id="node53" class="node">
<title>52</title>
<polygon fill="none" stroke="black" points="958,-405 871,-405 871,-369 958,-369 958,-405"/>
<text text-anchor="middle" x="914.5" y="-383.3" font-family="Times,serif" font-size="14.00">class = USA</text>
</g>
<!-- 38&#45;&gt;52 -->
<g id="edge52" class="edge">
<title>38&#45;&gt;52</title>
<path fill="none" stroke="black" d="M820.3,-441.83C837.06,-432.25 857.76,-420.42 875.49,-410.29"/>
<polygon fill="black" stroke="black" points="877.5,-413.17 884.45,-405.17 874.03,-407.09 877.5,-413.17"/>
</g>
<!-- 40 -->
<g id="node41" class="node">
<title>40</title>
<polygon fill="none" stroke="black" points="856,-332 721,-332 721,-294 856,-294 856,-332"/>
<text text-anchor="middle" x="788.5" y="-316.8" font-family="Times,serif" font-size="14.00">longitude &lt;= &#45;68.325</text>
<text text-anchor="middle" x="788.5" y="-301.8" font-family="Times,serif" font-size="14.00">class = USA</text>
</g>
<!-- 39&#45;&gt;40 -->
<g id="edge40" class="edge">
<title>39&#45;&gt;40</title>
<path fill="none" stroke="black" d="M788.5,-367.83C788.5,-360.13 788.5,-350.97 788.5,-342.42"/>
<polygon fill="black" stroke="black" points="792,-342.41 788.5,-332.41 785,-342.41 792,-342.41"/>
</g>
<!-- 47 -->
<g id="node48" class="node">
<title>47</title>
<polygon fill="none" stroke="black" points="1047.5,-332 927.5,-332 927.5,-294 1047.5,-294 1047.5,-332"/>
<text text-anchor="middle" x="987.5" y="-316.8" font-family="Times,serif" font-size="14.00">latitude &lt;= 45.565</text>
<text text-anchor="middle" x="987.5" y="-301.8" font-family="Times,serif" font-size="14.00">class = Canada</text>
</g>
<!-- 39&#45;&gt;47 -->
<g id="edge47" class="edge">
<title>39&#45;&gt;47</title>
<path fill="none" stroke="black" d="M838.46,-367.92C865.66,-358.08 899.5,-345.84 928.06,-335.51"/>
<polygon fill="black" stroke="black" points="929.31,-338.78 937.52,-332.08 926.93,-332.19 929.31,-338.78"/>
</g>
<!-- 41 -->
<g id="node42" class="node">
<title>41</title>
<polygon fill="none" stroke="black" points="796.5,-258 676.5,-258 676.5,-220 796.5,-220 796.5,-258"/>
<text text-anchor="middle" x="736.5" y="-242.8" font-family="Times,serif" font-size="14.00">latitude &lt;= 47.256</text>
<text text-anchor="middle" x="736.5" y="-227.8" font-family="Times,serif" font-size="14.00">class = Canada</text>
</g>
<!-- 40&#45;&gt;41 -->
<g id="edge41" class="edge">
<title>40&#45;&gt;41</title>
<path fill="none" stroke="black" d="M775.38,-293.83C769.45,-285.62 762.33,-275.76 755.81,-266.73"/>
<polygon fill="black" stroke="black" points="758.49,-264.47 749.8,-258.41 752.82,-268.57 758.49,-264.47"/>
</g>
<!-- 46 -->
<g id="node47" class="node">
<title>46</title>
<polygon fill="none" stroke="black" points="902,-257 815,-257 815,-221 902,-221 902,-257"/>
<text text-anchor="middle" x="858.5" y="-235.3" font-family="Times,serif" font-size="14.00">class = USA</text>
</g>
<!-- 40&#45;&gt;46 -->
<g id="edge46" class="edge">
<title>40&#45;&gt;46</title>
<path fill="none" stroke="black" d="M806.16,-293.83C814.73,-285.02 825.15,-274.31 834.43,-264.76"/>
<polygon fill="black" stroke="black" points="837.1,-267.03 841.57,-257.42 832.09,-262.15 837.1,-267.03"/>
</g>
<!-- 42 -->
<g id="node43" class="node">
<title>42</title>
<polygon fill="none" stroke="black" points="765,-183 664,-183 664,-147 765,-147 765,-183"/>
<text text-anchor="middle" x="714.5" y="-161.3" font-family="Times,serif" font-size="14.00">class = Canada</text>
</g>
<!-- 41&#45;&gt;42 -->
<g id="edge42" class="edge">
<title>41&#45;&gt;42</title>
<path fill="none" stroke="black" d="M730.95,-219.83C728.47,-211.72 725.5,-201.99 722.77,-193.05"/>
<polygon fill="black" stroke="black" points="726.09,-191.96 719.82,-183.42 719.4,-194 726.09,-191.96"/>
</g>
<!-- 43 -->
<g id="node44" class="node">
<title>43</title>
<polygon fill="none" stroke="black" points="918,-184 783,-184 783,-146 918,-146 918,-184"/>
<text text-anchor="middle" x="850.5" y="-168.8" font-family="Times,serif" font-size="14.00">longitude &lt;= &#45;68.459</text>
<text text-anchor="middle" x="850.5" y="-153.8" font-family="Times,serif" font-size="14.00">class = USA</text>
</g>
<!-- 41&#45;&gt;43 -->
<g id="edge43" class="edge">
<title>41&#45;&gt;43</title>
<path fill="none" stroke="black" d="M765.27,-219.83C779.71,-210.71 797.4,-199.54 812.9,-189.74"/>
<polygon fill="black" stroke="black" points="815.16,-192.46 821.74,-184.16 811.42,-186.54 815.16,-192.46"/>
</g>
<!-- 44 -->
<g id="node45" class="node">
<title>44</title>
<polygon fill="none" stroke="black" points="838,-109 751,-109 751,-73 838,-73 838,-109"/>
<text text-anchor="middle" x="794.5" y="-87.3" font-family="Times,serif" font-size="14.00">class = USA</text>
</g>
<!-- 43&#45;&gt;44 -->
<g id="edge44" class="edge">
<title>43&#45;&gt;44</title>
<path fill="none" stroke="black" d="M836.37,-145.83C829.65,-137.2 821.51,-126.73 814.2,-117.33"/>
<polygon fill="black" stroke="black" points="816.95,-115.16 808.05,-109.42 811.42,-119.46 816.95,-115.16"/>
</g>
<!-- 45 -->
<g id="node46" class="node">
<title>45</title>
<polygon fill="none" stroke="black" points="957,-109 856,-109 856,-73 957,-73 957,-109"/>
<text text-anchor="middle" x="906.5" y="-87.3" font-family="Times,serif" font-size="14.00">class = Canada</text>
</g>
<!-- 43&#45;&gt;45 -->
<g id="edge45" class="edge">
<title>43&#45;&gt;45</title>
<path fill="none" stroke="black" d="M864.63,-145.83C871.35,-137.2 879.49,-126.73 886.8,-117.33"/>
<polygon fill="black" stroke="black" points="889.58,-119.46 892.95,-109.42 884.05,-115.16 889.58,-119.46"/>
</g>
<!-- 48 -->
<g id="node49" class="node">
<title>48</title>
<polygon fill="none" stroke="black" points="1055,-258 920,-258 920,-220 1055,-220 1055,-258"/>
<text text-anchor="middle" x="987.5" y="-242.8" font-family="Times,serif" font-size="14.00">longitude &lt;= &#45;67.355</text>
<text text-anchor="middle" x="987.5" y="-227.8" font-family="Times,serif" font-size="14.00">class = Canada</text>
</g>
<!-- 47&#45;&gt;48 -->
<g id="edge48" class="edge">
<title>47&#45;&gt;48</title>
<path fill="none" stroke="black" d="M987.5,-293.83C987.5,-286.13 987.5,-276.97 987.5,-268.42"/>
<polygon fill="black" stroke="black" points="991,-268.41 987.5,-258.41 984,-268.41 991,-268.41"/>
</g>
<!-- 51 -->
<g id="node52" class="node">
<title>51</title>
<polygon fill="none" stroke="black" points="1174,-257 1073,-257 1073,-221 1174,-221 1174,-257"/>
<text text-anchor="middle" x="1123.5" y="-235.3" font-family="Times,serif" font-size="14.00">class = Canada</text>
</g>
<!-- 47&#45;&gt;51 -->
<g id="edge51" class="edge">
<title>47&#45;&gt;51</title>
<path fill="none" stroke="black" d="M1021.82,-293.83C1040.16,-284.12 1062.87,-272.1 1082.18,-261.88"/>
<polygon fill="black" stroke="black" points="1083.86,-264.94 1091.07,-257.17 1080.59,-258.76 1083.86,-264.94"/>
</g>
<!-- 49 -->
<g id="node50" class="node">
<title>49</title>
<polygon fill="none" stroke="black" points="1028,-183 941,-183 941,-147 1028,-147 1028,-183"/>
<text text-anchor="middle" x="984.5" y="-161.3" font-family="Times,serif" font-size="14.00">class = USA</text>
</g>
<!-- 48&#45;&gt;49 -->
<g id="edge49" class="edge">
<title>48&#45;&gt;49</title>
<path fill="none" stroke="black" d="M986.74,-219.83C986.41,-211.89 986.02,-202.41 985.65,-193.63"/>
<polygon fill="black" stroke="black" points="989.14,-193.26 985.23,-183.42 982.15,-193.55 989.14,-193.26"/>
</g>
<!-- 50 -->
<g id="node51" class="node">
<title>50</title>
<polygon fill="none" stroke="black" points="1147,-183 1046,-183 1046,-147 1147,-147 1147,-183"/>
<text text-anchor="middle" x="1096.5" y="-161.3" font-family="Times,serif" font-size="14.00">class = Canada</text>
</g>
<!-- 48&#45;&gt;50 -->
<g id="edge50" class="edge">
<title>48&#45;&gt;50</title>
<path fill="none" stroke="black" d="M1015.01,-219.83C1029.24,-210.43 1046.76,-198.86 1061.91,-188.85"/>
<polygon fill="black" stroke="black" points="1064.09,-191.6 1070.5,-183.17 1060.23,-185.76 1064.09,-191.6"/>
</g>
</g>
</svg>
