<?xml version="1.0" encoding="UTF-8" standalone="no"?>
<!DOCTYPE svg PUBLIC "-//W3C//DTD SVG 1.1//EN"
 "http://www.w3.org/Graphics/SVG/1.1/DTD/svg11.dtd">
<!-- Generated by graphviz version 2.48.0 (0)
 -->
<!-- Title: Tree Pages: 1 -->
<svg width="1151pt" height="932pt"
 viewBox="0.00 0.00 1151.00 932.00" xmlns="http://www.w3.org/2000/svg" xmlns:xlink="http://www.w3.org/1999/xlink">
<g id="graph0" class="graph" transform="scale(1 1) rotate(0) translate(4 928)">
<title>Tree</title>
<polygon fill="white" stroke="transparent" points="-4,4 -4,-928 1147,-928 1147,4 -4,4"/>
<!-- 0 -->
<g id="node1" class="node">
<title>0</title>
<polygon fill="none" stroke="black" points="354.5,-924 248.5,-924 248.5,-886 354.5,-886 354.5,-924"/>
<text text-anchor="middle" x="301.5" y="-908.8" font-family="Times,serif" font-size="14.00">latitude &lt;= 42.9</text>
<text text-anchor="middle" x="301.5" y="-893.8" font-family="Times,serif" font-size="14.00">class = Canada</text>
</g>
<!-- 1 -->
<g id="node2" class="node">
<title>1</title>
<polygon fill="none" stroke="black" points="292.5,-850 172.5,-850 172.5,-812 292.5,-812 292.5,-850"/>
<text text-anchor="middle" x="232.5" y="-834.8" font-family="Times,serif" font-size="14.00">latitude &lt;= 42.096</text>
<text text-anchor="middle" x="232.5" y="-819.8" font-family="Times,serif" font-size="14.00">class = USA</text>
</g>
<!-- 0&#45;&gt;1 -->
<g id="edge1" class="edge">
<title>0&#45;&gt;1</title>
<path fill="none" stroke="black" d="M284.09,-885.83C275.98,-877.37 266.18,-867.15 257.32,-857.9"/>
<polygon fill="black" stroke="black" points="259.59,-855.21 250.15,-850.41 254.54,-860.05 259.59,-855.21"/>
<text text-anchor="middle" x="249.61" y="-871.71" font-family="Times,serif" font-size="14.00">True</text>
</g>
<!-- 6 -->
<g id="node7" class="node">
<title>6</title>
<polygon fill="none" stroke="black" points="430.5,-850 310.5,-850 310.5,-812 430.5,-812 430.5,-850"/>
<text text-anchor="middle" x="370.5" y="-834.8" font-family="Times,serif" font-size="14.00">latitude &lt;= 55.958</text>
<text text-anchor="middle" x="370.5" y="-819.8" font-family="Times,serif" font-size="14.00">class = Canada</text>
</g>
<!-- 0&#45;&gt;6 -->
<g id="edge6" class="edge">
<title>0&#45;&gt;6</title>
<path fill="none" stroke="black" d="M318.91,-885.83C327.02,-877.37 336.82,-867.15 345.68,-857.9"/>
<polygon fill="black" stroke="black" points="348.46,-860.05 352.85,-850.41 343.41,-855.21 348.46,-860.05"/>
<text text-anchor="middle" x="353.39" y="-871.71" font-family="Times,serif" font-size="14.00">False</text>
</g>
<!-- 2 -->
<g id="node3" class="node">
<title>2</title>
<polygon fill="none" stroke="black" points="156,-775 69,-775 69,-739 156,-739 156,-775"/>
<text text-anchor="middle" x="112.5" y="-753.3" font-family="Times,serif" font-size="14.00">class = USA</text>
</g>
<!-- 1&#45;&gt;2 -->
<g id="edge2" class="edge">
<title>1&#45;&gt;2</title>
<path fill="none" stroke="black" d="M202.22,-811.83C186.4,-802.34 166.9,-790.64 150.12,-780.57"/>
<polygon fill="black" stroke="black" points="151.49,-777.32 141.12,-775.17 147.89,-783.32 151.49,-777.32"/>
</g>
<!-- 3 -->
<g id="node4" class="node">
<title>3</title>
<polygon fill="none" stroke="black" points="294.5,-776 174.5,-776 174.5,-738 294.5,-738 294.5,-776"/>
<text text-anchor="middle" x="234.5" y="-760.8" font-family="Times,serif" font-size="14.00">latitude &lt;= 42.324</text>
<text text-anchor="middle" x="234.5" y="-745.8" font-family="Times,serif" font-size="14.00">class = USA</text>
</g>
<!-- 1&#45;&gt;3 -->
<g id="edge3" class="edge">
<title>1&#45;&gt;3</title>
<path fill="none" stroke="black" d="M233,-811.83C233.22,-804.13 233.47,-794.97 233.71,-786.42"/>
<polygon fill="black" stroke="black" points="237.21,-786.51 233.99,-776.41 230.21,-786.31 237.21,-786.51"/>
</g>
<!-- 4 -->
<g id="node5" class="node">
<title>4</title>
<polygon fill="none" stroke="black" points="174,-701 73,-701 73,-665 174,-665 174,-701"/>
<text text-anchor="middle" x="123.5" y="-679.3" font-family="Times,serif" font-size="14.00">class = Canada</text>
</g>
<!-- 3&#45;&gt;4 -->
<g id="edge4" class="edge">
<title>3&#45;&gt;4</title>
<path fill="none" stroke="black" d="M206.49,-737.83C191.99,-728.43 174.15,-716.86 158.73,-706.85"/>
<polygon fill="black" stroke="black" points="160.27,-703.68 149.97,-701.17 156.46,-709.55 160.27,-703.68"/>
</g>
<!-- 5 -->
<g id="node6" class="node">
<title>5</title>
<polygon fill="none" stroke="black" points="279,-701 192,-701 192,-665 279,-665 279,-701"/>
<text text-anchor="middle" x="235.5" y="-679.3" font-family="Times,serif" font-size="14.00">class = USA</text>
</g>
<!-- 3&#45;&gt;5 -->
<g id="edge5" class="edge">
<title>3&#45;&gt;5</title>
<path fill="none" stroke="black" d="M234.75,-737.83C234.86,-729.89 234.99,-720.41 235.12,-711.63"/>
<polygon fill="black" stroke="black" points="238.62,-711.47 235.26,-701.42 231.62,-711.37 238.62,-711.47"/>
</g>
<!-- 7 -->
<g id="node8" class="node">
<title>7</title>
<polygon fill="none" stroke="black" points="422.5,-776 316.5,-776 316.5,-738 422.5,-738 422.5,-776"/>
<text text-anchor="middle" x="369.5" y="-760.8" font-family="Times,serif" font-size="14.00">latitude &lt;= 49.0</text>
<text text-anchor="middle" x="369.5" y="-745.8" font-family="Times,serif" font-size="14.00">class = Canada</text>
</g>
<!-- 6&#45;&gt;7 -->
<g id="edge7" class="edge">
<title>6&#45;&gt;7</title>
<path fill="none" stroke="black" d="M370.25,-811.83C370.14,-804.13 370.01,-794.97 369.89,-786.42"/>
<polygon fill="black" stroke="black" points="373.39,-786.36 369.76,-776.41 366.4,-786.46 373.39,-786.36"/>
</g>
<!-- 56 -->
<g id="node57" class="node">
<title>56</title>
<polygon fill="none" stroke="black" points="528,-775 441,-775 441,-739 528,-739 528,-775"/>
<text text-anchor="middle" x="484.5" y="-753.3" font-family="Times,serif" font-size="14.00">class = USA</text>
</g>
<!-- 6&#45;&gt;56 -->
<g id="edge56" class="edge">
<title>6&#45;&gt;56</title>
<path fill="none" stroke="black" d="M399.27,-811.83C414.29,-802.34 432.82,-790.64 448.76,-780.57"/>
<polygon fill="black" stroke="black" points="450.73,-783.47 457.31,-775.17 446.99,-777.55 450.73,-783.47"/>
</g>
<!-- 8 -->
<g id="node9" class="node">
<title>8</title>
<polygon fill="none" stroke="black" points="436,-702 301,-702 301,-664 436,-664 436,-702"/>
<text text-anchor="middle" x="368.5" y="-686.8" font-family="Times,serif" font-size="14.00">longitude &lt;= &#45;94.582</text>
<text text-anchor="middle" x="368.5" y="-671.8" font-family="Times,serif" font-size="14.00">class = Canada</text>
</g>
<!-- 7&#45;&gt;8 -->
<g id="edge8" class="edge">
<title>7&#45;&gt;8</title>
<path fill="none" stroke="black" d="M369.25,-737.83C369.14,-730.13 369.01,-720.97 368.89,-712.42"/>
<polygon fill="black" stroke="black" points="372.39,-712.36 368.76,-702.41 365.4,-712.46 372.39,-712.36"/>
</g>
<!-- 55 -->
<g id="node56" class="node">
<title>55</title>
<polygon fill="none" stroke="black" points="555,-701 454,-701 454,-665 555,-665 555,-701"/>
<text text-anchor="middle" x="504.5" y="-679.3" font-family="Times,serif" font-size="14.00">class = Canada</text>
</g>
<!-- 7&#45;&gt;55 -->
<g id="edge55" class="edge">
<title>7&#45;&gt;55</title>
<path fill="none" stroke="black" d="M403.57,-737.83C421.69,-728.17 444.12,-716.2 463.22,-706.01"/>
<polygon fill="black" stroke="black" points="465.13,-708.97 472.3,-701.17 461.83,-702.79 465.13,-708.97"/>
</g>
<!-- 9 -->
<g id="node10" class="node">
<title>9</title>
<polygon fill="none" stroke="black" points="361.5,-628 219.5,-628 219.5,-590 361.5,-590 361.5,-628"/>
<text text-anchor="middle" x="290.5" y="-612.8" font-family="Times,serif" font-size="14.00">longitude &lt;= &#45;123.222</text>
<text text-anchor="middle" x="290.5" y="-597.8" font-family="Times,serif" font-size="14.00">class = USA</text>
</g>
<!-- 8&#45;&gt;9 -->
<g id="edge9" class="edge">
<title>8&#45;&gt;9</title>
<path fill="none" stroke="black" d="M348.82,-663.83C339.39,-655.13 327.96,-644.58 317.72,-635.13"/>
<polygon fill="black" stroke="black" points="319.9,-632.37 310.18,-628.16 315.15,-637.52 319.9,-632.37"/>
</g>
<!-- 12 -->
<g id="node13" class="node">
<title>12</title>
<polygon fill="none" stroke="black" points="515,-628 380,-628 380,-590 515,-590 515,-628"/>
<text text-anchor="middle" x="447.5" y="-612.8" font-family="Times,serif" font-size="14.00">longitude &lt;= &#45;69.246</text>
<text text-anchor="middle" x="447.5" y="-597.8" font-family="Times,serif" font-size="14.00">class = Canada</text>
</g>
<!-- 8&#45;&gt;12 -->
<g id="edge12" class="edge">
<title>8&#45;&gt;12</title>
<path fill="none" stroke="black" d="M388.44,-663.83C397.98,-655.13 409.56,-644.58 419.93,-635.13"/>
<polygon fill="black" stroke="black" points="422.54,-637.49 427.57,-628.16 417.82,-632.31 422.54,-637.49"/>
</g>
<!-- 10 -->
<g id="node11" class="node">
<title>10</title>
<polygon fill="none" stroke="black" points="238,-553 137,-553 137,-517 238,-517 238,-553"/>
<text text-anchor="middle" x="187.5" y="-531.3" font-family="Times,serif" font-size="14.00">class = Canada</text>
</g>
<!-- 9&#45;&gt;10 -->
<g id="edge10" class="edge">
<title>9&#45;&gt;10</title>
<path fill="none" stroke="black" d="M264.51,-589.83C251.18,-580.52 234.81,-569.07 220.59,-559.13"/>
<polygon fill="black" stroke="black" points="222.27,-556.03 212.06,-553.17 218.26,-561.77 222.27,-556.03"/>
</g>
<!-- 11 -->
<g id="node12" class="node">
<title>11</title>
<polygon fill="none" stroke="black" points="343,-553 256,-553 256,-517 343,-517 343,-553"/>
<text text-anchor="middle" x="299.5" y="-531.3" font-family="Times,serif" font-size="14.00">class = USA</text>
</g>
<!-- 9&#45;&gt;11 -->
<g id="edge11" class="edge">
<title>9&#45;&gt;11</title>
<path fill="none" stroke="black" d="M292.77,-589.83C293.76,-581.89 294.95,-572.41 296.05,-563.63"/>
<polygon fill="black" stroke="black" points="299.56,-563.77 297.32,-553.42 292.61,-562.91 299.56,-563.77"/>
</g>
<!-- 13 -->
<g id="node14" class="node">
<title>13</title>
<polygon fill="none" stroke="black" points="498.5,-554 378.5,-554 378.5,-516 498.5,-516 498.5,-554"/>
<text text-anchor="middle" x="438.5" y="-538.8" font-family="Times,serif" font-size="14.00">latitude &lt;= 43.093</text>
<text text-anchor="middle" x="438.5" y="-523.8" font-family="Times,serif" font-size="14.00">class = Canada</text>
</g>
<!-- 12&#45;&gt;13 -->
<g id="edge13" class="edge">
<title>12&#45;&gt;13</title>
<path fill="none" stroke="black" d="M445.23,-589.83C444.27,-582.13 443.12,-572.97 442.05,-564.42"/>
<polygon fill="black" stroke="black" points="445.52,-563.9 440.8,-554.41 438.57,-564.77 445.52,-563.9"/>
</g>
<!-- 36 -->
<g id="node37" class="node">
<title>36</title>
<polygon fill="none" stroke="black" points="822,-554 687,-554 687,-516 822,-516 822,-554"/>
<text text-anchor="middle" x="754.5" y="-538.8" font-family="Times,serif" font-size="14.00">longitude &lt;= &#45;66.952</text>
<text text-anchor="middle" x="754.5" y="-523.8" font-family="Times,serif" font-size="14.00">class = Canada</text>
</g>
<!-- 12&#45;&gt;36 -->
<g id="edge36" class="edge">
<title>12&#45;&gt;36</title>
<path fill="none" stroke="black" d="M515.25,-592.11C563.09,-580.89 627.3,-565.83 677.15,-554.14"/>
<polygon fill="black" stroke="black" points="677.98,-557.54 686.92,-551.85 676.39,-550.73 677.98,-557.54"/>
</g>
<!-- 14 -->
<g id="node15" class="node">
<title>14</title>
<polygon fill="none" stroke="black" points="233,-480 98,-480 98,-442 233,-442 233,-480"/>
<text text-anchor="middle" x="165.5" y="-464.8" font-family="Times,serif" font-size="14.00">longitude &lt;= &#45;81.845</text>
<text text-anchor="middle" x="165.5" y="-449.8" font-family="Times,serif" font-size="14.00">class = Canada</text>
</g>
<!-- 13&#45;&gt;14 -->
<g id="edge14" class="edge">
<title>13&#45;&gt;14</title>
<path fill="none" stroke="black" d="M378.25,-518.11C338.48,-507.62 286,-493.78 243.11,-482.47"/>
<polygon fill="black" stroke="black" points="243.83,-479.04 233.27,-479.87 242.05,-485.81 243.83,-479.04"/>
</g>
<!-- 19 -->
<g id="node20" class="node">
<title>19</title>
<polygon fill="none" stroke="black" points="498.5,-480 378.5,-480 378.5,-442 498.5,-442 498.5,-480"/>
<text text-anchor="middle" x="438.5" y="-464.8" font-family="Times,serif" font-size="14.00">latitude &lt;= 44.992</text>
<text text-anchor="middle" x="438.5" y="-449.8" font-family="Times,serif" font-size="14.00">class = Canada</text>
</g>
<!-- 13&#45;&gt;19 -->
<g id="edge19" class="edge">
<title>13&#45;&gt;19</title>
<path fill="none" stroke="black" d="M438.5,-515.83C438.5,-508.13 438.5,-498.97 438.5,-490.42"/>
<polygon fill="black" stroke="black" points="442,-490.41 438.5,-480.41 435,-490.41 442,-490.41"/>
</g>
<!-- 15 -->
<g id="node16" class="node">
<title>15</title>
<polygon fill="none" stroke="black" points="87,-405 0,-405 0,-369 87,-369 87,-405"/>
<text text-anchor="middle" x="43.5" y="-383.3" font-family="Times,serif" font-size="14.00">class = USA</text>
</g>
<!-- 14&#45;&gt;15 -->
<g id="edge15" class="edge">
<title>14&#45;&gt;15</title>
<path fill="none" stroke="black" d="M134.71,-441.83C118.48,-432.25 98.44,-420.42 81.27,-410.29"/>
<polygon fill="black" stroke="black" points="82.99,-407.24 72.6,-405.17 79.43,-413.27 82.99,-407.24"/>
</g>
<!-- 16 -->
<g id="node17" class="node">
<title>16</title>
<polygon fill="none" stroke="black" points="225.5,-406 105.5,-406 105.5,-368 225.5,-368 225.5,-406"/>
<text text-anchor="middle" x="165.5" y="-390.8" font-family="Times,serif" font-size="14.00">latitude &lt;= 43.039</text>
<text text-anchor="middle" x="165.5" y="-375.8" font-family="Times,serif" font-size="14.00">class = Canada</text>
</g>
<!-- 14&#45;&gt;16 -->
<g id="edge16" class="edge">
<title>14&#45;&gt;16</title>
<path fill="none" stroke="black" d="M165.5,-441.83C165.5,-434.13 165.5,-424.97 165.5,-416.42"/>
<polygon fill="black" stroke="black" points="169,-416.41 165.5,-406.41 162,-416.41 169,-416.41"/>
</g>
<!-- 17 -->
<g id="node18" class="node">
<title>17</title>
<polygon fill="none" stroke="black" points="104,-331 3,-331 3,-295 104,-295 104,-331"/>
<text text-anchor="middle" x="53.5" y="-309.3" font-family="Times,serif" font-size="14.00">class = Canada</text>
</g>
<!-- 16&#45;&gt;17 -->
<g id="edge17" class="edge">
<title>16&#45;&gt;17</title>
<path fill="none" stroke="black" d="M137.24,-367.83C122.61,-358.43 104.61,-346.86 89.05,-336.85"/>
<polygon fill="black" stroke="black" points="90.52,-333.63 80.21,-331.17 86.73,-339.52 90.52,-333.63"/>
</g>
<!-- 18 -->
<g id="node19" class="node">
<title>18</title>
<polygon fill="none" stroke="black" points="209,-331 122,-331 122,-295 209,-295 209,-331"/>
<text text-anchor="middle" x="165.5" y="-309.3" font-family="Times,serif" font-size="14.00">class = USA</text>
</g>
<!-- 16&#45;&gt;18 -->
<g id="edge18" class="edge">
<title>16&#45;&gt;18</title>
<path fill="none" stroke="black" d="M165.5,-367.83C165.5,-359.89 165.5,-350.41 165.5,-341.63"/>
<polygon fill="black" stroke="black" points="169,-341.42 165.5,-331.42 162,-341.42 169,-341.42"/>
</g>
<!-- 20 -->
<g id="node21" class="node">
<title>20</title>
<polygon fill="none" stroke="black" points="429.5,-406 309.5,-406 309.5,-368 429.5,-368 429.5,-406"/>
<text text-anchor="middle" x="369.5" y="-390.8" font-family="Times,serif" font-size="14.00">latitude &lt;= 44.542</text>
<text text-anchor="middle" x="369.5" y="-375.8" font-family="Times,serif" font-size="14.00">class = Canada</text>
</g>
<!-- 19&#45;&gt;20 -->
<g id="edge20" class="edge">
<title>19&#45;&gt;20</title>
<path fill="none" stroke="black" d="M421.09,-441.83C412.98,-433.37 403.18,-423.15 394.32,-413.9"/>
<polygon fill="black" stroke="black" points="396.59,-411.21 387.15,-406.41 391.54,-416.05 396.59,-411.21"/>
</g>
<!-- 35 -->
<g id="node36" class="node">
<title>35</title>
<polygon fill="none" stroke="black" points="549,-405 448,-405 448,-369 549,-369 549,-405"/>
<text text-anchor="middle" x="498.5" y="-383.3" font-family="Times,serif" font-size="14.00">class = Canada</text>
</g>
<!-- 19&#45;&gt;35 -->
<g id="edge35" class="edge">
<title>19&#45;&gt;35</title>
<path fill="none" stroke="black" d="M453.64,-441.83C460.84,-433.2 469.56,-422.73 477.39,-413.33"/>
<polygon fill="black" stroke="black" points="480.27,-415.34 483.99,-405.42 474.89,-410.86 480.27,-415.34"/>
</g>
<!-- 21 -->
<g id="node22" class="node">
<title>21</title>
<polygon fill="none" stroke="black" points="362,-332 227,-332 227,-294 362,-294 362,-332"/>
<text text-anchor="middle" x="294.5" y="-316.8" font-family="Times,serif" font-size="14.00">longitude &lt;= &#45;79.076</text>
<text text-anchor="middle" x="294.5" y="-301.8" font-family="Times,serif" font-size="14.00">class = Canada</text>
</g>
<!-- 20&#45;&gt;21 -->
<g id="edge21" class="edge">
<title>20&#45;&gt;21</title>
<path fill="none" stroke="black" d="M350.57,-367.83C341.51,-359.13 330.52,-348.58 320.67,-339.13"/>
<polygon fill="black" stroke="black" points="323.06,-336.56 313.42,-332.16 318.21,-341.61 323.06,-336.56"/>
</g>
<!-- 30 -->
<g id="node31" class="node">
<title>30</title>
<polygon fill="none" stroke="black" points="500.5,-332 380.5,-332 380.5,-294 500.5,-294 500.5,-332"/>
<text text-anchor="middle" x="440.5" y="-316.8" font-family="Times,serif" font-size="14.00">latitude &lt;= 44.706</text>
<text text-anchor="middle" x="440.5" y="-301.8" font-family="Times,serif" font-size="14.00">class = USA</text>
</g>
<!-- 20&#45;&gt;30 -->
<g id="edge30" class="edge">
<title>20&#45;&gt;30</title>
<path fill="none" stroke="black" d="M387.42,-367.83C395.84,-359.28 406.04,-348.94 415.24,-339.62"/>
<polygon fill="black" stroke="black" points="417.81,-341.99 422.34,-332.41 412.83,-337.08 417.81,-341.99"/>
</g>
<!-- 22 -->
<g id="node23" class="node">
<title>22</title>
<polygon fill="none" stroke="black" points="216,-257 115,-257 115,-221 216,-221 216,-257"/>
<text text-anchor="middle" x="165.5" y="-235.3" font-family="Times,serif" font-size="14.00">class = Canada</text>
</g>
<!-- 21&#45;&gt;22 -->
<g id="edge22" class="edge">
<title>21&#45;&gt;22</title>
<path fill="none" stroke="black" d="M261.95,-293.83C244.79,-284.25 223.59,-272.42 205.44,-262.29"/>
<polygon fill="black" stroke="black" points="206.7,-258.99 196.27,-257.17 203.29,-265.1 206.7,-258.99"/>
</g>
<!-- 23 -->
<g id="node24" class="node">
<title>23</title>
<polygon fill="none" stroke="black" points="354.5,-258 234.5,-258 234.5,-220 354.5,-220 354.5,-258"/>
<text text-anchor="middle" x="294.5" y="-242.8" font-family="Times,serif" font-size="14.00">latitude &lt;= 44.168</text>
<text text-anchor="middle" x="294.5" y="-227.8" font-family="Times,serif" font-size="14.00">class = Canada</text>
</g>
<!-- 21&#45;&gt;23 -->
<g id="edge23" class="edge">
<title>21&#45;&gt;23</title>
<path fill="none" stroke="black" d="M294.5,-293.83C294.5,-286.13 294.5,-276.97 294.5,-268.42"/>
<polygon fill="black" stroke="black" points="298,-268.41 294.5,-258.41 291,-268.41 298,-268.41"/>
</g>
<!-- 24 -->
<g id="node25" class="node">
<title>24</title>
<polygon fill="none" stroke="black" points="238.5,-184 110.5,-184 110.5,-146 238.5,-146 238.5,-184"/>
<text text-anchor="middle" x="174.5" y="-168.8" font-family="Times,serif" font-size="14.00">longitude &lt;= &#45;79.03</text>
<text text-anchor="middle" x="174.5" y="-153.8" font-family="Times,serif" font-size="14.00">class = USA</text>
</g>
<!-- 23&#45;&gt;24 -->
<g id="edge24" class="edge">
<title>23&#45;&gt;24</title>
<path fill="none" stroke="black" d="M264.22,-219.83C248.87,-210.62 230.05,-199.33 213.62,-189.47"/>
<polygon fill="black" stroke="black" points="215.15,-186.31 204.77,-184.16 211.55,-192.31 215.15,-186.31"/>
</g>
<!-- 29 -->
<g id="node30" class="node">
<title>29</title>
<polygon fill="none" stroke="black" points="358,-183 257,-183 257,-147 358,-147 358,-183"/>
<text text-anchor="middle" x="307.5" y="-161.3" font-family="Times,serif" font-size="14.00">class = Canada</text>
</g>
<!-- 23&#45;&gt;29 -->
<g id="edge29" class="edge">
<title>23&#45;&gt;29</title>
<path fill="none" stroke="black" d="M297.78,-219.83C299.23,-211.81 300.96,-202.2 302.56,-193.34"/>
<polygon fill="black" stroke="black" points="306.02,-193.88 304.36,-183.42 299.13,-192.64 306.02,-193.88"/>
</g>
<!-- 25 -->
<g id="node26" class="node">
<title>25</title>
<polygon fill="none" stroke="black" points="154,-109 67,-109 67,-73 154,-73 154,-109"/>
<text text-anchor="middle" x="110.5" y="-87.3" font-family="Times,serif" font-size="14.00">class = USA</text>
</g>
<!-- 24&#45;&gt;25 -->
<g id="edge25" class="edge">
<title>24&#45;&gt;25</title>
<path fill="none" stroke="black" d="M158.35,-145.83C150.6,-137.11 141.18,-126.52 132.76,-117.05"/>
<polygon fill="black" stroke="black" points="135.24,-114.57 125.98,-109.42 130.01,-119.22 135.24,-114.57"/>
</g>
<!-- 26 -->
<g id="node27" class="node">
<title>26</title>
<polygon fill="none" stroke="black" points="307,-110 172,-110 172,-72 307,-72 307,-110"/>
<text text-anchor="middle" x="239.5" y="-94.8" font-family="Times,serif" font-size="14.00">longitude &lt;= &#45;77.678</text>
<text text-anchor="middle" x="239.5" y="-79.8" font-family="Times,serif" font-size="14.00">class = Canada</text>
</g>
<!-- 24&#45;&gt;26 -->
<g id="edge26" class="edge">
<title>24&#45;&gt;26</title>
<path fill="none" stroke="black" d="M190.9,-145.83C198.54,-137.37 207.77,-127.15 216.12,-117.9"/>
<polygon fill="black" stroke="black" points="218.77,-120.18 222.88,-110.41 213.58,-115.49 218.77,-120.18"/>
</g>
<!-- 27 -->
<g id="node28" class="node">
<title>27</title>
<polygon fill="none" stroke="black" points="234,-36 133,-36 133,0 234,0 234,-36"/>
<text text-anchor="middle" x="183.5" y="-14.3" font-family="Times,serif" font-size="14.00">class = Canada</text>
</g>
<!-- 26&#45;&gt;27 -->
<g id="edge27" class="edge">
<title>26&#45;&gt;27</title>
<path fill="none" stroke="black" d="M225.08,-71.72C218.43,-63.29 210.43,-53.15 203.23,-44.02"/>
<polygon fill="black" stroke="black" points="205.85,-41.69 196.91,-36 200.36,-46.02 205.85,-41.69"/>
</g>
<!-- 28 -->
<g id="node29" class="node">
<title>28</title>
<polygon fill="none" stroke="black" points="339,-36 252,-36 252,0 339,0 339,-36"/>
<text text-anchor="middle" x="295.5" y="-14.3" font-family="Times,serif" font-size="14.00">class = USA</text>
</g>
<!-- 26&#45;&gt;28 -->
<g id="edge28" class="edge">
<title>26&#45;&gt;28</title>
<path fill="none" stroke="black" d="M253.92,-71.72C260.57,-63.29 268.57,-53.15 275.77,-44.02"/>
<polygon fill="black" stroke="black" points="278.64,-46.02 282.09,-36 273.15,-41.69 278.64,-46.02"/>
</g>
<!-- 31 -->
<g id="node32" class="node">
<title>31</title>
<polygon fill="none" stroke="black" points="460,-257 373,-257 373,-221 460,-221 460,-257"/>
<text text-anchor="middle" x="416.5" y="-235.3" font-family="Times,serif" font-size="14.00">class = USA</text>
</g>
<!-- 30&#45;&gt;31 -->
<g id="edge31" class="edge">
<title>30&#45;&gt;31</title>
<path fill="none" stroke="black" d="M434.44,-293.83C431.74,-285.72 428.5,-275.99 425.52,-267.05"/>
<polygon fill="black" stroke="black" points="428.79,-265.8 422.31,-257.42 422.15,-268.01 428.79,-265.8"/>
</g>
<!-- 32 -->
<g id="node33" class="node">
<title>32</title>
<polygon fill="none" stroke="black" points="613,-258 478,-258 478,-220 613,-220 613,-258"/>
<text text-anchor="middle" x="545.5" y="-242.8" font-family="Times,serif" font-size="14.00">longitude &lt;= &#45;84.392</text>
<text text-anchor="middle" x="545.5" y="-227.8" font-family="Times,serif" font-size="14.00">class = Canada</text>
</g>
<!-- 30&#45;&gt;32 -->
<g id="edge32" class="edge">
<title>30&#45;&gt;32</title>
<path fill="none" stroke="black" d="M467,-293.83C480.18,-284.79 496.28,-273.75 510.47,-264.02"/>
<polygon fill="black" stroke="black" points="512.74,-266.7 519.01,-258.16 508.79,-260.93 512.74,-266.7"/>
</g>
<!-- 33 -->
<g id="node34" class="node">
<title>33</title>
<polygon fill="none" stroke="black" points="486,-183 399,-183 399,-147 486,-147 486,-183"/>
<text text-anchor="middle" x="442.5" y="-161.3" font-family="Times,serif" font-size="14.00">class = USA</text>
</g>
<!-- 32&#45;&gt;33 -->
<g id="edge33" class="edge">
<title>32&#45;&gt;33</title>
<path fill="none" stroke="black" d="M519.51,-219.83C506.18,-210.52 489.81,-199.07 475.59,-189.13"/>
<polygon fill="black" stroke="black" points="477.27,-186.03 467.06,-183.17 473.26,-191.77 477.27,-186.03"/>
</g>
<!-- 34 -->
<g id="node35" class="node">
<title>34</title>
<polygon fill="none" stroke="black" points="605,-183 504,-183 504,-147 605,-147 605,-183"/>
<text text-anchor="middle" x="554.5" y="-161.3" font-family="Times,serif" font-size="14.00">class = Canada</text>
</g>
<!-- 32&#45;&gt;34 -->
<g id="edge34" class="edge">
<title>32&#45;&gt;34</title>
<path fill="none" stroke="black" d="M547.77,-219.83C548.76,-211.89 549.95,-202.41 551.05,-193.63"/>
<polygon fill="black" stroke="black" points="554.56,-193.77 552.32,-183.42 547.61,-192.91 554.56,-193.77"/>
</g>
<!-- 37 -->
<g id="node38" class="node">
<title>37</title>
<polygon fill="none" stroke="black" points="822,-480 687,-480 687,-442 822,-442 822,-480"/>
<text text-anchor="middle" x="754.5" y="-464.8" font-family="Times,serif" font-size="14.00">longitude &lt;= &#45;67.279</text>
<text text-anchor="middle" x="754.5" y="-449.8" font-family="Times,serif" font-size="14.00">class = USA</text>
</g>
<!-- 36&#45;&gt;37 -->
<g id="edge37" class="edge">
<title>36&#45;&gt;37</title>
<path fill="none" stroke="black" d="M754.5,-515.83C754.5,-508.13 754.5,-498.97 754.5,-490.42"/>
<polygon fill="black" stroke="black" points="758,-490.41 754.5,-480.41 751,-490.41 758,-490.41"/>
</g>
<!-- 54 -->
<g id="node55" class="node">
<title>54</title>
<polygon fill="none" stroke="black" points="941,-479 840,-479 840,-443 941,-443 941,-479"/>
<text text-anchor="middle" x="890.5" y="-457.3" font-family="Times,serif" font-size="14.00">class = Canada</text>
</g>
<!-- 36&#45;&gt;54 -->
<g id="edge54" class="edge">
<title>36&#45;&gt;54</title>
<path fill="none" stroke="black" d="M788.82,-515.83C807.16,-506.12 829.87,-494.1 849.18,-483.88"/>
<polygon fill="black" stroke="black" points="850.86,-486.94 858.07,-479.17 847.59,-480.76 850.86,-486.94"/>
</g>
<!-- 38 -->
<g id="node39" class="node">
<title>38</title>
<polygon fill="none" stroke="black" points="818.5,-406 690.5,-406 690.5,-368 818.5,-368 818.5,-406"/>
<text text-anchor="middle" x="754.5" y="-390.8" font-family="Times,serif" font-size="14.00">longitude &lt;= &#45;67.93</text>
<text text-anchor="middle" x="754.5" y="-375.8" font-family="Times,serif" font-size="14.00">class = Canada</text>
</g>
<!-- 37&#45;&gt;38 -->
<g id="edge38" class="edge">
<title>37&#45;&gt;38</title>
<path fill="none" stroke="black" d="M754.5,-441.83C754.5,-434.13 754.5,-424.97 754.5,-416.42"/>
<polygon fill="black" stroke="black" points="758,-416.41 754.5,-406.41 751,-416.41 758,-416.41"/>
</g>
<!-- 53 -->
<g id="node54" class="node">
<title>53</title>
<polygon fill="none" stroke="black" points="924,-405 837,-405 837,-369 924,-369 924,-405"/>
<text text-anchor="middle" x="880.5" y="-383.3" font-family="Times,serif" font-size="14.00">class = USA</text>
</g>
<!-- 37&#45;&gt;53 -->
<g id="edge53" class="edge">
<title>37&#45;&gt;53</title>
<path fill="none" stroke="black" d="M786.3,-441.83C803.06,-432.25 823.76,-420.42 841.49,-410.29"/>
<polygon fill="black" stroke="black" points="843.5,-413.17 850.45,-405.17 840.03,-407.09 843.5,-413.17"/>
</g>
<!-- 39 -->
<g id="node40" class="node">
<title>39</title>
<polygon fill="none" stroke="black" points="822,-332 687,-332 687,-294 822,-294 822,-332"/>
<text text-anchor="middle" x="754.5" y="-316.8" font-family="Times,serif" font-size="14.00">longitude &lt;= &#45;68.325</text>
<text text-anchor="middle" x="754.5" y="-301.8" font-family="Times,serif" font-size="14.00">class = USA</text>
</g>
<!-- 38&#45;&gt;39 -->
<g id="edge39" class="edge">
<title>38&#45;&gt;39</title>
<path fill="none" stroke="black" d="M754.5,-367.83C754.5,-360.13 754.5,-350.97 754.5,-342.42"/>
<polygon fill="black" stroke="black" points="758,-342.41 754.5,-332.41 751,-342.41 758,-342.41"/>
</g>
<!-- 48 -->
<g id="node49" class="node">
<title>48</title>
<polygon fill="none" stroke="black" points="1016.5,-332 896.5,-332 896.5,-294 1016.5,-294 1016.5,-332"/>
<text text-anchor="middle" x="956.5" y="-316.8" font-family="Times,serif" font-size="14.00">latitude &lt;= 45.565</text>
<text text-anchor="middle" x="956.5" y="-301.8" font-family="Times,serif" font-size="14.00">class = Canada</text>
</g>
<!-- 38&#45;&gt;48 -->
<g id="edge48" class="edge">
<title>38&#45;&gt;48</title>
<path fill="none" stroke="black" d="M805.21,-367.92C832.83,-358.08 867.18,-345.84 896.16,-335.51"/>
<polygon fill="black" stroke="black" points="897.52,-338.74 905.77,-332.08 895.17,-332.14 897.52,-338.74"/>
</g>
<!-- 40 -->
<g id="node41" class="node">
<title>40</title>
<polygon fill="none" stroke="black" points="766,-258 631,-258 631,-220 766,-220 766,-258"/>
<text text-anchor="middle" x="698.5" y="-242.8" font-family="Times,serif" font-size="14.00">longitude &lt;= &#45;68.915</text>
<text text-anchor="middle" x="698.5" y="-227.8" font-family="Times,serif" font-size="14.00">class = Canada</text>
</g>
<!-- 39&#45;&gt;40 -->
<g id="edge40" class="edge">
<title>39&#45;&gt;40</title>
<path fill="none" stroke="black" d="M740.37,-293.83C733.92,-285.54 726.16,-275.56 719.07,-266.45"/>
<polygon fill="black" stroke="black" points="721.72,-264.16 712.82,-258.41 716.2,-268.46 721.72,-264.16"/>
</g>
<!-- 47 -->
<g id="node48" class="node">
<title>47</title>
<polygon fill="none" stroke="black" points="871,-257 784,-257 784,-221 871,-221 871,-257"/>
<text text-anchor="middle" x="827.5" y="-235.3" font-family="Times,serif" font-size="14.00">class = USA</text>
</g>
<!-- 39&#45;&gt;47 -->
<g id="edge47" class="edge">
<title>39&#45;&gt;47</title>
<path fill="none" stroke="black" d="M772.92,-293.83C782.01,-284.87 793.1,-273.93 802.9,-264.26"/>
<polygon fill="black" stroke="black" points="805.43,-266.69 810.09,-257.17 800.51,-261.7 805.43,-266.69"/>
</g>
<!-- 41 -->
<g id="node42" class="node">
<title>41</title>
<polygon fill="none" stroke="black" points="730,-183 643,-183 643,-147 730,-147 730,-183"/>
<text text-anchor="middle" x="686.5" y="-161.3" font-family="Times,serif" font-size="14.00">class = USA</text>
</g>
<!-- 40&#45;&gt;41 -->
<g id="edge41" class="edge">
<title>40&#45;&gt;41</title>
<path fill="none" stroke="black" d="M695.47,-219.83C694.13,-211.81 692.53,-202.2 691.06,-193.34"/>
<polygon fill="black" stroke="black" points="694.5,-192.71 689.4,-183.42 687.59,-193.86 694.5,-192.71"/>
</g>
<!-- 42 -->
<g id="node43" class="node">
<title>42</title>
<polygon fill="none" stroke="black" points="868.5,-184 748.5,-184 748.5,-146 868.5,-146 868.5,-184"/>
<text text-anchor="middle" x="808.5" y="-168.8" font-family="Times,serif" font-size="14.00">latitude &lt;= 47.256</text>
<text text-anchor="middle" x="808.5" y="-153.8" font-family="Times,serif" font-size="14.00">class = Canada</text>
</g>
<!-- 40&#45;&gt;42 -->
<g id="edge42" class="edge">
<title>40&#45;&gt;42</title>
<path fill="none" stroke="black" d="M726.26,-219.83C740.2,-210.71 757.26,-199.54 772.22,-189.74"/>
<polygon fill="black" stroke="black" points="774.3,-192.57 780.75,-184.16 770.47,-186.71 774.3,-192.57"/>
</g>
<!-- 43 -->
<g id="node44" class="node">
<title>43</title>
<polygon fill="none" stroke="black" points="794,-109 693,-109 693,-73 794,-73 794,-109"/>
<text text-anchor="middle" x="743.5" y="-87.3" font-family="Times,serif" font-size="14.00">class = Canada</text>
</g>
<!-- 42&#45;&gt;43 -->
<g id="edge43" class="edge">
<title>42&#45;&gt;43</title>
<path fill="none" stroke="black" d="M792.1,-145.83C784.22,-137.11 774.66,-126.52 766.11,-117.05"/>
<polygon fill="black" stroke="black" points="768.52,-114.5 759.22,-109.42 763.33,-119.19 768.52,-114.5"/>
</g>
<!-- 44 -->
<g id="node45" class="node">
<title>44</title>
<polygon fill="none" stroke="black" points="932.5,-110 812.5,-110 812.5,-72 932.5,-72 932.5,-110"/>
<text text-anchor="middle" x="872.5" y="-94.8" font-family="Times,serif" font-size="14.00">latitude &lt;= 47.312</text>
<text text-anchor="middle" x="872.5" y="-79.8" font-family="Times,serif" font-size="14.00">class = Canada</text>
</g>
<!-- 42&#45;&gt;44 -->
<g id="edge44" class="edge">
<title>42&#45;&gt;44</title>
<path fill="none" stroke="black" d="M824.65,-145.83C832.17,-137.37 841.26,-127.15 849.48,-117.9"/>
<polygon fill="black" stroke="black" points="852.1,-120.21 856.13,-110.41 846.87,-115.56 852.1,-120.21"/>
</g>
<!-- 45 -->
<g id="node46" class="node">
<title>45</title>
<polygon fill="none" stroke="black" points="860,-36 773,-36 773,0 860,0 860,-36"/>
<text text-anchor="middle" x="816.5" y="-14.3" font-family="Times,serif" font-size="14.00">class = USA</text>
</g>
<!-- 44&#45;&gt;45 -->
<g id="edge45" class="edge">
<title>44&#45;&gt;45</title>
<path fill="none" stroke="black" d="M858.08,-71.72C851.43,-63.29 843.43,-53.15 836.23,-44.02"/>
<polygon fill="black" stroke="black" points="838.85,-41.69 829.91,-36 833.36,-46.02 838.85,-41.69"/>
</g>
<!-- 46 -->
<g id="node47" class="node">
<title>46</title>
<polygon fill="none" stroke="black" points="979,-36 878,-36 878,0 979,0 979,-36"/>
<text text-anchor="middle" x="928.5" y="-14.3" font-family="Times,serif" font-size="14.00">class = Canada</text>
</g>
<!-- 44&#45;&gt;46 -->
<g id="edge46" class="edge">
<title>44&#45;&gt;46</title>
<path fill="none" stroke="black" d="M886.92,-71.72C893.57,-63.29 901.57,-53.15 908.77,-44.02"/>
<polygon fill="black" stroke="black" points="911.64,-46.02 915.09,-36 906.15,-41.69 911.64,-46.02"/>
</g>
<!-- 49 -->
<g id="node50" class="node">
<title>49</title>
<polygon fill="none" stroke="black" points="1024,-258 889,-258 889,-220 1024,-220 1024,-258"/>
<text text-anchor="middle" x="956.5" y="-242.8" font-family="Times,serif" font-size="14.00">longitude &lt;= &#45;67.355</text>
<text text-anchor="middle" x="956.5" y="-227.8" font-family="Times,serif" font-size="14.00">class = Canada</text>
</g>
<!-- 48&#45;&gt;49 -->
<g id="edge49" class="edge">
<title>48&#45;&gt;49</title>
<path fill="none" stroke="black" d="M956.5,-293.83C956.5,-286.13 956.5,-276.97 956.5,-268.42"/>
<polygon fill="black" stroke="black" points="960,-268.41 956.5,-258.41 953,-268.41 960,-268.41"/>
</g>
<!-- 52 -->
<g id="node53" class="node">
<title>52</title>
<polygon fill="none" stroke="black" points="1143,-257 1042,-257 1042,-221 1143,-221 1143,-257"/>
<text text-anchor="middle" x="1092.5" y="-235.3" font-family="Times,serif" font-size="14.00">class = Canada</text>
</g>
<!-- 48&#45;&gt;52 -->
<g id="edge52" class="edge">
<title>48&#45;&gt;52</title>
<path fill="none" stroke="black" d="M990.82,-293.83C1009.16,-284.12 1031.87,-272.1 1051.18,-261.88"/>
<polygon fill="black" stroke="black" points="1052.86,-264.94 1060.07,-257.17 1049.59,-258.76 1052.86,-264.94"/>
</g>
<!-- 50 -->
<g id="node51" class="node">
<title>50</title>
<polygon fill="none" stroke="black" points="991,-183 904,-183 904,-147 991,-147 991,-183"/>
<text text-anchor="middle" x="947.5" y="-161.3" font-family="Times,serif" font-size="14.00">class = USA</text>
</g>
<!-- 49&#45;&gt;50 -->
<g id="edge50" class="edge">
<title>49&#45;&gt;50</title>
<path fill="none" stroke="black" d="M954.23,-219.83C953.24,-211.89 952.05,-202.41 950.95,-193.63"/>
<polygon fill="black" stroke="black" points="954.39,-192.91 949.68,-183.42 947.44,-193.77 954.39,-192.91"/>
</g>
<!-- 51 -->
<g id="node52" class="node">
<title>51</title>
<polygon fill="none" stroke="black" points="1110,-183 1009,-183 1009,-147 1110,-147 1110,-183"/>
<text text-anchor="middle" x="1059.5" y="-161.3" font-family="Times,serif" font-size="14.00">class = Canada</text>
</g>
<!-- 49&#45;&gt;51 -->
<g id="edge51" class="edge">
<title>49&#45;&gt;51</title>
<path fill="none" stroke="black" d="M982.49,-219.83C995.82,-210.52 1012.19,-199.07 1026.41,-189.13"/>
<polygon fill="black" stroke="black" points="1028.74,-191.77 1034.94,-183.17 1024.73,-186.03 1028.74,-191.77"/>
</g>
</g>
</svg>
