<?xml version="1.0" encoding="UTF-8" standalone="no"?>
<!DOCTYPE svg PUBLIC "-//W3C//DTD SVG 1.1//EN"
 "http://www.w3.org/Graphics/SVG/1.1/DTD/svg11.dtd">
<!-- Generated by graphviz version 2.48.0 (0)
 -->
<!-- Title: Tree Pages: 1 -->
<svg width="1179pt" height="932pt"
 viewBox="0.00 0.00 1179.00 932.00" xmlns="http://www.w3.org/2000/svg" xmlns:xlink="http://www.w3.org/1999/xlink">
<g id="graph0" class="graph" transform="scale(1 1) rotate(0) translate(4 928)">
<title>Tree</title>
<polygon fill="white" stroke="transparent" points="-4,4 -4,-928 1175,-928 1175,4 -4,4"/>
<!-- 0 -->
<g id="node1" class="node">
<title>0</title>
<polygon fill="none" stroke="black" points="285.5,-924 179.5,-924 179.5,-886 285.5,-886 285.5,-924"/>
<text text-anchor="middle" x="232.5" y="-908.8" font-family="Times,serif" font-size="14.00">latitude &lt;= 42.9</text>
<text text-anchor="middle" x="232.5" y="-893.8" font-family="Times,serif" font-size="14.00">class = Canada</text>
</g>
<!-- 1 -->
<g id="node2" class="node">
<title>1</title>
<polygon fill="none" stroke="black" points="223.5,-850 103.5,-850 103.5,-812 223.5,-812 223.5,-850"/>
<text text-anchor="middle" x="163.5" y="-834.8" font-family="Times,serif" font-size="14.00">latitude &lt;= 42.096</text>
<text text-anchor="middle" x="163.5" y="-819.8" font-family="Times,serif" font-size="14.00">class = USA</text>
</g>
<!-- 0&#45;&gt;1 -->
<g id="edge1" class="edge">
<title>0&#45;&gt;1</title>
<path fill="none" stroke="black" d="M215.09,-885.83C206.98,-877.37 197.18,-867.15 188.32,-857.9"/>
<polygon fill="black" stroke="black" points="190.59,-855.21 181.15,-850.41 185.54,-860.05 190.59,-855.21"/>
<text text-anchor="middle" x="180.61" y="-871.71" font-family="Times,serif" font-size="14.00">True</text>
</g>
<!-- 6 -->
<g id="node7" class="node">
<title>6</title>
<polygon fill="none" stroke="black" points="361.5,-850 241.5,-850 241.5,-812 361.5,-812 361.5,-850"/>
<text text-anchor="middle" x="301.5" y="-834.8" font-family="Times,serif" font-size="14.00">latitude &lt;= 55.958</text>
<text text-anchor="middle" x="301.5" y="-819.8" font-family="Times,serif" font-size="14.00">class = Canada</text>
</g>
<!-- 0&#45;&gt;6 -->
<g id="edge6" class="edge">
<title>0&#45;&gt;6</title>
<path fill="none" stroke="black" d="M249.91,-885.83C258.02,-877.37 267.82,-867.15 276.68,-857.9"/>
<polygon fill="black" stroke="black" points="279.46,-860.05 283.85,-850.41 274.41,-855.21 279.46,-860.05"/>
<text text-anchor="middle" x="284.39" y="-871.71" font-family="Times,serif" font-size="14.00">False</text>
</g>
<!-- 2 -->
<g id="node3" class="node">
<title>2</title>
<polygon fill="none" stroke="black" points="87,-775 0,-775 0,-739 87,-739 87,-775"/>
<text text-anchor="middle" x="43.5" y="-753.3" font-family="Times,serif" font-size="14.00">class = USA</text>
</g>
<!-- 1&#45;&gt;2 -->
<g id="edge2" class="edge">
<title>1&#45;&gt;2</title>
<path fill="none" stroke="black" d="M133.22,-811.83C117.4,-802.34 97.9,-790.64 81.12,-780.57"/>
<polygon fill="black" stroke="black" points="82.49,-777.32 72.12,-775.17 78.89,-783.32 82.49,-777.32"/>
</g>
<!-- 3 -->
<g id="node4" class="node">
<title>3</title>
<polygon fill="none" stroke="black" points="225.5,-776 105.5,-776 105.5,-738 225.5,-738 225.5,-776"/>
<text text-anchor="middle" x="165.5" y="-760.8" font-family="Times,serif" font-size="14.00">latitude &lt;= 42.324</text>
<text text-anchor="middle" x="165.5" y="-745.8" font-family="Times,serif" font-size="14.00">class = USA</text>
</g>
<!-- 1&#45;&gt;3 -->
<g id="edge3" class="edge">
<title>1&#45;&gt;3</title>
<path fill="none" stroke="black" d="M164,-811.83C164.22,-804.13 164.47,-794.97 164.71,-786.42"/>
<polygon fill="black" stroke="black" points="168.21,-786.51 164.99,-776.41 161.21,-786.31 168.21,-786.51"/>
</g>
<!-- 4 -->
<g id="node5" class="node">
<title>4</title>
<polygon fill="none" stroke="black" points="105,-701 4,-701 4,-665 105,-665 105,-701"/>
<text text-anchor="middle" x="54.5" y="-679.3" font-family="Times,serif" font-size="14.00">class = Canada</text>
</g>
<!-- 3&#45;&gt;4 -->
<g id="edge4" class="edge">
<title>3&#45;&gt;4</title>
<path fill="none" stroke="black" d="M137.49,-737.83C122.99,-728.43 105.15,-716.86 89.73,-706.85"/>
<polygon fill="black" stroke="black" points="91.27,-703.68 80.97,-701.17 87.46,-709.55 91.27,-703.68"/>
</g>
<!-- 5 -->
<g id="node6" class="node">
<title>5</title>
<polygon fill="none" stroke="black" points="210,-701 123,-701 123,-665 210,-665 210,-701"/>
<text text-anchor="middle" x="166.5" y="-679.3" font-family="Times,serif" font-size="14.00">class = USA</text>
</g>
<!-- 3&#45;&gt;5 -->
<g id="edge5" class="edge">
<title>3&#45;&gt;5</title>
<path fill="none" stroke="black" d="M165.75,-737.83C165.86,-729.89 165.99,-720.41 166.12,-711.63"/>
<polygon fill="black" stroke="black" points="169.62,-711.47 166.26,-701.42 162.62,-711.37 169.62,-711.47"/>
</g>
<!-- 7 -->
<g id="node8" class="node">
<title>7</title>
<polygon fill="none" stroke="black" points="353.5,-776 247.5,-776 247.5,-738 353.5,-738 353.5,-776"/>
<text text-anchor="middle" x="300.5" y="-760.8" font-family="Times,serif" font-size="14.00">latitude &lt;= 49.0</text>
<text text-anchor="middle" x="300.5" y="-745.8" font-family="Times,serif" font-size="14.00">class = Canada</text>
</g>
<!-- 6&#45;&gt;7 -->
<g id="edge7" class="edge">
<title>6&#45;&gt;7</title>
<path fill="none" stroke="black" d="M301.25,-811.83C301.14,-804.13 301.01,-794.97 300.89,-786.42"/>
<polygon fill="black" stroke="black" points="304.39,-786.36 300.76,-776.41 297.4,-786.46 304.39,-786.36"/>
</g>
<!-- 54 -->
<g id="node55" class="node">
<title>54</title>
<polygon fill="none" stroke="black" points="459,-775 372,-775 372,-739 459,-739 459,-775"/>
<text text-anchor="middle" x="415.5" y="-753.3" font-family="Times,serif" font-size="14.00">class = USA</text>
</g>
<!-- 6&#45;&gt;54 -->
<g id="edge54" class="edge">
<title>6&#45;&gt;54</title>
<path fill="none" stroke="black" d="M330.27,-811.83C345.29,-802.34 363.82,-790.64 379.76,-780.57"/>
<polygon fill="black" stroke="black" points="381.73,-783.47 388.31,-775.17 377.99,-777.55 381.73,-783.47"/>
</g>
<!-- 8 -->
<g id="node9" class="node">
<title>8</title>
<polygon fill="none" stroke="black" points="367,-702 232,-702 232,-664 367,-664 367,-702"/>
<text text-anchor="middle" x="299.5" y="-686.8" font-family="Times,serif" font-size="14.00">longitude &lt;= &#45;94.582</text>
<text text-anchor="middle" x="299.5" y="-671.8" font-family="Times,serif" font-size="14.00">class = Canada</text>
</g>
<!-- 7&#45;&gt;8 -->
<g id="edge8" class="edge">
<title>7&#45;&gt;8</title>
<path fill="none" stroke="black" d="M300.25,-737.83C300.14,-730.13 300.01,-720.97 299.89,-712.42"/>
<polygon fill="black" stroke="black" points="303.39,-712.36 299.76,-702.41 296.4,-712.46 303.39,-712.36"/>
</g>
<!-- 53 -->
<g id="node54" class="node">
<title>53</title>
<polygon fill="none" stroke="black" points="486,-701 385,-701 385,-665 486,-665 486,-701"/>
<text text-anchor="middle" x="435.5" y="-679.3" font-family="Times,serif" font-size="14.00">class = Canada</text>
</g>
<!-- 7&#45;&gt;53 -->
<g id="edge53" class="edge">
<title>7&#45;&gt;53</title>
<path fill="none" stroke="black" d="M334.57,-737.83C352.69,-728.17 375.12,-716.2 394.22,-706.01"/>
<polygon fill="black" stroke="black" points="396.13,-708.97 403.3,-701.17 392.83,-702.79 396.13,-708.97"/>
</g>
<!-- 9 -->
<g id="node10" class="node">
<title>9</title>
<polygon fill="none" stroke="black" points="292.5,-628 150.5,-628 150.5,-590 292.5,-590 292.5,-628"/>
<text text-anchor="middle" x="221.5" y="-612.8" font-family="Times,serif" font-size="14.00">longitude &lt;= &#45;123.222</text>
<text text-anchor="middle" x="221.5" y="-597.8" font-family="Times,serif" font-size="14.00">class = USA</text>
</g>
<!-- 8&#45;&gt;9 -->
<g id="edge9" class="edge">
<title>8&#45;&gt;9</title>
<path fill="none" stroke="black" d="M279.82,-663.83C270.39,-655.13 258.96,-644.58 248.72,-635.13"/>
<polygon fill="black" stroke="black" points="250.9,-632.37 241.18,-628.16 246.15,-637.52 250.9,-632.37"/>
</g>
<!-- 12 -->
<g id="node13" class="node">
<title>12</title>
<polygon fill="none" stroke="black" points="446,-628 311,-628 311,-590 446,-590 446,-628"/>
<text text-anchor="middle" x="378.5" y="-612.8" font-family="Times,serif" font-size="14.00">longitude &lt;= &#45;69.246</text>
<text text-anchor="middle" x="378.5" y="-597.8" font-family="Times,serif" font-size="14.00">class = Canada</text>
</g>
<!-- 8&#45;&gt;12 -->
<g id="edge12" class="edge">
<title>8&#45;&gt;12</title>
<path fill="none" stroke="black" d="M319.44,-663.83C328.98,-655.13 340.56,-644.58 350.93,-635.13"/>
<polygon fill="black" stroke="black" points="353.54,-637.49 358.57,-628.16 348.82,-632.31 353.54,-637.49"/>
</g>
<!-- 10 -->
<g id="node11" class="node">
<title>10</title>
<polygon fill="none" stroke="black" points="169,-553 68,-553 68,-517 169,-517 169,-553"/>
<text text-anchor="middle" x="118.5" y="-531.3" font-family="Times,serif" font-size="14.00">class = Canada</text>
</g>
<!-- 9&#45;&gt;10 -->
<g id="edge10" class="edge">
<title>9&#45;&gt;10</title>
<path fill="none" stroke="black" d="M195.51,-589.83C182.18,-580.52 165.81,-569.07 151.59,-559.13"/>
<polygon fill="black" stroke="black" points="153.27,-556.03 143.06,-553.17 149.26,-561.77 153.27,-556.03"/>
</g>
<!-- 11 -->
<g id="node12" class="node">
<title>11</title>
<polygon fill="none" stroke="black" points="274,-553 187,-553 187,-517 274,-517 274,-553"/>
<text text-anchor="middle" x="230.5" y="-531.3" font-family="Times,serif" font-size="14.00">class = USA</text>
</g>
<!-- 9&#45;&gt;11 -->
<g id="edge11" class="edge">
<title>9&#45;&gt;11</title>
<path fill="none" stroke="black" d="M223.77,-589.83C224.76,-581.89 225.95,-572.41 227.05,-563.63"/>
<polygon fill="black" stroke="black" points="230.56,-563.77 228.32,-553.42 223.61,-562.91 230.56,-563.77"/>
</g>
<!-- 13 -->
<g id="node14" class="node">
<title>13</title>
<polygon fill="none" stroke="black" points="429.5,-554 309.5,-554 309.5,-516 429.5,-516 429.5,-554"/>
<text text-anchor="middle" x="369.5" y="-538.8" font-family="Times,serif" font-size="14.00">latitude &lt;= 43.093</text>
<text text-anchor="middle" x="369.5" y="-523.8" font-family="Times,serif" font-size="14.00">class = Canada</text>
</g>
<!-- 12&#45;&gt;13 -->
<g id="edge13" class="edge">
<title>12&#45;&gt;13</title>
<path fill="none" stroke="black" d="M376.23,-589.83C375.27,-582.13 374.12,-572.97 373.05,-564.42"/>
<polygon fill="black" stroke="black" points="376.52,-563.9 371.8,-554.41 369.57,-564.77 376.52,-563.9"/>
</g>
<!-- 36 -->
<g id="node37" class="node">
<title>36</title>
<polygon fill="none" stroke="black" points="680,-554 545,-554 545,-516 680,-516 680,-554"/>
<text text-anchor="middle" x="612.5" y="-538.8" font-family="Times,serif" font-size="14.00">longitude &lt;= &#45;66.952</text>
<text text-anchor="middle" x="612.5" y="-523.8" font-family="Times,serif" font-size="14.00">class = Canada</text>
</g>
<!-- 12&#45;&gt;36 -->
<g id="edge36" class="edge">
<title>12&#45;&gt;36</title>
<path fill="none" stroke="black" d="M437.25,-589.92C469.65,-579.95 510.06,-567.52 543.91,-557.1"/>
<polygon fill="black" stroke="black" points="545.2,-560.37 553.73,-554.08 543.14,-553.68 545.2,-560.37"/>
</g>
<!-- 14 -->
<g id="node15" class="node">
<title>14</title>
<polygon fill="none" stroke="black" points="288,-480 153,-480 153,-442 288,-442 288,-480"/>
<text text-anchor="middle" x="220.5" y="-464.8" font-family="Times,serif" font-size="14.00">longitude &lt;= &#45;81.845</text>
<text text-anchor="middle" x="220.5" y="-449.8" font-family="Times,serif" font-size="14.00">class = Canada</text>
</g>
<!-- 13&#45;&gt;14 -->
<g id="edge14" class="edge">
<title>13&#45;&gt;14</title>
<path fill="none" stroke="black" d="M331.9,-515.83C312.15,-506.29 287.77,-494.51 266.86,-484.4"/>
<polygon fill="black" stroke="black" points="268.36,-481.24 257.83,-480.04 265.31,-487.54 268.36,-481.24"/>
</g>
<!-- 19 -->
<g id="node20" class="node">
<title>19</title>
<polygon fill="none" stroke="black" points="429.5,-480 309.5,-480 309.5,-442 429.5,-442 429.5,-480"/>
<text text-anchor="middle" x="369.5" y="-464.8" font-family="Times,serif" font-size="14.00">latitude &lt;= 44.992</text>
<text text-anchor="middle" x="369.5" y="-449.8" font-family="Times,serif" font-size="14.00">class = Canada</text>
</g>
<!-- 13&#45;&gt;19 -->
<g id="edge19" class="edge">
<title>13&#45;&gt;19</title>
<path fill="none" stroke="black" d="M369.5,-515.83C369.5,-508.13 369.5,-498.97 369.5,-490.42"/>
<polygon fill="black" stroke="black" points="373,-490.41 369.5,-480.41 366,-490.41 373,-490.41"/>
</g>
<!-- 15 -->
<g id="node16" class="node">
<title>15</title>
<polygon fill="none" stroke="black" points="142,-405 55,-405 55,-369 142,-369 142,-405"/>
<text text-anchor="middle" x="98.5" y="-383.3" font-family="Times,serif" font-size="14.00">class = USA</text>
</g>
<!-- 14&#45;&gt;15 -->
<g id="edge15" class="edge">
<title>14&#45;&gt;15</title>
<path fill="none" stroke="black" d="M189.71,-441.83C173.48,-432.25 153.44,-420.42 136.27,-410.29"/>
<polygon fill="black" stroke="black" points="137.99,-407.24 127.6,-405.17 134.43,-413.27 137.99,-407.24"/>
</g>
<!-- 16 -->
<g id="node17" class="node">
<title>16</title>
<polygon fill="none" stroke="black" points="280.5,-406 160.5,-406 160.5,-368 280.5,-368 280.5,-406"/>
<text text-anchor="middle" x="220.5" y="-390.8" font-family="Times,serif" font-size="14.00">latitude &lt;= 43.039</text>
<text text-anchor="middle" x="220.5" y="-375.8" font-family="Times,serif" font-size="14.00">class = Canada</text>
</g>
<!-- 14&#45;&gt;16 -->
<g id="edge16" class="edge">
<title>14&#45;&gt;16</title>
<path fill="none" stroke="black" d="M220.5,-441.83C220.5,-434.13 220.5,-424.97 220.5,-416.42"/>
<polygon fill="black" stroke="black" points="224,-416.41 220.5,-406.41 217,-416.41 224,-416.41"/>
</g>
<!-- 17 -->
<g id="node18" class="node">
<title>17</title>
<polygon fill="none" stroke="black" points="159,-331 58,-331 58,-295 159,-295 159,-331"/>
<text text-anchor="middle" x="108.5" y="-309.3" font-family="Times,serif" font-size="14.00">class = Canada</text>
</g>
<!-- 16&#45;&gt;17 -->
<g id="edge17" class="edge">
<title>16&#45;&gt;17</title>
<path fill="none" stroke="black" d="M192.24,-367.83C177.61,-358.43 159.61,-346.86 144.05,-336.85"/>
<polygon fill="black" stroke="black" points="145.52,-333.63 135.21,-331.17 141.73,-339.52 145.52,-333.63"/>
</g>
<!-- 18 -->
<g id="node19" class="node">
<title>18</title>
<polygon fill="none" stroke="black" points="264,-331 177,-331 177,-295 264,-295 264,-331"/>
<text text-anchor="middle" x="220.5" y="-309.3" font-family="Times,serif" font-size="14.00">class = USA</text>
</g>
<!-- 16&#45;&gt;18 -->
<g id="edge18" class="edge">
<title>16&#45;&gt;18</title>
<path fill="none" stroke="black" d="M220.5,-367.83C220.5,-359.89 220.5,-350.41 220.5,-341.63"/>
<polygon fill="black" stroke="black" points="224,-341.42 220.5,-331.42 217,-341.42 224,-341.42"/>
</g>
<!-- 20 -->
<g id="node21" class="node">
<title>20</title>
<polygon fill="none" stroke="black" points="424.5,-406 304.5,-406 304.5,-368 424.5,-368 424.5,-406"/>
<text text-anchor="middle" x="364.5" y="-390.8" font-family="Times,serif" font-size="14.00">latitude &lt;= 44.542</text>
<text text-anchor="middle" x="364.5" y="-375.8" font-family="Times,serif" font-size="14.00">class = Canada</text>
</g>
<!-- 19&#45;&gt;20 -->
<g id="edge20" class="edge">
<title>19&#45;&gt;20</title>
<path fill="none" stroke="black" d="M368.24,-441.83C367.7,-434.13 367.07,-424.97 366.47,-416.42"/>
<polygon fill="black" stroke="black" points="369.96,-416.15 365.78,-406.41 362.98,-416.63 369.96,-416.15"/>
</g>
<!-- 35 -->
<g id="node36" class="node">
<title>35</title>
<polygon fill="none" stroke="black" points="544,-405 443,-405 443,-369 544,-369 544,-405"/>
<text text-anchor="middle" x="493.5" y="-383.3" font-family="Times,serif" font-size="14.00">class = Canada</text>
</g>
<!-- 19&#45;&gt;35 -->
<g id="edge35" class="edge">
<title>19&#45;&gt;35</title>
<path fill="none" stroke="black" d="M400.79,-441.83C417.29,-432.25 437.66,-420.42 455.11,-410.29"/>
<polygon fill="black" stroke="black" points="457.04,-413.22 463.93,-405.17 453.52,-407.17 457.04,-413.22"/>
</g>
<!-- 21 -->
<g id="node22" class="node">
<title>21</title>
<polygon fill="none" stroke="black" points="417,-332 282,-332 282,-294 417,-294 417,-332"/>
<text text-anchor="middle" x="349.5" y="-316.8" font-family="Times,serif" font-size="14.00">longitude &lt;= &#45;79.076</text>
<text text-anchor="middle" x="349.5" y="-301.8" font-family="Times,serif" font-size="14.00">class = Canada</text>
</g>
<!-- 20&#45;&gt;21 -->
<g id="edge21" class="edge">
<title>20&#45;&gt;21</title>
<path fill="none" stroke="black" d="M360.71,-367.83C359.11,-360.13 357.2,-350.97 355.42,-342.42"/>
<polygon fill="black" stroke="black" points="358.8,-341.49 353.34,-332.41 351.95,-342.92 358.8,-341.49"/>
</g>
<!-- 30 -->
<g id="node31" class="node">
<title>30</title>
<polygon fill="none" stroke="black" points="555.5,-332 435.5,-332 435.5,-294 555.5,-294 555.5,-332"/>
<text text-anchor="middle" x="495.5" y="-316.8" font-family="Times,serif" font-size="14.00">latitude &lt;= 44.706</text>
<text text-anchor="middle" x="495.5" y="-301.8" font-family="Times,serif" font-size="14.00">class = USA</text>
</g>
<!-- 20&#45;&gt;30 -->
<g id="edge30" class="edge">
<title>20&#45;&gt;30</title>
<path fill="none" stroke="black" d="M397.56,-367.83C414.47,-358.54 435.24,-347.12 453.29,-337.2"/>
<polygon fill="black" stroke="black" points="455.38,-340.05 462.45,-332.16 452,-333.91 455.38,-340.05"/>
</g>
<!-- 22 -->
<g id="node23" class="node">
<title>22</title>
<polygon fill="none" stroke="black" points="271,-257 170,-257 170,-221 271,-221 271,-257"/>
<text text-anchor="middle" x="220.5" y="-235.3" font-family="Times,serif" font-size="14.00">class = Canada</text>
</g>
<!-- 21&#45;&gt;22 -->
<g id="edge22" class="edge">
<title>21&#45;&gt;22</title>
<path fill="none" stroke="black" d="M316.95,-293.83C299.79,-284.25 278.59,-272.42 260.44,-262.29"/>
<polygon fill="black" stroke="black" points="261.7,-258.99 251.27,-257.17 258.29,-265.1 261.7,-258.99"/>
</g>
<!-- 23 -->
<g id="node24" class="node">
<title>23</title>
<polygon fill="none" stroke="black" points="409.5,-258 289.5,-258 289.5,-220 409.5,-220 409.5,-258"/>
<text text-anchor="middle" x="349.5" y="-242.8" font-family="Times,serif" font-size="14.00">latitude &lt;= 44.168</text>
<text text-anchor="middle" x="349.5" y="-227.8" font-family="Times,serif" font-size="14.00">class = Canada</text>
</g>
<!-- 21&#45;&gt;23 -->
<g id="edge23" class="edge">
<title>21&#45;&gt;23</title>
<path fill="none" stroke="black" d="M349.5,-293.83C349.5,-286.13 349.5,-276.97 349.5,-268.42"/>
<polygon fill="black" stroke="black" points="353,-268.41 349.5,-258.41 346,-268.41 353,-268.41"/>
</g>
<!-- 24 -->
<g id="node25" class="node">
<title>24</title>
<polygon fill="none" stroke="black" points="294,-184 175,-184 175,-146 294,-146 294,-184"/>
<text text-anchor="middle" x="234.5" y="-168.8" font-family="Times,serif" font-size="14.00">latitude &lt;= 43.511</text>
<text text-anchor="middle" x="234.5" y="-153.8" font-family="Times,serif" font-size="14.00">class = USA</text>
</g>
<!-- 23&#45;&gt;24 -->
<g id="edge24" class="edge">
<title>23&#45;&gt;24</title>
<path fill="none" stroke="black" d="M320.48,-219.83C305.77,-210.62 287.74,-199.33 271.99,-189.47"/>
<polygon fill="black" stroke="black" points="273.84,-186.5 263.51,-184.16 270.13,-192.44 273.84,-186.5"/>
</g>
<!-- 29 -->
<g id="node30" class="node">
<title>29</title>
<polygon fill="none" stroke="black" points="413,-183 312,-183 312,-147 413,-147 413,-183"/>
<text text-anchor="middle" x="362.5" y="-161.3" font-family="Times,serif" font-size="14.00">class = Canada</text>
</g>
<!-- 23&#45;&gt;29 -->
<g id="edge29" class="edge">
<title>23&#45;&gt;29</title>
<path fill="none" stroke="black" d="M352.78,-219.83C354.23,-211.81 355.96,-202.2 357.56,-193.34"/>
<polygon fill="black" stroke="black" points="361.02,-193.88 359.36,-183.42 354.13,-192.64 361.02,-193.88"/>
</g>
<!-- 25 -->
<g id="node26" class="node">
<title>25</title>
<polygon fill="none" stroke="black" points="217,-109 130,-109 130,-73 217,-73 217,-109"/>
<text text-anchor="middle" x="173.5" y="-87.3" font-family="Times,serif" font-size="14.00">class = USA</text>
</g>
<!-- 24&#45;&gt;25 -->
<g id="edge25" class="edge">
<title>24&#45;&gt;25</title>
<path fill="none" stroke="black" d="M219.11,-145.83C211.79,-137.2 202.92,-126.73 194.96,-117.33"/>
<polygon fill="black" stroke="black" points="197.39,-114.79 188.26,-109.42 192.05,-119.31 197.39,-114.79"/>
</g>
<!-- 26 -->
<g id="node27" class="node">
<title>26</title>
<polygon fill="none" stroke="black" points="355.5,-110 235.5,-110 235.5,-72 355.5,-72 355.5,-110"/>
<text text-anchor="middle" x="295.5" y="-94.8" font-family="Times,serif" font-size="14.00">latitude &lt;= 43.988</text>
<text text-anchor="middle" x="295.5" y="-79.8" font-family="Times,serif" font-size="14.00">class = Canada</text>
</g>
<!-- 24&#45;&gt;26 -->
<g id="edge26" class="edge">
<title>24&#45;&gt;26</title>
<path fill="none" stroke="black" d="M249.89,-145.83C256.99,-137.45 265.55,-127.35 273.32,-118.17"/>
<polygon fill="black" stroke="black" points="276.11,-120.31 279.9,-110.41 270.77,-115.78 276.11,-120.31"/>
</g>
<!-- 27 -->
<g id="node28" class="node">
<title>27</title>
<polygon fill="none" stroke="black" points="290,-36 189,-36 189,0 290,0 290,-36"/>
<text text-anchor="middle" x="239.5" y="-14.3" font-family="Times,serif" font-size="14.00">class = Canada</text>
</g>
<!-- 26&#45;&gt;27 -->
<g id="edge27" class="edge">
<title>26&#45;&gt;27</title>
<path fill="none" stroke="black" d="M281.08,-71.72C274.43,-63.29 266.43,-53.15 259.23,-44.02"/>
<polygon fill="black" stroke="black" points="261.85,-41.69 252.91,-36 256.36,-46.02 261.85,-41.69"/>
</g>
<!-- 28 -->
<g id="node29" class="node">
<title>28</title>
<polygon fill="none" stroke="black" points="395,-36 308,-36 308,0 395,0 395,-36"/>
<text text-anchor="middle" x="351.5" y="-14.3" font-family="Times,serif" font-size="14.00">class = USA</text>
</g>
<!-- 26&#45;&gt;28 -->
<g id="edge28" class="edge">
<title>26&#45;&gt;28</title>
<path fill="none" stroke="black" d="M309.92,-71.72C316.57,-63.29 324.57,-53.15 331.77,-44.02"/>
<polygon fill="black" stroke="black" points="334.64,-46.02 338.09,-36 329.15,-41.69 334.64,-46.02"/>
</g>
<!-- 31 -->
<g id="node32" class="node">
<title>31</title>
<polygon fill="none" stroke="black" points="515,-257 428,-257 428,-221 515,-221 515,-257"/>
<text text-anchor="middle" x="471.5" y="-235.3" font-family="Times,serif" font-size="14.00">class = USA</text>
</g>
<!-- 30&#45;&gt;31 -->
<g id="edge31" class="edge">
<title>30&#45;&gt;31</title>
<path fill="none" stroke="black" d="M489.44,-293.83C486.74,-285.72 483.5,-275.99 480.52,-267.05"/>
<polygon fill="black" stroke="black" points="483.79,-265.8 477.31,-257.42 477.15,-268.01 483.79,-265.8"/>
</g>
<!-- 32 -->
<g id="node33" class="node">
<title>32</title>
<polygon fill="none" stroke="black" points="668,-258 533,-258 533,-220 668,-220 668,-258"/>
<text text-anchor="middle" x="600.5" y="-242.8" font-family="Times,serif" font-size="14.00">longitude &lt;= &#45;84.392</text>
<text text-anchor="middle" x="600.5" y="-227.8" font-family="Times,serif" font-size="14.00">class = Canada</text>
</g>
<!-- 30&#45;&gt;32 -->
<g id="edge32" class="edge">
<title>30&#45;&gt;32</title>
<path fill="none" stroke="black" d="M522,-293.83C535.18,-284.79 551.28,-273.75 565.47,-264.02"/>
<polygon fill="black" stroke="black" points="567.74,-266.7 574.01,-258.16 563.79,-260.93 567.74,-266.7"/>
</g>
<!-- 33 -->
<g id="node34" class="node">
<title>33</title>
<polygon fill="none" stroke="black" points="532,-183 445,-183 445,-147 532,-147 532,-183"/>
<text text-anchor="middle" x="488.5" y="-161.3" font-family="Times,serif" font-size="14.00">class = USA</text>
</g>
<!-- 32&#45;&gt;33 -->
<g id="edge33" class="edge">
<title>32&#45;&gt;33</title>
<path fill="none" stroke="black" d="M572.24,-219.83C557.61,-210.43 539.61,-198.86 524.05,-188.85"/>
<polygon fill="black" stroke="black" points="525.52,-185.63 515.21,-183.17 521.73,-191.52 525.52,-185.63"/>
</g>
<!-- 34 -->
<g id="node35" class="node">
<title>34</title>
<polygon fill="none" stroke="black" points="651,-183 550,-183 550,-147 651,-147 651,-183"/>
<text text-anchor="middle" x="600.5" y="-161.3" font-family="Times,serif" font-size="14.00">class = Canada</text>
</g>
<!-- 32&#45;&gt;34 -->
<g id="edge34" class="edge">
<title>32&#45;&gt;34</title>
<path fill="none" stroke="black" d="M600.5,-219.83C600.5,-211.89 600.5,-202.41 600.5,-193.63"/>
<polygon fill="black" stroke="black" points="604,-193.42 600.5,-183.42 597,-193.42 604,-193.42"/>
</g>
<!-- 37 -->
<g id="node38" class="node">
<title>37</title>
<polygon fill="none" stroke="black" points="672.5,-480 552.5,-480 552.5,-442 672.5,-442 672.5,-480"/>
<text text-anchor="middle" x="612.5" y="-464.8" font-family="Times,serif" font-size="14.00">latitude &lt;= 45.195</text>
<text text-anchor="middle" x="612.5" y="-449.8" font-family="Times,serif" font-size="14.00">class = USA</text>
</g>
<!-- 36&#45;&gt;37 -->
<g id="edge37" class="edge">
<title>36&#45;&gt;37</title>
<path fill="none" stroke="black" d="M612.5,-515.83C612.5,-508.13 612.5,-498.97 612.5,-490.42"/>
<polygon fill="black" stroke="black" points="616,-490.41 612.5,-480.41 609,-490.41 616,-490.41"/>
</g>
<!-- 52 -->
<g id="node53" class="node">
<title>52</title>
<polygon fill="none" stroke="black" points="792,-479 691,-479 691,-443 792,-443 792,-479"/>
<text text-anchor="middle" x="741.5" y="-457.3" font-family="Times,serif" font-size="14.00">class = Canada</text>
</g>
<!-- 36&#45;&gt;52 -->
<g id="edge52" class="edge">
<title>36&#45;&gt;52</title>
<path fill="none" stroke="black" d="M645.05,-515.83C662.21,-506.25 683.41,-494.42 701.56,-484.29"/>
<polygon fill="black" stroke="black" points="703.71,-487.1 710.73,-479.17 700.3,-480.99 703.71,-487.1"/>
</g>
<!-- 38 -->
<g id="node39" class="node">
<title>38</title>
<polygon fill="none" stroke="black" points="656,-405 569,-405 569,-369 656,-369 656,-405"/>
<text text-anchor="middle" x="612.5" y="-383.3" font-family="Times,serif" font-size="14.00">class = USA</text>
</g>
<!-- 37&#45;&gt;38 -->
<g id="edge38" class="edge">
<title>37&#45;&gt;38</title>
<path fill="none" stroke="black" d="M612.5,-441.83C612.5,-433.89 612.5,-424.41 612.5,-415.63"/>
<polygon fill="black" stroke="black" points="616,-415.42 612.5,-405.42 609,-415.42 616,-415.42"/>
</g>
<!-- 39 -->
<g id="node40" class="node">
<title>39</title>
<polygon fill="none" stroke="black" points="860.5,-406 732.5,-406 732.5,-368 860.5,-368 860.5,-406"/>
<text text-anchor="middle" x="796.5" y="-390.8" font-family="Times,serif" font-size="14.00">longitude &lt;= &#45;67.93</text>
<text text-anchor="middle" x="796.5" y="-375.8" font-family="Times,serif" font-size="14.00">class = Canada</text>
</g>
<!-- 37&#45;&gt;39 -->
<g id="edge39" class="edge">
<title>37&#45;&gt;39</title>
<path fill="none" stroke="black" d="M658.93,-441.83C683.87,-432.07 714.78,-419.98 740.98,-409.72"/>
<polygon fill="black" stroke="black" points="742.37,-412.94 750.4,-406.04 739.82,-406.42 742.37,-412.94"/>
</g>
<!-- 40 -->
<g id="node41" class="node">
<title>40</title>
<polygon fill="none" stroke="black" points="864,-332 729,-332 729,-294 864,-294 864,-332"/>
<text text-anchor="middle" x="796.5" y="-316.8" font-family="Times,serif" font-size="14.00">longitude &lt;= &#45;68.325</text>
<text text-anchor="middle" x="796.5" y="-301.8" font-family="Times,serif" font-size="14.00">class = USA</text>
</g>
<!-- 39&#45;&gt;40 -->
<g id="edge40" class="edge">
<title>39&#45;&gt;40</title>
<path fill="none" stroke="black" d="M796.5,-367.83C796.5,-360.13 796.5,-350.97 796.5,-342.42"/>
<polygon fill="black" stroke="black" points="800,-342.41 796.5,-332.41 793,-342.41 800,-342.41"/>
</g>
<!-- 47 -->
<g id="node48" class="node">
<title>47</title>
<polygon fill="none" stroke="black" points="1051.5,-332 931.5,-332 931.5,-294 1051.5,-294 1051.5,-332"/>
<text text-anchor="middle" x="991.5" y="-316.8" font-family="Times,serif" font-size="14.00">latitude &lt;= 45.565</text>
<text text-anchor="middle" x="991.5" y="-301.8" font-family="Times,serif" font-size="14.00">class = Canada</text>
</g>
<!-- 39&#45;&gt;47 -->
<g id="edge47" class="edge">
<title>39&#45;&gt;47</title>
<path fill="none" stroke="black" d="M845.46,-367.92C872,-358.12 904.98,-345.95 932.89,-335.64"/>
<polygon fill="black" stroke="black" points="934.36,-338.83 942.52,-332.08 931.93,-332.26 934.36,-338.83"/>
</g>
<!-- 41 -->
<g id="node42" class="node">
<title>41</title>
<polygon fill="none" stroke="black" points="807.5,-258 687.5,-258 687.5,-220 807.5,-220 807.5,-258"/>
<text text-anchor="middle" x="747.5" y="-242.8" font-family="Times,serif" font-size="14.00">latitude &lt;= 47.256</text>
<text text-anchor="middle" x="747.5" y="-227.8" font-family="Times,serif" font-size="14.00">class = Canada</text>
</g>
<!-- 40&#45;&gt;41 -->
<g id="edge41" class="edge">
<title>40&#45;&gt;41</title>
<path fill="none" stroke="black" d="M784.14,-293.83C778.55,-285.62 771.84,-275.76 765.69,-266.73"/>
<polygon fill="black" stroke="black" points="768.55,-264.71 760.03,-258.41 762.76,-268.65 768.55,-264.71"/>
</g>
<!-- 46 -->
<g id="node47" class="node">
<title>46</title>
<polygon fill="none" stroke="black" points="913,-257 826,-257 826,-221 913,-221 913,-257"/>
<text text-anchor="middle" x="869.5" y="-235.3" font-family="Times,serif" font-size="14.00">class = USA</text>
</g>
<!-- 40&#45;&gt;46 -->
<g id="edge46" class="edge">
<title>40&#45;&gt;46</title>
<path fill="none" stroke="black" d="M814.92,-293.83C824.01,-284.87 835.1,-273.93 844.9,-264.26"/>
<polygon fill="black" stroke="black" points="847.43,-266.69 852.09,-257.17 842.51,-261.7 847.43,-266.69"/>
</g>
<!-- 42 -->
<g id="node43" class="node">
<title>42</title>
<polygon fill="none" stroke="black" points="770,-183 669,-183 669,-147 770,-147 770,-183"/>
<text text-anchor="middle" x="719.5" y="-161.3" font-family="Times,serif" font-size="14.00">class = Canada</text>
</g>
<!-- 41&#45;&gt;42 -->
<g id="edge42" class="edge">
<title>41&#45;&gt;42</title>
<path fill="none" stroke="black" d="M740.43,-219.83C737.25,-211.63 733.42,-201.78 729.91,-192.76"/>
<polygon fill="black" stroke="black" points="733.16,-191.47 726.27,-183.42 726.64,-194.01 733.16,-191.47"/>
</g>
<!-- 43 -->
<g id="node44" class="node">
<title>43</title>
<polygon fill="none" stroke="black" points="923,-184 788,-184 788,-146 923,-146 923,-184"/>
<text text-anchor="middle" x="855.5" y="-168.8" font-family="Times,serif" font-size="14.00">longitude &lt;= &#45;68.459</text>
<text text-anchor="middle" x="855.5" y="-153.8" font-family="Times,serif" font-size="14.00">class = USA</text>
</g>
<!-- 41&#45;&gt;43 -->
<g id="edge43" class="edge">
<title>41&#45;&gt;43</title>
<path fill="none" stroke="black" d="M774.75,-219.83C788.44,-210.71 805.19,-199.54 819.88,-189.74"/>
<polygon fill="black" stroke="black" points="821.88,-192.62 828.26,-184.16 817.99,-186.8 821.88,-192.62"/>
</g>
<!-- 44 -->
<g id="node45" class="node">
<title>44</title>
<polygon fill="none" stroke="black" points="843,-109 756,-109 756,-73 843,-73 843,-109"/>
<text text-anchor="middle" x="799.5" y="-87.3" font-family="Times,serif" font-size="14.00">class = USA</text>
</g>
<!-- 43&#45;&gt;44 -->
<g id="edge44" class="edge">
<title>43&#45;&gt;44</title>
<path fill="none" stroke="black" d="M841.37,-145.83C834.65,-137.2 826.51,-126.73 819.2,-117.33"/>
<polygon fill="black" stroke="black" points="821.95,-115.16 813.05,-109.42 816.42,-119.46 821.95,-115.16"/>
</g>
<!-- 45 -->
<g id="node46" class="node">
<title>45</title>
<polygon fill="none" stroke="black" points="962,-109 861,-109 861,-73 962,-73 962,-109"/>
<text text-anchor="middle" x="911.5" y="-87.3" font-family="Times,serif" font-size="14.00">class = Canada</text>
</g>
<!-- 43&#45;&gt;45 -->
<g id="edge45" class="edge">
<title>43&#45;&gt;45</title>
<path fill="none" stroke="black" d="M869.63,-145.83C876.35,-137.2 884.49,-126.73 891.8,-117.33"/>
<polygon fill="black" stroke="black" points="894.58,-119.46 897.95,-109.42 889.05,-115.16 894.58,-119.46"/>
</g>
<!-- 48 -->
<g id="node49" class="node">
<title>48</title>
<polygon fill="none" stroke="black" points="1051.5,-258 931.5,-258 931.5,-220 1051.5,-220 1051.5,-258"/>
<text text-anchor="middle" x="991.5" y="-242.8" font-family="Times,serif" font-size="14.00">latitude &lt;= 45.382</text>
<text text-anchor="middle" x="991.5" y="-227.8" font-family="Times,serif" font-size="14.00">class = Canada</text>
</g>
<!-- 47&#45;&gt;48 -->
<g id="edge48" class="edge">
<title>47&#45;&gt;48</title>
<path fill="none" stroke="black" d="M991.5,-293.83C991.5,-286.13 991.5,-276.97 991.5,-268.42"/>
<polygon fill="black" stroke="black" points="995,-268.41 991.5,-258.41 988,-268.41 995,-268.41"/>
</g>
<!-- 51 -->
<g id="node52" class="node">
<title>51</title>
<polygon fill="none" stroke="black" points="1171,-257 1070,-257 1070,-221 1171,-221 1171,-257"/>
<text text-anchor="middle" x="1120.5" y="-235.3" font-family="Times,serif" font-size="14.00">class = Canada</text>
</g>
<!-- 47&#45;&gt;51 -->
<g id="edge51" class="edge">
<title>47&#45;&gt;51</title>
<path fill="none" stroke="black" d="M1024.05,-293.83C1041.21,-284.25 1062.41,-272.42 1080.56,-262.29"/>
<polygon fill="black" stroke="black" points="1082.71,-265.1 1089.73,-257.17 1079.3,-258.99 1082.71,-265.1"/>
</g>
<!-- 49 -->
<g id="node50" class="node">
<title>49</title>
<polygon fill="none" stroke="black" points="1042,-183 941,-183 941,-147 1042,-147 1042,-183"/>
<text text-anchor="middle" x="991.5" y="-161.3" font-family="Times,serif" font-size="14.00">class = Canada</text>
</g>
<!-- 48&#45;&gt;49 -->
<g id="edge49" class="edge">
<title>48&#45;&gt;49</title>
<path fill="none" stroke="black" d="M991.5,-219.83C991.5,-211.89 991.5,-202.41 991.5,-193.63"/>
<polygon fill="black" stroke="black" points="995,-193.42 991.5,-183.42 988,-193.42 995,-193.42"/>
</g>
<!-- 50 -->
<g id="node51" class="node">
<title>50</title>
<polygon fill="none" stroke="black" points="1147,-183 1060,-183 1060,-147 1147,-147 1147,-183"/>
<text text-anchor="middle" x="1103.5" y="-161.3" font-family="Times,serif" font-size="14.00">class = USA</text>
</g>
<!-- 48&#45;&gt;50 -->
<g id="edge50" class="edge">
<title>48&#45;&gt;50</title>
<path fill="none" stroke="black" d="M1019.76,-219.83C1034.39,-210.43 1052.39,-198.86 1067.95,-188.85"/>
<polygon fill="black" stroke="black" points="1070.27,-191.52 1076.79,-183.17 1066.48,-185.63 1070.27,-191.52"/>
</g>
</g>
</svg>
