<?xml version="1.0" encoding="UTF-8" standalone="no"?>
<!DOCTYPE svg PUBLIC "-//W3C//DTD SVG 1.1//EN"
 "http://www.w3.org/Graphics/SVG/1.1/DTD/svg11.dtd">
<!-- Generated by graphviz version 2.48.0 (0)
 -->
<!-- Title: Tree Pages: 1 -->
<svg width="1119pt" height="932pt"
 viewBox="0.00 0.00 1119.00 932.00" xmlns="http://www.w3.org/2000/svg" xmlns:xlink="http://www.w3.org/1999/xlink">
<g id="graph0" class="graph" transform="scale(1 1) rotate(0) translate(4 928)">
<title>Tree</title>
<polygon fill="white" stroke="transparent" points="-4,4 -4,-928 1115,-928 1115,4 -4,4"/>
<!-- 0 -->
<g id="node1" class="node">
<title>0</title>
<polygon fill="none" stroke="black" points="380.5,-924 274.5,-924 274.5,-886 380.5,-886 380.5,-924"/>
<text text-anchor="middle" x="327.5" y="-908.8" font-family="Times,serif" font-size="14.00">latitude &lt;= 42.9</text>
<text text-anchor="middle" x="327.5" y="-893.8" font-family="Times,serif" font-size="14.00">class = Canada</text>
</g>
<!-- 1 -->
<g id="node2" class="node">
<title>1</title>
<polygon fill="none" stroke="black" points="318.5,-850 198.5,-850 198.5,-812 318.5,-812 318.5,-850"/>
<text text-anchor="middle" x="258.5" y="-834.8" font-family="Times,serif" font-size="14.00">latitude &lt;= 42.096</text>
<text text-anchor="middle" x="258.5" y="-819.8" font-family="Times,serif" font-size="14.00">class = USA</text>
</g>
<!-- 0&#45;&gt;1 -->
<g id="edge1" class="edge">
<title>0&#45;&gt;1</title>
<path fill="none" stroke="black" d="M310.09,-885.83C301.98,-877.37 292.18,-867.15 283.32,-857.9"/>
<polygon fill="black" stroke="black" points="285.59,-855.21 276.15,-850.41 280.54,-860.05 285.59,-855.21"/>
<text text-anchor="middle" x="275.61" y="-871.71" font-family="Times,serif" font-size="14.00">True</text>
</g>
<!-- 6 -->
<g id="node7" class="node">
<title>6</title>
<polygon fill="none" stroke="black" points="456.5,-850 336.5,-850 336.5,-812 456.5,-812 456.5,-850"/>
<text text-anchor="middle" x="396.5" y="-834.8" font-family="Times,serif" font-size="14.00">latitude &lt;= 55.958</text>
<text text-anchor="middle" x="396.5" y="-819.8" font-family="Times,serif" font-size="14.00">class = Canada</text>
</g>
<!-- 0&#45;&gt;6 -->
<g id="edge6" class="edge">
<title>0&#45;&gt;6</title>
<path fill="none" stroke="black" d="M344.91,-885.83C353.02,-877.37 362.82,-867.15 371.68,-857.9"/>
<polygon fill="black" stroke="black" points="374.46,-860.05 378.85,-850.41 369.41,-855.21 374.46,-860.05"/>
<text text-anchor="middle" x="379.39" y="-871.71" font-family="Times,serif" font-size="14.00">False</text>
</g>
<!-- 2 -->
<g id="node3" class="node">
<title>2</title>
<polygon fill="none" stroke="black" points="182,-775 95,-775 95,-739 182,-739 182,-775"/>
<text text-anchor="middle" x="138.5" y="-753.3" font-family="Times,serif" font-size="14.00">class = USA</text>
</g>
<!-- 1&#45;&gt;2 -->
<g id="edge2" class="edge">
<title>1&#45;&gt;2</title>
<path fill="none" stroke="black" d="M228.22,-811.83C212.4,-802.34 192.9,-790.64 176.12,-780.57"/>
<polygon fill="black" stroke="black" points="177.49,-777.32 167.12,-775.17 173.89,-783.32 177.49,-777.32"/>
</g>
<!-- 3 -->
<g id="node4" class="node">
<title>3</title>
<polygon fill="none" stroke="black" points="320.5,-776 200.5,-776 200.5,-738 320.5,-738 320.5,-776"/>
<text text-anchor="middle" x="260.5" y="-760.8" font-family="Times,serif" font-size="14.00">latitude &lt;= 42.324</text>
<text text-anchor="middle" x="260.5" y="-745.8" font-family="Times,serif" font-size="14.00">class = USA</text>
</g>
<!-- 1&#45;&gt;3 -->
<g id="edge3" class="edge">
<title>1&#45;&gt;3</title>
<path fill="none" stroke="black" d="M259,-811.83C259.22,-804.13 259.47,-794.97 259.71,-786.42"/>
<polygon fill="black" stroke="black" points="263.21,-786.51 259.99,-776.41 256.21,-786.31 263.21,-786.51"/>
</g>
<!-- 4 -->
<g id="node5" class="node">
<title>4</title>
<polygon fill="none" stroke="black" points="200,-701 99,-701 99,-665 200,-665 200,-701"/>
<text text-anchor="middle" x="149.5" y="-679.3" font-family="Times,serif" font-size="14.00">class = Canada</text>
</g>
<!-- 3&#45;&gt;4 -->
<g id="edge4" class="edge">
<title>3&#45;&gt;4</title>
<path fill="none" stroke="black" d="M232.49,-737.83C217.99,-728.43 200.15,-716.86 184.73,-706.85"/>
<polygon fill="black" stroke="black" points="186.27,-703.68 175.97,-701.17 182.46,-709.55 186.27,-703.68"/>
</g>
<!-- 5 -->
<g id="node6" class="node">
<title>5</title>
<polygon fill="none" stroke="black" points="305,-701 218,-701 218,-665 305,-665 305,-701"/>
<text text-anchor="middle" x="261.5" y="-679.3" font-family="Times,serif" font-size="14.00">class = USA</text>
</g>
<!-- 3&#45;&gt;5 -->
<g id="edge5" class="edge">
<title>3&#45;&gt;5</title>
<path fill="none" stroke="black" d="M260.75,-737.83C260.86,-729.89 260.99,-720.41 261.12,-711.63"/>
<polygon fill="black" stroke="black" points="264.62,-711.47 261.26,-701.42 257.62,-711.37 264.62,-711.47"/>
</g>
<!-- 7 -->
<g id="node8" class="node">
<title>7</title>
<polygon fill="none" stroke="black" points="448.5,-776 342.5,-776 342.5,-738 448.5,-738 448.5,-776"/>
<text text-anchor="middle" x="395.5" y="-760.8" font-family="Times,serif" font-size="14.00">latitude &lt;= 49.0</text>
<text text-anchor="middle" x="395.5" y="-745.8" font-family="Times,serif" font-size="14.00">class = Canada</text>
</g>
<!-- 6&#45;&gt;7 -->
<g id="edge7" class="edge">
<title>6&#45;&gt;7</title>
<path fill="none" stroke="black" d="M396.25,-811.83C396.14,-804.13 396.01,-794.97 395.89,-786.42"/>
<polygon fill="black" stroke="black" points="399.39,-786.36 395.76,-776.41 392.4,-786.46 399.39,-786.36"/>
</g>
<!-- 54 -->
<g id="node55" class="node">
<title>54</title>
<polygon fill="none" stroke="black" points="554,-775 467,-775 467,-739 554,-739 554,-775"/>
<text text-anchor="middle" x="510.5" y="-753.3" font-family="Times,serif" font-size="14.00">class = USA</text>
</g>
<!-- 6&#45;&gt;54 -->
<g id="edge54" class="edge">
<title>6&#45;&gt;54</title>
<path fill="none" stroke="black" d="M425.27,-811.83C440.29,-802.34 458.82,-790.64 474.76,-780.57"/>
<polygon fill="black" stroke="black" points="476.73,-783.47 483.31,-775.17 472.99,-777.55 476.73,-783.47"/>
</g>
<!-- 8 -->
<g id="node9" class="node">
<title>8</title>
<polygon fill="none" stroke="black" points="462,-702 327,-702 327,-664 462,-664 462,-702"/>
<text text-anchor="middle" x="394.5" y="-686.8" font-family="Times,serif" font-size="14.00">longitude &lt;= &#45;94.582</text>
<text text-anchor="middle" x="394.5" y="-671.8" font-family="Times,serif" font-size="14.00">class = Canada</text>
</g>
<!-- 7&#45;&gt;8 -->
<g id="edge8" class="edge">
<title>7&#45;&gt;8</title>
<path fill="none" stroke="black" d="M395.25,-737.83C395.14,-730.13 395.01,-720.97 394.89,-712.42"/>
<polygon fill="black" stroke="black" points="398.39,-712.36 394.76,-702.41 391.4,-712.46 398.39,-712.36"/>
</g>
<!-- 53 -->
<g id="node54" class="node">
<title>53</title>
<polygon fill="none" stroke="black" points="581,-701 480,-701 480,-665 581,-665 581,-701"/>
<text text-anchor="middle" x="530.5" y="-679.3" font-family="Times,serif" font-size="14.00">class = Canada</text>
</g>
<!-- 7&#45;&gt;53 -->
<g id="edge53" class="edge">
<title>7&#45;&gt;53</title>
<path fill="none" stroke="black" d="M429.57,-737.83C447.69,-728.17 470.12,-716.2 489.22,-706.01"/>
<polygon fill="black" stroke="black" points="491.13,-708.97 498.3,-701.17 487.83,-702.79 491.13,-708.97"/>
</g>
<!-- 9 -->
<g id="node10" class="node">
<title>9</title>
<polygon fill="none" stroke="black" points="387.5,-628 245.5,-628 245.5,-590 387.5,-590 387.5,-628"/>
<text text-anchor="middle" x="316.5" y="-612.8" font-family="Times,serif" font-size="14.00">longitude &lt;= &#45;123.222</text>
<text text-anchor="middle" x="316.5" y="-597.8" font-family="Times,serif" font-size="14.00">class = USA</text>
</g>
<!-- 8&#45;&gt;9 -->
<g id="edge9" class="edge">
<title>8&#45;&gt;9</title>
<path fill="none" stroke="black" d="M374.82,-663.83C365.39,-655.13 353.96,-644.58 343.72,-635.13"/>
<polygon fill="black" stroke="black" points="345.9,-632.37 336.18,-628.16 341.15,-637.52 345.9,-632.37"/>
</g>
<!-- 12 -->
<g id="node13" class="node">
<title>12</title>
<polygon fill="none" stroke="black" points="541,-628 406,-628 406,-590 541,-590 541,-628"/>
<text text-anchor="middle" x="473.5" y="-612.8" font-family="Times,serif" font-size="14.00">longitude &lt;= &#45;69.246</text>
<text text-anchor="middle" x="473.5" y="-597.8" font-family="Times,serif" font-size="14.00">class = Canada</text>
</g>
<!-- 8&#45;&gt;12 -->
<g id="edge12" class="edge">
<title>8&#45;&gt;12</title>
<path fill="none" stroke="black" d="M414.44,-663.83C423.98,-655.13 435.56,-644.58 445.93,-635.13"/>
<polygon fill="black" stroke="black" points="448.54,-637.49 453.57,-628.16 443.82,-632.31 448.54,-637.49"/>
</g>
<!-- 10 -->
<g id="node11" class="node">
<title>10</title>
<polygon fill="none" stroke="black" points="264,-553 163,-553 163,-517 264,-517 264,-553"/>
<text text-anchor="middle" x="213.5" y="-531.3" font-family="Times,serif" font-size="14.00">class = Canada</text>
</g>
<!-- 9&#45;&gt;10 -->
<g id="edge10" class="edge">
<title>9&#45;&gt;10</title>
<path fill="none" stroke="black" d="M290.51,-589.83C277.18,-580.52 260.81,-569.07 246.59,-559.13"/>
<polygon fill="black" stroke="black" points="248.27,-556.03 238.06,-553.17 244.26,-561.77 248.27,-556.03"/>
</g>
<!-- 11 -->
<g id="node12" class="node">
<title>11</title>
<polygon fill="none" stroke="black" points="369,-553 282,-553 282,-517 369,-517 369,-553"/>
<text text-anchor="middle" x="325.5" y="-531.3" font-family="Times,serif" font-size="14.00">class = USA</text>
</g>
<!-- 9&#45;&gt;11 -->
<g id="edge11" class="edge">
<title>9&#45;&gt;11</title>
<path fill="none" stroke="black" d="M318.77,-589.83C319.76,-581.89 320.95,-572.41 322.05,-563.63"/>
<polygon fill="black" stroke="black" points="325.56,-563.77 323.32,-553.42 318.61,-562.91 325.56,-563.77"/>
</g>
<!-- 13 -->
<g id="node14" class="node">
<title>13</title>
<polygon fill="none" stroke="black" points="524.5,-554 404.5,-554 404.5,-516 524.5,-516 524.5,-554"/>
<text text-anchor="middle" x="464.5" y="-538.8" font-family="Times,serif" font-size="14.00">latitude &lt;= 43.093</text>
<text text-anchor="middle" x="464.5" y="-523.8" font-family="Times,serif" font-size="14.00">class = Canada</text>
</g>
<!-- 12&#45;&gt;13 -->
<g id="edge13" class="edge">
<title>12&#45;&gt;13</title>
<path fill="none" stroke="black" d="M471.23,-589.83C470.27,-582.13 469.12,-572.97 468.05,-564.42"/>
<polygon fill="black" stroke="black" points="471.52,-563.9 466.8,-554.41 464.57,-564.77 471.52,-563.9"/>
</g>
<!-- 36 -->
<g id="node37" class="node">
<title>36</title>
<polygon fill="none" stroke="black" points="718,-554 583,-554 583,-516 718,-516 718,-554"/>
<text text-anchor="middle" x="650.5" y="-538.8" font-family="Times,serif" font-size="14.00">longitude &lt;= &#45;66.952</text>
<text text-anchor="middle" x="650.5" y="-523.8" font-family="Times,serif" font-size="14.00">class = Canada</text>
</g>
<!-- 12&#45;&gt;36 -->
<g id="edge36" class="edge">
<title>12&#45;&gt;36</title>
<path fill="none" stroke="black" d="M518.16,-589.83C542.05,-580.12 571.63,-568.08 596.76,-557.86"/>
<polygon fill="black" stroke="black" points="598.21,-561.05 606.16,-554.04 595.57,-554.56 598.21,-561.05"/>
</g>
<!-- 14 -->
<g id="node15" class="node">
<title>14</title>
<polygon fill="none" stroke="black" points="346.5,-480 226.5,-480 226.5,-442 346.5,-442 346.5,-480"/>
<text text-anchor="middle" x="286.5" y="-464.8" font-family="Times,serif" font-size="14.00">latitude &lt;= 43.014</text>
<text text-anchor="middle" x="286.5" y="-449.8" font-family="Times,serif" font-size="14.00">class = Canada</text>
</g>
<!-- 13&#45;&gt;14 -->
<g id="edge14" class="edge">
<title>13&#45;&gt;14</title>
<path fill="none" stroke="black" d="M419.58,-515.83C395.57,-506.12 365.82,-494.08 340.54,-483.86"/>
<polygon fill="black" stroke="black" points="341.68,-480.54 331.09,-480.04 339.05,-487.03 341.68,-480.54"/>
</g>
<!-- 19 -->
<g id="node20" class="node">
<title>19</title>
<polygon fill="none" stroke="black" points="524.5,-480 404.5,-480 404.5,-442 524.5,-442 524.5,-480"/>
<text text-anchor="middle" x="464.5" y="-464.8" font-family="Times,serif" font-size="14.00">latitude &lt;= 44.992</text>
<text text-anchor="middle" x="464.5" y="-449.8" font-family="Times,serif" font-size="14.00">class = Canada</text>
</g>
<!-- 13&#45;&gt;19 -->
<g id="edge19" class="edge">
<title>13&#45;&gt;19</title>
<path fill="none" stroke="black" d="M464.5,-515.83C464.5,-508.13 464.5,-498.97 464.5,-490.42"/>
<polygon fill="black" stroke="black" points="468,-490.41 464.5,-480.41 461,-490.41 468,-490.41"/>
</g>
<!-- 15 -->
<g id="node16" class="node">
<title>15</title>
<polygon fill="none" stroke="black" points="223,-406 88,-406 88,-368 223,-368 223,-406"/>
<text text-anchor="middle" x="155.5" y="-390.8" font-family="Times,serif" font-size="14.00">longitude &lt;= &#45;81.845</text>
<text text-anchor="middle" x="155.5" y="-375.8" font-family="Times,serif" font-size="14.00">class = Canada</text>
</g>
<!-- 14&#45;&gt;15 -->
<g id="edge15" class="edge">
<title>14&#45;&gt;15</title>
<path fill="none" stroke="black" d="M253.44,-441.83C236.53,-432.54 215.76,-421.12 197.71,-411.2"/>
<polygon fill="black" stroke="black" points="199,-407.91 188.55,-406.16 195.62,-414.05 199,-407.91"/>
</g>
<!-- 18 -->
<g id="node19" class="node">
<title>18</title>
<polygon fill="none" stroke="black" points="330,-405 243,-405 243,-369 330,-369 330,-405"/>
<text text-anchor="middle" x="286.5" y="-383.3" font-family="Times,serif" font-size="14.00">class = USA</text>
</g>
<!-- 14&#45;&gt;18 -->
<g id="edge18" class="edge">
<title>14&#45;&gt;18</title>
<path fill="none" stroke="black" d="M286.5,-441.83C286.5,-433.89 286.5,-424.41 286.5,-415.63"/>
<polygon fill="black" stroke="black" points="290,-415.42 286.5,-405.42 283,-415.42 290,-415.42"/>
</g>
<!-- 16 -->
<g id="node17" class="node">
<title>16</title>
<polygon fill="none" stroke="black" points="87,-331 0,-331 0,-295 87,-295 87,-331"/>
<text text-anchor="middle" x="43.5" y="-309.3" font-family="Times,serif" font-size="14.00">class = USA</text>
</g>
<!-- 15&#45;&gt;16 -->
<g id="edge16" class="edge">
<title>15&#45;&gt;16</title>
<path fill="none" stroke="black" d="M127.24,-367.83C112.61,-358.43 94.61,-346.86 79.05,-336.85"/>
<polygon fill="black" stroke="black" points="80.52,-333.63 70.21,-331.17 76.73,-339.52 80.52,-333.63"/>
</g>
<!-- 17 -->
<g id="node18" class="node">
<title>17</title>
<polygon fill="none" stroke="black" points="206,-331 105,-331 105,-295 206,-295 206,-331"/>
<text text-anchor="middle" x="155.5" y="-309.3" font-family="Times,serif" font-size="14.00">class = Canada</text>
</g>
<!-- 15&#45;&gt;17 -->
<g id="edge17" class="edge">
<title>15&#45;&gt;17</title>
<path fill="none" stroke="black" d="M155.5,-367.83C155.5,-359.89 155.5,-350.41 155.5,-341.63"/>
<polygon fill="black" stroke="black" points="159,-341.42 155.5,-331.42 152,-341.42 159,-341.42"/>
</g>
<!-- 20 -->
<g id="node21" class="node">
<title>20</title>
<polygon fill="none" stroke="black" points="468.5,-406 348.5,-406 348.5,-368 468.5,-368 468.5,-406"/>
<text text-anchor="middle" x="408.5" y="-390.8" font-family="Times,serif" font-size="14.00">latitude &lt;= 44.542</text>
<text text-anchor="middle" x="408.5" y="-375.8" font-family="Times,serif" font-size="14.00">class = Canada</text>
</g>
<!-- 19&#45;&gt;20 -->
<g id="edge20" class="edge">
<title>19&#45;&gt;20</title>
<path fill="none" stroke="black" d="M450.37,-441.83C443.92,-433.54 436.16,-423.56 429.07,-414.45"/>
<polygon fill="black" stroke="black" points="431.72,-412.16 422.82,-406.41 426.2,-416.46 431.72,-412.16"/>
</g>
<!-- 35 -->
<g id="node36" class="node">
<title>35</title>
<polygon fill="none" stroke="black" points="588,-405 487,-405 487,-369 588,-369 588,-405"/>
<text text-anchor="middle" x="537.5" y="-383.3" font-family="Times,serif" font-size="14.00">class = Canada</text>
</g>
<!-- 19&#45;&gt;35 -->
<g id="edge35" class="edge">
<title>19&#45;&gt;35</title>
<path fill="none" stroke="black" d="M482.92,-441.83C492.01,-432.87 503.1,-421.93 512.9,-412.26"/>
<polygon fill="black" stroke="black" points="515.43,-414.69 520.09,-405.17 510.51,-409.7 515.43,-414.69"/>
</g>
<!-- 21 -->
<g id="node22" class="node">
<title>21</title>
<polygon fill="none" stroke="black" points="359,-332 224,-332 224,-294 359,-294 359,-332"/>
<text text-anchor="middle" x="291.5" y="-316.8" font-family="Times,serif" font-size="14.00">longitude &lt;= &#45;79.076</text>
<text text-anchor="middle" x="291.5" y="-301.8" font-family="Times,serif" font-size="14.00">class = Canada</text>
</g>
<!-- 20&#45;&gt;21 -->
<g id="edge21" class="edge">
<title>20&#45;&gt;21</title>
<path fill="none" stroke="black" d="M378.98,-367.83C364.01,-358.62 345.66,-347.33 329.64,-337.47"/>
<polygon fill="black" stroke="black" points="331.37,-334.42 321.01,-332.16 327.7,-340.38 331.37,-334.42"/>
</g>
<!-- 30 -->
<g id="node31" class="node">
<title>30</title>
<polygon fill="none" stroke="black" points="512,-332 377,-332 377,-294 512,-294 512,-332"/>
<text text-anchor="middle" x="444.5" y="-316.8" font-family="Times,serif" font-size="14.00">longitude &lt;= &#45;84.392</text>
<text text-anchor="middle" x="444.5" y="-301.8" font-family="Times,serif" font-size="14.00">class = USA</text>
</g>
<!-- 20&#45;&gt;30 -->
<g id="edge30" class="edge">
<title>20&#45;&gt;30</title>
<path fill="none" stroke="black" d="M417.58,-367.83C421.56,-359.88 426.32,-350.37 430.71,-341.57"/>
<polygon fill="black" stroke="black" points="433.95,-342.92 435.29,-332.41 427.69,-339.79 433.95,-342.92"/>
</g>
<!-- 22 -->
<g id="node23" class="node">
<title>22</title>
<polygon fill="none" stroke="black" points="213,-257 112,-257 112,-221 213,-221 213,-257"/>
<text text-anchor="middle" x="162.5" y="-235.3" font-family="Times,serif" font-size="14.00">class = Canada</text>
</g>
<!-- 21&#45;&gt;22 -->
<g id="edge22" class="edge">
<title>21&#45;&gt;22</title>
<path fill="none" stroke="black" d="M258.95,-293.83C241.79,-284.25 220.59,-272.42 202.44,-262.29"/>
<polygon fill="black" stroke="black" points="203.7,-258.99 193.27,-257.17 200.29,-265.1 203.7,-258.99"/>
</g>
<!-- 23 -->
<g id="node24" class="node">
<title>23</title>
<polygon fill="none" stroke="black" points="351.5,-258 231.5,-258 231.5,-220 351.5,-220 351.5,-258"/>
<text text-anchor="middle" x="291.5" y="-242.8" font-family="Times,serif" font-size="14.00">latitude &lt;= 44.168</text>
<text text-anchor="middle" x="291.5" y="-227.8" font-family="Times,serif" font-size="14.00">class = Canada</text>
</g>
<!-- 21&#45;&gt;23 -->
<g id="edge23" class="edge">
<title>21&#45;&gt;23</title>
<path fill="none" stroke="black" d="M291.5,-293.83C291.5,-286.13 291.5,-276.97 291.5,-268.42"/>
<polygon fill="black" stroke="black" points="295,-268.41 291.5,-258.41 288,-268.41 295,-268.41"/>
</g>
<!-- 24 -->
<g id="node25" class="node">
<title>24</title>
<polygon fill="none" stroke="black" points="233,-184 114,-184 114,-146 233,-146 233,-184"/>
<text text-anchor="middle" x="173.5" y="-168.8" font-family="Times,serif" font-size="14.00">latitude &lt;= 43.511</text>
<text text-anchor="middle" x="173.5" y="-153.8" font-family="Times,serif" font-size="14.00">class = USA</text>
</g>
<!-- 23&#45;&gt;24 -->
<g id="edge24" class="edge">
<title>23&#45;&gt;24</title>
<path fill="none" stroke="black" d="M261.72,-219.83C246.63,-210.62 228.12,-199.33 211.97,-189.47"/>
<polygon fill="black" stroke="black" points="213.63,-186.38 203.27,-184.16 209.98,-192.36 213.63,-186.38"/>
</g>
<!-- 29 -->
<g id="node30" class="node">
<title>29</title>
<polygon fill="none" stroke="black" points="352,-183 251,-183 251,-147 352,-147 352,-183"/>
<text text-anchor="middle" x="301.5" y="-161.3" font-family="Times,serif" font-size="14.00">class = Canada</text>
</g>
<!-- 23&#45;&gt;29 -->
<g id="edge29" class="edge">
<title>23&#45;&gt;29</title>
<path fill="none" stroke="black" d="M294.02,-219.83C295.14,-211.81 296.47,-202.2 297.7,-193.34"/>
<polygon fill="black" stroke="black" points="301.17,-193.8 299.08,-183.42 294.24,-192.84 301.17,-193.8"/>
</g>
<!-- 25 -->
<g id="node26" class="node">
<title>25</title>
<polygon fill="none" stroke="black" points="153,-109 66,-109 66,-73 153,-73 153,-109"/>
<text text-anchor="middle" x="109.5" y="-87.3" font-family="Times,serif" font-size="14.00">class = USA</text>
</g>
<!-- 24&#45;&gt;25 -->
<g id="edge25" class="edge">
<title>24&#45;&gt;25</title>
<path fill="none" stroke="black" d="M157.35,-145.83C149.6,-137.11 140.18,-126.52 131.76,-117.05"/>
<polygon fill="black" stroke="black" points="134.24,-114.57 124.98,-109.42 129.01,-119.22 134.24,-114.57"/>
</g>
<!-- 26 -->
<g id="node27" class="node">
<title>26</title>
<polygon fill="none" stroke="black" points="306,-110 171,-110 171,-72 306,-72 306,-110"/>
<text text-anchor="middle" x="238.5" y="-94.8" font-family="Times,serif" font-size="14.00">longitude &lt;= &#45;77.678</text>
<text text-anchor="middle" x="238.5" y="-79.8" font-family="Times,serif" font-size="14.00">class = Canada</text>
</g>
<!-- 24&#45;&gt;26 -->
<g id="edge26" class="edge">
<title>24&#45;&gt;26</title>
<path fill="none" stroke="black" d="M189.9,-145.83C197.54,-137.37 206.77,-127.15 215.12,-117.9"/>
<polygon fill="black" stroke="black" points="217.77,-120.18 221.88,-110.41 212.58,-115.49 217.77,-120.18"/>
</g>
<!-- 27 -->
<g id="node28" class="node">
<title>27</title>
<polygon fill="none" stroke="black" points="233,-36 132,-36 132,0 233,0 233,-36"/>
<text text-anchor="middle" x="182.5" y="-14.3" font-family="Times,serif" font-size="14.00">class = Canada</text>
</g>
<!-- 26&#45;&gt;27 -->
<g id="edge27" class="edge">
<title>26&#45;&gt;27</title>
<path fill="none" stroke="black" d="M224.08,-71.72C217.43,-63.29 209.43,-53.15 202.23,-44.02"/>
<polygon fill="black" stroke="black" points="204.85,-41.69 195.91,-36 199.36,-46.02 204.85,-41.69"/>
</g>
<!-- 28 -->
<g id="node29" class="node">
<title>28</title>
<polygon fill="none" stroke="black" points="338,-36 251,-36 251,0 338,0 338,-36"/>
<text text-anchor="middle" x="294.5" y="-14.3" font-family="Times,serif" font-size="14.00">class = USA</text>
</g>
<!-- 26&#45;&gt;28 -->
<g id="edge28" class="edge">
<title>26&#45;&gt;28</title>
<path fill="none" stroke="black" d="M252.92,-71.72C259.57,-63.29 267.57,-53.15 274.77,-44.02"/>
<polygon fill="black" stroke="black" points="277.64,-46.02 281.09,-36 272.15,-41.69 277.64,-46.02"/>
</g>
<!-- 31 -->
<g id="node32" class="node">
<title>31</title>
<polygon fill="none" stroke="black" points="457,-257 370,-257 370,-221 457,-221 457,-257"/>
<text text-anchor="middle" x="413.5" y="-235.3" font-family="Times,serif" font-size="14.00">class = USA</text>
</g>
<!-- 30&#45;&gt;31 -->
<g id="edge31" class="edge">
<title>30&#45;&gt;31</title>
<path fill="none" stroke="black" d="M436.68,-293.83C433.15,-285.63 428.91,-275.78 425.02,-266.76"/>
<polygon fill="black" stroke="black" points="428.17,-265.22 421,-257.42 421.74,-267.99 428.17,-265.22"/>
</g>
<!-- 32 -->
<g id="node33" class="node">
<title>32</title>
<polygon fill="none" stroke="black" points="595.5,-258 475.5,-258 475.5,-220 595.5,-220 595.5,-258"/>
<text text-anchor="middle" x="535.5" y="-242.8" font-family="Times,serif" font-size="14.00">latitude &lt;= 44.706</text>
<text text-anchor="middle" x="535.5" y="-227.8" font-family="Times,serif" font-size="14.00">class = Canada</text>
</g>
<!-- 30&#45;&gt;32 -->
<g id="edge32" class="edge">
<title>30&#45;&gt;32</title>
<path fill="none" stroke="black" d="M467.46,-293.83C478.67,-284.96 492.32,-274.16 504.44,-264.57"/>
<polygon fill="black" stroke="black" points="506.87,-267.11 512.54,-258.16 502.53,-261.62 506.87,-267.11"/>
</g>
<!-- 33 -->
<g id="node34" class="node">
<title>33</title>
<polygon fill="none" stroke="black" points="468,-183 381,-183 381,-147 468,-147 468,-183"/>
<text text-anchor="middle" x="424.5" y="-161.3" font-family="Times,serif" font-size="14.00">class = USA</text>
</g>
<!-- 32&#45;&gt;33 -->
<g id="edge33" class="edge">
<title>32&#45;&gt;33</title>
<path fill="none" stroke="black" d="M507.49,-219.83C492.99,-210.43 475.15,-198.86 459.73,-188.85"/>
<polygon fill="black" stroke="black" points="461.27,-185.68 450.97,-183.17 457.46,-191.55 461.27,-185.68"/>
</g>
<!-- 34 -->
<g id="node35" class="node">
<title>34</title>
<polygon fill="none" stroke="black" points="587,-183 486,-183 486,-147 587,-147 587,-183"/>
<text text-anchor="middle" x="536.5" y="-161.3" font-family="Times,serif" font-size="14.00">class = Canada</text>
</g>
<!-- 32&#45;&gt;34 -->
<g id="edge34" class="edge">
<title>32&#45;&gt;34</title>
<path fill="none" stroke="black" d="M535.75,-219.83C535.86,-211.89 535.99,-202.41 536.12,-193.63"/>
<polygon fill="black" stroke="black" points="539.62,-193.47 536.26,-183.42 532.62,-193.37 539.62,-193.47"/>
</g>
<!-- 37 -->
<g id="node38" class="node">
<title>37</title>
<polygon fill="none" stroke="black" points="710.5,-480 590.5,-480 590.5,-442 710.5,-442 710.5,-480"/>
<text text-anchor="middle" x="650.5" y="-464.8" font-family="Times,serif" font-size="14.00">latitude &lt;= 45.195</text>
<text text-anchor="middle" x="650.5" y="-449.8" font-family="Times,serif" font-size="14.00">class = USA</text>
</g>
<!-- 36&#45;&gt;37 -->
<g id="edge37" class="edge">
<title>36&#45;&gt;37</title>
<path fill="none" stroke="black" d="M650.5,-515.83C650.5,-508.13 650.5,-498.97 650.5,-490.42"/>
<polygon fill="black" stroke="black" points="654,-490.41 650.5,-480.41 647,-490.41 654,-490.41"/>
</g>
<!-- 52 -->
<g id="node53" class="node">
<title>52</title>
<polygon fill="none" stroke="black" points="830,-479 729,-479 729,-443 830,-443 830,-479"/>
<text text-anchor="middle" x="779.5" y="-457.3" font-family="Times,serif" font-size="14.00">class = Canada</text>
</g>
<!-- 36&#45;&gt;52 -->
<g id="edge52" class="edge">
<title>36&#45;&gt;52</title>
<path fill="none" stroke="black" d="M683.05,-515.83C700.21,-506.25 721.41,-494.42 739.56,-484.29"/>
<polygon fill="black" stroke="black" points="741.71,-487.1 748.73,-479.17 738.3,-480.99 741.71,-487.1"/>
</g>
<!-- 38 -->
<g id="node39" class="node">
<title>38</title>
<polygon fill="none" stroke="black" points="694,-405 607,-405 607,-369 694,-369 694,-405"/>
<text text-anchor="middle" x="650.5" y="-383.3" font-family="Times,serif" font-size="14.00">class = USA</text>
</g>
<!-- 37&#45;&gt;38 -->
<g id="edge38" class="edge">
<title>37&#45;&gt;38</title>
<path fill="none" stroke="black" d="M650.5,-441.83C650.5,-433.89 650.5,-424.41 650.5,-415.63"/>
<polygon fill="black" stroke="black" points="654,-415.42 650.5,-405.42 647,-415.42 654,-415.42"/>
</g>
<!-- 39 -->
<g id="node40" class="node">
<title>39</title>
<polygon fill="none" stroke="black" points="841.5,-406 713.5,-406 713.5,-368 841.5,-368 841.5,-406"/>
<text text-anchor="middle" x="777.5" y="-390.8" font-family="Times,serif" font-size="14.00">longitude &lt;= &#45;67.93</text>
<text text-anchor="middle" x="777.5" y="-375.8" font-family="Times,serif" font-size="14.00">class = Canada</text>
</g>
<!-- 37&#45;&gt;39 -->
<g id="edge39" class="edge">
<title>37&#45;&gt;39</title>
<path fill="none" stroke="black" d="M682.55,-441.83C698.94,-432.54 719.08,-421.12 736.58,-411.2"/>
<polygon fill="black" stroke="black" points="738.49,-414.14 745.46,-406.16 735.04,-408.05 738.49,-414.14"/>
</g>
<!-- 40 -->
<g id="node41" class="node">
<title>40</title>
<polygon fill="none" stroke="black" points="845,-332 710,-332 710,-294 845,-294 845,-332"/>
<text text-anchor="middle" x="777.5" y="-316.8" font-family="Times,serif" font-size="14.00">longitude &lt;= &#45;68.325</text>
<text text-anchor="middle" x="777.5" y="-301.8" font-family="Times,serif" font-size="14.00">class = USA</text>
</g>
<!-- 39&#45;&gt;40 -->
<g id="edge40" class="edge">
<title>39&#45;&gt;40</title>
<path fill="none" stroke="black" d="M777.5,-367.83C777.5,-360.13 777.5,-350.97 777.5,-342.42"/>
<polygon fill="black" stroke="black" points="781,-342.41 777.5,-332.41 774,-342.41 781,-342.41"/>
</g>
<!-- 47 -->
<g id="node48" class="node">
<title>47</title>
<polygon fill="none" stroke="black" points="984.5,-332 864.5,-332 864.5,-294 984.5,-294 984.5,-332"/>
<text text-anchor="middle" x="924.5" y="-316.8" font-family="Times,serif" font-size="14.00">latitude &lt;= 45.565</text>
<text text-anchor="middle" x="924.5" y="-301.8" font-family="Times,serif" font-size="14.00">class = Canada</text>
</g>
<!-- 39&#45;&gt;47 -->
<g id="edge47" class="edge">
<title>39&#45;&gt;47</title>
<path fill="none" stroke="black" d="M814.59,-367.83C833.99,-358.33 857.92,-346.61 878.49,-336.54"/>
<polygon fill="black" stroke="black" points="880.23,-339.58 887.67,-332.04 877.15,-333.29 880.23,-339.58"/>
</g>
<!-- 41 -->
<g id="node42" class="node">
<title>41</title>
<polygon fill="none" stroke="black" points="733.5,-258 613.5,-258 613.5,-220 733.5,-220 733.5,-258"/>
<text text-anchor="middle" x="673.5" y="-242.8" font-family="Times,serif" font-size="14.00">latitude &lt;= 47.256</text>
<text text-anchor="middle" x="673.5" y="-227.8" font-family="Times,serif" font-size="14.00">class = Canada</text>
</g>
<!-- 40&#45;&gt;41 -->
<g id="edge41" class="edge">
<title>40&#45;&gt;41</title>
<path fill="none" stroke="black" d="M751.26,-293.83C738.2,-284.79 722.25,-273.75 708.2,-264.02"/>
<polygon fill="black" stroke="black" points="709.95,-260.98 699.74,-258.16 705.96,-266.73 709.95,-260.98"/>
</g>
<!-- 46 -->
<g id="node47" class="node">
<title>46</title>
<polygon fill="none" stroke="black" points="839,-257 752,-257 752,-221 839,-221 839,-257"/>
<text text-anchor="middle" x="795.5" y="-235.3" font-family="Times,serif" font-size="14.00">class = USA</text>
</g>
<!-- 40&#45;&gt;46 -->
<g id="edge46" class="edge">
<title>40&#45;&gt;46</title>
<path fill="none" stroke="black" d="M782.04,-293.83C784.05,-285.81 786.45,-276.2 788.67,-267.34"/>
<polygon fill="black" stroke="black" points="792.12,-267.97 791.15,-257.42 785.32,-266.27 792.12,-267.97"/>
</g>
<!-- 42 -->
<g id="node43" class="node">
<title>42</title>
<polygon fill="none" stroke="black" points="708,-183 607,-183 607,-147 708,-147 708,-183"/>
<text text-anchor="middle" x="657.5" y="-161.3" font-family="Times,serif" font-size="14.00">class = Canada</text>
</g>
<!-- 41&#45;&gt;42 -->
<g id="edge42" class="edge">
<title>41&#45;&gt;42</title>
<path fill="none" stroke="black" d="M669.46,-219.83C667.68,-211.81 665.54,-202.2 663.58,-193.34"/>
<polygon fill="black" stroke="black" points="666.96,-192.42 661.37,-183.42 660.12,-193.94 666.96,-192.42"/>
</g>
<!-- 43 -->
<g id="node44" class="node">
<title>43</title>
<polygon fill="none" stroke="black" points="861,-184 726,-184 726,-146 861,-146 861,-184"/>
<text text-anchor="middle" x="793.5" y="-168.8" font-family="Times,serif" font-size="14.00">longitude &lt;= &#45;68.459</text>
<text text-anchor="middle" x="793.5" y="-153.8" font-family="Times,serif" font-size="14.00">class = USA</text>
</g>
<!-- 41&#45;&gt;43 -->
<g id="edge43" class="edge">
<title>41&#45;&gt;43</title>
<path fill="none" stroke="black" d="M703.78,-219.83C719.13,-210.62 737.95,-199.33 754.38,-189.47"/>
<polygon fill="black" stroke="black" points="756.45,-192.31 763.23,-184.16 752.85,-186.31 756.45,-192.31"/>
</g>
<!-- 44 -->
<g id="node45" class="node">
<title>44</title>
<polygon fill="none" stroke="black" points="781,-109 694,-109 694,-73 781,-73 781,-109"/>
<text text-anchor="middle" x="737.5" y="-87.3" font-family="Times,serif" font-size="14.00">class = USA</text>
</g>
<!-- 43&#45;&gt;44 -->
<g id="edge44" class="edge">
<title>43&#45;&gt;44</title>
<path fill="none" stroke="black" d="M779.37,-145.83C772.65,-137.2 764.51,-126.73 757.2,-117.33"/>
<polygon fill="black" stroke="black" points="759.95,-115.16 751.05,-109.42 754.42,-119.46 759.95,-115.16"/>
</g>
<!-- 45 -->
<g id="node46" class="node">
<title>45</title>
<polygon fill="none" stroke="black" points="900,-109 799,-109 799,-73 900,-73 900,-109"/>
<text text-anchor="middle" x="849.5" y="-87.3" font-family="Times,serif" font-size="14.00">class = Canada</text>
</g>
<!-- 43&#45;&gt;45 -->
<g id="edge45" class="edge">
<title>43&#45;&gt;45</title>
<path fill="none" stroke="black" d="M807.63,-145.83C814.35,-137.2 822.49,-126.73 829.8,-117.33"/>
<polygon fill="black" stroke="black" points="832.58,-119.46 835.95,-109.42 827.05,-115.16 832.58,-119.46"/>
</g>
<!-- 48 -->
<g id="node49" class="node">
<title>48</title>
<polygon fill="none" stroke="black" points="992,-258 857,-258 857,-220 992,-220 992,-258"/>
<text text-anchor="middle" x="924.5" y="-242.8" font-family="Times,serif" font-size="14.00">longitude &lt;= &#45;67.355</text>
<text text-anchor="middle" x="924.5" y="-227.8" font-family="Times,serif" font-size="14.00">class = Canada</text>
</g>
<!-- 47&#45;&gt;48 -->
<g id="edge48" class="edge">
<title>47&#45;&gt;48</title>
<path fill="none" stroke="black" d="M924.5,-293.83C924.5,-286.13 924.5,-276.97 924.5,-268.42"/>
<polygon fill="black" stroke="black" points="928,-268.41 924.5,-258.41 921,-268.41 928,-268.41"/>
</g>
<!-- 51 -->
<g id="node52" class="node">
<title>51</title>
<polygon fill="none" stroke="black" points="1111,-257 1010,-257 1010,-221 1111,-221 1111,-257"/>
<text text-anchor="middle" x="1060.5" y="-235.3" font-family="Times,serif" font-size="14.00">class = Canada</text>
</g>
<!-- 47&#45;&gt;51 -->
<g id="edge51" class="edge">
<title>47&#45;&gt;51</title>
<path fill="none" stroke="black" d="M958.82,-293.83C977.16,-284.12 999.87,-272.1 1019.18,-261.88"/>
<polygon fill="black" stroke="black" points="1020.86,-264.94 1028.07,-257.17 1017.59,-258.76 1020.86,-264.94"/>
</g>
<!-- 49 -->
<g id="node50" class="node">
<title>49</title>
<polygon fill="none" stroke="black" points="967,-183 880,-183 880,-147 967,-147 967,-183"/>
<text text-anchor="middle" x="923.5" y="-161.3" font-family="Times,serif" font-size="14.00">class = USA</text>
</g>
<!-- 48&#45;&gt;49 -->
<g id="edge49" class="edge">
<title>48&#45;&gt;49</title>
<path fill="none" stroke="black" d="M924.25,-219.83C924.14,-211.89 924.01,-202.41 923.88,-193.63"/>
<polygon fill="black" stroke="black" points="927.38,-193.37 923.74,-183.42 920.38,-193.47 927.38,-193.37"/>
</g>
<!-- 50 -->
<g id="node51" class="node">
<title>50</title>
<polygon fill="none" stroke="black" points="1086,-183 985,-183 985,-147 1086,-147 1086,-183"/>
<text text-anchor="middle" x="1035.5" y="-161.3" font-family="Times,serif" font-size="14.00">class = Canada</text>
</g>
<!-- 48&#45;&gt;50 -->
<g id="edge50" class="edge">
<title>48&#45;&gt;50</title>
<path fill="none" stroke="black" d="M952.51,-219.83C967.01,-210.43 984.85,-198.86 1000.27,-188.85"/>
<polygon fill="black" stroke="black" points="1002.54,-191.55 1009.03,-183.17 998.73,-185.68 1002.54,-191.55"/>
</g>
</g>
</svg>
