<?xml version="1.0" encoding="UTF-8" standalone="no"?>
<!DOCTYPE svg PUBLIC "-//W3C//DTD SVG 1.1//EN"
 "http://www.w3.org/Graphics/SVG/1.1/DTD/svg11.dtd">
<!-- Generated by graphviz version 2.48.0 (0)
 -->
<!-- Title: Tree Pages: 1 -->
<svg width="1134pt" height="932pt"
 viewBox="0.00 0.00 1134.00 932.00" xmlns="http://www.w3.org/2000/svg" xmlns:xlink="http://www.w3.org/1999/xlink">
<g id="graph0" class="graph" transform="scale(1 1) rotate(0) translate(4 928)">
<title>Tree</title>
<polygon fill="white" stroke="transparent" points="-4,4 -4,-928 1130,-928 1130,4 -4,4"/>
<!-- 0 -->
<g id="node1" class="node">
<title>0</title>
<polygon fill="none" stroke="black" points="363.5,-924 257.5,-924 257.5,-886 363.5,-886 363.5,-924"/>
<text text-anchor="middle" x="310.5" y="-908.8" font-family="Times,serif" font-size="14.00">latitude &lt;= 42.9</text>
<text text-anchor="middle" x="310.5" y="-893.8" font-family="Times,serif" font-size="14.00">class = Canada</text>
</g>
<!-- 1 -->
<g id="node2" class="node">
<title>1</title>
<polygon fill="none" stroke="black" points="301.5,-850 181.5,-850 181.5,-812 301.5,-812 301.5,-850"/>
<text text-anchor="middle" x="241.5" y="-834.8" font-family="Times,serif" font-size="14.00">latitude &lt;= 42.096</text>
<text text-anchor="middle" x="241.5" y="-819.8" font-family="Times,serif" font-size="14.00">class = USA</text>
</g>
<!-- 0&#45;&gt;1 -->
<g id="edge1" class="edge">
<title>0&#45;&gt;1</title>
<path fill="none" stroke="black" d="M293.09,-885.83C284.98,-877.37 275.18,-867.15 266.32,-857.9"/>
<polygon fill="black" stroke="black" points="268.59,-855.21 259.15,-850.41 263.54,-860.05 268.59,-855.21"/>
<text text-anchor="middle" x="258.61" y="-871.71" font-family="Times,serif" font-size="14.00">True</text>
</g>
<!-- 6 -->
<g id="node7" class="node">
<title>6</title>
<polygon fill="none" stroke="black" points="439.5,-850 319.5,-850 319.5,-812 439.5,-812 439.5,-850"/>
<text text-anchor="middle" x="379.5" y="-834.8" font-family="Times,serif" font-size="14.00">latitude &lt;= 55.958</text>
<text text-anchor="middle" x="379.5" y="-819.8" font-family="Times,serif" font-size="14.00">class = Canada</text>
</g>
<!-- 0&#45;&gt;6 -->
<g id="edge6" class="edge">
<title>0&#45;&gt;6</title>
<path fill="none" stroke="black" d="M327.91,-885.83C336.02,-877.37 345.82,-867.15 354.68,-857.9"/>
<polygon fill="black" stroke="black" points="357.46,-860.05 361.85,-850.41 352.41,-855.21 357.46,-860.05"/>
<text text-anchor="middle" x="362.39" y="-871.71" font-family="Times,serif" font-size="14.00">False</text>
</g>
<!-- 2 -->
<g id="node3" class="node">
<title>2</title>
<polygon fill="none" stroke="black" points="165,-775 78,-775 78,-739 165,-739 165,-775"/>
<text text-anchor="middle" x="121.5" y="-753.3" font-family="Times,serif" font-size="14.00">class = USA</text>
</g>
<!-- 1&#45;&gt;2 -->
<g id="edge2" class="edge">
<title>1&#45;&gt;2</title>
<path fill="none" stroke="black" d="M211.22,-811.83C195.4,-802.34 175.9,-790.64 159.12,-780.57"/>
<polygon fill="black" stroke="black" points="160.49,-777.32 150.12,-775.17 156.89,-783.32 160.49,-777.32"/>
</g>
<!-- 3 -->
<g id="node4" class="node">
<title>3</title>
<polygon fill="none" stroke="black" points="303.5,-776 183.5,-776 183.5,-738 303.5,-738 303.5,-776"/>
<text text-anchor="middle" x="243.5" y="-760.8" font-family="Times,serif" font-size="14.00">latitude &lt;= 42.324</text>
<text text-anchor="middle" x="243.5" y="-745.8" font-family="Times,serif" font-size="14.00">class = USA</text>
</g>
<!-- 1&#45;&gt;3 -->
<g id="edge3" class="edge">
<title>1&#45;&gt;3</title>
<path fill="none" stroke="black" d="M242,-811.83C242.22,-804.13 242.47,-794.97 242.71,-786.42"/>
<polygon fill="black" stroke="black" points="246.21,-786.51 242.99,-776.41 239.21,-786.31 246.21,-786.51"/>
</g>
<!-- 4 -->
<g id="node5" class="node">
<title>4</title>
<polygon fill="none" stroke="black" points="183,-701 82,-701 82,-665 183,-665 183,-701"/>
<text text-anchor="middle" x="132.5" y="-679.3" font-family="Times,serif" font-size="14.00">class = Canada</text>
</g>
<!-- 3&#45;&gt;4 -->
<g id="edge4" class="edge">
<title>3&#45;&gt;4</title>
<path fill="none" stroke="black" d="M215.49,-737.83C200.99,-728.43 183.15,-716.86 167.73,-706.85"/>
<polygon fill="black" stroke="black" points="169.27,-703.68 158.97,-701.17 165.46,-709.55 169.27,-703.68"/>
</g>
<!-- 5 -->
<g id="node6" class="node">
<title>5</title>
<polygon fill="none" stroke="black" points="288,-701 201,-701 201,-665 288,-665 288,-701"/>
<text text-anchor="middle" x="244.5" y="-679.3" font-family="Times,serif" font-size="14.00">class = USA</text>
</g>
<!-- 3&#45;&gt;5 -->
<g id="edge5" class="edge">
<title>3&#45;&gt;5</title>
<path fill="none" stroke="black" d="M243.75,-737.83C243.86,-729.89 243.99,-720.41 244.12,-711.63"/>
<polygon fill="black" stroke="black" points="247.62,-711.47 244.26,-701.42 240.62,-711.37 247.62,-711.47"/>
</g>
<!-- 7 -->
<g id="node8" class="node">
<title>7</title>
<polygon fill="none" stroke="black" points="431.5,-776 325.5,-776 325.5,-738 431.5,-738 431.5,-776"/>
<text text-anchor="middle" x="378.5" y="-760.8" font-family="Times,serif" font-size="14.00">latitude &lt;= 49.0</text>
<text text-anchor="middle" x="378.5" y="-745.8" font-family="Times,serif" font-size="14.00">class = Canada</text>
</g>
<!-- 6&#45;&gt;7 -->
<g id="edge7" class="edge">
<title>6&#45;&gt;7</title>
<path fill="none" stroke="black" d="M379.25,-811.83C379.14,-804.13 379.01,-794.97 378.89,-786.42"/>
<polygon fill="black" stroke="black" points="382.39,-786.36 378.76,-776.41 375.4,-786.46 382.39,-786.36"/>
</g>
<!-- 56 -->
<g id="node57" class="node">
<title>56</title>
<polygon fill="none" stroke="black" points="537,-775 450,-775 450,-739 537,-739 537,-775"/>
<text text-anchor="middle" x="493.5" y="-753.3" font-family="Times,serif" font-size="14.00">class = USA</text>
</g>
<!-- 6&#45;&gt;56 -->
<g id="edge56" class="edge">
<title>6&#45;&gt;56</title>
<path fill="none" stroke="black" d="M408.27,-811.83C423.29,-802.34 441.82,-790.64 457.76,-780.57"/>
<polygon fill="black" stroke="black" points="459.73,-783.47 466.31,-775.17 455.99,-777.55 459.73,-783.47"/>
</g>
<!-- 8 -->
<g id="node9" class="node">
<title>8</title>
<polygon fill="none" stroke="black" points="445,-702 310,-702 310,-664 445,-664 445,-702"/>
<text text-anchor="middle" x="377.5" y="-686.8" font-family="Times,serif" font-size="14.00">longitude &lt;= &#45;94.582</text>
<text text-anchor="middle" x="377.5" y="-671.8" font-family="Times,serif" font-size="14.00">class = Canada</text>
</g>
<!-- 7&#45;&gt;8 -->
<g id="edge8" class="edge">
<title>7&#45;&gt;8</title>
<path fill="none" stroke="black" d="M378.25,-737.83C378.14,-730.13 378.01,-720.97 377.89,-712.42"/>
<polygon fill="black" stroke="black" points="381.39,-712.36 377.76,-702.41 374.4,-712.46 381.39,-712.36"/>
</g>
<!-- 55 -->
<g id="node56" class="node">
<title>55</title>
<polygon fill="none" stroke="black" points="564,-701 463,-701 463,-665 564,-665 564,-701"/>
<text text-anchor="middle" x="513.5" y="-679.3" font-family="Times,serif" font-size="14.00">class = Canada</text>
</g>
<!-- 7&#45;&gt;55 -->
<g id="edge55" class="edge">
<title>7&#45;&gt;55</title>
<path fill="none" stroke="black" d="M412.57,-737.83C430.69,-728.17 453.12,-716.2 472.22,-706.01"/>
<polygon fill="black" stroke="black" points="474.13,-708.97 481.3,-701.17 470.83,-702.79 474.13,-708.97"/>
</g>
<!-- 9 -->
<g id="node10" class="node">
<title>9</title>
<polygon fill="none" stroke="black" points="370.5,-628 228.5,-628 228.5,-590 370.5,-590 370.5,-628"/>
<text text-anchor="middle" x="299.5" y="-612.8" font-family="Times,serif" font-size="14.00">longitude &lt;= &#45;123.222</text>
<text text-anchor="middle" x="299.5" y="-597.8" font-family="Times,serif" font-size="14.00">class = USA</text>
</g>
<!-- 8&#45;&gt;9 -->
<g id="edge9" class="edge">
<title>8&#45;&gt;9</title>
<path fill="none" stroke="black" d="M357.82,-663.83C348.39,-655.13 336.96,-644.58 326.72,-635.13"/>
<polygon fill="black" stroke="black" points="328.9,-632.37 319.18,-628.16 324.15,-637.52 328.9,-632.37"/>
</g>
<!-- 12 -->
<g id="node13" class="node">
<title>12</title>
<polygon fill="none" stroke="black" points="524,-628 389,-628 389,-590 524,-590 524,-628"/>
<text text-anchor="middle" x="456.5" y="-612.8" font-family="Times,serif" font-size="14.00">longitude &lt;= &#45;69.246</text>
<text text-anchor="middle" x="456.5" y="-597.8" font-family="Times,serif" font-size="14.00">class = Canada</text>
</g>
<!-- 8&#45;&gt;12 -->
<g id="edge12" class="edge">
<title>8&#45;&gt;12</title>
<path fill="none" stroke="black" d="M397.44,-663.83C406.98,-655.13 418.56,-644.58 428.93,-635.13"/>
<polygon fill="black" stroke="black" points="431.54,-637.49 436.57,-628.16 426.82,-632.31 431.54,-637.49"/>
</g>
<!-- 10 -->
<g id="node11" class="node">
<title>10</title>
<polygon fill="none" stroke="black" points="247,-553 146,-553 146,-517 247,-517 247,-553"/>
<text text-anchor="middle" x="196.5" y="-531.3" font-family="Times,serif" font-size="14.00">class = Canada</text>
</g>
<!-- 9&#45;&gt;10 -->
<g id="edge10" class="edge">
<title>9&#45;&gt;10</title>
<path fill="none" stroke="black" d="M273.51,-589.83C260.18,-580.52 243.81,-569.07 229.59,-559.13"/>
<polygon fill="black" stroke="black" points="231.27,-556.03 221.06,-553.17 227.26,-561.77 231.27,-556.03"/>
</g>
<!-- 11 -->
<g id="node12" class="node">
<title>11</title>
<polygon fill="none" stroke="black" points="352,-553 265,-553 265,-517 352,-517 352,-553"/>
<text text-anchor="middle" x="308.5" y="-531.3" font-family="Times,serif" font-size="14.00">class = USA</text>
</g>
<!-- 9&#45;&gt;11 -->
<g id="edge11" class="edge">
<title>9&#45;&gt;11</title>
<path fill="none" stroke="black" d="M301.77,-589.83C302.76,-581.89 303.95,-572.41 305.05,-563.63"/>
<polygon fill="black" stroke="black" points="308.56,-563.77 306.32,-553.42 301.61,-562.91 308.56,-563.77"/>
</g>
<!-- 13 -->
<g id="node14" class="node">
<title>13</title>
<polygon fill="none" stroke="black" points="507.5,-554 387.5,-554 387.5,-516 507.5,-516 507.5,-554"/>
<text text-anchor="middle" x="447.5" y="-538.8" font-family="Times,serif" font-size="14.00">latitude &lt;= 43.093</text>
<text text-anchor="middle" x="447.5" y="-523.8" font-family="Times,serif" font-size="14.00">class = Canada</text>
</g>
<!-- 12&#45;&gt;13 -->
<g id="edge13" class="edge">
<title>12&#45;&gt;13</title>
<path fill="none" stroke="black" d="M454.23,-589.83C453.27,-582.13 452.12,-572.97 451.05,-564.42"/>
<polygon fill="black" stroke="black" points="454.52,-563.9 449.8,-554.41 447.57,-564.77 454.52,-563.9"/>
</g>
<!-- 36 -->
<g id="node37" class="node">
<title>36</title>
<polygon fill="none" stroke="black" points="770,-554 635,-554 635,-516 770,-516 770,-554"/>
<text text-anchor="middle" x="702.5" y="-538.8" font-family="Times,serif" font-size="14.00">longitude &lt;= &#45;66.952</text>
<text text-anchor="middle" x="702.5" y="-523.8" font-family="Times,serif" font-size="14.00">class = Canada</text>
</g>
<!-- 12&#45;&gt;36 -->
<g id="edge36" class="edge">
<title>12&#45;&gt;36</title>
<path fill="none" stroke="black" d="M518.26,-589.92C552.47,-579.91 595.18,-567.41 630.85,-556.97"/>
<polygon fill="black" stroke="black" points="632.1,-560.25 640.72,-554.08 630.14,-553.53 632.1,-560.25"/>
</g>
<!-- 14 -->
<g id="node15" class="node">
<title>14</title>
<polygon fill="none" stroke="black" points="364.5,-480 244.5,-480 244.5,-442 364.5,-442 364.5,-480"/>
<text text-anchor="middle" x="304.5" y="-464.8" font-family="Times,serif" font-size="14.00">latitude &lt;= 43.014</text>
<text text-anchor="middle" x="304.5" y="-449.8" font-family="Times,serif" font-size="14.00">class = Canada</text>
</g>
<!-- 13&#45;&gt;14 -->
<g id="edge14" class="edge">
<title>13&#45;&gt;14</title>
<path fill="none" stroke="black" d="M411.42,-515.83C392.7,-506.41 369.66,-494.81 349.76,-484.79"/>
<polygon fill="black" stroke="black" points="351.08,-481.53 340.57,-480.16 347.93,-487.79 351.08,-481.53"/>
</g>
<!-- 19 -->
<g id="node20" class="node">
<title>19</title>
<polygon fill="none" stroke="black" points="507.5,-480 387.5,-480 387.5,-442 507.5,-442 507.5,-480"/>
<text text-anchor="middle" x="447.5" y="-464.8" font-family="Times,serif" font-size="14.00">latitude &lt;= 44.992</text>
<text text-anchor="middle" x="447.5" y="-449.8" font-family="Times,serif" font-size="14.00">class = Canada</text>
</g>
<!-- 13&#45;&gt;19 -->
<g id="edge19" class="edge">
<title>13&#45;&gt;19</title>
<path fill="none" stroke="black" d="M447.5,-515.83C447.5,-508.13 447.5,-498.97 447.5,-490.42"/>
<polygon fill="black" stroke="black" points="451,-490.41 447.5,-480.41 444,-490.41 451,-490.41"/>
</g>
<!-- 15 -->
<g id="node16" class="node">
<title>15</title>
<polygon fill="none" stroke="black" points="223,-406 88,-406 88,-368 223,-368 223,-406"/>
<text text-anchor="middle" x="155.5" y="-390.8" font-family="Times,serif" font-size="14.00">longitude &lt;= &#45;81.845</text>
<text text-anchor="middle" x="155.5" y="-375.8" font-family="Times,serif" font-size="14.00">class = Canada</text>
</g>
<!-- 14&#45;&gt;15 -->
<g id="edge15" class="edge">
<title>14&#45;&gt;15</title>
<path fill="none" stroke="black" d="M266.9,-441.83C247.15,-432.29 222.77,-420.51 201.86,-410.4"/>
<polygon fill="black" stroke="black" points="203.36,-407.24 192.83,-406.04 200.31,-413.54 203.36,-407.24"/>
</g>
<!-- 18 -->
<g id="node19" class="node">
<title>18</title>
<polygon fill="none" stroke="black" points="348,-405 261,-405 261,-369 348,-369 348,-405"/>
<text text-anchor="middle" x="304.5" y="-383.3" font-family="Times,serif" font-size="14.00">class = USA</text>
</g>
<!-- 14&#45;&gt;18 -->
<g id="edge18" class="edge">
<title>14&#45;&gt;18</title>
<path fill="none" stroke="black" d="M304.5,-441.83C304.5,-433.89 304.5,-424.41 304.5,-415.63"/>
<polygon fill="black" stroke="black" points="308,-415.42 304.5,-405.42 301,-415.42 308,-415.42"/>
</g>
<!-- 16 -->
<g id="node17" class="node">
<title>16</title>
<polygon fill="none" stroke="black" points="87,-331 0,-331 0,-295 87,-295 87,-331"/>
<text text-anchor="middle" x="43.5" y="-309.3" font-family="Times,serif" font-size="14.00">class = USA</text>
</g>
<!-- 15&#45;&gt;16 -->
<g id="edge16" class="edge">
<title>15&#45;&gt;16</title>
<path fill="none" stroke="black" d="M127.24,-367.83C112.61,-358.43 94.61,-346.86 79.05,-336.85"/>
<polygon fill="black" stroke="black" points="80.52,-333.63 70.21,-331.17 76.73,-339.52 80.52,-333.63"/>
</g>
<!-- 17 -->
<g id="node18" class="node">
<title>17</title>
<polygon fill="none" stroke="black" points="206,-331 105,-331 105,-295 206,-295 206,-331"/>
<text text-anchor="middle" x="155.5" y="-309.3" font-family="Times,serif" font-size="14.00">class = Canada</text>
</g>
<!-- 15&#45;&gt;17 -->
<g id="edge17" class="edge">
<title>15&#45;&gt;17</title>
<path fill="none" stroke="black" d="M155.5,-367.83C155.5,-359.89 155.5,-350.41 155.5,-341.63"/>
<polygon fill="black" stroke="black" points="159,-341.42 155.5,-331.42 152,-341.42 159,-341.42"/>
</g>
<!-- 20 -->
<g id="node21" class="node">
<title>20</title>
<polygon fill="none" stroke="black" points="497.5,-406 377.5,-406 377.5,-368 497.5,-368 497.5,-406"/>
<text text-anchor="middle" x="437.5" y="-390.8" font-family="Times,serif" font-size="14.00">latitude &lt;= 44.542</text>
<text text-anchor="middle" x="437.5" y="-375.8" font-family="Times,serif" font-size="14.00">class = Canada</text>
</g>
<!-- 19&#45;&gt;20 -->
<g id="edge20" class="edge">
<title>19&#45;&gt;20</title>
<path fill="none" stroke="black" d="M444.98,-441.83C443.91,-434.13 442.64,-424.97 441.45,-416.42"/>
<polygon fill="black" stroke="black" points="444.9,-415.84 440.06,-406.41 437.97,-416.8 444.9,-415.84"/>
</g>
<!-- 35 -->
<g id="node36" class="node">
<title>35</title>
<polygon fill="none" stroke="black" points="617,-405 516,-405 516,-369 617,-369 617,-405"/>
<text text-anchor="middle" x="566.5" y="-383.3" font-family="Times,serif" font-size="14.00">class = Canada</text>
</g>
<!-- 19&#45;&gt;35 -->
<g id="edge35" class="edge">
<title>19&#45;&gt;35</title>
<path fill="none" stroke="black" d="M477.53,-441.83C493.21,-432.34 512.56,-420.64 529.19,-410.57"/>
<polygon fill="black" stroke="black" points="531.38,-413.34 538.12,-405.17 527.75,-407.35 531.38,-413.34"/>
</g>
<!-- 21 -->
<g id="node22" class="node">
<title>21</title>
<polygon fill="none" stroke="black" points="359,-332 224,-332 224,-294 359,-294 359,-332"/>
<text text-anchor="middle" x="291.5" y="-316.8" font-family="Times,serif" font-size="14.00">longitude &lt;= &#45;79.076</text>
<text text-anchor="middle" x="291.5" y="-301.8" font-family="Times,serif" font-size="14.00">class = Canada</text>
</g>
<!-- 20&#45;&gt;21 -->
<g id="edge21" class="edge">
<title>20&#45;&gt;21</title>
<path fill="none" stroke="black" d="M400.66,-367.83C381.39,-358.33 357.63,-346.61 337.2,-336.54"/>
<polygon fill="black" stroke="black" points="338.59,-333.32 328.08,-332.04 335.5,-339.6 338.59,-333.32"/>
</g>
<!-- 30 -->
<g id="node31" class="node">
<title>30</title>
<polygon fill="none" stroke="black" points="512,-332 377,-332 377,-294 512,-294 512,-332"/>
<text text-anchor="middle" x="444.5" y="-316.8" font-family="Times,serif" font-size="14.00">longitude &lt;= &#45;84.392</text>
<text text-anchor="middle" x="444.5" y="-301.8" font-family="Times,serif" font-size="14.00">class = USA</text>
</g>
<!-- 20&#45;&gt;30 -->
<g id="edge30" class="edge">
<title>20&#45;&gt;30</title>
<path fill="none" stroke="black" d="M439.27,-367.83C440.02,-360.13 440.91,-350.97 441.74,-342.42"/>
<polygon fill="black" stroke="black" points="445.23,-342.71 442.71,-332.41 438.26,-342.03 445.23,-342.71"/>
</g>
<!-- 22 -->
<g id="node23" class="node">
<title>22</title>
<polygon fill="none" stroke="black" points="213,-257 112,-257 112,-221 213,-221 213,-257"/>
<text text-anchor="middle" x="162.5" y="-235.3" font-family="Times,serif" font-size="14.00">class = Canada</text>
</g>
<!-- 21&#45;&gt;22 -->
<g id="edge22" class="edge">
<title>21&#45;&gt;22</title>
<path fill="none" stroke="black" d="M258.95,-293.83C241.79,-284.25 220.59,-272.42 202.44,-262.29"/>
<polygon fill="black" stroke="black" points="203.7,-258.99 193.27,-257.17 200.29,-265.1 203.7,-258.99"/>
</g>
<!-- 23 -->
<g id="node24" class="node">
<title>23</title>
<polygon fill="none" stroke="black" points="351.5,-258 231.5,-258 231.5,-220 351.5,-220 351.5,-258"/>
<text text-anchor="middle" x="291.5" y="-242.8" font-family="Times,serif" font-size="14.00">latitude &lt;= 44.168</text>
<text text-anchor="middle" x="291.5" y="-227.8" font-family="Times,serif" font-size="14.00">class = Canada</text>
</g>
<!-- 21&#45;&gt;23 -->
<g id="edge23" class="edge">
<title>21&#45;&gt;23</title>
<path fill="none" stroke="black" d="M291.5,-293.83C291.5,-286.13 291.5,-276.97 291.5,-268.42"/>
<polygon fill="black" stroke="black" points="295,-268.41 291.5,-258.41 288,-268.41 295,-268.41"/>
</g>
<!-- 24 -->
<g id="node25" class="node">
<title>24</title>
<polygon fill="none" stroke="black" points="232.5,-184 104.5,-184 104.5,-146 232.5,-146 232.5,-184"/>
<text text-anchor="middle" x="168.5" y="-168.8" font-family="Times,serif" font-size="14.00">longitude &lt;= &#45;79.03</text>
<text text-anchor="middle" x="168.5" y="-153.8" font-family="Times,serif" font-size="14.00">class = USA</text>
</g>
<!-- 23&#45;&gt;24 -->
<g id="edge24" class="edge">
<title>23&#45;&gt;24</title>
<path fill="none" stroke="black" d="M260.46,-219.83C244.73,-210.62 225.44,-199.33 208.6,-189.47"/>
<polygon fill="black" stroke="black" points="209.93,-186.19 199.53,-184.16 206.39,-192.24 209.93,-186.19"/>
</g>
<!-- 29 -->
<g id="node30" class="node">
<title>29</title>
<polygon fill="none" stroke="black" points="352,-183 251,-183 251,-147 352,-147 352,-183"/>
<text text-anchor="middle" x="301.5" y="-161.3" font-family="Times,serif" font-size="14.00">class = Canada</text>
</g>
<!-- 23&#45;&gt;29 -->
<g id="edge29" class="edge">
<title>23&#45;&gt;29</title>
<path fill="none" stroke="black" d="M294.02,-219.83C295.14,-211.81 296.47,-202.2 297.7,-193.34"/>
<polygon fill="black" stroke="black" points="301.17,-193.8 299.08,-183.42 294.24,-192.84 301.17,-193.8"/>
</g>
<!-- 25 -->
<g id="node26" class="node">
<title>25</title>
<polygon fill="none" stroke="black" points="151,-109 64,-109 64,-73 151,-73 151,-109"/>
<text text-anchor="middle" x="107.5" y="-87.3" font-family="Times,serif" font-size="14.00">class = USA</text>
</g>
<!-- 24&#45;&gt;25 -->
<g id="edge25" class="edge">
<title>24&#45;&gt;25</title>
<path fill="none" stroke="black" d="M153.11,-145.83C145.79,-137.2 136.92,-126.73 128.96,-117.33"/>
<polygon fill="black" stroke="black" points="131.39,-114.79 122.26,-109.42 126.05,-119.31 131.39,-114.79"/>
</g>
<!-- 26 -->
<g id="node27" class="node">
<title>26</title>
<polygon fill="none" stroke="black" points="289.5,-110 169.5,-110 169.5,-72 289.5,-72 289.5,-110"/>
<text text-anchor="middle" x="229.5" y="-94.8" font-family="Times,serif" font-size="14.00">latitude &lt;= 43.988</text>
<text text-anchor="middle" x="229.5" y="-79.8" font-family="Times,serif" font-size="14.00">class = Canada</text>
</g>
<!-- 24&#45;&gt;26 -->
<g id="edge26" class="edge">
<title>24&#45;&gt;26</title>
<path fill="none" stroke="black" d="M183.89,-145.83C190.99,-137.45 199.55,-127.35 207.32,-118.17"/>
<polygon fill="black" stroke="black" points="210.11,-120.31 213.9,-110.41 204.77,-115.78 210.11,-120.31"/>
</g>
<!-- 27 -->
<g id="node28" class="node">
<title>27</title>
<polygon fill="none" stroke="black" points="224,-36 123,-36 123,0 224,0 224,-36"/>
<text text-anchor="middle" x="173.5" y="-14.3" font-family="Times,serif" font-size="14.00">class = Canada</text>
</g>
<!-- 26&#45;&gt;27 -->
<g id="edge27" class="edge">
<title>26&#45;&gt;27</title>
<path fill="none" stroke="black" d="M215.08,-71.72C208.43,-63.29 200.43,-53.15 193.23,-44.02"/>
<polygon fill="black" stroke="black" points="195.85,-41.69 186.91,-36 190.36,-46.02 195.85,-41.69"/>
</g>
<!-- 28 -->
<g id="node29" class="node">
<title>28</title>
<polygon fill="none" stroke="black" points="329,-36 242,-36 242,0 329,0 329,-36"/>
<text text-anchor="middle" x="285.5" y="-14.3" font-family="Times,serif" font-size="14.00">class = USA</text>
</g>
<!-- 26&#45;&gt;28 -->
<g id="edge28" class="edge">
<title>26&#45;&gt;28</title>
<path fill="none" stroke="black" d="M243.92,-71.72C250.57,-63.29 258.57,-53.15 265.77,-44.02"/>
<polygon fill="black" stroke="black" points="268.64,-46.02 272.09,-36 263.15,-41.69 268.64,-46.02"/>
</g>
<!-- 31 -->
<g id="node32" class="node">
<title>31</title>
<polygon fill="none" stroke="black" points="457,-257 370,-257 370,-221 457,-221 457,-257"/>
<text text-anchor="middle" x="413.5" y="-235.3" font-family="Times,serif" font-size="14.00">class = USA</text>
</g>
<!-- 30&#45;&gt;31 -->
<g id="edge31" class="edge">
<title>30&#45;&gt;31</title>
<path fill="none" stroke="black" d="M436.68,-293.83C433.15,-285.63 428.91,-275.78 425.02,-266.76"/>
<polygon fill="black" stroke="black" points="428.17,-265.22 421,-257.42 421.74,-267.99 428.17,-265.22"/>
</g>
<!-- 32 -->
<g id="node33" class="node">
<title>32</title>
<polygon fill="none" stroke="black" points="610,-258 475,-258 475,-220 610,-220 610,-258"/>
<text text-anchor="middle" x="542.5" y="-242.8" font-family="Times,serif" font-size="14.00">longitude &lt;= &#45;75.503</text>
<text text-anchor="middle" x="542.5" y="-227.8" font-family="Times,serif" font-size="14.00">class = Canada</text>
</g>
<!-- 30&#45;&gt;32 -->
<g id="edge32" class="edge">
<title>30&#45;&gt;32</title>
<path fill="none" stroke="black" d="M469.23,-293.83C481.42,-284.88 496.28,-273.96 509.43,-264.3"/>
<polygon fill="black" stroke="black" points="511.79,-266.9 517.78,-258.16 507.65,-261.26 511.79,-266.9"/>
</g>
<!-- 33 -->
<g id="node34" class="node">
<title>33</title>
<polygon fill="none" stroke="black" points="485,-183 384,-183 384,-147 485,-147 485,-183"/>
<text text-anchor="middle" x="434.5" y="-161.3" font-family="Times,serif" font-size="14.00">class = Canada</text>
</g>
<!-- 32&#45;&gt;33 -->
<g id="edge33" class="edge">
<title>32&#45;&gt;33</title>
<path fill="none" stroke="black" d="M515.25,-219.83C501.14,-210.43 483.78,-198.86 468.78,-188.85"/>
<polygon fill="black" stroke="black" points="470.52,-185.81 460.26,-183.17 466.64,-191.63 470.52,-185.81"/>
</g>
<!-- 34 -->
<g id="node35" class="node">
<title>34</title>
<polygon fill="none" stroke="black" points="590,-183 503,-183 503,-147 590,-147 590,-183"/>
<text text-anchor="middle" x="546.5" y="-161.3" font-family="Times,serif" font-size="14.00">class = USA</text>
</g>
<!-- 32&#45;&gt;34 -->
<g id="edge34" class="edge">
<title>32&#45;&gt;34</title>
<path fill="none" stroke="black" d="M543.51,-219.83C543.95,-211.89 544.48,-202.41 544.97,-193.63"/>
<polygon fill="black" stroke="black" points="548.47,-193.6 545.53,-183.42 541.48,-193.21 548.47,-193.6"/>
</g>
<!-- 37 -->
<g id="node38" class="node">
<title>37</title>
<polygon fill="none" stroke="black" points="770,-480 635,-480 635,-442 770,-442 770,-480"/>
<text text-anchor="middle" x="702.5" y="-464.8" font-family="Times,serif" font-size="14.00">longitude &lt;= &#45;67.279</text>
<text text-anchor="middle" x="702.5" y="-449.8" font-family="Times,serif" font-size="14.00">class = USA</text>
</g>
<!-- 36&#45;&gt;37 -->
<g id="edge37" class="edge">
<title>36&#45;&gt;37</title>
<path fill="none" stroke="black" d="M702.5,-515.83C702.5,-508.13 702.5,-498.97 702.5,-490.42"/>
<polygon fill="black" stroke="black" points="706,-490.41 702.5,-480.41 699,-490.41 706,-490.41"/>
</g>
<!-- 54 -->
<g id="node55" class="node">
<title>54</title>
<polygon fill="none" stroke="black" points="889,-479 788,-479 788,-443 889,-443 889,-479"/>
<text text-anchor="middle" x="838.5" y="-457.3" font-family="Times,serif" font-size="14.00">class = Canada</text>
</g>
<!-- 36&#45;&gt;54 -->
<g id="edge54" class="edge">
<title>36&#45;&gt;54</title>
<path fill="none" stroke="black" d="M736.82,-515.83C755.16,-506.12 777.87,-494.1 797.18,-483.88"/>
<polygon fill="black" stroke="black" points="798.86,-486.94 806.07,-479.17 795.59,-480.76 798.86,-486.94"/>
</g>
<!-- 38 -->
<g id="node39" class="node">
<title>38</title>
<polygon fill="none" stroke="black" points="766.5,-406 638.5,-406 638.5,-368 766.5,-368 766.5,-406"/>
<text text-anchor="middle" x="702.5" y="-390.8" font-family="Times,serif" font-size="14.00">longitude &lt;= &#45;67.93</text>
<text text-anchor="middle" x="702.5" y="-375.8" font-family="Times,serif" font-size="14.00">class = Canada</text>
</g>
<!-- 37&#45;&gt;38 -->
<g id="edge38" class="edge">
<title>37&#45;&gt;38</title>
<path fill="none" stroke="black" d="M702.5,-441.83C702.5,-434.13 702.5,-424.97 702.5,-416.42"/>
<polygon fill="black" stroke="black" points="706,-416.41 702.5,-406.41 699,-416.41 706,-416.41"/>
</g>
<!-- 53 -->
<g id="node54" class="node">
<title>53</title>
<polygon fill="none" stroke="black" points="872,-405 785,-405 785,-369 872,-369 872,-405"/>
<text text-anchor="middle" x="828.5" y="-383.3" font-family="Times,serif" font-size="14.00">class = USA</text>
</g>
<!-- 37&#45;&gt;53 -->
<g id="edge53" class="edge">
<title>37&#45;&gt;53</title>
<path fill="none" stroke="black" d="M734.3,-441.83C751.06,-432.25 771.76,-420.42 789.49,-410.29"/>
<polygon fill="black" stroke="black" points="791.5,-413.17 798.45,-405.17 788.03,-407.09 791.5,-413.17"/>
</g>
<!-- 39 -->
<g id="node40" class="node">
<title>39</title>
<polygon fill="none" stroke="black" points="770,-332 635,-332 635,-294 770,-294 770,-332"/>
<text text-anchor="middle" x="702.5" y="-316.8" font-family="Times,serif" font-size="14.00">longitude &lt;= &#45;68.325</text>
<text text-anchor="middle" x="702.5" y="-301.8" font-family="Times,serif" font-size="14.00">class = USA</text>
</g>
<!-- 38&#45;&gt;39 -->
<g id="edge39" class="edge">
<title>38&#45;&gt;39</title>
<path fill="none" stroke="black" d="M702.5,-367.83C702.5,-360.13 702.5,-350.97 702.5,-342.42"/>
<polygon fill="black" stroke="black" points="706,-342.41 702.5,-332.41 699,-342.41 706,-342.41"/>
</g>
<!-- 48 -->
<g id="node49" class="node">
<title>48</title>
<polygon fill="none" stroke="black" points="1006.5,-332 886.5,-332 886.5,-294 1006.5,-294 1006.5,-332"/>
<text text-anchor="middle" x="946.5" y="-316.8" font-family="Times,serif" font-size="14.00">latitude &lt;= 45.565</text>
<text text-anchor="middle" x="946.5" y="-301.8" font-family="Times,serif" font-size="14.00">class = Canada</text>
</g>
<!-- 38&#45;&gt;48 -->
<g id="edge48" class="edge">
<title>38&#45;&gt;48</title>
<path fill="none" stroke="black" d="M763.76,-367.92C798.08,-357.8 841.02,-345.13 876.64,-334.61"/>
<polygon fill="black" stroke="black" points="877.88,-337.9 886.48,-331.71 875.9,-331.18 877.88,-337.9"/>
</g>
<!-- 40 -->
<g id="node41" class="node">
<title>40</title>
<polygon fill="none" stroke="black" points="763,-258 628,-258 628,-220 763,-220 763,-258"/>
<text text-anchor="middle" x="695.5" y="-242.8" font-family="Times,serif" font-size="14.00">longitude &lt;= &#45;68.915</text>
<text text-anchor="middle" x="695.5" y="-227.8" font-family="Times,serif" font-size="14.00">class = Canada</text>
</g>
<!-- 39&#45;&gt;40 -->
<g id="edge40" class="edge">
<title>39&#45;&gt;40</title>
<path fill="none" stroke="black" d="M700.73,-293.83C699.98,-286.13 699.09,-276.97 698.26,-268.42"/>
<polygon fill="black" stroke="black" points="701.74,-268.03 697.29,-258.41 694.77,-268.71 701.74,-268.03"/>
</g>
<!-- 47 -->
<g id="node48" class="node">
<title>47</title>
<polygon fill="none" stroke="black" points="868,-257 781,-257 781,-221 868,-221 868,-257"/>
<text text-anchor="middle" x="824.5" y="-235.3" font-family="Times,serif" font-size="14.00">class = USA</text>
</g>
<!-- 39&#45;&gt;47 -->
<g id="edge47" class="edge">
<title>39&#45;&gt;47</title>
<path fill="none" stroke="black" d="M733.29,-293.83C749.52,-284.25 769.56,-272.42 786.73,-262.29"/>
<polygon fill="black" stroke="black" points="788.57,-265.27 795.4,-257.17 785.01,-259.24 788.57,-265.27"/>
</g>
<!-- 41 -->
<g id="node42" class="node">
<title>41</title>
<polygon fill="none" stroke="black" points="712,-183 625,-183 625,-147 712,-147 712,-183"/>
<text text-anchor="middle" x="668.5" y="-161.3" font-family="Times,serif" font-size="14.00">class = USA</text>
</g>
<!-- 40&#45;&gt;41 -->
<g id="edge41" class="edge">
<title>40&#45;&gt;41</title>
<path fill="none" stroke="black" d="M688.69,-219.83C685.64,-211.72 682,-201.99 678.64,-193.05"/>
<polygon fill="black" stroke="black" points="681.82,-191.55 675.03,-183.42 675.27,-194.01 681.82,-191.55"/>
</g>
<!-- 42 -->
<g id="node43" class="node">
<title>42</title>
<polygon fill="none" stroke="black" points="865,-184 730,-184 730,-146 865,-146 865,-184"/>
<text text-anchor="middle" x="797.5" y="-168.8" font-family="Times,serif" font-size="14.00">longitude &lt;= &#45;68.597</text>
<text text-anchor="middle" x="797.5" y="-153.8" font-family="Times,serif" font-size="14.00">class = Canada</text>
</g>
<!-- 40&#45;&gt;42 -->
<g id="edge42" class="edge">
<title>40&#45;&gt;42</title>
<path fill="none" stroke="black" d="M721.24,-219.83C734.04,-210.79 749.69,-199.75 763.47,-190.02"/>
<polygon fill="black" stroke="black" points="765.62,-192.79 771.77,-184.16 761.58,-187.07 765.62,-192.79"/>
</g>
<!-- 43 -->
<g id="node44" class="node">
<title>43</title>
<polygon fill="none" stroke="black" points="780,-109 679,-109 679,-73 780,-73 780,-109"/>
<text text-anchor="middle" x="729.5" y="-87.3" font-family="Times,serif" font-size="14.00">class = Canada</text>
</g>
<!-- 42&#45;&gt;43 -->
<g id="edge43" class="edge">
<title>42&#45;&gt;43</title>
<path fill="none" stroke="black" d="M780.34,-145.83C772.02,-137.02 761.9,-126.31 752.89,-116.76"/>
<polygon fill="black" stroke="black" points="755.36,-114.28 745.95,-109.42 750.27,-119.09 755.36,-114.28"/>
</g>
<!-- 44 -->
<g id="node45" class="node">
<title>44</title>
<polygon fill="none" stroke="black" points="933,-110 798,-110 798,-72 933,-72 933,-110"/>
<text text-anchor="middle" x="865.5" y="-94.8" font-family="Times,serif" font-size="14.00">longitude &lt;= &#45;68.459</text>
<text text-anchor="middle" x="865.5" y="-79.8" font-family="Times,serif" font-size="14.00">class = Canada</text>
</g>
<!-- 42&#45;&gt;44 -->
<g id="edge44" class="edge">
<title>42&#45;&gt;44</title>
<path fill="none" stroke="black" d="M814.66,-145.83C822.65,-137.37 832.3,-127.15 841.04,-117.9"/>
<polygon fill="black" stroke="black" points="843.79,-120.09 848.11,-110.41 838.7,-115.28 843.79,-120.09"/>
</g>
<!-- 45 -->
<g id="node46" class="node">
<title>45</title>
<polygon fill="none" stroke="black" points="853,-36 766,-36 766,0 853,0 853,-36"/>
<text text-anchor="middle" x="809.5" y="-14.3" font-family="Times,serif" font-size="14.00">class = USA</text>
</g>
<!-- 44&#45;&gt;45 -->
<g id="edge45" class="edge">
<title>44&#45;&gt;45</title>
<path fill="none" stroke="black" d="M851.08,-71.72C844.43,-63.29 836.43,-53.15 829.23,-44.02"/>
<polygon fill="black" stroke="black" points="831.85,-41.69 822.91,-36 826.36,-46.02 831.85,-41.69"/>
</g>
<!-- 46 -->
<g id="node47" class="node">
<title>46</title>
<polygon fill="none" stroke="black" points="972,-36 871,-36 871,0 972,0 972,-36"/>
<text text-anchor="middle" x="921.5" y="-14.3" font-family="Times,serif" font-size="14.00">class = Canada</text>
</g>
<!-- 44&#45;&gt;46 -->
<g id="edge46" class="edge">
<title>44&#45;&gt;46</title>
<path fill="none" stroke="black" d="M879.92,-71.72C886.57,-63.29 894.57,-53.15 901.77,-44.02"/>
<polygon fill="black" stroke="black" points="904.64,-46.02 908.09,-36 899.15,-41.69 904.64,-46.02"/>
</g>
<!-- 49 -->
<g id="node50" class="node">
<title>49</title>
<polygon fill="none" stroke="black" points="1006.5,-258 886.5,-258 886.5,-220 1006.5,-220 1006.5,-258"/>
<text text-anchor="middle" x="946.5" y="-242.8" font-family="Times,serif" font-size="14.00">latitude &lt;= 45.382</text>
<text text-anchor="middle" x="946.5" y="-227.8" font-family="Times,serif" font-size="14.00">class = Canada</text>
</g>
<!-- 48&#45;&gt;49 -->
<g id="edge49" class="edge">
<title>48&#45;&gt;49</title>
<path fill="none" stroke="black" d="M946.5,-293.83C946.5,-286.13 946.5,-276.97 946.5,-268.42"/>
<polygon fill="black" stroke="black" points="950,-268.41 946.5,-258.41 943,-268.41 950,-268.41"/>
</g>
<!-- 52 -->
<g id="node53" class="node">
<title>52</title>
<polygon fill="none" stroke="black" points="1126,-257 1025,-257 1025,-221 1126,-221 1126,-257"/>
<text text-anchor="middle" x="1075.5" y="-235.3" font-family="Times,serif" font-size="14.00">class = Canada</text>
</g>
<!-- 48&#45;&gt;52 -->
<g id="edge52" class="edge">
<title>48&#45;&gt;52</title>
<path fill="none" stroke="black" d="M979.05,-293.83C996.21,-284.25 1017.41,-272.42 1035.56,-262.29"/>
<polygon fill="black" stroke="black" points="1037.71,-265.1 1044.73,-257.17 1034.3,-258.99 1037.71,-265.1"/>
</g>
<!-- 50 -->
<g id="node51" class="node">
<title>50</title>
<polygon fill="none" stroke="black" points="992,-183 891,-183 891,-147 992,-147 992,-183"/>
<text text-anchor="middle" x="941.5" y="-161.3" font-family="Times,serif" font-size="14.00">class = Canada</text>
</g>
<!-- 49&#45;&gt;50 -->
<g id="edge50" class="edge">
<title>49&#45;&gt;50</title>
<path fill="none" stroke="black" d="M945.24,-219.83C944.69,-211.89 944.03,-202.41 943.42,-193.63"/>
<polygon fill="black" stroke="black" points="946.89,-193.15 942.71,-183.42 939.91,-193.64 946.89,-193.15"/>
</g>
<!-- 51 -->
<g id="node52" class="node">
<title>51</title>
<polygon fill="none" stroke="black" points="1097,-183 1010,-183 1010,-147 1097,-147 1097,-183"/>
<text text-anchor="middle" x="1053.5" y="-161.3" font-family="Times,serif" font-size="14.00">class = USA</text>
</g>
<!-- 49&#45;&gt;51 -->
<g id="edge51" class="edge">
<title>49&#45;&gt;51</title>
<path fill="none" stroke="black" d="M973.5,-219.83C987.47,-210.43 1004.67,-198.86 1019.54,-188.85"/>
<polygon fill="black" stroke="black" points="1021.64,-191.66 1027.98,-183.17 1017.73,-185.85 1021.64,-191.66"/>
</g>
</g>
</svg>
