<?xml version="1.0" encoding="UTF-8" standalone="no"?>
<!DOCTYPE svg PUBLIC "-//W3C//DTD SVG 1.1//EN"
 "http://www.w3.org/Graphics/SVG/1.1/DTD/svg11.dtd">
<!-- Generated by graphviz version 2.48.0 (0)
 -->
<!-- Title: Tree Pages: 1 -->
<svg width="1123pt" height="932pt"
 viewBox="0.00 0.00 1123.00 932.00" xmlns="http://www.w3.org/2000/svg" xmlns:xlink="http://www.w3.org/1999/xlink">
<g id="graph0" class="graph" transform="scale(1 1) rotate(0) translate(4 928)">
<title>Tree</title>
<polygon fill="white" stroke="transparent" points="-4,4 -4,-928 1119,-928 1119,4 -4,4"/>
<!-- 0 -->
<g id="node1" class="node">
<title>0</title>
<polygon fill="none" stroke="black" points="351.5,-924 245.5,-924 245.5,-886 351.5,-886 351.5,-924"/>
<text text-anchor="middle" x="298.5" y="-908.8" font-family="Times,serif" font-size="14.00">latitude &lt;= 42.9</text>
<text text-anchor="middle" x="298.5" y="-893.8" font-family="Times,serif" font-size="14.00">class = Canada</text>
</g>
<!-- 1 -->
<g id="node2" class="node">
<title>1</title>
<polygon fill="none" stroke="black" points="289.5,-850 169.5,-850 169.5,-812 289.5,-812 289.5,-850"/>
<text text-anchor="middle" x="229.5" y="-834.8" font-family="Times,serif" font-size="14.00">latitude &lt;= 42.096</text>
<text text-anchor="middle" x="229.5" y="-819.8" font-family="Times,serif" font-size="14.00">class = USA</text>
</g>
<!-- 0&#45;&gt;1 -->
<g id="edge1" class="edge">
<title>0&#45;&gt;1</title>
<path fill="none" stroke="black" d="M281.09,-885.83C272.98,-877.37 263.18,-867.15 254.32,-857.9"/>
<polygon fill="black" stroke="black" points="256.59,-855.21 247.15,-850.41 251.54,-860.05 256.59,-855.21"/>
<text text-anchor="middle" x="246.61" y="-871.71" font-family="Times,serif" font-size="14.00">True</text>
</g>
<!-- 6 -->
<g id="node7" class="node">
<title>6</title>
<polygon fill="none" stroke="black" points="427.5,-850 307.5,-850 307.5,-812 427.5,-812 427.5,-850"/>
<text text-anchor="middle" x="367.5" y="-834.8" font-family="Times,serif" font-size="14.00">latitude &lt;= 55.958</text>
<text text-anchor="middle" x="367.5" y="-819.8" font-family="Times,serif" font-size="14.00">class = Canada</text>
</g>
<!-- 0&#45;&gt;6 -->
<g id="edge6" class="edge">
<title>0&#45;&gt;6</title>
<path fill="none" stroke="black" d="M315.91,-885.83C324.02,-877.37 333.82,-867.15 342.68,-857.9"/>
<polygon fill="black" stroke="black" points="345.46,-860.05 349.85,-850.41 340.41,-855.21 345.46,-860.05"/>
<text text-anchor="middle" x="350.39" y="-871.71" font-family="Times,serif" font-size="14.00">False</text>
</g>
<!-- 2 -->
<g id="node3" class="node">
<title>2</title>
<polygon fill="none" stroke="black" points="153,-775 66,-775 66,-739 153,-739 153,-775"/>
<text text-anchor="middle" x="109.5" y="-753.3" font-family="Times,serif" font-size="14.00">class = USA</text>
</g>
<!-- 1&#45;&gt;2 -->
<g id="edge2" class="edge">
<title>1&#45;&gt;2</title>
<path fill="none" stroke="black" d="M199.22,-811.83C183.4,-802.34 163.9,-790.64 147.12,-780.57"/>
<polygon fill="black" stroke="black" points="148.49,-777.32 138.12,-775.17 144.89,-783.32 148.49,-777.32"/>
</g>
<!-- 3 -->
<g id="node4" class="node">
<title>3</title>
<polygon fill="none" stroke="black" points="291.5,-776 171.5,-776 171.5,-738 291.5,-738 291.5,-776"/>
<text text-anchor="middle" x="231.5" y="-760.8" font-family="Times,serif" font-size="14.00">latitude &lt;= 42.324</text>
<text text-anchor="middle" x="231.5" y="-745.8" font-family="Times,serif" font-size="14.00">class = USA</text>
</g>
<!-- 1&#45;&gt;3 -->
<g id="edge3" class="edge">
<title>1&#45;&gt;3</title>
<path fill="none" stroke="black" d="M230,-811.83C230.22,-804.13 230.47,-794.97 230.71,-786.42"/>
<polygon fill="black" stroke="black" points="234.21,-786.51 230.99,-776.41 227.21,-786.31 234.21,-786.51"/>
</g>
<!-- 4 -->
<g id="node5" class="node">
<title>4</title>
<polygon fill="none" stroke="black" points="171,-701 70,-701 70,-665 171,-665 171,-701"/>
<text text-anchor="middle" x="120.5" y="-679.3" font-family="Times,serif" font-size="14.00">class = Canada</text>
</g>
<!-- 3&#45;&gt;4 -->
<g id="edge4" class="edge">
<title>3&#45;&gt;4</title>
<path fill="none" stroke="black" d="M203.49,-737.83C188.99,-728.43 171.15,-716.86 155.73,-706.85"/>
<polygon fill="black" stroke="black" points="157.27,-703.68 146.97,-701.17 153.46,-709.55 157.27,-703.68"/>
</g>
<!-- 5 -->
<g id="node6" class="node">
<title>5</title>
<polygon fill="none" stroke="black" points="276,-701 189,-701 189,-665 276,-665 276,-701"/>
<text text-anchor="middle" x="232.5" y="-679.3" font-family="Times,serif" font-size="14.00">class = USA</text>
</g>
<!-- 3&#45;&gt;5 -->
<g id="edge5" class="edge">
<title>3&#45;&gt;5</title>
<path fill="none" stroke="black" d="M231.75,-737.83C231.86,-729.89 231.99,-720.41 232.12,-711.63"/>
<polygon fill="black" stroke="black" points="235.62,-711.47 232.26,-701.42 228.62,-711.37 235.62,-711.47"/>
</g>
<!-- 7 -->
<g id="node8" class="node">
<title>7</title>
<polygon fill="none" stroke="black" points="419.5,-776 313.5,-776 313.5,-738 419.5,-738 419.5,-776"/>
<text text-anchor="middle" x="366.5" y="-760.8" font-family="Times,serif" font-size="14.00">latitude &lt;= 49.0</text>
<text text-anchor="middle" x="366.5" y="-745.8" font-family="Times,serif" font-size="14.00">class = Canada</text>
</g>
<!-- 6&#45;&gt;7 -->
<g id="edge7" class="edge">
<title>6&#45;&gt;7</title>
<path fill="none" stroke="black" d="M367.25,-811.83C367.14,-804.13 367.01,-794.97 366.89,-786.42"/>
<polygon fill="black" stroke="black" points="370.39,-786.36 366.76,-776.41 363.4,-786.46 370.39,-786.36"/>
</g>
<!-- 54 -->
<g id="node55" class="node">
<title>54</title>
<polygon fill="none" stroke="black" points="525,-775 438,-775 438,-739 525,-739 525,-775"/>
<text text-anchor="middle" x="481.5" y="-753.3" font-family="Times,serif" font-size="14.00">class = USA</text>
</g>
<!-- 6&#45;&gt;54 -->
<g id="edge54" class="edge">
<title>6&#45;&gt;54</title>
<path fill="none" stroke="black" d="M396.27,-811.83C411.29,-802.34 429.82,-790.64 445.76,-780.57"/>
<polygon fill="black" stroke="black" points="447.73,-783.47 454.31,-775.17 443.99,-777.55 447.73,-783.47"/>
</g>
<!-- 8 -->
<g id="node9" class="node">
<title>8</title>
<polygon fill="none" stroke="black" points="433,-702 298,-702 298,-664 433,-664 433,-702"/>
<text text-anchor="middle" x="365.5" y="-686.8" font-family="Times,serif" font-size="14.00">longitude &lt;= &#45;94.582</text>
<text text-anchor="middle" x="365.5" y="-671.8" font-family="Times,serif" font-size="14.00">class = Canada</text>
</g>
<!-- 7&#45;&gt;8 -->
<g id="edge8" class="edge">
<title>7&#45;&gt;8</title>
<path fill="none" stroke="black" d="M366.25,-737.83C366.14,-730.13 366.01,-720.97 365.89,-712.42"/>
<polygon fill="black" stroke="black" points="369.39,-712.36 365.76,-702.41 362.4,-712.46 369.39,-712.36"/>
</g>
<!-- 53 -->
<g id="node54" class="node">
<title>53</title>
<polygon fill="none" stroke="black" points="552,-701 451,-701 451,-665 552,-665 552,-701"/>
<text text-anchor="middle" x="501.5" y="-679.3" font-family="Times,serif" font-size="14.00">class = Canada</text>
</g>
<!-- 7&#45;&gt;53 -->
<g id="edge53" class="edge">
<title>7&#45;&gt;53</title>
<path fill="none" stroke="black" d="M400.57,-737.83C418.69,-728.17 441.12,-716.2 460.22,-706.01"/>
<polygon fill="black" stroke="black" points="462.13,-708.97 469.3,-701.17 458.83,-702.79 462.13,-708.97"/>
</g>
<!-- 9 -->
<g id="node10" class="node">
<title>9</title>
<polygon fill="none" stroke="black" points="358.5,-628 216.5,-628 216.5,-590 358.5,-590 358.5,-628"/>
<text text-anchor="middle" x="287.5" y="-612.8" font-family="Times,serif" font-size="14.00">longitude &lt;= &#45;123.222</text>
<text text-anchor="middle" x="287.5" y="-597.8" font-family="Times,serif" font-size="14.00">class = USA</text>
</g>
<!-- 8&#45;&gt;9 -->
<g id="edge9" class="edge">
<title>8&#45;&gt;9</title>
<path fill="none" stroke="black" d="M345.82,-663.83C336.39,-655.13 324.96,-644.58 314.72,-635.13"/>
<polygon fill="black" stroke="black" points="316.9,-632.37 307.18,-628.16 312.15,-637.52 316.9,-632.37"/>
</g>
<!-- 12 -->
<g id="node13" class="node">
<title>12</title>
<polygon fill="none" stroke="black" points="512,-628 377,-628 377,-590 512,-590 512,-628"/>
<text text-anchor="middle" x="444.5" y="-612.8" font-family="Times,serif" font-size="14.00">longitude &lt;= &#45;69.246</text>
<text text-anchor="middle" x="444.5" y="-597.8" font-family="Times,serif" font-size="14.00">class = Canada</text>
</g>
<!-- 8&#45;&gt;12 -->
<g id="edge12" class="edge">
<title>8&#45;&gt;12</title>
<path fill="none" stroke="black" d="M385.44,-663.83C394.98,-655.13 406.56,-644.58 416.93,-635.13"/>
<polygon fill="black" stroke="black" points="419.54,-637.49 424.57,-628.16 414.82,-632.31 419.54,-637.49"/>
</g>
<!-- 10 -->
<g id="node11" class="node">
<title>10</title>
<polygon fill="none" stroke="black" points="235,-553 134,-553 134,-517 235,-517 235,-553"/>
<text text-anchor="middle" x="184.5" y="-531.3" font-family="Times,serif" font-size="14.00">class = Canada</text>
</g>
<!-- 9&#45;&gt;10 -->
<g id="edge10" class="edge">
<title>9&#45;&gt;10</title>
<path fill="none" stroke="black" d="M261.51,-589.83C248.18,-580.52 231.81,-569.07 217.59,-559.13"/>
<polygon fill="black" stroke="black" points="219.27,-556.03 209.06,-553.17 215.26,-561.77 219.27,-556.03"/>
</g>
<!-- 11 -->
<g id="node12" class="node">
<title>11</title>
<polygon fill="none" stroke="black" points="340,-553 253,-553 253,-517 340,-517 340,-553"/>
<text text-anchor="middle" x="296.5" y="-531.3" font-family="Times,serif" font-size="14.00">class = USA</text>
</g>
<!-- 9&#45;&gt;11 -->
<g id="edge11" class="edge">
<title>9&#45;&gt;11</title>
<path fill="none" stroke="black" d="M289.77,-589.83C290.76,-581.89 291.95,-572.41 293.05,-563.63"/>
<polygon fill="black" stroke="black" points="296.56,-563.77 294.32,-553.42 289.61,-562.91 296.56,-563.77"/>
</g>
<!-- 13 -->
<g id="node14" class="node">
<title>13</title>
<polygon fill="none" stroke="black" points="495.5,-554 375.5,-554 375.5,-516 495.5,-516 495.5,-554"/>
<text text-anchor="middle" x="435.5" y="-538.8" font-family="Times,serif" font-size="14.00">latitude &lt;= 43.093</text>
<text text-anchor="middle" x="435.5" y="-523.8" font-family="Times,serif" font-size="14.00">class = Canada</text>
</g>
<!-- 12&#45;&gt;13 -->
<g id="edge13" class="edge">
<title>12&#45;&gt;13</title>
<path fill="none" stroke="black" d="M442.23,-589.83C441.27,-582.13 440.12,-572.97 439.05,-564.42"/>
<polygon fill="black" stroke="black" points="442.52,-563.9 437.8,-554.41 435.57,-564.77 442.52,-563.9"/>
</g>
<!-- 36 -->
<g id="node37" class="node">
<title>36</title>
<polygon fill="none" stroke="black" points="808,-554 673,-554 673,-516 808,-516 808,-554"/>
<text text-anchor="middle" x="740.5" y="-538.8" font-family="Times,serif" font-size="14.00">longitude &lt;= &#45;66.952</text>
<text text-anchor="middle" x="740.5" y="-523.8" font-family="Times,serif" font-size="14.00">class = Canada</text>
</g>
<!-- 12&#45;&gt;36 -->
<g id="edge36" class="edge">
<title>12&#45;&gt;36</title>
<path fill="none" stroke="black" d="M512.04,-591.57C557.04,-580.63 616.3,-566.21 663.19,-554.81"/>
<polygon fill="black" stroke="black" points="664.11,-558.18 673,-552.42 662.45,-551.38 664.11,-558.18"/>
</g>
<!-- 14 -->
<g id="node15" class="node">
<title>14</title>
<polygon fill="none" stroke="black" points="233,-480 98,-480 98,-442 233,-442 233,-480"/>
<text text-anchor="middle" x="165.5" y="-464.8" font-family="Times,serif" font-size="14.00">longitude &lt;= &#45;81.845</text>
<text text-anchor="middle" x="165.5" y="-449.8" font-family="Times,serif" font-size="14.00">class = Canada</text>
</g>
<!-- 13&#45;&gt;14 -->
<g id="edge14" class="edge">
<title>13&#45;&gt;14</title>
<path fill="none" stroke="black" d="M375.24,-517.93C336.25,-507.53 285.11,-493.9 243.09,-482.69"/>
<polygon fill="black" stroke="black" points="243.73,-479.24 233.17,-480.05 241.93,-486 243.73,-479.24"/>
</g>
<!-- 19 -->
<g id="node20" class="node">
<title>19</title>
<polygon fill="none" stroke="black" points="495.5,-480 375.5,-480 375.5,-442 495.5,-442 495.5,-480"/>
<text text-anchor="middle" x="435.5" y="-464.8" font-family="Times,serif" font-size="14.00">latitude &lt;= 44.992</text>
<text text-anchor="middle" x="435.5" y="-449.8" font-family="Times,serif" font-size="14.00">class = Canada</text>
</g>
<!-- 13&#45;&gt;19 -->
<g id="edge19" class="edge">
<title>13&#45;&gt;19</title>
<path fill="none" stroke="black" d="M435.5,-515.83C435.5,-508.13 435.5,-498.97 435.5,-490.42"/>
<polygon fill="black" stroke="black" points="439,-490.41 435.5,-480.41 432,-490.41 439,-490.41"/>
</g>
<!-- 15 -->
<g id="node16" class="node">
<title>15</title>
<polygon fill="none" stroke="black" points="87,-405 0,-405 0,-369 87,-369 87,-405"/>
<text text-anchor="middle" x="43.5" y="-383.3" font-family="Times,serif" font-size="14.00">class = USA</text>
</g>
<!-- 14&#45;&gt;15 -->
<g id="edge15" class="edge">
<title>14&#45;&gt;15</title>
<path fill="none" stroke="black" d="M134.71,-441.83C118.48,-432.25 98.44,-420.42 81.27,-410.29"/>
<polygon fill="black" stroke="black" points="82.99,-407.24 72.6,-405.17 79.43,-413.27 82.99,-407.24"/>
</g>
<!-- 16 -->
<g id="node17" class="node">
<title>16</title>
<polygon fill="none" stroke="black" points="225.5,-406 105.5,-406 105.5,-368 225.5,-368 225.5,-406"/>
<text text-anchor="middle" x="165.5" y="-390.8" font-family="Times,serif" font-size="14.00">latitude &lt;= 43.039</text>
<text text-anchor="middle" x="165.5" y="-375.8" font-family="Times,serif" font-size="14.00">class = Canada</text>
</g>
<!-- 14&#45;&gt;16 -->
<g id="edge16" class="edge">
<title>14&#45;&gt;16</title>
<path fill="none" stroke="black" d="M165.5,-441.83C165.5,-434.13 165.5,-424.97 165.5,-416.42"/>
<polygon fill="black" stroke="black" points="169,-416.41 165.5,-406.41 162,-416.41 169,-416.41"/>
</g>
<!-- 17 -->
<g id="node18" class="node">
<title>17</title>
<polygon fill="none" stroke="black" points="104,-331 3,-331 3,-295 104,-295 104,-331"/>
<text text-anchor="middle" x="53.5" y="-309.3" font-family="Times,serif" font-size="14.00">class = Canada</text>
</g>
<!-- 16&#45;&gt;17 -->
<g id="edge17" class="edge">
<title>16&#45;&gt;17</title>
<path fill="none" stroke="black" d="M137.24,-367.83C122.61,-358.43 104.61,-346.86 89.05,-336.85"/>
<polygon fill="black" stroke="black" points="90.52,-333.63 80.21,-331.17 86.73,-339.52 90.52,-333.63"/>
</g>
<!-- 18 -->
<g id="node19" class="node">
<title>18</title>
<polygon fill="none" stroke="black" points="209,-331 122,-331 122,-295 209,-295 209,-331"/>
<text text-anchor="middle" x="165.5" y="-309.3" font-family="Times,serif" font-size="14.00">class = USA</text>
</g>
<!-- 16&#45;&gt;18 -->
<g id="edge18" class="edge">
<title>16&#45;&gt;18</title>
<path fill="none" stroke="black" d="M165.5,-367.83C165.5,-359.89 165.5,-350.41 165.5,-341.63"/>
<polygon fill="black" stroke="black" points="169,-341.42 165.5,-331.42 162,-341.42 169,-341.42"/>
</g>
<!-- 20 -->
<g id="node21" class="node">
<title>20</title>
<polygon fill="none" stroke="black" points="426.5,-406 306.5,-406 306.5,-368 426.5,-368 426.5,-406"/>
<text text-anchor="middle" x="366.5" y="-390.8" font-family="Times,serif" font-size="14.00">latitude &lt;= 44.542</text>
<text text-anchor="middle" x="366.5" y="-375.8" font-family="Times,serif" font-size="14.00">class = Canada</text>
</g>
<!-- 19&#45;&gt;20 -->
<g id="edge20" class="edge">
<title>19&#45;&gt;20</title>
<path fill="none" stroke="black" d="M418.09,-441.83C409.98,-433.37 400.18,-423.15 391.32,-413.9"/>
<polygon fill="black" stroke="black" points="393.59,-411.21 384.15,-406.41 388.54,-416.05 393.59,-411.21"/>
</g>
<!-- 35 -->
<g id="node36" class="node">
<title>35</title>
<polygon fill="none" stroke="black" points="546,-405 445,-405 445,-369 546,-369 546,-405"/>
<text text-anchor="middle" x="495.5" y="-383.3" font-family="Times,serif" font-size="14.00">class = Canada</text>
</g>
<!-- 19&#45;&gt;35 -->
<g id="edge35" class="edge">
<title>19&#45;&gt;35</title>
<path fill="none" stroke="black" d="M450.64,-441.83C457.84,-433.2 466.56,-422.73 474.39,-413.33"/>
<polygon fill="black" stroke="black" points="477.27,-415.34 480.99,-405.42 471.89,-410.86 477.27,-415.34"/>
</g>
<!-- 21 -->
<g id="node22" class="node">
<title>21</title>
<polygon fill="none" stroke="black" points="362,-332 227,-332 227,-294 362,-294 362,-332"/>
<text text-anchor="middle" x="294.5" y="-316.8" font-family="Times,serif" font-size="14.00">longitude &lt;= &#45;79.076</text>
<text text-anchor="middle" x="294.5" y="-301.8" font-family="Times,serif" font-size="14.00">class = Canada</text>
</g>
<!-- 20&#45;&gt;21 -->
<g id="edge21" class="edge">
<title>20&#45;&gt;21</title>
<path fill="none" stroke="black" d="M348.33,-367.83C339.78,-359.28 329.44,-348.94 320.12,-339.62"/>
<polygon fill="black" stroke="black" points="322.46,-337.01 312.91,-332.41 317.51,-341.96 322.46,-337.01"/>
</g>
<!-- 30 -->
<g id="node31" class="node">
<title>30</title>
<polygon fill="none" stroke="black" points="515,-332 380,-332 380,-294 515,-294 515,-332"/>
<text text-anchor="middle" x="447.5" y="-316.8" font-family="Times,serif" font-size="14.00">longitude &lt;= &#45;84.392</text>
<text text-anchor="middle" x="447.5" y="-301.8" font-family="Times,serif" font-size="14.00">class = USA</text>
</g>
<!-- 20&#45;&gt;30 -->
<g id="edge30" class="edge">
<title>20&#45;&gt;30</title>
<path fill="none" stroke="black" d="M386.94,-367.83C396.82,-359.05 408.83,-348.37 419.55,-338.85"/>
<polygon fill="black" stroke="black" points="421.92,-341.42 427.07,-332.16 417.27,-336.19 421.92,-341.42"/>
</g>
<!-- 22 -->
<g id="node23" class="node">
<title>22</title>
<polygon fill="none" stroke="black" points="216,-257 115,-257 115,-221 216,-221 216,-257"/>
<text text-anchor="middle" x="165.5" y="-235.3" font-family="Times,serif" font-size="14.00">class = Canada</text>
</g>
<!-- 21&#45;&gt;22 -->
<g id="edge22" class="edge">
<title>21&#45;&gt;22</title>
<path fill="none" stroke="black" d="M261.95,-293.83C244.79,-284.25 223.59,-272.42 205.44,-262.29"/>
<polygon fill="black" stroke="black" points="206.7,-258.99 196.27,-257.17 203.29,-265.1 206.7,-258.99"/>
</g>
<!-- 23 -->
<g id="node24" class="node">
<title>23</title>
<polygon fill="none" stroke="black" points="354.5,-258 234.5,-258 234.5,-220 354.5,-220 354.5,-258"/>
<text text-anchor="middle" x="294.5" y="-242.8" font-family="Times,serif" font-size="14.00">latitude &lt;= 44.168</text>
<text text-anchor="middle" x="294.5" y="-227.8" font-family="Times,serif" font-size="14.00">class = Canada</text>
</g>
<!-- 21&#45;&gt;23 -->
<g id="edge23" class="edge">
<title>21&#45;&gt;23</title>
<path fill="none" stroke="black" d="M294.5,-293.83C294.5,-286.13 294.5,-276.97 294.5,-268.42"/>
<polygon fill="black" stroke="black" points="298,-268.41 294.5,-258.41 291,-268.41 298,-268.41"/>
</g>
<!-- 24 -->
<g id="node25" class="node">
<title>24</title>
<polygon fill="none" stroke="black" points="235.5,-184 107.5,-184 107.5,-146 235.5,-146 235.5,-184"/>
<text text-anchor="middle" x="171.5" y="-168.8" font-family="Times,serif" font-size="14.00">longitude &lt;= &#45;79.03</text>
<text text-anchor="middle" x="171.5" y="-153.8" font-family="Times,serif" font-size="14.00">class = USA</text>
</g>
<!-- 23&#45;&gt;24 -->
<g id="edge24" class="edge">
<title>23&#45;&gt;24</title>
<path fill="none" stroke="black" d="M263.46,-219.83C247.73,-210.62 228.44,-199.33 211.6,-189.47"/>
<polygon fill="black" stroke="black" points="212.93,-186.19 202.53,-184.16 209.39,-192.24 212.93,-186.19"/>
</g>
<!-- 29 -->
<g id="node30" class="node">
<title>29</title>
<polygon fill="none" stroke="black" points="355,-183 254,-183 254,-147 355,-147 355,-183"/>
<text text-anchor="middle" x="304.5" y="-161.3" font-family="Times,serif" font-size="14.00">class = Canada</text>
</g>
<!-- 23&#45;&gt;29 -->
<g id="edge29" class="edge">
<title>23&#45;&gt;29</title>
<path fill="none" stroke="black" d="M297.02,-219.83C298.14,-211.81 299.47,-202.2 300.7,-193.34"/>
<polygon fill="black" stroke="black" points="304.17,-193.8 302.08,-183.42 297.24,-192.84 304.17,-193.8"/>
</g>
<!-- 25 -->
<g id="node26" class="node">
<title>25</title>
<polygon fill="none" stroke="black" points="151,-109 64,-109 64,-73 151,-73 151,-109"/>
<text text-anchor="middle" x="107.5" y="-87.3" font-family="Times,serif" font-size="14.00">class = USA</text>
</g>
<!-- 24&#45;&gt;25 -->
<g id="edge25" class="edge">
<title>24&#45;&gt;25</title>
<path fill="none" stroke="black" d="M155.35,-145.83C147.6,-137.11 138.18,-126.52 129.76,-117.05"/>
<polygon fill="black" stroke="black" points="132.24,-114.57 122.98,-109.42 127.01,-119.22 132.24,-114.57"/>
</g>
<!-- 26 -->
<g id="node27" class="node">
<title>26</title>
<polygon fill="none" stroke="black" points="304,-110 169,-110 169,-72 304,-72 304,-110"/>
<text text-anchor="middle" x="236.5" y="-94.8" font-family="Times,serif" font-size="14.00">longitude &lt;= &#45;77.678</text>
<text text-anchor="middle" x="236.5" y="-79.8" font-family="Times,serif" font-size="14.00">class = Canada</text>
</g>
<!-- 24&#45;&gt;26 -->
<g id="edge26" class="edge">
<title>24&#45;&gt;26</title>
<path fill="none" stroke="black" d="M187.9,-145.83C195.54,-137.37 204.77,-127.15 213.12,-117.9"/>
<polygon fill="black" stroke="black" points="215.77,-120.18 219.88,-110.41 210.58,-115.49 215.77,-120.18"/>
</g>
<!-- 27 -->
<g id="node28" class="node">
<title>27</title>
<polygon fill="none" stroke="black" points="231,-36 130,-36 130,0 231,0 231,-36"/>
<text text-anchor="middle" x="180.5" y="-14.3" font-family="Times,serif" font-size="14.00">class = Canada</text>
</g>
<!-- 26&#45;&gt;27 -->
<g id="edge27" class="edge">
<title>26&#45;&gt;27</title>
<path fill="none" stroke="black" d="M222.08,-71.72C215.43,-63.29 207.43,-53.15 200.23,-44.02"/>
<polygon fill="black" stroke="black" points="202.85,-41.69 193.91,-36 197.36,-46.02 202.85,-41.69"/>
</g>
<!-- 28 -->
<g id="node29" class="node">
<title>28</title>
<polygon fill="none" stroke="black" points="336,-36 249,-36 249,0 336,0 336,-36"/>
<text text-anchor="middle" x="292.5" y="-14.3" font-family="Times,serif" font-size="14.00">class = USA</text>
</g>
<!-- 26&#45;&gt;28 -->
<g id="edge28" class="edge">
<title>26&#45;&gt;28</title>
<path fill="none" stroke="black" d="M250.92,-71.72C257.57,-63.29 265.57,-53.15 272.77,-44.02"/>
<polygon fill="black" stroke="black" points="275.64,-46.02 279.09,-36 270.15,-41.69 275.64,-46.02"/>
</g>
<!-- 31 -->
<g id="node32" class="node">
<title>31</title>
<polygon fill="none" stroke="black" points="460,-257 373,-257 373,-221 460,-221 460,-257"/>
<text text-anchor="middle" x="416.5" y="-235.3" font-family="Times,serif" font-size="14.00">class = USA</text>
</g>
<!-- 30&#45;&gt;31 -->
<g id="edge31" class="edge">
<title>30&#45;&gt;31</title>
<path fill="none" stroke="black" d="M439.68,-293.83C436.15,-285.63 431.91,-275.78 428.02,-266.76"/>
<polygon fill="black" stroke="black" points="431.17,-265.22 424,-257.42 424.74,-267.99 431.17,-265.22"/>
</g>
<!-- 32 -->
<g id="node33" class="node">
<title>32</title>
<polygon fill="none" stroke="black" points="613,-258 478,-258 478,-220 613,-220 613,-258"/>
<text text-anchor="middle" x="545.5" y="-242.8" font-family="Times,serif" font-size="14.00">longitude &lt;= &#45;75.503</text>
<text text-anchor="middle" x="545.5" y="-227.8" font-family="Times,serif" font-size="14.00">class = Canada</text>
</g>
<!-- 30&#45;&gt;32 -->
<g id="edge32" class="edge">
<title>30&#45;&gt;32</title>
<path fill="none" stroke="black" d="M472.23,-293.83C484.42,-284.88 499.28,-273.96 512.43,-264.3"/>
<polygon fill="black" stroke="black" points="514.79,-266.9 520.78,-258.16 510.65,-261.26 514.79,-266.9"/>
</g>
<!-- 33 -->
<g id="node34" class="node">
<title>33</title>
<polygon fill="none" stroke="black" points="485,-183 384,-183 384,-147 485,-147 485,-183"/>
<text text-anchor="middle" x="434.5" y="-161.3" font-family="Times,serif" font-size="14.00">class = Canada</text>
</g>
<!-- 32&#45;&gt;33 -->
<g id="edge33" class="edge">
<title>32&#45;&gt;33</title>
<path fill="none" stroke="black" d="M517.49,-219.83C502.99,-210.43 485.15,-198.86 469.73,-188.85"/>
<polygon fill="black" stroke="black" points="471.27,-185.68 460.97,-183.17 467.46,-191.55 471.27,-185.68"/>
</g>
<!-- 34 -->
<g id="node35" class="node">
<title>34</title>
<polygon fill="none" stroke="black" points="590,-183 503,-183 503,-147 590,-147 590,-183"/>
<text text-anchor="middle" x="546.5" y="-161.3" font-family="Times,serif" font-size="14.00">class = USA</text>
</g>
<!-- 32&#45;&gt;34 -->
<g id="edge34" class="edge">
<title>32&#45;&gt;34</title>
<path fill="none" stroke="black" d="M545.75,-219.83C545.86,-211.89 545.99,-202.41 546.12,-193.63"/>
<polygon fill="black" stroke="black" points="549.62,-193.47 546.26,-183.42 542.62,-193.37 549.62,-193.47"/>
</g>
<!-- 37 -->
<g id="node38" class="node">
<title>37</title>
<polygon fill="none" stroke="black" points="808,-480 673,-480 673,-442 808,-442 808,-480"/>
<text text-anchor="middle" x="740.5" y="-464.8" font-family="Times,serif" font-size="14.00">longitude &lt;= &#45;67.279</text>
<text text-anchor="middle" x="740.5" y="-449.8" font-family="Times,serif" font-size="14.00">class = USA</text>
</g>
<!-- 36&#45;&gt;37 -->
<g id="edge37" class="edge">
<title>36&#45;&gt;37</title>
<path fill="none" stroke="black" d="M740.5,-515.83C740.5,-508.13 740.5,-498.97 740.5,-490.42"/>
<polygon fill="black" stroke="black" points="744,-490.41 740.5,-480.41 737,-490.41 744,-490.41"/>
</g>
<!-- 52 -->
<g id="node53" class="node">
<title>52</title>
<polygon fill="none" stroke="black" points="927,-479 826,-479 826,-443 927,-443 927,-479"/>
<text text-anchor="middle" x="876.5" y="-457.3" font-family="Times,serif" font-size="14.00">class = Canada</text>
</g>
<!-- 36&#45;&gt;52 -->
<g id="edge52" class="edge">
<title>36&#45;&gt;52</title>
<path fill="none" stroke="black" d="M774.82,-515.83C793.16,-506.12 815.87,-494.1 835.18,-483.88"/>
<polygon fill="black" stroke="black" points="836.86,-486.94 844.07,-479.17 833.59,-480.76 836.86,-486.94"/>
</g>
<!-- 38 -->
<g id="node39" class="node">
<title>38</title>
<polygon fill="none" stroke="black" points="804.5,-406 676.5,-406 676.5,-368 804.5,-368 804.5,-406"/>
<text text-anchor="middle" x="740.5" y="-390.8" font-family="Times,serif" font-size="14.00">longitude &lt;= &#45;67.93</text>
<text text-anchor="middle" x="740.5" y="-375.8" font-family="Times,serif" font-size="14.00">class = Canada</text>
</g>
<!-- 37&#45;&gt;38 -->
<g id="edge38" class="edge">
<title>37&#45;&gt;38</title>
<path fill="none" stroke="black" d="M740.5,-441.83C740.5,-434.13 740.5,-424.97 740.5,-416.42"/>
<polygon fill="black" stroke="black" points="744,-416.41 740.5,-406.41 737,-416.41 744,-416.41"/>
</g>
<!-- 51 -->
<g id="node52" class="node">
<title>51</title>
<polygon fill="none" stroke="black" points="910,-405 823,-405 823,-369 910,-369 910,-405"/>
<text text-anchor="middle" x="866.5" y="-383.3" font-family="Times,serif" font-size="14.00">class = USA</text>
</g>
<!-- 37&#45;&gt;51 -->
<g id="edge51" class="edge">
<title>37&#45;&gt;51</title>
<path fill="none" stroke="black" d="M772.3,-441.83C789.06,-432.25 809.76,-420.42 827.49,-410.29"/>
<polygon fill="black" stroke="black" points="829.5,-413.17 836.45,-405.17 826.03,-407.09 829.5,-413.17"/>
</g>
<!-- 39 -->
<g id="node40" class="node">
<title>39</title>
<polygon fill="none" stroke="black" points="808,-332 673,-332 673,-294 808,-294 808,-332"/>
<text text-anchor="middle" x="740.5" y="-316.8" font-family="Times,serif" font-size="14.00">longitude &lt;= &#45;68.325</text>
<text text-anchor="middle" x="740.5" y="-301.8" font-family="Times,serif" font-size="14.00">class = USA</text>
</g>
<!-- 38&#45;&gt;39 -->
<g id="edge39" class="edge">
<title>38&#45;&gt;39</title>
<path fill="none" stroke="black" d="M740.5,-367.83C740.5,-360.13 740.5,-350.97 740.5,-342.42"/>
<polygon fill="black" stroke="black" points="744,-342.41 740.5,-332.41 737,-342.41 744,-342.41"/>
</g>
<!-- 46 -->
<g id="node47" class="node">
<title>46</title>
<polygon fill="none" stroke="black" points="995.5,-332 875.5,-332 875.5,-294 995.5,-294 995.5,-332"/>
<text text-anchor="middle" x="935.5" y="-316.8" font-family="Times,serif" font-size="14.00">latitude &lt;= 45.565</text>
<text text-anchor="middle" x="935.5" y="-301.8" font-family="Times,serif" font-size="14.00">class = Canada</text>
</g>
<!-- 38&#45;&gt;46 -->
<g id="edge46" class="edge">
<title>38&#45;&gt;46</title>
<path fill="none" stroke="black" d="M789.46,-367.92C816,-358.12 848.98,-345.95 876.89,-335.64"/>
<polygon fill="black" stroke="black" points="878.36,-338.83 886.52,-332.08 875.93,-332.26 878.36,-338.83"/>
</g>
<!-- 40 -->
<g id="node41" class="node">
<title>40</title>
<polygon fill="none" stroke="black" points="751.5,-258 631.5,-258 631.5,-220 751.5,-220 751.5,-258"/>
<text text-anchor="middle" x="691.5" y="-242.8" font-family="Times,serif" font-size="14.00">latitude &lt;= 47.256</text>
<text text-anchor="middle" x="691.5" y="-227.8" font-family="Times,serif" font-size="14.00">class = Canada</text>
</g>
<!-- 39&#45;&gt;40 -->
<g id="edge40" class="edge">
<title>39&#45;&gt;40</title>
<path fill="none" stroke="black" d="M728.14,-293.83C722.55,-285.62 715.84,-275.76 709.69,-266.73"/>
<polygon fill="black" stroke="black" points="712.55,-264.71 704.03,-258.41 706.76,-268.65 712.55,-264.71"/>
</g>
<!-- 45 -->
<g id="node46" class="node">
<title>45</title>
<polygon fill="none" stroke="black" points="857,-257 770,-257 770,-221 857,-221 857,-257"/>
<text text-anchor="middle" x="813.5" y="-235.3" font-family="Times,serif" font-size="14.00">class = USA</text>
</g>
<!-- 39&#45;&gt;45 -->
<g id="edge45" class="edge">
<title>39&#45;&gt;45</title>
<path fill="none" stroke="black" d="M758.92,-293.83C768.01,-284.87 779.1,-273.93 788.9,-264.26"/>
<polygon fill="black" stroke="black" points="791.43,-266.69 796.09,-257.17 786.51,-261.7 791.43,-266.69"/>
</g>
<!-- 41 -->
<g id="node42" class="node">
<title>41</title>
<polygon fill="none" stroke="black" points="712,-183 611,-183 611,-147 712,-147 712,-183"/>
<text text-anchor="middle" x="661.5" y="-161.3" font-family="Times,serif" font-size="14.00">class = Canada</text>
</g>
<!-- 40&#45;&gt;41 -->
<g id="edge41" class="edge">
<title>40&#45;&gt;41</title>
<path fill="none" stroke="black" d="M683.93,-219.83C680.51,-211.63 676.41,-201.78 672.65,-192.76"/>
<polygon fill="black" stroke="black" points="675.83,-191.3 668.76,-183.42 669.37,-193.99 675.83,-191.3"/>
</g>
<!-- 42 -->
<g id="node43" class="node">
<title>42</title>
<polygon fill="none" stroke="black" points="865,-184 730,-184 730,-146 865,-146 865,-184"/>
<text text-anchor="middle" x="797.5" y="-168.8" font-family="Times,serif" font-size="14.00">longitude &lt;= &#45;68.459</text>
<text text-anchor="middle" x="797.5" y="-153.8" font-family="Times,serif" font-size="14.00">class = USA</text>
</g>
<!-- 40&#45;&gt;42 -->
<g id="edge42" class="edge">
<title>40&#45;&gt;42</title>
<path fill="none" stroke="black" d="M718.25,-219.83C731.56,-210.79 747.82,-199.75 762.14,-190.02"/>
<polygon fill="black" stroke="black" points="764.45,-192.68 770.76,-184.16 760.52,-186.89 764.45,-192.68"/>
</g>
<!-- 43 -->
<g id="node44" class="node">
<title>43</title>
<polygon fill="none" stroke="black" points="785,-109 698,-109 698,-73 785,-73 785,-109"/>
<text text-anchor="middle" x="741.5" y="-87.3" font-family="Times,serif" font-size="14.00">class = USA</text>
</g>
<!-- 42&#45;&gt;43 -->
<g id="edge43" class="edge">
<title>42&#45;&gt;43</title>
<path fill="none" stroke="black" d="M783.37,-145.83C776.65,-137.2 768.51,-126.73 761.2,-117.33"/>
<polygon fill="black" stroke="black" points="763.95,-115.16 755.05,-109.42 758.42,-119.46 763.95,-115.16"/>
</g>
<!-- 44 -->
<g id="node45" class="node">
<title>44</title>
<polygon fill="none" stroke="black" points="904,-109 803,-109 803,-73 904,-73 904,-109"/>
<text text-anchor="middle" x="853.5" y="-87.3" font-family="Times,serif" font-size="14.00">class = Canada</text>
</g>
<!-- 42&#45;&gt;44 -->
<g id="edge44" class="edge">
<title>42&#45;&gt;44</title>
<path fill="none" stroke="black" d="M811.63,-145.83C818.35,-137.2 826.49,-126.73 833.8,-117.33"/>
<polygon fill="black" stroke="black" points="836.58,-119.46 839.95,-109.42 831.05,-115.16 836.58,-119.46"/>
</g>
<!-- 47 -->
<g id="node48" class="node">
<title>47</title>
<polygon fill="none" stroke="black" points="995.5,-258 875.5,-258 875.5,-220 995.5,-220 995.5,-258"/>
<text text-anchor="middle" x="935.5" y="-242.8" font-family="Times,serif" font-size="14.00">latitude &lt;= 45.382</text>
<text text-anchor="middle" x="935.5" y="-227.8" font-family="Times,serif" font-size="14.00">class = Canada</text>
</g>
<!-- 46&#45;&gt;47 -->
<g id="edge47" class="edge">
<title>46&#45;&gt;47</title>
<path fill="none" stroke="black" d="M935.5,-293.83C935.5,-286.13 935.5,-276.97 935.5,-268.42"/>
<polygon fill="black" stroke="black" points="939,-268.41 935.5,-258.41 932,-268.41 939,-268.41"/>
</g>
<!-- 50 -->
<g id="node51" class="node">
<title>50</title>
<polygon fill="none" stroke="black" points="1115,-257 1014,-257 1014,-221 1115,-221 1115,-257"/>
<text text-anchor="middle" x="1064.5" y="-235.3" font-family="Times,serif" font-size="14.00">class = Canada</text>
</g>
<!-- 46&#45;&gt;50 -->
<g id="edge50" class="edge">
<title>46&#45;&gt;50</title>
<path fill="none" stroke="black" d="M968.05,-293.83C985.21,-284.25 1006.41,-272.42 1024.56,-262.29"/>
<polygon fill="black" stroke="black" points="1026.71,-265.1 1033.73,-257.17 1023.3,-258.99 1026.71,-265.1"/>
</g>
<!-- 48 -->
<g id="node49" class="node">
<title>48</title>
<polygon fill="none" stroke="black" points="985,-183 884,-183 884,-147 985,-147 985,-183"/>
<text text-anchor="middle" x="934.5" y="-161.3" font-family="Times,serif" font-size="14.00">class = Canada</text>
</g>
<!-- 47&#45;&gt;48 -->
<g id="edge48" class="edge">
<title>47&#45;&gt;48</title>
<path fill="none" stroke="black" d="M935.25,-219.83C935.14,-211.89 935.01,-202.41 934.88,-193.63"/>
<polygon fill="black" stroke="black" points="938.38,-193.37 934.74,-183.42 931.38,-193.47 938.38,-193.37"/>
</g>
<!-- 49 -->
<g id="node50" class="node">
<title>49</title>
<polygon fill="none" stroke="black" points="1090,-183 1003,-183 1003,-147 1090,-147 1090,-183"/>
<text text-anchor="middle" x="1046.5" y="-161.3" font-family="Times,serif" font-size="14.00">class = USA</text>
</g>
<!-- 47&#45;&gt;49 -->
<g id="edge49" class="edge">
<title>47&#45;&gt;49</title>
<path fill="none" stroke="black" d="M963.51,-219.83C978.01,-210.43 995.85,-198.86 1011.27,-188.85"/>
<polygon fill="black" stroke="black" points="1013.54,-191.55 1020.03,-183.17 1009.73,-185.68 1013.54,-191.55"/>
</g>
</g>
</svg>
