<?xml version="1.0" encoding="UTF-8" standalone="no"?>
<!DOCTYPE svg PUBLIC "-//W3C//DTD SVG 1.1//EN"
 "http://www.w3.org/Graphics/SVG/1.1/DTD/svg11.dtd">
<!-- Generated by graphviz version 6.0.1 (0)
 -->
<!-- Title: Tree Pages: 1 -->
<svg width="1185pt" height="932pt"
 viewBox="0.00 0.00 1185.00 932.00" xmlns="http://www.w3.org/2000/svg" xmlns:xlink="http://www.w3.org/1999/xlink">
<g id="graph0" class="graph" transform="scale(1 1) rotate(0) translate(4 928)">
<title>Tree</title>
<polygon fill="white" stroke="none" points="-4,4 -4,-928 1181,-928 1181,4 -4,4"/>
<!-- 0 -->
<g id="node1" class="node">
<title>0</title>
<polygon fill="none" stroke="black" points="297,-924 187,-924 187,-886 297,-886 297,-924"/>
<text text-anchor="middle" x="242" y="-908.8" font-family="Helvetica,sans-Serif" font-size="14.00">latitude &lt;= 42.9</text>
<text text-anchor="middle" x="242" y="-893.8" font-family="Helvetica,sans-Serif" font-size="14.00">class = Canada</text>
</g>
<!-- 1 -->
<g id="node2" class="node">
<title>1</title>
<polygon fill="none" stroke="black" points="233.5,-850 108.5,-850 108.5,-812 233.5,-812 233.5,-850"/>
<text text-anchor="middle" x="171" y="-834.8" font-family="Helvetica,sans-Serif" font-size="14.00">latitude &lt;= 42.096</text>
<text text-anchor="middle" x="171" y="-819.8" font-family="Helvetica,sans-Serif" font-size="14.00">class = USA</text>
</g>
<!-- 0&#45;&gt;1 -->
<g id="edge1" class="edge">
<title>0&#45;&gt;1</title>
<path fill="none" stroke="black" d="M224.08,-885.83C215.66,-877.28 205.46,-866.94 196.26,-857.62"/>
<polygon fill="black" stroke="black" points="198.67,-855.08 189.16,-850.41 193.69,-859.99 198.67,-855.08"/>
<text text-anchor="middle" x="188.98" y="-871.71" font-family="Helvetica,sans-Serif" font-size="14.00">True</text>
</g>
<!-- 6 -->
<g id="node7" class="node">
<title>6</title>
<polygon fill="none" stroke="black" points="376.5,-850 251.5,-850 251.5,-812 376.5,-812 376.5,-850"/>
<text text-anchor="middle" x="314" y="-834.8" font-family="Helvetica,sans-Serif" font-size="14.00">latitude &lt;= 55.958</text>
<text text-anchor="middle" x="314" y="-819.8" font-family="Helvetica,sans-Serif" font-size="14.00">class = Canada</text>
</g>
<!-- 0&#45;&gt;6 -->
<g id="edge6" class="edge">
<title>0&#45;&gt;6</title>
<path fill="none" stroke="black" d="M260.17,-885.83C268.72,-877.28 279.06,-866.94 288.38,-857.62"/>
<polygon fill="black" stroke="black" points="290.99,-859.96 295.59,-850.41 286.04,-855.01 290.99,-859.96"/>
<text text-anchor="middle" x="295.59" y="-871.71" font-family="Helvetica,sans-Serif" font-size="14.00">False</text>
</g>
<!-- 2 -->
<g id="node3" class="node">
<title>2</title>
<polygon fill="none" stroke="black" points="92.5,-775 1.5,-775 1.5,-739 92.5,-739 92.5,-775"/>
<text text-anchor="middle" x="47" y="-753.3" font-family="Helvetica,sans-Serif" font-size="14.00">class = USA</text>
</g>
<!-- 1&#45;&gt;2 -->
<g id="edge2" class="edge">
<title>1&#45;&gt;2</title>
<path fill="none" stroke="black" d="M139.71,-811.83C123.21,-802.25 102.84,-790.42 85.39,-780.29"/>
<polygon fill="black" stroke="black" points="86.98,-777.17 76.57,-775.17 83.46,-783.22 86.98,-777.17"/>
</g>
<!-- 3 -->
<g id="node4" class="node">
<title>3</title>
<polygon fill="none" stroke="black" points="235.5,-776 110.5,-776 110.5,-738 235.5,-738 235.5,-776"/>
<text text-anchor="middle" x="173" y="-760.8" font-family="Helvetica,sans-Serif" font-size="14.00">latitude &lt;= 42.324</text>
<text text-anchor="middle" x="173" y="-745.8" font-family="Helvetica,sans-Serif" font-size="14.00">class = USA</text>
</g>
<!-- 1&#45;&gt;3 -->
<g id="edge3" class="edge">
<title>1&#45;&gt;3</title>
<path fill="none" stroke="black" d="M171.5,-811.83C171.72,-804.13 171.97,-794.97 172.21,-786.42"/>
<polygon fill="black" stroke="black" points="175.71,-786.51 172.49,-776.41 168.71,-786.31 175.71,-786.51"/>
</g>
<!-- 4 -->
<g id="node5" class="node">
<title>4</title>
<polygon fill="none" stroke="black" points="110,-701 0,-701 0,-665 110,-665 110,-701"/>
<text text-anchor="middle" x="55" y="-679.3" font-family="Helvetica,sans-Serif" font-size="14.00">class = Canada</text>
</g>
<!-- 3&#45;&gt;4 -->
<g id="edge4" class="edge">
<title>3&#45;&gt;4</title>
<path fill="none" stroke="black" d="M143.22,-737.83C127.67,-728.34 108.49,-716.64 91.99,-706.57"/>
<polygon fill="black" stroke="black" points="93.5,-703.39 83.14,-701.17 89.86,-709.37 93.5,-703.39"/>
</g>
<!-- 5 -->
<g id="node6" class="node">
<title>5</title>
<polygon fill="none" stroke="black" points="219.5,-701 128.5,-701 128.5,-665 219.5,-665 219.5,-701"/>
<text text-anchor="middle" x="174" y="-679.3" font-family="Helvetica,sans-Serif" font-size="14.00">class = USA</text>
</g>
<!-- 3&#45;&gt;5 -->
<g id="edge5" class="edge">
<title>3&#45;&gt;5</title>
<path fill="none" stroke="black" d="M173.25,-737.83C173.36,-729.89 173.49,-720.41 173.62,-711.63"/>
<polygon fill="black" stroke="black" points="177.12,-711.47 173.76,-701.42 170.12,-711.37 177.12,-711.47"/>
</g>
<!-- 7 -->
<g id="node8" class="node">
<title>7</title>
<polygon fill="none" stroke="black" points="368,-776 258,-776 258,-738 368,-738 368,-776"/>
<text text-anchor="middle" x="313" y="-760.8" font-family="Helvetica,sans-Serif" font-size="14.00">latitude &lt;= 49.0</text>
<text text-anchor="middle" x="313" y="-745.8" font-family="Helvetica,sans-Serif" font-size="14.00">class = Canada</text>
</g>
<!-- 6&#45;&gt;7 -->
<g id="edge7" class="edge">
<title>6&#45;&gt;7</title>
<path fill="none" stroke="black" d="M313.75,-811.83C313.64,-804.13 313.51,-794.97 313.39,-786.42"/>
<polygon fill="black" stroke="black" points="316.89,-786.36 313.26,-776.41 309.9,-786.46 316.89,-786.36"/>
</g>
<!-- 54 -->
<g id="node55" class="node">
<title>54</title>
<polygon fill="none" stroke="black" points="477.5,-775 386.5,-775 386.5,-739 477.5,-739 477.5,-775"/>
<text text-anchor="middle" x="432" y="-753.3" font-family="Helvetica,sans-Serif" font-size="14.00">class = USA</text>
</g>
<!-- 6&#45;&gt;54 -->
<g id="edge54" class="edge">
<title>6&#45;&gt;54</title>
<path fill="none" stroke="black" d="M343.78,-811.83C359.33,-802.34 378.51,-790.64 395.01,-780.57"/>
<polygon fill="black" stroke="black" points="397.14,-783.37 403.86,-775.17 393.5,-777.39 397.14,-783.37"/>
</g>
<!-- 8 -->
<g id="node9" class="node">
<title>8</title>
<polygon fill="none" stroke="black" points="382.5,-702 241.5,-702 241.5,-664 382.5,-664 382.5,-702"/>
<text text-anchor="middle" x="312" y="-686.8" font-family="Helvetica,sans-Serif" font-size="14.00">longitude &lt;= &#45;94.582</text>
<text text-anchor="middle" x="312" y="-671.8" font-family="Helvetica,sans-Serif" font-size="14.00">class = Canada</text>
</g>
<!-- 7&#45;&gt;8 -->
<g id="edge8" class="edge">
<title>7&#45;&gt;8</title>
<path fill="none" stroke="black" d="M312.75,-737.83C312.64,-730.13 312.51,-720.97 312.39,-712.42"/>
<polygon fill="black" stroke="black" points="315.89,-712.36 312.26,-702.41 308.9,-712.46 315.89,-712.36"/>
</g>
<!-- 53 -->
<g id="node54" class="node">
<title>53</title>
<polygon fill="none" stroke="black" points="511,-701 401,-701 401,-665 511,-665 511,-701"/>
<text text-anchor="middle" x="456" y="-679.3" font-family="Helvetica,sans-Serif" font-size="14.00">class = Canada</text>
</g>
<!-- 7&#45;&gt;53 -->
<g id="edge53" class="edge">
<title>7&#45;&gt;53</title>
<path fill="none" stroke="black" d="M349.08,-737.83C368.46,-728.08 392.47,-715.99 412.83,-705.74"/>
<polygon fill="black" stroke="black" points="414.54,-708.79 421.9,-701.17 411.39,-702.54 414.54,-708.79"/>
</g>
<!-- 9 -->
<g id="node10" class="node">
<title>9</title>
<polygon fill="none" stroke="black" points="305.5,-628 156.5,-628 156.5,-590 305.5,-590 305.5,-628"/>
<text text-anchor="middle" x="231" y="-612.8" font-family="Helvetica,sans-Serif" font-size="14.00">longitude &lt;= &#45;123.222</text>
<text text-anchor="middle" x="231" y="-597.8" font-family="Helvetica,sans-Serif" font-size="14.00">class = USA</text>
</g>
<!-- 8&#45;&gt;9 -->
<g id="edge9" class="edge">
<title>8&#45;&gt;9</title>
<path fill="none" stroke="black" d="M291.56,-663.83C281.68,-655.05 269.67,-644.37 258.95,-634.85"/>
<polygon fill="black" stroke="black" points="261.23,-632.19 251.43,-628.16 256.58,-637.42 261.23,-632.19"/>
</g>
<!-- 12 -->
<g id="node13" class="node">
<title>12</title>
<polygon fill="none" stroke="black" points="464.5,-628 323.5,-628 323.5,-590 464.5,-590 464.5,-628"/>
<text text-anchor="middle" x="394" y="-612.8" font-family="Helvetica,sans-Serif" font-size="14.00">longitude &lt;= &#45;69.246</text>
<text text-anchor="middle" x="394" y="-597.8" font-family="Helvetica,sans-Serif" font-size="14.00">class = Canada</text>
</g>
<!-- 8&#45;&gt;12 -->
<g id="edge12" class="edge">
<title>8&#45;&gt;12</title>
<path fill="none" stroke="black" d="M332.69,-663.83C342.69,-655.05 354.86,-644.37 365.7,-634.85"/>
<polygon fill="black" stroke="black" points="368.11,-637.39 373.31,-628.16 363.49,-632.13 368.11,-637.39"/>
</g>
<!-- 10 -->
<g id="node11" class="node">
<title>10</title>
<polygon fill="none" stroke="black" points="177,-553 67,-553 67,-517 177,-517 177,-553"/>
<text text-anchor="middle" x="122" y="-531.3" font-family="Helvetica,sans-Serif" font-size="14.00">class = Canada</text>
</g>
<!-- 9&#45;&gt;10 -->
<g id="edge10" class="edge">
<title>9&#45;&gt;10</title>
<path fill="none" stroke="black" d="M203.49,-589.83C189.26,-580.43 171.74,-568.86 156.59,-558.85"/>
<polygon fill="black" stroke="black" points="158.27,-555.76 148,-553.17 154.41,-561.6 158.27,-555.76"/>
</g>
<!-- 11 -->
<g id="node12" class="node">
<title>11</title>
<polygon fill="none" stroke="black" points="286.5,-553 195.5,-553 195.5,-517 286.5,-517 286.5,-553"/>
<text text-anchor="middle" x="241" y="-531.3" font-family="Helvetica,sans-Serif" font-size="14.00">class = USA</text>
</g>
<!-- 9&#45;&gt;11 -->
<g id="edge11" class="edge">
<title>9&#45;&gt;11</title>
<path fill="none" stroke="black" d="M233.52,-589.83C234.64,-581.81 235.97,-572.2 237.2,-563.34"/>
<polygon fill="black" stroke="black" points="240.67,-563.8 238.58,-553.42 233.74,-562.84 240.67,-563.8"/>
</g>
<!-- 13 -->
<g id="node14" class="node">
<title>13</title>
<polygon fill="none" stroke="black" points="447.5,-554 322.5,-554 322.5,-516 447.5,-516 447.5,-554"/>
<text text-anchor="middle" x="385" y="-538.8" font-family="Helvetica,sans-Serif" font-size="14.00">latitude &lt;= 43.093</text>
<text text-anchor="middle" x="385" y="-523.8" font-family="Helvetica,sans-Serif" font-size="14.00">class = Canada</text>
</g>
<!-- 12&#45;&gt;13 -->
<g id="edge13" class="edge">
<title>12&#45;&gt;13</title>
<path fill="none" stroke="black" d="M391.73,-589.83C390.77,-582.13 389.62,-572.97 388.55,-564.42"/>
<polygon fill="black" stroke="black" points="392.02,-563.9 387.3,-554.41 385.07,-564.77 392.02,-563.9"/>
</g>
<!-- 36 -->
<g id="node37" class="node">
<title>36</title>
<polygon fill="none" stroke="black" points="654.5,-554 513.5,-554 513.5,-516 654.5,-516 654.5,-554"/>
<text text-anchor="middle" x="584" y="-538.8" font-family="Helvetica,sans-Serif" font-size="14.00">longitude &lt;= &#45;66.952</text>
<text text-anchor="middle" x="584" y="-523.8" font-family="Helvetica,sans-Serif" font-size="14.00">class = Canada</text>
</g>
<!-- 12&#45;&gt;36 -->
<g id="edge36" class="edge">
<title>12&#45;&gt;36</title>
<path fill="none" stroke="black" d="M441.95,-589.83C467.81,-580.03 499.9,-567.87 527.03,-557.59"/>
<polygon fill="black" stroke="black" points="528.29,-560.85 536.4,-554.04 525.81,-554.31 528.29,-560.85"/>
</g>
<!-- 14 -->
<g id="node15" class="node">
<title>14</title>
<polygon fill="none" stroke="black" points="256.5,-480 115.5,-480 115.5,-442 256.5,-442 256.5,-480"/>
<text text-anchor="middle" x="186" y="-464.8" font-family="Helvetica,sans-Serif" font-size="14.00">longitude &lt;= &#45;81.845</text>
<text text-anchor="middle" x="186" y="-449.8" font-family="Helvetica,sans-Serif" font-size="14.00">class = Canada</text>
</g>
<!-- 13&#45;&gt;14 -->
<g id="edge14" class="edge">
<title>13&#45;&gt;14</title>
<path fill="none" stroke="black" d="M335.04,-515.92C307.84,-506.08 274,-493.84 245.44,-483.51"/>
<polygon fill="black" stroke="black" points="246.57,-480.19 235.98,-480.08 244.19,-486.78 246.57,-480.19"/>
</g>
<!-- 19 -->
<g id="node20" class="node">
<title>19</title>
<polygon fill="none" stroke="black" points="447.5,-480 322.5,-480 322.5,-442 447.5,-442 447.5,-480"/>
<text text-anchor="middle" x="385" y="-464.8" font-family="Helvetica,sans-Serif" font-size="14.00">latitude &lt;= 44.992</text>
<text text-anchor="middle" x="385" y="-449.8" font-family="Helvetica,sans-Serif" font-size="14.00">class = Canada</text>
</g>
<!-- 13&#45;&gt;19 -->
<g id="edge19" class="edge">
<title>13&#45;&gt;19</title>
<path fill="none" stroke="black" d="M385,-515.83C385,-508.13 385,-498.97 385,-490.42"/>
<polygon fill="black" stroke="black" points="388.5,-490.41 385,-480.41 381.5,-490.41 388.5,-490.41"/>
</g>
<!-- 15 -->
<g id="node16" class="node">
<title>15</title>
<polygon fill="none" stroke="black" points="105.5,-405 14.5,-405 14.5,-369 105.5,-369 105.5,-405"/>
<text text-anchor="middle" x="60" y="-383.3" font-family="Helvetica,sans-Serif" font-size="14.00">class = USA</text>
</g>
<!-- 14&#45;&gt;15 -->
<g id="edge15" class="edge">
<title>14&#45;&gt;15</title>
<path fill="none" stroke="black" d="M154.2,-441.83C137.44,-432.25 116.74,-420.42 99.01,-410.29"/>
<polygon fill="black" stroke="black" points="100.47,-407.09 90.05,-405.17 97,-413.17 100.47,-407.09"/>
</g>
<!-- 16 -->
<g id="node17" class="node">
<title>16</title>
<polygon fill="none" stroke="black" points="248.5,-406 123.5,-406 123.5,-368 248.5,-368 248.5,-406"/>
<text text-anchor="middle" x="186" y="-390.8" font-family="Helvetica,sans-Serif" font-size="14.00">latitude &lt;= 43.039</text>
<text text-anchor="middle" x="186" y="-375.8" font-family="Helvetica,sans-Serif" font-size="14.00">class = Canada</text>
</g>
<!-- 14&#45;&gt;16 -->
<g id="edge16" class="edge">
<title>14&#45;&gt;16</title>
<path fill="none" stroke="black" d="M186,-441.83C186,-434.13 186,-424.97 186,-416.42"/>
<polygon fill="black" stroke="black" points="189.5,-416.41 186,-406.41 182.5,-416.41 189.5,-416.41"/>
</g>
<!-- 17 -->
<g id="node18" class="node">
<title>17</title>
<polygon fill="none" stroke="black" points="122,-331 12,-331 12,-295 122,-295 122,-331"/>
<text text-anchor="middle" x="67" y="-309.3" font-family="Helvetica,sans-Serif" font-size="14.00">class = Canada</text>
</g>
<!-- 16&#45;&gt;17 -->
<g id="edge17" class="edge">
<title>16&#45;&gt;17</title>
<path fill="none" stroke="black" d="M155.97,-367.83C140.29,-358.34 120.94,-346.64 104.31,-336.57"/>
<polygon fill="black" stroke="black" points="105.75,-333.35 95.38,-331.17 102.12,-339.34 105.75,-333.35"/>
</g>
<!-- 18 -->
<g id="node19" class="node">
<title>18</title>
<polygon fill="none" stroke="black" points="231.5,-331 140.5,-331 140.5,-295 231.5,-295 231.5,-331"/>
<text text-anchor="middle" x="186" y="-309.3" font-family="Helvetica,sans-Serif" font-size="14.00">class = USA</text>
</g>
<!-- 16&#45;&gt;18 -->
<g id="edge18" class="edge">
<title>16&#45;&gt;18</title>
<path fill="none" stroke="black" d="M186,-367.83C186,-359.89 186,-350.41 186,-341.63"/>
<polygon fill="black" stroke="black" points="189.5,-341.42 186,-331.42 182.5,-341.42 189.5,-341.42"/>
</g>
<!-- 20 -->
<g id="node21" class="node">
<title>20</title>
<polygon fill="none" stroke="black" points="391.5,-406 266.5,-406 266.5,-368 391.5,-368 391.5,-406"/>
<text text-anchor="middle" x="329" y="-390.8" font-family="Helvetica,sans-Serif" font-size="14.00">latitude &lt;= 44.542</text>
<text text-anchor="middle" x="329" y="-375.8" font-family="Helvetica,sans-Serif" font-size="14.00">class = Canada</text>
</g>
<!-- 19&#45;&gt;20 -->
<g id="edge20" class="edge">
<title>19&#45;&gt;20</title>
<path fill="none" stroke="black" d="M370.87,-441.83C364.42,-433.54 356.66,-423.56 349.57,-414.45"/>
<polygon fill="black" stroke="black" points="352.22,-412.16 343.32,-406.41 346.7,-416.46 352.22,-412.16"/>
</g>
<!-- 35 -->
<g id="node36" class="node">
<title>35</title>
<polygon fill="none" stroke="black" points="520,-405 410,-405 410,-369 520,-369 520,-405"/>
<text text-anchor="middle" x="465" y="-383.3" font-family="Helvetica,sans-Serif" font-size="14.00">class = Canada</text>
</g>
<!-- 19&#45;&gt;35 -->
<g id="edge35" class="edge">
<title>19&#45;&gt;35</title>
<path fill="none" stroke="black" d="M405.19,-441.83C415.24,-432.78 427.54,-421.72 438.36,-411.98"/>
<polygon fill="black" stroke="black" points="440.83,-414.46 445.92,-405.17 436.15,-409.26 440.83,-414.46"/>
</g>
<!-- 21 -->
<g id="node22" class="node">
<title>21</title>
<polygon fill="none" stroke="black" points="390.5,-332 249.5,-332 249.5,-294 390.5,-294 390.5,-332"/>
<text text-anchor="middle" x="320" y="-316.8" font-family="Helvetica,sans-Serif" font-size="14.00">longitude &lt;= &#45;79.076</text>
<text text-anchor="middle" x="320" y="-301.8" font-family="Helvetica,sans-Serif" font-size="14.00">class = Canada</text>
</g>
<!-- 20&#45;&gt;21 -->
<g id="edge21" class="edge">
<title>20&#45;&gt;21</title>
<path fill="none" stroke="black" d="M326.73,-367.83C325.77,-360.13 324.62,-350.97 323.55,-342.42"/>
<polygon fill="black" stroke="black" points="327.02,-341.9 322.3,-332.41 320.07,-342.77 327.02,-341.9"/>
</g>
<!-- 30 -->
<g id="node31" class="node">
<title>30</title>
<polygon fill="none" stroke="black" points="549.5,-332 408.5,-332 408.5,-294 549.5,-294 549.5,-332"/>
<text text-anchor="middle" x="479" y="-316.8" font-family="Helvetica,sans-Serif" font-size="14.00">longitude &lt;= &#45;84.392</text>
<text text-anchor="middle" x="479" y="-301.8" font-family="Helvetica,sans-Serif" font-size="14.00">class = USA</text>
</g>
<!-- 20&#45;&gt;30 -->
<g id="edge30" class="edge">
<title>20&#45;&gt;30</title>
<path fill="none" stroke="black" d="M366.85,-367.83C386.73,-358.29 411.28,-346.51 432.33,-336.4"/>
<polygon fill="black" stroke="black" points="433.92,-339.52 441.42,-332.04 430.89,-333.21 433.92,-339.52"/>
</g>
<!-- 22 -->
<g id="node23" class="node">
<title>22</title>
<polygon fill="none" stroke="black" points="239,-257 129,-257 129,-221 239,-221 239,-257"/>
<text text-anchor="middle" x="184" y="-235.3" font-family="Helvetica,sans-Serif" font-size="14.00">class = Canada</text>
</g>
<!-- 21&#45;&gt;22 -->
<g id="edge22" class="edge">
<title>21&#45;&gt;22</title>
<path fill="none" stroke="black" d="M285.68,-293.83C267.34,-284.12 244.63,-272.1 225.32,-261.88"/>
<polygon fill="black" stroke="black" points="226.91,-258.76 216.43,-257.17 223.64,-264.94 226.91,-258.76"/>
</g>
<!-- 23 -->
<g id="node24" class="node">
<title>23</title>
<polygon fill="none" stroke="black" points="382.5,-258 257.5,-258 257.5,-220 382.5,-220 382.5,-258"/>
<text text-anchor="middle" x="320" y="-242.8" font-family="Helvetica,sans-Serif" font-size="14.00">latitude &lt;= 44.168</text>
<text text-anchor="middle" x="320" y="-227.8" font-family="Helvetica,sans-Serif" font-size="14.00">class = Canada</text>
</g>
<!-- 21&#45;&gt;23 -->
<g id="edge23" class="edge">
<title>21&#45;&gt;23</title>
<path fill="none" stroke="black" d="M320,-293.83C320,-286.13 320,-276.97 320,-268.42"/>
<polygon fill="black" stroke="black" points="323.5,-268.41 320,-258.41 316.5,-268.41 323.5,-268.41"/>
</g>
<!-- 24 -->
<g id="node25" class="node">
<title>24</title>
<polygon fill="none" stroke="black" points="253.5,-184 128.5,-184 128.5,-146 253.5,-146 253.5,-184"/>
<text text-anchor="middle" x="191" y="-168.8" font-family="Helvetica,sans-Serif" font-size="14.00">latitude &lt;= 43.511</text>
<text text-anchor="middle" x="191" y="-153.8" font-family="Helvetica,sans-Serif" font-size="14.00">class = USA</text>
</g>
<!-- 23&#45;&gt;24 -->
<g id="edge24" class="edge">
<title>23&#45;&gt;24</title>
<path fill="none" stroke="black" d="M287.45,-219.83C270.8,-210.54 250.34,-199.12 232.56,-189.2"/>
<polygon fill="black" stroke="black" points="233.98,-185.98 223.54,-184.16 230.57,-192.09 233.98,-185.98"/>
</g>
<!-- 29 -->
<g id="node30" class="node">
<title>29</title>
<polygon fill="none" stroke="black" points="382,-183 272,-183 272,-147 382,-147 382,-183"/>
<text text-anchor="middle" x="327" y="-161.3" font-family="Helvetica,sans-Serif" font-size="14.00">class = Canada</text>
</g>
<!-- 23&#45;&gt;29 -->
<g id="edge29" class="edge">
<title>23&#45;&gt;29</title>
<path fill="none" stroke="black" d="M321.77,-219.83C322.54,-211.89 323.46,-202.41 324.31,-193.63"/>
<polygon fill="black" stroke="black" points="327.82,-193.71 325.31,-183.42 320.86,-193.03 327.82,-193.71"/>
</g>
<!-- 25 -->
<g id="node26" class="node">
<title>25</title>
<polygon fill="none" stroke="black" points="173.5,-109 82.5,-109 82.5,-73 173.5,-73 173.5,-109"/>
<text text-anchor="middle" x="128" y="-87.3" font-family="Helvetica,sans-Serif" font-size="14.00">class = USA</text>
</g>
<!-- 24&#45;&gt;25 -->
<g id="edge25" class="edge">
<title>24&#45;&gt;25</title>
<path fill="none" stroke="black" d="M175.1,-145.83C167.47,-137.11 158.2,-126.52 149.92,-117.05"/>
<polygon fill="black" stroke="black" points="152.46,-114.64 143.24,-109.42 147.19,-119.25 152.46,-114.64"/>
</g>
<!-- 26 -->
<g id="node27" class="node">
<title>26</title>
<polygon fill="none" stroke="black" points="316.5,-110 191.5,-110 191.5,-72 316.5,-72 316.5,-110"/>
<text text-anchor="middle" x="254" y="-94.8" font-family="Helvetica,sans-Serif" font-size="14.00">latitude &lt;= 43.988</text>
<text text-anchor="middle" x="254" y="-79.8" font-family="Helvetica,sans-Serif" font-size="14.00">class = Canada</text>
</g>
<!-- 24&#45;&gt;26 -->
<g id="edge26" class="edge">
<title>24&#45;&gt;26</title>
<path fill="none" stroke="black" d="M206.9,-145.83C214.23,-137.45 223.07,-127.35 231.1,-118.17"/>
<polygon fill="black" stroke="black" points="233.94,-120.24 237.89,-110.41 228.67,-115.63 233.94,-120.24"/>
</g>
<!-- 27 -->
<g id="node28" class="node">
<title>27</title>
<polygon fill="none" stroke="black" points="250,-36 140,-36 140,0 250,0 250,-36"/>
<text text-anchor="middle" x="195" y="-14.3" font-family="Helvetica,sans-Serif" font-size="14.00">class = Canada</text>
</g>
<!-- 26&#45;&gt;27 -->
<g id="edge27" class="edge">
<title>26&#45;&gt;27</title>
<path fill="none" stroke="black" d="M238.81,-71.72C231.73,-63.2 223.2,-52.94 215.56,-43.74"/>
<polygon fill="black" stroke="black" points="218.21,-41.46 209.13,-36 212.83,-45.93 218.21,-41.46"/>
</g>
<!-- 28 -->
<g id="node29" class="node">
<title>28</title>
<polygon fill="none" stroke="black" points="359.5,-36 268.5,-36 268.5,0 359.5,0 359.5,-36"/>
<text text-anchor="middle" x="314" y="-14.3" font-family="Helvetica,sans-Serif" font-size="14.00">class = USA</text>
</g>
<!-- 26&#45;&gt;28 -->
<g id="edge28" class="edge">
<title>26&#45;&gt;28</title>
<path fill="none" stroke="black" d="M269.45,-71.72C276.65,-63.2 285.32,-52.94 293.09,-43.74"/>
<polygon fill="black" stroke="black" points="295.85,-45.9 299.63,-36 290.5,-41.38 295.85,-45.9"/>
</g>
<!-- 31 -->
<g id="node32" class="node">
<title>31</title>
<polygon fill="none" stroke="black" points="491.5,-257 400.5,-257 400.5,-221 491.5,-221 491.5,-257"/>
<text text-anchor="middle" x="446" y="-235.3" font-family="Helvetica,sans-Serif" font-size="14.00">class = USA</text>
</g>
<!-- 30&#45;&gt;31 -->
<g id="edge31" class="edge">
<title>30&#45;&gt;31</title>
<path fill="none" stroke="black" d="M470.67,-293.83C466.91,-285.63 462.4,-275.78 458.27,-266.76"/>
<polygon fill="black" stroke="black" points="461.33,-265.05 453.98,-257.42 454.97,-267.97 461.33,-265.05"/>
</g>
<!-- 32 -->
<g id="node33" class="node">
<title>32</title>
<polygon fill="none" stroke="black" points="634.5,-258 509.5,-258 509.5,-220 634.5,-220 634.5,-258"/>
<text text-anchor="middle" x="572" y="-242.8" font-family="Helvetica,sans-Serif" font-size="14.00">latitude &lt;= 44.706</text>
<text text-anchor="middle" x="572" y="-227.8" font-family="Helvetica,sans-Serif" font-size="14.00">class = Canada</text>
</g>
<!-- 30&#45;&gt;32 -->
<g id="edge32" class="edge">
<title>30&#45;&gt;32</title>
<path fill="none" stroke="black" d="M502.47,-293.83C514.03,-284.88 528.14,-273.96 540.62,-264.3"/>
<polygon fill="black" stroke="black" points="542.78,-267.05 548.54,-258.16 538.49,-261.52 542.78,-267.05"/>
</g>
<!-- 33 -->
<g id="node34" class="node">
<title>33</title>
<polygon fill="none" stroke="black" points="498.5,-183 407.5,-183 407.5,-147 498.5,-147 498.5,-183"/>
<text text-anchor="middle" x="453" y="-161.3" font-family="Helvetica,sans-Serif" font-size="14.00">class = USA</text>
</g>
<!-- 32&#45;&gt;33 -->
<g id="edge33" class="edge">
<title>32&#45;&gt;33</title>
<path fill="none" stroke="black" d="M541.97,-219.83C526.29,-210.34 506.94,-198.64 490.31,-188.57"/>
<polygon fill="black" stroke="black" points="491.75,-185.35 481.38,-183.17 488.12,-191.34 491.75,-185.35"/>
</g>
<!-- 34 -->
<g id="node35" class="node">
<title>34</title>
<polygon fill="none" stroke="black" points="627,-183 517,-183 517,-147 627,-147 627,-183"/>
<text text-anchor="middle" x="572" y="-161.3" font-family="Helvetica,sans-Serif" font-size="14.00">class = Canada</text>
</g>
<!-- 32&#45;&gt;34 -->
<g id="edge34" class="edge">
<title>32&#45;&gt;34</title>
<path fill="none" stroke="black" d="M572,-219.83C572,-211.89 572,-202.41 572,-193.63"/>
<polygon fill="black" stroke="black" points="575.5,-193.42 572,-183.42 568.5,-193.42 575.5,-193.42"/>
</g>
<!-- 37 -->
<g id="node38" class="node">
<title>37</title>
<polygon fill="none" stroke="black" points="646.5,-480 521.5,-480 521.5,-442 646.5,-442 646.5,-480"/>
<text text-anchor="middle" x="584" y="-464.8" font-family="Helvetica,sans-Serif" font-size="14.00">latitude &lt;= 45.195</text>
<text text-anchor="middle" x="584" y="-449.8" font-family="Helvetica,sans-Serif" font-size="14.00">class = USA</text>
</g>
<!-- 36&#45;&gt;37 -->
<g id="edge37" class="edge">
<title>36&#45;&gt;37</title>
<path fill="none" stroke="black" d="M584,-515.83C584,-508.13 584,-498.97 584,-490.42"/>
<polygon fill="black" stroke="black" points="587.5,-490.41 584,-480.41 580.5,-490.41 587.5,-490.41"/>
</g>
<!-- 52 -->
<g id="node53" class="node">
<title>52</title>
<polygon fill="none" stroke="black" points="775,-479 665,-479 665,-443 775,-443 775,-479"/>
<text text-anchor="middle" x="720" y="-457.3" font-family="Helvetica,sans-Serif" font-size="14.00">class = Canada</text>
</g>
<!-- 36&#45;&gt;52 -->
<g id="edge52" class="edge">
<title>36&#45;&gt;52</title>
<path fill="none" stroke="black" d="M618.32,-515.83C636.66,-506.12 659.37,-494.1 678.68,-483.88"/>
<polygon fill="black" stroke="black" points="680.36,-486.94 687.57,-479.17 677.09,-480.76 680.36,-486.94"/>
</g>
<!-- 38 -->
<g id="node39" class="node">
<title>38</title>
<polygon fill="none" stroke="black" points="629.5,-405 538.5,-405 538.5,-369 629.5,-369 629.5,-405"/>
<text text-anchor="middle" x="584" y="-383.3" font-family="Helvetica,sans-Serif" font-size="14.00">class = USA</text>
</g>
<!-- 37&#45;&gt;38 -->
<g id="edge38" class="edge">
<title>37&#45;&gt;38</title>
<path fill="none" stroke="black" d="M584,-441.83C584,-433.89 584,-424.41 584,-415.63"/>
<polygon fill="black" stroke="black" points="587.5,-415.42 584,-405.42 580.5,-415.42 587.5,-415.42"/>
</g>
<!-- 39 -->
<g id="node40" class="node">
<title>39</title>
<polygon fill="none" stroke="black" points="838,-406 704,-406 704,-368 838,-368 838,-406"/>
<text text-anchor="middle" x="771" y="-390.8" font-family="Helvetica,sans-Serif" font-size="14.00">longitude &lt;= &#45;67.93</text>
<text text-anchor="middle" x="771" y="-375.8" font-family="Helvetica,sans-Serif" font-size="14.00">class = Canada</text>
</g>
<!-- 37&#45;&gt;39 -->
<g id="edge39" class="edge">
<title>37&#45;&gt;39</title>
<path fill="none" stroke="black" d="M631.19,-441.83C656.53,-432.07 687.95,-419.98 714.58,-409.72"/>
<polygon fill="black" stroke="black" points="716.08,-412.9 724.15,-406.04 713.56,-406.36 716.08,-412.9"/>
</g>
<!-- 40 -->
<g id="node41" class="node">
<title>40</title>
<polygon fill="none" stroke="black" points="841.5,-332 700.5,-332 700.5,-294 841.5,-294 841.5,-332"/>
<text text-anchor="middle" x="771" y="-316.8" font-family="Helvetica,sans-Serif" font-size="14.00">longitude &lt;= &#45;68.325</text>
<text text-anchor="middle" x="771" y="-301.8" font-family="Helvetica,sans-Serif" font-size="14.00">class = USA</text>
</g>
<!-- 39&#45;&gt;40 -->
<g id="edge40" class="edge">
<title>39&#45;&gt;40</title>
<path fill="none" stroke="black" d="M771,-367.83C771,-360.13 771,-350.97 771,-342.42"/>
<polygon fill="black" stroke="black" points="774.5,-342.41 771,-332.41 767.5,-342.41 774.5,-342.41"/>
</g>
<!-- 47 -->
<g id="node48" class="node">
<title>47</title>
<polygon fill="none" stroke="black" points="1040.5,-332 915.5,-332 915.5,-294 1040.5,-294 1040.5,-332"/>
<text text-anchor="middle" x="978" y="-316.8" font-family="Helvetica,sans-Serif" font-size="14.00">latitude &lt;= 45.565</text>
<text text-anchor="middle" x="978" y="-301.8" font-family="Helvetica,sans-Serif" font-size="14.00">class = Canada</text>
</g>
<!-- 39&#45;&gt;47 -->
<g id="edge47" class="edge">
<title>39&#45;&gt;47</title>
<path fill="none" stroke="black" d="M822.97,-367.92C851.39,-358.04 886.77,-345.73 916.55,-335.37"/>
<polygon fill="black" stroke="black" points="917.72,-338.67 926.01,-332.08 915.42,-332.06 917.72,-338.67"/>
</g>
<!-- 41 -->
<g id="node42" class="node">
<title>41</title>
<polygon fill="none" stroke="black" points="778.5,-258 653.5,-258 653.5,-220 778.5,-220 778.5,-258"/>
<text text-anchor="middle" x="716" y="-242.8" font-family="Helvetica,sans-Serif" font-size="14.00">latitude &lt;= 47.256</text>
<text text-anchor="middle" x="716" y="-227.8" font-family="Helvetica,sans-Serif" font-size="14.00">class = Canada</text>
</g>
<!-- 40&#45;&gt;41 -->
<g id="edge41" class="edge">
<title>40&#45;&gt;41</title>
<path fill="none" stroke="black" d="M757.12,-293.83C750.79,-285.54 743.16,-275.56 736.21,-266.45"/>
<polygon fill="black" stroke="black" points="738.92,-264.24 730.07,-258.41 733.35,-268.48 738.92,-264.24"/>
</g>
<!-- 46 -->
<g id="node47" class="node">
<title>46</title>
<polygon fill="none" stroke="black" points="887.5,-257 796.5,-257 796.5,-221 887.5,-221 887.5,-257"/>
<text text-anchor="middle" x="842" y="-235.3" font-family="Helvetica,sans-Serif" font-size="14.00">class = USA</text>
</g>
<!-- 40&#45;&gt;46 -->
<g id="edge46" class="edge">
<title>40&#45;&gt;46</title>
<path fill="none" stroke="black" d="M788.92,-293.83C797.6,-285.02 808.17,-274.31 817.58,-264.76"/>
<polygon fill="black" stroke="black" points="820.29,-267 824.82,-257.42 815.31,-262.08 820.29,-267"/>
</g>
<!-- 42 -->
<g id="node43" class="node">
<title>42</title>
<polygon fill="none" stroke="black" points="755,-183 645,-183 645,-147 755,-147 755,-183"/>
<text text-anchor="middle" x="700" y="-161.3" font-family="Helvetica,sans-Serif" font-size="14.00">class = Canada</text>
</g>
<!-- 41&#45;&gt;42 -->
<g id="edge42" class="edge">
<title>41&#45;&gt;42</title>
<path fill="none" stroke="black" d="M711.96,-219.83C710.18,-211.81 708.04,-202.2 706.08,-193.34"/>
<polygon fill="black" stroke="black" points="709.46,-192.42 703.87,-183.42 702.62,-193.94 709.46,-192.42"/>
</g>
<!-- 43 -->
<g id="node44" class="node">
<title>43</title>
<polygon fill="none" stroke="black" points="914.5,-184 773.5,-184 773.5,-146 914.5,-146 914.5,-184"/>
<text text-anchor="middle" x="844" y="-168.8" font-family="Helvetica,sans-Serif" font-size="14.00">longitude &lt;= &#45;68.459</text>
<text text-anchor="middle" x="844" y="-153.8" font-family="Helvetica,sans-Serif" font-size="14.00">class = USA</text>
</g>
<!-- 41&#45;&gt;43 -->
<g id="edge43" class="edge">
<title>41&#45;&gt;43</title>
<path fill="none" stroke="black" d="M748.3,-219.83C764.82,-210.54 785.12,-199.12 802.76,-189.2"/>
<polygon fill="black" stroke="black" points="804.71,-192.12 811.71,-184.16 801.28,-186.01 804.71,-192.12"/>
</g>
<!-- 44 -->
<g id="node45" class="node">
<title>44</title>
<polygon fill="none" stroke="black" points="829.5,-109 738.5,-109 738.5,-73 829.5,-73 829.5,-109"/>
<text text-anchor="middle" x="784" y="-87.3" font-family="Helvetica,sans-Serif" font-size="14.00">class = USA</text>
</g>
<!-- 43&#45;&gt;44 -->
<g id="edge44" class="edge">
<title>43&#45;&gt;44</title>
<path fill="none" stroke="black" d="M828.86,-145.83C821.66,-137.2 812.94,-126.73 805.11,-117.33"/>
<polygon fill="black" stroke="black" points="807.61,-114.86 798.51,-109.42 802.23,-119.34 807.61,-114.86"/>
</g>
<!-- 45 -->
<g id="node46" class="node">
<title>45</title>
<polygon fill="none" stroke="black" points="958,-109 848,-109 848,-73 958,-73 958,-109"/>
<text text-anchor="middle" x="903" y="-87.3" font-family="Helvetica,sans-Serif" font-size="14.00">class = Canada</text>
</g>
<!-- 43&#45;&gt;45 -->
<g id="edge45" class="edge">
<title>43&#45;&gt;45</title>
<path fill="none" stroke="black" d="M858.89,-145.83C865.96,-137.2 874.54,-126.73 882.24,-117.33"/>
<polygon fill="black" stroke="black" points="885.1,-119.37 888.73,-109.42 879.68,-114.93 885.1,-119.37"/>
</g>
<!-- 48 -->
<g id="node49" class="node">
<title>48</title>
<polygon fill="none" stroke="black" points="1048.5,-258 907.5,-258 907.5,-220 1048.5,-220 1048.5,-258"/>
<text text-anchor="middle" x="978" y="-242.8" font-family="Helvetica,sans-Serif" font-size="14.00">longitude &lt;= &#45;67.355</text>
<text text-anchor="middle" x="978" y="-227.8" font-family="Helvetica,sans-Serif" font-size="14.00">class = Canada</text>
</g>
<!-- 47&#45;&gt;48 -->
<g id="edge48" class="edge">
<title>47&#45;&gt;48</title>
<path fill="none" stroke="black" d="M978,-293.83C978,-286.13 978,-276.97 978,-268.42"/>
<polygon fill="black" stroke="black" points="981.5,-268.41 978,-258.41 974.5,-268.41 981.5,-268.41"/>
</g>
<!-- 51 -->
<g id="node52" class="node">
<title>51</title>
<polygon fill="none" stroke="black" points="1177,-257 1067,-257 1067,-221 1177,-221 1177,-257"/>
<text text-anchor="middle" x="1122" y="-235.3" font-family="Helvetica,sans-Serif" font-size="14.00">class = Canada</text>
</g>
<!-- 47&#45;&gt;51 -->
<g id="edge51" class="edge">
<title>47&#45;&gt;51</title>
<path fill="none" stroke="black" d="M1014.34,-293.83C1033.85,-284.08 1058.03,-271.99 1078.53,-261.74"/>
<polygon fill="black" stroke="black" points="1080.28,-264.77 1087.66,-257.17 1077.15,-258.51 1080.28,-264.77"/>
</g>
<!-- 49 -->
<g id="node50" class="node">
<title>49</title>
<polygon fill="none" stroke="black" points="1023.5,-183 932.5,-183 932.5,-147 1023.5,-147 1023.5,-183"/>
<text text-anchor="middle" x="978" y="-161.3" font-family="Helvetica,sans-Serif" font-size="14.00">class = USA</text>
</g>
<!-- 48&#45;&gt;49 -->
<g id="edge49" class="edge">
<title>48&#45;&gt;49</title>
<path fill="none" stroke="black" d="M978,-219.83C978,-211.89 978,-202.41 978,-193.63"/>
<polygon fill="black" stroke="black" points="981.5,-193.42 978,-183.42 974.5,-193.42 981.5,-193.42"/>
</g>
<!-- 50 -->
<g id="node51" class="node">
<title>50</title>
<polygon fill="none" stroke="black" points="1152,-183 1042,-183 1042,-147 1152,-147 1152,-183"/>
<text text-anchor="middle" x="1097" y="-161.3" font-family="Helvetica,sans-Serif" font-size="14.00">class = Canada</text>
</g>
<!-- 48&#45;&gt;50 -->
<g id="edge50" class="edge">
<title>48&#45;&gt;50</title>
<path fill="none" stroke="black" d="M1008.03,-219.83C1023.71,-210.34 1043.06,-198.64 1059.69,-188.57"/>
<polygon fill="black" stroke="black" points="1061.88,-191.34 1068.62,-183.17 1058.25,-185.35 1061.88,-191.34"/>
</g>
</g>
</svg>
