<?xml version="1.0" encoding="UTF-8" standalone="no"?>
<!DOCTYPE svg PUBLIC "-//W3C//DTD SVG 1.1//EN"
 "http://www.w3.org/Graphics/SVG/1.1/DTD/svg11.dtd">
<!-- Generated by graphviz version 2.48.0 (0)
 -->
<!-- Title: Tree Pages: 1 -->
<svg width="1175pt" height="932pt"
 viewBox="0.00 0.00 1175.00 932.00" xmlns="http://www.w3.org/2000/svg" xmlns:xlink="http://www.w3.org/1999/xlink">
<g id="graph0" class="graph" transform="scale(1 1) rotate(0) translate(4 928)">
<title>Tree</title>
<polygon fill="white" stroke="transparent" points="-4,4 -4,-928 1171,-928 1171,4 -4,4"/>
<!-- 0 -->
<g id="node1" class="node">
<title>0</title>
<polygon fill="none" stroke="black" points="287.5,-924 181.5,-924 181.5,-886 287.5,-886 287.5,-924"/>
<text text-anchor="middle" x="234.5" y="-908.8" font-family="Times,serif" font-size="14.00">latitude &lt;= 42.9</text>
<text text-anchor="middle" x="234.5" y="-893.8" font-family="Times,serif" font-size="14.00">class = Canada</text>
</g>
<!-- 1 -->
<g id="node2" class="node">
<title>1</title>
<polygon fill="none" stroke="black" points="220.5,-850 100.5,-850 100.5,-812 220.5,-812 220.5,-850"/>
<text text-anchor="middle" x="160.5" y="-834.8" font-family="Times,serif" font-size="14.00">latitude &lt;= 42.096</text>
<text text-anchor="middle" x="160.5" y="-819.8" font-family="Times,serif" font-size="14.00">class = USA</text>
</g>
<!-- 0&#45;&gt;1 -->
<g id="edge1" class="edge">
<title>0&#45;&gt;1</title>
<path fill="none" stroke="black" d="M215.83,-885.83C206.98,-877.22 196.25,-866.79 186.61,-857.4"/>
<polygon fill="black" stroke="black" points="188.78,-854.63 179.17,-850.16 183.89,-859.64 188.78,-854.63"/>
<text text-anchor="middle" x="179.51" y="-871.46" font-family="Times,serif" font-size="14.00">True</text>
</g>
<!-- 6 -->
<g id="node7" class="node">
<title>6</title>
<polygon fill="none" stroke="black" points="380.5,-850 238.5,-850 238.5,-812 380.5,-812 380.5,-850"/>
<text text-anchor="middle" x="309.5" y="-834.8" font-family="Times,serif" font-size="14.00">longitude &lt;= &#45;130.017</text>
<text text-anchor="middle" x="309.5" y="-819.8" font-family="Times,serif" font-size="14.00">class = Canada</text>
</g>
<!-- 0&#45;&gt;6 -->
<g id="edge6" class="edge">
<title>0&#45;&gt;6</title>
<path fill="none" stroke="black" d="M253.43,-885.83C262.49,-877.13 273.48,-866.58 283.33,-857.13"/>
<polygon fill="black" stroke="black" points="285.79,-859.61 290.58,-850.16 280.94,-854.56 285.79,-859.61"/>
<text text-anchor="middle" x="290.07" y="-871.46" font-family="Times,serif" font-size="14.00">False</text>
</g>
<!-- 2 -->
<g id="node3" class="node">
<title>2</title>
<polygon fill="none" stroke="black" points="87,-775 0,-775 0,-739 87,-739 87,-775"/>
<text text-anchor="middle" x="43.5" y="-753.3" font-family="Times,serif" font-size="14.00">class = USA</text>
</g>
<!-- 1&#45;&gt;2 -->
<g id="edge2" class="edge">
<title>1&#45;&gt;2</title>
<path fill="none" stroke="black" d="M130.98,-811.83C115.55,-802.34 96.54,-790.64 80.18,-780.57"/>
<polygon fill="black" stroke="black" points="81.75,-777.43 71.4,-775.17 78.09,-783.39 81.75,-777.43"/>
</g>
<!-- 3 -->
<g id="node4" class="node">
<title>3</title>
<polygon fill="none" stroke="black" points="225.5,-776 105.5,-776 105.5,-738 225.5,-738 225.5,-776"/>
<text text-anchor="middle" x="165.5" y="-760.8" font-family="Times,serif" font-size="14.00">latitude &lt;= 42.324</text>
<text text-anchor="middle" x="165.5" y="-745.8" font-family="Times,serif" font-size="14.00">class = USA</text>
</g>
<!-- 1&#45;&gt;3 -->
<g id="edge3" class="edge">
<title>1&#45;&gt;3</title>
<path fill="none" stroke="black" d="M161.76,-811.83C162.3,-804.13 162.93,-794.97 163.53,-786.42"/>
<polygon fill="black" stroke="black" points="167.02,-786.63 164.22,-776.41 160.04,-786.15 167.02,-786.63"/>
</g>
<!-- 4 -->
<g id="node5" class="node">
<title>4</title>
<polygon fill="none" stroke="black" points="209,-701 108,-701 108,-665 209,-665 209,-701"/>
<text text-anchor="middle" x="158.5" y="-679.3" font-family="Times,serif" font-size="14.00">class = Canada</text>
</g>
<!-- 3&#45;&gt;4 -->
<g id="edge4" class="edge">
<title>3&#45;&gt;4</title>
<path fill="none" stroke="black" d="M163.73,-737.83C162.96,-729.89 162.04,-720.41 161.19,-711.63"/>
<polygon fill="black" stroke="black" points="164.64,-711.03 160.19,-701.42 157.68,-711.71 164.64,-711.03"/>
</g>
<!-- 5 -->
<g id="node6" class="node">
<title>5</title>
<polygon fill="none" stroke="black" points="314,-701 227,-701 227,-665 314,-665 314,-701"/>
<text text-anchor="middle" x="270.5" y="-679.3" font-family="Times,serif" font-size="14.00">class = USA</text>
</g>
<!-- 3&#45;&gt;5 -->
<g id="edge5" class="edge">
<title>3&#45;&gt;5</title>
<path fill="none" stroke="black" d="M192,-737.83C205.71,-728.43 222.59,-716.86 237.17,-706.85"/>
<polygon fill="black" stroke="black" points="239.19,-709.71 245.46,-701.17 235.23,-703.94 239.19,-709.71"/>
</g>
<!-- 7 -->
<g id="node8" class="node">
<title>7</title>
<polygon fill="none" stroke="black" points="344,-775 257,-775 257,-739 344,-739 344,-775"/>
<text text-anchor="middle" x="300.5" y="-753.3" font-family="Times,serif" font-size="14.00">class = USA</text>
</g>
<!-- 6&#45;&gt;7 -->
<g id="edge7" class="edge">
<title>6&#45;&gt;7</title>
<path fill="none" stroke="black" d="M307.23,-811.83C306.24,-803.89 305.05,-794.41 303.95,-785.63"/>
<polygon fill="black" stroke="black" points="307.39,-784.91 302.68,-775.42 300.44,-785.77 307.39,-784.91"/>
</g>
<!-- 8 -->
<g id="node9" class="node">
<title>8</title>
<polygon fill="none" stroke="black" points="468.5,-776 362.5,-776 362.5,-738 468.5,-738 468.5,-776"/>
<text text-anchor="middle" x="415.5" y="-760.8" font-family="Times,serif" font-size="14.00">latitude &lt;= 49.0</text>
<text text-anchor="middle" x="415.5" y="-745.8" font-family="Times,serif" font-size="14.00">class = Canada</text>
</g>
<!-- 6&#45;&gt;8 -->
<g id="edge8" class="edge">
<title>6&#45;&gt;8</title>
<path fill="none" stroke="black" d="M336.25,-811.83C349.56,-802.79 365.82,-791.75 380.14,-782.02"/>
<polygon fill="black" stroke="black" points="382.45,-784.68 388.76,-776.16 378.52,-778.89 382.45,-784.68"/>
</g>
<!-- 9 -->
<g id="node10" class="node">
<title>9</title>
<polygon fill="none" stroke="black" points="478,-702 343,-702 343,-664 478,-664 478,-702"/>
<text text-anchor="middle" x="410.5" y="-686.8" font-family="Times,serif" font-size="14.00">longitude &lt;= &#45;94.582</text>
<text text-anchor="middle" x="410.5" y="-671.8" font-family="Times,serif" font-size="14.00">class = Canada</text>
</g>
<!-- 8&#45;&gt;9 -->
<g id="edge9" class="edge">
<title>8&#45;&gt;9</title>
<path fill="none" stroke="black" d="M414.24,-737.83C413.7,-730.13 413.07,-720.97 412.47,-712.42"/>
<polygon fill="black" stroke="black" points="415.96,-712.15 411.78,-702.41 408.98,-712.63 415.96,-712.15"/>
</g>
<!-- 54 -->
<g id="node55" class="node">
<title>54</title>
<polygon fill="none" stroke="black" points="597,-701 496,-701 496,-665 597,-665 597,-701"/>
<text text-anchor="middle" x="546.5" y="-679.3" font-family="Times,serif" font-size="14.00">class = Canada</text>
</g>
<!-- 8&#45;&gt;54 -->
<g id="edge54" class="edge">
<title>8&#45;&gt;54</title>
<path fill="none" stroke="black" d="M448.56,-737.83C466.14,-728.17 487.91,-716.2 506.45,-706.01"/>
<polygon fill="black" stroke="black" points="508.18,-709.06 515.26,-701.17 504.81,-702.92 508.18,-709.06"/>
</g>
<!-- 10 -->
<g id="node11" class="node">
<title>10</title>
<polygon fill="none" stroke="black" points="403.5,-628 261.5,-628 261.5,-590 403.5,-590 403.5,-628"/>
<text text-anchor="middle" x="332.5" y="-612.8" font-family="Times,serif" font-size="14.00">longitude &lt;= &#45;123.222</text>
<text text-anchor="middle" x="332.5" y="-597.8" font-family="Times,serif" font-size="14.00">class = USA</text>
</g>
<!-- 9&#45;&gt;10 -->
<g id="edge10" class="edge">
<title>9&#45;&gt;10</title>
<path fill="none" stroke="black" d="M390.82,-663.83C381.39,-655.13 369.96,-644.58 359.72,-635.13"/>
<polygon fill="black" stroke="black" points="361.9,-632.37 352.18,-628.16 357.15,-637.52 361.9,-632.37"/>
</g>
<!-- 13 -->
<g id="node14" class="node">
<title>13</title>
<polygon fill="none" stroke="black" points="557,-628 422,-628 422,-590 557,-590 557,-628"/>
<text text-anchor="middle" x="489.5" y="-612.8" font-family="Times,serif" font-size="14.00">longitude &lt;= &#45;69.246</text>
<text text-anchor="middle" x="489.5" y="-597.8" font-family="Times,serif" font-size="14.00">class = Canada</text>
</g>
<!-- 9&#45;&gt;13 -->
<g id="edge13" class="edge">
<title>9&#45;&gt;13</title>
<path fill="none" stroke="black" d="M430.44,-663.83C439.98,-655.13 451.56,-644.58 461.93,-635.13"/>
<polygon fill="black" stroke="black" points="464.54,-637.49 469.57,-628.16 459.82,-632.31 464.54,-637.49"/>
</g>
<!-- 11 -->
<g id="node12" class="node">
<title>11</title>
<polygon fill="none" stroke="black" points="280,-553 179,-553 179,-517 280,-517 280,-553"/>
<text text-anchor="middle" x="229.5" y="-531.3" font-family="Times,serif" font-size="14.00">class = Canada</text>
</g>
<!-- 10&#45;&gt;11 -->
<g id="edge11" class="edge">
<title>10&#45;&gt;11</title>
<path fill="none" stroke="black" d="M306.51,-589.83C293.18,-580.52 276.81,-569.07 262.59,-559.13"/>
<polygon fill="black" stroke="black" points="264.27,-556.03 254.06,-553.17 260.26,-561.77 264.27,-556.03"/>
</g>
<!-- 12 -->
<g id="node13" class="node">
<title>12</title>
<polygon fill="none" stroke="black" points="385,-553 298,-553 298,-517 385,-517 385,-553"/>
<text text-anchor="middle" x="341.5" y="-531.3" font-family="Times,serif" font-size="14.00">class = USA</text>
</g>
<!-- 10&#45;&gt;12 -->
<g id="edge12" class="edge">
<title>10&#45;&gt;12</title>
<path fill="none" stroke="black" d="M334.77,-589.83C335.76,-581.89 336.95,-572.41 338.05,-563.63"/>
<polygon fill="black" stroke="black" points="341.56,-563.77 339.32,-553.42 334.61,-562.91 341.56,-563.77"/>
</g>
<!-- 14 -->
<g id="node15" class="node">
<title>14</title>
<polygon fill="none" stroke="black" points="540.5,-554 420.5,-554 420.5,-516 540.5,-516 540.5,-554"/>
<text text-anchor="middle" x="480.5" y="-538.8" font-family="Times,serif" font-size="14.00">latitude &lt;= 43.093</text>
<text text-anchor="middle" x="480.5" y="-523.8" font-family="Times,serif" font-size="14.00">class = Canada</text>
</g>
<!-- 13&#45;&gt;14 -->
<g id="edge14" class="edge">
<title>13&#45;&gt;14</title>
<path fill="none" stroke="black" d="M487.23,-589.83C486.27,-582.13 485.12,-572.97 484.05,-564.42"/>
<polygon fill="black" stroke="black" points="487.52,-563.9 482.8,-554.41 480.57,-564.77 487.52,-563.9"/>
</g>
<!-- 37 -->
<g id="node38" class="node">
<title>37</title>
<polygon fill="none" stroke="black" points="849,-554 714,-554 714,-516 849,-516 849,-554"/>
<text text-anchor="middle" x="781.5" y="-538.8" font-family="Times,serif" font-size="14.00">longitude &lt;= &#45;66.952</text>
<text text-anchor="middle" x="781.5" y="-523.8" font-family="Times,serif" font-size="14.00">class = Canada</text>
</g>
<!-- 13&#45;&gt;37 -->
<g id="edge37" class="edge">
<title>13&#45;&gt;37</title>
<path fill="none" stroke="black" d="M557.22,-591.3C601.09,-580.48 658.35,-566.37 704.03,-555.1"/>
<polygon fill="black" stroke="black" points="705.02,-558.46 713.89,-552.67 703.34,-551.67 705.02,-558.46"/>
</g>
<!-- 15 -->
<g id="node16" class="node">
<title>15</title>
<polygon fill="none" stroke="black" points="286,-480 151,-480 151,-442 286,-442 286,-480"/>
<text text-anchor="middle" x="218.5" y="-464.8" font-family="Times,serif" font-size="14.00">longitude &lt;= &#45;81.845</text>
<text text-anchor="middle" x="218.5" y="-449.8" font-family="Times,serif" font-size="14.00">class = Canada</text>
</g>
<!-- 14&#45;&gt;15 -->
<g id="edge15" class="edge">
<title>14&#45;&gt;15</title>
<path fill="none" stroke="black" d="M420.39,-517.48C382.85,-507.16 334.19,-493.79 294.05,-482.76"/>
<polygon fill="black" stroke="black" points="294.87,-479.36 284.3,-480.08 293.02,-486.11 294.87,-479.36"/>
</g>
<!-- 20 -->
<g id="node21" class="node">
<title>20</title>
<polygon fill="none" stroke="black" points="540.5,-480 420.5,-480 420.5,-442 540.5,-442 540.5,-480"/>
<text text-anchor="middle" x="480.5" y="-464.8" font-family="Times,serif" font-size="14.00">latitude &lt;= 44.992</text>
<text text-anchor="middle" x="480.5" y="-449.8" font-family="Times,serif" font-size="14.00">class = Canada</text>
</g>
<!-- 14&#45;&gt;20 -->
<g id="edge20" class="edge">
<title>14&#45;&gt;20</title>
<path fill="none" stroke="black" d="M480.5,-515.83C480.5,-508.13 480.5,-498.97 480.5,-490.42"/>
<polygon fill="black" stroke="black" points="484,-490.41 480.5,-480.41 477,-490.41 484,-490.41"/>
</g>
<!-- 16 -->
<g id="node17" class="node">
<title>16</title>
<polygon fill="none" stroke="black" points="140,-405 53,-405 53,-369 140,-369 140,-405"/>
<text text-anchor="middle" x="96.5" y="-383.3" font-family="Times,serif" font-size="14.00">class = USA</text>
</g>
<!-- 15&#45;&gt;16 -->
<g id="edge16" class="edge">
<title>15&#45;&gt;16</title>
<path fill="none" stroke="black" d="M187.71,-441.83C171.48,-432.25 151.44,-420.42 134.27,-410.29"/>
<polygon fill="black" stroke="black" points="135.99,-407.24 125.6,-405.17 132.43,-413.27 135.99,-407.24"/>
</g>
<!-- 17 -->
<g id="node18" class="node">
<title>17</title>
<polygon fill="none" stroke="black" points="278.5,-406 158.5,-406 158.5,-368 278.5,-368 278.5,-406"/>
<text text-anchor="middle" x="218.5" y="-390.8" font-family="Times,serif" font-size="14.00">latitude &lt;= 43.039</text>
<text text-anchor="middle" x="218.5" y="-375.8" font-family="Times,serif" font-size="14.00">class = Canada</text>
</g>
<!-- 15&#45;&gt;17 -->
<g id="edge17" class="edge">
<title>15&#45;&gt;17</title>
<path fill="none" stroke="black" d="M218.5,-441.83C218.5,-434.13 218.5,-424.97 218.5,-416.42"/>
<polygon fill="black" stroke="black" points="222,-416.41 218.5,-406.41 215,-416.41 222,-416.41"/>
</g>
<!-- 18 -->
<g id="node19" class="node">
<title>18</title>
<polygon fill="none" stroke="black" points="157,-331 56,-331 56,-295 157,-295 157,-331"/>
<text text-anchor="middle" x="106.5" y="-309.3" font-family="Times,serif" font-size="14.00">class = Canada</text>
</g>
<!-- 17&#45;&gt;18 -->
<g id="edge18" class="edge">
<title>17&#45;&gt;18</title>
<path fill="none" stroke="black" d="M190.24,-367.83C175.61,-358.43 157.61,-346.86 142.05,-336.85"/>
<polygon fill="black" stroke="black" points="143.52,-333.63 133.21,-331.17 139.73,-339.52 143.52,-333.63"/>
</g>
<!-- 19 -->
<g id="node20" class="node">
<title>19</title>
<polygon fill="none" stroke="black" points="262,-331 175,-331 175,-295 262,-295 262,-331"/>
<text text-anchor="middle" x="218.5" y="-309.3" font-family="Times,serif" font-size="14.00">class = USA</text>
</g>
<!-- 17&#45;&gt;19 -->
<g id="edge19" class="edge">
<title>17&#45;&gt;19</title>
<path fill="none" stroke="black" d="M218.5,-367.83C218.5,-359.89 218.5,-350.41 218.5,-341.63"/>
<polygon fill="black" stroke="black" points="222,-341.42 218.5,-331.42 215,-341.42 222,-341.42"/>
</g>
<!-- 21 -->
<g id="node22" class="node">
<title>21</title>
<polygon fill="none" stroke="black" points="471.5,-406 351.5,-406 351.5,-368 471.5,-368 471.5,-406"/>
<text text-anchor="middle" x="411.5" y="-390.8" font-family="Times,serif" font-size="14.00">latitude &lt;= 44.542</text>
<text text-anchor="middle" x="411.5" y="-375.8" font-family="Times,serif" font-size="14.00">class = Canada</text>
</g>
<!-- 20&#45;&gt;21 -->
<g id="edge21" class="edge">
<title>20&#45;&gt;21</title>
<path fill="none" stroke="black" d="M463.09,-441.83C454.98,-433.37 445.18,-423.15 436.32,-413.9"/>
<polygon fill="black" stroke="black" points="438.59,-411.21 429.15,-406.41 433.54,-416.05 438.59,-411.21"/>
</g>
<!-- 36 -->
<g id="node37" class="node">
<title>36</title>
<polygon fill="none" stroke="black" points="591,-405 490,-405 490,-369 591,-369 591,-405"/>
<text text-anchor="middle" x="540.5" y="-383.3" font-family="Times,serif" font-size="14.00">class = Canada</text>
</g>
<!-- 20&#45;&gt;36 -->
<g id="edge36" class="edge">
<title>20&#45;&gt;36</title>
<path fill="none" stroke="black" d="M495.64,-441.83C502.84,-433.2 511.56,-422.73 519.39,-413.33"/>
<polygon fill="black" stroke="black" points="522.27,-415.34 525.99,-405.42 516.89,-410.86 522.27,-415.34"/>
</g>
<!-- 22 -->
<g id="node23" class="node">
<title>22</title>
<polygon fill="none" stroke="black" points="415,-332 280,-332 280,-294 415,-294 415,-332"/>
<text text-anchor="middle" x="347.5" y="-316.8" font-family="Times,serif" font-size="14.00">longitude &lt;= &#45;79.076</text>
<text text-anchor="middle" x="347.5" y="-301.8" font-family="Times,serif" font-size="14.00">class = Canada</text>
</g>
<!-- 21&#45;&gt;22 -->
<g id="edge22" class="edge">
<title>21&#45;&gt;22</title>
<path fill="none" stroke="black" d="M395.35,-367.83C387.83,-359.37 378.74,-349.15 370.52,-339.9"/>
<polygon fill="black" stroke="black" points="373.13,-337.56 363.87,-332.41 367.9,-342.21 373.13,-337.56"/>
</g>
<!-- 31 -->
<g id="node32" class="node">
<title>31</title>
<polygon fill="none" stroke="black" points="553.5,-332 433.5,-332 433.5,-294 553.5,-294 553.5,-332"/>
<text text-anchor="middle" x="493.5" y="-316.8" font-family="Times,serif" font-size="14.00">latitude &lt;= 44.706</text>
<text text-anchor="middle" x="493.5" y="-301.8" font-family="Times,serif" font-size="14.00">class = USA</text>
</g>
<!-- 21&#45;&gt;31 -->
<g id="edge31" class="edge">
<title>21&#45;&gt;31</title>
<path fill="none" stroke="black" d="M432.19,-367.83C442.19,-359.05 454.36,-348.37 465.2,-338.85"/>
<polygon fill="black" stroke="black" points="467.61,-341.39 472.81,-332.16 462.99,-336.13 467.61,-341.39"/>
</g>
<!-- 23 -->
<g id="node24" class="node">
<title>23</title>
<polygon fill="none" stroke="black" points="269,-257 168,-257 168,-221 269,-221 269,-257"/>
<text text-anchor="middle" x="218.5" y="-235.3" font-family="Times,serif" font-size="14.00">class = Canada</text>
</g>
<!-- 22&#45;&gt;23 -->
<g id="edge23" class="edge">
<title>22&#45;&gt;23</title>
<path fill="none" stroke="black" d="M314.95,-293.83C297.79,-284.25 276.59,-272.42 258.44,-262.29"/>
<polygon fill="black" stroke="black" points="259.7,-258.99 249.27,-257.17 256.29,-265.1 259.7,-258.99"/>
</g>
<!-- 24 -->
<g id="node25" class="node">
<title>24</title>
<polygon fill="none" stroke="black" points="407.5,-258 287.5,-258 287.5,-220 407.5,-220 407.5,-258"/>
<text text-anchor="middle" x="347.5" y="-242.8" font-family="Times,serif" font-size="14.00">latitude &lt;= 44.168</text>
<text text-anchor="middle" x="347.5" y="-227.8" font-family="Times,serif" font-size="14.00">class = Canada</text>
</g>
<!-- 22&#45;&gt;24 -->
<g id="edge24" class="edge">
<title>22&#45;&gt;24</title>
<path fill="none" stroke="black" d="M347.5,-293.83C347.5,-286.13 347.5,-276.97 347.5,-268.42"/>
<polygon fill="black" stroke="black" points="351,-268.41 347.5,-258.41 344,-268.41 351,-268.41"/>
</g>
<!-- 25 -->
<g id="node26" class="node">
<title>25</title>
<polygon fill="none" stroke="black" points="285,-184 166,-184 166,-146 285,-146 285,-184"/>
<text text-anchor="middle" x="225.5" y="-168.8" font-family="Times,serif" font-size="14.00">latitude &lt;= 43.511</text>
<text text-anchor="middle" x="225.5" y="-153.8" font-family="Times,serif" font-size="14.00">class = USA</text>
</g>
<!-- 24&#45;&gt;25 -->
<g id="edge25" class="edge">
<title>24&#45;&gt;25</title>
<path fill="none" stroke="black" d="M316.71,-219.83C301.11,-210.62 281.98,-199.33 265.27,-189.47"/>
<polygon fill="black" stroke="black" points="266.67,-186.23 256.28,-184.16 263.11,-192.26 266.67,-186.23"/>
</g>
<!-- 30 -->
<g id="node31" class="node">
<title>30</title>
<polygon fill="none" stroke="black" points="404,-183 303,-183 303,-147 404,-147 404,-183"/>
<text text-anchor="middle" x="353.5" y="-161.3" font-family="Times,serif" font-size="14.00">class = Canada</text>
</g>
<!-- 24&#45;&gt;30 -->
<g id="edge30" class="edge">
<title>24&#45;&gt;30</title>
<path fill="none" stroke="black" d="M349.01,-219.83C349.68,-211.89 350.47,-202.41 351.2,-193.63"/>
<polygon fill="black" stroke="black" points="354.71,-193.67 352.05,-183.42 347.73,-193.09 354.71,-193.67"/>
</g>
<!-- 26 -->
<g id="node27" class="node">
<title>26</title>
<polygon fill="none" stroke="black" points="208,-109 121,-109 121,-73 208,-73 208,-109"/>
<text text-anchor="middle" x="164.5" y="-87.3" font-family="Times,serif" font-size="14.00">class = USA</text>
</g>
<!-- 25&#45;&gt;26 -->
<g id="edge26" class="edge">
<title>25&#45;&gt;26</title>
<path fill="none" stroke="black" d="M210.11,-145.83C202.79,-137.2 193.92,-126.73 185.96,-117.33"/>
<polygon fill="black" stroke="black" points="188.39,-114.79 179.26,-109.42 183.05,-119.31 188.39,-114.79"/>
</g>
<!-- 27 -->
<g id="node28" class="node">
<title>27</title>
<polygon fill="none" stroke="black" points="346.5,-110 226.5,-110 226.5,-72 346.5,-72 346.5,-110"/>
<text text-anchor="middle" x="286.5" y="-94.8" font-family="Times,serif" font-size="14.00">latitude &lt;= 43.988</text>
<text text-anchor="middle" x="286.5" y="-79.8" font-family="Times,serif" font-size="14.00">class = Canada</text>
</g>
<!-- 25&#45;&gt;27 -->
<g id="edge27" class="edge">
<title>25&#45;&gt;27</title>
<path fill="none" stroke="black" d="M240.89,-145.83C247.99,-137.45 256.55,-127.35 264.32,-118.17"/>
<polygon fill="black" stroke="black" points="267.11,-120.31 270.9,-110.41 261.77,-115.78 267.11,-120.31"/>
</g>
<!-- 28 -->
<g id="node29" class="node">
<title>28</title>
<polygon fill="none" stroke="black" points="281,-36 180,-36 180,0 281,0 281,-36"/>
<text text-anchor="middle" x="230.5" y="-14.3" font-family="Times,serif" font-size="14.00">class = Canada</text>
</g>
<!-- 27&#45;&gt;28 -->
<g id="edge28" class="edge">
<title>27&#45;&gt;28</title>
<path fill="none" stroke="black" d="M272.08,-71.72C265.43,-63.29 257.43,-53.15 250.23,-44.02"/>
<polygon fill="black" stroke="black" points="252.85,-41.69 243.91,-36 247.36,-46.02 252.85,-41.69"/>
</g>
<!-- 29 -->
<g id="node30" class="node">
<title>29</title>
<polygon fill="none" stroke="black" points="386,-36 299,-36 299,0 386,0 386,-36"/>
<text text-anchor="middle" x="342.5" y="-14.3" font-family="Times,serif" font-size="14.00">class = USA</text>
</g>
<!-- 27&#45;&gt;29 -->
<g id="edge29" class="edge">
<title>27&#45;&gt;29</title>
<path fill="none" stroke="black" d="M300.92,-71.72C307.57,-63.29 315.57,-53.15 322.77,-44.02"/>
<polygon fill="black" stroke="black" points="325.64,-46.02 329.09,-36 320.15,-41.69 325.64,-46.02"/>
</g>
<!-- 32 -->
<g id="node33" class="node">
<title>32</title>
<polygon fill="none" stroke="black" points="513,-257 426,-257 426,-221 513,-221 513,-257"/>
<text text-anchor="middle" x="469.5" y="-235.3" font-family="Times,serif" font-size="14.00">class = USA</text>
</g>
<!-- 31&#45;&gt;32 -->
<g id="edge32" class="edge">
<title>31&#45;&gt;32</title>
<path fill="none" stroke="black" d="M487.44,-293.83C484.74,-285.72 481.5,-275.99 478.52,-267.05"/>
<polygon fill="black" stroke="black" points="481.79,-265.8 475.31,-257.42 475.15,-268.01 481.79,-265.8"/>
</g>
<!-- 33 -->
<g id="node34" class="node">
<title>33</title>
<polygon fill="none" stroke="black" points="651.5,-258 531.5,-258 531.5,-220 651.5,-220 651.5,-258"/>
<text text-anchor="middle" x="591.5" y="-242.8" font-family="Times,serif" font-size="14.00">latitude &lt;= 44.848</text>
<text text-anchor="middle" x="591.5" y="-227.8" font-family="Times,serif" font-size="14.00">class = Canada</text>
</g>
<!-- 31&#45;&gt;33 -->
<g id="edge33" class="edge">
<title>31&#45;&gt;33</title>
<path fill="none" stroke="black" d="M518.23,-293.83C530.42,-284.88 545.28,-273.96 558.43,-264.3"/>
<polygon fill="black" stroke="black" points="560.79,-266.9 566.78,-258.16 556.65,-261.26 560.79,-266.9"/>
</g>
<!-- 34 -->
<g id="node35" class="node">
<title>34</title>
<polygon fill="none" stroke="black" points="531,-183 430,-183 430,-147 531,-147 531,-183"/>
<text text-anchor="middle" x="480.5" y="-161.3" font-family="Times,serif" font-size="14.00">class = Canada</text>
</g>
<!-- 33&#45;&gt;34 -->
<g id="edge34" class="edge">
<title>33&#45;&gt;34</title>
<path fill="none" stroke="black" d="M563.49,-219.83C548.99,-210.43 531.15,-198.86 515.73,-188.85"/>
<polygon fill="black" stroke="black" points="517.27,-185.68 506.97,-183.17 513.46,-191.55 517.27,-185.68"/>
</g>
<!-- 35 -->
<g id="node36" class="node">
<title>35</title>
<polygon fill="none" stroke="black" points="636,-183 549,-183 549,-147 636,-147 636,-183"/>
<text text-anchor="middle" x="592.5" y="-161.3" font-family="Times,serif" font-size="14.00">class = USA</text>
</g>
<!-- 33&#45;&gt;35 -->
<g id="edge35" class="edge">
<title>33&#45;&gt;35</title>
<path fill="none" stroke="black" d="M591.75,-219.83C591.86,-211.89 591.99,-202.41 592.12,-193.63"/>
<polygon fill="black" stroke="black" points="595.62,-193.47 592.26,-183.42 588.62,-193.37 595.62,-193.47"/>
</g>
<!-- 38 -->
<g id="node39" class="node">
<title>38</title>
<polygon fill="none" stroke="black" points="849,-480 714,-480 714,-442 849,-442 849,-480"/>
<text text-anchor="middle" x="781.5" y="-464.8" font-family="Times,serif" font-size="14.00">longitude &lt;= &#45;67.279</text>
<text text-anchor="middle" x="781.5" y="-449.8" font-family="Times,serif" font-size="14.00">class = USA</text>
</g>
<!-- 37&#45;&gt;38 -->
<g id="edge38" class="edge">
<title>37&#45;&gt;38</title>
<path fill="none" stroke="black" d="M781.5,-515.83C781.5,-508.13 781.5,-498.97 781.5,-490.42"/>
<polygon fill="black" stroke="black" points="785,-490.41 781.5,-480.41 778,-490.41 785,-490.41"/>
</g>
<!-- 53 -->
<g id="node54" class="node">
<title>53</title>
<polygon fill="none" stroke="black" points="968,-479 867,-479 867,-443 968,-443 968,-479"/>
<text text-anchor="middle" x="917.5" y="-457.3" font-family="Times,serif" font-size="14.00">class = Canada</text>
</g>
<!-- 37&#45;&gt;53 -->
<g id="edge53" class="edge">
<title>37&#45;&gt;53</title>
<path fill="none" stroke="black" d="M815.82,-515.83C834.16,-506.12 856.87,-494.1 876.18,-483.88"/>
<polygon fill="black" stroke="black" points="877.86,-486.94 885.07,-479.17 874.59,-480.76 877.86,-486.94"/>
</g>
<!-- 39 -->
<g id="node40" class="node">
<title>39</title>
<polygon fill="none" stroke="black" points="845.5,-406 717.5,-406 717.5,-368 845.5,-368 845.5,-406"/>
<text text-anchor="middle" x="781.5" y="-390.8" font-family="Times,serif" font-size="14.00">longitude &lt;= &#45;67.93</text>
<text text-anchor="middle" x="781.5" y="-375.8" font-family="Times,serif" font-size="14.00">class = Canada</text>
</g>
<!-- 38&#45;&gt;39 -->
<g id="edge39" class="edge">
<title>38&#45;&gt;39</title>
<path fill="none" stroke="black" d="M781.5,-441.83C781.5,-434.13 781.5,-424.97 781.5,-416.42"/>
<polygon fill="black" stroke="black" points="785,-416.41 781.5,-406.41 778,-416.41 785,-416.41"/>
</g>
<!-- 52 -->
<g id="node53" class="node">
<title>52</title>
<polygon fill="none" stroke="black" points="951,-405 864,-405 864,-369 951,-369 951,-405"/>
<text text-anchor="middle" x="907.5" y="-383.3" font-family="Times,serif" font-size="14.00">class = USA</text>
</g>
<!-- 38&#45;&gt;52 -->
<g id="edge52" class="edge">
<title>38&#45;&gt;52</title>
<path fill="none" stroke="black" d="M813.3,-441.83C830.06,-432.25 850.76,-420.42 868.49,-410.29"/>
<polygon fill="black" stroke="black" points="870.5,-413.17 877.45,-405.17 867.03,-407.09 870.5,-413.17"/>
</g>
<!-- 40 -->
<g id="node41" class="node">
<title>40</title>
<polygon fill="none" stroke="black" points="849,-332 714,-332 714,-294 849,-294 849,-332"/>
<text text-anchor="middle" x="781.5" y="-316.8" font-family="Times,serif" font-size="14.00">longitude &lt;= &#45;68.325</text>
<text text-anchor="middle" x="781.5" y="-301.8" font-family="Times,serif" font-size="14.00">class = USA</text>
</g>
<!-- 39&#45;&gt;40 -->
<g id="edge40" class="edge">
<title>39&#45;&gt;40</title>
<path fill="none" stroke="black" d="M781.5,-367.83C781.5,-360.13 781.5,-350.97 781.5,-342.42"/>
<polygon fill="black" stroke="black" points="785,-342.41 781.5,-332.41 778,-342.41 785,-342.41"/>
</g>
<!-- 47 -->
<g id="node48" class="node">
<title>47</title>
<polygon fill="none" stroke="black" points="1040.5,-332 920.5,-332 920.5,-294 1040.5,-294 1040.5,-332"/>
<text text-anchor="middle" x="980.5" y="-316.8" font-family="Times,serif" font-size="14.00">latitude &lt;= 45.565</text>
<text text-anchor="middle" x="980.5" y="-301.8" font-family="Times,serif" font-size="14.00">class = Canada</text>
</g>
<!-- 39&#45;&gt;47 -->
<g id="edge47" class="edge">
<title>39&#45;&gt;47</title>
<path fill="none" stroke="black" d="M831.46,-367.92C858.66,-358.08 892.5,-345.84 921.06,-335.51"/>
<polygon fill="black" stroke="black" points="922.31,-338.78 930.52,-332.08 919.93,-332.19 922.31,-338.78"/>
</g>
<!-- 41 -->
<g id="node42" class="node">
<title>41</title>
<polygon fill="none" stroke="black" points="789.5,-258 669.5,-258 669.5,-220 789.5,-220 789.5,-258"/>
<text text-anchor="middle" x="729.5" y="-242.8" font-family="Times,serif" font-size="14.00">latitude &lt;= 47.256</text>
<text text-anchor="middle" x="729.5" y="-227.8" font-family="Times,serif" font-size="14.00">class = Canada</text>
</g>
<!-- 40&#45;&gt;41 -->
<g id="edge41" class="edge">
<title>40&#45;&gt;41</title>
<path fill="none" stroke="black" d="M768.38,-293.83C762.45,-285.62 755.33,-275.76 748.81,-266.73"/>
<polygon fill="black" stroke="black" points="751.49,-264.47 742.8,-258.41 745.82,-268.57 751.49,-264.47"/>
</g>
<!-- 46 -->
<g id="node47" class="node">
<title>46</title>
<polygon fill="none" stroke="black" points="895,-257 808,-257 808,-221 895,-221 895,-257"/>
<text text-anchor="middle" x="851.5" y="-235.3" font-family="Times,serif" font-size="14.00">class = USA</text>
</g>
<!-- 40&#45;&gt;46 -->
<g id="edge46" class="edge">
<title>40&#45;&gt;46</title>
<path fill="none" stroke="black" d="M799.16,-293.83C807.73,-285.02 818.15,-274.31 827.43,-264.76"/>
<polygon fill="black" stroke="black" points="830.1,-267.03 834.57,-257.42 825.09,-262.15 830.1,-267.03"/>
</g>
<!-- 42 -->
<g id="node43" class="node">
<title>42</title>
<polygon fill="none" stroke="black" points="761,-183 660,-183 660,-147 761,-147 761,-183"/>
<text text-anchor="middle" x="710.5" y="-161.3" font-family="Times,serif" font-size="14.00">class = Canada</text>
</g>
<!-- 41&#45;&gt;42 -->
<g id="edge42" class="edge">
<title>41&#45;&gt;42</title>
<path fill="none" stroke="black" d="M724.71,-219.83C722.59,-211.81 720.05,-202.2 717.71,-193.34"/>
<polygon fill="black" stroke="black" points="721.03,-192.19 715.1,-183.42 714.26,-193.98 721.03,-192.19"/>
</g>
<!-- 43 -->
<g id="node44" class="node">
<title>43</title>
<polygon fill="none" stroke="black" points="914,-184 779,-184 779,-146 914,-146 914,-184"/>
<text text-anchor="middle" x="846.5" y="-168.8" font-family="Times,serif" font-size="14.00">longitude &lt;= &#45;68.459</text>
<text text-anchor="middle" x="846.5" y="-153.8" font-family="Times,serif" font-size="14.00">class = USA</text>
</g>
<!-- 41&#45;&gt;43 -->
<g id="edge43" class="edge">
<title>41&#45;&gt;43</title>
<path fill="none" stroke="black" d="M759.02,-219.83C773.99,-210.62 792.34,-199.33 808.36,-189.47"/>
<polygon fill="black" stroke="black" points="810.3,-192.38 816.99,-184.16 806.63,-186.42 810.3,-192.38"/>
</g>
<!-- 44 -->
<g id="node45" class="node">
<title>44</title>
<polygon fill="none" stroke="black" points="834,-109 747,-109 747,-73 834,-73 834,-109"/>
<text text-anchor="middle" x="790.5" y="-87.3" font-family="Times,serif" font-size="14.00">class = USA</text>
</g>
<!-- 43&#45;&gt;44 -->
<g id="edge44" class="edge">
<title>43&#45;&gt;44</title>
<path fill="none" stroke="black" d="M832.37,-145.83C825.65,-137.2 817.51,-126.73 810.2,-117.33"/>
<polygon fill="black" stroke="black" points="812.95,-115.16 804.05,-109.42 807.42,-119.46 812.95,-115.16"/>
</g>
<!-- 45 -->
<g id="node46" class="node">
<title>45</title>
<polygon fill="none" stroke="black" points="953,-109 852,-109 852,-73 953,-73 953,-109"/>
<text text-anchor="middle" x="902.5" y="-87.3" font-family="Times,serif" font-size="14.00">class = Canada</text>
</g>
<!-- 43&#45;&gt;45 -->
<g id="edge45" class="edge">
<title>43&#45;&gt;45</title>
<path fill="none" stroke="black" d="M860.63,-145.83C867.35,-137.2 875.49,-126.73 882.8,-117.33"/>
<polygon fill="black" stroke="black" points="885.58,-119.46 888.95,-109.42 880.05,-115.16 885.58,-119.46"/>
</g>
<!-- 48 -->
<g id="node49" class="node">
<title>48</title>
<polygon fill="none" stroke="black" points="1048,-258 913,-258 913,-220 1048,-220 1048,-258"/>
<text text-anchor="middle" x="980.5" y="-242.8" font-family="Times,serif" font-size="14.00">longitude &lt;= &#45;67.355</text>
<text text-anchor="middle" x="980.5" y="-227.8" font-family="Times,serif" font-size="14.00">class = Canada</text>
</g>
<!-- 47&#45;&gt;48 -->
<g id="edge48" class="edge">
<title>47&#45;&gt;48</title>
<path fill="none" stroke="black" d="M980.5,-293.83C980.5,-286.13 980.5,-276.97 980.5,-268.42"/>
<polygon fill="black" stroke="black" points="984,-268.41 980.5,-258.41 977,-268.41 984,-268.41"/>
</g>
<!-- 51 -->
<g id="node52" class="node">
<title>51</title>
<polygon fill="none" stroke="black" points="1167,-257 1066,-257 1066,-221 1167,-221 1167,-257"/>
<text text-anchor="middle" x="1116.5" y="-235.3" font-family="Times,serif" font-size="14.00">class = Canada</text>
</g>
<!-- 47&#45;&gt;51 -->
<g id="edge51" class="edge">
<title>47&#45;&gt;51</title>
<path fill="none" stroke="black" d="M1014.82,-293.83C1033.16,-284.12 1055.87,-272.1 1075.18,-261.88"/>
<polygon fill="black" stroke="black" points="1076.86,-264.94 1084.07,-257.17 1073.59,-258.76 1076.86,-264.94"/>
</g>
<!-- 49 -->
<g id="node50" class="node">
<title>49</title>
<polygon fill="none" stroke="black" points="1022,-183 935,-183 935,-147 1022,-147 1022,-183"/>
<text text-anchor="middle" x="978.5" y="-161.3" font-family="Times,serif" font-size="14.00">class = USA</text>
</g>
<!-- 48&#45;&gt;49 -->
<g id="edge49" class="edge">
<title>48&#45;&gt;49</title>
<path fill="none" stroke="black" d="M980,-219.83C979.77,-211.89 979.51,-202.41 979.27,-193.63"/>
<polygon fill="black" stroke="black" points="982.76,-193.32 978.98,-183.42 975.76,-193.51 982.76,-193.32"/>
</g>
<!-- 50 -->
<g id="node51" class="node">
<title>50</title>
<polygon fill="none" stroke="black" points="1141,-183 1040,-183 1040,-147 1141,-147 1141,-183"/>
<text text-anchor="middle" x="1090.5" y="-161.3" font-family="Times,serif" font-size="14.00">class = Canada</text>
</g>
<!-- 48&#45;&gt;50 -->
<g id="edge50" class="edge">
<title>48&#45;&gt;50</title>
<path fill="none" stroke="black" d="M1008.26,-219.83C1022.62,-210.43 1040.3,-198.86 1055.59,-188.85"/>
<polygon fill="black" stroke="black" points="1057.82,-191.58 1064.27,-183.17 1053.98,-185.72 1057.82,-191.58"/>
</g>
</g>
</svg>
