<?xml version="1.0" encoding="UTF-8" standalone="no"?>
<!DOCTYPE svg PUBLIC "-//W3C//DTD SVG 1.1//EN"
 "http://www.w3.org/Graphics/SVG/1.1/DTD/svg11.dtd">
<!-- Generated by graphviz version 2.48.0 (0)
 -->
<!-- Title: Tree Pages: 1 -->
<svg width="1194pt" height="932pt"
 viewBox="0.00 0.00 1194.00 932.00" xmlns="http://www.w3.org/2000/svg" xmlns:xlink="http://www.w3.org/1999/xlink">
<g id="graph0" class="graph" transform="scale(1 1) rotate(0) translate(4 928)">
<title>Tree</title>
<polygon fill="white" stroke="transparent" points="-4,4 -4,-928 1190,-928 1190,4 -4,4"/>
<!-- 0 -->
<g id="node1" class="node">
<title>0</title>
<polygon fill="none" stroke="black" points="285.5,-924 179.5,-924 179.5,-886 285.5,-886 285.5,-924"/>
<text text-anchor="middle" x="232.5" y="-908.8" font-family="Times,serif" font-size="14.00">latitude &lt;= 42.9</text>
<text text-anchor="middle" x="232.5" y="-893.8" font-family="Times,serif" font-size="14.00">class = Canada</text>
</g>
<!-- 1 -->
<g id="node2" class="node">
<title>1</title>
<polygon fill="none" stroke="black" points="223.5,-850 103.5,-850 103.5,-812 223.5,-812 223.5,-850"/>
<text text-anchor="middle" x="163.5" y="-834.8" font-family="Times,serif" font-size="14.00">latitude &lt;= 42.096</text>
<text text-anchor="middle" x="163.5" y="-819.8" font-family="Times,serif" font-size="14.00">class = USA</text>
</g>
<!-- 0&#45;&gt;1 -->
<g id="edge1" class="edge">
<title>0&#45;&gt;1</title>
<path fill="none" stroke="black" d="M215.09,-885.83C206.98,-877.37 197.18,-867.15 188.32,-857.9"/>
<polygon fill="black" stroke="black" points="190.59,-855.21 181.15,-850.41 185.54,-860.05 190.59,-855.21"/>
<text text-anchor="middle" x="180.61" y="-871.71" font-family="Times,serif" font-size="14.00">True</text>
</g>
<!-- 6 -->
<g id="node7" class="node">
<title>6</title>
<polygon fill="none" stroke="black" points="361.5,-850 241.5,-850 241.5,-812 361.5,-812 361.5,-850"/>
<text text-anchor="middle" x="301.5" y="-834.8" font-family="Times,serif" font-size="14.00">latitude &lt;= 55.958</text>
<text text-anchor="middle" x="301.5" y="-819.8" font-family="Times,serif" font-size="14.00">class = Canada</text>
</g>
<!-- 0&#45;&gt;6 -->
<g id="edge6" class="edge">
<title>0&#45;&gt;6</title>
<path fill="none" stroke="black" d="M249.91,-885.83C258.02,-877.37 267.82,-867.15 276.68,-857.9"/>
<polygon fill="black" stroke="black" points="279.46,-860.05 283.85,-850.41 274.41,-855.21 279.46,-860.05"/>
<text text-anchor="middle" x="284.39" y="-871.71" font-family="Times,serif" font-size="14.00">False</text>
</g>
<!-- 2 -->
<g id="node3" class="node">
<title>2</title>
<polygon fill="none" stroke="black" points="87,-775 0,-775 0,-739 87,-739 87,-775"/>
<text text-anchor="middle" x="43.5" y="-753.3" font-family="Times,serif" font-size="14.00">class = USA</text>
</g>
<!-- 1&#45;&gt;2 -->
<g id="edge2" class="edge">
<title>1&#45;&gt;2</title>
<path fill="none" stroke="black" d="M133.22,-811.83C117.4,-802.34 97.9,-790.64 81.12,-780.57"/>
<polygon fill="black" stroke="black" points="82.49,-777.32 72.12,-775.17 78.89,-783.32 82.49,-777.32"/>
</g>
<!-- 3 -->
<g id="node4" class="node">
<title>3</title>
<polygon fill="none" stroke="black" points="225.5,-776 105.5,-776 105.5,-738 225.5,-738 225.5,-776"/>
<text text-anchor="middle" x="165.5" y="-760.8" font-family="Times,serif" font-size="14.00">latitude &lt;= 42.324</text>
<text text-anchor="middle" x="165.5" y="-745.8" font-family="Times,serif" font-size="14.00">class = USA</text>
</g>
<!-- 1&#45;&gt;3 -->
<g id="edge3" class="edge">
<title>1&#45;&gt;3</title>
<path fill="none" stroke="black" d="M164,-811.83C164.22,-804.13 164.47,-794.97 164.71,-786.42"/>
<polygon fill="black" stroke="black" points="168.21,-786.51 164.99,-776.41 161.21,-786.31 168.21,-786.51"/>
</g>
<!-- 4 -->
<g id="node5" class="node">
<title>4</title>
<polygon fill="none" stroke="black" points="105,-701 4,-701 4,-665 105,-665 105,-701"/>
<text text-anchor="middle" x="54.5" y="-679.3" font-family="Times,serif" font-size="14.00">class = Canada</text>
</g>
<!-- 3&#45;&gt;4 -->
<g id="edge4" class="edge">
<title>3&#45;&gt;4</title>
<path fill="none" stroke="black" d="M137.49,-737.83C122.99,-728.43 105.15,-716.86 89.73,-706.85"/>
<polygon fill="black" stroke="black" points="91.27,-703.68 80.97,-701.17 87.46,-709.55 91.27,-703.68"/>
</g>
<!-- 5 -->
<g id="node6" class="node">
<title>5</title>
<polygon fill="none" stroke="black" points="210,-701 123,-701 123,-665 210,-665 210,-701"/>
<text text-anchor="middle" x="166.5" y="-679.3" font-family="Times,serif" font-size="14.00">class = USA</text>
</g>
<!-- 3&#45;&gt;5 -->
<g id="edge5" class="edge">
<title>3&#45;&gt;5</title>
<path fill="none" stroke="black" d="M165.75,-737.83C165.86,-729.89 165.99,-720.41 166.12,-711.63"/>
<polygon fill="black" stroke="black" points="169.62,-711.47 166.26,-701.42 162.62,-711.37 169.62,-711.47"/>
</g>
<!-- 7 -->
<g id="node8" class="node">
<title>7</title>
<polygon fill="none" stroke="black" points="353.5,-776 247.5,-776 247.5,-738 353.5,-738 353.5,-776"/>
<text text-anchor="middle" x="300.5" y="-760.8" font-family="Times,serif" font-size="14.00">latitude &lt;= 49.0</text>
<text text-anchor="middle" x="300.5" y="-745.8" font-family="Times,serif" font-size="14.00">class = Canada</text>
</g>
<!-- 6&#45;&gt;7 -->
<g id="edge7" class="edge">
<title>6&#45;&gt;7</title>
<path fill="none" stroke="black" d="M301.25,-811.83C301.14,-804.13 301.01,-794.97 300.89,-786.42"/>
<polygon fill="black" stroke="black" points="304.39,-786.36 300.76,-776.41 297.4,-786.46 304.39,-786.36"/>
</g>
<!-- 56 -->
<g id="node57" class="node">
<title>56</title>
<polygon fill="none" stroke="black" points="459,-775 372,-775 372,-739 459,-739 459,-775"/>
<text text-anchor="middle" x="415.5" y="-753.3" font-family="Times,serif" font-size="14.00">class = USA</text>
</g>
<!-- 6&#45;&gt;56 -->
<g id="edge56" class="edge">
<title>6&#45;&gt;56</title>
<path fill="none" stroke="black" d="M330.27,-811.83C345.29,-802.34 363.82,-790.64 379.76,-780.57"/>
<polygon fill="black" stroke="black" points="381.73,-783.47 388.31,-775.17 377.99,-777.55 381.73,-783.47"/>
</g>
<!-- 8 -->
<g id="node9" class="node">
<title>8</title>
<polygon fill="none" stroke="black" points="367,-702 232,-702 232,-664 367,-664 367,-702"/>
<text text-anchor="middle" x="299.5" y="-686.8" font-family="Times,serif" font-size="14.00">longitude &lt;= &#45;94.582</text>
<text text-anchor="middle" x="299.5" y="-671.8" font-family="Times,serif" font-size="14.00">class = Canada</text>
</g>
<!-- 7&#45;&gt;8 -->
<g id="edge8" class="edge">
<title>7&#45;&gt;8</title>
<path fill="none" stroke="black" d="M300.25,-737.83C300.14,-730.13 300.01,-720.97 299.89,-712.42"/>
<polygon fill="black" stroke="black" points="303.39,-712.36 299.76,-702.41 296.4,-712.46 303.39,-712.36"/>
</g>
<!-- 55 -->
<g id="node56" class="node">
<title>55</title>
<polygon fill="none" stroke="black" points="486,-701 385,-701 385,-665 486,-665 486,-701"/>
<text text-anchor="middle" x="435.5" y="-679.3" font-family="Times,serif" font-size="14.00">class = Canada</text>
</g>
<!-- 7&#45;&gt;55 -->
<g id="edge55" class="edge">
<title>7&#45;&gt;55</title>
<path fill="none" stroke="black" d="M334.57,-737.83C352.69,-728.17 375.12,-716.2 394.22,-706.01"/>
<polygon fill="black" stroke="black" points="396.13,-708.97 403.3,-701.17 392.83,-702.79 396.13,-708.97"/>
</g>
<!-- 9 -->
<g id="node10" class="node">
<title>9</title>
<polygon fill="none" stroke="black" points="292.5,-628 150.5,-628 150.5,-590 292.5,-590 292.5,-628"/>
<text text-anchor="middle" x="221.5" y="-612.8" font-family="Times,serif" font-size="14.00">longitude &lt;= &#45;123.222</text>
<text text-anchor="middle" x="221.5" y="-597.8" font-family="Times,serif" font-size="14.00">class = USA</text>
</g>
<!-- 8&#45;&gt;9 -->
<g id="edge9" class="edge">
<title>8&#45;&gt;9</title>
<path fill="none" stroke="black" d="M279.82,-663.83C270.39,-655.13 258.96,-644.58 248.72,-635.13"/>
<polygon fill="black" stroke="black" points="250.9,-632.37 241.18,-628.16 246.15,-637.52 250.9,-632.37"/>
</g>
<!-- 12 -->
<g id="node13" class="node">
<title>12</title>
<polygon fill="none" stroke="black" points="446,-628 311,-628 311,-590 446,-590 446,-628"/>
<text text-anchor="middle" x="378.5" y="-612.8" font-family="Times,serif" font-size="14.00">longitude &lt;= &#45;69.246</text>
<text text-anchor="middle" x="378.5" y="-597.8" font-family="Times,serif" font-size="14.00">class = Canada</text>
</g>
<!-- 8&#45;&gt;12 -->
<g id="edge12" class="edge">
<title>8&#45;&gt;12</title>
<path fill="none" stroke="black" d="M319.44,-663.83C328.98,-655.13 340.56,-644.58 350.93,-635.13"/>
<polygon fill="black" stroke="black" points="353.54,-637.49 358.57,-628.16 348.82,-632.31 353.54,-637.49"/>
</g>
<!-- 10 -->
<g id="node11" class="node">
<title>10</title>
<polygon fill="none" stroke="black" points="169,-553 68,-553 68,-517 169,-517 169,-553"/>
<text text-anchor="middle" x="118.5" y="-531.3" font-family="Times,serif" font-size="14.00">class = Canada</text>
</g>
<!-- 9&#45;&gt;10 -->
<g id="edge10" class="edge">
<title>9&#45;&gt;10</title>
<path fill="none" stroke="black" d="M195.51,-589.83C182.18,-580.52 165.81,-569.07 151.59,-559.13"/>
<polygon fill="black" stroke="black" points="153.27,-556.03 143.06,-553.17 149.26,-561.77 153.27,-556.03"/>
</g>
<!-- 11 -->
<g id="node12" class="node">
<title>11</title>
<polygon fill="none" stroke="black" points="274,-553 187,-553 187,-517 274,-517 274,-553"/>
<text text-anchor="middle" x="230.5" y="-531.3" font-family="Times,serif" font-size="14.00">class = USA</text>
</g>
<!-- 9&#45;&gt;11 -->
<g id="edge11" class="edge">
<title>9&#45;&gt;11</title>
<path fill="none" stroke="black" d="M223.77,-589.83C224.76,-581.89 225.95,-572.41 227.05,-563.63"/>
<polygon fill="black" stroke="black" points="230.56,-563.77 228.32,-553.42 223.61,-562.91 230.56,-563.77"/>
</g>
<!-- 13 -->
<g id="node14" class="node">
<title>13</title>
<polygon fill="none" stroke="black" points="429.5,-554 309.5,-554 309.5,-516 429.5,-516 429.5,-554"/>
<text text-anchor="middle" x="369.5" y="-538.8" font-family="Times,serif" font-size="14.00">latitude &lt;= 43.093</text>
<text text-anchor="middle" x="369.5" y="-523.8" font-family="Times,serif" font-size="14.00">class = Canada</text>
</g>
<!-- 12&#45;&gt;13 -->
<g id="edge13" class="edge">
<title>12&#45;&gt;13</title>
<path fill="none" stroke="black" d="M376.23,-589.83C375.27,-582.13 374.12,-572.97 373.05,-564.42"/>
<polygon fill="black" stroke="black" points="376.52,-563.9 371.8,-554.41 369.57,-564.77 376.52,-563.9"/>
</g>
<!-- 36 -->
<g id="node37" class="node">
<title>36</title>
<polygon fill="none" stroke="black" points="677,-554 542,-554 542,-516 677,-516 677,-554"/>
<text text-anchor="middle" x="609.5" y="-538.8" font-family="Times,serif" font-size="14.00">longitude &lt;= &#45;66.952</text>
<text text-anchor="middle" x="609.5" y="-523.8" font-family="Times,serif" font-size="14.00">class = Canada</text>
</g>
<!-- 12&#45;&gt;36 -->
<g id="edge36" class="edge">
<title>12&#45;&gt;36</title>
<path fill="none" stroke="black" d="M436.49,-589.92C468.48,-579.95 508.38,-567.52 541.79,-557.1"/>
<polygon fill="black" stroke="black" points="542.98,-560.4 551.48,-554.08 540.89,-553.72 542.98,-560.4"/>
</g>
<!-- 14 -->
<g id="node15" class="node">
<title>14</title>
<polygon fill="none" stroke="black" points="290,-480 155,-480 155,-442 290,-442 290,-480"/>
<text text-anchor="middle" x="222.5" y="-464.8" font-family="Times,serif" font-size="14.00">longitude &lt;= &#45;81.845</text>
<text text-anchor="middle" x="222.5" y="-449.8" font-family="Times,serif" font-size="14.00">class = Canada</text>
</g>
<!-- 13&#45;&gt;14 -->
<g id="edge14" class="edge">
<title>13&#45;&gt;14</title>
<path fill="none" stroke="black" d="M332.41,-515.83C313.01,-506.33 289.08,-494.61 268.51,-484.54"/>
<polygon fill="black" stroke="black" points="269.85,-481.29 259.33,-480.04 266.77,-487.58 269.85,-481.29"/>
</g>
<!-- 19 -->
<g id="node20" class="node">
<title>19</title>
<polygon fill="none" stroke="black" points="429.5,-480 309.5,-480 309.5,-442 429.5,-442 429.5,-480"/>
<text text-anchor="middle" x="369.5" y="-464.8" font-family="Times,serif" font-size="14.00">latitude &lt;= 44.992</text>
<text text-anchor="middle" x="369.5" y="-449.8" font-family="Times,serif" font-size="14.00">class = Canada</text>
</g>
<!-- 13&#45;&gt;19 -->
<g id="edge19" class="edge">
<title>13&#45;&gt;19</title>
<path fill="none" stroke="black" d="M369.5,-515.83C369.5,-508.13 369.5,-498.97 369.5,-490.42"/>
<polygon fill="black" stroke="black" points="373,-490.41 369.5,-480.41 366,-490.41 373,-490.41"/>
</g>
<!-- 15 -->
<g id="node16" class="node">
<title>15</title>
<polygon fill="none" stroke="black" points="144,-405 57,-405 57,-369 144,-369 144,-405"/>
<text text-anchor="middle" x="100.5" y="-383.3" font-family="Times,serif" font-size="14.00">class = USA</text>
</g>
<!-- 14&#45;&gt;15 -->
<g id="edge15" class="edge">
<title>14&#45;&gt;15</title>
<path fill="none" stroke="black" d="M191.71,-441.83C175.48,-432.25 155.44,-420.42 138.27,-410.29"/>
<polygon fill="black" stroke="black" points="139.99,-407.24 129.6,-405.17 136.43,-413.27 139.99,-407.24"/>
</g>
<!-- 16 -->
<g id="node17" class="node">
<title>16</title>
<polygon fill="none" stroke="black" points="282.5,-406 162.5,-406 162.5,-368 282.5,-368 282.5,-406"/>
<text text-anchor="middle" x="222.5" y="-390.8" font-family="Times,serif" font-size="14.00">latitude &lt;= 43.039</text>
<text text-anchor="middle" x="222.5" y="-375.8" font-family="Times,serif" font-size="14.00">class = Canada</text>
</g>
<!-- 14&#45;&gt;16 -->
<g id="edge16" class="edge">
<title>14&#45;&gt;16</title>
<path fill="none" stroke="black" d="M222.5,-441.83C222.5,-434.13 222.5,-424.97 222.5,-416.42"/>
<polygon fill="black" stroke="black" points="226,-416.41 222.5,-406.41 219,-416.41 226,-416.41"/>
</g>
<!-- 17 -->
<g id="node18" class="node">
<title>17</title>
<polygon fill="none" stroke="black" points="161,-331 60,-331 60,-295 161,-295 161,-331"/>
<text text-anchor="middle" x="110.5" y="-309.3" font-family="Times,serif" font-size="14.00">class = Canada</text>
</g>
<!-- 16&#45;&gt;17 -->
<g id="edge17" class="edge">
<title>16&#45;&gt;17</title>
<path fill="none" stroke="black" d="M194.24,-367.83C179.61,-358.43 161.61,-346.86 146.05,-336.85"/>
<polygon fill="black" stroke="black" points="147.52,-333.63 137.21,-331.17 143.73,-339.52 147.52,-333.63"/>
</g>
<!-- 18 -->
<g id="node19" class="node">
<title>18</title>
<polygon fill="none" stroke="black" points="266,-331 179,-331 179,-295 266,-295 266,-331"/>
<text text-anchor="middle" x="222.5" y="-309.3" font-family="Times,serif" font-size="14.00">class = USA</text>
</g>
<!-- 16&#45;&gt;18 -->
<g id="edge18" class="edge">
<title>16&#45;&gt;18</title>
<path fill="none" stroke="black" d="M222.5,-367.83C222.5,-359.89 222.5,-350.41 222.5,-341.63"/>
<polygon fill="black" stroke="black" points="226,-341.42 222.5,-331.42 219,-341.42 226,-341.42"/>
</g>
<!-- 20 -->
<g id="node21" class="node">
<title>20</title>
<polygon fill="none" stroke="black" points="425.5,-406 305.5,-406 305.5,-368 425.5,-368 425.5,-406"/>
<text text-anchor="middle" x="365.5" y="-390.8" font-family="Times,serif" font-size="14.00">latitude &lt;= 44.542</text>
<text text-anchor="middle" x="365.5" y="-375.8" font-family="Times,serif" font-size="14.00">class = Canada</text>
</g>
<!-- 19&#45;&gt;20 -->
<g id="edge20" class="edge">
<title>19&#45;&gt;20</title>
<path fill="none" stroke="black" d="M368.49,-441.83C368.06,-434.13 367.55,-424.97 367.08,-416.42"/>
<polygon fill="black" stroke="black" points="370.57,-416.2 366.52,-406.41 363.58,-416.59 370.57,-416.2"/>
</g>
<!-- 35 -->
<g id="node36" class="node">
<title>35</title>
<polygon fill="none" stroke="black" points="545,-405 444,-405 444,-369 545,-369 545,-405"/>
<text text-anchor="middle" x="494.5" y="-383.3" font-family="Times,serif" font-size="14.00">class = Canada</text>
</g>
<!-- 19&#45;&gt;35 -->
<g id="edge35" class="edge">
<title>19&#45;&gt;35</title>
<path fill="none" stroke="black" d="M401.04,-441.83C417.67,-432.25 438.21,-420.42 455.8,-410.29"/>
<polygon fill="black" stroke="black" points="457.77,-413.2 464.69,-405.17 454.28,-407.13 457.77,-413.2"/>
</g>
<!-- 21 -->
<g id="node22" class="node">
<title>21</title>
<polygon fill="none" stroke="black" points="419,-332 284,-332 284,-294 419,-294 419,-332"/>
<text text-anchor="middle" x="351.5" y="-316.8" font-family="Times,serif" font-size="14.00">longitude &lt;= &#45;79.076</text>
<text text-anchor="middle" x="351.5" y="-301.8" font-family="Times,serif" font-size="14.00">class = Canada</text>
</g>
<!-- 20&#45;&gt;21 -->
<g id="edge21" class="edge">
<title>20&#45;&gt;21</title>
<path fill="none" stroke="black" d="M361.97,-367.83C360.47,-360.13 358.69,-350.97 357.03,-342.42"/>
<polygon fill="black" stroke="black" points="360.42,-341.56 355.08,-332.41 353.55,-342.9 360.42,-341.56"/>
</g>
<!-- 30 -->
<g id="node31" class="node">
<title>30</title>
<polygon fill="none" stroke="black" points="572,-332 437,-332 437,-294 572,-294 572,-332"/>
<text text-anchor="middle" x="504.5" y="-316.8" font-family="Times,serif" font-size="14.00">longitude &lt;= &#45;84.392</text>
<text text-anchor="middle" x="504.5" y="-301.8" font-family="Times,serif" font-size="14.00">class = USA</text>
</g>
<!-- 20&#45;&gt;30 -->
<g id="edge30" class="edge">
<title>20&#45;&gt;30</title>
<path fill="none" stroke="black" d="M400.58,-367.83C418.77,-358.41 441.17,-346.81 460.51,-336.79"/>
<polygon fill="black" stroke="black" points="462.17,-339.87 469.44,-332.16 458.95,-333.65 462.17,-339.87"/>
</g>
<!-- 22 -->
<g id="node23" class="node">
<title>22</title>
<polygon fill="none" stroke="black" points="273,-257 172,-257 172,-221 273,-221 273,-257"/>
<text text-anchor="middle" x="222.5" y="-235.3" font-family="Times,serif" font-size="14.00">class = Canada</text>
</g>
<!-- 21&#45;&gt;22 -->
<g id="edge22" class="edge">
<title>21&#45;&gt;22</title>
<path fill="none" stroke="black" d="M318.95,-293.83C301.79,-284.25 280.59,-272.42 262.44,-262.29"/>
<polygon fill="black" stroke="black" points="263.7,-258.99 253.27,-257.17 260.29,-265.1 263.7,-258.99"/>
</g>
<!-- 23 -->
<g id="node24" class="node">
<title>23</title>
<polygon fill="none" stroke="black" points="411.5,-258 291.5,-258 291.5,-220 411.5,-220 411.5,-258"/>
<text text-anchor="middle" x="351.5" y="-242.8" font-family="Times,serif" font-size="14.00">latitude &lt;= 44.168</text>
<text text-anchor="middle" x="351.5" y="-227.8" font-family="Times,serif" font-size="14.00">class = Canada</text>
</g>
<!-- 21&#45;&gt;23 -->
<g id="edge23" class="edge">
<title>21&#45;&gt;23</title>
<path fill="none" stroke="black" d="M351.5,-293.83C351.5,-286.13 351.5,-276.97 351.5,-268.42"/>
<polygon fill="black" stroke="black" points="355,-268.41 351.5,-258.41 348,-268.41 355,-268.41"/>
</g>
<!-- 24 -->
<g id="node25" class="node">
<title>24</title>
<polygon fill="none" stroke="black" points="292.5,-184 164.5,-184 164.5,-146 292.5,-146 292.5,-184"/>
<text text-anchor="middle" x="228.5" y="-168.8" font-family="Times,serif" font-size="14.00">longitude &lt;= &#45;79.03</text>
<text text-anchor="middle" x="228.5" y="-153.8" font-family="Times,serif" font-size="14.00">class = USA</text>
</g>
<!-- 23&#45;&gt;24 -->
<g id="edge24" class="edge">
<title>23&#45;&gt;24</title>
<path fill="none" stroke="black" d="M320.46,-219.83C304.73,-210.62 285.44,-199.33 268.6,-189.47"/>
<polygon fill="black" stroke="black" points="269.93,-186.19 259.53,-184.16 266.39,-192.24 269.93,-186.19"/>
</g>
<!-- 29 -->
<g id="node30" class="node">
<title>29</title>
<polygon fill="none" stroke="black" points="412,-183 311,-183 311,-147 412,-147 412,-183"/>
<text text-anchor="middle" x="361.5" y="-161.3" font-family="Times,serif" font-size="14.00">class = Canada</text>
</g>
<!-- 23&#45;&gt;29 -->
<g id="edge29" class="edge">
<title>23&#45;&gt;29</title>
<path fill="none" stroke="black" d="M354.02,-219.83C355.14,-211.81 356.47,-202.2 357.7,-193.34"/>
<polygon fill="black" stroke="black" points="361.17,-193.8 359.08,-183.42 354.24,-192.84 361.17,-193.8"/>
</g>
<!-- 25 -->
<g id="node26" class="node">
<title>25</title>
<polygon fill="none" stroke="black" points="211,-109 124,-109 124,-73 211,-73 211,-109"/>
<text text-anchor="middle" x="167.5" y="-87.3" font-family="Times,serif" font-size="14.00">class = USA</text>
</g>
<!-- 24&#45;&gt;25 -->
<g id="edge25" class="edge">
<title>24&#45;&gt;25</title>
<path fill="none" stroke="black" d="M213.11,-145.83C205.79,-137.2 196.92,-126.73 188.96,-117.33"/>
<polygon fill="black" stroke="black" points="191.39,-114.79 182.26,-109.42 186.05,-119.31 191.39,-114.79"/>
</g>
<!-- 26 -->
<g id="node27" class="node">
<title>26</title>
<polygon fill="none" stroke="black" points="349.5,-110 229.5,-110 229.5,-72 349.5,-72 349.5,-110"/>
<text text-anchor="middle" x="289.5" y="-94.8" font-family="Times,serif" font-size="14.00">latitude &lt;= 43.988</text>
<text text-anchor="middle" x="289.5" y="-79.8" font-family="Times,serif" font-size="14.00">class = Canada</text>
</g>
<!-- 24&#45;&gt;26 -->
<g id="edge26" class="edge">
<title>24&#45;&gt;26</title>
<path fill="none" stroke="black" d="M243.89,-145.83C250.99,-137.45 259.55,-127.35 267.32,-118.17"/>
<polygon fill="black" stroke="black" points="270.11,-120.31 273.9,-110.41 264.77,-115.78 270.11,-120.31"/>
</g>
<!-- 27 -->
<g id="node28" class="node">
<title>27</title>
<polygon fill="none" stroke="black" points="284,-36 183,-36 183,0 284,0 284,-36"/>
<text text-anchor="middle" x="233.5" y="-14.3" font-family="Times,serif" font-size="14.00">class = Canada</text>
</g>
<!-- 26&#45;&gt;27 -->
<g id="edge27" class="edge">
<title>26&#45;&gt;27</title>
<path fill="none" stroke="black" d="M275.08,-71.72C268.43,-63.29 260.43,-53.15 253.23,-44.02"/>
<polygon fill="black" stroke="black" points="255.85,-41.69 246.91,-36 250.36,-46.02 255.85,-41.69"/>
</g>
<!-- 28 -->
<g id="node29" class="node">
<title>28</title>
<polygon fill="none" stroke="black" points="389,-36 302,-36 302,0 389,0 389,-36"/>
<text text-anchor="middle" x="345.5" y="-14.3" font-family="Times,serif" font-size="14.00">class = USA</text>
</g>
<!-- 26&#45;&gt;28 -->
<g id="edge28" class="edge">
<title>26&#45;&gt;28</title>
<path fill="none" stroke="black" d="M303.92,-71.72C310.57,-63.29 318.57,-53.15 325.77,-44.02"/>
<polygon fill="black" stroke="black" points="328.64,-46.02 332.09,-36 323.15,-41.69 328.64,-46.02"/>
</g>
<!-- 31 -->
<g id="node32" class="node">
<title>31</title>
<polygon fill="none" stroke="black" points="517,-257 430,-257 430,-221 517,-221 517,-257"/>
<text text-anchor="middle" x="473.5" y="-235.3" font-family="Times,serif" font-size="14.00">class = USA</text>
</g>
<!-- 30&#45;&gt;31 -->
<g id="edge31" class="edge">
<title>30&#45;&gt;31</title>
<path fill="none" stroke="black" d="M496.68,-293.83C493.15,-285.63 488.91,-275.78 485.02,-266.76"/>
<polygon fill="black" stroke="black" points="488.17,-265.22 481,-257.42 481.74,-267.99 488.17,-265.22"/>
</g>
<!-- 32 -->
<g id="node33" class="node">
<title>32</title>
<polygon fill="none" stroke="black" points="655.5,-258 535.5,-258 535.5,-220 655.5,-220 655.5,-258"/>
<text text-anchor="middle" x="595.5" y="-242.8" font-family="Times,serif" font-size="14.00">latitude &lt;= 44.706</text>
<text text-anchor="middle" x="595.5" y="-227.8" font-family="Times,serif" font-size="14.00">class = Canada</text>
</g>
<!-- 30&#45;&gt;32 -->
<g id="edge32" class="edge">
<title>30&#45;&gt;32</title>
<path fill="none" stroke="black" d="M527.46,-293.83C538.67,-284.96 552.32,-274.16 564.44,-264.57"/>
<polygon fill="black" stroke="black" points="566.87,-267.11 572.54,-258.16 562.53,-261.62 566.87,-267.11"/>
</g>
<!-- 33 -->
<g id="node34" class="node">
<title>33</title>
<polygon fill="none" stroke="black" points="531,-183 444,-183 444,-147 531,-147 531,-183"/>
<text text-anchor="middle" x="487.5" y="-161.3" font-family="Times,serif" font-size="14.00">class = USA</text>
</g>
<!-- 32&#45;&gt;33 -->
<g id="edge33" class="edge">
<title>32&#45;&gt;33</title>
<path fill="none" stroke="black" d="M568.25,-219.83C554.14,-210.43 536.78,-198.86 521.78,-188.85"/>
<polygon fill="black" stroke="black" points="523.52,-185.81 513.26,-183.17 519.64,-191.63 523.52,-185.81"/>
</g>
<!-- 34 -->
<g id="node35" class="node">
<title>34</title>
<polygon fill="none" stroke="black" points="650,-183 549,-183 549,-147 650,-147 650,-183"/>
<text text-anchor="middle" x="599.5" y="-161.3" font-family="Times,serif" font-size="14.00">class = Canada</text>
</g>
<!-- 32&#45;&gt;34 -->
<g id="edge34" class="edge">
<title>32&#45;&gt;34</title>
<path fill="none" stroke="black" d="M596.51,-219.83C596.95,-211.89 597.48,-202.41 597.97,-193.63"/>
<polygon fill="black" stroke="black" points="601.47,-193.6 598.53,-183.42 594.48,-193.21 601.47,-193.6"/>
</g>
<!-- 37 -->
<g id="node38" class="node">
<title>37</title>
<polygon fill="none" stroke="black" points="669.5,-480 549.5,-480 549.5,-442 669.5,-442 669.5,-480"/>
<text text-anchor="middle" x="609.5" y="-464.8" font-family="Times,serif" font-size="14.00">latitude &lt;= 45.195</text>
<text text-anchor="middle" x="609.5" y="-449.8" font-family="Times,serif" font-size="14.00">class = USA</text>
</g>
<!-- 36&#45;&gt;37 -->
<g id="edge37" class="edge">
<title>36&#45;&gt;37</title>
<path fill="none" stroke="black" d="M609.5,-515.83C609.5,-508.13 609.5,-498.97 609.5,-490.42"/>
<polygon fill="black" stroke="black" points="613,-490.41 609.5,-480.41 606,-490.41 613,-490.41"/>
</g>
<!-- 54 -->
<g id="node55" class="node">
<title>54</title>
<polygon fill="none" stroke="black" points="789,-479 688,-479 688,-443 789,-443 789,-479"/>
<text text-anchor="middle" x="738.5" y="-457.3" font-family="Times,serif" font-size="14.00">class = Canada</text>
</g>
<!-- 36&#45;&gt;54 -->
<g id="edge54" class="edge">
<title>36&#45;&gt;54</title>
<path fill="none" stroke="black" d="M642.05,-515.83C659.21,-506.25 680.41,-494.42 698.56,-484.29"/>
<polygon fill="black" stroke="black" points="700.71,-487.1 707.73,-479.17 697.3,-480.99 700.71,-487.1"/>
</g>
<!-- 38 -->
<g id="node39" class="node">
<title>38</title>
<polygon fill="none" stroke="black" points="653,-405 566,-405 566,-369 653,-369 653,-405"/>
<text text-anchor="middle" x="609.5" y="-383.3" font-family="Times,serif" font-size="14.00">class = USA</text>
</g>
<!-- 37&#45;&gt;38 -->
<g id="edge38" class="edge">
<title>37&#45;&gt;38</title>
<path fill="none" stroke="black" d="M609.5,-441.83C609.5,-433.89 609.5,-424.41 609.5,-415.63"/>
<polygon fill="black" stroke="black" points="613,-415.42 609.5,-405.42 606,-415.42 613,-415.42"/>
</g>
<!-- 39 -->
<g id="node40" class="node">
<title>39</title>
<polygon fill="none" stroke="black" points="861.5,-406 733.5,-406 733.5,-368 861.5,-368 861.5,-406"/>
<text text-anchor="middle" x="797.5" y="-390.8" font-family="Times,serif" font-size="14.00">longitude &lt;= &#45;67.93</text>
<text text-anchor="middle" x="797.5" y="-375.8" font-family="Times,serif" font-size="14.00">class = Canada</text>
</g>
<!-- 37&#45;&gt;39 -->
<g id="edge39" class="edge">
<title>37&#45;&gt;39</title>
<path fill="none" stroke="black" d="M656.94,-441.83C682.42,-432.07 714,-419.98 740.78,-409.72"/>
<polygon fill="black" stroke="black" points="742.31,-412.88 750.4,-406.04 739.81,-406.35 742.31,-412.88"/>
</g>
<!-- 40 -->
<g id="node41" class="node">
<title>40</title>
<polygon fill="none" stroke="black" points="865,-332 730,-332 730,-294 865,-294 865,-332"/>
<text text-anchor="middle" x="797.5" y="-316.8" font-family="Times,serif" font-size="14.00">longitude &lt;= &#45;68.325</text>
<text text-anchor="middle" x="797.5" y="-301.8" font-family="Times,serif" font-size="14.00">class = USA</text>
</g>
<!-- 39&#45;&gt;40 -->
<g id="edge40" class="edge">
<title>39&#45;&gt;40</title>
<path fill="none" stroke="black" d="M797.5,-367.83C797.5,-360.13 797.5,-350.97 797.5,-342.42"/>
<polygon fill="black" stroke="black" points="801,-342.41 797.5,-332.41 794,-342.41 801,-342.41"/>
</g>
<!-- 49 -->
<g id="node50" class="node">
<title>49</title>
<polygon fill="none" stroke="black" points="1059.5,-332 939.5,-332 939.5,-294 1059.5,-294 1059.5,-332"/>
<text text-anchor="middle" x="999.5" y="-316.8" font-family="Times,serif" font-size="14.00">latitude &lt;= 45.565</text>
<text text-anchor="middle" x="999.5" y="-301.8" font-family="Times,serif" font-size="14.00">class = Canada</text>
</g>
<!-- 39&#45;&gt;49 -->
<g id="edge49" class="edge">
<title>39&#45;&gt;49</title>
<path fill="none" stroke="black" d="M848.21,-367.92C875.83,-358.08 910.18,-345.84 939.16,-335.51"/>
<polygon fill="black" stroke="black" points="940.52,-338.74 948.77,-332.08 938.17,-332.14 940.52,-338.74"/>
</g>
<!-- 41 -->
<g id="node42" class="node">
<title>41</title>
<polygon fill="none" stroke="black" points="809,-258 674,-258 674,-220 809,-220 809,-258"/>
<text text-anchor="middle" x="741.5" y="-242.8" font-family="Times,serif" font-size="14.00">longitude &lt;= &#45;68.915</text>
<text text-anchor="middle" x="741.5" y="-227.8" font-family="Times,serif" font-size="14.00">class = Canada</text>
</g>
<!-- 40&#45;&gt;41 -->
<g id="edge41" class="edge">
<title>40&#45;&gt;41</title>
<path fill="none" stroke="black" d="M783.37,-293.83C776.92,-285.54 769.16,-275.56 762.07,-266.45"/>
<polygon fill="black" stroke="black" points="764.72,-264.16 755.82,-258.41 759.2,-268.46 764.72,-264.16"/>
</g>
<!-- 48 -->
<g id="node49" class="node">
<title>48</title>
<polygon fill="none" stroke="black" points="914,-257 827,-257 827,-221 914,-221 914,-257"/>
<text text-anchor="middle" x="870.5" y="-235.3" font-family="Times,serif" font-size="14.00">class = USA</text>
</g>
<!-- 40&#45;&gt;48 -->
<g id="edge48" class="edge">
<title>40&#45;&gt;48</title>
<path fill="none" stroke="black" d="M815.92,-293.83C825.01,-284.87 836.1,-273.93 845.9,-264.26"/>
<polygon fill="black" stroke="black" points="848.43,-266.69 853.09,-257.17 843.51,-261.7 848.43,-266.69"/>
</g>
<!-- 42 -->
<g id="node43" class="node">
<title>42</title>
<polygon fill="none" stroke="black" points="772,-183 685,-183 685,-147 772,-147 772,-183"/>
<text text-anchor="middle" x="728.5" y="-161.3" font-family="Times,serif" font-size="14.00">class = USA</text>
</g>
<!-- 41&#45;&gt;42 -->
<g id="edge42" class="edge">
<title>41&#45;&gt;42</title>
<path fill="none" stroke="black" d="M738.22,-219.83C736.77,-211.81 735.04,-202.2 733.44,-193.34"/>
<polygon fill="black" stroke="black" points="736.87,-192.64 731.64,-183.42 729.98,-193.88 736.87,-192.64"/>
</g>
<!-- 43 -->
<g id="node44" class="node">
<title>43</title>
<polygon fill="none" stroke="black" points="925,-184 790,-184 790,-146 925,-146 925,-184"/>
<text text-anchor="middle" x="857.5" y="-168.8" font-family="Times,serif" font-size="14.00">longitude &lt;= &#45;68.597</text>
<text text-anchor="middle" x="857.5" y="-153.8" font-family="Times,serif" font-size="14.00">class = Canada</text>
</g>
<!-- 41&#45;&gt;43 -->
<g id="edge43" class="edge">
<title>41&#45;&gt;43</title>
<path fill="none" stroke="black" d="M770.77,-219.83C785.61,-210.62 803.8,-199.33 819.69,-189.47"/>
<polygon fill="black" stroke="black" points="821.59,-192.41 828.24,-184.16 817.9,-186.46 821.59,-192.41"/>
</g>
<!-- 44 -->
<g id="node45" class="node">
<title>44</title>
<polygon fill="none" stroke="black" points="840,-109 739,-109 739,-73 840,-73 840,-109"/>
<text text-anchor="middle" x="789.5" y="-87.3" font-family="Times,serif" font-size="14.00">class = Canada</text>
</g>
<!-- 43&#45;&gt;44 -->
<g id="edge44" class="edge">
<title>43&#45;&gt;44</title>
<path fill="none" stroke="black" d="M840.34,-145.83C832.02,-137.02 821.9,-126.31 812.89,-116.76"/>
<polygon fill="black" stroke="black" points="815.36,-114.28 805.95,-109.42 810.27,-119.09 815.36,-114.28"/>
</g>
<!-- 45 -->
<g id="node46" class="node">
<title>45</title>
<polygon fill="none" stroke="black" points="993,-110 858,-110 858,-72 993,-72 993,-110"/>
<text text-anchor="middle" x="925.5" y="-94.8" font-family="Times,serif" font-size="14.00">longitude &lt;= &#45;68.459</text>
<text text-anchor="middle" x="925.5" y="-79.8" font-family="Times,serif" font-size="14.00">class = Canada</text>
</g>
<!-- 43&#45;&gt;45 -->
<g id="edge45" class="edge">
<title>43&#45;&gt;45</title>
<path fill="none" stroke="black" d="M874.66,-145.83C882.65,-137.37 892.3,-127.15 901.04,-117.9"/>
<polygon fill="black" stroke="black" points="903.79,-120.09 908.11,-110.41 898.7,-115.28 903.79,-120.09"/>
</g>
<!-- 46 -->
<g id="node47" class="node">
<title>46</title>
<polygon fill="none" stroke="black" points="913,-36 826,-36 826,0 913,0 913,-36"/>
<text text-anchor="middle" x="869.5" y="-14.3" font-family="Times,serif" font-size="14.00">class = USA</text>
</g>
<!-- 45&#45;&gt;46 -->
<g id="edge46" class="edge">
<title>45&#45;&gt;46</title>
<path fill="none" stroke="black" d="M911.08,-71.72C904.43,-63.29 896.43,-53.15 889.23,-44.02"/>
<polygon fill="black" stroke="black" points="891.85,-41.69 882.91,-36 886.36,-46.02 891.85,-41.69"/>
</g>
<!-- 47 -->
<g id="node48" class="node">
<title>47</title>
<polygon fill="none" stroke="black" points="1032,-36 931,-36 931,0 1032,0 1032,-36"/>
<text text-anchor="middle" x="981.5" y="-14.3" font-family="Times,serif" font-size="14.00">class = Canada</text>
</g>
<!-- 45&#45;&gt;47 -->
<g id="edge47" class="edge">
<title>45&#45;&gt;47</title>
<path fill="none" stroke="black" d="M939.92,-71.72C946.57,-63.29 954.57,-53.15 961.77,-44.02"/>
<polygon fill="black" stroke="black" points="964.64,-46.02 968.09,-36 959.15,-41.69 964.64,-46.02"/>
</g>
<!-- 50 -->
<g id="node51" class="node">
<title>50</title>
<polygon fill="none" stroke="black" points="1067,-258 932,-258 932,-220 1067,-220 1067,-258"/>
<text text-anchor="middle" x="999.5" y="-242.8" font-family="Times,serif" font-size="14.00">longitude &lt;= &#45;67.355</text>
<text text-anchor="middle" x="999.5" y="-227.8" font-family="Times,serif" font-size="14.00">class = Canada</text>
</g>
<!-- 49&#45;&gt;50 -->
<g id="edge50" class="edge">
<title>49&#45;&gt;50</title>
<path fill="none" stroke="black" d="M999.5,-293.83C999.5,-286.13 999.5,-276.97 999.5,-268.42"/>
<polygon fill="black" stroke="black" points="1003,-268.41 999.5,-258.41 996,-268.41 1003,-268.41"/>
</g>
<!-- 53 -->
<g id="node54" class="node">
<title>53</title>
<polygon fill="none" stroke="black" points="1186,-257 1085,-257 1085,-221 1186,-221 1186,-257"/>
<text text-anchor="middle" x="1135.5" y="-235.3" font-family="Times,serif" font-size="14.00">class = Canada</text>
</g>
<!-- 49&#45;&gt;53 -->
<g id="edge53" class="edge">
<title>49&#45;&gt;53</title>
<path fill="none" stroke="black" d="M1033.82,-293.83C1052.16,-284.12 1074.87,-272.1 1094.18,-261.88"/>
<polygon fill="black" stroke="black" points="1095.86,-264.94 1103.07,-257.17 1092.59,-258.76 1095.86,-264.94"/>
</g>
<!-- 51 -->
<g id="node52" class="node">
<title>51</title>
<polygon fill="none" stroke="black" points="1038,-183 951,-183 951,-147 1038,-147 1038,-183"/>
<text text-anchor="middle" x="994.5" y="-161.3" font-family="Times,serif" font-size="14.00">class = USA</text>
</g>
<!-- 50&#45;&gt;51 -->
<g id="edge51" class="edge">
<title>50&#45;&gt;51</title>
<path fill="none" stroke="black" d="M998.24,-219.83C997.69,-211.89 997.03,-202.41 996.42,-193.63"/>
<polygon fill="black" stroke="black" points="999.89,-193.15 995.71,-183.42 992.91,-193.64 999.89,-193.15"/>
</g>
<!-- 52 -->
<g id="node53" class="node">
<title>52</title>
<polygon fill="none" stroke="black" points="1157,-183 1056,-183 1056,-147 1157,-147 1157,-183"/>
<text text-anchor="middle" x="1106.5" y="-161.3" font-family="Times,serif" font-size="14.00">class = Canada</text>
</g>
<!-- 50&#45;&gt;52 -->
<g id="edge52" class="edge">
<title>50&#45;&gt;52</title>
<path fill="none" stroke="black" d="M1026.5,-219.83C1040.47,-210.43 1057.67,-198.86 1072.54,-188.85"/>
<polygon fill="black" stroke="black" points="1074.64,-191.66 1080.98,-183.17 1070.73,-185.85 1074.64,-191.66"/>
</g>
</g>
</svg>
