<?xml version="1.0" encoding="UTF-8" standalone="no"?>
<!DOCTYPE svg PUBLIC "-//W3C//DTD SVG 1.1//EN"
 "http://www.w3.org/Graphics/SVG/1.1/DTD/svg11.dtd">
<!-- Generated by graphviz version 5.0.1 (0)
 -->
<!-- Title: Tree Pages: 1 -->
<svg width="1187pt" height="932pt"
 viewBox="0.00 0.00 1186.50 932.00" xmlns="http://www.w3.org/2000/svg" xmlns:xlink="http://www.w3.org/1999/xlink">
<g id="graph0" class="graph" transform="scale(1 1) rotate(0) translate(4 928)">
<title>Tree</title>
<polygon fill="white" stroke="none" points="-4,4 -4,-928 1182.5,-928 1182.5,4 -4,4"/>
<!-- 0 -->
<g id="node1" class="node">
<title>0</title>
<polygon fill="none" stroke="black" points="409.5,-924 299.5,-924 299.5,-886 409.5,-886 409.5,-924"/>
<text text-anchor="middle" x="354.5" y="-908.8" font-family="Helvetica,sans-Serif" font-size="14.00">latitude &lt;= 42.9</text>
<text text-anchor="middle" x="354.5" y="-893.8" font-family="Helvetica,sans-Serif" font-size="14.00">class = Canada</text>
</g>
<!-- 1 -->
<g id="node2" class="node">
<title>1</title>
<polygon fill="none" stroke="black" points="346,-850 221,-850 221,-812 346,-812 346,-850"/>
<text text-anchor="middle" x="283.5" y="-834.8" font-family="Helvetica,sans-Serif" font-size="14.00">latitude &lt;= 42.096</text>
<text text-anchor="middle" x="283.5" y="-819.8" font-family="Helvetica,sans-Serif" font-size="14.00">class = USA</text>
</g>
<!-- 0&#45;&gt;1 -->
<g id="edge1" class="edge">
<title>0&#45;&gt;1</title>
<path fill="none" stroke="black" d="M336.58,-885.83C328.16,-877.28 317.96,-866.94 308.76,-857.62"/>
<polygon fill="black" stroke="black" points="311.17,-855.08 301.66,-850.41 306.19,-859.99 311.17,-855.08"/>
<text text-anchor="middle" x="301.48" y="-871.71" font-family="Helvetica,sans-Serif" font-size="14.00">True</text>
</g>
<!-- 6 -->
<g id="node7" class="node">
<title>6</title>
<polygon fill="none" stroke="black" points="489,-850 364,-850 364,-812 489,-812 489,-850"/>
<text text-anchor="middle" x="426.5" y="-834.8" font-family="Helvetica,sans-Serif" font-size="14.00">latitude &lt;= 55.958</text>
<text text-anchor="middle" x="426.5" y="-819.8" font-family="Helvetica,sans-Serif" font-size="14.00">class = Canada</text>
</g>
<!-- 0&#45;&gt;6 -->
<g id="edge6" class="edge">
<title>0&#45;&gt;6</title>
<path fill="none" stroke="black" d="M372.67,-885.83C381.22,-877.28 391.56,-866.94 400.88,-857.62"/>
<polygon fill="black" stroke="black" points="403.49,-859.96 408.09,-850.41 398.54,-855.01 403.49,-859.96"/>
<text text-anchor="middle" x="408.09" y="-871.71" font-family="Helvetica,sans-Serif" font-size="14.00">False</text>
</g>
<!-- 2 -->
<g id="node3" class="node">
<title>2</title>
<polygon fill="none" stroke="black" points="205,-775 114,-775 114,-739 205,-739 205,-775"/>
<text text-anchor="middle" x="159.5" y="-753.3" font-family="Helvetica,sans-Serif" font-size="14.00">class = USA</text>
</g>
<!-- 1&#45;&gt;2 -->
<g id="edge2" class="edge">
<title>1&#45;&gt;2</title>
<path fill="none" stroke="black" d="M252.21,-811.83C235.71,-802.25 215.34,-790.42 197.89,-780.29"/>
<polygon fill="black" stroke="black" points="199.48,-777.17 189.07,-775.17 195.96,-783.22 199.48,-777.17"/>
</g>
<!-- 3 -->
<g id="node4" class="node">
<title>3</title>
<polygon fill="none" stroke="black" points="348,-776 223,-776 223,-738 348,-738 348,-776"/>
<text text-anchor="middle" x="285.5" y="-760.8" font-family="Helvetica,sans-Serif" font-size="14.00">latitude &lt;= 42.324</text>
<text text-anchor="middle" x="285.5" y="-745.8" font-family="Helvetica,sans-Serif" font-size="14.00">class = USA</text>
</g>
<!-- 1&#45;&gt;3 -->
<g id="edge3" class="edge">
<title>1&#45;&gt;3</title>
<path fill="none" stroke="black" d="M284,-811.83C284.22,-804.13 284.47,-794.97 284.71,-786.42"/>
<polygon fill="black" stroke="black" points="288.21,-786.51 284.99,-776.41 281.21,-786.31 288.21,-786.51"/>
</g>
<!-- 4 -->
<g id="node5" class="node">
<title>4</title>
<polygon fill="none" stroke="black" points="222.5,-701 112.5,-701 112.5,-665 222.5,-665 222.5,-701"/>
<text text-anchor="middle" x="167.5" y="-679.3" font-family="Helvetica,sans-Serif" font-size="14.00">class = Canada</text>
</g>
<!-- 3&#45;&gt;4 -->
<g id="edge4" class="edge">
<title>3&#45;&gt;4</title>
<path fill="none" stroke="black" d="M255.72,-737.83C240.17,-728.34 220.99,-716.64 204.49,-706.57"/>
<polygon fill="black" stroke="black" points="206,-703.39 195.64,-701.17 202.36,-709.37 206,-703.39"/>
</g>
<!-- 5 -->
<g id="node6" class="node">
<title>5</title>
<polygon fill="none" stroke="black" points="332,-701 241,-701 241,-665 332,-665 332,-701"/>
<text text-anchor="middle" x="286.5" y="-679.3" font-family="Helvetica,sans-Serif" font-size="14.00">class = USA</text>
</g>
<!-- 3&#45;&gt;5 -->
<g id="edge5" class="edge">
<title>3&#45;&gt;5</title>
<path fill="none" stroke="black" d="M285.75,-737.83C285.86,-729.89 285.99,-720.41 286.12,-711.63"/>
<polygon fill="black" stroke="black" points="289.62,-711.47 286.26,-701.42 282.62,-711.37 289.62,-711.47"/>
</g>
<!-- 7 -->
<g id="node8" class="node">
<title>7</title>
<polygon fill="none" stroke="black" points="480.5,-776 370.5,-776 370.5,-738 480.5,-738 480.5,-776"/>
<text text-anchor="middle" x="425.5" y="-760.8" font-family="Helvetica,sans-Serif" font-size="14.00">latitude &lt;= 49.0</text>
<text text-anchor="middle" x="425.5" y="-745.8" font-family="Helvetica,sans-Serif" font-size="14.00">class = Canada</text>
</g>
<!-- 6&#45;&gt;7 -->
<g id="edge7" class="edge">
<title>6&#45;&gt;7</title>
<path fill="none" stroke="black" d="M426.25,-811.83C426.14,-804.13 426.01,-794.97 425.89,-786.42"/>
<polygon fill="black" stroke="black" points="429.39,-786.36 425.76,-776.41 422.4,-786.46 429.39,-786.36"/>
</g>
<!-- 56 -->
<g id="node57" class="node">
<title>56</title>
<polygon fill="none" stroke="black" points="590,-775 499,-775 499,-739 590,-739 590,-775"/>
<text text-anchor="middle" x="544.5" y="-753.3" font-family="Helvetica,sans-Serif" font-size="14.00">class = USA</text>
</g>
<!-- 6&#45;&gt;56 -->
<g id="edge56" class="edge">
<title>6&#45;&gt;56</title>
<path fill="none" stroke="black" d="M456.28,-811.83C471.83,-802.34 491.01,-790.64 507.51,-780.57"/>
<polygon fill="black" stroke="black" points="509.64,-783.37 516.36,-775.17 506,-777.39 509.64,-783.37"/>
</g>
<!-- 8 -->
<g id="node9" class="node">
<title>8</title>
<polygon fill="none" stroke="black" points="495,-702 354,-702 354,-664 495,-664 495,-702"/>
<text text-anchor="middle" x="424.5" y="-686.8" font-family="Helvetica,sans-Serif" font-size="14.00">longitude &lt;= &#45;94.582</text>
<text text-anchor="middle" x="424.5" y="-671.8" font-family="Helvetica,sans-Serif" font-size="14.00">class = Canada</text>
</g>
<!-- 7&#45;&gt;8 -->
<g id="edge8" class="edge">
<title>7&#45;&gt;8</title>
<path fill="none" stroke="black" d="M425.25,-737.83C425.14,-730.13 425.01,-720.97 424.89,-712.42"/>
<polygon fill="black" stroke="black" points="428.39,-712.36 424.76,-702.41 421.4,-712.46 428.39,-712.36"/>
</g>
<!-- 55 -->
<g id="node56" class="node">
<title>55</title>
<polygon fill="none" stroke="black" points="623.5,-701 513.5,-701 513.5,-665 623.5,-665 623.5,-701"/>
<text text-anchor="middle" x="568.5" y="-679.3" font-family="Helvetica,sans-Serif" font-size="14.00">class = Canada</text>
</g>
<!-- 7&#45;&gt;55 -->
<g id="edge55" class="edge">
<title>7&#45;&gt;55</title>
<path fill="none" stroke="black" d="M461.58,-737.83C480.96,-728.08 504.97,-715.99 525.33,-705.74"/>
<polygon fill="black" stroke="black" points="527.04,-708.79 534.4,-701.17 523.89,-702.54 527.04,-708.79"/>
</g>
<!-- 9 -->
<g id="node10" class="node">
<title>9</title>
<polygon fill="none" stroke="black" points="418,-628 269,-628 269,-590 418,-590 418,-628"/>
<text text-anchor="middle" x="343.5" y="-612.8" font-family="Helvetica,sans-Serif" font-size="14.00">longitude &lt;= &#45;123.222</text>
<text text-anchor="middle" x="343.5" y="-597.8" font-family="Helvetica,sans-Serif" font-size="14.00">class = USA</text>
</g>
<!-- 8&#45;&gt;9 -->
<g id="edge9" class="edge">
<title>8&#45;&gt;9</title>
<path fill="none" stroke="black" d="M404.06,-663.83C394.18,-655.05 382.17,-644.37 371.45,-634.85"/>
<polygon fill="black" stroke="black" points="373.73,-632.19 363.93,-628.16 369.08,-637.42 373.73,-632.19"/>
</g>
<!-- 12 -->
<g id="node13" class="node">
<title>12</title>
<polygon fill="none" stroke="black" points="577,-628 436,-628 436,-590 577,-590 577,-628"/>
<text text-anchor="middle" x="506.5" y="-612.8" font-family="Helvetica,sans-Serif" font-size="14.00">longitude &lt;= &#45;69.246</text>
<text text-anchor="middle" x="506.5" y="-597.8" font-family="Helvetica,sans-Serif" font-size="14.00">class = Canada</text>
</g>
<!-- 8&#45;&gt;12 -->
<g id="edge12" class="edge">
<title>8&#45;&gt;12</title>
<path fill="none" stroke="black" d="M445.19,-663.83C455.19,-655.05 467.36,-644.37 478.2,-634.85"/>
<polygon fill="black" stroke="black" points="480.61,-637.39 485.81,-628.16 475.99,-632.13 480.61,-637.39"/>
</g>
<!-- 10 -->
<g id="node11" class="node">
<title>10</title>
<polygon fill="none" stroke="black" points="289.5,-553 179.5,-553 179.5,-517 289.5,-517 289.5,-553"/>
<text text-anchor="middle" x="234.5" y="-531.3" font-family="Helvetica,sans-Serif" font-size="14.00">class = Canada</text>
</g>
<!-- 9&#45;&gt;10 -->
<g id="edge10" class="edge">
<title>9&#45;&gt;10</title>
<path fill="none" stroke="black" d="M315.99,-589.83C301.76,-580.43 284.24,-568.86 269.09,-558.85"/>
<polygon fill="black" stroke="black" points="270.77,-555.76 260.5,-553.17 266.91,-561.6 270.77,-555.76"/>
</g>
<!-- 11 -->
<g id="node12" class="node">
<title>11</title>
<polygon fill="none" stroke="black" points="399,-553 308,-553 308,-517 399,-517 399,-553"/>
<text text-anchor="middle" x="353.5" y="-531.3" font-family="Helvetica,sans-Serif" font-size="14.00">class = USA</text>
</g>
<!-- 9&#45;&gt;11 -->
<g id="edge11" class="edge">
<title>9&#45;&gt;11</title>
<path fill="none" stroke="black" d="M346.02,-589.83C347.14,-581.81 348.47,-572.2 349.7,-563.34"/>
<polygon fill="black" stroke="black" points="353.17,-563.8 351.08,-553.42 346.24,-562.84 353.17,-563.8"/>
</g>
<!-- 13 -->
<g id="node14" class="node">
<title>13</title>
<polygon fill="none" stroke="black" points="560,-554 435,-554 435,-516 560,-516 560,-554"/>
<text text-anchor="middle" x="497.5" y="-538.8" font-family="Helvetica,sans-Serif" font-size="14.00">latitude &lt;= 43.093</text>
<text text-anchor="middle" x="497.5" y="-523.8" font-family="Helvetica,sans-Serif" font-size="14.00">class = Canada</text>
</g>
<!-- 12&#45;&gt;13 -->
<g id="edge13" class="edge">
<title>12&#45;&gt;13</title>
<path fill="none" stroke="black" d="M504.23,-589.83C503.27,-582.13 502.12,-572.97 501.05,-564.42"/>
<polygon fill="black" stroke="black" points="504.52,-563.9 499.8,-554.41 497.57,-564.77 504.52,-563.9"/>
</g>
<!-- 36 -->
<g id="node37" class="node">
<title>36</title>
<polygon fill="none" stroke="black" points="764,-554 623,-554 623,-516 764,-516 764,-554"/>
<text text-anchor="middle" x="693.5" y="-538.8" font-family="Helvetica,sans-Serif" font-size="14.00">longitude &lt;= &#45;66.952</text>
<text text-anchor="middle" x="693.5" y="-523.8" font-family="Helvetica,sans-Serif" font-size="14.00">class = Canada</text>
</g>
<!-- 12&#45;&gt;36 -->
<g id="edge36" class="edge">
<title>12&#45;&gt;36</title>
<path fill="none" stroke="black" d="M553.69,-589.83C579.03,-580.07 610.45,-567.98 637.08,-557.72"/>
<polygon fill="black" stroke="black" points="638.58,-560.9 646.65,-554.04 636.06,-554.36 638.58,-560.9"/>
</g>
<!-- 14 -->
<g id="node15" class="node">
<title>14</title>
<polygon fill="none" stroke="black" points="370,-480 245,-480 245,-442 370,-442 370,-480"/>
<text text-anchor="middle" x="307.5" y="-464.8" font-family="Helvetica,sans-Serif" font-size="14.00">latitude &lt;= 43.014</text>
<text text-anchor="middle" x="307.5" y="-449.8" font-family="Helvetica,sans-Serif" font-size="14.00">class = Canada</text>
</g>
<!-- 13&#45;&gt;14 -->
<g id="edge14" class="edge">
<title>13&#45;&gt;14</title>
<path fill="none" stroke="black" d="M449.55,-515.83C423.69,-506.03 391.6,-493.87 364.47,-483.59"/>
<polygon fill="black" stroke="black" points="365.69,-480.31 355.1,-480.04 363.21,-486.85 365.69,-480.31"/>
</g>
<!-- 19 -->
<g id="node20" class="node">
<title>19</title>
<polygon fill="none" stroke="black" points="560,-480 435,-480 435,-442 560,-442 560,-480"/>
<text text-anchor="middle" x="497.5" y="-464.8" font-family="Helvetica,sans-Serif" font-size="14.00">latitude &lt;= 44.992</text>
<text text-anchor="middle" x="497.5" y="-449.8" font-family="Helvetica,sans-Serif" font-size="14.00">class = Canada</text>
</g>
<!-- 13&#45;&gt;19 -->
<g id="edge19" class="edge">
<title>13&#45;&gt;19</title>
<path fill="none" stroke="black" d="M497.5,-515.83C497.5,-508.13 497.5,-498.97 497.5,-490.42"/>
<polygon fill="black" stroke="black" points="501,-490.41 497.5,-480.41 494,-490.41 501,-490.41"/>
</g>
<!-- 15 -->
<g id="node16" class="node">
<title>15</title>
<polygon fill="none" stroke="black" points="235,-406 94,-406 94,-368 235,-368 235,-406"/>
<text text-anchor="middle" x="164.5" y="-390.8" font-family="Helvetica,sans-Serif" font-size="14.00">longitude &lt;= &#45;81.845</text>
<text text-anchor="middle" x="164.5" y="-375.8" font-family="Helvetica,sans-Serif" font-size="14.00">class = Canada</text>
</g>
<!-- 14&#45;&gt;15 -->
<g id="edge15" class="edge">
<title>14&#45;&gt;15</title>
<path fill="none" stroke="black" d="M271.42,-441.83C252.7,-432.41 229.66,-420.81 209.76,-410.79"/>
<polygon fill="black" stroke="black" points="211.08,-407.53 200.57,-406.16 207.93,-413.79 211.08,-407.53"/>
</g>
<!-- 18 -->
<g id="node19" class="node">
<title>18</title>
<polygon fill="none" stroke="black" points="353,-405 262,-405 262,-369 353,-369 353,-405"/>
<text text-anchor="middle" x="307.5" y="-383.3" font-family="Helvetica,sans-Serif" font-size="14.00">class = USA</text>
</g>
<!-- 14&#45;&gt;18 -->
<g id="edge18" class="edge">
<title>14&#45;&gt;18</title>
<path fill="none" stroke="black" d="M307.5,-441.83C307.5,-433.89 307.5,-424.41 307.5,-415.63"/>
<polygon fill="black" stroke="black" points="311,-415.42 307.5,-405.42 304,-415.42 311,-415.42"/>
</g>
<!-- 16 -->
<g id="node17" class="node">
<title>16</title>
<polygon fill="none" stroke="black" points="91,-331 0,-331 0,-295 91,-295 91,-331"/>
<text text-anchor="middle" x="45.5" y="-309.3" font-family="Helvetica,sans-Serif" font-size="14.00">class = USA</text>
</g>
<!-- 15&#45;&gt;16 -->
<g id="edge16" class="edge">
<title>15&#45;&gt;16</title>
<path fill="none" stroke="black" d="M134.47,-367.83C118.79,-358.34 99.44,-346.64 82.81,-336.57"/>
<polygon fill="black" stroke="black" points="84.25,-333.35 73.88,-331.17 80.62,-339.34 84.25,-333.35"/>
</g>
<!-- 17 -->
<g id="node18" class="node">
<title>17</title>
<polygon fill="none" stroke="black" points="219.5,-331 109.5,-331 109.5,-295 219.5,-295 219.5,-331"/>
<text text-anchor="middle" x="164.5" y="-309.3" font-family="Helvetica,sans-Serif" font-size="14.00">class = Canada</text>
</g>
<!-- 15&#45;&gt;17 -->
<g id="edge17" class="edge">
<title>15&#45;&gt;17</title>
<path fill="none" stroke="black" d="M164.5,-367.83C164.5,-359.89 164.5,-350.41 164.5,-341.63"/>
<polygon fill="black" stroke="black" points="168,-341.42 164.5,-331.42 161,-341.42 168,-341.42"/>
</g>
<!-- 20 -->
<g id="node21" class="node">
<title>20</title>
<polygon fill="none" stroke="black" points="497,-406 372,-406 372,-368 497,-368 497,-406"/>
<text text-anchor="middle" x="434.5" y="-390.8" font-family="Helvetica,sans-Serif" font-size="14.00">latitude &lt;= 44.542</text>
<text text-anchor="middle" x="434.5" y="-375.8" font-family="Helvetica,sans-Serif" font-size="14.00">class = Canada</text>
</g>
<!-- 19&#45;&gt;20 -->
<g id="edge20" class="edge">
<title>19&#45;&gt;20</title>
<path fill="none" stroke="black" d="M481.6,-441.83C474.27,-433.45 465.43,-423.35 457.4,-414.17"/>
<polygon fill="black" stroke="black" points="459.83,-411.63 450.61,-406.41 454.56,-416.24 459.83,-411.63"/>
</g>
<!-- 35 -->
<g id="node36" class="node">
<title>35</title>
<polygon fill="none" stroke="black" points="625.5,-405 515.5,-405 515.5,-369 625.5,-369 625.5,-405"/>
<text text-anchor="middle" x="570.5" y="-383.3" font-family="Helvetica,sans-Serif" font-size="14.00">class = Canada</text>
</g>
<!-- 19&#45;&gt;35 -->
<g id="edge35" class="edge">
<title>19&#45;&gt;35</title>
<path fill="none" stroke="black" d="M515.92,-441.83C525.01,-432.87 536.1,-421.93 545.9,-412.26"/>
<polygon fill="black" stroke="black" points="548.43,-414.69 553.09,-405.17 543.51,-409.7 548.43,-414.69"/>
</g>
<!-- 21 -->
<g id="node22" class="node">
<title>21</title>
<polygon fill="none" stroke="black" points="379,-332 238,-332 238,-294 379,-294 379,-332"/>
<text text-anchor="middle" x="308.5" y="-316.8" font-family="Helvetica,sans-Serif" font-size="14.00">longitude &lt;= &#45;79.076</text>
<text text-anchor="middle" x="308.5" y="-301.8" font-family="Helvetica,sans-Serif" font-size="14.00">class = Canada</text>
</g>
<!-- 20&#45;&gt;21 -->
<g id="edge21" class="edge">
<title>20&#45;&gt;21</title>
<path fill="none" stroke="black" d="M402.7,-367.83C386.44,-358.54 366.46,-347.12 349.09,-337.2"/>
<polygon fill="black" stroke="black" points="350.7,-334.09 340.28,-332.16 347.23,-340.16 350.7,-334.09"/>
</g>
<!-- 30 -->
<g id="node31" class="node">
<title>30</title>
<polygon fill="none" stroke="black" points="538,-332 397,-332 397,-294 538,-294 538,-332"/>
<text text-anchor="middle" x="467.5" y="-316.8" font-family="Helvetica,sans-Serif" font-size="14.00">longitude &lt;= &#45;84.392</text>
<text text-anchor="middle" x="467.5" y="-301.8" font-family="Helvetica,sans-Serif" font-size="14.00">class = USA</text>
</g>
<!-- 20&#45;&gt;30 -->
<g id="edge30" class="edge">
<title>20&#45;&gt;30</title>
<path fill="none" stroke="black" d="M442.83,-367.83C446.47,-359.88 450.83,-350.37 454.86,-341.57"/>
<polygon fill="black" stroke="black" points="458.08,-342.96 459.06,-332.41 451.71,-340.05 458.08,-342.96"/>
</g>
<!-- 22 -->
<g id="node23" class="node">
<title>22</title>
<polygon fill="none" stroke="black" points="227.5,-257 117.5,-257 117.5,-221 227.5,-221 227.5,-257"/>
<text text-anchor="middle" x="172.5" y="-235.3" font-family="Helvetica,sans-Serif" font-size="14.00">class = Canada</text>
</g>
<!-- 21&#45;&gt;22 -->
<g id="edge22" class="edge">
<title>21&#45;&gt;22</title>
<path fill="none" stroke="black" d="M274.18,-293.83C255.84,-284.12 233.13,-272.1 213.82,-261.88"/>
<polygon fill="black" stroke="black" points="215.41,-258.76 204.93,-257.17 212.14,-264.94 215.41,-258.76"/>
</g>
<!-- 23 -->
<g id="node24" class="node">
<title>23</title>
<polygon fill="none" stroke="black" points="371,-258 246,-258 246,-220 371,-220 371,-258"/>
<text text-anchor="middle" x="308.5" y="-242.8" font-family="Helvetica,sans-Serif" font-size="14.00">latitude &lt;= 44.168</text>
<text text-anchor="middle" x="308.5" y="-227.8" font-family="Helvetica,sans-Serif" font-size="14.00">class = Canada</text>
</g>
<!-- 21&#45;&gt;23 -->
<g id="edge23" class="edge">
<title>21&#45;&gt;23</title>
<path fill="none" stroke="black" d="M308.5,-293.83C308.5,-286.13 308.5,-276.97 308.5,-268.42"/>
<polygon fill="black" stroke="black" points="312,-268.41 308.5,-258.41 305,-268.41 312,-268.41"/>
</g>
<!-- 24 -->
<g id="node25" class="node">
<title>24</title>
<polygon fill="none" stroke="black" points="242,-184 117,-184 117,-146 242,-146 242,-184"/>
<text text-anchor="middle" x="179.5" y="-168.8" font-family="Helvetica,sans-Serif" font-size="14.00">latitude &lt;= 43.511</text>
<text text-anchor="middle" x="179.5" y="-153.8" font-family="Helvetica,sans-Serif" font-size="14.00">class = USA</text>
</g>
<!-- 23&#45;&gt;24 -->
<g id="edge24" class="edge">
<title>23&#45;&gt;24</title>
<path fill="none" stroke="black" d="M275.95,-219.83C259.3,-210.54 238.84,-199.12 221.06,-189.2"/>
<polygon fill="black" stroke="black" points="222.48,-185.98 212.04,-184.16 219.07,-192.09 222.48,-185.98"/>
</g>
<!-- 29 -->
<g id="node30" class="node">
<title>29</title>
<polygon fill="none" stroke="black" points="370.5,-183 260.5,-183 260.5,-147 370.5,-147 370.5,-183"/>
<text text-anchor="middle" x="315.5" y="-161.3" font-family="Helvetica,sans-Serif" font-size="14.00">class = Canada</text>
</g>
<!-- 23&#45;&gt;29 -->
<g id="edge29" class="edge">
<title>23&#45;&gt;29</title>
<path fill="none" stroke="black" d="M310.27,-219.83C311.04,-211.89 311.96,-202.41 312.81,-193.63"/>
<polygon fill="black" stroke="black" points="316.32,-193.71 313.81,-183.42 309.36,-193.03 316.32,-193.71"/>
</g>
<!-- 25 -->
<g id="node26" class="node">
<title>25</title>
<polygon fill="none" stroke="black" points="158,-109 67,-109 67,-73 158,-73 158,-109"/>
<text text-anchor="middle" x="112.5" y="-87.3" font-family="Helvetica,sans-Serif" font-size="14.00">class = USA</text>
</g>
<!-- 24&#45;&gt;25 -->
<g id="edge25" class="edge">
<title>24&#45;&gt;25</title>
<path fill="none" stroke="black" d="M162.59,-145.83C154.4,-137.02 144.42,-126.31 135.54,-116.76"/>
<polygon fill="black" stroke="black" points="138.08,-114.35 128.71,-109.42 132.96,-119.12 138.08,-114.35"/>
</g>
<!-- 26 -->
<g id="node27" class="node">
<title>26</title>
<polygon fill="none" stroke="black" points="317,-110 176,-110 176,-72 317,-72 317,-110"/>
<text text-anchor="middle" x="246.5" y="-94.8" font-family="Helvetica,sans-Serif" font-size="14.00">longitude &lt;= &#45;77.678</text>
<text text-anchor="middle" x="246.5" y="-79.8" font-family="Helvetica,sans-Serif" font-size="14.00">class = Canada</text>
</g>
<!-- 24&#45;&gt;26 -->
<g id="edge26" class="edge">
<title>24&#45;&gt;26</title>
<path fill="none" stroke="black" d="M196.41,-145.83C204.28,-137.37 213.79,-127.15 222.4,-117.9"/>
<polygon fill="black" stroke="black" points="225.12,-120.12 229.37,-110.41 219.99,-115.35 225.12,-120.12"/>
</g>
<!-- 27 -->
<g id="node28" class="node">
<title>27</title>
<polygon fill="none" stroke="black" points="241.5,-36 131.5,-36 131.5,0 241.5,0 241.5,-36"/>
<text text-anchor="middle" x="186.5" y="-14.3" font-family="Helvetica,sans-Serif" font-size="14.00">class = Canada</text>
</g>
<!-- 26&#45;&gt;27 -->
<g id="edge27" class="edge">
<title>26&#45;&gt;27</title>
<path fill="none" stroke="black" d="M231.05,-71.72C223.85,-63.2 215.18,-52.94 207.41,-43.74"/>
<polygon fill="black" stroke="black" points="210,-41.38 200.87,-36 204.65,-45.9 210,-41.38"/>
</g>
<!-- 28 -->
<g id="node29" class="node">
<title>28</title>
<polygon fill="none" stroke="black" points="351,-36 260,-36 260,0 351,0 351,-36"/>
<text text-anchor="middle" x="305.5" y="-14.3" font-family="Helvetica,sans-Serif" font-size="14.00">class = USA</text>
</g>
<!-- 26&#45;&gt;28 -->
<g id="edge28" class="edge">
<title>26&#45;&gt;28</title>
<path fill="none" stroke="black" d="M261.69,-71.72C268.77,-63.2 277.3,-52.94 284.94,-43.74"/>
<polygon fill="black" stroke="black" points="287.67,-45.93 291.37,-36 282.29,-41.46 287.67,-45.93"/>
</g>
<!-- 31 -->
<g id="node32" class="node">
<title>31</title>
<polygon fill="none" stroke="black" points="480,-257 389,-257 389,-221 480,-221 480,-257"/>
<text text-anchor="middle" x="434.5" y="-235.3" font-family="Helvetica,sans-Serif" font-size="14.00">class = USA</text>
</g>
<!-- 30&#45;&gt;31 -->
<g id="edge31" class="edge">
<title>30&#45;&gt;31</title>
<path fill="none" stroke="black" d="M459.17,-293.83C455.41,-285.63 450.9,-275.78 446.77,-266.76"/>
<polygon fill="black" stroke="black" points="449.83,-265.05 442.48,-257.42 443.47,-267.97 449.83,-265.05"/>
</g>
<!-- 32 -->
<g id="node33" class="node">
<title>32</title>
<polygon fill="none" stroke="black" points="623,-258 498,-258 498,-220 623,-220 623,-258"/>
<text text-anchor="middle" x="560.5" y="-242.8" font-family="Helvetica,sans-Serif" font-size="14.00">latitude &lt;= 44.706</text>
<text text-anchor="middle" x="560.5" y="-227.8" font-family="Helvetica,sans-Serif" font-size="14.00">class = Canada</text>
</g>
<!-- 30&#45;&gt;32 -->
<g id="edge32" class="edge">
<title>30&#45;&gt;32</title>
<path fill="none" stroke="black" d="M490.97,-293.83C502.53,-284.88 516.64,-273.96 529.12,-264.3"/>
<polygon fill="black" stroke="black" points="531.28,-267.05 537.04,-258.16 526.99,-261.52 531.28,-267.05"/>
</g>
<!-- 33 -->
<g id="node34" class="node">
<title>33</title>
<polygon fill="none" stroke="black" points="495,-183 404,-183 404,-147 495,-147 495,-183"/>
<text text-anchor="middle" x="449.5" y="-161.3" font-family="Helvetica,sans-Serif" font-size="14.00">class = USA</text>
</g>
<!-- 32&#45;&gt;33 -->
<g id="edge33" class="edge">
<title>32&#45;&gt;33</title>
<path fill="none" stroke="black" d="M532.49,-219.83C517.99,-210.43 500.15,-198.86 484.73,-188.85"/>
<polygon fill="black" stroke="black" points="486.27,-185.68 475.97,-183.17 482.46,-191.55 486.27,-185.68"/>
</g>
<!-- 34 -->
<g id="node35" class="node">
<title>34</title>
<polygon fill="none" stroke="black" points="623.5,-183 513.5,-183 513.5,-147 623.5,-147 623.5,-183"/>
<text text-anchor="middle" x="568.5" y="-161.3" font-family="Helvetica,sans-Serif" font-size="14.00">class = Canada</text>
</g>
<!-- 32&#45;&gt;34 -->
<g id="edge34" class="edge">
<title>32&#45;&gt;34</title>
<path fill="none" stroke="black" d="M562.52,-219.83C563.4,-211.89 564.45,-202.41 565.43,-193.63"/>
<polygon fill="black" stroke="black" points="568.94,-193.74 566.56,-183.42 561.98,-192.97 568.94,-193.74"/>
</g>
<!-- 37 -->
<g id="node38" class="node">
<title>37</title>
<polygon fill="none" stroke="black" points="756,-480 631,-480 631,-442 756,-442 756,-480"/>
<text text-anchor="middle" x="693.5" y="-464.8" font-family="Helvetica,sans-Serif" font-size="14.00">latitude &lt;= 45.195</text>
<text text-anchor="middle" x="693.5" y="-449.8" font-family="Helvetica,sans-Serif" font-size="14.00">class = USA</text>
</g>
<!-- 36&#45;&gt;37 -->
<g id="edge37" class="edge">
<title>36&#45;&gt;37</title>
<path fill="none" stroke="black" d="M693.5,-515.83C693.5,-508.13 693.5,-498.97 693.5,-490.42"/>
<polygon fill="black" stroke="black" points="697,-490.41 693.5,-480.41 690,-490.41 697,-490.41"/>
</g>
<!-- 54 -->
<g id="node55" class="node">
<title>54</title>
<polygon fill="none" stroke="black" points="884.5,-479 774.5,-479 774.5,-443 884.5,-443 884.5,-479"/>
<text text-anchor="middle" x="829.5" y="-457.3" font-family="Helvetica,sans-Serif" font-size="14.00">class = Canada</text>
</g>
<!-- 36&#45;&gt;54 -->
<g id="edge54" class="edge">
<title>36&#45;&gt;54</title>
<path fill="none" stroke="black" d="M727.82,-515.83C746.16,-506.12 768.87,-494.1 788.18,-483.88"/>
<polygon fill="black" stroke="black" points="789.86,-486.94 797.07,-479.17 786.59,-480.76 789.86,-486.94"/>
</g>
<!-- 38 -->
<g id="node39" class="node">
<title>38</title>
<polygon fill="none" stroke="black" points="739,-405 648,-405 648,-369 739,-369 739,-405"/>
<text text-anchor="middle" x="693.5" y="-383.3" font-family="Helvetica,sans-Serif" font-size="14.00">class = USA</text>
</g>
<!-- 37&#45;&gt;38 -->
<g id="edge38" class="edge">
<title>37&#45;&gt;38</title>
<path fill="none" stroke="black" d="M693.5,-441.83C693.5,-433.89 693.5,-424.41 693.5,-415.63"/>
<polygon fill="black" stroke="black" points="697,-415.42 693.5,-405.42 690,-415.42 697,-415.42"/>
</g>
<!-- 39 -->
<g id="node40" class="node">
<title>39</title>
<polygon fill="none" stroke="black" points="893.5,-406 759.5,-406 759.5,-368 893.5,-368 893.5,-406"/>
<text text-anchor="middle" x="826.5" y="-390.8" font-family="Helvetica,sans-Serif" font-size="14.00">longitude &lt;= &#45;67.93</text>
<text text-anchor="middle" x="826.5" y="-375.8" font-family="Helvetica,sans-Serif" font-size="14.00">class = Canada</text>
</g>
<!-- 37&#45;&gt;39 -->
<g id="edge39" class="edge">
<title>37&#45;&gt;39</title>
<path fill="none" stroke="black" d="M727.06,-441.83C744.39,-432.45 765.71,-420.91 784.15,-410.92"/>
<polygon fill="black" stroke="black" points="785.82,-414 792.95,-406.16 782.49,-407.85 785.82,-414"/>
</g>
<!-- 40 -->
<g id="node41" class="node">
<title>40</title>
<polygon fill="none" stroke="black" points="897,-332 756,-332 756,-294 897,-294 897,-332"/>
<text text-anchor="middle" x="826.5" y="-316.8" font-family="Helvetica,sans-Serif" font-size="14.00">longitude &lt;= &#45;68.325</text>
<text text-anchor="middle" x="826.5" y="-301.8" font-family="Helvetica,sans-Serif" font-size="14.00">class = USA</text>
</g>
<!-- 39&#45;&gt;40 -->
<g id="edge40" class="edge">
<title>39&#45;&gt;40</title>
<path fill="none" stroke="black" d="M826.5,-367.83C826.5,-360.13 826.5,-350.97 826.5,-342.42"/>
<polygon fill="black" stroke="black" points="830,-342.41 826.5,-332.41 823,-342.41 830,-342.41"/>
</g>
<!-- 49 -->
<g id="node50" class="node">
<title>49</title>
<polygon fill="none" stroke="black" points="1042,-332 917,-332 917,-294 1042,-294 1042,-332"/>
<text text-anchor="middle" x="979.5" y="-316.8" font-family="Helvetica,sans-Serif" font-size="14.00">latitude &lt;= 45.565</text>
<text text-anchor="middle" x="979.5" y="-301.8" font-family="Helvetica,sans-Serif" font-size="14.00">class = Canada</text>
</g>
<!-- 39&#45;&gt;49 -->
<g id="edge49" class="edge">
<title>39&#45;&gt;49</title>
<path fill="none" stroke="black" d="M865.11,-367.83C885.39,-358.29 910.42,-346.51 931.9,-336.4"/>
<polygon fill="black" stroke="black" points="933.61,-339.46 941.17,-332.04 930.63,-333.13 933.61,-339.46"/>
</g>
<!-- 41 -->
<g id="node42" class="node">
<title>41</title>
<polygon fill="none" stroke="black" points="782,-258 641,-258 641,-220 782,-220 782,-258"/>
<text text-anchor="middle" x="711.5" y="-242.8" font-family="Helvetica,sans-Serif" font-size="14.00">longitude &lt;= &#45;68.915</text>
<text text-anchor="middle" x="711.5" y="-227.8" font-family="Helvetica,sans-Serif" font-size="14.00">class = Canada</text>
</g>
<!-- 40&#45;&gt;41 -->
<g id="edge41" class="edge">
<title>40&#45;&gt;41</title>
<path fill="none" stroke="black" d="M797.48,-293.83C782.77,-284.62 764.74,-273.33 748.99,-263.47"/>
<polygon fill="black" stroke="black" points="750.84,-260.5 740.51,-258.16 747.13,-266.44 750.84,-260.5"/>
</g>
<!-- 48 -->
<g id="node49" class="node">
<title>48</title>
<polygon fill="none" stroke="black" points="891,-257 800,-257 800,-221 891,-221 891,-257"/>
<text text-anchor="middle" x="845.5" y="-235.3" font-family="Helvetica,sans-Serif" font-size="14.00">class = USA</text>
</g>
<!-- 40&#45;&gt;48 -->
<g id="edge48" class="edge">
<title>40&#45;&gt;48</title>
<path fill="none" stroke="black" d="M831.29,-293.83C833.41,-285.81 835.95,-276.2 838.29,-267.34"/>
<polygon fill="black" stroke="black" points="841.74,-267.98 840.9,-257.42 834.97,-266.19 841.74,-267.98"/>
</g>
<!-- 42 -->
<g id="node43" class="node">
<title>42</title>
<polygon fill="none" stroke="black" points="749,-183 658,-183 658,-147 749,-147 749,-183"/>
<text text-anchor="middle" x="703.5" y="-161.3" font-family="Helvetica,sans-Serif" font-size="14.00">class = USA</text>
</g>
<!-- 41&#45;&gt;42 -->
<g id="edge42" class="edge">
<title>41&#45;&gt;42</title>
<path fill="none" stroke="black" d="M709.48,-219.83C708.6,-211.89 707.55,-202.41 706.57,-193.63"/>
<polygon fill="black" stroke="black" points="710.02,-192.97 705.44,-183.42 703.06,-193.74 710.02,-192.97"/>
</g>
<!-- 43 -->
<g id="node44" class="node">
<title>43</title>
<polygon fill="none" stroke="black" points="892,-184 767,-184 767,-146 892,-146 892,-184"/>
<text text-anchor="middle" x="829.5" y="-168.8" font-family="Helvetica,sans-Serif" font-size="14.00">latitude &lt;= 47.256</text>
<text text-anchor="middle" x="829.5" y="-153.8" font-family="Helvetica,sans-Serif" font-size="14.00">class = Canada</text>
</g>
<!-- 41&#45;&gt;43 -->
<g id="edge43" class="edge">
<title>41&#45;&gt;43</title>
<path fill="none" stroke="black" d="M741.28,-219.83C756.37,-210.62 774.88,-199.33 791.03,-189.47"/>
<polygon fill="black" stroke="black" points="793.02,-192.36 799.73,-184.16 789.37,-186.38 793.02,-192.36"/>
</g>
<!-- 44 -->
<g id="node45" class="node">
<title>44</title>
<polygon fill="none" stroke="black" points="816.5,-109 706.5,-109 706.5,-73 816.5,-73 816.5,-109"/>
<text text-anchor="middle" x="761.5" y="-87.3" font-family="Helvetica,sans-Serif" font-size="14.00">class = Canada</text>
</g>
<!-- 43&#45;&gt;44 -->
<g id="edge44" class="edge">
<title>43&#45;&gt;44</title>
<path fill="none" stroke="black" d="M812.34,-145.83C804.02,-137.02 793.9,-126.31 784.89,-116.76"/>
<polygon fill="black" stroke="black" points="787.36,-114.28 777.95,-109.42 782.27,-119.09 787.36,-114.28"/>
</g>
<!-- 45 -->
<g id="node46" class="node">
<title>45</title>
<polygon fill="none" stroke="black" points="960,-110 835,-110 835,-72 960,-72 960,-110"/>
<text text-anchor="middle" x="897.5" y="-94.8" font-family="Helvetica,sans-Serif" font-size="14.00">latitude &lt;= 47.312</text>
<text text-anchor="middle" x="897.5" y="-79.8" font-family="Helvetica,sans-Serif" font-size="14.00">class = Canada</text>
</g>
<!-- 43&#45;&gt;45 -->
<g id="edge45" class="edge">
<title>43&#45;&gt;45</title>
<path fill="none" stroke="black" d="M846.66,-145.83C854.65,-137.37 864.3,-127.15 873.04,-117.9"/>
<polygon fill="black" stroke="black" points="875.79,-120.09 880.11,-110.41 870.7,-115.28 875.79,-120.09"/>
</g>
<!-- 46 -->
<g id="node47" class="node">
<title>46</title>
<polygon fill="none" stroke="black" points="883,-36 792,-36 792,0 883,0 883,-36"/>
<text text-anchor="middle" x="837.5" y="-14.3" font-family="Helvetica,sans-Serif" font-size="14.00">class = USA</text>
</g>
<!-- 45&#45;&gt;46 -->
<g id="edge46" class="edge">
<title>45&#45;&gt;46</title>
<path fill="none" stroke="black" d="M882.05,-71.72C874.85,-63.2 866.18,-52.94 858.41,-43.74"/>
<polygon fill="black" stroke="black" points="861,-41.38 851.87,-36 855.65,-45.9 861,-41.38"/>
</g>
<!-- 47 -->
<g id="node48" class="node">
<title>47</title>
<polygon fill="none" stroke="black" points="1011.5,-36 901.5,-36 901.5,0 1011.5,0 1011.5,-36"/>
<text text-anchor="middle" x="956.5" y="-14.3" font-family="Helvetica,sans-Serif" font-size="14.00">class = Canada</text>
</g>
<!-- 45&#45;&gt;47 -->
<g id="edge47" class="edge">
<title>45&#45;&gt;47</title>
<path fill="none" stroke="black" d="M912.69,-71.72C919.77,-63.2 928.3,-52.94 935.94,-43.74"/>
<polygon fill="black" stroke="black" points="938.67,-45.93 942.37,-36 933.29,-41.46 938.67,-45.93"/>
</g>
<!-- 50 -->
<g id="node51" class="node">
<title>50</title>
<polygon fill="none" stroke="black" points="1050,-258 909,-258 909,-220 1050,-220 1050,-258"/>
<text text-anchor="middle" x="979.5" y="-242.8" font-family="Helvetica,sans-Serif" font-size="14.00">longitude &lt;= &#45;67.355</text>
<text text-anchor="middle" x="979.5" y="-227.8" font-family="Helvetica,sans-Serif" font-size="14.00">class = Canada</text>
</g>
<!-- 49&#45;&gt;50 -->
<g id="edge50" class="edge">
<title>49&#45;&gt;50</title>
<path fill="none" stroke="black" d="M979.5,-293.83C979.5,-286.13 979.5,-276.97 979.5,-268.42"/>
<polygon fill="black" stroke="black" points="983,-268.41 979.5,-258.41 976,-268.41 983,-268.41"/>
</g>
<!-- 53 -->
<g id="node54" class="node">
<title>53</title>
<polygon fill="none" stroke="black" points="1178.5,-257 1068.5,-257 1068.5,-221 1178.5,-221 1178.5,-257"/>
<text text-anchor="middle" x="1123.5" y="-235.3" font-family="Helvetica,sans-Serif" font-size="14.00">class = Canada</text>
</g>
<!-- 49&#45;&gt;53 -->
<g id="edge53" class="edge">
<title>49&#45;&gt;53</title>
<path fill="none" stroke="black" d="M1015.84,-293.83C1035.35,-284.08 1059.53,-271.99 1080.03,-261.74"/>
<polygon fill="black" stroke="black" points="1081.78,-264.77 1089.16,-257.17 1078.65,-258.51 1081.78,-264.77"/>
</g>
<!-- 51 -->
<g id="node52" class="node">
<title>51</title>
<polygon fill="none" stroke="black" points="1017,-183 926,-183 926,-147 1017,-147 1017,-183"/>
<text text-anchor="middle" x="971.5" y="-161.3" font-family="Helvetica,sans-Serif" font-size="14.00">class = USA</text>
</g>
<!-- 50&#45;&gt;51 -->
<g id="edge51" class="edge">
<title>50&#45;&gt;51</title>
<path fill="none" stroke="black" d="M977.48,-219.83C976.6,-211.89 975.55,-202.41 974.57,-193.63"/>
<polygon fill="black" stroke="black" points="978.02,-192.97 973.44,-183.42 971.06,-193.74 978.02,-192.97"/>
</g>
<!-- 52 -->
<g id="node53" class="node">
<title>52</title>
<polygon fill="none" stroke="black" points="1145.5,-183 1035.5,-183 1035.5,-147 1145.5,-147 1145.5,-183"/>
<text text-anchor="middle" x="1090.5" y="-161.3" font-family="Helvetica,sans-Serif" font-size="14.00">class = Canada</text>
</g>
<!-- 50&#45;&gt;52 -->
<g id="edge52" class="edge">
<title>50&#45;&gt;52</title>
<path fill="none" stroke="black" d="M1007.51,-219.83C1022.01,-210.43 1039.85,-198.86 1055.27,-188.85"/>
<polygon fill="black" stroke="black" points="1057.54,-191.55 1064.03,-183.17 1053.73,-185.68 1057.54,-191.55"/>
</g>
</g>
</svg>
