<?xml version="1.0" encoding="UTF-8" standalone="no"?>
<!DOCTYPE svg PUBLIC "-//W3C//DTD SVG 1.1//EN"
 "http://www.w3.org/Graphics/SVG/1.1/DTD/svg11.dtd">
<!-- Generated by graphviz version 5.0.1 (0)
 -->
<!-- Title: Tree Pages: 1 -->
<svg width="1346pt" height="932pt"
 viewBox="0.00 0.00 1345.50 932.00" xmlns="http://www.w3.org/2000/svg" xmlns:xlink="http://www.w3.org/1999/xlink">
<g id="graph0" class="graph" transform="scale(1 1) rotate(0) translate(4 928)">
<title>Tree</title>
<polygon fill="white" stroke="none" points="-4,4 -4,-928 1341.5,-928 1341.5,4 -4,4"/>
<!-- 0 -->
<g id="node1" class="node">
<title>0</title>
<polygon fill="none" stroke="black" points="298.5,-924 188.5,-924 188.5,-886 298.5,-886 298.5,-924"/>
<text text-anchor="middle" x="243.5" y="-908.8" font-family="Helvetica,sans-Serif" font-size="14.00">latitude &lt;= 42.9</text>
<text text-anchor="middle" x="243.5" y="-893.8" font-family="Helvetica,sans-Serif" font-size="14.00">class = Canada</text>
</g>
<!-- 1 -->
<g id="node2" class="node">
<title>1</title>
<polygon fill="none" stroke="black" points="229,-850 104,-850 104,-812 229,-812 229,-850"/>
<text text-anchor="middle" x="166.5" y="-834.8" font-family="Helvetica,sans-Serif" font-size="14.00">latitude &lt;= 42.096</text>
<text text-anchor="middle" x="166.5" y="-819.8" font-family="Helvetica,sans-Serif" font-size="14.00">class = USA</text>
</g>
<!-- 0&#45;&gt;1 -->
<g id="edge1" class="edge">
<title>0&#45;&gt;1</title>
<path fill="none" stroke="black" d="M224.07,-885.83C214.77,-877.13 203.48,-866.58 193.37,-857.13"/>
<polygon fill="black" stroke="black" points="195.62,-854.44 185.92,-850.16 190.84,-859.55 195.62,-854.44"/>
<text text-anchor="middle" x="186.76" y="-871.45" font-family="Helvetica,sans-Serif" font-size="14.00">True</text>
</g>
<!-- 6 -->
<g id="node7" class="node">
<title>6</title>
<polygon fill="none" stroke="black" points="396,-850 247,-850 247,-812 396,-812 396,-850"/>
<text text-anchor="middle" x="321.5" y="-834.8" font-family="Helvetica,sans-Serif" font-size="14.00">longitude &lt;= &#45;130.017</text>
<text text-anchor="middle" x="321.5" y="-819.8" font-family="Helvetica,sans-Serif" font-size="14.00">class = Canada</text>
</g>
<!-- 0&#45;&gt;6 -->
<g id="edge6" class="edge">
<title>0&#45;&gt;6</title>
<path fill="none" stroke="black" d="M263.18,-885.83C272.61,-877.13 284.04,-866.58 294.28,-857.13"/>
<polygon fill="black" stroke="black" points="296.85,-859.52 301.82,-850.16 292.1,-854.37 296.85,-859.52"/>
<text text-anchor="middle" x="300.82" y="-871.44" font-family="Helvetica,sans-Serif" font-size="14.00">False</text>
</g>
<!-- 2 -->
<g id="node3" class="node">
<title>2</title>
<polygon fill="none" stroke="black" points="91,-775 0,-775 0,-739 91,-739 91,-775"/>
<text text-anchor="middle" x="45.5" y="-753.3" font-family="Helvetica,sans-Serif" font-size="14.00">class = USA</text>
</g>
<!-- 1&#45;&gt;2 -->
<g id="edge2" class="edge">
<title>1&#45;&gt;2</title>
<path fill="none" stroke="black" d="M135.97,-811.83C119.87,-802.25 99.99,-790.42 82.96,-780.29"/>
<polygon fill="black" stroke="black" points="84.74,-777.28 74.36,-775.17 81.16,-783.29 84.74,-777.28"/>
</g>
<!-- 3 -->
<g id="node4" class="node">
<title>3</title>
<polygon fill="none" stroke="black" points="234,-776 109,-776 109,-738 234,-738 234,-776"/>
<text text-anchor="middle" x="171.5" y="-760.8" font-family="Helvetica,sans-Serif" font-size="14.00">latitude &lt;= 42.324</text>
<text text-anchor="middle" x="171.5" y="-745.8" font-family="Helvetica,sans-Serif" font-size="14.00">class = USA</text>
</g>
<!-- 1&#45;&gt;3 -->
<g id="edge3" class="edge">
<title>1&#45;&gt;3</title>
<path fill="none" stroke="black" d="M167.76,-811.83C168.3,-804.13 168.93,-794.97 169.53,-786.42"/>
<polygon fill="black" stroke="black" points="173.02,-786.63 170.22,-776.41 166.04,-786.15 173.02,-786.63"/>
</g>
<!-- 4 -->
<g id="node5" class="node">
<title>4</title>
<polygon fill="none" stroke="black" points="217.5,-701 107.5,-701 107.5,-665 217.5,-665 217.5,-701"/>
<text text-anchor="middle" x="162.5" y="-679.3" font-family="Helvetica,sans-Serif" font-size="14.00">class = Canada</text>
</g>
<!-- 3&#45;&gt;4 -->
<g id="edge4" class="edge">
<title>3&#45;&gt;4</title>
<path fill="none" stroke="black" d="M169.23,-737.83C168.24,-729.89 167.05,-720.41 165.95,-711.63"/>
<polygon fill="black" stroke="black" points="169.39,-710.91 164.68,-701.42 162.44,-711.77 169.39,-710.91"/>
</g>
<!-- 5 -->
<g id="node6" class="node">
<title>5</title>
<polygon fill="none" stroke="black" points="327,-701 236,-701 236,-665 327,-665 327,-701"/>
<text text-anchor="middle" x="281.5" y="-679.3" font-family="Helvetica,sans-Serif" font-size="14.00">class = USA</text>
</g>
<!-- 3&#45;&gt;5 -->
<g id="edge5" class="edge">
<title>3&#45;&gt;5</title>
<path fill="none" stroke="black" d="M199.26,-737.83C213.62,-728.43 231.3,-716.86 246.59,-706.85"/>
<polygon fill="black" stroke="black" points="248.82,-709.58 255.27,-701.17 244.98,-703.72 248.82,-709.58"/>
</g>
<!-- 7 -->
<g id="node8" class="node">
<title>7</title>
<polygon fill="none" stroke="black" points="357,-775 266,-775 266,-739 357,-739 357,-775"/>
<text text-anchor="middle" x="311.5" y="-753.3" font-family="Helvetica,sans-Serif" font-size="14.00">class = USA</text>
</g>
<!-- 6&#45;&gt;7 -->
<g id="edge7" class="edge">
<title>6&#45;&gt;7</title>
<path fill="none" stroke="black" d="M318.98,-811.83C317.86,-803.81 316.53,-794.2 315.3,-785.34"/>
<polygon fill="black" stroke="black" points="318.76,-784.84 313.92,-775.42 311.83,-785.8 318.76,-784.84"/>
</g>
<!-- 8 -->
<g id="node9" class="node">
<title>8</title>
<polygon fill="none" stroke="black" points="485.5,-776 375.5,-776 375.5,-738 485.5,-738 485.5,-776"/>
<text text-anchor="middle" x="430.5" y="-760.8" font-family="Helvetica,sans-Serif" font-size="14.00">latitude &lt;= 49.0</text>
<text text-anchor="middle" x="430.5" y="-745.8" font-family="Helvetica,sans-Serif" font-size="14.00">class = Canada</text>
</g>
<!-- 6&#45;&gt;8 -->
<g id="edge8" class="edge">
<title>6&#45;&gt;8</title>
<path fill="none" stroke="black" d="M349.01,-811.83C362.82,-802.71 379.73,-791.54 394.55,-781.74"/>
<polygon fill="black" stroke="black" points="396.59,-784.59 403,-776.16 392.73,-778.75 396.59,-784.59"/>
</g>
<!-- 9 -->
<g id="node10" class="node">
<title>9</title>
<polygon fill="none" stroke="black" points="496,-702 355,-702 355,-664 496,-664 496,-702"/>
<text text-anchor="middle" x="425.5" y="-686.8" font-family="Helvetica,sans-Serif" font-size="14.00">longitude &lt;= &#45;94.582</text>
<text text-anchor="middle" x="425.5" y="-671.8" font-family="Helvetica,sans-Serif" font-size="14.00">class = Canada</text>
</g>
<!-- 8&#45;&gt;9 -->
<g id="edge9" class="edge">
<title>8&#45;&gt;9</title>
<path fill="none" stroke="black" d="M429.24,-737.83C428.7,-730.13 428.07,-720.97 427.47,-712.42"/>
<polygon fill="black" stroke="black" points="430.96,-712.15 426.78,-702.41 423.98,-712.63 430.96,-712.15"/>
</g>
<!-- 54 -->
<g id="node55" class="node">
<title>54</title>
<polygon fill="none" stroke="black" points="624.5,-701 514.5,-701 514.5,-665 624.5,-665 624.5,-701"/>
<text text-anchor="middle" x="569.5" y="-679.3" font-family="Helvetica,sans-Serif" font-size="14.00">class = Canada</text>
</g>
<!-- 8&#45;&gt;54 -->
<g id="edge54" class="edge">
<title>8&#45;&gt;54</title>
<path fill="none" stroke="black" d="M465.58,-737.83C484.32,-728.12 507.54,-716.1 527.27,-705.88"/>
<polygon fill="black" stroke="black" points="529.08,-708.88 536.35,-701.17 525.86,-702.66 529.08,-708.88"/>
</g>
<!-- 10 -->
<g id="node11" class="node">
<title>10</title>
<polygon fill="none" stroke="black" points="419,-628 270,-628 270,-590 419,-590 419,-628"/>
<text text-anchor="middle" x="344.5" y="-612.8" font-family="Helvetica,sans-Serif" font-size="14.00">longitude &lt;= &#45;123.222</text>
<text text-anchor="middle" x="344.5" y="-597.8" font-family="Helvetica,sans-Serif" font-size="14.00">class = USA</text>
</g>
<!-- 9&#45;&gt;10 -->
<g id="edge10" class="edge">
<title>9&#45;&gt;10</title>
<path fill="none" stroke="black" d="M405.06,-663.83C395.18,-655.05 383.17,-644.37 372.45,-634.85"/>
<polygon fill="black" stroke="black" points="374.73,-632.19 364.93,-628.16 370.08,-637.42 374.73,-632.19"/>
</g>
<!-- 13 -->
<g id="node14" class="node">
<title>13</title>
<polygon fill="none" stroke="black" points="578,-628 437,-628 437,-590 578,-590 578,-628"/>
<text text-anchor="middle" x="507.5" y="-612.8" font-family="Helvetica,sans-Serif" font-size="14.00">longitude &lt;= &#45;69.246</text>
<text text-anchor="middle" x="507.5" y="-597.8" font-family="Helvetica,sans-Serif" font-size="14.00">class = Canada</text>
</g>
<!-- 9&#45;&gt;13 -->
<g id="edge13" class="edge">
<title>9&#45;&gt;13</title>
<path fill="none" stroke="black" d="M446.19,-663.83C456.19,-655.05 468.36,-644.37 479.2,-634.85"/>
<polygon fill="black" stroke="black" points="481.61,-637.39 486.81,-628.16 476.99,-632.13 481.61,-637.39"/>
</g>
<!-- 11 -->
<g id="node12" class="node">
<title>11</title>
<polygon fill="none" stroke="black" points="290.5,-553 180.5,-553 180.5,-517 290.5,-517 290.5,-553"/>
<text text-anchor="middle" x="235.5" y="-531.3" font-family="Helvetica,sans-Serif" font-size="14.00">class = Canada</text>
</g>
<!-- 10&#45;&gt;11 -->
<g id="edge11" class="edge">
<title>10&#45;&gt;11</title>
<path fill="none" stroke="black" d="M316.99,-589.83C302.76,-580.43 285.24,-568.86 270.09,-558.85"/>
<polygon fill="black" stroke="black" points="271.77,-555.76 261.5,-553.17 267.91,-561.6 271.77,-555.76"/>
</g>
<!-- 12 -->
<g id="node13" class="node">
<title>12</title>
<polygon fill="none" stroke="black" points="400,-553 309,-553 309,-517 400,-517 400,-553"/>
<text text-anchor="middle" x="354.5" y="-531.3" font-family="Helvetica,sans-Serif" font-size="14.00">class = USA</text>
</g>
<!-- 10&#45;&gt;12 -->
<g id="edge12" class="edge">
<title>10&#45;&gt;12</title>
<path fill="none" stroke="black" d="M347.02,-589.83C348.14,-581.81 349.47,-572.2 350.7,-563.34"/>
<polygon fill="black" stroke="black" points="354.17,-563.8 352.08,-553.42 347.24,-562.84 354.17,-563.8"/>
</g>
<!-- 14 -->
<g id="node15" class="node">
<title>14</title>
<polygon fill="none" stroke="black" points="561,-554 436,-554 436,-516 561,-516 561,-554"/>
<text text-anchor="middle" x="498.5" y="-538.8" font-family="Helvetica,sans-Serif" font-size="14.00">latitude &lt;= 43.093</text>
<text text-anchor="middle" x="498.5" y="-523.8" font-family="Helvetica,sans-Serif" font-size="14.00">class = Canada</text>
</g>
<!-- 13&#45;&gt;14 -->
<g id="edge14" class="edge">
<title>13&#45;&gt;14</title>
<path fill="none" stroke="black" d="M505.23,-589.83C504.27,-582.13 503.12,-572.97 502.05,-564.42"/>
<polygon fill="black" stroke="black" points="505.52,-563.9 500.8,-554.41 498.57,-564.77 505.52,-563.9"/>
</g>
<!-- 37 -->
<g id="node38" class="node">
<title>37</title>
<polygon fill="none" stroke="black" points="824,-554 683,-554 683,-516 824,-516 824,-554"/>
<text text-anchor="middle" x="753.5" y="-538.8" font-family="Helvetica,sans-Serif" font-size="14.00">longitude &lt;= &#45;66.952</text>
<text text-anchor="middle" x="753.5" y="-523.8" font-family="Helvetica,sans-Serif" font-size="14.00">class = Canada</text>
</g>
<!-- 13&#45;&gt;37 -->
<g id="edge37" class="edge">
<title>13&#45;&gt;37</title>
<path fill="none" stroke="black" d="M569.26,-589.92C603.47,-579.91 646.18,-567.41 681.85,-556.97"/>
<polygon fill="black" stroke="black" points="683.1,-560.25 691.72,-554.08 681.14,-553.53 683.1,-560.25"/>
</g>
<!-- 15 -->
<g id="node16" class="node">
<title>15</title>
<polygon fill="none" stroke="black" points="416,-480 275,-480 275,-442 416,-442 416,-480"/>
<text text-anchor="middle" x="345.5" y="-464.8" font-family="Helvetica,sans-Serif" font-size="14.00">longitude &lt;= &#45;81.845</text>
<text text-anchor="middle" x="345.5" y="-449.8" font-family="Helvetica,sans-Serif" font-size="14.00">class = Canada</text>
</g>
<!-- 14&#45;&gt;15 -->
<g id="edge15" class="edge">
<title>14&#45;&gt;15</title>
<path fill="none" stroke="black" d="M459.89,-515.83C439.61,-506.29 414.58,-494.51 393.1,-484.4"/>
<polygon fill="black" stroke="black" points="394.37,-481.13 383.83,-480.04 391.39,-487.46 394.37,-481.13"/>
</g>
<!-- 20 -->
<g id="node21" class="node">
<title>20</title>
<polygon fill="none" stroke="black" points="561,-480 436,-480 436,-442 561,-442 561,-480"/>
<text text-anchor="middle" x="498.5" y="-464.8" font-family="Helvetica,sans-Serif" font-size="14.00">latitude &lt;= 44.992</text>
<text text-anchor="middle" x="498.5" y="-449.8" font-family="Helvetica,sans-Serif" font-size="14.00">class = Canada</text>
</g>
<!-- 14&#45;&gt;20 -->
<g id="edge20" class="edge">
<title>14&#45;&gt;20</title>
<path fill="none" stroke="black" d="M498.5,-515.83C498.5,-508.13 498.5,-498.97 498.5,-490.42"/>
<polygon fill="black" stroke="black" points="502,-490.41 498.5,-480.41 495,-490.41 502,-490.41"/>
</g>
<!-- 16 -->
<g id="node17" class="node">
<title>16</title>
<polygon fill="none" stroke="black" points="265,-405 174,-405 174,-369 265,-369 265,-405"/>
<text text-anchor="middle" x="219.5" y="-383.3" font-family="Helvetica,sans-Serif" font-size="14.00">class = USA</text>
</g>
<!-- 15&#45;&gt;16 -->
<g id="edge16" class="edge">
<title>15&#45;&gt;16</title>
<path fill="none" stroke="black" d="M313.7,-441.83C296.94,-432.25 276.24,-420.42 258.51,-410.29"/>
<polygon fill="black" stroke="black" points="259.97,-407.09 249.55,-405.17 256.5,-413.17 259.97,-407.09"/>
</g>
<!-- 17 -->
<g id="node18" class="node">
<title>17</title>
<polygon fill="none" stroke="black" points="408,-406 283,-406 283,-368 408,-368 408,-406"/>
<text text-anchor="middle" x="345.5" y="-390.8" font-family="Helvetica,sans-Serif" font-size="14.00">latitude &lt;= 43.039</text>
<text text-anchor="middle" x="345.5" y="-375.8" font-family="Helvetica,sans-Serif" font-size="14.00">class = Canada</text>
</g>
<!-- 15&#45;&gt;17 -->
<g id="edge17" class="edge">
<title>15&#45;&gt;17</title>
<path fill="none" stroke="black" d="M345.5,-441.83C345.5,-434.13 345.5,-424.97 345.5,-416.42"/>
<polygon fill="black" stroke="black" points="349,-416.41 345.5,-406.41 342,-416.41 349,-416.41"/>
</g>
<!-- 18 -->
<g id="node19" class="node">
<title>18</title>
<polygon fill="none" stroke="black" points="281.5,-331 171.5,-331 171.5,-295 281.5,-295 281.5,-331"/>
<text text-anchor="middle" x="226.5" y="-309.3" font-family="Helvetica,sans-Serif" font-size="14.00">class = Canada</text>
</g>
<!-- 17&#45;&gt;18 -->
<g id="edge18" class="edge">
<title>17&#45;&gt;18</title>
<path fill="none" stroke="black" d="M315.47,-367.83C299.79,-358.34 280.44,-346.64 263.81,-336.57"/>
<polygon fill="black" stroke="black" points="265.25,-333.35 254.88,-331.17 261.62,-339.34 265.25,-333.35"/>
</g>
<!-- 19 -->
<g id="node20" class="node">
<title>19</title>
<polygon fill="none" stroke="black" points="391,-331 300,-331 300,-295 391,-295 391,-331"/>
<text text-anchor="middle" x="345.5" y="-309.3" font-family="Helvetica,sans-Serif" font-size="14.00">class = USA</text>
</g>
<!-- 17&#45;&gt;19 -->
<g id="edge19" class="edge">
<title>17&#45;&gt;19</title>
<path fill="none" stroke="black" d="M345.5,-367.83C345.5,-359.89 345.5,-350.41 345.5,-341.63"/>
<polygon fill="black" stroke="black" points="349,-341.42 345.5,-331.42 342,-341.42 349,-341.42"/>
</g>
<!-- 21 -->
<g id="node22" class="node">
<title>21</title>
<polygon fill="none" stroke="black" points="556,-406 431,-406 431,-368 556,-368 556,-406"/>
<text text-anchor="middle" x="493.5" y="-390.8" font-family="Helvetica,sans-Serif" font-size="14.00">latitude &lt;= 44.542</text>
<text text-anchor="middle" x="493.5" y="-375.8" font-family="Helvetica,sans-Serif" font-size="14.00">class = Canada</text>
</g>
<!-- 20&#45;&gt;21 -->
<g id="edge21" class="edge">
<title>20&#45;&gt;21</title>
<path fill="none" stroke="black" d="M497.24,-441.83C496.7,-434.13 496.07,-424.97 495.47,-416.42"/>
<polygon fill="black" stroke="black" points="498.96,-416.15 494.78,-406.41 491.98,-416.63 498.96,-416.15"/>
</g>
<!-- 36 -->
<g id="node37" class="node">
<title>36</title>
<polygon fill="none" stroke="black" points="684.5,-405 574.5,-405 574.5,-369 684.5,-369 684.5,-405"/>
<text text-anchor="middle" x="629.5" y="-383.3" font-family="Helvetica,sans-Serif" font-size="14.00">class = Canada</text>
</g>
<!-- 20&#45;&gt;36 -->
<g id="edge36" class="edge">
<title>20&#45;&gt;36</title>
<path fill="none" stroke="black" d="M531.56,-441.83C549.14,-432.17 570.91,-420.2 589.45,-410.01"/>
<polygon fill="black" stroke="black" points="591.18,-413.06 598.26,-405.17 587.81,-406.92 591.18,-413.06"/>
</g>
<!-- 22 -->
<g id="node23" class="node">
<title>22</title>
<polygon fill="none" stroke="black" points="550,-332 409,-332 409,-294 550,-294 550,-332"/>
<text text-anchor="middle" x="479.5" y="-316.8" font-family="Helvetica,sans-Serif" font-size="14.00">longitude &lt;= &#45;79.076</text>
<text text-anchor="middle" x="479.5" y="-301.8" font-family="Helvetica,sans-Serif" font-size="14.00">class = Canada</text>
</g>
<!-- 21&#45;&gt;22 -->
<g id="edge22" class="edge">
<title>21&#45;&gt;22</title>
<path fill="none" stroke="black" d="M489.97,-367.83C488.47,-360.13 486.69,-350.97 485.03,-342.42"/>
<polygon fill="black" stroke="black" points="488.42,-341.56 483.08,-332.41 481.55,-342.9 488.42,-341.56"/>
</g>
<!-- 31 -->
<g id="node32" class="node">
<title>31</title>
<polygon fill="none" stroke="black" points="709,-332 568,-332 568,-294 709,-294 709,-332"/>
<text text-anchor="middle" x="638.5" y="-316.8" font-family="Helvetica,sans-Serif" font-size="14.00">longitude &lt;= &#45;84.392</text>
<text text-anchor="middle" x="638.5" y="-301.8" font-family="Helvetica,sans-Serif" font-size="14.00">class = USA</text>
</g>
<!-- 21&#45;&gt;31 -->
<g id="edge31" class="edge">
<title>21&#45;&gt;31</title>
<path fill="none" stroke="black" d="M530.09,-367.83C549.22,-358.33 572.82,-346.61 593.11,-336.54"/>
<polygon fill="black" stroke="black" points="594.77,-339.62 602.17,-332.04 591.66,-333.35 594.77,-339.62"/>
</g>
<!-- 23 -->
<g id="node24" class="node">
<title>23</title>
<polygon fill="none" stroke="black" points="398.5,-257 288.5,-257 288.5,-221 398.5,-221 398.5,-257"/>
<text text-anchor="middle" x="343.5" y="-235.3" font-family="Helvetica,sans-Serif" font-size="14.00">class = Canada</text>
</g>
<!-- 22&#45;&gt;23 -->
<g id="edge23" class="edge">
<title>22&#45;&gt;23</title>
<path fill="none" stroke="black" d="M445.18,-293.83C426.84,-284.12 404.13,-272.1 384.82,-261.88"/>
<polygon fill="black" stroke="black" points="386.41,-258.76 375.93,-257.17 383.14,-264.94 386.41,-258.76"/>
</g>
<!-- 24 -->
<g id="node25" class="node">
<title>24</title>
<polygon fill="none" stroke="black" points="542,-258 417,-258 417,-220 542,-220 542,-258"/>
<text text-anchor="middle" x="479.5" y="-242.8" font-family="Helvetica,sans-Serif" font-size="14.00">latitude &lt;= 44.168</text>
<text text-anchor="middle" x="479.5" y="-227.8" font-family="Helvetica,sans-Serif" font-size="14.00">class = Canada</text>
</g>
<!-- 22&#45;&gt;24 -->
<g id="edge24" class="edge">
<title>22&#45;&gt;24</title>
<path fill="none" stroke="black" d="M479.5,-293.83C479.5,-286.13 479.5,-276.97 479.5,-268.42"/>
<polygon fill="black" stroke="black" points="483,-268.41 479.5,-258.41 476,-268.41 483,-268.41"/>
</g>
<!-- 25 -->
<g id="node26" class="node">
<title>25</title>
<polygon fill="none" stroke="black" points="412,-184 287,-184 287,-146 412,-146 412,-184"/>
<text text-anchor="middle" x="349.5" y="-168.8" font-family="Helvetica,sans-Serif" font-size="14.00">latitude &lt;= 43.511</text>
<text text-anchor="middle" x="349.5" y="-153.8" font-family="Helvetica,sans-Serif" font-size="14.00">class = USA</text>
</g>
<!-- 24&#45;&gt;25 -->
<g id="edge25" class="edge">
<title>24&#45;&gt;25</title>
<path fill="none" stroke="black" d="M446.7,-219.83C429.91,-210.54 409.3,-199.12 391.38,-189.2"/>
<polygon fill="black" stroke="black" points="392.74,-185.95 382.29,-184.16 389.35,-192.07 392.74,-185.95"/>
</g>
<!-- 30 -->
<g id="node31" class="node">
<title>30</title>
<polygon fill="none" stroke="black" points="540.5,-183 430.5,-183 430.5,-147 540.5,-147 540.5,-183"/>
<text text-anchor="middle" x="485.5" y="-161.3" font-family="Helvetica,sans-Serif" font-size="14.00">class = Canada</text>
</g>
<!-- 24&#45;&gt;30 -->
<g id="edge30" class="edge">
<title>24&#45;&gt;30</title>
<path fill="none" stroke="black" d="M481.01,-219.83C481.68,-211.89 482.47,-202.41 483.2,-193.63"/>
<polygon fill="black" stroke="black" points="486.71,-193.67 484.05,-183.42 479.73,-193.09 486.71,-193.67"/>
</g>
<!-- 26 -->
<g id="node27" class="node">
<title>26</title>
<polygon fill="none" stroke="black" points="332,-109 241,-109 241,-73 332,-73 332,-109"/>
<text text-anchor="middle" x="286.5" y="-87.3" font-family="Helvetica,sans-Serif" font-size="14.00">class = USA</text>
</g>
<!-- 25&#45;&gt;26 -->
<g id="edge26" class="edge">
<title>25&#45;&gt;26</title>
<path fill="none" stroke="black" d="M333.6,-145.83C325.97,-137.11 316.7,-126.52 308.42,-117.05"/>
<polygon fill="black" stroke="black" points="310.96,-114.64 301.74,-109.42 305.69,-119.25 310.96,-114.64"/>
</g>
<!-- 27 -->
<g id="node28" class="node">
<title>27</title>
<polygon fill="none" stroke="black" points="475,-110 350,-110 350,-72 475,-72 475,-110"/>
<text text-anchor="middle" x="412.5" y="-94.8" font-family="Helvetica,sans-Serif" font-size="14.00">latitude &lt;= 43.988</text>
<text text-anchor="middle" x="412.5" y="-79.8" font-family="Helvetica,sans-Serif" font-size="14.00">class = Canada</text>
</g>
<!-- 25&#45;&gt;27 -->
<g id="edge27" class="edge">
<title>25&#45;&gt;27</title>
<path fill="none" stroke="black" d="M365.4,-145.83C372.73,-137.45 381.57,-127.35 389.6,-118.17"/>
<polygon fill="black" stroke="black" points="392.44,-120.24 396.39,-110.41 387.17,-115.63 392.44,-120.24"/>
</g>
<!-- 28 -->
<g id="node29" class="node">
<title>28</title>
<polygon fill="none" stroke="black" points="408.5,-36 298.5,-36 298.5,0 408.5,0 408.5,-36"/>
<text text-anchor="middle" x="353.5" y="-14.3" font-family="Helvetica,sans-Serif" font-size="14.00">class = Canada</text>
</g>
<!-- 27&#45;&gt;28 -->
<g id="edge28" class="edge">
<title>27&#45;&gt;28</title>
<path fill="none" stroke="black" d="M397.31,-71.72C390.23,-63.2 381.7,-52.94 374.06,-43.74"/>
<polygon fill="black" stroke="black" points="376.71,-41.46 367.63,-36 371.33,-45.93 376.71,-41.46"/>
</g>
<!-- 29 -->
<g id="node30" class="node">
<title>29</title>
<polygon fill="none" stroke="black" points="518,-36 427,-36 427,0 518,0 518,-36"/>
<text text-anchor="middle" x="472.5" y="-14.3" font-family="Helvetica,sans-Serif" font-size="14.00">class = USA</text>
</g>
<!-- 27&#45;&gt;29 -->
<g id="edge29" class="edge">
<title>27&#45;&gt;29</title>
<path fill="none" stroke="black" d="M427.95,-71.72C435.15,-63.2 443.82,-52.94 451.59,-43.74"/>
<polygon fill="black" stroke="black" points="454.35,-45.9 458.13,-36 449,-41.38 454.35,-45.9"/>
</g>
<!-- 32 -->
<g id="node33" class="node">
<title>32</title>
<polygon fill="none" stroke="black" points="651,-257 560,-257 560,-221 651,-221 651,-257"/>
<text text-anchor="middle" x="605.5" y="-235.3" font-family="Helvetica,sans-Serif" font-size="14.00">class = USA</text>
</g>
<!-- 31&#45;&gt;32 -->
<g id="edge32" class="edge">
<title>31&#45;&gt;32</title>
<path fill="none" stroke="black" d="M630.17,-293.83C626.41,-285.63 621.9,-275.78 617.77,-266.76"/>
<polygon fill="black" stroke="black" points="620.83,-265.05 613.48,-257.42 614.47,-267.97 620.83,-265.05"/>
</g>
<!-- 33 -->
<g id="node34" class="node">
<title>33</title>
<polygon fill="none" stroke="black" points="810,-258 669,-258 669,-220 810,-220 810,-258"/>
<text text-anchor="middle" x="739.5" y="-242.8" font-family="Helvetica,sans-Serif" font-size="14.00">longitude &lt;= &#45;75.503</text>
<text text-anchor="middle" x="739.5" y="-227.8" font-family="Helvetica,sans-Serif" font-size="14.00">class = Canada</text>
</g>
<!-- 31&#45;&gt;33 -->
<g id="edge33" class="edge">
<title>31&#45;&gt;33</title>
<path fill="none" stroke="black" d="M663.99,-293.83C676.67,-284.79 692.16,-273.75 705.81,-264.02"/>
<polygon fill="black" stroke="black" points="707.91,-266.82 714.02,-258.16 703.85,-261.12 707.91,-266.82"/>
</g>
<!-- 34 -->
<g id="node35" class="node">
<title>34</title>
<polygon fill="none" stroke="black" points="675.5,-183 565.5,-183 565.5,-147 675.5,-147 675.5,-183"/>
<text text-anchor="middle" x="620.5" y="-161.3" font-family="Helvetica,sans-Serif" font-size="14.00">class = Canada</text>
</g>
<!-- 33&#45;&gt;34 -->
<g id="edge34" class="edge">
<title>33&#45;&gt;34</title>
<path fill="none" stroke="black" d="M709.47,-219.83C693.79,-210.34 674.44,-198.64 657.81,-188.57"/>
<polygon fill="black" stroke="black" points="659.25,-185.35 648.88,-183.17 655.62,-191.34 659.25,-185.35"/>
</g>
<!-- 35 -->
<g id="node36" class="node">
<title>35</title>
<polygon fill="none" stroke="black" points="785,-183 694,-183 694,-147 785,-147 785,-183"/>
<text text-anchor="middle" x="739.5" y="-161.3" font-family="Helvetica,sans-Serif" font-size="14.00">class = USA</text>
</g>
<!-- 33&#45;&gt;35 -->
<g id="edge35" class="edge">
<title>33&#45;&gt;35</title>
<path fill="none" stroke="black" d="M739.5,-219.83C739.5,-211.89 739.5,-202.41 739.5,-193.63"/>
<polygon fill="black" stroke="black" points="743,-193.42 739.5,-183.42 736,-193.42 743,-193.42"/>
</g>
<!-- 38 -->
<g id="node39" class="node">
<title>38</title>
<polygon fill="none" stroke="black" points="816,-480 691,-480 691,-442 816,-442 816,-480"/>
<text text-anchor="middle" x="753.5" y="-464.8" font-family="Helvetica,sans-Serif" font-size="14.00">latitude &lt;= 45.195</text>
<text text-anchor="middle" x="753.5" y="-449.8" font-family="Helvetica,sans-Serif" font-size="14.00">class = USA</text>
</g>
<!-- 37&#45;&gt;38 -->
<g id="edge38" class="edge">
<title>37&#45;&gt;38</title>
<path fill="none" stroke="black" d="M753.5,-515.83C753.5,-508.13 753.5,-498.97 753.5,-490.42"/>
<polygon fill="black" stroke="black" points="757,-490.41 753.5,-480.41 750,-490.41 757,-490.41"/>
</g>
<!-- 53 -->
<g id="node54" class="node">
<title>53</title>
<polygon fill="none" stroke="black" points="944.5,-479 834.5,-479 834.5,-443 944.5,-443 944.5,-479"/>
<text text-anchor="middle" x="889.5" y="-457.3" font-family="Helvetica,sans-Serif" font-size="14.00">class = Canada</text>
</g>
<!-- 37&#45;&gt;53 -->
<g id="edge53" class="edge">
<title>37&#45;&gt;53</title>
<path fill="none" stroke="black" d="M787.82,-515.83C806.16,-506.12 828.87,-494.1 848.18,-483.88"/>
<polygon fill="black" stroke="black" points="849.86,-486.94 857.07,-479.17 846.59,-480.76 849.86,-486.94"/>
</g>
<!-- 39 -->
<g id="node40" class="node">
<title>39</title>
<polygon fill="none" stroke="black" points="799,-405 708,-405 708,-369 799,-369 799,-405"/>
<text text-anchor="middle" x="753.5" y="-383.3" font-family="Helvetica,sans-Serif" font-size="14.00">class = USA</text>
</g>
<!-- 38&#45;&gt;39 -->
<g id="edge39" class="edge">
<title>38&#45;&gt;39</title>
<path fill="none" stroke="black" d="M753.5,-441.83C753.5,-433.89 753.5,-424.41 753.5,-415.63"/>
<polygon fill="black" stroke="black" points="757,-415.42 753.5,-405.42 750,-415.42 757,-415.42"/>
</g>
<!-- 40 -->
<g id="node41" class="node">
<title>40</title>
<polygon fill="none" stroke="black" points="1010.5,-406 876.5,-406 876.5,-368 1010.5,-368 1010.5,-406"/>
<text text-anchor="middle" x="943.5" y="-390.8" font-family="Helvetica,sans-Serif" font-size="14.00">longitude &lt;= &#45;67.93</text>
<text text-anchor="middle" x="943.5" y="-375.8" font-family="Helvetica,sans-Serif" font-size="14.00">class = Canada</text>
</g>
<!-- 38&#45;&gt;40 -->
<g id="edge40" class="edge">
<title>38&#45;&gt;40</title>
<path fill="none" stroke="black" d="M801.45,-441.83C827.31,-432.03 859.4,-419.87 886.53,-409.59"/>
<polygon fill="black" stroke="black" points="887.79,-412.85 895.9,-406.04 885.31,-406.31 887.79,-412.85"/>
</g>
<!-- 41 -->
<g id="node42" class="node">
<title>41</title>
<polygon fill="none" stroke="black" points="1014,-332 873,-332 873,-294 1014,-294 1014,-332"/>
<text text-anchor="middle" x="943.5" y="-316.8" font-family="Helvetica,sans-Serif" font-size="14.00">longitude &lt;= &#45;68.325</text>
<text text-anchor="middle" x="943.5" y="-301.8" font-family="Helvetica,sans-Serif" font-size="14.00">class = USA</text>
</g>
<!-- 40&#45;&gt;41 -->
<g id="edge41" class="edge">
<title>40&#45;&gt;41</title>
<path fill="none" stroke="black" d="M943.5,-367.83C943.5,-360.13 943.5,-350.97 943.5,-342.42"/>
<polygon fill="black" stroke="black" points="947,-342.41 943.5,-332.41 940,-342.41 947,-342.41"/>
</g>
<!-- 48 -->
<g id="node49" class="node">
<title>48</title>
<polygon fill="none" stroke="black" points="1209,-332 1084,-332 1084,-294 1209,-294 1209,-332"/>
<text text-anchor="middle" x="1146.5" y="-316.8" font-family="Helvetica,sans-Serif" font-size="14.00">latitude &lt;= 45.565</text>
<text text-anchor="middle" x="1146.5" y="-301.8" font-family="Helvetica,sans-Serif" font-size="14.00">class = Canada</text>
</g>
<!-- 40&#45;&gt;48 -->
<g id="edge48" class="edge">
<title>40&#45;&gt;48</title>
<path fill="none" stroke="black" d="M994.46,-367.92C1022.21,-358.08 1056.73,-345.84 1085.86,-335.51"/>
<polygon fill="black" stroke="black" points="1087.26,-338.72 1095.52,-332.08 1084.92,-332.13 1087.26,-338.72"/>
</g>
<!-- 42 -->
<g id="node43" class="node">
<title>42</title>
<polygon fill="none" stroke="black" points="955,-258 830,-258 830,-220 955,-220 955,-258"/>
<text text-anchor="middle" x="892.5" y="-242.8" font-family="Helvetica,sans-Serif" font-size="14.00">latitude &lt;= 47.256</text>
<text text-anchor="middle" x="892.5" y="-227.8" font-family="Helvetica,sans-Serif" font-size="14.00">class = Canada</text>
</g>
<!-- 41&#45;&gt;42 -->
<g id="edge42" class="edge">
<title>41&#45;&gt;42</title>
<path fill="none" stroke="black" d="M930.63,-293.83C924.82,-285.62 917.83,-275.76 911.44,-266.73"/>
<polygon fill="black" stroke="black" points="914.18,-264.55 905.54,-258.41 908.47,-268.6 914.18,-264.55"/>
</g>
<!-- 47 -->
<g id="node48" class="node">
<title>47</title>
<polygon fill="none" stroke="black" points="1064,-257 973,-257 973,-221 1064,-221 1064,-257"/>
<text text-anchor="middle" x="1018.5" y="-235.3" font-family="Helvetica,sans-Serif" font-size="14.00">class = USA</text>
</g>
<!-- 41&#45;&gt;47 -->
<g id="edge47" class="edge">
<title>41&#45;&gt;47</title>
<path fill="none" stroke="black" d="M962.43,-293.83C971.76,-284.87 983.15,-273.93 993.23,-264.26"/>
<polygon fill="black" stroke="black" points="995.82,-266.62 1000.61,-257.17 990.98,-261.57 995.82,-266.62"/>
</g>
<!-- 43 -->
<g id="node44" class="node">
<title>43</title>
<polygon fill="none" stroke="black" points="913.5,-183 803.5,-183 803.5,-147 913.5,-147 913.5,-183"/>
<text text-anchor="middle" x="858.5" y="-161.3" font-family="Helvetica,sans-Serif" font-size="14.00">class = Canada</text>
</g>
<!-- 42&#45;&gt;43 -->
<g id="edge43" class="edge">
<title>42&#45;&gt;43</title>
<path fill="none" stroke="black" d="M883.92,-219.83C880.01,-211.55 875.3,-201.57 871,-192.47"/>
<polygon fill="black" stroke="black" points="874.16,-190.97 866.73,-183.42 867.83,-193.95 874.16,-190.97"/>
</g>
<!-- 44 -->
<g id="node45" class="node">
<title>44</title>
<polygon fill="none" stroke="black" points="1073,-184 932,-184 932,-146 1073,-146 1073,-184"/>
<text text-anchor="middle" x="1002.5" y="-168.8" font-family="Helvetica,sans-Serif" font-size="14.00">longitude &lt;= &#45;68.459</text>
<text text-anchor="middle" x="1002.5" y="-153.8" font-family="Helvetica,sans-Serif" font-size="14.00">class = USA</text>
</g>
<!-- 42&#45;&gt;44 -->
<g id="edge44" class="edge">
<title>42&#45;&gt;44</title>
<path fill="none" stroke="black" d="M920.26,-219.83C934.2,-210.71 951.26,-199.54 966.22,-189.74"/>
<polygon fill="black" stroke="black" points="968.3,-192.57 974.75,-184.16 964.47,-186.71 968.3,-192.57"/>
</g>
<!-- 45 -->
<g id="node46" class="node">
<title>45</title>
<polygon fill="none" stroke="black" points="988,-109 897,-109 897,-73 988,-73 988,-109"/>
<text text-anchor="middle" x="942.5" y="-87.3" font-family="Helvetica,sans-Serif" font-size="14.00">class = USA</text>
</g>
<!-- 44&#45;&gt;45 -->
<g id="edge45" class="edge">
<title>44&#45;&gt;45</title>
<path fill="none" stroke="black" d="M987.36,-145.83C980.16,-137.2 971.44,-126.73 963.61,-117.33"/>
<polygon fill="black" stroke="black" points="966.11,-114.86 957.01,-109.42 960.73,-119.34 966.11,-114.86"/>
</g>
<!-- 46 -->
<g id="node47" class="node">
<title>46</title>
<polygon fill="none" stroke="black" points="1116.5,-109 1006.5,-109 1006.5,-73 1116.5,-73 1116.5,-109"/>
<text text-anchor="middle" x="1061.5" y="-87.3" font-family="Helvetica,sans-Serif" font-size="14.00">class = Canada</text>
</g>
<!-- 44&#45;&gt;46 -->
<g id="edge46" class="edge">
<title>44&#45;&gt;46</title>
<path fill="none" stroke="black" d="M1017.39,-145.83C1024.46,-137.2 1033.04,-126.73 1040.74,-117.33"/>
<polygon fill="black" stroke="black" points="1043.6,-119.37 1047.23,-109.42 1038.18,-114.93 1043.6,-119.37"/>
</g>
<!-- 49 -->
<g id="node50" class="node">
<title>49</title>
<polygon fill="none" stroke="black" points="1209,-258 1084,-258 1084,-220 1209,-220 1209,-258"/>
<text text-anchor="middle" x="1146.5" y="-242.8" font-family="Helvetica,sans-Serif" font-size="14.00">latitude &lt;= 45.382</text>
<text text-anchor="middle" x="1146.5" y="-227.8" font-family="Helvetica,sans-Serif" font-size="14.00">class = Canada</text>
</g>
<!-- 48&#45;&gt;49 -->
<g id="edge49" class="edge">
<title>48&#45;&gt;49</title>
<path fill="none" stroke="black" d="M1146.5,-293.83C1146.5,-286.13 1146.5,-276.97 1146.5,-268.42"/>
<polygon fill="black" stroke="black" points="1150,-268.41 1146.5,-258.41 1143,-268.41 1150,-268.41"/>
</g>
<!-- 52 -->
<g id="node53" class="node">
<title>52</title>
<polygon fill="none" stroke="black" points="1337.5,-257 1227.5,-257 1227.5,-221 1337.5,-221 1337.5,-257"/>
<text text-anchor="middle" x="1282.5" y="-235.3" font-family="Helvetica,sans-Serif" font-size="14.00">class = Canada</text>
</g>
<!-- 48&#45;&gt;52 -->
<g id="edge52" class="edge">
<title>48&#45;&gt;52</title>
<path fill="none" stroke="black" d="M1180.82,-293.83C1199.16,-284.12 1221.87,-272.1 1241.18,-261.88"/>
<polygon fill="black" stroke="black" points="1242.86,-264.94 1250.07,-257.17 1239.59,-258.76 1242.86,-264.94"/>
</g>
<!-- 50 -->
<g id="node51" class="node">
<title>50</title>
<polygon fill="none" stroke="black" points="1201.5,-183 1091.5,-183 1091.5,-147 1201.5,-147 1201.5,-183"/>
<text text-anchor="middle" x="1146.5" y="-161.3" font-family="Helvetica,sans-Serif" font-size="14.00">class = Canada</text>
</g>
<!-- 49&#45;&gt;50 -->
<g id="edge50" class="edge">
<title>49&#45;&gt;50</title>
<path fill="none" stroke="black" d="M1146.5,-219.83C1146.5,-211.89 1146.5,-202.41 1146.5,-193.63"/>
<polygon fill="black" stroke="black" points="1150,-193.42 1146.5,-183.42 1143,-193.42 1150,-193.42"/>
</g>
<!-- 51 -->
<g id="node52" class="node">
<title>51</title>
<polygon fill="none" stroke="black" points="1311,-183 1220,-183 1220,-147 1311,-147 1311,-183"/>
<text text-anchor="middle" x="1265.5" y="-161.3" font-family="Helvetica,sans-Serif" font-size="14.00">class = USA</text>
</g>
<!-- 49&#45;&gt;51 -->
<g id="edge51" class="edge">
<title>49&#45;&gt;51</title>
<path fill="none" stroke="black" d="M1176.53,-219.83C1192.21,-210.34 1211.56,-198.64 1228.19,-188.57"/>
<polygon fill="black" stroke="black" points="1230.38,-191.34 1237.12,-183.17 1226.75,-185.35 1230.38,-191.34"/>
</g>
</g>
</svg>
