<?xml version="1.0" encoding="UTF-8" standalone="no"?>
<!DOCTYPE svg PUBLIC "-//W3C//DTD SVG 1.1//EN"
 "http://www.w3.org/Graphics/SVG/1.1/DTD/svg11.dtd">
<!-- Generated by graphviz version 5.0.1 (0)
 -->
<!-- Title: Tree Pages: 1 -->
<svg width="1171pt" height="932pt"
 viewBox="0.00 0.00 1170.50 932.00" xmlns="http://www.w3.org/2000/svg" xmlns:xlink="http://www.w3.org/1999/xlink">
<g id="graph0" class="graph" transform="scale(1 1) rotate(0) translate(4 928)">
<title>Tree</title>
<polygon fill="white" stroke="none" points="-4,4 -4,-928 1166.5,-928 1166.5,4 -4,4"/>
<!-- 0 -->
<g id="node1" class="node">
<title>0</title>
<polygon fill="none" stroke="black" points="427.5,-924 317.5,-924 317.5,-886 427.5,-886 427.5,-924"/>
<text text-anchor="middle" x="372.5" y="-908.8" font-family="Helvetica,sans-Serif" font-size="14.00">latitude &lt;= 42.9</text>
<text text-anchor="middle" x="372.5" y="-893.8" font-family="Helvetica,sans-Serif" font-size="14.00">class = Canada</text>
</g>
<!-- 1 -->
<g id="node2" class="node">
<title>1</title>
<polygon fill="none" stroke="black" points="364,-850 239,-850 239,-812 364,-812 364,-850"/>
<text text-anchor="middle" x="301.5" y="-834.8" font-family="Helvetica,sans-Serif" font-size="14.00">latitude &lt;= 42.096</text>
<text text-anchor="middle" x="301.5" y="-819.8" font-family="Helvetica,sans-Serif" font-size="14.00">class = USA</text>
</g>
<!-- 0&#45;&gt;1 -->
<g id="edge1" class="edge">
<title>0&#45;&gt;1</title>
<path fill="none" stroke="black" d="M354.58,-885.83C346.16,-877.28 335.96,-866.94 326.76,-857.62"/>
<polygon fill="black" stroke="black" points="329.17,-855.08 319.66,-850.41 324.19,-859.99 329.17,-855.08"/>
<text text-anchor="middle" x="319.48" y="-871.71" font-family="Helvetica,sans-Serif" font-size="14.00">True</text>
</g>
<!-- 6 -->
<g id="node7" class="node">
<title>6</title>
<polygon fill="none" stroke="black" points="507,-850 382,-850 382,-812 507,-812 507,-850"/>
<text text-anchor="middle" x="444.5" y="-834.8" font-family="Helvetica,sans-Serif" font-size="14.00">latitude &lt;= 55.958</text>
<text text-anchor="middle" x="444.5" y="-819.8" font-family="Helvetica,sans-Serif" font-size="14.00">class = Canada</text>
</g>
<!-- 0&#45;&gt;6 -->
<g id="edge6" class="edge">
<title>0&#45;&gt;6</title>
<path fill="none" stroke="black" d="M390.67,-885.83C399.22,-877.28 409.56,-866.94 418.88,-857.62"/>
<polygon fill="black" stroke="black" points="421.49,-859.96 426.09,-850.41 416.54,-855.01 421.49,-859.96"/>
<text text-anchor="middle" x="426.09" y="-871.71" font-family="Helvetica,sans-Serif" font-size="14.00">False</text>
</g>
<!-- 2 -->
<g id="node3" class="node">
<title>2</title>
<polygon fill="none" stroke="black" points="223,-775 132,-775 132,-739 223,-739 223,-775"/>
<text text-anchor="middle" x="177.5" y="-753.3" font-family="Helvetica,sans-Serif" font-size="14.00">class = USA</text>
</g>
<!-- 1&#45;&gt;2 -->
<g id="edge2" class="edge">
<title>1&#45;&gt;2</title>
<path fill="none" stroke="black" d="M270.21,-811.83C253.71,-802.25 233.34,-790.42 215.89,-780.29"/>
<polygon fill="black" stroke="black" points="217.48,-777.17 207.07,-775.17 213.96,-783.22 217.48,-777.17"/>
</g>
<!-- 3 -->
<g id="node4" class="node">
<title>3</title>
<polygon fill="none" stroke="black" points="366,-776 241,-776 241,-738 366,-738 366,-776"/>
<text text-anchor="middle" x="303.5" y="-760.8" font-family="Helvetica,sans-Serif" font-size="14.00">latitude &lt;= 42.324</text>
<text text-anchor="middle" x="303.5" y="-745.8" font-family="Helvetica,sans-Serif" font-size="14.00">class = USA</text>
</g>
<!-- 1&#45;&gt;3 -->
<g id="edge3" class="edge">
<title>1&#45;&gt;3</title>
<path fill="none" stroke="black" d="M302,-811.83C302.22,-804.13 302.47,-794.97 302.71,-786.42"/>
<polygon fill="black" stroke="black" points="306.21,-786.51 302.99,-776.41 299.21,-786.31 306.21,-786.51"/>
</g>
<!-- 4 -->
<g id="node5" class="node">
<title>4</title>
<polygon fill="none" stroke="black" points="240.5,-701 130.5,-701 130.5,-665 240.5,-665 240.5,-701"/>
<text text-anchor="middle" x="185.5" y="-679.3" font-family="Helvetica,sans-Serif" font-size="14.00">class = Canada</text>
</g>
<!-- 3&#45;&gt;4 -->
<g id="edge4" class="edge">
<title>3&#45;&gt;4</title>
<path fill="none" stroke="black" d="M273.72,-737.83C258.17,-728.34 238.99,-716.64 222.49,-706.57"/>
<polygon fill="black" stroke="black" points="224,-703.39 213.64,-701.17 220.36,-709.37 224,-703.39"/>
</g>
<!-- 5 -->
<g id="node6" class="node">
<title>5</title>
<polygon fill="none" stroke="black" points="350,-701 259,-701 259,-665 350,-665 350,-701"/>
<text text-anchor="middle" x="304.5" y="-679.3" font-family="Helvetica,sans-Serif" font-size="14.00">class = USA</text>
</g>
<!-- 3&#45;&gt;5 -->
<g id="edge5" class="edge">
<title>3&#45;&gt;5</title>
<path fill="none" stroke="black" d="M303.75,-737.83C303.86,-729.89 303.99,-720.41 304.12,-711.63"/>
<polygon fill="black" stroke="black" points="307.62,-711.47 304.26,-701.42 300.62,-711.37 307.62,-711.47"/>
</g>
<!-- 7 -->
<g id="node8" class="node">
<title>7</title>
<polygon fill="none" stroke="black" points="498.5,-776 388.5,-776 388.5,-738 498.5,-738 498.5,-776"/>
<text text-anchor="middle" x="443.5" y="-760.8" font-family="Helvetica,sans-Serif" font-size="14.00">latitude &lt;= 49.0</text>
<text text-anchor="middle" x="443.5" y="-745.8" font-family="Helvetica,sans-Serif" font-size="14.00">class = Canada</text>
</g>
<!-- 6&#45;&gt;7 -->
<g id="edge7" class="edge">
<title>6&#45;&gt;7</title>
<path fill="none" stroke="black" d="M444.25,-811.83C444.14,-804.13 444.01,-794.97 443.89,-786.42"/>
<polygon fill="black" stroke="black" points="447.39,-786.36 443.76,-776.41 440.4,-786.46 447.39,-786.36"/>
</g>
<!-- 56 -->
<g id="node57" class="node">
<title>56</title>
<polygon fill="none" stroke="black" points="608,-775 517,-775 517,-739 608,-739 608,-775"/>
<text text-anchor="middle" x="562.5" y="-753.3" font-family="Helvetica,sans-Serif" font-size="14.00">class = USA</text>
</g>
<!-- 6&#45;&gt;56 -->
<g id="edge56" class="edge">
<title>6&#45;&gt;56</title>
<path fill="none" stroke="black" d="M474.28,-811.83C489.83,-802.34 509.01,-790.64 525.51,-780.57"/>
<polygon fill="black" stroke="black" points="527.64,-783.37 534.36,-775.17 524,-777.39 527.64,-783.37"/>
</g>
<!-- 8 -->
<g id="node9" class="node">
<title>8</title>
<polygon fill="none" stroke="black" points="513,-702 372,-702 372,-664 513,-664 513,-702"/>
<text text-anchor="middle" x="442.5" y="-686.8" font-family="Helvetica,sans-Serif" font-size="14.00">longitude &lt;= &#45;94.582</text>
<text text-anchor="middle" x="442.5" y="-671.8" font-family="Helvetica,sans-Serif" font-size="14.00">class = Canada</text>
</g>
<!-- 7&#45;&gt;8 -->
<g id="edge8" class="edge">
<title>7&#45;&gt;8</title>
<path fill="none" stroke="black" d="M443.25,-737.83C443.14,-730.13 443.01,-720.97 442.89,-712.42"/>
<polygon fill="black" stroke="black" points="446.39,-712.36 442.76,-702.41 439.4,-712.46 446.39,-712.36"/>
</g>
<!-- 55 -->
<g id="node56" class="node">
<title>55</title>
<polygon fill="none" stroke="black" points="641.5,-701 531.5,-701 531.5,-665 641.5,-665 641.5,-701"/>
<text text-anchor="middle" x="586.5" y="-679.3" font-family="Helvetica,sans-Serif" font-size="14.00">class = Canada</text>
</g>
<!-- 7&#45;&gt;55 -->
<g id="edge55" class="edge">
<title>7&#45;&gt;55</title>
<path fill="none" stroke="black" d="M479.58,-737.83C498.96,-728.08 522.97,-715.99 543.33,-705.74"/>
<polygon fill="black" stroke="black" points="545.04,-708.79 552.4,-701.17 541.89,-702.54 545.04,-708.79"/>
</g>
<!-- 9 -->
<g id="node10" class="node">
<title>9</title>
<polygon fill="none" stroke="black" points="436,-628 287,-628 287,-590 436,-590 436,-628"/>
<text text-anchor="middle" x="361.5" y="-612.8" font-family="Helvetica,sans-Serif" font-size="14.00">longitude &lt;= &#45;123.222</text>
<text text-anchor="middle" x="361.5" y="-597.8" font-family="Helvetica,sans-Serif" font-size="14.00">class = USA</text>
</g>
<!-- 8&#45;&gt;9 -->
<g id="edge9" class="edge">
<title>8&#45;&gt;9</title>
<path fill="none" stroke="black" d="M422.06,-663.83C412.18,-655.05 400.17,-644.37 389.45,-634.85"/>
<polygon fill="black" stroke="black" points="391.73,-632.19 381.93,-628.16 387.08,-637.42 391.73,-632.19"/>
</g>
<!-- 12 -->
<g id="node13" class="node">
<title>12</title>
<polygon fill="none" stroke="black" points="595,-628 454,-628 454,-590 595,-590 595,-628"/>
<text text-anchor="middle" x="524.5" y="-612.8" font-family="Helvetica,sans-Serif" font-size="14.00">longitude &lt;= &#45;69.246</text>
<text text-anchor="middle" x="524.5" y="-597.8" font-family="Helvetica,sans-Serif" font-size="14.00">class = Canada</text>
</g>
<!-- 8&#45;&gt;12 -->
<g id="edge12" class="edge">
<title>8&#45;&gt;12</title>
<path fill="none" stroke="black" d="M463.19,-663.83C473.19,-655.05 485.36,-644.37 496.2,-634.85"/>
<polygon fill="black" stroke="black" points="498.61,-637.39 503.81,-628.16 493.99,-632.13 498.61,-637.39"/>
</g>
<!-- 10 -->
<g id="node11" class="node">
<title>10</title>
<polygon fill="none" stroke="black" points="307.5,-553 197.5,-553 197.5,-517 307.5,-517 307.5,-553"/>
<text text-anchor="middle" x="252.5" y="-531.3" font-family="Helvetica,sans-Serif" font-size="14.00">class = Canada</text>
</g>
<!-- 9&#45;&gt;10 -->
<g id="edge10" class="edge">
<title>9&#45;&gt;10</title>
<path fill="none" stroke="black" d="M333.99,-589.83C319.76,-580.43 302.24,-568.86 287.09,-558.85"/>
<polygon fill="black" stroke="black" points="288.77,-555.76 278.5,-553.17 284.91,-561.6 288.77,-555.76"/>
</g>
<!-- 11 -->
<g id="node12" class="node">
<title>11</title>
<polygon fill="none" stroke="black" points="417,-553 326,-553 326,-517 417,-517 417,-553"/>
<text text-anchor="middle" x="371.5" y="-531.3" font-family="Helvetica,sans-Serif" font-size="14.00">class = USA</text>
</g>
<!-- 9&#45;&gt;11 -->
<g id="edge11" class="edge">
<title>9&#45;&gt;11</title>
<path fill="none" stroke="black" d="M364.02,-589.83C365.14,-581.81 366.47,-572.2 367.7,-563.34"/>
<polygon fill="black" stroke="black" points="371.17,-563.8 369.08,-553.42 364.24,-562.84 371.17,-563.8"/>
</g>
<!-- 13 -->
<g id="node14" class="node">
<title>13</title>
<polygon fill="none" stroke="black" points="578,-554 453,-554 453,-516 578,-516 578,-554"/>
<text text-anchor="middle" x="515.5" y="-538.8" font-family="Helvetica,sans-Serif" font-size="14.00">latitude &lt;= 43.093</text>
<text text-anchor="middle" x="515.5" y="-523.8" font-family="Helvetica,sans-Serif" font-size="14.00">class = Canada</text>
</g>
<!-- 12&#45;&gt;13 -->
<g id="edge13" class="edge">
<title>12&#45;&gt;13</title>
<path fill="none" stroke="black" d="M522.23,-589.83C521.27,-582.13 520.12,-572.97 519.05,-564.42"/>
<polygon fill="black" stroke="black" points="522.52,-563.9 517.8,-554.41 515.57,-564.77 522.52,-563.9"/>
</g>
<!-- 36 -->
<g id="node37" class="node">
<title>36</title>
<polygon fill="none" stroke="black" points="795,-554 654,-554 654,-516 795,-516 795,-554"/>
<text text-anchor="middle" x="724.5" y="-538.8" font-family="Helvetica,sans-Serif" font-size="14.00">longitude &lt;= &#45;66.952</text>
<text text-anchor="middle" x="724.5" y="-523.8" font-family="Helvetica,sans-Serif" font-size="14.00">class = Canada</text>
</g>
<!-- 12&#45;&gt;36 -->
<g id="edge36" class="edge">
<title>12&#45;&gt;36</title>
<path fill="none" stroke="black" d="M574.71,-589.92C602.05,-580.08 636.06,-567.84 664.76,-557.51"/>
<polygon fill="black" stroke="black" points="666.05,-560.76 674.27,-554.08 663.67,-554.18 666.05,-560.76"/>
</g>
<!-- 14 -->
<g id="node15" class="node">
<title>14</title>
<polygon fill="none" stroke="black" points="377,-480 252,-480 252,-442 377,-442 377,-480"/>
<text text-anchor="middle" x="314.5" y="-464.8" font-family="Helvetica,sans-Serif" font-size="14.00">latitude &lt;= 43.014</text>
<text text-anchor="middle" x="314.5" y="-449.8" font-family="Helvetica,sans-Serif" font-size="14.00">class = Canada</text>
</g>
<!-- 13&#45;&gt;14 -->
<g id="edge14" class="edge">
<title>13&#45;&gt;14</title>
<path fill="none" stroke="black" d="M465.04,-515.92C437.56,-506.08 403.38,-493.84 374.54,-483.51"/>
<polygon fill="black" stroke="black" points="375.58,-480.16 364.98,-480.08 373.22,-486.75 375.58,-480.16"/>
</g>
<!-- 19 -->
<g id="node20" class="node">
<title>19</title>
<polygon fill="none" stroke="black" points="578,-480 453,-480 453,-442 578,-442 578,-480"/>
<text text-anchor="middle" x="515.5" y="-464.8" font-family="Helvetica,sans-Serif" font-size="14.00">latitude &lt;= 44.992</text>
<text text-anchor="middle" x="515.5" y="-449.8" font-family="Helvetica,sans-Serif" font-size="14.00">class = Canada</text>
</g>
<!-- 13&#45;&gt;19 -->
<g id="edge19" class="edge">
<title>13&#45;&gt;19</title>
<path fill="none" stroke="black" d="M515.5,-515.83C515.5,-508.13 515.5,-498.97 515.5,-490.42"/>
<polygon fill="black" stroke="black" points="519,-490.41 515.5,-480.41 512,-490.41 519,-490.41"/>
</g>
<!-- 15 -->
<g id="node16" class="node">
<title>15</title>
<polygon fill="none" stroke="black" points="235,-406 94,-406 94,-368 235,-368 235,-406"/>
<text text-anchor="middle" x="164.5" y="-390.8" font-family="Helvetica,sans-Serif" font-size="14.00">longitude &lt;= &#45;81.845</text>
<text text-anchor="middle" x="164.5" y="-375.8" font-family="Helvetica,sans-Serif" font-size="14.00">class = Canada</text>
</g>
<!-- 14&#45;&gt;15 -->
<g id="edge15" class="edge">
<title>14&#45;&gt;15</title>
<path fill="none" stroke="black" d="M276.65,-441.83C256.77,-432.29 232.22,-420.51 211.17,-410.4"/>
<polygon fill="black" stroke="black" points="212.61,-407.21 202.08,-406.04 209.58,-413.52 212.61,-407.21"/>
</g>
<!-- 18 -->
<g id="node19" class="node">
<title>18</title>
<polygon fill="none" stroke="black" points="360,-405 269,-405 269,-369 360,-369 360,-405"/>
<text text-anchor="middle" x="314.5" y="-383.3" font-family="Helvetica,sans-Serif" font-size="14.00">class = USA</text>
</g>
<!-- 14&#45;&gt;18 -->
<g id="edge18" class="edge">
<title>14&#45;&gt;18</title>
<path fill="none" stroke="black" d="M314.5,-441.83C314.5,-433.89 314.5,-424.41 314.5,-415.63"/>
<polygon fill="black" stroke="black" points="318,-415.42 314.5,-405.42 311,-415.42 318,-415.42"/>
</g>
<!-- 16 -->
<g id="node17" class="node">
<title>16</title>
<polygon fill="none" stroke="black" points="91,-331 0,-331 0,-295 91,-295 91,-331"/>
<text text-anchor="middle" x="45.5" y="-309.3" font-family="Helvetica,sans-Serif" font-size="14.00">class = USA</text>
</g>
<!-- 15&#45;&gt;16 -->
<g id="edge16" class="edge">
<title>15&#45;&gt;16</title>
<path fill="none" stroke="black" d="M134.47,-367.83C118.79,-358.34 99.44,-346.64 82.81,-336.57"/>
<polygon fill="black" stroke="black" points="84.25,-333.35 73.88,-331.17 80.62,-339.34 84.25,-333.35"/>
</g>
<!-- 17 -->
<g id="node18" class="node">
<title>17</title>
<polygon fill="none" stroke="black" points="219.5,-331 109.5,-331 109.5,-295 219.5,-295 219.5,-331"/>
<text text-anchor="middle" x="164.5" y="-309.3" font-family="Helvetica,sans-Serif" font-size="14.00">class = Canada</text>
</g>
<!-- 15&#45;&gt;17 -->
<g id="edge17" class="edge">
<title>15&#45;&gt;17</title>
<path fill="none" stroke="black" d="M164.5,-367.83C164.5,-359.89 164.5,-350.41 164.5,-341.63"/>
<polygon fill="black" stroke="black" points="168,-341.42 164.5,-331.42 161,-341.42 168,-341.42"/>
</g>
<!-- 20 -->
<g id="node21" class="node">
<title>20</title>
<polygon fill="none" stroke="black" points="508,-406 383,-406 383,-368 508,-368 508,-406"/>
<text text-anchor="middle" x="445.5" y="-390.8" font-family="Helvetica,sans-Serif" font-size="14.00">latitude &lt;= 44.542</text>
<text text-anchor="middle" x="445.5" y="-375.8" font-family="Helvetica,sans-Serif" font-size="14.00">class = Canada</text>
</g>
<!-- 19&#45;&gt;20 -->
<g id="edge20" class="edge">
<title>19&#45;&gt;20</title>
<path fill="none" stroke="black" d="M497.84,-441.83C489.53,-433.28 479.47,-422.94 470.41,-413.62"/>
<polygon fill="black" stroke="black" points="472.88,-411.14 463.4,-406.41 467.86,-416.02 472.88,-411.14"/>
</g>
<!-- 35 -->
<g id="node36" class="node">
<title>35</title>
<polygon fill="none" stroke="black" points="636.5,-405 526.5,-405 526.5,-369 636.5,-369 636.5,-405"/>
<text text-anchor="middle" x="581.5" y="-383.3" font-family="Helvetica,sans-Serif" font-size="14.00">class = Canada</text>
</g>
<!-- 19&#45;&gt;35 -->
<g id="edge35" class="edge">
<title>19&#45;&gt;35</title>
<path fill="none" stroke="black" d="M532.15,-441.83C540.15,-433.11 549.86,-422.52 558.54,-413.05"/>
<polygon fill="black" stroke="black" points="561.36,-415.15 565.53,-405.42 556.2,-410.42 561.36,-415.15"/>
</g>
<!-- 21 -->
<g id="node22" class="node">
<title>21</title>
<polygon fill="none" stroke="black" points="379,-332 238,-332 238,-294 379,-294 379,-332"/>
<text text-anchor="middle" x="308.5" y="-316.8" font-family="Helvetica,sans-Serif" font-size="14.00">longitude &lt;= &#45;79.076</text>
<text text-anchor="middle" x="308.5" y="-301.8" font-family="Helvetica,sans-Serif" font-size="14.00">class = Canada</text>
</g>
<!-- 20&#45;&gt;21 -->
<g id="edge21" class="edge">
<title>20&#45;&gt;21</title>
<path fill="none" stroke="black" d="M410.93,-367.83C393.08,-358.45 371.12,-346.91 352.12,-336.92"/>
<polygon fill="black" stroke="black" points="353.54,-333.72 343.06,-332.16 350.28,-339.91 353.54,-333.72"/>
</g>
<!-- 30 -->
<g id="node31" class="node">
<title>30</title>
<polygon fill="none" stroke="black" points="522,-332 397,-332 397,-294 522,-294 522,-332"/>
<text text-anchor="middle" x="459.5" y="-316.8" font-family="Helvetica,sans-Serif" font-size="14.00">latitude &lt;= 44.706</text>
<text text-anchor="middle" x="459.5" y="-301.8" font-family="Helvetica,sans-Serif" font-size="14.00">class = USA</text>
</g>
<!-- 20&#45;&gt;30 -->
<g id="edge30" class="edge">
<title>20&#45;&gt;30</title>
<path fill="none" stroke="black" d="M449.03,-367.83C450.53,-360.13 452.31,-350.97 453.97,-342.42"/>
<polygon fill="black" stroke="black" points="457.45,-342.9 455.92,-332.41 450.58,-341.56 457.45,-342.9"/>
</g>
<!-- 22 -->
<g id="node23" class="node">
<title>22</title>
<polygon fill="none" stroke="black" points="227.5,-257 117.5,-257 117.5,-221 227.5,-221 227.5,-257"/>
<text text-anchor="middle" x="172.5" y="-235.3" font-family="Helvetica,sans-Serif" font-size="14.00">class = Canada</text>
</g>
<!-- 21&#45;&gt;22 -->
<g id="edge22" class="edge">
<title>21&#45;&gt;22</title>
<path fill="none" stroke="black" d="M274.18,-293.83C255.84,-284.12 233.13,-272.1 213.82,-261.88"/>
<polygon fill="black" stroke="black" points="215.41,-258.76 204.93,-257.17 212.14,-264.94 215.41,-258.76"/>
</g>
<!-- 23 -->
<g id="node24" class="node">
<title>23</title>
<polygon fill="none" stroke="black" points="371,-258 246,-258 246,-220 371,-220 371,-258"/>
<text text-anchor="middle" x="308.5" y="-242.8" font-family="Helvetica,sans-Serif" font-size="14.00">latitude &lt;= 44.168</text>
<text text-anchor="middle" x="308.5" y="-227.8" font-family="Helvetica,sans-Serif" font-size="14.00">class = Canada</text>
</g>
<!-- 21&#45;&gt;23 -->
<g id="edge23" class="edge">
<title>21&#45;&gt;23</title>
<path fill="none" stroke="black" d="M308.5,-293.83C308.5,-286.13 308.5,-276.97 308.5,-268.42"/>
<polygon fill="black" stroke="black" points="312,-268.41 308.5,-258.41 305,-268.41 312,-268.41"/>
</g>
<!-- 24 -->
<g id="node25" class="node">
<title>24</title>
<polygon fill="none" stroke="black" points="237,-184 112,-184 112,-146 237,-146 237,-184"/>
<text text-anchor="middle" x="174.5" y="-168.8" font-family="Helvetica,sans-Serif" font-size="14.00">latitude &lt;= 43.511</text>
<text text-anchor="middle" x="174.5" y="-153.8" font-family="Helvetica,sans-Serif" font-size="14.00">class = USA</text>
</g>
<!-- 23&#45;&gt;24 -->
<g id="edge24" class="edge">
<title>23&#45;&gt;24</title>
<path fill="none" stroke="black" d="M274.69,-219.83C257.23,-210.45 235.75,-198.91 217.16,-188.92"/>
<polygon fill="black" stroke="black" points="218.77,-185.81 208.3,-184.16 215.46,-191.98 218.77,-185.81"/>
</g>
<!-- 29 -->
<g id="node30" class="node">
<title>29</title>
<polygon fill="none" stroke="black" points="365.5,-183 255.5,-183 255.5,-147 365.5,-147 365.5,-183"/>
<text text-anchor="middle" x="310.5" y="-161.3" font-family="Helvetica,sans-Serif" font-size="14.00">class = Canada</text>
</g>
<!-- 23&#45;&gt;29 -->
<g id="edge29" class="edge">
<title>23&#45;&gt;29</title>
<path fill="none" stroke="black" d="M309,-219.83C309.23,-211.89 309.49,-202.41 309.73,-193.63"/>
<polygon fill="black" stroke="black" points="313.24,-193.51 310.02,-183.42 306.24,-193.32 313.24,-193.51"/>
</g>
<!-- 25 -->
<g id="node26" class="node">
<title>25</title>
<polygon fill="none" stroke="black" points="157,-109 66,-109 66,-73 157,-73 157,-109"/>
<text text-anchor="middle" x="111.5" y="-87.3" font-family="Helvetica,sans-Serif" font-size="14.00">class = USA</text>
</g>
<!-- 24&#45;&gt;25 -->
<g id="edge25" class="edge">
<title>24&#45;&gt;25</title>
<path fill="none" stroke="black" d="M158.6,-145.83C150.97,-137.11 141.7,-126.52 133.42,-117.05"/>
<polygon fill="black" stroke="black" points="135.96,-114.64 126.74,-109.42 130.69,-119.25 135.96,-114.64"/>
</g>
<!-- 26 -->
<g id="node27" class="node">
<title>26</title>
<polygon fill="none" stroke="black" points="300,-110 175,-110 175,-72 300,-72 300,-110"/>
<text text-anchor="middle" x="237.5" y="-94.8" font-family="Helvetica,sans-Serif" font-size="14.00">latitude &lt;= 43.988</text>
<text text-anchor="middle" x="237.5" y="-79.8" font-family="Helvetica,sans-Serif" font-size="14.00">class = Canada</text>
</g>
<!-- 24&#45;&gt;26 -->
<g id="edge26" class="edge">
<title>24&#45;&gt;26</title>
<path fill="none" stroke="black" d="M190.4,-145.83C197.73,-137.45 206.57,-127.35 214.6,-118.17"/>
<polygon fill="black" stroke="black" points="217.44,-120.24 221.39,-110.41 212.17,-115.63 217.44,-120.24"/>
</g>
<!-- 27 -->
<g id="node28" class="node">
<title>27</title>
<polygon fill="none" stroke="black" points="232.5,-36 122.5,-36 122.5,0 232.5,0 232.5,-36"/>
<text text-anchor="middle" x="177.5" y="-14.3" font-family="Helvetica,sans-Serif" font-size="14.00">class = Canada</text>
</g>
<!-- 26&#45;&gt;27 -->
<g id="edge27" class="edge">
<title>26&#45;&gt;27</title>
<path fill="none" stroke="black" d="M222.05,-71.72C214.85,-63.2 206.18,-52.94 198.41,-43.74"/>
<polygon fill="black" stroke="black" points="201,-41.38 191.87,-36 195.65,-45.9 201,-41.38"/>
</g>
<!-- 28 -->
<g id="node29" class="node">
<title>28</title>
<polygon fill="none" stroke="black" points="342,-36 251,-36 251,0 342,0 342,-36"/>
<text text-anchor="middle" x="296.5" y="-14.3" font-family="Helvetica,sans-Serif" font-size="14.00">class = USA</text>
</g>
<!-- 26&#45;&gt;28 -->
<g id="edge28" class="edge">
<title>26&#45;&gt;28</title>
<path fill="none" stroke="black" d="M252.69,-71.72C259.77,-63.2 268.3,-52.94 275.94,-43.74"/>
<polygon fill="black" stroke="black" points="278.67,-45.93 282.37,-36 273.29,-41.46 278.67,-45.93"/>
</g>
<!-- 31 -->
<g id="node32" class="node">
<title>31</title>
<polygon fill="none" stroke="black" points="480,-257 389,-257 389,-221 480,-221 480,-257"/>
<text text-anchor="middle" x="434.5" y="-235.3" font-family="Helvetica,sans-Serif" font-size="14.00">class = USA</text>
</g>
<!-- 30&#45;&gt;31 -->
<g id="edge31" class="edge">
<title>30&#45;&gt;31</title>
<path fill="none" stroke="black" d="M453.19,-293.83C450.37,-285.72 447,-275.99 443.89,-267.05"/>
<polygon fill="black" stroke="black" points="447.13,-265.72 440.55,-257.42 440.52,-268.01 447.13,-265.72"/>
</g>
<!-- 32 -->
<g id="node33" class="node">
<title>32</title>
<polygon fill="none" stroke="black" points="623,-258 498,-258 498,-220 623,-220 623,-258"/>
<text text-anchor="middle" x="560.5" y="-242.8" font-family="Helvetica,sans-Serif" font-size="14.00">latitude &lt;= 44.848</text>
<text text-anchor="middle" x="560.5" y="-227.8" font-family="Helvetica,sans-Serif" font-size="14.00">class = Canada</text>
</g>
<!-- 30&#45;&gt;32 -->
<g id="edge32" class="edge">
<title>30&#45;&gt;32</title>
<path fill="none" stroke="black" d="M484.99,-293.83C497.67,-284.79 513.16,-273.75 526.81,-264.02"/>
<polygon fill="black" stroke="black" points="528.91,-266.82 535.02,-258.16 524.85,-261.12 528.91,-266.82"/>
</g>
<!-- 33 -->
<g id="node34" class="node">
<title>33</title>
<polygon fill="none" stroke="black" points="501.5,-183 391.5,-183 391.5,-147 501.5,-147 501.5,-183"/>
<text text-anchor="middle" x="446.5" y="-161.3" font-family="Helvetica,sans-Serif" font-size="14.00">class = Canada</text>
</g>
<!-- 32&#45;&gt;33 -->
<g id="edge33" class="edge">
<title>32&#45;&gt;33</title>
<path fill="none" stroke="black" d="M531.73,-219.83C516.71,-210.34 498.18,-198.64 482.24,-188.57"/>
<polygon fill="black" stroke="black" points="484.01,-185.55 473.69,-183.17 480.27,-191.47 484.01,-185.55"/>
</g>
<!-- 34 -->
<g id="node35" class="node">
<title>34</title>
<polygon fill="none" stroke="black" points="611,-183 520,-183 520,-147 611,-147 611,-183"/>
<text text-anchor="middle" x="565.5" y="-161.3" font-family="Helvetica,sans-Serif" font-size="14.00">class = USA</text>
</g>
<!-- 32&#45;&gt;34 -->
<g id="edge34" class="edge">
<title>32&#45;&gt;34</title>
<path fill="none" stroke="black" d="M561.76,-219.83C562.31,-211.89 562.97,-202.41 563.58,-193.63"/>
<polygon fill="black" stroke="black" points="567.09,-193.64 564.29,-183.42 560.11,-193.15 567.09,-193.64"/>
</g>
<!-- 37 -->
<g id="node38" class="node">
<title>37</title>
<polygon fill="none" stroke="black" points="795,-480 654,-480 654,-442 795,-442 795,-480"/>
<text text-anchor="middle" x="724.5" y="-464.8" font-family="Helvetica,sans-Serif" font-size="14.00">longitude &lt;= &#45;67.279</text>
<text text-anchor="middle" x="724.5" y="-449.8" font-family="Helvetica,sans-Serif" font-size="14.00">class = USA</text>
</g>
<!-- 36&#45;&gt;37 -->
<g id="edge37" class="edge">
<title>36&#45;&gt;37</title>
<path fill="none" stroke="black" d="M724.5,-515.83C724.5,-508.13 724.5,-498.97 724.5,-490.42"/>
<polygon fill="black" stroke="black" points="728,-490.41 724.5,-480.41 721,-490.41 728,-490.41"/>
</g>
<!-- 54 -->
<g id="node55" class="node">
<title>54</title>
<polygon fill="none" stroke="black" points="923.5,-479 813.5,-479 813.5,-443 923.5,-443 923.5,-479"/>
<text text-anchor="middle" x="868.5" y="-457.3" font-family="Helvetica,sans-Serif" font-size="14.00">class = Canada</text>
</g>
<!-- 36&#45;&gt;54 -->
<g id="edge54" class="edge">
<title>36&#45;&gt;54</title>
<path fill="none" stroke="black" d="M760.84,-515.83C780.35,-506.08 804.53,-493.99 825.03,-483.74"/>
<polygon fill="black" stroke="black" points="826.78,-486.77 834.16,-479.17 823.65,-480.51 826.78,-486.77"/>
</g>
<!-- 38 -->
<g id="node39" class="node">
<title>38</title>
<polygon fill="none" stroke="black" points="791.5,-406 657.5,-406 657.5,-368 791.5,-368 791.5,-406"/>
<text text-anchor="middle" x="724.5" y="-390.8" font-family="Helvetica,sans-Serif" font-size="14.00">longitude &lt;= &#45;67.93</text>
<text text-anchor="middle" x="724.5" y="-375.8" font-family="Helvetica,sans-Serif" font-size="14.00">class = Canada</text>
</g>
<!-- 37&#45;&gt;38 -->
<g id="edge38" class="edge">
<title>37&#45;&gt;38</title>
<path fill="none" stroke="black" d="M724.5,-441.83C724.5,-434.13 724.5,-424.97 724.5,-416.42"/>
<polygon fill="black" stroke="black" points="728,-416.41 724.5,-406.41 721,-416.41 728,-416.41"/>
</g>
<!-- 53 -->
<g id="node54" class="node">
<title>53</title>
<polygon fill="none" stroke="black" points="901,-405 810,-405 810,-369 901,-369 901,-405"/>
<text text-anchor="middle" x="855.5" y="-383.3" font-family="Helvetica,sans-Serif" font-size="14.00">class = USA</text>
</g>
<!-- 37&#45;&gt;53 -->
<g id="edge53" class="edge">
<title>37&#45;&gt;53</title>
<path fill="none" stroke="black" d="M757.56,-441.83C775.14,-432.17 796.91,-420.2 815.45,-410.01"/>
<polygon fill="black" stroke="black" points="817.18,-413.06 824.26,-405.17 813.81,-406.92 817.18,-413.06"/>
</g>
<!-- 39 -->
<g id="node40" class="node">
<title>39</title>
<polygon fill="none" stroke="black" points="795,-332 654,-332 654,-294 795,-294 795,-332"/>
<text text-anchor="middle" x="724.5" y="-316.8" font-family="Helvetica,sans-Serif" font-size="14.00">longitude &lt;= &#45;68.325</text>
<text text-anchor="middle" x="724.5" y="-301.8" font-family="Helvetica,sans-Serif" font-size="14.00">class = USA</text>
</g>
<!-- 38&#45;&gt;39 -->
<g id="edge39" class="edge">
<title>38&#45;&gt;39</title>
<path fill="none" stroke="black" d="M724.5,-367.83C724.5,-360.13 724.5,-350.97 724.5,-342.42"/>
<polygon fill="black" stroke="black" points="728,-342.41 724.5,-332.41 721,-342.41 728,-342.41"/>
</g>
<!-- 48 -->
<g id="node49" class="node">
<title>48</title>
<polygon fill="none" stroke="black" points="1034,-332 909,-332 909,-294 1034,-294 1034,-332"/>
<text text-anchor="middle" x="971.5" y="-316.8" font-family="Helvetica,sans-Serif" font-size="14.00">latitude &lt;= 45.565</text>
<text text-anchor="middle" x="971.5" y="-301.8" font-family="Helvetica,sans-Serif" font-size="14.00">class = Canada</text>
</g>
<!-- 38&#45;&gt;48 -->
<g id="edge48" class="edge">
<title>38&#45;&gt;48</title>
<path fill="none" stroke="black" d="M786.51,-367.92C820.86,-357.91 863.74,-345.41 899.56,-334.97"/>
<polygon fill="black" stroke="black" points="900.84,-338.24 909.46,-332.08 898.88,-331.52 900.84,-338.24"/>
</g>
<!-- 40 -->
<g id="node41" class="node">
<title>40</title>
<polygon fill="none" stroke="black" points="782,-258 641,-258 641,-220 782,-220 782,-258"/>
<text text-anchor="middle" x="711.5" y="-242.8" font-family="Helvetica,sans-Serif" font-size="14.00">longitude &lt;= &#45;68.915</text>
<text text-anchor="middle" x="711.5" y="-227.8" font-family="Helvetica,sans-Serif" font-size="14.00">class = Canada</text>
</g>
<!-- 39&#45;&gt;40 -->
<g id="edge40" class="edge">
<title>39&#45;&gt;40</title>
<path fill="none" stroke="black" d="M721.22,-293.83C719.83,-286.13 718.18,-276.97 716.63,-268.42"/>
<polygon fill="black" stroke="black" points="720.05,-267.63 714.82,-258.41 713.16,-268.88 720.05,-267.63"/>
</g>
<!-- 47 -->
<g id="node48" class="node">
<title>47</title>
<polygon fill="none" stroke="black" points="891,-257 800,-257 800,-221 891,-221 891,-257"/>
<text text-anchor="middle" x="845.5" y="-235.3" font-family="Helvetica,sans-Serif" font-size="14.00">class = USA</text>
</g>
<!-- 39&#45;&gt;47 -->
<g id="edge47" class="edge">
<title>39&#45;&gt;47</title>
<path fill="none" stroke="black" d="M755.03,-293.83C771.13,-284.25 791.01,-272.42 808.04,-262.29"/>
<polygon fill="black" stroke="black" points="809.84,-265.29 816.64,-257.17 806.26,-259.28 809.84,-265.29"/>
</g>
<!-- 41 -->
<g id="node42" class="node">
<title>41</title>
<polygon fill="none" stroke="black" points="740,-183 649,-183 649,-147 740,-147 740,-183"/>
<text text-anchor="middle" x="694.5" y="-161.3" font-family="Helvetica,sans-Serif" font-size="14.00">class = USA</text>
</g>
<!-- 40&#45;&gt;41 -->
<g id="edge41" class="edge">
<title>40&#45;&gt;41</title>
<path fill="none" stroke="black" d="M707.21,-219.83C705.32,-211.81 703.05,-202.2 700.96,-193.34"/>
<polygon fill="black" stroke="black" points="704.32,-192.35 698.61,-183.42 697.5,-193.95 704.32,-192.35"/>
</g>
<!-- 42 -->
<g id="node43" class="node">
<title>42</title>
<polygon fill="none" stroke="black" points="883,-184 758,-184 758,-146 883,-146 883,-184"/>
<text text-anchor="middle" x="820.5" y="-168.8" font-family="Helvetica,sans-Serif" font-size="14.00">latitude &lt;= 47.256</text>
<text text-anchor="middle" x="820.5" y="-153.8" font-family="Helvetica,sans-Serif" font-size="14.00">class = Canada</text>
</g>
<!-- 40&#45;&gt;42 -->
<g id="edge42" class="edge">
<title>40&#45;&gt;42</title>
<path fill="none" stroke="black" d="M739.01,-219.83C752.82,-210.71 769.73,-199.54 784.55,-189.74"/>
<polygon fill="black" stroke="black" points="786.59,-192.59 793,-184.16 782.73,-186.75 786.59,-192.59"/>
</g>
<!-- 43 -->
<g id="node44" class="node">
<title>43</title>
<polygon fill="none" stroke="black" points="807.5,-109 697.5,-109 697.5,-73 807.5,-73 807.5,-109"/>
<text text-anchor="middle" x="752.5" y="-87.3" font-family="Helvetica,sans-Serif" font-size="14.00">class = Canada</text>
</g>
<!-- 42&#45;&gt;43 -->
<g id="edge43" class="edge">
<title>42&#45;&gt;43</title>
<path fill="none" stroke="black" d="M803.34,-145.83C795.02,-137.02 784.9,-126.31 775.89,-116.76"/>
<polygon fill="black" stroke="black" points="778.36,-114.28 768.95,-109.42 773.27,-119.09 778.36,-114.28"/>
</g>
<!-- 44 -->
<g id="node45" class="node">
<title>44</title>
<polygon fill="none" stroke="black" points="951,-110 826,-110 826,-72 951,-72 951,-110"/>
<text text-anchor="middle" x="888.5" y="-94.8" font-family="Helvetica,sans-Serif" font-size="14.00">latitude &lt;= 47.312</text>
<text text-anchor="middle" x="888.5" y="-79.8" font-family="Helvetica,sans-Serif" font-size="14.00">class = Canada</text>
</g>
<!-- 42&#45;&gt;44 -->
<g id="edge44" class="edge">
<title>42&#45;&gt;44</title>
<path fill="none" stroke="black" d="M837.66,-145.83C845.65,-137.37 855.3,-127.15 864.04,-117.9"/>
<polygon fill="black" stroke="black" points="866.79,-120.09 871.11,-110.41 861.7,-115.28 866.79,-120.09"/>
</g>
<!-- 45 -->
<g id="node46" class="node">
<title>45</title>
<polygon fill="none" stroke="black" points="874,-36 783,-36 783,0 874,0 874,-36"/>
<text text-anchor="middle" x="828.5" y="-14.3" font-family="Helvetica,sans-Serif" font-size="14.00">class = USA</text>
</g>
<!-- 44&#45;&gt;45 -->
<g id="edge45" class="edge">
<title>44&#45;&gt;45</title>
<path fill="none" stroke="black" d="M873.05,-71.72C865.85,-63.2 857.18,-52.94 849.41,-43.74"/>
<polygon fill="black" stroke="black" points="852,-41.38 842.87,-36 846.65,-45.9 852,-41.38"/>
</g>
<!-- 46 -->
<g id="node47" class="node">
<title>46</title>
<polygon fill="none" stroke="black" points="1002.5,-36 892.5,-36 892.5,0 1002.5,0 1002.5,-36"/>
<text text-anchor="middle" x="947.5" y="-14.3" font-family="Helvetica,sans-Serif" font-size="14.00">class = Canada</text>
</g>
<!-- 44&#45;&gt;46 -->
<g id="edge46" class="edge">
<title>44&#45;&gt;46</title>
<path fill="none" stroke="black" d="M903.69,-71.72C910.77,-63.2 919.3,-52.94 926.94,-43.74"/>
<polygon fill="black" stroke="black" points="929.67,-45.93 933.37,-36 924.29,-41.46 929.67,-45.93"/>
</g>
<!-- 49 -->
<g id="node50" class="node">
<title>49</title>
<polygon fill="none" stroke="black" points="1034,-258 909,-258 909,-220 1034,-220 1034,-258"/>
<text text-anchor="middle" x="971.5" y="-242.8" font-family="Helvetica,sans-Serif" font-size="14.00">latitude &lt;= 45.382</text>
<text text-anchor="middle" x="971.5" y="-227.8" font-family="Helvetica,sans-Serif" font-size="14.00">class = Canada</text>
</g>
<!-- 48&#45;&gt;49 -->
<g id="edge49" class="edge">
<title>48&#45;&gt;49</title>
<path fill="none" stroke="black" d="M971.5,-293.83C971.5,-286.13 971.5,-276.97 971.5,-268.42"/>
<polygon fill="black" stroke="black" points="975,-268.41 971.5,-258.41 968,-268.41 975,-268.41"/>
</g>
<!-- 52 -->
<g id="node53" class="node">
<title>52</title>
<polygon fill="none" stroke="black" points="1162.5,-257 1052.5,-257 1052.5,-221 1162.5,-221 1162.5,-257"/>
<text text-anchor="middle" x="1107.5" y="-235.3" font-family="Helvetica,sans-Serif" font-size="14.00">class = Canada</text>
</g>
<!-- 48&#45;&gt;52 -->
<g id="edge52" class="edge">
<title>48&#45;&gt;52</title>
<path fill="none" stroke="black" d="M1005.82,-293.83C1024.16,-284.12 1046.87,-272.1 1066.18,-261.88"/>
<polygon fill="black" stroke="black" points="1067.86,-264.94 1075.07,-257.17 1064.59,-258.76 1067.86,-264.94"/>
</g>
<!-- 50 -->
<g id="node51" class="node">
<title>50</title>
<polygon fill="none" stroke="black" points="1021.5,-183 911.5,-183 911.5,-147 1021.5,-147 1021.5,-183"/>
<text text-anchor="middle" x="966.5" y="-161.3" font-family="Helvetica,sans-Serif" font-size="14.00">class = Canada</text>
</g>
<!-- 49&#45;&gt;50 -->
<g id="edge50" class="edge">
<title>49&#45;&gt;50</title>
<path fill="none" stroke="black" d="M970.24,-219.83C969.69,-211.89 969.03,-202.41 968.42,-193.63"/>
<polygon fill="black" stroke="black" points="971.89,-193.15 967.71,-183.42 964.91,-193.64 971.89,-193.15"/>
</g>
<!-- 51 -->
<g id="node52" class="node">
<title>51</title>
<polygon fill="none" stroke="black" points="1131,-183 1040,-183 1040,-147 1131,-147 1131,-183"/>
<text text-anchor="middle" x="1085.5" y="-161.3" font-family="Helvetica,sans-Serif" font-size="14.00">class = USA</text>
</g>
<!-- 49&#45;&gt;51 -->
<g id="edge51" class="edge">
<title>49&#45;&gt;51</title>
<path fill="none" stroke="black" d="M1000.27,-219.83C1015.29,-210.34 1033.82,-198.64 1049.76,-188.57"/>
<polygon fill="black" stroke="black" points="1051.73,-191.47 1058.31,-183.17 1047.99,-185.55 1051.73,-191.47"/>
</g>
</g>
</svg>
