<?xml version="1.0" encoding="UTF-8" standalone="no"?>
<!DOCTYPE svg PUBLIC "-//W3C//DTD SVG 1.1//EN"
 "http://www.w3.org/Graphics/SVG/1.1/DTD/svg11.dtd">
<!-- Generated by graphviz version 2.49.1 (0)
 -->
<!-- Pages: 1 -->
<svg width="305pt" height="393pt"
 viewBox="0.00 0.00 305.08 393.00" xmlns="http://www.w3.org/2000/svg" xmlns:xlink="http://www.w3.org/1999/xlink">
<g id="graph0" class="graph" transform="scale(1 1) rotate(0) translate(4 389)">
<polygon fill="white" stroke="transparent" points="-4,4 -4,-389 301.08,-389 301.08,4 -4,4"/>
<g id="clust1" class="cluster">
<title>cluster_0</title>
<polygon fill="none" stroke="white" points="8,-8 8,-377 130.59,-377 130.59,-8 8,-8"/>
<text text-anchor="middle" x="69.3" y="-361.8" font-family="Times,serif" font-size="14.00">inputs</text>
</g>
<g id="clust2" class="cluster">
<title>cluster_2</title>
<polygon fill="none" stroke="white" points="175.59,-130 175.59,-267 289.08,-267 289.08,-130 175.59,-130"/>
<text text-anchor="middle" x="232.34" y="-251.8" font-family="Times,serif" font-size="14.00">output</text>
</g>
<!-- boring=1 -->
<g id="node1" class="node">
<title>boring=1</title>
<ellipse fill="none" stroke="black" cx="69.3" cy="-302" rx="44.39" ry="44.39"/>
<text text-anchor="middle" x="69.3" y="-298.3" font-family="Times,serif" font-size="14.00">boring=1</text>
</g>
<!-- y_hat=pos -->
<g id="node4" class="node">
<title>y_hat=pos</title>
<ellipse fill="none" stroke="black" cx="232.34" cy="-187" rx="48.99" ry="48.99"/>
<text text-anchor="middle" x="232.34" y="-183.3" font-family="Times,serif" font-size="14.00">y_hat=pos</text>
</g>
<!-- boring=1&#45;&gt;y_hat=pos -->
<g id="edge1" class="edge">
<title>boring=1&#45;&gt;y_hat=pos</title>
<path fill="none" stroke="black" d="M105.64,-276.76C128.6,-260.37 158.8,-238.8 183.85,-220.91"/>
<polygon fill="black" stroke="black" points="186.02,-223.66 192.12,-215 181.95,-217.96 186.02,-223.66"/>
<text text-anchor="middle" x="153.09" y="-254.8" font-family="Times,serif" font-size="14.00">&#45;1.4</text>
</g>
<!-- excellent=1 -->
<g id="node2" class="node">
<title>excellent=1</title>
<ellipse fill="none" stroke="black" cx="69.3" cy="-187" rx="53.09" ry="53.09"/>
<text text-anchor="middle" x="69.3" y="-183.3" font-family="Times,serif" font-size="14.00">excellent=1</text>
</g>
<!-- excellent=1&#45;&gt;y_hat=pos -->
<g id="edge2" class="edge">
<title>excellent=1&#45;&gt;y_hat=pos</title>
<path fill="none" stroke="black" d="M123.03,-187C139.13,-187 156.93,-187 173.36,-187"/>
<polygon fill="black" stroke="black" points="173.39,-190.5 183.39,-187 173.39,-183.5 173.39,-190.5"/>
<text text-anchor="middle" x="153.09" y="-190.8" font-family="Times,serif" font-size="14.00">1.93</text>
</g>
<!-- flawless=1 -->
<g id="node3" class="node">
<title>flawless=1</title>
<ellipse fill="none" stroke="black" cx="69.3" cy="-66" rx="50.09" ry="50.09"/>
<text text-anchor="middle" x="69.3" y="-62.3" font-family="Times,serif" font-size="14.00">flawless=1</text>
</g>
<!-- flawless=1&#45;&gt;y_hat=pos -->
<g id="edge3" class="edge">
<title>flawless=1&#45;&gt;y_hat=pos</title>
<path fill="none" stroke="black" d="M109.69,-95.6C132.35,-112.62 160.94,-134.11 184.71,-151.97"/>
<polygon fill="black" stroke="black" points="182.81,-154.91 192.9,-158.12 187.01,-149.32 182.81,-154.91"/>
<text text-anchor="middle" x="153.09" y="-140.8" font-family="Times,serif" font-size="14.00">1.43</text>
</g>
</g>
</svg>
