<?xml version="1.0" encoding="UTF-8" standalone="no"?>
<!DOCTYPE svg PUBLIC "-//W3C//DTD SVG 1.1//EN"
 "http://www.w3.org/Graphics/SVG/1.1/DTD/svg11.dtd">
<!-- Generated by graphviz version 2.48.0 (0)
 -->
<!-- Title: Tree Pages: 1 -->
<svg width="411pt" height="192pt"
 viewBox="0.00 0.00 411.00 192.00" xmlns="http://www.w3.org/2000/svg" xmlns:xlink="http://www.w3.org/1999/xlink">
<g id="graph0" class="graph" transform="scale(1 1) rotate(0) translate(4 188)">
<title>Tree</title>
<polygon fill="white" stroke="transparent" points="-4,4 -4,-188 407,-188 407,4 -4,4"/>
<!-- 0 -->
<g id="node1" class="node">
<title>0</title>
<polygon fill="none" stroke="black" points="294.5,-184 107.5,-184 107.5,-146 294.5,-146 294.5,-184"/>
<text text-anchor="middle" x="201" y="-168.8" font-family="Times,serif" font-size="14.00">x1_Married&#45;civ&#45;spouse &lt;= 0.5</text>
<text text-anchor="middle" x="201" y="-153.8" font-family="Times,serif" font-size="14.00">class = 0.0</text>
</g>
<!-- 1 -->
<g id="node2" class="node">
<title>1</title>
<polygon fill="none" stroke="black" points="189,-110 29,-110 29,-72 189,-72 189,-110"/>
<text text-anchor="middle" x="109" y="-94.8" font-family="Times,serif" font-size="14.00">x1_Never&#45;married &lt;= 0.5</text>
<text text-anchor="middle" x="109" y="-79.8" font-family="Times,serif" font-size="14.00">class = 0.0</text>
</g>
<!-- 0&#45;&gt;1 -->
<g id="edge1" class="edge">
<title>0&#45;&gt;1</title>
<path fill="none" stroke="black" d="M177.78,-145.83C166.45,-136.96 152.65,-126.16 140.4,-116.57"/>
<polygon fill="black" stroke="black" points="142.24,-113.57 132.21,-110.16 137.93,-119.08 142.24,-113.57"/>
<text text-anchor="middle" x="135.23" y="-131.28" font-family="Times,serif" font-size="14.00">True</text>
</g>
<!-- 4 -->
<g id="node5" class="node">
<title>4</title>
<polygon fill="none" stroke="black" points="380.5,-110 207.5,-110 207.5,-72 380.5,-72 380.5,-110"/>
<text text-anchor="middle" x="294" y="-94.8" font-family="Times,serif" font-size="14.00">x2_Exec&#45;managerial &lt;= 0.5</text>
<text text-anchor="middle" x="294" y="-79.8" font-family="Times,serif" font-size="14.00">class = 0.0</text>
</g>
<!-- 0&#45;&gt;4 -->
<g id="edge4" class="edge">
<title>0&#45;&gt;4</title>
<path fill="none" stroke="black" d="M224.47,-145.83C236.03,-136.88 250.14,-125.96 262.62,-116.3"/>
<polygon fill="black" stroke="black" points="264.78,-119.05 270.54,-110.16 260.49,-113.52 264.78,-119.05"/>
<text text-anchor="middle" x="267.38" y="-131.26" font-family="Times,serif" font-size="14.00">False</text>
</g>
<!-- 2 -->
<g id="node3" class="node">
<title>2</title>
<polygon fill="none" stroke="black" points="76,-36 0,-36 0,0 76,0 76,-36"/>
<text text-anchor="middle" x="38" y="-14.3" font-family="Times,serif" font-size="14.00">class = 0.0</text>
</g>
<!-- 1&#45;&gt;2 -->
<g id="edge2" class="edge">
<title>1&#45;&gt;2</title>
<path fill="none" stroke="black" d="M90.72,-71.72C82.03,-63.03 71.52,-52.52 62.19,-43.19"/>
<polygon fill="black" stroke="black" points="64.55,-40.6 55,-36 59.6,-45.55 64.55,-40.6"/>
</g>
<!-- 3 -->
<g id="node4" class="node">
<title>3</title>
<polygon fill="none" stroke="black" points="170,-36 94,-36 94,0 170,0 170,-36"/>
<text text-anchor="middle" x="132" y="-14.3" font-family="Times,serif" font-size="14.00">class = 0.0</text>
</g>
<!-- 1&#45;&gt;3 -->
<g id="edge3" class="edge">
<title>1&#45;&gt;3</title>
<path fill="none" stroke="black" d="M114.92,-71.72C117.49,-63.8 120.54,-54.38 123.35,-45.71"/>
<polygon fill="black" stroke="black" points="126.74,-46.6 126.49,-36 120.08,-44.44 126.74,-46.6"/>
</g>
<!-- 5 -->
<g id="node6" class="node">
<title>5</title>
<polygon fill="none" stroke="black" points="309,-36 233,-36 233,0 309,0 309,-36"/>
<text text-anchor="middle" x="271" y="-14.3" font-family="Times,serif" font-size="14.00">class = 0.0</text>
</g>
<!-- 4&#45;&gt;5 -->
<g id="edge5" class="edge">
<title>4&#45;&gt;5</title>
<path fill="none" stroke="black" d="M288.08,-71.72C285.51,-63.8 282.46,-54.38 279.65,-45.71"/>
<polygon fill="black" stroke="black" points="282.92,-44.44 276.51,-36 276.26,-46.6 282.92,-44.44"/>
</g>
<!-- 6 -->
<g id="node7" class="node">
<title>6</title>
<polygon fill="none" stroke="black" points="403,-36 327,-36 327,0 403,0 403,-36"/>
<text text-anchor="middle" x="365" y="-14.3" font-family="Times,serif" font-size="14.00">class = 1.0</text>
</g>
<!-- 4&#45;&gt;6 -->
<g id="edge6" class="edge">
<title>4&#45;&gt;6</title>
<path fill="none" stroke="black" d="M312.28,-71.72C320.97,-63.03 331.48,-52.52 340.81,-43.19"/>
<polygon fill="black" stroke="black" points="343.4,-45.55 348,-36 338.45,-40.6 343.4,-45.55"/>
</g>
</g>
</svg>
