<?xml version="1.0" encoding="UTF-8" standalone="no"?>
<!DOCTYPE svg PUBLIC "-//W3C//DTD SVG 1.1//EN"
 "http://www.w3.org/Graphics/SVG/1.1/DTD/svg11.dtd">
<!-- Generated by graphviz version 2.48.0 (0)
 -->
<!-- Title: Tree Pages: 1 -->
<svg width="389pt" height="192pt"
 viewBox="0.00 0.00 389.00 192.00" xmlns="http://www.w3.org/2000/svg" xmlns:xlink="http://www.w3.org/1999/xlink">
<g id="graph0" class="graph" transform="scale(1 1) rotate(0) translate(4 188)">
<title>Tree</title>
<polygon fill="white" stroke="transparent" points="-4,4 -4,-188 385,-188 385,4 -4,4"/>
<!-- 0 -->
<g id="node1" class="node">
<title>0</title>
<polygon fill="none" stroke="black" points="270,-184 110,-184 110,-146 270,-146 270,-184"/>
<text text-anchor="middle" x="190" y="-168.8" font-family="Times,serif" font-size="14.00">x1_Never&#45;married &lt;= 0.5</text>
<text text-anchor="middle" x="190" y="-153.8" font-family="Times,serif" font-size="14.00">class = 0.0</text>
</g>
<!-- 1 -->
<g id="node2" class="node">
<title>1</title>
<polygon fill="none" stroke="black" points="188,-110 52,-110 52,-72 188,-72 188,-110"/>
<text text-anchor="middle" x="120" y="-94.8" font-family="Times,serif" font-size="14.00">capital.gain &lt;= 0.531</text>
<text text-anchor="middle" x="120" y="-79.8" font-family="Times,serif" font-size="14.00">class = 0.0</text>
</g>
<!-- 0&#45;&gt;1 -->
<g id="edge1" class="edge">
<title>0&#45;&gt;1</title>
<path fill="none" stroke="black" d="M172.34,-145.83C164.03,-137.28 153.97,-126.94 144.91,-117.62"/>
<polygon fill="black" stroke="black" points="147.38,-115.14 137.9,-110.41 142.36,-120.02 147.38,-115.14"/>
<text text-anchor="middle" x="137.55" y="-131.71" font-family="Times,serif" font-size="14.00">True</text>
</g>
<!-- 4 -->
<g id="node5" class="node">
<title>4</title>
<polygon fill="none" stroke="black" points="313.5,-110 206.5,-110 206.5,-72 313.5,-72 313.5,-110"/>
<text text-anchor="middle" x="260" y="-94.8" font-family="Times,serif" font-size="14.00">fnlwgt &lt;= 7.478</text>
<text text-anchor="middle" x="260" y="-79.8" font-family="Times,serif" font-size="14.00">class = 0.0</text>
</g>
<!-- 0&#45;&gt;4 -->
<g id="edge4" class="edge">
<title>0&#45;&gt;4</title>
<path fill="none" stroke="black" d="M207.66,-145.83C215.97,-137.28 226.03,-126.94 235.09,-117.62"/>
<polygon fill="black" stroke="black" points="237.64,-120.02 242.1,-110.41 232.62,-115.14 237.64,-120.02"/>
<text text-anchor="middle" x="242.45" y="-131.71" font-family="Times,serif" font-size="14.00">False</text>
</g>
<!-- 2 -->
<g id="node3" class="node">
<title>2</title>
<polygon fill="none" stroke="black" points="76,-36 0,-36 0,0 76,0 76,-36"/>
<text text-anchor="middle" x="38" y="-14.3" font-family="Times,serif" font-size="14.00">class = 0.0</text>
</g>
<!-- 1&#45;&gt;2 -->
<g id="edge2" class="edge">
<title>1&#45;&gt;2</title>
<path fill="none" stroke="black" d="M98.88,-71.72C88.65,-62.85 76.24,-52.11 65.29,-42.63"/>
<polygon fill="black" stroke="black" points="67.49,-39.9 57.64,-36 62.91,-45.2 67.49,-39.9"/>
</g>
<!-- 3 -->
<g id="node4" class="node">
<title>3</title>
<polygon fill="none" stroke="black" points="170,-36 94,-36 94,0 170,0 170,-36"/>
<text text-anchor="middle" x="132" y="-14.3" font-family="Times,serif" font-size="14.00">class = 1.0</text>
</g>
<!-- 1&#45;&gt;3 -->
<g id="edge3" class="edge">
<title>1&#45;&gt;3</title>
<path fill="none" stroke="black" d="M123.09,-71.72C124.41,-63.89 125.99,-54.59 127.44,-45.99"/>
<polygon fill="black" stroke="black" points="130.91,-46.45 129.13,-36 124.01,-45.28 130.91,-46.45"/>
</g>
<!-- 5 -->
<g id="node6" class="node">
<title>5</title>
<polygon fill="none" stroke="black" points="287,-36 211,-36 211,0 287,0 287,-36"/>
<text text-anchor="middle" x="249" y="-14.3" font-family="Times,serif" font-size="14.00">class = 0.0</text>
</g>
<!-- 4&#45;&gt;5 -->
<g id="edge5" class="edge">
<title>4&#45;&gt;5</title>
<path fill="none" stroke="black" d="M257.17,-71.72C255.95,-63.89 254.51,-54.59 253.18,-45.99"/>
<polygon fill="black" stroke="black" points="256.62,-45.35 251.63,-36 249.71,-46.42 256.62,-45.35"/>
</g>
<!-- 6 -->
<g id="node7" class="node">
<title>6</title>
<polygon fill="none" stroke="black" points="381,-36 305,-36 305,0 381,0 381,-36"/>
<text text-anchor="middle" x="343" y="-14.3" font-family="Times,serif" font-size="14.00">class = 1.0</text>
</g>
<!-- 4&#45;&gt;6 -->
<g id="edge6" class="edge">
<title>4&#45;&gt;6</title>
<path fill="none" stroke="black" d="M281.37,-71.72C291.73,-62.85 304.3,-52.11 315.37,-42.63"/>
<polygon fill="black" stroke="black" points="317.8,-45.16 323.12,-36 313.25,-39.84 317.8,-45.16"/>
</g>
</g>
</svg>
