<?xml version="1.0" encoding="UTF-8" standalone="no"?>
<!DOCTYPE svg PUBLIC "-//W3C//DTD SVG 1.1//EN"
 "http://www.w3.org/Graphics/SVG/1.1/DTD/svg11.dtd">
<!-- Generated by graphviz version 2.48.0 (0)
 -->
<!-- Title: Tree Pages: 1 -->
<svg width="687pt" height="266pt"
 viewBox="0.00 0.00 687.00 266.00" xmlns="http://www.w3.org/2000/svg" xmlns:xlink="http://www.w3.org/1999/xlink">
<g id="graph0" class="graph" transform="scale(1 1) rotate(0) translate(4 262)">
<title>Tree</title>
<polygon fill="white" stroke="transparent" points="-4,4 -4,-262 683,-262 683,4 -4,4"/>
<!-- 0 -->
<g id="node1" class="node">
<title>0</title>
<polygon fill="none" stroke="black" points="407.5,-258 274.5,-258 274.5,-220 407.5,-220 407.5,-258"/>
<text text-anchor="middle" x="341" y="-242.8" font-family="Times,serif" font-size="14.00">LightGBM &lt;= 0.432</text>
<text text-anchor="middle" x="341" y="-227.8" font-family="Times,serif" font-size="14.00">class = 0</text>
</g>
<!-- 1 -->
<g id="node2" class="node">
<title>1</title>
<polygon fill="none" stroke="black" points="328,-184 204,-184 204,-146 328,-146 328,-184"/>
<text text-anchor="middle" x="266" y="-168.8" font-family="Times,serif" font-size="14.00">XGBoost &lt;= 0.131</text>
<text text-anchor="middle" x="266" y="-153.8" font-family="Times,serif" font-size="14.00">class = 0</text>
</g>
<!-- 0&#45;&gt;1 -->
<g id="edge1" class="edge">
<title>0&#45;&gt;1</title>
<path fill="none" stroke="black" d="M322.07,-219.83C313.01,-211.13 302.02,-200.58 292.17,-191.13"/>
<polygon fill="black" stroke="black" points="294.56,-188.56 284.92,-184.16 289.71,-193.61 294.56,-188.56"/>
<text text-anchor="middle" x="285.43" y="-205.46" font-family="Times,serif" font-size="14.00">True</text>
</g>
<!-- 8 -->
<g id="node9" class="node">
<title>8</title>
<polygon fill="none" stroke="black" points="479,-184 355,-184 355,-146 479,-146 479,-184"/>
<text text-anchor="middle" x="417" y="-168.8" font-family="Times,serif" font-size="14.00">XGBoost &lt;= 0.799</text>
<text text-anchor="middle" x="417" y="-153.8" font-family="Times,serif" font-size="14.00">class = 1</text>
</g>
<!-- 0&#45;&gt;8 -->
<g id="edge8" class="edge">
<title>0&#45;&gt;8</title>
<path fill="none" stroke="black" d="M360.18,-219.83C369.36,-211.13 380.5,-200.58 390.48,-191.13"/>
<polygon fill="black" stroke="black" points="392.98,-193.58 397.83,-184.16 388.16,-188.5 392.98,-193.58"/>
<text text-anchor="middle" x="397.15" y="-205.45" font-family="Times,serif" font-size="14.00">False</text>
</g>
<!-- 2 -->
<g id="node3" class="node">
<title>2</title>
<polygon fill="none" stroke="black" points="181.5,-110 48.5,-110 48.5,-72 181.5,-72 181.5,-110"/>
<text text-anchor="middle" x="115" y="-94.8" font-family="Times,serif" font-size="14.00">LightGBM &lt;= 0.066</text>
<text text-anchor="middle" x="115" y="-79.8" font-family="Times,serif" font-size="14.00">class = 0</text>
</g>
<!-- 1&#45;&gt;2 -->
<g id="edge2" class="edge">
<title>1&#45;&gt;2</title>
<path fill="none" stroke="black" d="M227.9,-145.83C207.88,-136.29 183.17,-124.51 161.98,-114.4"/>
<polygon fill="black" stroke="black" points="163.36,-111.18 152.83,-110.04 160.35,-117.5 163.36,-111.18"/>
</g>
<!-- 5 -->
<g id="node6" class="node">
<title>5</title>
<polygon fill="none" stroke="black" points="332.5,-110 199.5,-110 199.5,-72 332.5,-72 332.5,-110"/>
<text text-anchor="middle" x="266" y="-94.8" font-family="Times,serif" font-size="14.00">LightGBM &lt;= 0.254</text>
<text text-anchor="middle" x="266" y="-79.8" font-family="Times,serif" font-size="14.00">class = 0</text>
</g>
<!-- 1&#45;&gt;5 -->
<g id="edge5" class="edge">
<title>1&#45;&gt;5</title>
<path fill="none" stroke="black" d="M266,-145.83C266,-138.13 266,-128.97 266,-120.42"/>
<polygon fill="black" stroke="black" points="269.5,-120.41 266,-110.41 262.5,-120.41 269.5,-120.41"/>
</g>
<!-- 3 -->
<g id="node4" class="node">
<title>3</title>
<polygon fill="none" stroke="black" points="66,-36 0,-36 0,0 66,0 66,-36"/>
<text text-anchor="middle" x="33" y="-14.3" font-family="Times,serif" font-size="14.00">class = 0</text>
</g>
<!-- 2&#45;&gt;3 -->
<g id="edge3" class="edge">
<title>2&#45;&gt;3</title>
<path fill="none" stroke="black" d="M93.88,-71.72C83.65,-62.85 71.24,-52.11 60.29,-42.63"/>
<polygon fill="black" stroke="black" points="62.49,-39.9 52.64,-36 57.91,-45.2 62.49,-39.9"/>
</g>
<!-- 4 -->
<g id="node5" class="node">
<title>4</title>
<polygon fill="none" stroke="black" points="150,-36 84,-36 84,0 150,0 150,-36"/>
<text text-anchor="middle" x="117" y="-14.3" font-family="Times,serif" font-size="14.00">class = 0</text>
</g>
<!-- 2&#45;&gt;4 -->
<g id="edge4" class="edge">
<title>2&#45;&gt;4</title>
<path fill="none" stroke="black" d="M115.52,-71.72C115.73,-63.97 115.99,-54.79 116.23,-46.27"/>
<polygon fill="black" stroke="black" points="119.74,-46.1 116.52,-36 112.74,-45.9 119.74,-46.1"/>
</g>
<!-- 6 -->
<g id="node7" class="node">
<title>6</title>
<polygon fill="none" stroke="black" points="248,-36 182,-36 182,0 248,0 248,-36"/>
<text text-anchor="middle" x="215" y="-14.3" font-family="Times,serif" font-size="14.00">class = 0</text>
</g>
<!-- 5&#45;&gt;6 -->
<g id="edge6" class="edge">
<title>5&#45;&gt;6</title>
<path fill="none" stroke="black" d="M252.87,-71.72C246.87,-63.37 239.68,-53.35 233.17,-44.3"/>
<polygon fill="black" stroke="black" points="235.89,-42.08 227.21,-36 230.21,-46.17 235.89,-42.08"/>
</g>
<!-- 7 -->
<g id="node8" class="node">
<title>7</title>
<polygon fill="none" stroke="black" points="332,-36 266,-36 266,0 332,0 332,-36"/>
<text text-anchor="middle" x="299" y="-14.3" font-family="Times,serif" font-size="14.00">class = 0</text>
</g>
<!-- 5&#45;&gt;7 -->
<g id="edge7" class="edge">
<title>5&#45;&gt;7</title>
<path fill="none" stroke="black" d="M274.5,-71.72C278.26,-63.63 282.75,-53.97 286.85,-45.14"/>
<polygon fill="black" stroke="black" points="290.06,-46.55 291.1,-36 283.71,-43.6 290.06,-46.55"/>
</g>
<!-- 9 -->
<g id="node10" class="node">
<title>9</title>
<polygon fill="none" stroke="black" points="483.5,-110 350.5,-110 350.5,-72 483.5,-72 483.5,-110"/>
<text text-anchor="middle" x="417" y="-94.8" font-family="Times,serif" font-size="14.00">LightGBM &lt;= 0.577</text>
<text text-anchor="middle" x="417" y="-79.8" font-family="Times,serif" font-size="14.00">class = 1</text>
</g>
<!-- 8&#45;&gt;9 -->
<g id="edge9" class="edge">
<title>8&#45;&gt;9</title>
<path fill="none" stroke="black" d="M417,-145.83C417,-138.13 417,-128.97 417,-120.42"/>
<polygon fill="black" stroke="black" points="420.5,-120.41 417,-110.41 413.5,-120.41 420.5,-120.41"/>
</g>
<!-- 12 -->
<g id="node13" class="node">
<title>12</title>
<polygon fill="none" stroke="black" points="626,-110 502,-110 502,-72 626,-72 626,-110"/>
<text text-anchor="middle" x="564" y="-94.8" font-family="Times,serif" font-size="14.00">XGBoost &lt;= 0.917</text>
<text text-anchor="middle" x="564" y="-79.8" font-family="Times,serif" font-size="14.00">class = 1</text>
</g>
<!-- 8&#45;&gt;12 -->
<g id="edge12" class="edge">
<title>8&#45;&gt;12</title>
<path fill="none" stroke="black" d="M454.09,-145.83C473.49,-136.33 497.42,-124.61 517.99,-114.54"/>
<polygon fill="black" stroke="black" points="519.73,-117.58 527.17,-110.04 516.65,-111.29 519.73,-117.58"/>
</g>
<!-- 10 -->
<g id="node11" class="node">
<title>10</title>
<polygon fill="none" stroke="black" points="423,-36 357,-36 357,0 423,0 423,-36"/>
<text text-anchor="middle" x="390" y="-14.3" font-family="Times,serif" font-size="14.00">class = 0</text>
</g>
<!-- 9&#45;&gt;10 -->
<g id="edge10" class="edge">
<title>9&#45;&gt;10</title>
<path fill="none" stroke="black" d="M410.05,-71.72C407,-63.72 403.38,-54.18 400.05,-45.42"/>
<polygon fill="black" stroke="black" points="403.29,-44.11 396.47,-36 396.75,-46.59 403.29,-44.11"/>
</g>
<!-- 11 -->
<g id="node12" class="node">
<title>11</title>
<polygon fill="none" stroke="black" points="507,-36 441,-36 441,0 507,0 507,-36"/>
<text text-anchor="middle" x="474" y="-14.3" font-family="Times,serif" font-size="14.00">class = 1</text>
</g>
<!-- 9&#45;&gt;11 -->
<g id="edge11" class="edge">
<title>9&#45;&gt;11</title>
<path fill="none" stroke="black" d="M431.68,-71.72C438.45,-63.29 446.59,-53.15 453.91,-44.02"/>
<polygon fill="black" stroke="black" points="456.82,-45.99 460.35,-36 451.36,-41.61 456.82,-45.99"/>
</g>
<!-- 13 -->
<g id="node14" class="node">
<title>13</title>
<polygon fill="none" stroke="black" points="595,-36 529,-36 529,0 595,0 595,-36"/>
<text text-anchor="middle" x="562" y="-14.3" font-family="Times,serif" font-size="14.00">class = 1</text>
</g>
<!-- 12&#45;&gt;13 -->
<g id="edge13" class="edge">
<title>12&#45;&gt;13</title>
<path fill="none" stroke="black" d="M563.48,-71.72C563.27,-63.97 563.01,-54.79 562.77,-46.27"/>
<polygon fill="black" stroke="black" points="566.26,-45.9 562.48,-36 559.26,-46.1 566.26,-45.9"/>
</g>
<!-- 14 -->
<g id="node15" class="node">
<title>14</title>
<polygon fill="none" stroke="black" points="679,-36 613,-36 613,0 679,0 679,-36"/>
<text text-anchor="middle" x="646" y="-14.3" font-family="Times,serif" font-size="14.00">class = 1</text>
</g>
<!-- 12&#45;&gt;14 -->
<g id="edge14" class="edge">
<title>12&#45;&gt;14</title>
<path fill="none" stroke="black" d="M585.12,-71.72C595.35,-62.85 607.76,-52.11 618.71,-42.63"/>
<polygon fill="black" stroke="black" points="621.09,-45.2 626.36,-36 616.51,-39.9 621.09,-45.2"/>
</g>
</g>
</svg>
