<?xml version="1.0" encoding="UTF-8" standalone="no"?>
<!DOCTYPE svg PUBLIC "-//W3C//DTD SVG 1.1//EN"
 "http://www.w3.org/Graphics/SVG/1.1/DTD/svg11.dtd">
<!-- Generated by graphviz version 6.0.1 (0)
 -->
<!-- Title: Tree Pages: 1 -->
<svg width="761pt" height="266pt"
 viewBox="0.00 0.00 761.00 266.00" xmlns="http://www.w3.org/2000/svg" xmlns:xlink="http://www.w3.org/1999/xlink">
<g id="graph0" class="graph" transform="scale(1 1) rotate(0) translate(4 262)">
<title>Tree</title>
<polygon fill="white" stroke="none" points="-4,4 -4,-262 757,-262 757,4 -4,4"/>
<!-- 0 -->
<g id="node1" class="node">
<title>0</title>
<polygon fill="none" stroke="black" points="447.5,-258 311.5,-258 311.5,-220 447.5,-220 447.5,-258"/>
<text text-anchor="middle" x="379.5" y="-242.8" font-family="Helvetica,sans-Serif" font-size="14.00">LightGBM &lt;= 0.428</text>
<text text-anchor="middle" x="379.5" y="-227.8" font-family="Helvetica,sans-Serif" font-size="14.00">class = 0</text>
</g>
<!-- 1 -->
<g id="node2" class="node">
<title>1</title>
<polygon fill="none" stroke="black" points="343.5,-184 215.5,-184 215.5,-146 343.5,-146 343.5,-184"/>
<text text-anchor="middle" x="279.5" y="-168.8" font-family="Helvetica,sans-Serif" font-size="14.00">LightGBM &lt;= 0.12</text>
<text text-anchor="middle" x="279.5" y="-153.8" font-family="Helvetica,sans-Serif" font-size="14.00">class = 0</text>
</g>
<!-- 0&#45;&gt;1 -->
<g id="edge1" class="edge">
<title>0&#45;&gt;1</title>
<path fill="none" stroke="black" d="M354.27,-219.83C341.71,-210.79 326.37,-199.75 312.86,-190.02"/>
<polygon fill="black" stroke="black" points="314.89,-187.17 304.73,-184.16 310.8,-192.85 314.89,-187.17"/>
<text text-anchor="middle" x="308.74" y="-205.14" font-family="Helvetica,sans-Serif" font-size="14.00">True</text>
</g>
<!-- 8 -->
<g id="node9" class="node">
<title>8</title>
<polygon fill="none" stroke="black" points="547.5,-184 411.5,-184 411.5,-146 547.5,-146 547.5,-184"/>
<text text-anchor="middle" x="479.5" y="-168.8" font-family="Helvetica,sans-Serif" font-size="14.00">LightGBM &lt;= 0.776</text>
<text text-anchor="middle" x="479.5" y="-153.8" font-family="Helvetica,sans-Serif" font-size="14.00">class = 1</text>
</g>
<!-- 0&#45;&gt;8 -->
<g id="edge8" class="edge">
<title>0&#45;&gt;8</title>
<path fill="none" stroke="black" d="M404.73,-219.83C417.29,-210.79 432.63,-199.75 446.14,-190.02"/>
<polygon fill="black" stroke="black" points="448.2,-192.85 454.27,-184.16 444.11,-187.17 448.2,-192.85"/>
<text text-anchor="middle" x="450.26" y="-205.14" font-family="Helvetica,sans-Serif" font-size="14.00">False</text>
</g>
<!-- 2 -->
<g id="node3" class="node">
<title>2</title>
<polygon fill="none" stroke="black" points="170.5,-110 34.5,-110 34.5,-72 170.5,-72 170.5,-110"/>
<text text-anchor="middle" x="102.5" y="-94.8" font-family="Helvetica,sans-Serif" font-size="14.00">LightGBM &lt;= 0.032</text>
<text text-anchor="middle" x="102.5" y="-79.8" font-family="Helvetica,sans-Serif" font-size="14.00">class = 0</text>
</g>
<!-- 1&#45;&gt;2 -->
<g id="edge2" class="edge">
<title>1&#45;&gt;2</title>
<path fill="none" stroke="black" d="M234.84,-145.83C210.95,-136.12 181.37,-124.08 156.24,-113.86"/>
<polygon fill="black" stroke="black" points="157.43,-110.56 146.84,-110.04 154.79,-117.05 157.43,-110.56"/>
</g>
<!-- 5 -->
<g id="node6" class="node">
<title>5</title>
<polygon fill="none" stroke="black" points="370.5,-110 188.5,-110 188.5,-72 370.5,-72 370.5,-110"/>
<text text-anchor="middle" x="279.5" y="-94.8" font-family="Helvetica,sans-Serif" font-size="14.00">logistic regression &lt;= 0.237</text>
<text text-anchor="middle" x="279.5" y="-79.8" font-family="Helvetica,sans-Serif" font-size="14.00">class = 0</text>
</g>
<!-- 1&#45;&gt;5 -->
<g id="edge5" class="edge">
<title>1&#45;&gt;5</title>
<path fill="none" stroke="black" d="M279.5,-145.83C279.5,-138.13 279.5,-128.97 279.5,-120.42"/>
<polygon fill="black" stroke="black" points="283,-120.41 279.5,-110.41 276,-120.41 283,-120.41"/>
</g>
<!-- 3 -->
<g id="node4" class="node">
<title>3</title>
<polygon fill="none" stroke="black" points="71,-36 0,-36 0,0 71,0 71,-36"/>
<text text-anchor="middle" x="35.5" y="-14.3" font-family="Helvetica,sans-Serif" font-size="14.00">class = 0</text>
</g>
<!-- 2&#45;&gt;3 -->
<g id="edge3" class="edge">
<title>2&#45;&gt;3</title>
<path fill="none" stroke="black" d="M85.25,-71.72C77.13,-63.11 67.33,-52.73 58.58,-43.46"/>
<polygon fill="black" stroke="black" points="60.95,-40.87 51.55,-36 55.86,-45.68 60.95,-40.87"/>
</g>
<!-- 4 -->
<g id="node5" class="node">
<title>4</title>
<polygon fill="none" stroke="black" points="160,-36 89,-36 89,0 160,0 160,-36"/>
<text text-anchor="middle" x="124.5" y="-14.3" font-family="Helvetica,sans-Serif" font-size="14.00">class = 0</text>
</g>
<!-- 2&#45;&gt;4 -->
<g id="edge4" class="edge">
<title>2&#45;&gt;4</title>
<path fill="none" stroke="black" d="M108.17,-71.72C110.62,-63.8 113.54,-54.38 116.22,-45.71"/>
<polygon fill="black" stroke="black" points="119.61,-46.59 119.23,-36 112.93,-44.52 119.61,-46.59"/>
</g>
<!-- 6 -->
<g id="node7" class="node">
<title>6</title>
<polygon fill="none" stroke="black" points="293,-36 222,-36 222,0 293,0 293,-36"/>
<text text-anchor="middle" x="257.5" y="-14.3" font-family="Helvetica,sans-Serif" font-size="14.00">class = 0</text>
</g>
<!-- 5&#45;&gt;6 -->
<g id="edge6" class="edge">
<title>5&#45;&gt;6</title>
<path fill="none" stroke="black" d="M273.83,-71.72C271.38,-63.8 268.46,-54.38 265.78,-45.71"/>
<polygon fill="black" stroke="black" points="269.07,-44.52 262.77,-36 262.39,-46.59 269.07,-44.52"/>
</g>
<!-- 7 -->
<g id="node8" class="node">
<title>7</title>
<polygon fill="none" stroke="black" points="382,-36 311,-36 311,0 382,0 382,-36"/>
<text text-anchor="middle" x="346.5" y="-14.3" font-family="Helvetica,sans-Serif" font-size="14.00">class = 0</text>
</g>
<!-- 5&#45;&gt;7 -->
<g id="edge7" class="edge">
<title>5&#45;&gt;7</title>
<path fill="none" stroke="black" d="M296.75,-71.72C304.87,-63.11 314.67,-52.73 323.42,-43.46"/>
<polygon fill="black" stroke="black" points="326.14,-45.68 330.45,-36 321.05,-40.87 326.14,-45.68"/>
</g>
<!-- 9 -->
<g id="node10" class="node">
<title>9</title>
<polygon fill="none" stroke="black" points="570.5,-110 388.5,-110 388.5,-72 570.5,-72 570.5,-110"/>
<text text-anchor="middle" x="479.5" y="-94.8" font-family="Helvetica,sans-Serif" font-size="14.00">logistic regression &lt;= 0.404</text>
<text text-anchor="middle" x="479.5" y="-79.8" font-family="Helvetica,sans-Serif" font-size="14.00">class = 1</text>
</g>
<!-- 8&#45;&gt;9 -->
<g id="edge9" class="edge">
<title>8&#45;&gt;9</title>
<path fill="none" stroke="black" d="M479.5,-145.83C479.5,-138.13 479.5,-128.97 479.5,-120.42"/>
<polygon fill="black" stroke="black" points="483,-120.41 479.5,-110.41 476,-120.41 483,-120.41"/>
</g>
<!-- 12 -->
<g id="node13" class="node">
<title>12</title>
<polygon fill="none" stroke="black" points="724.5,-110 588.5,-110 588.5,-72 724.5,-72 724.5,-110"/>
<text text-anchor="middle" x="656.5" y="-94.8" font-family="Helvetica,sans-Serif" font-size="14.00">LightGBM &lt;= 0.911</text>
<text text-anchor="middle" x="656.5" y="-79.8" font-family="Helvetica,sans-Serif" font-size="14.00">class = 1</text>
</g>
<!-- 8&#45;&gt;12 -->
<g id="edge12" class="edge">
<title>8&#45;&gt;12</title>
<path fill="none" stroke="black" d="M524.16,-145.83C548.05,-136.12 577.63,-124.08 602.76,-113.86"/>
<polygon fill="black" stroke="black" points="604.21,-117.05 612.16,-110.04 601.57,-110.56 604.21,-117.05"/>
</g>
<!-- 10 -->
<g id="node11" class="node">
<title>10</title>
<polygon fill="none" stroke="black" points="481,-36 410,-36 410,0 481,0 481,-36"/>
<text text-anchor="middle" x="445.5" y="-14.3" font-family="Helvetica,sans-Serif" font-size="14.00">class = 0</text>
</g>
<!-- 9&#45;&gt;10 -->
<g id="edge10" class="edge">
<title>9&#45;&gt;10</title>
<path fill="none" stroke="black" d="M470.74,-71.72C466.87,-63.63 462.25,-53.97 458.02,-45.14"/>
<polygon fill="black" stroke="black" points="461.12,-43.51 453.64,-36 454.8,-46.53 461.12,-43.51"/>
</g>
<!-- 11 -->
<g id="node12" class="node">
<title>11</title>
<polygon fill="none" stroke="black" points="570,-36 499,-36 499,0 570,0 570,-36"/>
<text text-anchor="middle" x="534.5" y="-14.3" font-family="Helvetica,sans-Serif" font-size="14.00">class = 1</text>
</g>
<!-- 9&#45;&gt;11 -->
<g id="edge11" class="edge">
<title>9&#45;&gt;11</title>
<path fill="none" stroke="black" d="M493.66,-71.72C500.19,-63.29 508.05,-53.15 515.12,-44.02"/>
<polygon fill="black" stroke="black" points="517.97,-46.05 521.33,-36 512.44,-41.77 517.97,-46.05"/>
</g>
<!-- 13 -->
<g id="node14" class="node">
<title>13</title>
<polygon fill="none" stroke="black" points="664,-36 593,-36 593,0 664,0 664,-36"/>
<text text-anchor="middle" x="628.5" y="-14.3" font-family="Helvetica,sans-Serif" font-size="14.00">class = 1</text>
</g>
<!-- 12&#45;&gt;13 -->
<g id="edge13" class="edge">
<title>12&#45;&gt;13</title>
<path fill="none" stroke="black" d="M649.29,-71.72C646.13,-63.72 642.37,-54.18 638.92,-45.42"/>
<polygon fill="black" stroke="black" points="642.13,-44.02 635.21,-36 635.62,-46.59 642.13,-44.02"/>
</g>
<!-- 14 -->
<g id="node15" class="node">
<title>14</title>
<polygon fill="none" stroke="black" points="753,-36 682,-36 682,0 753,0 753,-36"/>
<text text-anchor="middle" x="717.5" y="-14.3" font-family="Helvetica,sans-Serif" font-size="14.00">class = 1</text>
</g>
<!-- 12&#45;&gt;14 -->
<g id="edge14" class="edge">
<title>12&#45;&gt;14</title>
<path fill="none" stroke="black" d="M672.21,-71.72C679.53,-63.2 688.34,-52.94 696.24,-43.74"/>
<polygon fill="black" stroke="black" points="699.03,-45.87 702.89,-36 693.72,-41.31 699.03,-45.87"/>
</g>
</g>
</svg>
