<?xml version="1.0" encoding="UTF-8" standalone="no"?>
<!DOCTYPE svg PUBLIC "-//W3C//DTD SVG 1.1//EN"
 "http://www.w3.org/Graphics/SVG/1.1/DTD/svg11.dtd">
<!-- Generated by graphviz version 2.48.0 (0)
 -->
<!-- Title: Tree Pages: 1 -->
<svg width="392pt" height="192pt"
 viewBox="0.00 0.00 392.00 192.00" xmlns="http://www.w3.org/2000/svg" xmlns:xlink="http://www.w3.org/1999/xlink">
<g id="graph0" class="graph" transform="scale(1 1) rotate(0) translate(4 188)">
<title>Tree</title>
<polygon fill="white" stroke="transparent" points="-4,4 -4,-188 388,-188 388,4 -4,4"/>
<!-- 0 -->
<g id="node1" class="node">
<title>0</title>
<polygon fill="none" stroke="black" points="251,-184 133,-184 133,-146 251,-146 251,-184"/>
<text text-anchor="middle" x="192" y="-168.8" font-family="Times,serif" font-size="14.00">education &lt;= 12.5</text>
<text text-anchor="middle" x="192" y="-153.8" font-family="Times,serif" font-size="14.00">class = 0.0</text>
</g>
<!-- 1 -->
<g id="node2" class="node">
<title>1</title>
<polygon fill="none" stroke="black" points="177.5,-110 60.5,-110 60.5,-72 177.5,-72 177.5,-110"/>
<text text-anchor="middle" x="119" y="-94.8" font-family="Times,serif" font-size="14.00">x0_Private &lt;= 0.5</text>
<text text-anchor="middle" x="119" y="-79.8" font-family="Times,serif" font-size="14.00">class = 0.0</text>
</g>
<!-- 0&#45;&gt;1 -->
<g id="edge1" class="edge">
<title>0&#45;&gt;1</title>
<path fill="none" stroke="black" d="M173.58,-145.83C164.85,-137.22 154.27,-126.79 144.76,-117.4"/>
<polygon fill="black" stroke="black" points="146.99,-114.69 137.42,-110.16 142.08,-119.68 146.99,-114.69"/>
<text text-anchor="middle" x="137.59" y="-131.46" font-family="Times,serif" font-size="14.00">True</text>
</g>
<!-- 4 -->
<g id="node5" class="node">
<title>4</title>
<polygon fill="none" stroke="black" points="334,-110 196,-110 196,-72 334,-72 334,-110"/>
<text text-anchor="middle" x="265" y="-94.8" font-family="Times,serif" font-size="14.00">x3_Unmarried &lt;= 0.5</text>
<text text-anchor="middle" x="265" y="-79.8" font-family="Times,serif" font-size="14.00">class = 0.0</text>
</g>
<!-- 0&#45;&gt;4 -->
<g id="edge4" class="edge">
<title>0&#45;&gt;4</title>
<path fill="none" stroke="black" d="M210.42,-145.83C219.15,-137.22 229.73,-126.79 239.24,-117.4"/>
<polygon fill="black" stroke="black" points="241.92,-119.68 246.58,-110.16 237.01,-114.69 241.92,-119.68"/>
<text text-anchor="middle" x="246.41" y="-131.46" font-family="Times,serif" font-size="14.00">False</text>
</g>
<!-- 2 -->
<g id="node3" class="node">
<title>2</title>
<polygon fill="none" stroke="black" points="76,-36 0,-36 0,0 76,0 76,-36"/>
<text text-anchor="middle" x="38" y="-14.3" font-family="Times,serif" font-size="14.00">class = 0.0</text>
</g>
<!-- 1&#45;&gt;2 -->
<g id="edge2" class="edge">
<title>1&#45;&gt;2</title>
<path fill="none" stroke="black" d="M98.14,-71.72C88.03,-62.85 75.77,-52.11 64.96,-42.63"/>
<polygon fill="black" stroke="black" points="67.23,-39.96 57.4,-36 62.61,-45.23 67.23,-39.96"/>
</g>
<!-- 3 -->
<g id="node4" class="node">
<title>3</title>
<polygon fill="none" stroke="black" points="170,-36 94,-36 94,0 170,0 170,-36"/>
<text text-anchor="middle" x="132" y="-14.3" font-family="Times,serif" font-size="14.00">class = 0.0</text>
</g>
<!-- 1&#45;&gt;3 -->
<g id="edge3" class="edge">
<title>1&#45;&gt;3</title>
<path fill="none" stroke="black" d="M122.35,-71.72C123.78,-63.89 125.48,-54.59 127.06,-45.99"/>
<polygon fill="black" stroke="black" points="130.53,-46.47 128.89,-36 123.64,-45.21 130.53,-46.47"/>
</g>
<!-- 5 -->
<g id="node6" class="node">
<title>5</title>
<polygon fill="none" stroke="black" points="290,-36 214,-36 214,0 290,0 290,-36"/>
<text text-anchor="middle" x="252" y="-14.3" font-family="Times,serif" font-size="14.00">class = 0.0</text>
</g>
<!-- 4&#45;&gt;5 -->
<g id="edge5" class="edge">
<title>4&#45;&gt;5</title>
<path fill="none" stroke="black" d="M261.65,-71.72C260.22,-63.89 258.52,-54.59 256.94,-45.99"/>
<polygon fill="black" stroke="black" points="260.36,-45.21 255.11,-36 253.47,-46.47 260.36,-45.21"/>
</g>
<!-- 6 -->
<g id="node7" class="node">
<title>6</title>
<polygon fill="none" stroke="black" points="384,-36 308,-36 308,0 384,0 384,-36"/>
<text text-anchor="middle" x="346" y="-14.3" font-family="Times,serif" font-size="14.00">class = 0.0</text>
</g>
<!-- 4&#45;&gt;6 -->
<g id="edge6" class="edge">
<title>4&#45;&gt;6</title>
<path fill="none" stroke="black" d="M285.86,-71.72C295.97,-62.85 308.23,-52.11 319.04,-42.63"/>
<polygon fill="black" stroke="black" points="321.39,-45.23 326.6,-36 316.77,-39.96 321.39,-45.23"/>
</g>
</g>
</svg>
