<?xml version="1.0" encoding="UTF-8" standalone="no"?>
<!DOCTYPE svg PUBLIC "-//W3C//DTD SVG 1.1//EN"
 "http://www.w3.org/Graphics/SVG/1.1/DTD/svg11.dtd">
<!-- Generated by graphviz version 2.48.0 (0)
 -->
<!-- Pages: 1 -->
<svg width="175pt" height="261pt"
 viewBox="0.00 0.00 175.00 261.00" xmlns="http://www.w3.org/2000/svg" xmlns:xlink="http://www.w3.org/1999/xlink">
<g id="graph0" class="graph" transform="scale(1 1) rotate(0) translate(4 257)">
<polygon fill="white" stroke="transparent" points="-4,4 -4,-257 171,-257 171,4 -4,4"/>
<g id="clust1" class="cluster">
<title>cluster_0</title>
<polygon fill="none" stroke="white" points="8,-8 8,-245 60,-245 60,-8 8,-8"/>
<text text-anchor="middle" x="34" y="-229.8" font-family="Times,serif" font-size="14.00">inputs</text>
</g>
<g id="clust2" class="cluster">
<title>cluster_2</title>
<polygon fill="none" stroke="white" points="107,-89 107,-164 159,-164 159,-89 107,-89"/>
<text text-anchor="middle" x="133" y="-148.8" font-family="Times,serif" font-size="14.00">output</text>
</g>
<!-- x[0] -->
<g id="node1" class="node">
<title>x[0]</title>
<ellipse fill="none" stroke="black" cx="34" cy="-196" rx="18" ry="18"/>
<text text-anchor="middle" x="34" y="-192.3" font-family="Times,serif" font-size="14.00">x[0]</text>
</g>
<!-- y -->
<g id="node5" class="node">
<title>y</title>
<ellipse fill="none" stroke="black" cx="133" cy="-115" rx="18" ry="18"/>
<text text-anchor="middle" x="133" y="-111.3" font-family="Times,serif" font-size="14.00">y</text>
</g>
<!-- x[0]&#45;&gt;y -->
<g id="edge1" class="edge">
<title>x[0]&#45;&gt;y</title>
<path fill="none" stroke="black" d="M48.49,-184.74C64.63,-171.26 91.86,-148.52 110.82,-132.69"/>
<polygon fill="black" stroke="black" points="113.19,-135.26 118.63,-126.17 108.71,-129.89 113.19,-135.26"/>
<text text-anchor="middle" x="83.5" y="-171.8" font-family="Times,serif" font-size="14.00">w[0]</text>
</g>
<!-- x[1] -->
<g id="node2" class="node">
<title>x[1]</title>
<ellipse fill="none" stroke="black" cx="34" cy="-142" rx="18" ry="18"/>
<text text-anchor="middle" x="34" y="-138.3" font-family="Times,serif" font-size="14.00">x[1]</text>
</g>
<!-- x[1]&#45;&gt;y -->
<g id="edge2" class="edge">
<title>x[1]&#45;&gt;y</title>
<path fill="none" stroke="black" d="M51.45,-137.42C66.23,-133.31 88.18,-127.2 105.43,-122.4"/>
<polygon fill="black" stroke="black" points="106.77,-125.66 115.46,-119.6 104.89,-118.91 106.77,-125.66"/>
<text text-anchor="middle" x="83.5" y="-134.8" font-family="Times,serif" font-size="14.00">w[1]</text>
</g>
<!-- x[2] -->
<g id="node3" class="node">
<title>x[2]</title>
<ellipse fill="none" stroke="black" cx="34" cy="-88" rx="18" ry="18"/>
<text text-anchor="middle" x="34" y="-84.3" font-family="Times,serif" font-size="14.00">x[2]</text>
</g>
<!-- x[2]&#45;&gt;y -->
<g id="edge3" class="edge">
<title>x[2]&#45;&gt;y</title>
<path fill="none" stroke="black" d="M51.45,-92.58C66.23,-96.69 88.18,-102.8 105.43,-107.6"/>
<polygon fill="black" stroke="black" points="104.89,-111.09 115.46,-110.4 106.77,-104.34 104.89,-111.09"/>
<text text-anchor="middle" x="83.5" y="-107.8" font-family="Times,serif" font-size="14.00">w[2]</text>
</g>
<!-- x[3] -->
<g id="node4" class="node">
<title>x[3]</title>
<ellipse fill="none" stroke="black" cx="34" cy="-34" rx="18" ry="18"/>
<text text-anchor="middle" x="34" y="-30.3" font-family="Times,serif" font-size="14.00">x[3]</text>
</g>
<!-- x[3]&#45;&gt;y -->
<g id="edge4" class="edge">
<title>x[3]&#45;&gt;y</title>
<path fill="none" stroke="black" d="M48.49,-45.26C64.63,-58.74 91.86,-81.48 110.82,-97.31"/>
<polygon fill="black" stroke="black" points="108.71,-100.11 118.63,-103.83 113.19,-94.74 108.71,-100.11"/>
<text text-anchor="middle" x="83.5" y="-82.8" font-family="Times,serif" font-size="14.00">w[3]</text>
</g>
</g>
</svg>
