<?xml version="1.0" encoding="UTF-8" standalone="no"?>
<!DOCTYPE svg PUBLIC "-//W3C//DTD SVG 1.1//EN"
 "http://www.w3.org/Graphics/SVG/1.1/DTD/svg11.dtd">
<!-- Generated by graphviz version 2.48.0 (0)
 -->
<!-- Pages: 1 -->
<svg width="382pt" height="261pt"
 viewBox="0.00 0.00 382.00 261.00" xmlns="http://www.w3.org/2000/svg" xmlns:xlink="http://www.w3.org/1999/xlink">
<g id="graph0" class="graph" transform="scale(1 1) rotate(0) translate(4 257)">
<polygon fill="white" stroke="transparent" points="-4,4 -4,-257 378,-257 378,4 -4,4"/>
<g id="clust1" class="cluster">
<title>cluster_0</title>
<polygon fill="none" stroke="white" points="8,-8 8,-245 60,-245 60,-8 8,-8"/>
<text text-anchor="middle" x="34" y="-229.8" font-family="Times,serif" font-size="14.00">inputs</text>
</g>
<g id="clust2" class="cluster">
<title>cluster_1</title>
<polygon fill="none" stroke="white" points="80,-35 80,-218 177,-218 177,-35 80,-35"/>
<text text-anchor="middle" x="128.5" y="-202.8" font-family="Times,serif" font-size="14.00">hidden layer 1</text>
</g>
<g id="clust3" class="cluster">
<title>cluster_2</title>
<polygon fill="none" stroke="white" points="197,-35 197,-218 294,-218 294,-35 197,-35"/>
<text text-anchor="middle" x="245.5" y="-202.8" font-family="Times,serif" font-size="14.00">hidden layer 2</text>
</g>
<g id="clust4" class="cluster">
<title>cluster_3</title>
<polygon fill="none" stroke="white" points="314,-89 314,-164 366,-164 366,-89 314,-89"/>
<text text-anchor="middle" x="340" y="-148.8" font-family="Times,serif" font-size="14.00">output</text>
</g>
<!-- x[0] -->
<g id="node1" class="node">
<title>x[0]</title>
<ellipse fill="none" stroke="black" cx="34" cy="-196" rx="18" ry="18"/>
<text text-anchor="middle" x="34" y="-192.3" font-family="Times,serif" font-size="14.00">x[0]</text>
</g>
<!-- h1[0] -->
<g id="node5" class="node">
<title>h1[0]</title>
<ellipse fill="none" stroke="black" cx="128" cy="-61" rx="18" ry="18"/>
<text text-anchor="middle" x="128" y="-57.3" font-family="Times,serif" font-size="14.00">h1[0]</text>
</g>
<!-- x[0]&#45;&gt;h1[0] -->
<g id="edge1" class="edge">
<title>x[0]&#45;&gt;h1[0]</title>
<path fill="none" stroke="black" d="M44.85,-181.55C60.74,-158.23 92.19,-112.08 111.24,-84.13"/>
<polygon fill="black" stroke="black" points="114.21,-85.99 116.95,-75.75 108.42,-82.05 114.21,-85.99"/>
</g>
<!-- h1[1] -->
<g id="node6" class="node">
<title>h1[1]</title>
<ellipse fill="none" stroke="black" cx="128" cy="-169" rx="18" ry="18"/>
<text text-anchor="middle" x="128" y="-165.3" font-family="Times,serif" font-size="14.00">h1[1]</text>
</g>
<!-- x[0]&#45;&gt;h1[1] -->
<g id="edge2" class="edge">
<title>x[0]&#45;&gt;h1[1]</title>
<path fill="none" stroke="black" d="M51.45,-191.17C65.1,-187.17 84.77,-181.39 100.62,-176.74"/>
<polygon fill="black" stroke="black" points="101.77,-180.05 110.38,-173.88 99.8,-173.33 101.77,-180.05"/>
</g>
<!-- h1[2] -->
<g id="node7" class="node">
<title>h1[2]</title>
<ellipse fill="none" stroke="black" cx="128" cy="-115" rx="18" ry="18"/>
<text text-anchor="middle" x="128" y="-111.3" font-family="Times,serif" font-size="14.00">h1[2]</text>
</g>
<!-- x[0]&#45;&gt;h1[2] -->
<g id="edge3" class="edge">
<title>x[0]&#45;&gt;h1[2]</title>
<path fill="none" stroke="black" d="M48.18,-184.39C63.35,-171.04 88.45,-148.94 106.24,-133.28"/>
<polygon fill="black" stroke="black" points="108.65,-135.82 113.84,-126.58 104.02,-130.57 108.65,-135.82"/>
</g>
<!-- x[1] -->
<g id="node2" class="node">
<title>x[1]</title>
<ellipse fill="none" stroke="black" cx="34" cy="-142" rx="18" ry="18"/>
<text text-anchor="middle" x="34" y="-138.3" font-family="Times,serif" font-size="14.00">x[1]</text>
</g>
<!-- x[1]&#45;&gt;h1[0] -->
<g id="edge4" class="edge">
<title>x[1]&#45;&gt;h1[0]</title>
<path fill="none" stroke="black" d="M48.18,-130.39C63.35,-117.04 88.45,-94.94 106.24,-79.28"/>
<polygon fill="black" stroke="black" points="108.65,-81.82 113.84,-72.58 104.02,-76.57 108.65,-81.82"/>
</g>
<!-- x[1]&#45;&gt;h1[1] -->
<g id="edge5" class="edge">
<title>x[1]&#45;&gt;h1[1]</title>
<path fill="none" stroke="black" d="M51.45,-146.83C65.1,-150.83 84.77,-156.61 100.62,-161.26"/>
<polygon fill="black" stroke="black" points="99.8,-164.67 110.38,-164.12 101.77,-157.95 99.8,-164.67"/>
</g>
<!-- x[1]&#45;&gt;h1[2] -->
<g id="edge6" class="edge">
<title>x[1]&#45;&gt;h1[2]</title>
<path fill="none" stroke="black" d="M51.45,-137.17C65.1,-133.17 84.77,-127.39 100.62,-122.74"/>
<polygon fill="black" stroke="black" points="101.77,-126.05 110.38,-119.88 99.8,-119.33 101.77,-126.05"/>
</g>
<!-- x[2] -->
<g id="node3" class="node">
<title>x[2]</title>
<ellipse fill="none" stroke="black" cx="34" cy="-88" rx="18" ry="18"/>
<text text-anchor="middle" x="34" y="-84.3" font-family="Times,serif" font-size="14.00">x[2]</text>
</g>
<!-- x[2]&#45;&gt;h1[0] -->
<g id="edge7" class="edge">
<title>x[2]&#45;&gt;h1[0]</title>
<path fill="none" stroke="black" d="M51.45,-83.17C65.1,-79.17 84.77,-73.39 100.62,-68.74"/>
<polygon fill="black" stroke="black" points="101.77,-72.05 110.38,-65.88 99.8,-65.33 101.77,-72.05"/>
</g>
<!-- x[2]&#45;&gt;h1[1] -->
<g id="edge8" class="edge">
<title>x[2]&#45;&gt;h1[1]</title>
<path fill="none" stroke="black" d="M48.18,-99.61C63.35,-112.96 88.45,-135.06 106.24,-150.72"/>
<polygon fill="black" stroke="black" points="104.02,-153.43 113.84,-157.42 108.65,-148.18 104.02,-153.43"/>
</g>
<!-- x[2]&#45;&gt;h1[2] -->
<g id="edge9" class="edge">
<title>x[2]&#45;&gt;h1[2]</title>
<path fill="none" stroke="black" d="M51.45,-92.83C65.1,-96.83 84.77,-102.61 100.62,-107.26"/>
<polygon fill="black" stroke="black" points="99.8,-110.67 110.38,-110.12 101.77,-103.95 99.8,-110.67"/>
</g>
<!-- x[3] -->
<g id="node4" class="node">
<title>x[3]</title>
<ellipse fill="none" stroke="black" cx="34" cy="-34" rx="18" ry="18"/>
<text text-anchor="middle" x="34" y="-30.3" font-family="Times,serif" font-size="14.00">x[3]</text>
</g>
<!-- x[3]&#45;&gt;h1[0] -->
<g id="edge10" class="edge">
<title>x[3]&#45;&gt;h1[0]</title>
<path fill="none" stroke="black" d="M51.45,-38.83C65.1,-42.83 84.77,-48.61 100.62,-53.26"/>
<polygon fill="black" stroke="black" points="99.8,-56.67 110.38,-56.12 101.77,-49.95 99.8,-56.67"/>
</g>
<!-- x[3]&#45;&gt;h1[1] -->
<g id="edge11" class="edge">
<title>x[3]&#45;&gt;h1[1]</title>
<path fill="none" stroke="black" d="M44.85,-48.45C60.74,-71.77 92.19,-117.92 111.24,-145.87"/>
<polygon fill="black" stroke="black" points="108.42,-147.95 116.95,-154.25 114.21,-144.01 108.42,-147.95"/>
</g>
<!-- x[3]&#45;&gt;h1[2] -->
<g id="edge12" class="edge">
<title>x[3]&#45;&gt;h1[2]</title>
<path fill="none" stroke="black" d="M48.18,-45.61C63.35,-58.96 88.45,-81.06 106.24,-96.72"/>
<polygon fill="black" stroke="black" points="104.02,-99.43 113.84,-103.42 108.65,-94.18 104.02,-99.43"/>
</g>
<!-- h2[0] -->
<g id="node8" class="node">
<title>h2[0]</title>
<ellipse fill="none" stroke="black" cx="245" cy="-61" rx="18" ry="18"/>
<text text-anchor="middle" x="245" y="-57.3" font-family="Times,serif" font-size="14.00">h2[0]</text>
</g>
<!-- h1[0]&#45;&gt;h2[0] -->
<g id="edge13" class="edge">
<title>h1[0]&#45;&gt;h2[0]</title>
<path fill="none" stroke="black" d="M146.47,-61C165.06,-61 194.76,-61 216.5,-61"/>
<polygon fill="black" stroke="black" points="216.75,-64.5 226.75,-61 216.75,-57.5 216.75,-64.5"/>
</g>
<!-- h2[1] -->
<g id="node9" class="node">
<title>h2[1]</title>
<ellipse fill="none" stroke="black" cx="245" cy="-169" rx="18" ry="18"/>
<text text-anchor="middle" x="245" y="-165.3" font-family="Times,serif" font-size="14.00">h2[1]</text>
</g>
<!-- h1[0]&#45;&gt;h2[1] -->
<g id="edge14" class="edge">
<title>h1[0]&#45;&gt;h2[1]</title>
<path fill="none" stroke="black" d="M141.75,-72.97C161.61,-91.62 200.11,-127.78 223.78,-150.01"/>
<polygon fill="black" stroke="black" points="221.51,-152.68 231.2,-156.98 226.3,-147.58 221.51,-152.68"/>
</g>
<!-- h2[2] -->
<g id="node10" class="node">
<title>h2[2]</title>
<ellipse fill="none" stroke="black" cx="245" cy="-115" rx="18" ry="18"/>
<text text-anchor="middle" x="245" y="-111.3" font-family="Times,serif" font-size="14.00">h2[2]</text>
</g>
<!-- h1[0]&#45;&gt;h2[2] -->
<g id="edge15" class="edge">
<title>h1[0]&#45;&gt;h2[2]</title>
<path fill="none" stroke="black" d="M144.51,-68.28C163.63,-77.26 196.37,-92.63 219.04,-103.28"/>
<polygon fill="black" stroke="black" points="217.83,-106.58 228.37,-107.66 220.8,-100.24 217.83,-106.58"/>
</g>
<!-- h1[1]&#45;&gt;h2[0] -->
<g id="edge16" class="edge">
<title>h1[1]&#45;&gt;h2[0]</title>
<path fill="none" stroke="black" d="M141.75,-157.03C161.61,-138.38 200.11,-102.22 223.78,-79.99"/>
<polygon fill="black" stroke="black" points="226.3,-82.42 231.2,-73.02 221.51,-77.32 226.3,-82.42"/>
</g>
<!-- h1[1]&#45;&gt;h2[1] -->
<g id="edge17" class="edge">
<title>h1[1]&#45;&gt;h2[1]</title>
<path fill="none" stroke="black" d="M146.47,-169C165.06,-169 194.76,-169 216.5,-169"/>
<polygon fill="black" stroke="black" points="216.75,-172.5 226.75,-169 216.75,-165.5 216.75,-172.5"/>
</g>
<!-- h1[1]&#45;&gt;h2[2] -->
<g id="edge18" class="edge">
<title>h1[1]&#45;&gt;h2[2]</title>
<path fill="none" stroke="black" d="M144.51,-161.72C163.63,-152.74 196.37,-137.37 219.04,-126.72"/>
<polygon fill="black" stroke="black" points="220.8,-129.76 228.37,-122.34 217.83,-123.42 220.8,-129.76"/>
</g>
<!-- h1[2]&#45;&gt;h2[0] -->
<g id="edge19" class="edge">
<title>h1[2]&#45;&gt;h2[0]</title>
<path fill="none" stroke="black" d="M144.51,-107.72C163.63,-98.74 196.37,-83.37 219.04,-72.72"/>
<polygon fill="black" stroke="black" points="220.8,-75.76 228.37,-68.34 217.83,-69.42 220.8,-75.76"/>
</g>
<!-- h1[2]&#45;&gt;h2[1] -->
<g id="edge20" class="edge">
<title>h1[2]&#45;&gt;h2[1]</title>
<path fill="none" stroke="black" d="M144.51,-122.28C163.63,-131.26 196.37,-146.63 219.04,-157.28"/>
<polygon fill="black" stroke="black" points="217.83,-160.58 228.37,-161.66 220.8,-154.24 217.83,-160.58"/>
</g>
<!-- h1[2]&#45;&gt;h2[2] -->
<g id="edge21" class="edge">
<title>h1[2]&#45;&gt;h2[2]</title>
<path fill="none" stroke="black" d="M146.47,-115C165.06,-115 194.76,-115 216.5,-115"/>
<polygon fill="black" stroke="black" points="216.75,-118.5 226.75,-115 216.75,-111.5 216.75,-118.5"/>
</g>
<!-- y -->
<g id="node11" class="node">
<title>y</title>
<ellipse fill="none" stroke="black" cx="340" cy="-115" rx="18" ry="18"/>
<text text-anchor="middle" x="340" y="-111.3" font-family="Times,serif" font-size="14.00">y</text>
</g>
<!-- h2[0]&#45;&gt;y -->
<g id="edge22" class="edge">
<title>h2[0]&#45;&gt;y</title>
<path fill="none" stroke="black" d="M260.94,-69.68C275.59,-78.18 298.13,-91.27 315.24,-101.2"/>
<polygon fill="black" stroke="black" points="313.69,-104.35 324.1,-106.35 317.2,-98.3 313.69,-104.35"/>
</g>
<!-- h2[1]&#45;&gt;y -->
<g id="edge23" class="edge">
<title>h2[1]&#45;&gt;y</title>
<path fill="none" stroke="black" d="M260.94,-160.32C275.59,-151.82 298.13,-138.73 315.24,-128.8"/>
<polygon fill="black" stroke="black" points="317.2,-131.7 324.1,-123.65 313.69,-125.65 317.2,-131.7"/>
</g>
<!-- h2[2]&#45;&gt;y -->
<g id="edge24" class="edge">
<title>h2[2]&#45;&gt;y</title>
<path fill="none" stroke="black" d="M263.06,-115C276.61,-115 295.82,-115 311.53,-115"/>
<polygon fill="black" stroke="black" points="311.74,-118.5 321.74,-115 311.74,-111.5 311.74,-118.5"/>
</g>
</g>
</svg>
