<?xml version="1.0" encoding="UTF-8" standalone="no"?>
<!DOCTYPE svg PUBLIC "-//W3C//DTD SVG 1.1//EN"
 "http://www.w3.org/Graphics/SVG/1.1/DTD/svg11.dtd">
<!-- Generated by graphviz version 2.49.0 (0)
 -->
<!-- Pages: 1 -->
<svg width="254pt" height="261pt"
 viewBox="0.00 0.00 254.00 261.00" xmlns="http://www.w3.org/2000/svg" xmlns:xlink="http://www.w3.org/1999/xlink">
<g id="graph0" class="graph" transform="scale(1 1) rotate(0) translate(4 257)">
<polygon fill="white" stroke="transparent" points="-4,4 -4,-257 250,-257 250,4 -4,4"/>
<g id="clust1" class="cluster">
<title>cluster_0</title>
<polygon fill="none" stroke="white" points="8,-8 8,-245 60,-245 60,-8 8,-8"/>
<text text-anchor="middle" x="34" y="-229.8" font-family="Times,serif" font-size="14.00">inputs</text>
</g>
<g id="clust2" class="cluster">
<title>cluster_1</title>
<polygon fill="none" stroke="white" points="80,-35 80,-218 166,-218 166,-35 80,-35"/>
<text text-anchor="middle" x="123" y="-202.8" font-family="Times,serif" font-size="14.00">hidden layer</text>
</g>
<g id="clust3" class="cluster">
<title>cluster_2</title>
<polygon fill="none" stroke="white" points="186,-89 186,-164 238,-164 238,-89 186,-89"/>
<text text-anchor="middle" x="212" y="-148.8" font-family="Times,serif" font-size="14.00">output</text>
</g>
<!-- x[0] -->
<g id="node1" class="node">
<title>x[0]</title>
<ellipse fill="none" stroke="black" cx="34" cy="-196" rx="18" ry="18"/>
<text text-anchor="middle" x="34" y="-192.3" font-family="Times,serif" font-size="14.00">x[0]</text>
</g>
<!-- h0 -->
<g id="node5" class="node">
<title>h0</title>
<ellipse fill="none" stroke="black" cx="123" cy="-61" rx="18" ry="18"/>
<text text-anchor="middle" x="123" y="-57.3" font-family="Times,serif" font-size="14.00">h[0]</text>
</g>
<!-- x[0]&#45;&gt;h0 -->
<g id="edge1" class="edge">
<title>x[0]&#45;&gt;h0</title>
<path fill="none" stroke="black" d="M44.48,-181.3C59.51,-157.96 88.97,-112.26 106.92,-84.39"/>
<polygon fill="black" stroke="black" points="110.06,-85.99 112.54,-75.69 104.18,-82.2 110.06,-85.99"/>
</g>
<!-- h1 -->
<g id="node6" class="node">
<title>h1</title>
<ellipse fill="none" stroke="black" cx="123" cy="-169" rx="18" ry="18"/>
<text text-anchor="middle" x="123" y="-165.3" font-family="Times,serif" font-size="14.00">h[1]</text>
</g>
<!-- x[0]&#45;&gt;h1 -->
<g id="edge2" class="edge">
<title>x[0]&#45;&gt;h1</title>
<path fill="none" stroke="black" d="M51.36,-190.92C63.88,-187.04 81.39,-181.6 95.84,-177.12"/>
<polygon fill="black" stroke="black" points="97.2,-180.36 105.71,-174.06 95.12,-173.68 97.2,-180.36"/>
</g>
<!-- h2 -->
<g id="node7" class="node">
<title>h2</title>
<ellipse fill="none" stroke="black" cx="123" cy="-115" rx="18" ry="18"/>
<text text-anchor="middle" x="123" y="-111.3" font-family="Times,serif" font-size="14.00">h[2]</text>
</g>
<!-- x[0]&#45;&gt;h2 -->
<g id="edge3" class="edge">
<title>x[0]&#45;&gt;h2</title>
<path fill="none" stroke="black" d="M47.84,-184.05C61.97,-170.89 84.9,-149.54 101.52,-134.07"/>
<polygon fill="black" stroke="black" points="104.18,-136.38 109.11,-127 99.41,-131.25 104.18,-136.38"/>
</g>
<!-- x[1] -->
<g id="node2" class="node">
<title>x[1]</title>
<ellipse fill="none" stroke="black" cx="34" cy="-142" rx="18" ry="18"/>
<text text-anchor="middle" x="34" y="-138.3" font-family="Times,serif" font-size="14.00">x[1]</text>
</g>
<!-- x[1]&#45;&gt;h0 -->
<g id="edge4" class="edge">
<title>x[1]&#45;&gt;h0</title>
<path fill="none" stroke="black" d="M47.84,-130.05C61.97,-116.89 84.9,-95.54 101.52,-80.07"/>
<polygon fill="black" stroke="black" points="104.18,-82.38 109.11,-73 99.41,-77.25 104.18,-82.38"/>
</g>
<!-- x[1]&#45;&gt;h1 -->
<g id="edge5" class="edge">
<title>x[1]&#45;&gt;h1</title>
<path fill="none" stroke="black" d="M51.36,-147.08C63.88,-150.96 81.39,-156.4 95.84,-160.88"/>
<polygon fill="black" stroke="black" points="95.12,-164.32 105.71,-163.94 97.2,-157.64 95.12,-164.32"/>
</g>
<!-- x[1]&#45;&gt;h2 -->
<g id="edge6" class="edge">
<title>x[1]&#45;&gt;h2</title>
<path fill="none" stroke="black" d="M51.36,-136.92C63.88,-133.04 81.39,-127.6 95.84,-123.12"/>
<polygon fill="black" stroke="black" points="97.2,-126.36 105.71,-120.06 95.12,-119.68 97.2,-126.36"/>
</g>
<!-- x[2] -->
<g id="node3" class="node">
<title>x[2]</title>
<ellipse fill="none" stroke="black" cx="34" cy="-88" rx="18" ry="18"/>
<text text-anchor="middle" x="34" y="-84.3" font-family="Times,serif" font-size="14.00">x[2]</text>
</g>
<!-- x[2]&#45;&gt;h0 -->
<g id="edge7" class="edge">
<title>x[2]&#45;&gt;h0</title>
<path fill="none" stroke="black" d="M51.36,-82.92C63.88,-79.04 81.39,-73.6 95.84,-69.12"/>
<polygon fill="black" stroke="black" points="97.2,-72.36 105.71,-66.06 95.12,-65.68 97.2,-72.36"/>
</g>
<!-- x[2]&#45;&gt;h1 -->
<g id="edge8" class="edge">
<title>x[2]&#45;&gt;h1</title>
<path fill="none" stroke="black" d="M47.84,-99.95C61.97,-113.11 84.9,-134.46 101.52,-149.93"/>
<polygon fill="black" stroke="black" points="99.41,-152.75 109.11,-157 104.18,-147.62 99.41,-152.75"/>
</g>
<!-- x[2]&#45;&gt;h2 -->
<g id="edge9" class="edge">
<title>x[2]&#45;&gt;h2</title>
<path fill="none" stroke="black" d="M51.36,-93.08C63.88,-96.96 81.39,-102.4 95.84,-106.88"/>
<polygon fill="black" stroke="black" points="95.12,-110.32 105.71,-109.94 97.2,-103.64 95.12,-110.32"/>
</g>
<!-- x[3] -->
<g id="node4" class="node">
<title>x[3]</title>
<ellipse fill="none" stroke="black" cx="34" cy="-34" rx="18" ry="18"/>
<text text-anchor="middle" x="34" y="-30.3" font-family="Times,serif" font-size="14.00">x[3]</text>
</g>
<!-- x[3]&#45;&gt;h0 -->
<g id="edge10" class="edge">
<title>x[3]&#45;&gt;h0</title>
<path fill="none" stroke="black" d="M51.36,-39.08C63.88,-42.96 81.39,-48.4 95.84,-52.88"/>
<polygon fill="black" stroke="black" points="95.12,-56.32 105.71,-55.94 97.2,-49.64 95.12,-56.32"/>
</g>
<!-- x[3]&#45;&gt;h1 -->
<g id="edge11" class="edge">
<title>x[3]&#45;&gt;h1</title>
<path fill="none" stroke="black" d="M44.48,-48.7C59.51,-72.04 88.97,-117.74 106.92,-145.61"/>
<polygon fill="black" stroke="black" points="104.18,-147.8 112.54,-154.31 110.06,-144.01 104.18,-147.8"/>
</g>
<!-- x[3]&#45;&gt;h2 -->
<g id="edge12" class="edge">
<title>x[3]&#45;&gt;h2</title>
<path fill="none" stroke="black" d="M47.84,-45.95C61.97,-59.11 84.9,-80.46 101.52,-95.93"/>
<polygon fill="black" stroke="black" points="99.41,-98.75 109.11,-103 104.18,-93.62 99.41,-98.75"/>
</g>
<!-- y -->
<g id="node8" class="node">
<title>y</title>
<ellipse fill="none" stroke="black" cx="212" cy="-115" rx="18" ry="18"/>
<text text-anchor="middle" x="212" y="-111.3" font-family="Times,serif" font-size="14.00">y</text>
</g>
<!-- h0&#45;&gt;y -->
<g id="edge13" class="edge">
<title>h0&#45;&gt;y</title>
<path fill="none" stroke="black" d="M138.76,-70.16C152.13,-78.46 172.07,-90.83 187.61,-100.48"/>
<polygon fill="black" stroke="black" points="185.83,-103.49 196.17,-105.79 189.52,-97.55 185.83,-103.49"/>
</g>
<!-- h1&#45;&gt;y -->
<g id="edge14" class="edge">
<title>h1&#45;&gt;y</title>
<path fill="none" stroke="black" d="M138.76,-159.84C152.13,-151.54 172.07,-139.17 187.61,-129.52"/>
<polygon fill="black" stroke="black" points="189.52,-132.45 196.17,-124.21 185.83,-126.51 189.52,-132.45"/>
</g>
<!-- h2&#45;&gt;y -->
<g id="edge15" class="edge">
<title>h2&#45;&gt;y</title>
<path fill="none" stroke="black" d="M141.19,-115C153.34,-115 169.89,-115 183.82,-115"/>
<polygon fill="black" stroke="black" points="183.85,-118.5 193.85,-115 183.85,-111.5 183.85,-118.5"/>
</g>
</g>
</svg>
